  0
SECTION
  2
HEADER
  9
$ACADVER
  1
AC1014
  9
$HANDSEED
  5
FFFF
  9
$MEASUREMENT
 70
     1
  0
ENDSEC
  0
SECTION
  2
TABLES
  0
TABLE
  2
VPORT
  5
8
330
0
100
AcDbSymbolTable
 70
     4
  0
VPORT
  5
2E
330
8
100
AcDbSymbolTableRecord
100
AcDbViewportTableRecord
  2
*ACTIVE
 70
     0
 10
0.0
 20
0.0
 11
1.0
 21
1.0
 12
210.0
 22
148.5
 13
0.0
 23
0.0
 14
10.0
 24
10.0
 15
10.0
 25
10.0
 16
0.0
 26
0.0
 36
1.0
 17
0.0
 27
0.0
 37
0.0
 40
341.0
 41
1.24
 42
50.0
 43
0.0
 44
0.0
 50
0.0
 51
0.0
 71
     0
 72
   100
 73
     1
 74
     3
 75
     0
 76
     0
 77
     0
 78
     0
  0
ENDTAB
  0
TABLE
  2
LTYPE
  5
5
330
0
100
AcDbSymbolTable
 70
     1
  0
LTYPE
  5
14
330
5
100
AcDbSymbolTableRecord
100
AcDbLinetypeTableRecord
  2
BYBLOCK
 70
     0
  3

 72
    65
 73
     0
 40
0.0
  0
LTYPE
  5
15
330
5
100
AcDbSymbolTableRecord
100
AcDbLinetypeTableRecord
  2
BYLAYER
 70
     0
  3

 72
    65
 73
     0
 40
0.0
  0
LTYPE
  5
16
330
5
100
AcDbSymbolTableRecord
100
AcDbLinetypeTableRecord
  2
CONTINUOUS
 70
     0
  3
Solid line
 72
    65
 73
     0
 40
0.0
  0
ENDTAB
  0
TABLE
  2
LAYER
  5
2
100
AcDbSymbolTable
 70
2
  0
LAYER
  5
50
100
AcDbSymbolTableRecord
100
AcDbLayerTableRecord
  2
0
 70
0
  6
CONTINUOUS
  0
LAYER
  5
51
100
AcDbSymbolTableRecord
100
AcDbLayerTableRecord
  2
Laag_1
 70
0
  6
CONTINUOUS
  0
ENDTAB
  0
TABLE
  2
STYLE
  5
3
330
0
100
AcDbSymbolTable
 70
     1
  0
STYLE
  5
11
330
3
100
AcDbSymbolTableRecord
100
AcDbTextStyleTableRecord
  2
STANDARD
 70
     0
 40
0.0
 41
1.0
 50
0.0
 71
     0
 42
2.5
  3
txt
  4

  0
ENDTAB
  0
TABLE
  2
VIEW
  5
6
330
0
100
AcDbSymbolTable
 70
     0
  0
ENDTAB
  0
TABLE
  2
UCS
  5
7
330
0
100
AcDbSymbolTable
 70
     0
  0
ENDTAB
  0
TABLE
  2
APPID
  5
9
330
0
100
AcDbSymbolTable
 70
     2
  0
APPID
  5
12
330
9
100
AcDbSymbolTableRecord
100
AcDbRegAppTableRecord
  2
ACAD
 70
     0
  0
ENDTAB
  0
TABLE
  2
DIMSTYLE
  5
A
330
0
100
AcDbSymbolTable
 70
     1
  0
DIMSTYLE
105
27
330
A
100
AcDbSymbolTableRecord
100
AcDbDimStyleTableRecord
  2
ISO-25
 70
     0
  3

  4

  5

  6

  7

 40
1.0
 41
2.5
 42
0.625
 43
3.75
 44
1.25
 45
0.0
 46
0.0
 47
0.0
 48
0.0
140
2.5
141
2.5
142
0.0
143
0.03937007874016
144
1.0
145
0.0
146
1.0
147
0.625
 71
     0
 72
     0
 73
     0
 74
     0
 75
     0
 76
     0
 77
     1
 78
     8
170
     0
171
     3
172
     1
173
     0
174
     0
175
     0
176
     0
177
     0
178
     0
270
     2
271
     2
272
     2
273
     2
274
     3
340
11
275
     0
280
     0
281
     0
282
     0
283
     0
284
     8
285
     0
286
     0
287
     3
288
     0
  0
ENDTAB
  0
TABLE
  2
BLOCK_RECORD
  5
1
330
0
100
AcDbSymbolTable
 70
     1
  0
BLOCK_RECORD
  5
1F
330
1
100
AcDbSymbolTableRecord
100
AcDbBlockTableRecord
  2
*MODEL_SPACE
  0
BLOCK_RECORD
  5
1B
330
1
100
AcDbSymbolTableRecord
100
AcDbBlockTableRecord
  2
*PAPER_SPACE
  0
ENDTAB
  0
ENDSEC
  0
SECTION
  2
BLOCKS
  0
BLOCK
  5
20
330
1F
100
AcDbEntity
  8
0
100
AcDbBlockBegin
  2
*MODEL_SPACE
 70
     0
 10
0.0
 20
0.0
 30
0.0
  3
*MODEL_SPACE
  1

  0
ENDBLK
  5
21
330
1F
100
AcDbEntity
  8
0
100
AcDbBlockEnd
  0
BLOCK
  5
1C
330
1B
100
AcDbEntity
 67
     1
  8
0
100
AcDbBlockBegin
  2
*PAPER_SPACE
  1

  0
ENDBLK
  5
1D
330
1B
100
AcDbEntity
 67
     1
  8
0
100
AcDbBlockEnd
  0
ENDSEC
  0
SECTION
  2
ENTITIES
  0
SPLINE
  5
100
100
AcDbEntity
  8
Laag_1
 62
7
100
AcDbSpline
 70
8
 71
3
 72
8
 73
4
 74
0
 40
0
 40
0
 40
0
 40
0
 40
1
 40
1
 40
1
 40
1
 10
1.267573
 20
20.126435
 30
0.0
 10
0.596859
 20
20.125225
 30
0.0
 10
0.053760
 20
19.581201
 30
0.0
 10
0.053690
 20
18.910486
 30
0.0
  0
SPLINE
  5
101
100
AcDbEntity
  8
Laag_1
 62
7
100
AcDbSpline
 70
8
 71
3
 72
8
 73
4
 74
0
 40
0
 40
0
 40
0
 40
0
 40
1
 40
1
 40
1
 40
1
 10
0.053690
 20
18.910486
 30
0.0
 10
0.053702
 20
18.898943
 30
0.0
 10
0.053879
 20
18.887401
 30
0.0
 10
0.054220
 20
18.875863
 30
0.0
  0
SPLINE
  5
102
100
AcDbEntity
  8
Laag_1
 62
7
100
AcDbSpline
 70
8
 71
3
 72
8
 73
4
 74
0
 40
0
 40
0
 40
0
 40
0
 40
1
 40
1
 40
1
 40
1
 10
0.054220
 20
1.285162
 30
0.0
 10
0.053879
 20
1.273624
 30
0.0
 10
0.053702
 20
1.262081
 30
0.0
 10
0.053690
 20
1.250538
 30
0.0
  0
SPLINE
  5
103
100
AcDbEntity
  8
Laag_1
 62
7
100
AcDbSpline
 70
8
 71
3
 72
8
 73
4
 74
0
 40
0
 40
0
 40
0
 40
0
 40
1
 40
1
 40
1
 40
1
 10
0.053690
 20
1.250538
 30
0.0
 10
0.053724
 20
0.927969
 30
0.0
 10
0.181915
 20
0.618629
 30
0.0
 10
0.410054
 20
0.390587
 30
0.0
  0
SPLINE
  5
104
100
AcDbEntity
  8
Laag_1
 62
7
100
AcDbSpline
 70
8
 71
3
 72
8
 73
4
 74
0
 40
0
 40
0
 40
0
 40
0
 40
1
 40
1
 40
1
 40
1
 10
0.410054
 20
0.390587
 30
0.0
 10
0.638194
 20
0.162545
 30
0.0
 10
0.947589
 20
0.034486
 30
0.0
 10
1.270158
 20
0.034590
 30
0.0
  0
SPLINE
  5
105
100
AcDbEntity
  8
Laag_1
 62
7
100
AcDbSpline
 70
8
 71
3
 72
8
 73
4
 74
0
 40
0
 40
0
 40
0
 40
0
 40
1
 40
1
 40
1
 40
1
 10
1.270158
 20
0.034590
 30
0.0
 10
1.941678
 20
0.034660
 30
0.0
 10
2.486035
 20
0.579018
 30
0.0
 10
2.486106
 20
1.250538
 30
0.0
  0
SPLINE
  5
106
100
AcDbEntity
  8
Laag_1
 62
7
100
AcDbSpline
 70
8
 71
3
 72
8
 73
4
 74
0
 40
0
 40
0
 40
0
 40
0
 40
1
 40
1
 40
1
 40
1
 10
2.486106
 20
1.250538
 30
0.0
 10
2.486094
 20
1.262081
 30
0.0
 10
2.485918
 20
1.273624
 30
0.0
 10
2.485577
 20
1.285162
 30
0.0
  0
LWPOLYLINE
  5
107
100
AcDbEntity
  8
Laag_1
 62
7
100
AcDbPolyline
 90
4
 70
0
 10
0.054220
 20
18.875863
 30
0.0
 10
0.034587
 20
18.875863
 30
0.0
 10
0.034587
 20
1.285162
 30
0.0
 10
0.054220
 20
1.285162
 30
0.0
  0
SPLINE
  5
108
100
AcDbEntity
  8
Laag_1
 62
7
100
AcDbSpline
 70
8
 71
3
 72
8
 73
4
 74
0
 40
0
 40
0
 40
0
 40
0
 40
1
 40
1
 40
1
 40
1
 10
2.485577
 20
18.875863
 30
0.0
 10
2.485918
 20
18.887401
 30
0.0
 10
2.486094
 20
18.898943
 30
0.0
 10
2.486106
 20
18.910486
 30
0.0
  0
SPLINE
  5
109
100
AcDbEntity
  8
Laag_1
 62
7
100
AcDbSpline
 70
8
 71
3
 72
8
 73
4
 74
0
 40
0
 40
0
 40
0
 40
0
 40
1
 40
1
 40
1
 40
1
 10
2.486106
 20
18.910486
 30
0.0
 10
2.486035
 20
19.582007
 30
0.0
 10
1.941678
 20
20.126364
 30
0.0
 10
1.270158
 20
20.126435
 30
0.0
  0
LWPOLYLINE
  5
10a
100
AcDbEntity
  8
Laag_1
 62
7
100
AcDbPolyline
 90
4
 70
0
 10
2.485577
 20
1.285162
 30
0.0
 10
2.505209
 20
1.285162
 30
0.0
 10
2.505209
 20
18.875863
 30
0.0
 10
2.485577
 20
18.875863
 30
0.0
  0
LWPOLYLINE
  5
10b
100
AcDbEntity
  8
Laag_1
 62
7
100
AcDbPolyline
 90
3
 70
0
 10
1.270158
 20
20.126435
 30
0.0
 10
1.267512
 20
20.126435
 30
0.0
 10
1.267573
 20
20.126435
 30
0.0
  0
SPLINE
  5
10c
100
AcDbEntity
  8
Laag_1
 62
7
100
AcDbSpline
 70
8
 71
3
 72
8
 73
4
 74
0
 40
0
 40
0
 40
0
 40
0
 40
1
 40
1
 40
1
 40
1
 10
1.260349
 20
19.911461
 30
0.0
 10
1.263454
 20
19.911476
 30
0.0
 10
1.266558
 20
19.911476
 30
0.0
 10
1.269663
 20
19.911461
 30
0.0
  0
SPLINE
  5
10d
100
AcDbEntity
  8
Laag_1
 62
7
100
AcDbSpline
 70
8
 71
3
 72
8
 73
4
 74
0
 40
0
 40
0
 40
0
 40
0
 40
1
 40
1
 40
1
 40
1
 10
1.269663
 20
19.911461
 30
0.0
 10
1.519324
 20
19.911582
 30
0.0
 10
1.758802
 20
19.812494
 30
0.0
 10
1.935388
 20
19.636005
 30
0.0
  0
SPLINE
  5
10e
100
AcDbEntity
  8
Laag_1
 62
7
100
AcDbSpline
 70
8
 71
3
 72
8
 73
4
 74
0
 40
0
 40
0
 40
0
 40
0
 40
1
 40
1
 40
1
 40
1
 10
1.935388
 20
19.636005
 30
0.0
 10
2.111974
 20
19.459516
 30
0.0
 10
2.211193
 20
19.220092
 30
0.0
 10
2.211209
 20
18.970431
 30
0.0
  0
SPLINE
  5
10f
100
AcDbEntity
  8
Laag_1
 62
7
100
AcDbSpline
 70
8
 71
3
 72
8
 73
4
 74
0
 40
0
 40
0
 40
0
 40
0
 40
1
 40
1
 40
1
 40
1
 10
2.211209
 20
18.970431
 30
0.0
 10
2.211193
 20
18.720769
 30
0.0
 10
2.111974
 20
18.481345
 30
0.0
 10
1.935388
 20
18.304857
 30
0.0
  0
SPLINE
  5
110
100
AcDbEntity
  8
Laag_1
 62
7
100
AcDbSpline
 70
8
 71
3
 72
8
 73
4
 74
0
 40
0
 40
0
 40
0
 40
0
 40
1
 40
1
 40
1
 40
1
 10
1.935388
 20
18.304857
 30
0.0
 10
1.758802
 20
18.128368
 30
0.0
 10
1.519324
 20
18.029279
 30
0.0
 10
1.269663
 20
18.029401
 30
0.0
  0
SPLINE
  5
111
100
AcDbEntity
  8
Laag_1
 62
7
100
AcDbSpline
 70
8
 71
3
 72
8
 73
4
 74
0
 40
0
 40
0
 40
0
 40
0
 40
1
 40
1
 40
1
 40
1
 10
1.269663
 20
18.029401
 30
0.0
 10
0.749960
 20
18.029433
 30
0.0
 10
0.328665
 20
18.450727
 30
0.0
 10
0.328633
 20
18.970431
 30
0.0
  0
SPLINE
  5
112
100
AcDbEntity
  8
Laag_1
 62
7
100
AcDbSpline
 70
8
 71
3
 72
8
 73
4
 74
0
 40
0
 40
0
 40
0
 40
0
 40
1
 40
1
 40
1
 40
1
 10
0.328633
 20
18.970431
 30
0.0
 10
0.328636
 20
19.486324
 30
0.0
 10
0.743979
 20
19.906046
 30
0.0
 10
1.259844
 20
19.911461
 30
0.0
  0
LWPOLYLINE
  5
113
100
AcDbEntity
  8
Laag_1
 62
7
100
AcDbPolyline
 90
2
 70
0
 10
1.259820
 20
19.911461
 30
0.0
 10
1.260349
 20
19.911461
 30
0.0
  0
LWPOLYLINE
  5
114
100
AcDbEntity
  8
Laag_1
 62
7
100
AcDbPolyline
 90
1
 70
1
 10
1.259844
 20
19.911461
 30
0.0
  0
SPLINE
  5
115
100
AcDbEntity
  8
Laag_1
 62
7
100
AcDbSpline
 70
8
 71
3
 72
8
 73
4
 74
0
 40
0
 40
0
 40
0
 40
0
 40
1
 40
1
 40
1
 40
1
 10
1.260349
 20
17.371558
 30
0.0
 10
1.263454
 20
17.371573
 30
0.0
 10
1.266558
 20
17.371573
 30
0.0
 10
1.269663
 20
17.371558
 30
0.0
  0
SPLINE
  5
116
100
AcDbEntity
  8
Laag_1
 62
7
100
AcDbSpline
 70
8
 71
3
 72
8
 73
4
 74
0
 40
0
 40
0
 40
0
 40
0
 40
1
 40
1
 40
1
 40
1
 10
1.269663
 20
17.371558
 30
0.0
 10
1.519324
 20
17.371679
 30
0.0
 10
1.758802
 20
17.272591
 30
0.0
 10
1.935388
 20
17.096102
 30
0.0
  0
SPLINE
  5
117
100
AcDbEntity
  8
Laag_1
 62
7
100
AcDbSpline
 70
8
 71
3
 72
8
 73
4
 74
0
 40
0
 40
0
 40
0
 40
0
 40
1
 40
1
 40
1
 40
1
 10
1.935388
 20
17.096102
 30
0.0
 10
2.111974
 20
16.919613
 30
0.0
 10
2.211193
 20
16.680189
 30
0.0
 10
2.211209
 20
16.430528
 30
0.0
  0
SPLINE
  5
118
100
AcDbEntity
  8
Laag_1
 62
7
100
AcDbSpline
 70
8
 71
3
 72
8
 73
4
 74
0
 40
0
 40
0
 40
0
 40
0
 40
1
 40
1
 40
1
 40
1
 10
2.211209
 20
16.430528
 30
0.0
 10
2.211193
 20
16.180866
 30
0.0
 10
2.111974
 20
15.941442
 30
0.0
 10
1.935388
 20
15.764954
 30
0.0
  0
SPLINE
  5
119
100
AcDbEntity
  8
Laag_1
 62
7
100
AcDbSpline
 70
8
 71
3
 72
8
 73
4
 74
0
 40
0
 40
0
 40
0
 40
0
 40
1
 40
1
 40
1
 40
1
 10
1.935388
 20
15.764954
 30
0.0
 10
1.758802
 20
15.588465
 30
0.0
 10
1.519324
 20
15.489376
 30
0.0
 10
1.269663
 20
15.489498
 30
0.0
  0
SPLINE
  5
11a
100
AcDbEntity
  8
Laag_1
 62
7
100
AcDbSpline
 70
8
 71
3
 72
8
 73
4
 74
0
 40
0
 40
0
 40
0
 40
0
 40
1
 40
1
 40
1
 40
1
 10
1.269663
 20
15.489498
 30
0.0
 10
0.749960
 20
15.489530
 30
0.0
 10
0.328665
 20
15.910824
 30
0.0
 10
0.328633
 20
16.430528
 30
0.0
  0
SPLINE
  5
11b
100
AcDbEntity
  8
Laag_1
 62
7
100
AcDbSpline
 70
8
 71
3
 72
8
 73
4
 74
0
 40
0
 40
0
 40
0
 40
0
 40
1
 40
1
 40
1
 40
1
 10
0.328633
 20
16.430528
 30
0.0
 10
0.328636
 20
16.946421
 30
0.0
 10
0.743979
 20
17.366143
 30
0.0
 10
1.259844
 20
17.371558
 30
0.0
  0
LWPOLYLINE
  5
11c
100
AcDbEntity
  8
Laag_1
 62
7
100
AcDbPolyline
 90
2
 70
0
 10
1.259820
 20
17.371558
 30
0.0
 10
1.260349
 20
17.371558
 30
0.0
  0
LWPOLYLINE
  5
11d
100
AcDbEntity
  8
Laag_1
 62
7
100
AcDbPolyline
 90
1
 70
1
 10
1.259844
 20
17.371558
 30
0.0
  0
SPLINE
  5
11e
100
AcDbEntity
  8
Laag_1
 62
7
100
AcDbSpline
 70
8
 71
3
 72
8
 73
4
 74
0
 40
0
 40
0
 40
0
 40
0
 40
1
 40
1
 40
1
 40
1
 10
1.260349
 20
14.831655
 30
0.0
 10
1.263454
 20
14.831670
 30
0.0
 10
1.266558
 20
14.831670
 30
0.0
 10
1.269663
 20
14.831655
 30
0.0
  0
SPLINE
  5
11f
100
AcDbEntity
  8
Laag_1
 62
7
100
AcDbSpline
 70
8
 71
3
 72
8
 73
4
 74
0
 40
0
 40
0
 40
0
 40
0
 40
1
 40
1
 40
1
 40
1
 10
1.269663
 20
14.831655
 30
0.0
 10
1.519324
 20
14.831776
 30
0.0
 10
1.758802
 20
14.732688
 30
0.0
 10
1.935388
 20
14.556199
 30
0.0
  0
SPLINE
  5
120
100
AcDbEntity
  8
Laag_1
 62
7
100
AcDbSpline
 70
8
 71
3
 72
8
 73
4
 74
0
 40
0
 40
0
 40
0
 40
0
 40
1
 40
1
 40
1
 40
1
 10
1.935388
 20
14.556199
 30
0.0
 10
2.111974
 20
14.379710
 30
0.0
 10
2.211193
 20
14.140286
 30
0.0
 10
2.211209
 20
13.890625
 30
0.0
  0
SPLINE
  5
121
100
AcDbEntity
  8
Laag_1
 62
7
100
AcDbSpline
 70
8
 71
3
 72
8
 73
4
 74
0
 40
0
 40
0
 40
0
 40
0
 40
1
 40
1
 40
1
 40
1
 10
2.211209
 20
13.890625
 30
0.0
 10
2.211193
 20
13.640963
 30
0.0
 10
2.111974
 20
13.401539
 30
0.0
 10
1.935388
 20
13.225051
 30
0.0
  0
SPLINE
  5
122
100
AcDbEntity
  8
Laag_1
 62
7
100
AcDbSpline
 70
8
 71
3
 72
8
 73
4
 74
0
 40
0
 40
0
 40
0
 40
0
 40
1
 40
1
 40
1
 40
1
 10
1.935388
 20
13.225051
 30
0.0
 10
1.758802
 20
13.048562
 30
0.0
 10
1.519324
 20
12.949473
 30
0.0
 10
1.269663
 20
12.949595
 30
0.0
  0
SPLINE
  5
123
100
AcDbEntity
  8
Laag_1
 62
7
100
AcDbSpline
 70
8
 71
3
 72
8
 73
4
 74
0
 40
0
 40
0
 40
0
 40
0
 40
1
 40
1
 40
1
 40
1
 10
1.269663
 20
12.949595
 30
0.0
 10
0.749960
 20
12.949627
 30
0.0
 10
0.328665
 20
13.370922
 30
0.0
 10
0.328633
 20
13.890625
 30
0.0
  0
SPLINE
  5
124
100
AcDbEntity
  8
Laag_1
 62
7
100
AcDbSpline
 70
8
 71
3
 72
8
 73
4
 74
0
 40
0
 40
0
 40
0
 40
0
 40
1
 40
1
 40
1
 40
1
 10
0.328633
 20
13.890625
 30
0.0
 10
0.328636
 20
14.406518
 30
0.0
 10
0.743979
 20
14.826240
 30
0.0
 10
1.259844
 20
14.831655
 30
0.0
  0
LWPOLYLINE
  5
125
100
AcDbEntity
  8
Laag_1
 62
7
100
AcDbPolyline
 90
2
 70
0
 10
1.259820
 20
14.831655
 30
0.0
 10
1.260349
 20
14.831655
 30
0.0
  0
LWPOLYLINE
  5
126
100
AcDbEntity
  8
Laag_1
 62
7
100
AcDbPolyline
 90
1
 70
1
 10
1.259844
 20
14.831655
 30
0.0
  0
SPLINE
  5
127
100
AcDbEntity
  8
Laag_1
 62
7
100
AcDbSpline
 70
8
 71
3
 72
8
 73
4
 74
0
 40
0
 40
0
 40
0
 40
0
 40
1
 40
1
 40
1
 40
1
 10
1.260349
 20
12.291752
 30
0.0
 10
1.263454
 20
12.291767
 30
0.0
 10
1.266558
 20
12.291767
 30
0.0
 10
1.269663
 20
12.291752
 30
0.0
  0
SPLINE
  5
128
100
AcDbEntity
  8
Laag_1
 62
7
100
AcDbSpline
 70
8
 71
3
 72
8
 73
4
 74
0
 40
0
 40
0
 40
0
 40
0
 40
1
 40
1
 40
1
 40
1
 10
1.269663
 20
12.291752
 30
0.0
 10
1.519324
 20
12.291873
 30
0.0
 10
1.758802
 20
12.192785
 30
0.0
 10
1.935388
 20
12.016296
 30
0.0
  0
SPLINE
  5
129
100
AcDbEntity
  8
Laag_1
 62
7
100
AcDbSpline
 70
8
 71
3
 72
8
 73
4
 74
0
 40
0
 40
0
 40
0
 40
0
 40
1
 40
1
 40
1
 40
1
 10
1.935388
 20
12.016296
 30
0.0
 10
2.111974
 20
11.839807
 30
0.0
 10
2.211193
 20
11.600383
 30
0.0
 10
2.211209
 20
11.350722
 30
0.0
  0
SPLINE
  5
12a
100
AcDbEntity
  8
Laag_1
 62
7
100
AcDbSpline
 70
8
 71
3
 72
8
 73
4
 74
0
 40
0
 40
0
 40
0
 40
0
 40
1
 40
1
 40
1
 40
1
 10
2.211209
 20
11.350722
 30
0.0
 10
2.211330
 20
11.100971
 30
0.0
 10
2.112171
 20
10.861415
 30
0.0
 10
1.935570
 20
10.684814
 30
0.0
  0
SPLINE
  5
12b
100
AcDbEntity
  8
Laag_1
 62
7
100
AcDbSpline
 70
8
 71
3
 72
8
 73
4
 74
0
 40
0
 40
0
 40
0
 40
0
 40
1
 40
1
 40
1
 40
1
 10
1.935570
 20
10.684814
 30
0.0
 10
1.758970
 20
10.508214
 30
0.0
 10
1.519414
 20
10.409054
 30
0.0
 10
1.269663
 20
10.409176
 30
0.0
  0
SPLINE
  5
12c
100
AcDbEntity
  8
Laag_1
 62
7
100
AcDbSpline
 70
8
 71
3
 72
8
 73
4
 74
0
 40
0
 40
0
 40
0
 40
0
 40
1
 40
1
 40
1
 40
1
 10
1.269663
 20
10.409176
 30
0.0
 10
1.020001
 20
10.409191
 30
0.0
 10
0.780578
 20
10.508411
 30
0.0
 10
0.604089
 20
10.684997
 30
0.0
  0
SPLINE
  5
12d
100
AcDbEntity
  8
Laag_1
 62
7
100
AcDbSpline
 70
8
 71
3
 72
8
 73
4
 74
0
 40
0
 40
0
 40
0
 40
0
 40
1
 40
1
 40
1
 40
1
 10
0.604089
 20
10.684997
 30
0.0
 10
0.427600
 20
10.861582
 30
0.0
 10
0.328511
 20
11.101060
 30
0.0
 10
0.328633
 20
11.350722
 30
0.0
  0
SPLINE
  5
12e
100
AcDbEntity
  8
Laag_1
 62
7
100
AcDbSpline
 70
8
 71
3
 72
8
 73
4
 74
0
 40
0
 40
0
 40
0
 40
0
 40
1
 40
1
 40
1
 40
1
 10
0.328633
 20
11.350722
 30
0.0
 10
0.328636
 20
11.866615
 30
0.0
 10
0.743979
 20
12.286337
 30
0.0
 10
1.259844
 20
12.291752
 30
0.0
  0
LWPOLYLINE
  5
12f
100
AcDbEntity
  8
Laag_1
 62
7
100
AcDbPolyline
 90
2
 70
0
 10
1.259820
 20
12.291752
 30
0.0
 10
1.260349
 20
12.291752
 30
0.0
  0
LWPOLYLINE
  5
130
100
AcDbEntity
  8
Laag_1
 62
7
100
AcDbPolyline
 90
1
 70
1
 10
1.259844
 20
12.291752
 30
0.0
  0
SPLINE
  5
131
100
AcDbEntity
  8
Laag_1
 62
7
100
AcDbSpline
 70
8
 71
3
 72
8
 73
4
 74
0
 40
0
 40
0
 40
0
 40
0
 40
1
 40
1
 40
1
 40
1
 10
1.259820
 20
9.751849
 30
0.0
 10
1.263092
 20
9.751866
 30
0.0
 10
1.266364
 20
9.751866
 30
0.0
 10
1.269636
 20
9.751849
 30
0.0
  0
SPLINE
  5
132
100
AcDbEntity
  8
Laag_1
 62
7
100
AcDbSpline
 70
8
 71
3
 72
8
 73
4
 74
0
 40
0
 40
0
 40
0
 40
0
 40
1
 40
1
 40
1
 40
1
 10
1.269636
 20
9.751849
 30
0.0
 10
1.519387
 20
9.751970
 30
0.0
 10
1.758944
 20
9.652811
 30
0.0
 10
1.935544
 20
9.476211
 30
0.0
  0
SPLINE
  5
133
100
AcDbEntity
  8
Laag_1
 62
7
100
AcDbSpline
 70
8
 71
3
 72
8
 73
4
 74
0
 40
0
 40
0
 40
0
 40
0
 40
1
 40
1
 40
1
 40
1
 10
1.935544
 20
9.476211
 30
0.0
 10
2.112144
 20
9.299610
 30
0.0
 10
2.211304
 20
9.060054
 30
0.0
 10
2.211182
 20
8.810303
 30
0.0
  0
SPLINE
  5
134
100
AcDbEntity
  8
Laag_1
 62
7
100
AcDbSpline
 70
8
 71
3
 72
8
 73
4
 74
0
 40
0
 40
0
 40
0
 40
0
 40
1
 40
1
 40
1
 40
1
 10
2.211182
 20
8.810303
 30
0.0
 10
2.211167
 20
8.560642
 30
0.0
 10
2.111947
 20
8.321218
 30
0.0
 10
1.935361
 20
8.144729
 30
0.0
  0
SPLINE
  5
135
100
AcDbEntity
  8
Laag_1
 62
7
100
AcDbSpline
 70
8
 71
3
 72
8
 73
4
 74
0
 40
0
 40
0
 40
0
 40
0
 40
1
 40
1
 40
1
 40
1
 10
1.935361
 20
8.144729
 30
0.0
 10
1.758776
 20
7.968240
 30
0.0
 10
1.519298
 20
7.869151
 30
0.0
 10
1.269636
 20
7.869273
 30
0.0
  0
SPLINE
  5
136
100
AcDbEntity
  8
Laag_1
 62
7
100
AcDbSpline
 70
8
 71
3
 72
8
 73
4
 74
0
 40
0
 40
0
 40
0
 40
0
 40
1
 40
1
 40
1
 40
1
 10
1.269636
 20
7.869273
 30
0.0
 10
0.749933
 20
7.869305
 30
0.0
 10
0.328639
 20
8.290600
 30
0.0
 10
0.328606
 20
8.810303
 30
0.0
  0
SPLINE
  5
137
100
AcDbEntity
  8
Laag_1
 62
7
100
AcDbSpline
 70
8
 71
3
 72
8
 73
4
 74
0
 40
0
 40
0
 40
0
 40
0
 40
1
 40
1
 40
1
 40
1
 10
0.328606
 20
8.810303
 30
0.0
 10
0.328324
 20
9.326197
 30
0.0
 10
0.743436
 20
9.746150
 30
0.0
 10
1.259299
 20
9.751849
 30
0.0
  0
LWPOLYLINE
  5
138
100
AcDbEntity
  8
Laag_1
 62
7
100
AcDbPolyline
 90
2
 70
0
 10
1.259291
 20
9.751849
 30
0.0
 10
1.259820
 20
9.751849
 30
0.0
  0
LWPOLYLINE
  5
139
100
AcDbEntity
  8
Laag_1
 62
7
100
AcDbPolyline
 90
1
 70
1
 10
1.259299
 20
9.751849
 30
0.0
  0
SPLINE
  5
13a
100
AcDbEntity
  8
Laag_1
 62
7
100
AcDbSpline
 70
8
 71
3
 72
8
 73
4
 74
0
 40
0
 40
0
 40
0
 40
0
 40
1
 40
1
 40
1
 40
1
 10
1.260349
 20
7.211430
 30
0.0
 10
1.263454
 20
7.211445
 30
0.0
 10
1.266558
 20
7.211445
 30
0.0
 10
1.269663
 20
7.211430
 30
0.0
  0
SPLINE
  5
13b
100
AcDbEntity
  8
Laag_1
 62
7
100
AcDbSpline
 70
8
 71
3
 72
8
 73
4
 74
0
 40
0
 40
0
 40
0
 40
0
 40
1
 40
1
 40
1
 40
1
 10
1.269663
 20
7.211430
 30
0.0
 10
1.519324
 20
7.211551
 30
0.0
 10
1.758802
 20
7.112463
 30
0.0
 10
1.935388
 20
6.935974
 30
0.0
  0
SPLINE
  5
13c
100
AcDbEntity
  8
Laag_1
 62
7
100
AcDbSpline
 70
8
 71
3
 72
8
 73
4
 74
0
 40
0
 40
0
 40
0
 40
0
 40
1
 40
1
 40
1
 40
1
 10
1.935388
 20
6.935974
 30
0.0
 10
2.111974
 20
6.759485
 30
0.0
 10
2.211193
 20
6.520061
 30
0.0
 10
2.211209
 20
6.270400
 30
0.0
  0
SPLINE
  5
13d
100
AcDbEntity
  8
Laag_1
 62
7
100
AcDbSpline
 70
8
 71
3
 72
8
 73
4
 74
0
 40
0
 40
0
 40
0
 40
0
 40
1
 40
1
 40
1
 40
1
 10
2.211209
 20
6.270400
 30
0.0
 10
2.211193
 20
6.020739
 30
0.0
 10
2.111974
 20
5.781315
 30
0.0
 10
1.935388
 20
5.604826
 30
0.0
  0
SPLINE
  5
13e
100
AcDbEntity
  8
Laag_1
 62
7
100
AcDbSpline
 70
8
 71
3
 72
8
 73
4
 74
0
 40
0
 40
0
 40
0
 40
0
 40
1
 40
1
 40
1
 40
1
 10
1.935388
 20
5.604826
 30
0.0
 10
1.758802
 20
5.428337
 30
0.0
 10
1.519324
 20
5.329249
 30
0.0
 10
1.269663
 20
5.329370
 30
0.0
  0
SPLINE
  5
13f
100
AcDbEntity
  8
Laag_1
 62
7
100
AcDbSpline
 70
8
 71
3
 72
8
 73
4
 74
0
 40
0
 40
0
 40
0
 40
0
 40
1
 40
1
 40
1
 40
1
 10
1.269663
 20
5.329370
 30
0.0
 10
0.749960
 20
5.329402
 30
0.0
 10
0.328665
 20
5.750697
 30
0.0
 10
0.328633
 20
6.270400
 30
0.0
  0
SPLINE
  5
140
100
AcDbEntity
  8
Laag_1
 62
7
100
AcDbSpline
 70
8
 71
3
 72
8
 73
4
 74
0
 40
0
 40
0
 40
0
 40
0
 40
1
 40
1
 40
1
 40
1
 10
0.328633
 20
6.270400
 30
0.0
 10
0.328636
 20
6.786293
 30
0.0
 10
0.743979
 20
7.206015
 30
0.0
 10
1.259844
 20
7.211430
 30
0.0
  0
LWPOLYLINE
  5
141
100
AcDbEntity
  8
Laag_1
 62
7
100
AcDbPolyline
 90
2
 70
0
 10
1.259820
 20
7.211430
 30
0.0
 10
1.260349
 20
7.211430
 30
0.0
  0
LWPOLYLINE
  5
142
100
AcDbEntity
  8
Laag_1
 62
7
100
AcDbPolyline
 90
1
 70
1
 10
1.259844
 20
7.211430
 30
0.0
  0
SPLINE
  5
143
100
AcDbEntity
  8
Laag_1
 62
7
100
AcDbSpline
 70
8
 71
3
 72
8
 73
4
 74
0
 40
0
 40
0
 40
0
 40
0
 40
1
 40
1
 40
1
 40
1
 10
1.260349
 20
4.671527
 30
0.0
 10
1.263454
 20
4.671542
 30
0.0
 10
1.266558
 20
4.671542
 30
0.0
 10
1.269663
 20
4.671527
 30
0.0
  0
SPLINE
  5
144
100
AcDbEntity
  8
Laag_1
 62
7
100
AcDbSpline
 70
8
 71
3
 72
8
 73
4
 74
0
 40
0
 40
0
 40
0
 40
0
 40
1
 40
1
 40
1
 40
1
 10
1.269663
 20
4.671527
 30
0.0
 10
1.519324
 20
4.671648
 30
0.0
 10
1.758802
 20
4.572560
 30
0.0
 10
1.935388
 20
4.396071
 30
0.0
  0
SPLINE
  5
145
100
AcDbEntity
  8
Laag_1
 62
7
100
AcDbSpline
 70
8
 71
3
 72
8
 73
4
 74
0
 40
0
 40
0
 40
0
 40
0
 40
1
 40
1
 40
1
 40
1
 10
1.935388
 20
4.396071
 30
0.0
 10
2.111974
 20
4.219582
 30
0.0
 10
2.211193
 20
3.980158
 30
0.0
 10
2.211209
 20
3.730497
 30
0.0
  0
SPLINE
  5
146
100
AcDbEntity
  8
Laag_1
 62
7
100
AcDbSpline
 70
8
 71
3
 72
8
 73
4
 74
0
 40
0
 40
0
 40
0
 40
0
 40
1
 40
1
 40
1
 40
1
 10
2.211209
 20
3.730497
 30
0.0
 10
2.211193
 20
3.480836
 30
0.0
 10
2.111974
 20
3.241412
 30
0.0
 10
1.935388
 20
3.064923
 30
0.0
  0
SPLINE
  5
147
100
AcDbEntity
  8
Laag_1
 62
7
100
AcDbSpline
 70
8
 71
3
 72
8
 73
4
 74
0
 40
0
 40
0
 40
0
 40
0
 40
1
 40
1
 40
1
 40
1
 10
1.935388
 20
3.064923
 30
0.0
 10
1.758802
 20
2.888434
 30
0.0
 10
1.519324
 20
2.789346
 30
0.0
 10
1.269663
 20
2.789467
 30
0.0
  0
SPLINE
  5
148
100
AcDbEntity
  8
Laag_1
 62
7
100
AcDbSpline
 70
8
 71
3
 72
8
 73
4
 74
0
 40
0
 40
0
 40
0
 40
0
 40
1
 40
1
 40
1
 40
1
 10
1.269663
 20
2.789467
 30
0.0
 10
0.749960
 20
2.789499
 30
0.0
 10
0.328665
 20
3.210794
 30
0.0
 10
0.328633
 20
3.730497
 30
0.0
  0
SPLINE
  5
149
100
AcDbEntity
  8
Laag_1
 62
7
100
AcDbSpline
 70
8
 71
3
 72
8
 73
4
 74
0
 40
0
 40
0
 40
0
 40
0
 40
1
 40
1
 40
1
 40
1
 10
0.328633
 20
3.730497
 30
0.0
 10
0.328636
 20
4.246390
 30
0.0
 10
0.743979
 20
4.666112
 30
0.0
 10
1.259844
 20
4.671527
 30
0.0
  0
LWPOLYLINE
  5
14a
100
AcDbEntity
  8
Laag_1
 62
7
100
AcDbPolyline
 90
2
 70
0
 10
1.259820
 20
4.671527
 30
0.0
 10
1.260349
 20
4.671527
 30
0.0
  0
SPLINE
  5
14b
100
AcDbEntity
  8
Laag_1
 62
7
100
AcDbSpline
 70
8
 71
3
 72
8
 73
4
 74
0
 40
0
 40
0
 40
0
 40
0
 40
1
 40
1
 40
1
 40
1
 10
1.260349
 20
2.131624
 30
0.0
 10
1.263454
 20
2.131639
 30
0.0
 10
1.266558
 20
2.131639
 30
0.0
 10
1.269663
 20
2.131624
 30
0.0
  0
SPLINE
  5
14c
100
AcDbEntity
  8
Laag_1
 62
7
100
AcDbSpline
 70
8
 71
3
 72
8
 73
4
 74
0
 40
0
 40
0
 40
0
 40
0
 40
1
 40
1
 40
1
 40
1
 10
1.269663
 20
2.131624
 30
0.0
 10
1.519324
 20
2.131745
 30
0.0
 10
1.758802
 20
2.032657
 30
0.0
 10
1.935388
 20
1.856168
 30
0.0
  0
SPLINE
  5
14d
100
AcDbEntity
  8
Laag_1
 62
7
100
AcDbSpline
 70
8
 71
3
 72
8
 73
4
 74
0
 40
0
 40
0
 40
0
 40
0
 40
1
 40
1
 40
1
 40
1
 10
1.935388
 20
1.856168
 30
0.0
 10
2.111974
 20
1.679679
 30
0.0
 10
2.211193
 20
1.440255
 30
0.0
 10
2.211209
 20
1.190594
 30
0.0
  0
SPLINE
  5
14e
100
AcDbEntity
  8
Laag_1
 62
7
100
AcDbSpline
 70
8
 71
3
 72
8
 73
4
 74
0
 40
0
 40
0
 40
0
 40
0
 40
1
 40
1
 40
1
 40
1
 10
2.211209
 20
1.190594
 30
0.0
 10
2.211193
 20
0.940933
 30
0.0
 10
2.111974
 20
0.701509
 30
0.0
 10
1.935388
 20
0.525020
 30
0.0
  0
SPLINE
  5
14f
100
AcDbEntity
  8
Laag_1
 62
7
100
AcDbSpline
 70
8
 71
3
 72
8
 73
4
 74
0
 40
0
 40
0
 40
0
 40
0
 40
1
 40
1
 40
1
 40
1
 10
1.935388
 20
0.525020
 30
0.0
 10
1.758802
 20
0.348531
 30
0.0
 10
1.519324
 20
0.249443
 30
0.0
 10
1.269663
 20
0.249564
 30
0.0
  0
SPLINE
  5
150
100
AcDbEntity
  8
Laag_1
 62
7
100
AcDbSpline
 70
8
 71
3
 72
8
 73
4
 74
0
 40
0
 40
0
 40
0
 40
0
 40
1
 40
1
 40
1
 40
1
 10
1.269663
 20
0.249564
 30
0.0
 10
0.749960
 20
0.249596
 30
0.0
 10
0.328665
 20
0.670891
 30
0.0
 10
0.328633
 20
1.190594
 30
0.0
  0
SPLINE
  5
151
100
AcDbEntity
  8
Laag_1
 62
7
100
AcDbSpline
 70
8
 71
3
 72
8
 73
4
 74
0
 40
0
 40
0
 40
0
 40
0
 40
1
 40
1
 40
1
 40
1
 10
0.328633
 20
1.190594
 30
0.0
 10
0.328639
 20
1.706686
 30
0.0
 10
0.744293
 20
2.126490
 30
0.0
 10
1.260360
 20
2.131624
 30
0.0
  0
LWPOLYLINE
  5
152
100
AcDbEntity
  8
Laag_1
 62
7
100
AcDbPolyline
 90
1
 70
1
 10
1.259844
 20
4.671527
 30
0.0
  0
LWPOLYLINE
  5
153
100
AcDbEntity
  8
Laag_1
 62
7
100
AcDbPolyline
 90
1
 70
1
 10
1.260360
 20
2.131624
 30
0.0
  0
ENDSEC
  0
SECTION
  2
OBJECTS
  0
DICTIONARY
  5
C
330
0
100
AcDbDictionary
  3
ACAD_GROUP
350
D
  3
ACAD_MLINESTYLE
350
17
  0
DICTIONARY
  5
D
330
C
100
AcDbDictionary
  0
DICTIONARY
  5
1A
330
C
100
AcDbDictionary
  0
DICTIONARY
  5
17
330
C
100
AcDbDictionary
  3
STANDARD
350
18
  0
DICTIONARY
  5
19
330
C
100
AcDbDictionary
  0
ENDSEC
  0
EOF
