<?xml version="1.0" encoding="UTF-8" standalone="no"?>
<svg
   xmlns:dc="http://purl.org/dc/elements/1.1/"
   xmlns:cc="http://creativecommons.org/ns#"
   xmlns:rdf="http://www.w3.org/1999/02/22-rdf-syntax-ns#"
   xmlns:svg="http://www.w3.org/2000/svg"
   xmlns="http://www.w3.org/2000/svg"
   xmlns:sodipodi="http://sodipodi.sourceforge.net/DTD/sodipodi-0.dtd"
   xmlns:inkscape="http://www.inkscape.org/namespaces/inkscape"
   sodipodi:docname="wemos_silk.svg"
   inkscape:version="1.0 (4035a4f, 2020-05-01)"
   id="svg859"
   version="1.1"
   viewBox="0 0 2.5397017 20.160849"
   height="20.160849mm"
   width="2.5397017mm">
  <defs
     id="defs853" />
  <sodipodi:namedview
     fit-margin-bottom="0"
     fit-margin-right="0"
     fit-margin-left="0"
     fit-margin-top="0"
     inkscape:window-maximized="0"
     inkscape:window-y="775"
     inkscape:window-x="1121"
     inkscape:window-height="943"
     inkscape:window-width="1344"
     showgrid="false"
     inkscape:document-rotation="0"
     inkscape:current-layer="layer1"
     inkscape:document-units="mm"
     inkscape:cy="39.739305"
     inkscape:cx="-7.887365"
     inkscape:zoom="7.9195959"
     inkscape:pageshadow="2"
     inkscape:pageopacity="0.0"
     borderopacity="1.0"
     bordercolor="#666666"
     pagecolor="#ffffff"
     id="base" />
  <metadata
     id="metadata856">
    <rdf:RDF>
      <cc:Work
         rdf:about="">
        <dc:format>image/svg+xml</dc:format>
        <dc:type
           rdf:resource="http://purl.org/dc/dcmitype/StillImage" />
        <dc:title></dc:title>
      </cc:Work>
    </rdf:RDF>
  </metadata>
  <g
     transform="translate(-98.155346,-128.62894)"
     id="layer1"
     inkscape:groupmode="layer"
     inkscape:label="Laag 1">
    <path
       transform="scale(0.26458333)"
       d="m 375.77148,486.28711 a 4.5961852,4.5961855 0 0 0 -4.58789,4.5957 4.5961852,4.5961855 0 0 0 0.002,0.13086 h -0.0742 v 66.48438 h 0.0742 a 4.5961852,4.5961855 0 0 0 -0.002,0.13086 4.5961852,4.5961855 0 0 0 4.59766,4.5957 4.5961852,4.5961855 0 0 0 4.5957,-4.5957 4.5961852,4.5961855 0 0 0 -0.002,-0.13086 h 0.0742 v -66.48438 h -0.0742 a 4.5961852,4.5961855 0 0 0 0.002,-0.13086 4.5961852,4.5961855 0 0 0 -4.5957,-4.5957 4.5961852,4.5961855 0 0 0 -0.01,0 z m -0.0293,0.8125 a 3.5568598,3.5568598 0 0 1 0.002,0 3.5568598,3.5568598 0 0 1 0.0352,0 3.5568598,3.5568598 0 0 1 3.55859,3.55664 3.5568598,3.5568598 0 0 1 -3.55859,3.55664 3.5568598,3.5568598 0 0 1 -3.55664,-3.55664 3.5568598,3.5568598 0 0 1 3.51953,-3.55664 z m 0,9.59961 a 3.5568598,3.5568598 0 0 1 0.002,0 3.5568598,3.5568598 0 0 1 0.0352,0 3.5568598,3.5568598 0 0 1 3.55859,3.55664 3.5568598,3.5568598 0 0 1 -3.55859,3.55664 3.5568598,3.5568598 0 0 1 -3.55664,-3.55664 3.5568598,3.5568598 0 0 1 3.51953,-3.55664 z m 0,9.59961 a 3.5568598,3.5568598 0 0 1 0.002,0 3.5568598,3.5568598 0 0 1 0.0352,0 3.5568598,3.5568598 0 0 1 3.55859,3.55664 3.5568598,3.5568598 0 0 1 -3.55859,3.55664 3.5568598,3.5568598 0 0 1 -3.55664,-3.55664 3.5568598,3.5568598 0 0 1 3.51953,-3.55664 z m 0,9.59961 a 3.5568598,3.5568598 0 0 1 0.002,0 3.5568598,3.5568598 0 0 1 0.0352,0 3.5568598,3.5568598 0 0 1 3.55859,3.55664 3.5568598,3.5568598 0 0 1 -3.55859,3.55859 3.5568598,3.5568598 0 0 1 -3.55664,-3.55859 3.5568598,3.5568598 0 0 1 3.51953,-3.55664 z m -0.002,9.59961 a 3.5568598,3.5568598 0 0 1 0.002,0 3.5568598,3.5568598 0 0 1 0.0371,0 3.5568598,3.5568598 0 0 1 3.55859,3.55859 3.5568598,3.5568598 0 0 1 -3.55859,3.55664 3.5568598,3.5568598 0 0 1 -3.55664,-3.55664 3.5568598,3.5568598 0 0 1 3.51757,-3.55859 z m 0.002,9.60156 a 3.5568598,3.5568598 0 0 1 0.002,0 3.5568598,3.5568598 0 0 1 0.0352,0 3.5568598,3.5568598 0 0 1 3.55859,3.55664 3.5568598,3.5568598 0 0 1 -3.55859,3.55664 3.5568598,3.5568598 0 0 1 -3.55664,-3.55664 3.5568598,3.5568598 0 0 1 3.51953,-3.55664 z m 0,9.59961 a 3.5568598,3.5568598 0 0 1 0.002,0 3.5568598,3.5568598 0 0 1 0.0352,0 3.5568598,3.5568598 0 0 1 3.55859,3.55664 3.5568598,3.5568598 0 0 1 -3.55859,3.55664 3.5568598,3.5568598 0 0 1 -3.55664,-3.55664 3.5568598,3.5568598 0 0 1 3.51953,-3.55664 z m 0.002,9.59961 a 3.5568598,3.5568598 0 0 1 0.0352,0 3.5568598,3.5568598 0 0 1 3.55859,3.55664 3.5568598,3.5568598 0 0 1 -3.55859,3.55664 3.5568598,3.5568598 0 0 1 -3.55664,-3.55664 3.5568598,3.5568598 0 0 1 3.52148,-3.55664 z"
       style="fill:#000000;stroke:#000000;stroke-width:0.260983;stroke-miterlimit:4;stroke-dasharray:none"
       id="rect863" />
  </g>
</svg>
