%TF.GenerationSoftware,KiCad,Pcbnew,(5.1.6-0-10_14)*%
%TF.CreationDate,2020-09-06T23:56:44+02:00*%
%TF.ProjectId,USBCWrover,55534243-5772-46f7-9665-722e6b696361,rev?*%
%TF.SameCoordinates,Original*%
%TF.FileFunction,Paste,Top*%
%TF.FilePolarity,Positive*%
%FSLAX46Y46*%
G04 Gerber Fmt 4.6, Leading zero omitted, Abs format (unit mm)*
G04 Created by KiCad (PCBNEW (5.1.6-0-10_14)) date 2020-09-06 23:56:44*
%MOMM*%
%LPD*%
G01*
G04 APERTURE LIST*
%ADD10R,2.800000X1.000000*%
%ADD11R,2.000000X0.900000*%
%ADD12R,0.400000X0.900000*%
%ADD13R,0.900000X1.200000*%
%ADD14R,0.600000X1.450000*%
%ADD15R,0.300000X1.450000*%
%ADD16R,1.060000X0.650000*%
%ADD17R,0.700000X0.510000*%
G04 APERTURE END LIST*
D10*
%TO.C,SW1*%
X133303600Y-145256000D03*
X127503600Y-145256000D03*
X133303600Y-141256000D03*
X127503600Y-141256000D03*
%TD*%
%TO.C,C5*%
G36*
G01*
X134308000Y-138886250D02*
X134308000Y-137973750D01*
G75*
G02*
X134551750Y-137730000I243750J0D01*
G01*
X135039250Y-137730000D01*
G75*
G02*
X135283000Y-137973750I0J-243750D01*
G01*
X135283000Y-138886250D01*
G75*
G02*
X135039250Y-139130000I-243750J0D01*
G01*
X134551750Y-139130000D01*
G75*
G02*
X134308000Y-138886250I0J243750D01*
G01*
G37*
G36*
G01*
X132433000Y-138886250D02*
X132433000Y-137973750D01*
G75*
G02*
X132676750Y-137730000I243750J0D01*
G01*
X133164250Y-137730000D01*
G75*
G02*
X133408000Y-137973750I0J-243750D01*
G01*
X133408000Y-138886250D01*
G75*
G02*
X133164250Y-139130000I-243750J0D01*
G01*
X132676750Y-139130000D01*
G75*
G02*
X132433000Y-138886250I0J243750D01*
G01*
G37*
%TD*%
D11*
%TO.C,U4*%
X131982400Y-104698800D03*
X131982400Y-105968800D03*
X131982400Y-107238800D03*
X131982400Y-108508800D03*
X131982400Y-109778800D03*
X131982400Y-111048800D03*
X131982400Y-112318800D03*
X131982400Y-113588800D03*
X131982400Y-114858800D03*
X131982400Y-116128800D03*
X131982400Y-117398800D03*
X131982400Y-118668800D03*
X131982400Y-119938800D03*
X131982400Y-121208800D03*
X131982400Y-122508800D03*
X131982400Y-123778800D03*
X131982400Y-125048800D03*
X131982400Y-126318800D03*
X131982400Y-127588800D03*
X149982400Y-127588800D03*
X149982400Y-126318800D03*
X149982400Y-125048800D03*
X149982400Y-123778800D03*
X149982400Y-122508800D03*
X150012400Y-121208800D03*
X150012400Y-119938800D03*
X150012400Y-118668800D03*
X150012400Y-117398800D03*
X150012400Y-116128800D03*
X150012400Y-114858800D03*
X150012400Y-113588800D03*
X150012400Y-112318800D03*
X150012400Y-111048800D03*
X150012400Y-109778800D03*
X150012400Y-108508800D03*
X150012400Y-107238800D03*
X150012400Y-105968800D03*
X150012400Y-104698800D03*
%TD*%
%TO.C,C4*%
G36*
G01*
X146557050Y-130918800D02*
X145644550Y-130918800D01*
G75*
G02*
X145400800Y-130675050I0J243750D01*
G01*
X145400800Y-130187550D01*
G75*
G02*
X145644550Y-129943800I243750J0D01*
G01*
X146557050Y-129943800D01*
G75*
G02*
X146800800Y-130187550I0J-243750D01*
G01*
X146800800Y-130675050D01*
G75*
G02*
X146557050Y-130918800I-243750J0D01*
G01*
G37*
G36*
G01*
X146557050Y-132793800D02*
X145644550Y-132793800D01*
G75*
G02*
X145400800Y-132550050I0J243750D01*
G01*
X145400800Y-132062550D01*
G75*
G02*
X145644550Y-131818800I243750J0D01*
G01*
X146557050Y-131818800D01*
G75*
G02*
X146800800Y-132062550I0J-243750D01*
G01*
X146800800Y-132550050D01*
G75*
G02*
X146557050Y-132793800I-243750J0D01*
G01*
G37*
%TD*%
%TO.C,C3*%
G36*
G01*
X144321850Y-130918800D02*
X143409350Y-130918800D01*
G75*
G02*
X143165600Y-130675050I0J243750D01*
G01*
X143165600Y-130187550D01*
G75*
G02*
X143409350Y-129943800I243750J0D01*
G01*
X144321850Y-129943800D01*
G75*
G02*
X144565600Y-130187550I0J-243750D01*
G01*
X144565600Y-130675050D01*
G75*
G02*
X144321850Y-130918800I-243750J0D01*
G01*
G37*
G36*
G01*
X144321850Y-132793800D02*
X143409350Y-132793800D01*
G75*
G02*
X143165600Y-132550050I0J243750D01*
G01*
X143165600Y-132062550D01*
G75*
G02*
X143409350Y-131818800I243750J0D01*
G01*
X144321850Y-131818800D01*
G75*
G02*
X144565600Y-132062550I0J-243750D01*
G01*
X144565600Y-132550050D01*
G75*
G02*
X144321850Y-132793800I-243750J0D01*
G01*
G37*
%TD*%
%TO.C,C2*%
G36*
G01*
X154577200Y-133298250D02*
X154577200Y-132385750D01*
G75*
G02*
X154820950Y-132142000I243750J0D01*
G01*
X155308450Y-132142000D01*
G75*
G02*
X155552200Y-132385750I0J-243750D01*
G01*
X155552200Y-133298250D01*
G75*
G02*
X155308450Y-133542000I-243750J0D01*
G01*
X154820950Y-133542000D01*
G75*
G02*
X154577200Y-133298250I0J243750D01*
G01*
G37*
G36*
G01*
X152702200Y-133298250D02*
X152702200Y-132385750D01*
G75*
G02*
X152945950Y-132142000I243750J0D01*
G01*
X153433450Y-132142000D01*
G75*
G02*
X153677200Y-132385750I0J-243750D01*
G01*
X153677200Y-133298250D01*
G75*
G02*
X153433450Y-133542000I-243750J0D01*
G01*
X152945950Y-133542000D01*
G75*
G02*
X152702200Y-133298250I0J243750D01*
G01*
G37*
%TD*%
%TO.C,C1*%
G36*
G01*
X154577200Y-131095050D02*
X154577200Y-130182550D01*
G75*
G02*
X154820950Y-129938800I243750J0D01*
G01*
X155308450Y-129938800D01*
G75*
G02*
X155552200Y-130182550I0J-243750D01*
G01*
X155552200Y-131095050D01*
G75*
G02*
X155308450Y-131338800I-243750J0D01*
G01*
X154820950Y-131338800D01*
G75*
G02*
X154577200Y-131095050I0J243750D01*
G01*
G37*
G36*
G01*
X152702200Y-131095050D02*
X152702200Y-130182550D01*
G75*
G02*
X152945950Y-129938800I243750J0D01*
G01*
X153433450Y-129938800D01*
G75*
G02*
X153677200Y-130182550I0J-243750D01*
G01*
X153677200Y-131095050D01*
G75*
G02*
X153433450Y-131338800I-243750J0D01*
G01*
X152945950Y-131338800D01*
G75*
G02*
X152702200Y-131095050I0J243750D01*
G01*
G37*
%TD*%
D12*
%TO.C,RN1*%
X129520800Y-134735200D03*
X128720800Y-134735200D03*
X127920800Y-134735200D03*
X127120800Y-134735200D03*
X129520800Y-136435200D03*
X127120800Y-136435200D03*
X128720800Y-136435200D03*
X127920800Y-136435200D03*
%TD*%
%TO.C,U1*%
G36*
G01*
X131899800Y-131951600D02*
X131599800Y-131951600D01*
G75*
G02*
X131449800Y-131801600I0J150000D01*
G01*
X131449800Y-130151600D01*
G75*
G02*
X131599800Y-130001600I150000J0D01*
G01*
X131899800Y-130001600D01*
G75*
G02*
X132049800Y-130151600I0J-150000D01*
G01*
X132049800Y-131801600D01*
G75*
G02*
X131899800Y-131951600I-150000J0D01*
G01*
G37*
G36*
G01*
X133169800Y-131951600D02*
X132869800Y-131951600D01*
G75*
G02*
X132719800Y-131801600I0J150000D01*
G01*
X132719800Y-130151600D01*
G75*
G02*
X132869800Y-130001600I150000J0D01*
G01*
X133169800Y-130001600D01*
G75*
G02*
X133319800Y-130151600I0J-150000D01*
G01*
X133319800Y-131801600D01*
G75*
G02*
X133169800Y-131951600I-150000J0D01*
G01*
G37*
G36*
G01*
X134439800Y-131951600D02*
X134139800Y-131951600D01*
G75*
G02*
X133989800Y-131801600I0J150000D01*
G01*
X133989800Y-130151600D01*
G75*
G02*
X134139800Y-130001600I150000J0D01*
G01*
X134439800Y-130001600D01*
G75*
G02*
X134589800Y-130151600I0J-150000D01*
G01*
X134589800Y-131801600D01*
G75*
G02*
X134439800Y-131951600I-150000J0D01*
G01*
G37*
G36*
G01*
X135709800Y-131951600D02*
X135409800Y-131951600D01*
G75*
G02*
X135259800Y-131801600I0J150000D01*
G01*
X135259800Y-130151600D01*
G75*
G02*
X135409800Y-130001600I150000J0D01*
G01*
X135709800Y-130001600D01*
G75*
G02*
X135859800Y-130151600I0J-150000D01*
G01*
X135859800Y-131801600D01*
G75*
G02*
X135709800Y-131951600I-150000J0D01*
G01*
G37*
G36*
G01*
X136979800Y-131951600D02*
X136679800Y-131951600D01*
G75*
G02*
X136529800Y-131801600I0J150000D01*
G01*
X136529800Y-130151600D01*
G75*
G02*
X136679800Y-130001600I150000J0D01*
G01*
X136979800Y-130001600D01*
G75*
G02*
X137129800Y-130151600I0J-150000D01*
G01*
X137129800Y-131801600D01*
G75*
G02*
X136979800Y-131951600I-150000J0D01*
G01*
G37*
G36*
G01*
X138249800Y-131951600D02*
X137949800Y-131951600D01*
G75*
G02*
X137799800Y-131801600I0J150000D01*
G01*
X137799800Y-130151600D01*
G75*
G02*
X137949800Y-130001600I150000J0D01*
G01*
X138249800Y-130001600D01*
G75*
G02*
X138399800Y-130151600I0J-150000D01*
G01*
X138399800Y-131801600D01*
G75*
G02*
X138249800Y-131951600I-150000J0D01*
G01*
G37*
G36*
G01*
X139519800Y-131951600D02*
X139219800Y-131951600D01*
G75*
G02*
X139069800Y-131801600I0J150000D01*
G01*
X139069800Y-130151600D01*
G75*
G02*
X139219800Y-130001600I150000J0D01*
G01*
X139519800Y-130001600D01*
G75*
G02*
X139669800Y-130151600I0J-150000D01*
G01*
X139669800Y-131801600D01*
G75*
G02*
X139519800Y-131951600I-150000J0D01*
G01*
G37*
G36*
G01*
X140789800Y-131951600D02*
X140489800Y-131951600D01*
G75*
G02*
X140339800Y-131801600I0J150000D01*
G01*
X140339800Y-130151600D01*
G75*
G02*
X140489800Y-130001600I150000J0D01*
G01*
X140789800Y-130001600D01*
G75*
G02*
X140939800Y-130151600I0J-150000D01*
G01*
X140939800Y-131801600D01*
G75*
G02*
X140789800Y-131951600I-150000J0D01*
G01*
G37*
G36*
G01*
X140789800Y-136901600D02*
X140489800Y-136901600D01*
G75*
G02*
X140339800Y-136751600I0J150000D01*
G01*
X140339800Y-135101600D01*
G75*
G02*
X140489800Y-134951600I150000J0D01*
G01*
X140789800Y-134951600D01*
G75*
G02*
X140939800Y-135101600I0J-150000D01*
G01*
X140939800Y-136751600D01*
G75*
G02*
X140789800Y-136901600I-150000J0D01*
G01*
G37*
G36*
G01*
X139519800Y-136901600D02*
X139219800Y-136901600D01*
G75*
G02*
X139069800Y-136751600I0J150000D01*
G01*
X139069800Y-135101600D01*
G75*
G02*
X139219800Y-134951600I150000J0D01*
G01*
X139519800Y-134951600D01*
G75*
G02*
X139669800Y-135101600I0J-150000D01*
G01*
X139669800Y-136751600D01*
G75*
G02*
X139519800Y-136901600I-150000J0D01*
G01*
G37*
G36*
G01*
X138249800Y-136901600D02*
X137949800Y-136901600D01*
G75*
G02*
X137799800Y-136751600I0J150000D01*
G01*
X137799800Y-135101600D01*
G75*
G02*
X137949800Y-134951600I150000J0D01*
G01*
X138249800Y-134951600D01*
G75*
G02*
X138399800Y-135101600I0J-150000D01*
G01*
X138399800Y-136751600D01*
G75*
G02*
X138249800Y-136901600I-150000J0D01*
G01*
G37*
G36*
G01*
X136979800Y-136901600D02*
X136679800Y-136901600D01*
G75*
G02*
X136529800Y-136751600I0J150000D01*
G01*
X136529800Y-135101600D01*
G75*
G02*
X136679800Y-134951600I150000J0D01*
G01*
X136979800Y-134951600D01*
G75*
G02*
X137129800Y-135101600I0J-150000D01*
G01*
X137129800Y-136751600D01*
G75*
G02*
X136979800Y-136901600I-150000J0D01*
G01*
G37*
G36*
G01*
X135709800Y-136901600D02*
X135409800Y-136901600D01*
G75*
G02*
X135259800Y-136751600I0J150000D01*
G01*
X135259800Y-135101600D01*
G75*
G02*
X135409800Y-134951600I150000J0D01*
G01*
X135709800Y-134951600D01*
G75*
G02*
X135859800Y-135101600I0J-150000D01*
G01*
X135859800Y-136751600D01*
G75*
G02*
X135709800Y-136901600I-150000J0D01*
G01*
G37*
G36*
G01*
X134439800Y-136901600D02*
X134139800Y-136901600D01*
G75*
G02*
X133989800Y-136751600I0J150000D01*
G01*
X133989800Y-135101600D01*
G75*
G02*
X134139800Y-134951600I150000J0D01*
G01*
X134439800Y-134951600D01*
G75*
G02*
X134589800Y-135101600I0J-150000D01*
G01*
X134589800Y-136751600D01*
G75*
G02*
X134439800Y-136901600I-150000J0D01*
G01*
G37*
G36*
G01*
X133169800Y-136901600D02*
X132869800Y-136901600D01*
G75*
G02*
X132719800Y-136751600I0J150000D01*
G01*
X132719800Y-135101600D01*
G75*
G02*
X132869800Y-134951600I150000J0D01*
G01*
X133169800Y-134951600D01*
G75*
G02*
X133319800Y-135101600I0J-150000D01*
G01*
X133319800Y-136751600D01*
G75*
G02*
X133169800Y-136901600I-150000J0D01*
G01*
G37*
G36*
G01*
X131899800Y-136901600D02*
X131599800Y-136901600D01*
G75*
G02*
X131449800Y-136751600I0J150000D01*
G01*
X131449800Y-135101600D01*
G75*
G02*
X131599800Y-134951600I150000J0D01*
G01*
X131899800Y-134951600D01*
G75*
G02*
X132049800Y-135101600I0J-150000D01*
G01*
X132049800Y-136751600D01*
G75*
G02*
X131899800Y-136901600I-150000J0D01*
G01*
G37*
%TD*%
D13*
%TO.C,D1*%
X143638000Y-135483600D03*
X146938000Y-135483600D03*
%TD*%
D14*
%TO.C,J1*%
X144372400Y-138804600D03*
X143572400Y-138804600D03*
X138672400Y-138804600D03*
X137872400Y-138804600D03*
X137872400Y-138804600D03*
X138672400Y-138804600D03*
X143572400Y-138804600D03*
X144372400Y-138804600D03*
D15*
X139372400Y-138804600D03*
X139872400Y-138804600D03*
X140372400Y-138804600D03*
X141372400Y-138804600D03*
X141872400Y-138804600D03*
X142372400Y-138804600D03*
X142872400Y-138804600D03*
X140872400Y-138804600D03*
%TD*%
D16*
%TO.C,U3*%
X148404400Y-132438800D03*
X148404400Y-130538800D03*
X150604400Y-130538800D03*
X150604400Y-131488800D03*
X150604400Y-132438800D03*
%TD*%
D17*
%TO.C,U2*%
X127008400Y-132256400D03*
X127008400Y-131306400D03*
X127008400Y-130356400D03*
X129328400Y-130356400D03*
X129328400Y-131306400D03*
X129328400Y-132256400D03*
%TD*%
M02*
