%TF.GenerationSoftware,KiCad,Pcbnew,(5.1.6-0-10_14)*%
%TF.CreationDate,2020-09-06T23:56:44+02:00*%
%TF.ProjectId,USBCWrover,55534243-5772-46f7-9665-722e6b696361,rev?*%
%TF.SameCoordinates,Original*%
%TF.FileFunction,Soldermask,Bot*%
%TF.FilePolarity,Negative*%
%FSLAX46Y46*%
G04 Gerber Fmt 4.6, Leading zero omitted, Abs format (unit mm)*
G04 Created by KiCad (PCBNEW (5.1.6-0-10_14)) date 2020-09-06 23:56:44*
%MOMM*%
%LPD*%
G01*
G04 APERTURE LIST*
%ADD10C,0.010000*%
%ADD11C,0.100000*%
%ADD12O,2.100000X1.300000*%
%ADD13R,1.600000X1.100000*%
%ADD14O,1.100000X2.200000*%
%ADD15C,0.750000*%
%ADD16O,1.100000X1.700000*%
G04 APERTURE END LIST*
D10*
%TO.C,G\u002A\u002A\u002A*%
G36*
X132202730Y-140516999D02*
G01*
X132130259Y-140524406D01*
X132069634Y-140540212D01*
X132005650Y-140567310D01*
X131991265Y-140574264D01*
X131848345Y-140661448D01*
X131723946Y-140770985D01*
X131627974Y-140893510D01*
X131599525Y-140944545D01*
X131571612Y-141005762D01*
X131554175Y-141060084D01*
X131544885Y-141120783D01*
X131541413Y-141201131D01*
X131541200Y-141276917D01*
X131543207Y-141354139D01*
X131549517Y-141428571D01*
X131561647Y-141505190D01*
X131581113Y-141588970D01*
X131609432Y-141684889D01*
X131648121Y-141797921D01*
X131698695Y-141933042D01*
X131762672Y-142095228D01*
X131841567Y-142289455D01*
X131873428Y-142367000D01*
X131952844Y-142561452D01*
X132016221Y-142720501D01*
X132064670Y-142847449D01*
X132099303Y-142945600D01*
X132121229Y-143018254D01*
X132131560Y-143068713D01*
X132131406Y-143100281D01*
X132124685Y-143113948D01*
X132104437Y-143152612D01*
X132107399Y-143209514D01*
X132134506Y-143290644D01*
X132161701Y-143351250D01*
X132213626Y-143448005D01*
X132265767Y-143513627D01*
X132328002Y-143558201D01*
X132390807Y-143585167D01*
X132473297Y-143603104D01*
X132583462Y-143611189D01*
X132707820Y-143609477D01*
X132832888Y-143598022D01*
X132919337Y-143583007D01*
X133078784Y-143538850D01*
X133245293Y-143476981D01*
X133401518Y-143404498D01*
X133450904Y-143375950D01*
X132863167Y-143375950D01*
X132844686Y-143383215D01*
X132799653Y-143391667D01*
X132743679Y-143398725D01*
X132709993Y-143401284D01*
X132668548Y-143396062D01*
X132639904Y-143368193D01*
X132618712Y-143324792D01*
X132611202Y-143304211D01*
X132553611Y-143304211D01*
X132503723Y-143344608D01*
X132468581Y-143370225D01*
X132438717Y-143381892D01*
X132411356Y-143375859D01*
X132383725Y-143348376D01*
X132353049Y-143295692D01*
X132316555Y-143214056D01*
X132271469Y-143099720D01*
X132218994Y-142959667D01*
X132171655Y-142832892D01*
X132127895Y-142717450D01*
X132090312Y-142620057D01*
X132061504Y-142547428D01*
X132044069Y-142506280D01*
X132041936Y-142501967D01*
X132031799Y-142475829D01*
X132040276Y-142456334D01*
X132074663Y-142436519D01*
X132136676Y-142411553D01*
X132200273Y-142388406D01*
X132245477Y-142374198D01*
X132260914Y-142371837D01*
X132275824Y-142399097D01*
X132299141Y-142453876D01*
X132327004Y-142525551D01*
X132355556Y-142603499D01*
X132380934Y-142677098D01*
X132399281Y-142735727D01*
X132406735Y-142768762D01*
X132406324Y-142772014D01*
X132377510Y-142788827D01*
X132364501Y-142790334D01*
X132337078Y-142796251D01*
X132334000Y-142800834D01*
X132342139Y-142823056D01*
X132364375Y-142876236D01*
X132397439Y-142952723D01*
X132438062Y-143044868D01*
X132443806Y-143057773D01*
X132553611Y-143304211D01*
X132611202Y-143304211D01*
X132591828Y-143251120D01*
X132567114Y-143168271D01*
X132562553Y-143150167D01*
X132541943Y-143076247D01*
X132513038Y-142986836D01*
X132491969Y-142927917D01*
X132470164Y-142860930D01*
X132460109Y-142810622D01*
X132463412Y-142788940D01*
X132463389Y-142766162D01*
X132449083Y-142714633D01*
X132424329Y-142643861D01*
X132392969Y-142563352D01*
X132358839Y-142482614D01*
X132325779Y-142411153D01*
X132297627Y-142358477D01*
X132280326Y-142335494D01*
X132264686Y-142310484D01*
X132235613Y-142252188D01*
X132195795Y-142166462D01*
X132147920Y-142059164D01*
X132094676Y-141936149D01*
X132066462Y-141869584D01*
X132005047Y-141722601D01*
X131958612Y-141608169D01*
X131925133Y-141520072D01*
X131902584Y-141452095D01*
X131888942Y-141398020D01*
X131882180Y-141351631D01*
X131880274Y-141306714D01*
X131880292Y-141298084D01*
X131896717Y-141171127D01*
X131940922Y-141058845D01*
X132008107Y-140968790D01*
X132093470Y-140908516D01*
X132137906Y-140892773D01*
X132192975Y-140887326D01*
X132214692Y-140905036D01*
X132203037Y-140942968D01*
X132157991Y-140998186D01*
X132138693Y-141017001D01*
X132059265Y-141107744D01*
X132018036Y-141199818D01*
X132011717Y-141302979D01*
X132021320Y-141365118D01*
X132037191Y-141419426D01*
X132067025Y-141503565D01*
X132107276Y-141608824D01*
X132154395Y-141726493D01*
X132204836Y-141847861D01*
X132255049Y-141964217D01*
X132301488Y-142066850D01*
X132336663Y-142139386D01*
X132365219Y-142205240D01*
X132383805Y-142266208D01*
X132385958Y-142278542D01*
X132398537Y-142330432D01*
X132423806Y-142404747D01*
X132457291Y-142490928D01*
X132494515Y-142578413D01*
X132531001Y-142656643D01*
X132562272Y-142715059D01*
X132582489Y-142742146D01*
X132597714Y-142766333D01*
X132625488Y-142821319D01*
X132662135Y-142898803D01*
X132703978Y-142990483D01*
X132747342Y-143088059D01*
X132788550Y-143183230D01*
X132823927Y-143267693D01*
X132849795Y-143333148D01*
X132862479Y-143371293D01*
X132863167Y-143375950D01*
X133450904Y-143375950D01*
X133512530Y-143340327D01*
X133616028Y-143263337D01*
X133713051Y-143174512D01*
X133795590Y-143082567D01*
X133855638Y-142996218D01*
X133881635Y-142938610D01*
X133893597Y-142886335D01*
X133892111Y-142838846D01*
X133875240Y-142779495D01*
X133857766Y-142733390D01*
X133845196Y-142704500D01*
X133625167Y-142704500D01*
X133607950Y-142732749D01*
X133567506Y-142763569D01*
X133520650Y-142785783D01*
X133496049Y-142790334D01*
X133453280Y-142775616D01*
X133440526Y-142763875D01*
X133421026Y-142729597D01*
X133394351Y-142671997D01*
X133379726Y-142636968D01*
X133348809Y-142567954D01*
X133316858Y-142508660D01*
X133304423Y-142489913D01*
X133275022Y-142459665D01*
X133240685Y-142454551D01*
X133198469Y-142465086D01*
X133125814Y-142479251D01*
X133085156Y-142466893D01*
X133074833Y-142436374D01*
X133080831Y-142403286D01*
X133097026Y-142339947D01*
X133120723Y-142256429D01*
X133140925Y-142189430D01*
X133170940Y-142088084D01*
X133188013Y-142017287D01*
X133191167Y-141989283D01*
X132999600Y-141989283D01*
X132996307Y-142011068D01*
X132982991Y-142066256D01*
X132961528Y-142147621D01*
X132933794Y-142247941D01*
X132918100Y-142303166D01*
X132884052Y-142420943D01*
X132858170Y-142505015D01*
X132837049Y-142562398D01*
X132817282Y-142600108D01*
X132795463Y-142625161D01*
X132768186Y-142644573D01*
X132746145Y-142657360D01*
X132689420Y-142686346D01*
X132645297Y-142703423D01*
X132634656Y-142705319D01*
X132614488Y-142687426D01*
X132582927Y-142639093D01*
X132545173Y-142568825D01*
X132523531Y-142523643D01*
X132487254Y-142443255D01*
X132458903Y-142377593D01*
X132442417Y-142335925D01*
X132439833Y-142326610D01*
X132457073Y-142309878D01*
X132502358Y-142280191D01*
X132566035Y-142243856D01*
X132568649Y-142242450D01*
X132652912Y-142195023D01*
X132751362Y-142136419D01*
X132843069Y-142079104D01*
X132845335Y-142077640D01*
X132913572Y-142034768D01*
X132966809Y-142003714D01*
X132996419Y-141989418D01*
X132999600Y-141989283D01*
X133191167Y-141989283D01*
X133193590Y-141967777D01*
X133189119Y-141930290D01*
X133183926Y-141914107D01*
X133169989Y-141853540D01*
X133185512Y-141822173D01*
X133211132Y-141816667D01*
X133225598Y-141834962D01*
X133253927Y-141885439D01*
X133293035Y-141961487D01*
X133339840Y-142056495D01*
X133391259Y-142163851D01*
X133444207Y-142276944D01*
X133495603Y-142389162D01*
X133542362Y-142493895D01*
X133581403Y-142584531D01*
X133609640Y-142654458D01*
X133623993Y-142697065D01*
X133625167Y-142704500D01*
X133845196Y-142704500D01*
X133802774Y-142607002D01*
X133753916Y-142522280D01*
X133711064Y-142479023D01*
X133690074Y-142472834D01*
X133674651Y-142468324D01*
X133657172Y-142452556D01*
X133636079Y-142422169D01*
X133609812Y-142373803D01*
X133576812Y-142304099D01*
X133535519Y-142209696D01*
X133484375Y-142087234D01*
X133421820Y-141933353D01*
X133346294Y-141744694D01*
X133311078Y-141656159D01*
X133251369Y-141507203D01*
X133192961Y-141363982D01*
X133138758Y-141233431D01*
X133091665Y-141122484D01*
X133054584Y-141038074D01*
X133032933Y-140992023D01*
X132927897Y-140825994D01*
X132796955Y-140690384D01*
X132643772Y-140588935D01*
X132632220Y-140583165D01*
X132558926Y-140549432D01*
X132498099Y-140529060D01*
X132433873Y-140518777D01*
X132350378Y-140515308D01*
X132302250Y-140515098D01*
X132202730Y-140516999D01*
G37*
X132202730Y-140516999D02*
X132130259Y-140524406D01*
X132069634Y-140540212D01*
X132005650Y-140567310D01*
X131991265Y-140574264D01*
X131848345Y-140661448D01*
X131723946Y-140770985D01*
X131627974Y-140893510D01*
X131599525Y-140944545D01*
X131571612Y-141005762D01*
X131554175Y-141060084D01*
X131544885Y-141120783D01*
X131541413Y-141201131D01*
X131541200Y-141276917D01*
X131543207Y-141354139D01*
X131549517Y-141428571D01*
X131561647Y-141505190D01*
X131581113Y-141588970D01*
X131609432Y-141684889D01*
X131648121Y-141797921D01*
X131698695Y-141933042D01*
X131762672Y-142095228D01*
X131841567Y-142289455D01*
X131873428Y-142367000D01*
X131952844Y-142561452D01*
X132016221Y-142720501D01*
X132064670Y-142847449D01*
X132099303Y-142945600D01*
X132121229Y-143018254D01*
X132131560Y-143068713D01*
X132131406Y-143100281D01*
X132124685Y-143113948D01*
X132104437Y-143152612D01*
X132107399Y-143209514D01*
X132134506Y-143290644D01*
X132161701Y-143351250D01*
X132213626Y-143448005D01*
X132265767Y-143513627D01*
X132328002Y-143558201D01*
X132390807Y-143585167D01*
X132473297Y-143603104D01*
X132583462Y-143611189D01*
X132707820Y-143609477D01*
X132832888Y-143598022D01*
X132919337Y-143583007D01*
X133078784Y-143538850D01*
X133245293Y-143476981D01*
X133401518Y-143404498D01*
X133450904Y-143375950D01*
X132863167Y-143375950D01*
X132844686Y-143383215D01*
X132799653Y-143391667D01*
X132743679Y-143398725D01*
X132709993Y-143401284D01*
X132668548Y-143396062D01*
X132639904Y-143368193D01*
X132618712Y-143324792D01*
X132611202Y-143304211D01*
X132553611Y-143304211D01*
X132503723Y-143344608D01*
X132468581Y-143370225D01*
X132438717Y-143381892D01*
X132411356Y-143375859D01*
X132383725Y-143348376D01*
X132353049Y-143295692D01*
X132316555Y-143214056D01*
X132271469Y-143099720D01*
X132218994Y-142959667D01*
X132171655Y-142832892D01*
X132127895Y-142717450D01*
X132090312Y-142620057D01*
X132061504Y-142547428D01*
X132044069Y-142506280D01*
X132041936Y-142501967D01*
X132031799Y-142475829D01*
X132040276Y-142456334D01*
X132074663Y-142436519D01*
X132136676Y-142411553D01*
X132200273Y-142388406D01*
X132245477Y-142374198D01*
X132260914Y-142371837D01*
X132275824Y-142399097D01*
X132299141Y-142453876D01*
X132327004Y-142525551D01*
X132355556Y-142603499D01*
X132380934Y-142677098D01*
X132399281Y-142735727D01*
X132406735Y-142768762D01*
X132406324Y-142772014D01*
X132377510Y-142788827D01*
X132364501Y-142790334D01*
X132337078Y-142796251D01*
X132334000Y-142800834D01*
X132342139Y-142823056D01*
X132364375Y-142876236D01*
X132397439Y-142952723D01*
X132438062Y-143044868D01*
X132443806Y-143057773D01*
X132553611Y-143304211D01*
X132611202Y-143304211D01*
X132591828Y-143251120D01*
X132567114Y-143168271D01*
X132562553Y-143150167D01*
X132541943Y-143076247D01*
X132513038Y-142986836D01*
X132491969Y-142927917D01*
X132470164Y-142860930D01*
X132460109Y-142810622D01*
X132463412Y-142788940D01*
X132463389Y-142766162D01*
X132449083Y-142714633D01*
X132424329Y-142643861D01*
X132392969Y-142563352D01*
X132358839Y-142482614D01*
X132325779Y-142411153D01*
X132297627Y-142358477D01*
X132280326Y-142335494D01*
X132264686Y-142310484D01*
X132235613Y-142252188D01*
X132195795Y-142166462D01*
X132147920Y-142059164D01*
X132094676Y-141936149D01*
X132066462Y-141869584D01*
X132005047Y-141722601D01*
X131958612Y-141608169D01*
X131925133Y-141520072D01*
X131902584Y-141452095D01*
X131888942Y-141398020D01*
X131882180Y-141351631D01*
X131880274Y-141306714D01*
X131880292Y-141298084D01*
X131896717Y-141171127D01*
X131940922Y-141058845D01*
X132008107Y-140968790D01*
X132093470Y-140908516D01*
X132137906Y-140892773D01*
X132192975Y-140887326D01*
X132214692Y-140905036D01*
X132203037Y-140942968D01*
X132157991Y-140998186D01*
X132138693Y-141017001D01*
X132059265Y-141107744D01*
X132018036Y-141199818D01*
X132011717Y-141302979D01*
X132021320Y-141365118D01*
X132037191Y-141419426D01*
X132067025Y-141503565D01*
X132107276Y-141608824D01*
X132154395Y-141726493D01*
X132204836Y-141847861D01*
X132255049Y-141964217D01*
X132301488Y-142066850D01*
X132336663Y-142139386D01*
X132365219Y-142205240D01*
X132383805Y-142266208D01*
X132385958Y-142278542D01*
X132398537Y-142330432D01*
X132423806Y-142404747D01*
X132457291Y-142490928D01*
X132494515Y-142578413D01*
X132531001Y-142656643D01*
X132562272Y-142715059D01*
X132582489Y-142742146D01*
X132597714Y-142766333D01*
X132625488Y-142821319D01*
X132662135Y-142898803D01*
X132703978Y-142990483D01*
X132747342Y-143088059D01*
X132788550Y-143183230D01*
X132823927Y-143267693D01*
X132849795Y-143333148D01*
X132862479Y-143371293D01*
X132863167Y-143375950D01*
X133450904Y-143375950D01*
X133512530Y-143340327D01*
X133616028Y-143263337D01*
X133713051Y-143174512D01*
X133795590Y-143082567D01*
X133855638Y-142996218D01*
X133881635Y-142938610D01*
X133893597Y-142886335D01*
X133892111Y-142838846D01*
X133875240Y-142779495D01*
X133857766Y-142733390D01*
X133845196Y-142704500D01*
X133625167Y-142704500D01*
X133607950Y-142732749D01*
X133567506Y-142763569D01*
X133520650Y-142785783D01*
X133496049Y-142790334D01*
X133453280Y-142775616D01*
X133440526Y-142763875D01*
X133421026Y-142729597D01*
X133394351Y-142671997D01*
X133379726Y-142636968D01*
X133348809Y-142567954D01*
X133316858Y-142508660D01*
X133304423Y-142489913D01*
X133275022Y-142459665D01*
X133240685Y-142454551D01*
X133198469Y-142465086D01*
X133125814Y-142479251D01*
X133085156Y-142466893D01*
X133074833Y-142436374D01*
X133080831Y-142403286D01*
X133097026Y-142339947D01*
X133120723Y-142256429D01*
X133140925Y-142189430D01*
X133170940Y-142088084D01*
X133188013Y-142017287D01*
X133191167Y-141989283D01*
X132999600Y-141989283D01*
X132996307Y-142011068D01*
X132982991Y-142066256D01*
X132961528Y-142147621D01*
X132933794Y-142247941D01*
X132918100Y-142303166D01*
X132884052Y-142420943D01*
X132858170Y-142505015D01*
X132837049Y-142562398D01*
X132817282Y-142600108D01*
X132795463Y-142625161D01*
X132768186Y-142644573D01*
X132746145Y-142657360D01*
X132689420Y-142686346D01*
X132645297Y-142703423D01*
X132634656Y-142705319D01*
X132614488Y-142687426D01*
X132582927Y-142639093D01*
X132545173Y-142568825D01*
X132523531Y-142523643D01*
X132487254Y-142443255D01*
X132458903Y-142377593D01*
X132442417Y-142335925D01*
X132439833Y-142326610D01*
X132457073Y-142309878D01*
X132502358Y-142280191D01*
X132566035Y-142243856D01*
X132568649Y-142242450D01*
X132652912Y-142195023D01*
X132751362Y-142136419D01*
X132843069Y-142079104D01*
X132845335Y-142077640D01*
X132913572Y-142034768D01*
X132966809Y-142003714D01*
X132996419Y-141989418D01*
X132999600Y-141989283D01*
X133191167Y-141989283D01*
X133193590Y-141967777D01*
X133189119Y-141930290D01*
X133183926Y-141914107D01*
X133169989Y-141853540D01*
X133185512Y-141822173D01*
X133211132Y-141816667D01*
X133225598Y-141834962D01*
X133253927Y-141885439D01*
X133293035Y-141961487D01*
X133339840Y-142056495D01*
X133391259Y-142163851D01*
X133444207Y-142276944D01*
X133495603Y-142389162D01*
X133542362Y-142493895D01*
X133581403Y-142584531D01*
X133609640Y-142654458D01*
X133623993Y-142697065D01*
X133625167Y-142704500D01*
X133845196Y-142704500D01*
X133802774Y-142607002D01*
X133753916Y-142522280D01*
X133711064Y-142479023D01*
X133690074Y-142472834D01*
X133674651Y-142468324D01*
X133657172Y-142452556D01*
X133636079Y-142422169D01*
X133609812Y-142373803D01*
X133576812Y-142304099D01*
X133535519Y-142209696D01*
X133484375Y-142087234D01*
X133421820Y-141933353D01*
X133346294Y-141744694D01*
X133311078Y-141656159D01*
X133251369Y-141507203D01*
X133192961Y-141363982D01*
X133138758Y-141233431D01*
X133091665Y-141122484D01*
X133054584Y-141038074D01*
X133032933Y-140992023D01*
X132927897Y-140825994D01*
X132796955Y-140690384D01*
X132643772Y-140588935D01*
X132632220Y-140583165D01*
X132558926Y-140549432D01*
X132498099Y-140529060D01*
X132433873Y-140518777D01*
X132350378Y-140515308D01*
X132302250Y-140515098D01*
X132202730Y-140516999D01*
G36*
X132831384Y-143697190D02*
G01*
X132774616Y-143702746D01*
X132740549Y-143708091D01*
X132736167Y-143710010D01*
X132744798Y-143729886D01*
X132768606Y-143781271D01*
X132804465Y-143857501D01*
X132849248Y-143951912D01*
X132876707Y-144009503D01*
X132926674Y-144115843D01*
X132988884Y-144250926D01*
X133058757Y-144404648D01*
X133131715Y-144566906D01*
X133203175Y-144727596D01*
X133235583Y-144801167D01*
X133305739Y-144959611D01*
X133361833Y-145082778D01*
X133405883Y-145174556D01*
X133439905Y-145238828D01*
X133465915Y-145279481D01*
X133485929Y-145300401D01*
X133497210Y-145305347D01*
X133531816Y-145303019D01*
X133540500Y-145292822D01*
X133532813Y-145269055D01*
X133511057Y-145211094D01*
X133477195Y-145123924D01*
X133433188Y-145012533D01*
X133380996Y-144881906D01*
X133322581Y-144737030D01*
X133300588Y-144682796D01*
X133236061Y-144522669D01*
X133173338Y-144364723D01*
X133115209Y-144216151D01*
X133064461Y-144084149D01*
X133023883Y-143975910D01*
X132996264Y-143898630D01*
X132993639Y-143890838D01*
X132926602Y-143689617D01*
X132831384Y-143697190D01*
G37*
X132831384Y-143697190D02*
X132774616Y-143702746D01*
X132740549Y-143708091D01*
X132736167Y-143710010D01*
X132744798Y-143729886D01*
X132768606Y-143781271D01*
X132804465Y-143857501D01*
X132849248Y-143951912D01*
X132876707Y-144009503D01*
X132926674Y-144115843D01*
X132988884Y-144250926D01*
X133058757Y-144404648D01*
X133131715Y-144566906D01*
X133203175Y-144727596D01*
X133235583Y-144801167D01*
X133305739Y-144959611D01*
X133361833Y-145082778D01*
X133405883Y-145174556D01*
X133439905Y-145238828D01*
X133465915Y-145279481D01*
X133485929Y-145300401D01*
X133497210Y-145305347D01*
X133531816Y-145303019D01*
X133540500Y-145292822D01*
X133532813Y-145269055D01*
X133511057Y-145211094D01*
X133477195Y-145123924D01*
X133433188Y-145012533D01*
X133380996Y-144881906D01*
X133322581Y-144737030D01*
X133300588Y-144682796D01*
X133236061Y-144522669D01*
X133173338Y-144364723D01*
X133115209Y-144216151D01*
X133064461Y-144084149D01*
X133023883Y-143975910D01*
X132996264Y-143898630D01*
X132993639Y-143890838D01*
X132926602Y-143689617D01*
X132831384Y-143697190D01*
G36*
X133732763Y-143291208D02*
G01*
X133691703Y-143324223D01*
X133673242Y-143340586D01*
X133604901Y-143402765D01*
X133797384Y-143810924D01*
X133876680Y-143980061D01*
X133963027Y-144165967D01*
X134053182Y-144361521D01*
X134143901Y-144559600D01*
X134231941Y-144753083D01*
X134314057Y-144934847D01*
X134387007Y-145097770D01*
X134447546Y-145234729D01*
X134482139Y-145314459D01*
X134521171Y-145402255D01*
X134550333Y-145457492D01*
X134574595Y-145487260D01*
X134598923Y-145498648D01*
X134611929Y-145499667D01*
X134650538Y-145496308D01*
X134662333Y-145490310D01*
X134654395Y-145469263D01*
X134631878Y-145413918D01*
X134596730Y-145328951D01*
X134550898Y-145219038D01*
X134496330Y-145088856D01*
X134434973Y-144943080D01*
X134395687Y-144850018D01*
X134292847Y-144605419D01*
X134195144Y-144370578D01*
X134104228Y-144149588D01*
X134021746Y-143946541D01*
X133949349Y-143765529D01*
X133888685Y-143610645D01*
X133841402Y-143485981D01*
X133809150Y-143395629D01*
X133806700Y-143388292D01*
X133784208Y-143327475D01*
X133764830Y-143287375D01*
X133755757Y-143277787D01*
X133732763Y-143291208D01*
G37*
X133732763Y-143291208D02*
X133691703Y-143324223D01*
X133673242Y-143340586D01*
X133604901Y-143402765D01*
X133797384Y-143810924D01*
X133876680Y-143980061D01*
X133963027Y-144165967D01*
X134053182Y-144361521D01*
X134143901Y-144559600D01*
X134231941Y-144753083D01*
X134314057Y-144934847D01*
X134387007Y-145097770D01*
X134447546Y-145234729D01*
X134482139Y-145314459D01*
X134521171Y-145402255D01*
X134550333Y-145457492D01*
X134574595Y-145487260D01*
X134598923Y-145498648D01*
X134611929Y-145499667D01*
X134650538Y-145496308D01*
X134662333Y-145490310D01*
X134654395Y-145469263D01*
X134631878Y-145413918D01*
X134596730Y-145328951D01*
X134550898Y-145219038D01*
X134496330Y-145088856D01*
X134434973Y-144943080D01*
X134395687Y-144850018D01*
X134292847Y-144605419D01*
X134195144Y-144370578D01*
X134104228Y-144149588D01*
X134021746Y-143946541D01*
X133949349Y-143765529D01*
X133888685Y-143610645D01*
X133841402Y-143485981D01*
X133809150Y-143395629D01*
X133806700Y-143388292D01*
X133784208Y-143327475D01*
X133764830Y-143287375D01*
X133755757Y-143277787D01*
X133732763Y-143291208D01*
G36*
X128996165Y-143213444D02*
G01*
X128922794Y-143218066D01*
X128869668Y-143225882D01*
X128846685Y-143236876D01*
X128846655Y-143239715D01*
X128871219Y-143261165D01*
X128920820Y-143280956D01*
X128933086Y-143284151D01*
X128969616Y-143294843D01*
X128993766Y-143311127D01*
X129006600Y-143339875D01*
X129009182Y-143387962D01*
X129002574Y-143462260D01*
X128987841Y-143569643D01*
X128982686Y-143604667D01*
X128957720Y-143773419D01*
X128772610Y-143563314D01*
X128703790Y-143483254D01*
X128646568Y-143412973D01*
X128606218Y-143359232D01*
X128588018Y-143328789D01*
X128587500Y-143326175D01*
X128605545Y-143301493D01*
X128641338Y-143285627D01*
X128686180Y-143268904D01*
X128691850Y-143252509D01*
X128661497Y-143237804D01*
X128598270Y-143226150D01*
X128505317Y-143218907D01*
X128485246Y-143218164D01*
X128389626Y-143216554D01*
X128329717Y-143219469D01*
X128299068Y-143227646D01*
X128291166Y-143240370D01*
X128309162Y-143265460D01*
X128353498Y-143290912D01*
X128363871Y-143294952D01*
X128419201Y-143327925D01*
X128498291Y-143395247D01*
X128600729Y-143496511D01*
X128726108Y-143631308D01*
X128874016Y-143799232D01*
X128894821Y-143823408D01*
X128975983Y-143913265D01*
X129036779Y-143969579D01*
X129079627Y-143994488D01*
X129090208Y-143996180D01*
X129127360Y-143988666D01*
X129137833Y-143975502D01*
X129140616Y-143947957D01*
X129148274Y-143886442D01*
X129159776Y-143798909D01*
X129174088Y-143693307D01*
X129181154Y-143642127D01*
X129200057Y-143512961D01*
X129216898Y-143419446D01*
X129233989Y-143355125D01*
X129253641Y-143313544D01*
X129278167Y-143288244D01*
X129309878Y-143272772D01*
X129313916Y-143271389D01*
X129324885Y-143250905D01*
X129320248Y-143238875D01*
X129294128Y-143227259D01*
X129238762Y-143218925D01*
X129164047Y-143213856D01*
X129079882Y-143212035D01*
X128996165Y-143213444D01*
G37*
X128996165Y-143213444D02*
X128922794Y-143218066D01*
X128869668Y-143225882D01*
X128846685Y-143236876D01*
X128846655Y-143239715D01*
X128871219Y-143261165D01*
X128920820Y-143280956D01*
X128933086Y-143284151D01*
X128969616Y-143294843D01*
X128993766Y-143311127D01*
X129006600Y-143339875D01*
X129009182Y-143387962D01*
X129002574Y-143462260D01*
X128987841Y-143569643D01*
X128982686Y-143604667D01*
X128957720Y-143773419D01*
X128772610Y-143563314D01*
X128703790Y-143483254D01*
X128646568Y-143412973D01*
X128606218Y-143359232D01*
X128588018Y-143328789D01*
X128587500Y-143326175D01*
X128605545Y-143301493D01*
X128641338Y-143285627D01*
X128686180Y-143268904D01*
X128691850Y-143252509D01*
X128661497Y-143237804D01*
X128598270Y-143226150D01*
X128505317Y-143218907D01*
X128485246Y-143218164D01*
X128389626Y-143216554D01*
X128329717Y-143219469D01*
X128299068Y-143227646D01*
X128291166Y-143240370D01*
X128309162Y-143265460D01*
X128353498Y-143290912D01*
X128363871Y-143294952D01*
X128419201Y-143327925D01*
X128498291Y-143395247D01*
X128600729Y-143496511D01*
X128726108Y-143631308D01*
X128874016Y-143799232D01*
X128894821Y-143823408D01*
X128975983Y-143913265D01*
X129036779Y-143969579D01*
X129079627Y-143994488D01*
X129090208Y-143996180D01*
X129127360Y-143988666D01*
X129137833Y-143975502D01*
X129140616Y-143947957D01*
X129148274Y-143886442D01*
X129159776Y-143798909D01*
X129174088Y-143693307D01*
X129181154Y-143642127D01*
X129200057Y-143512961D01*
X129216898Y-143419446D01*
X129233989Y-143355125D01*
X129253641Y-143313544D01*
X129278167Y-143288244D01*
X129309878Y-143272772D01*
X129313916Y-143271389D01*
X129324885Y-143250905D01*
X129320248Y-143238875D01*
X129294128Y-143227259D01*
X129238762Y-143218925D01*
X129164047Y-143213856D01*
X129079882Y-143212035D01*
X128996165Y-143213444D01*
G36*
X129544921Y-143212341D02*
G01*
X129453553Y-143254876D01*
X129395172Y-143323289D01*
X129371428Y-143415483D01*
X129370956Y-143433479D01*
X129371252Y-143500730D01*
X129375627Y-143549044D01*
X129390081Y-143581544D01*
X129420617Y-143601355D01*
X129473236Y-143611597D01*
X129553940Y-143615396D01*
X129668729Y-143615873D01*
X129721390Y-143615833D01*
X130046010Y-143615833D01*
X130066963Y-143691718D01*
X130075847Y-143778982D01*
X130052552Y-143849006D01*
X130008071Y-143889713D01*
X129927944Y-143911115D01*
X129829636Y-143905382D01*
X129724781Y-143875434D01*
X129625011Y-143824190D01*
X129566178Y-143778824D01*
X129528024Y-143750723D01*
X129501689Y-143753357D01*
X129492095Y-143761626D01*
X129481362Y-143785005D01*
X129499058Y-143813946D01*
X129529416Y-143841611D01*
X129639459Y-143914802D01*
X129767088Y-143969228D01*
X129899450Y-144001267D01*
X130023693Y-144007295D01*
X130084511Y-143998063D01*
X130186817Y-143955405D01*
X130257012Y-143888541D01*
X130292268Y-143802266D01*
X130289755Y-143701379D01*
X130280311Y-143666172D01*
X130218247Y-143533482D01*
X130215850Y-143530397D01*
X130005666Y-143530397D01*
X129986528Y-143543443D01*
X129936252Y-143550639D01*
X129865552Y-143552527D01*
X129785139Y-143549647D01*
X129705724Y-143542541D01*
X129638020Y-143531749D01*
X129592737Y-143517812D01*
X129581242Y-143508959D01*
X129565788Y-143460401D01*
X129562362Y-143396262D01*
X129570458Y-143336226D01*
X129586566Y-143302566D01*
X129633089Y-143281734D01*
X129701407Y-143279250D01*
X129775661Y-143294116D01*
X129828590Y-143317777D01*
X129882090Y-143359229D01*
X129935770Y-143414519D01*
X129979650Y-143471663D01*
X130003751Y-143518679D01*
X130005666Y-143530397D01*
X130215850Y-143530397D01*
X130127621Y-143416863D01*
X130015573Y-143320720D01*
X129889245Y-143249461D01*
X129755776Y-143207493D01*
X129622308Y-143199222D01*
X129544921Y-143212341D01*
G37*
X129544921Y-143212341D02*
X129453553Y-143254876D01*
X129395172Y-143323289D01*
X129371428Y-143415483D01*
X129370956Y-143433479D01*
X129371252Y-143500730D01*
X129375627Y-143549044D01*
X129390081Y-143581544D01*
X129420617Y-143601355D01*
X129473236Y-143611597D01*
X129553940Y-143615396D01*
X129668729Y-143615873D01*
X129721390Y-143615833D01*
X130046010Y-143615833D01*
X130066963Y-143691718D01*
X130075847Y-143778982D01*
X130052552Y-143849006D01*
X130008071Y-143889713D01*
X129927944Y-143911115D01*
X129829636Y-143905382D01*
X129724781Y-143875434D01*
X129625011Y-143824190D01*
X129566178Y-143778824D01*
X129528024Y-143750723D01*
X129501689Y-143753357D01*
X129492095Y-143761626D01*
X129481362Y-143785005D01*
X129499058Y-143813946D01*
X129529416Y-143841611D01*
X129639459Y-143914802D01*
X129767088Y-143969228D01*
X129899450Y-144001267D01*
X130023693Y-144007295D01*
X130084511Y-143998063D01*
X130186817Y-143955405D01*
X130257012Y-143888541D01*
X130292268Y-143802266D01*
X130289755Y-143701379D01*
X130280311Y-143666172D01*
X130218247Y-143533482D01*
X130215850Y-143530397D01*
X130005666Y-143530397D01*
X129986528Y-143543443D01*
X129936252Y-143550639D01*
X129865552Y-143552527D01*
X129785139Y-143549647D01*
X129705724Y-143542541D01*
X129638020Y-143531749D01*
X129592737Y-143517812D01*
X129581242Y-143508959D01*
X129565788Y-143460401D01*
X129562362Y-143396262D01*
X129570458Y-143336226D01*
X129586566Y-143302566D01*
X129633089Y-143281734D01*
X129701407Y-143279250D01*
X129775661Y-143294116D01*
X129828590Y-143317777D01*
X129882090Y-143359229D01*
X129935770Y-143414519D01*
X129979650Y-143471663D01*
X130003751Y-143518679D01*
X130005666Y-143530397D01*
X130215850Y-143530397D01*
X130127621Y-143416863D01*
X130015573Y-143320720D01*
X129889245Y-143249461D01*
X129755776Y-143207493D01*
X129622308Y-143199222D01*
X129544921Y-143212341D01*
G36*
X130647892Y-142814745D02*
G01*
X130537022Y-142819482D01*
X130451654Y-142828421D01*
X130386203Y-142842119D01*
X130335083Y-142861131D01*
X130297923Y-142882425D01*
X130239256Y-142941681D01*
X130216624Y-143011299D01*
X130226559Y-143086420D01*
X130265591Y-143162188D01*
X130330252Y-143233744D01*
X130417074Y-143296233D01*
X130522588Y-143344796D01*
X130643325Y-143374577D01*
X130650041Y-143375532D01*
X130747918Y-143388948D01*
X130683181Y-143428317D01*
X130629610Y-143472046D01*
X130598563Y-143529212D01*
X130587142Y-143608824D01*
X130591743Y-143712541D01*
X130596908Y-143794976D01*
X130592847Y-143844249D01*
X130578744Y-143868686D01*
X130576266Y-143870389D01*
X130531663Y-143875683D01*
X130483392Y-143845718D01*
X130439912Y-143785794D01*
X130439259Y-143784539D01*
X130409287Y-143747432D01*
X130371520Y-143723896D01*
X130338624Y-143718828D01*
X130323259Y-143737123D01*
X130323166Y-143739657D01*
X130338636Y-143780732D01*
X130378425Y-143835905D01*
X130432609Y-143894390D01*
X130491259Y-143945399D01*
X130541431Y-143976821D01*
X130624645Y-144007624D01*
X130693877Y-144013275D01*
X130768147Y-143995134D01*
X130773001Y-143993384D01*
X130819427Y-143963520D01*
X130843735Y-143912465D01*
X130847126Y-143834606D01*
X130830796Y-143724329D01*
X130830614Y-143723426D01*
X130812758Y-143624859D01*
X130807087Y-143557575D01*
X130814483Y-143512061D01*
X130835827Y-143478803D01*
X130854893Y-143461423D01*
X130899428Y-143437475D01*
X130962384Y-143428604D01*
X131019614Y-143429673D01*
X131137522Y-143435916D01*
X131220974Y-143654571D01*
X131259442Y-143758910D01*
X131280354Y-143830421D01*
X131282591Y-143875288D01*
X131265031Y-143899695D01*
X131226555Y-143909825D01*
X131174380Y-143911842D01*
X131128591Y-143914776D01*
X131116643Y-143928068D01*
X131127500Y-143954500D01*
X131138961Y-143970820D01*
X131157493Y-143982316D01*
X131189844Y-143989827D01*
X131242762Y-143994189D01*
X131322994Y-143996241D01*
X131437287Y-143996820D01*
X131468463Y-143996833D01*
X131590907Y-143996466D01*
X131677075Y-143994887D01*
X131733021Y-143991374D01*
X131764800Y-143985207D01*
X131778465Y-143975665D01*
X131780070Y-143962027D01*
X131779685Y-143959791D01*
X131760612Y-143933422D01*
X131710751Y-143916839D01*
X131672396Y-143911204D01*
X131608842Y-143900350D01*
X131562928Y-143886118D01*
X131552122Y-143879454D01*
X131537168Y-143852770D01*
X131510832Y-143794098D01*
X131475669Y-143710106D01*
X131434238Y-143607461D01*
X131389095Y-143492833D01*
X131342798Y-143372887D01*
X131321589Y-143316862D01*
X131084424Y-143316862D01*
X131065874Y-143332362D01*
X131015911Y-143339958D01*
X130944570Y-143340354D01*
X130861887Y-143334252D01*
X130777897Y-143322357D01*
X130702638Y-143305370D01*
X130651061Y-143286505D01*
X130563211Y-143224008D01*
X130501241Y-143139997D01*
X130472481Y-143045234D01*
X130471333Y-143022604D01*
X130476787Y-142966475D01*
X130499616Y-142935114D01*
X130530952Y-142918941D01*
X130582765Y-142907313D01*
X130662031Y-142900717D01*
X130754042Y-142900346D01*
X130758322Y-142900498D01*
X130926074Y-142906750D01*
X131004877Y-143097250D01*
X131038888Y-143182146D01*
X131065688Y-143254132D01*
X131081614Y-143303095D01*
X131084424Y-143316862D01*
X131321589Y-143316862D01*
X131297903Y-143254294D01*
X131256968Y-143143721D01*
X131222549Y-143047835D01*
X131197205Y-142973306D01*
X131183491Y-142926800D01*
X131182113Y-142914588D01*
X131208649Y-142902924D01*
X131260715Y-142896562D01*
X131278468Y-142896166D01*
X131333228Y-142892853D01*
X131355518Y-142879884D01*
X131356322Y-142859124D01*
X131350190Y-142845798D01*
X131333807Y-142835864D01*
X131301408Y-142828677D01*
X131247230Y-142823590D01*
X131165508Y-142819959D01*
X131050478Y-142817136D01*
X130968478Y-142815652D01*
X130789849Y-142813654D01*
X130647892Y-142814745D01*
G37*
X130647892Y-142814745D02*
X130537022Y-142819482D01*
X130451654Y-142828421D01*
X130386203Y-142842119D01*
X130335083Y-142861131D01*
X130297923Y-142882425D01*
X130239256Y-142941681D01*
X130216624Y-143011299D01*
X130226559Y-143086420D01*
X130265591Y-143162188D01*
X130330252Y-143233744D01*
X130417074Y-143296233D01*
X130522588Y-143344796D01*
X130643325Y-143374577D01*
X130650041Y-143375532D01*
X130747918Y-143388948D01*
X130683181Y-143428317D01*
X130629610Y-143472046D01*
X130598563Y-143529212D01*
X130587142Y-143608824D01*
X130591743Y-143712541D01*
X130596908Y-143794976D01*
X130592847Y-143844249D01*
X130578744Y-143868686D01*
X130576266Y-143870389D01*
X130531663Y-143875683D01*
X130483392Y-143845718D01*
X130439912Y-143785794D01*
X130439259Y-143784539D01*
X130409287Y-143747432D01*
X130371520Y-143723896D01*
X130338624Y-143718828D01*
X130323259Y-143737123D01*
X130323166Y-143739657D01*
X130338636Y-143780732D01*
X130378425Y-143835905D01*
X130432609Y-143894390D01*
X130491259Y-143945399D01*
X130541431Y-143976821D01*
X130624645Y-144007624D01*
X130693877Y-144013275D01*
X130768147Y-143995134D01*
X130773001Y-143993384D01*
X130819427Y-143963520D01*
X130843735Y-143912465D01*
X130847126Y-143834606D01*
X130830796Y-143724329D01*
X130830614Y-143723426D01*
X130812758Y-143624859D01*
X130807087Y-143557575D01*
X130814483Y-143512061D01*
X130835827Y-143478803D01*
X130854893Y-143461423D01*
X130899428Y-143437475D01*
X130962384Y-143428604D01*
X131019614Y-143429673D01*
X131137522Y-143435916D01*
X131220974Y-143654571D01*
X131259442Y-143758910D01*
X131280354Y-143830421D01*
X131282591Y-143875288D01*
X131265031Y-143899695D01*
X131226555Y-143909825D01*
X131174380Y-143911842D01*
X131128591Y-143914776D01*
X131116643Y-143928068D01*
X131127500Y-143954500D01*
X131138961Y-143970820D01*
X131157493Y-143982316D01*
X131189844Y-143989827D01*
X131242762Y-143994189D01*
X131322994Y-143996241D01*
X131437287Y-143996820D01*
X131468463Y-143996833D01*
X131590907Y-143996466D01*
X131677075Y-143994887D01*
X131733021Y-143991374D01*
X131764800Y-143985207D01*
X131778465Y-143975665D01*
X131780070Y-143962027D01*
X131779685Y-143959791D01*
X131760612Y-143933422D01*
X131710751Y-143916839D01*
X131672396Y-143911204D01*
X131608842Y-143900350D01*
X131562928Y-143886118D01*
X131552122Y-143879454D01*
X131537168Y-143852770D01*
X131510832Y-143794098D01*
X131475669Y-143710106D01*
X131434238Y-143607461D01*
X131389095Y-143492833D01*
X131342798Y-143372887D01*
X131321589Y-143316862D01*
X131084424Y-143316862D01*
X131065874Y-143332362D01*
X131015911Y-143339958D01*
X130944570Y-143340354D01*
X130861887Y-143334252D01*
X130777897Y-143322357D01*
X130702638Y-143305370D01*
X130651061Y-143286505D01*
X130563211Y-143224008D01*
X130501241Y-143139997D01*
X130472481Y-143045234D01*
X130471333Y-143022604D01*
X130476787Y-142966475D01*
X130499616Y-142935114D01*
X130530952Y-142918941D01*
X130582765Y-142907313D01*
X130662031Y-142900717D01*
X130754042Y-142900346D01*
X130758322Y-142900498D01*
X130926074Y-142906750D01*
X131004877Y-143097250D01*
X131038888Y-143182146D01*
X131065688Y-143254132D01*
X131081614Y-143303095D01*
X131084424Y-143316862D01*
X131321589Y-143316862D01*
X131297903Y-143254294D01*
X131256968Y-143143721D01*
X131222549Y-143047835D01*
X131197205Y-142973306D01*
X131183491Y-142926800D01*
X131182113Y-142914588D01*
X131208649Y-142902924D01*
X131260715Y-142896562D01*
X131278468Y-142896166D01*
X131333228Y-142892853D01*
X131355518Y-142879884D01*
X131356322Y-142859124D01*
X131350190Y-142845798D01*
X131333807Y-142835864D01*
X131301408Y-142828677D01*
X131247230Y-142823590D01*
X131165508Y-142819959D01*
X131050478Y-142817136D01*
X130968478Y-142815652D01*
X130789849Y-142813654D01*
X130647892Y-142814745D01*
G36*
X127477916Y-144619136D02*
G01*
X127432320Y-144637924D01*
X127402166Y-144656950D01*
X127334699Y-144726751D01*
X127301390Y-144818000D01*
X127304215Y-144924639D01*
X127308475Y-144944041D01*
X127328083Y-145023416D01*
X127655414Y-145034000D01*
X127982746Y-145044583D01*
X128000890Y-145108083D01*
X128008999Y-145191793D01*
X127984209Y-145256579D01*
X127932255Y-145300829D01*
X127858869Y-145322931D01*
X127769784Y-145321273D01*
X127670734Y-145294245D01*
X127567451Y-145240234D01*
X127556641Y-145232964D01*
X127488672Y-145191909D01*
X127440303Y-145173346D01*
X127415952Y-145176775D01*
X127420035Y-145201695D01*
X127454048Y-145244586D01*
X127566969Y-145332106D01*
X127706452Y-145387069D01*
X127867833Y-145408981D01*
X127976646Y-145408050D01*
X128054051Y-145395581D01*
X128092188Y-145380664D01*
X128171816Y-145319459D01*
X128214996Y-145238235D01*
X128221090Y-145139545D01*
X128189465Y-145025941D01*
X128183742Y-145012833D01*
X128129618Y-144925067D01*
X127931333Y-144925067D01*
X127931333Y-144925142D01*
X127912320Y-144938029D01*
X127854335Y-144946004D01*
X127755963Y-144949240D01*
X127730995Y-144949333D01*
X127635893Y-144948374D01*
X127574368Y-144944426D01*
X127537686Y-144935878D01*
X127517113Y-144921124D01*
X127508745Y-144908391D01*
X127490395Y-144848298D01*
X127489236Y-144782315D01*
X127504901Y-144730156D01*
X127512233Y-144720733D01*
X127547876Y-144705111D01*
X127607087Y-144696159D01*
X127631674Y-144695333D01*
X127685947Y-144698594D01*
X127728806Y-144713072D01*
X127773734Y-144745808D01*
X127828524Y-144798142D01*
X127880223Y-144853145D01*
X127917143Y-144898727D01*
X127931333Y-144925067D01*
X128129618Y-144925067D01*
X128100797Y-144878332D01*
X127986999Y-144765557D01*
X127850671Y-144680303D01*
X127700136Y-144628364D01*
X127613833Y-144616066D01*
X127533030Y-144612891D01*
X127477916Y-144619136D01*
G37*
X127477916Y-144619136D02*
X127432320Y-144637924D01*
X127402166Y-144656950D01*
X127334699Y-144726751D01*
X127301390Y-144818000D01*
X127304215Y-144924639D01*
X127308475Y-144944041D01*
X127328083Y-145023416D01*
X127655414Y-145034000D01*
X127982746Y-145044583D01*
X128000890Y-145108083D01*
X128008999Y-145191793D01*
X127984209Y-145256579D01*
X127932255Y-145300829D01*
X127858869Y-145322931D01*
X127769784Y-145321273D01*
X127670734Y-145294245D01*
X127567451Y-145240234D01*
X127556641Y-145232964D01*
X127488672Y-145191909D01*
X127440303Y-145173346D01*
X127415952Y-145176775D01*
X127420035Y-145201695D01*
X127454048Y-145244586D01*
X127566969Y-145332106D01*
X127706452Y-145387069D01*
X127867833Y-145408981D01*
X127976646Y-145408050D01*
X128054051Y-145395581D01*
X128092188Y-145380664D01*
X128171816Y-145319459D01*
X128214996Y-145238235D01*
X128221090Y-145139545D01*
X128189465Y-145025941D01*
X128183742Y-145012833D01*
X128129618Y-144925067D01*
X127931333Y-144925067D01*
X127931333Y-144925142D01*
X127912320Y-144938029D01*
X127854335Y-144946004D01*
X127755963Y-144949240D01*
X127730995Y-144949333D01*
X127635893Y-144948374D01*
X127574368Y-144944426D01*
X127537686Y-144935878D01*
X127517113Y-144921124D01*
X127508745Y-144908391D01*
X127490395Y-144848298D01*
X127489236Y-144782315D01*
X127504901Y-144730156D01*
X127512233Y-144720733D01*
X127547876Y-144705111D01*
X127607087Y-144696159D01*
X127631674Y-144695333D01*
X127685947Y-144698594D01*
X127728806Y-144713072D01*
X127773734Y-144745808D01*
X127828524Y-144798142D01*
X127880223Y-144853145D01*
X127917143Y-144898727D01*
X127931333Y-144925067D01*
X128129618Y-144925067D01*
X128100797Y-144878332D01*
X127986999Y-144765557D01*
X127850671Y-144680303D01*
X127700136Y-144628364D01*
X127613833Y-144616066D01*
X127533030Y-144612891D01*
X127477916Y-144619136D01*
G36*
X128256193Y-144633129D02*
G01*
X128188981Y-144669873D01*
X128150005Y-144724337D01*
X128143000Y-144765727D01*
X128161755Y-144825002D01*
X128209274Y-144875517D01*
X128272434Y-144909257D01*
X128338111Y-144918208D01*
X128375034Y-144907427D01*
X128411926Y-144874716D01*
X128409780Y-144834431D01*
X128368334Y-144782914D01*
X128365902Y-144780612D01*
X128333653Y-144742822D01*
X128323978Y-144715413D01*
X128324818Y-144713423D01*
X128355101Y-144698987D01*
X128410230Y-144696022D01*
X128474551Y-144703674D01*
X128532412Y-144721090D01*
X128540926Y-144725193D01*
X128620885Y-144782560D01*
X128690002Y-144861012D01*
X128744993Y-144952174D01*
X128782569Y-145047670D01*
X128799444Y-145139125D01*
X128792331Y-145218163D01*
X128757943Y-145276408D01*
X128757420Y-145276885D01*
X128697309Y-145305080D01*
X128616874Y-145307638D01*
X128528072Y-145286312D01*
X128442860Y-145242853D01*
X128422321Y-145227790D01*
X128353874Y-145179205D01*
X128311045Y-145162665D01*
X128292317Y-145177725D01*
X128291166Y-145189207D01*
X128307935Y-145220392D01*
X128351394Y-145263964D01*
X128411272Y-145311673D01*
X128477299Y-145355265D01*
X128534117Y-145384419D01*
X128602074Y-145402063D01*
X128691122Y-145411543D01*
X128783800Y-145412346D01*
X128862645Y-145403960D01*
X128894416Y-145394989D01*
X128968310Y-145345562D01*
X129011628Y-145274602D01*
X129026172Y-145187846D01*
X129013744Y-145091035D01*
X128976146Y-144989909D01*
X128915178Y-144890206D01*
X128832644Y-144797666D01*
X128730345Y-144718028D01*
X128671328Y-144684325D01*
X128559207Y-144639704D01*
X128448108Y-144616997D01*
X128344836Y-144615155D01*
X128256193Y-144633129D01*
G37*
X128256193Y-144633129D02*
X128188981Y-144669873D01*
X128150005Y-144724337D01*
X128143000Y-144765727D01*
X128161755Y-144825002D01*
X128209274Y-144875517D01*
X128272434Y-144909257D01*
X128338111Y-144918208D01*
X128375034Y-144907427D01*
X128411926Y-144874716D01*
X128409780Y-144834431D01*
X128368334Y-144782914D01*
X128365902Y-144780612D01*
X128333653Y-144742822D01*
X128323978Y-144715413D01*
X128324818Y-144713423D01*
X128355101Y-144698987D01*
X128410230Y-144696022D01*
X128474551Y-144703674D01*
X128532412Y-144721090D01*
X128540926Y-144725193D01*
X128620885Y-144782560D01*
X128690002Y-144861012D01*
X128744993Y-144952174D01*
X128782569Y-145047670D01*
X128799444Y-145139125D01*
X128792331Y-145218163D01*
X128757943Y-145276408D01*
X128757420Y-145276885D01*
X128697309Y-145305080D01*
X128616874Y-145307638D01*
X128528072Y-145286312D01*
X128442860Y-145242853D01*
X128422321Y-145227790D01*
X128353874Y-145179205D01*
X128311045Y-145162665D01*
X128292317Y-145177725D01*
X128291166Y-145189207D01*
X128307935Y-145220392D01*
X128351394Y-145263964D01*
X128411272Y-145311673D01*
X128477299Y-145355265D01*
X128534117Y-145384419D01*
X128602074Y-145402063D01*
X128691122Y-145411543D01*
X128783800Y-145412346D01*
X128862645Y-145403960D01*
X128894416Y-145394989D01*
X128968310Y-145345562D01*
X129011628Y-145274602D01*
X129026172Y-145187846D01*
X129013744Y-145091035D01*
X128976146Y-144989909D01*
X128915178Y-144890206D01*
X128832644Y-144797666D01*
X128730345Y-144718028D01*
X128671328Y-144684325D01*
X128559207Y-144639704D01*
X128448108Y-144616997D01*
X128344836Y-144615155D01*
X128256193Y-144633129D01*
G36*
X129233599Y-144627487D02*
G01*
X129144032Y-144646300D01*
X129087628Y-144680000D01*
X129060636Y-144730157D01*
X129057736Y-144748397D01*
X129063010Y-144796480D01*
X129082736Y-144873237D01*
X129114101Y-144968689D01*
X129137111Y-145030200D01*
X129180047Y-145141816D01*
X129207155Y-145219758D01*
X129218664Y-145269524D01*
X129214801Y-145296612D01*
X129195794Y-145306517D01*
X129161872Y-145304739D01*
X129148416Y-145302683D01*
X129093344Y-145300156D01*
X129076686Y-145314806D01*
X129099476Y-145343987D01*
X129125011Y-145362562D01*
X129193726Y-145394320D01*
X129267452Y-145408032D01*
X129335540Y-145404528D01*
X129387339Y-145384635D01*
X129412198Y-145349182D01*
X129413000Y-145340171D01*
X129413834Y-145320249D01*
X129422101Y-145312516D01*
X129446443Y-145318289D01*
X129495505Y-145338888D01*
X129542734Y-145359951D01*
X129681126Y-145407095D01*
X129814526Y-145424999D01*
X129919966Y-145414865D01*
X129998207Y-145382249D01*
X130038286Y-145331602D01*
X130039722Y-145264187D01*
X130032261Y-145247198D01*
X129822692Y-145247198D01*
X129808085Y-145291373D01*
X129765036Y-145320100D01*
X129698148Y-145329116D01*
X129612024Y-145314157D01*
X129566553Y-145297776D01*
X129504580Y-145266924D01*
X129453999Y-145233619D01*
X129448564Y-145228984D01*
X129417610Y-145191831D01*
X129381777Y-145136753D01*
X129349833Y-145078890D01*
X129330549Y-145033385D01*
X129328333Y-145021382D01*
X129347147Y-145015470D01*
X129396291Y-145017598D01*
X129464818Y-145026411D01*
X129541780Y-145040551D01*
X129605646Y-145055744D01*
X129677903Y-145084911D01*
X129744292Y-145126376D01*
X129748170Y-145129555D01*
X129804254Y-145191837D01*
X129822692Y-145247198D01*
X130032261Y-145247198D01*
X130006351Y-145188201D01*
X129944716Y-145122684D01*
X129845559Y-145062943D01*
X129713507Y-145010836D01*
X129553190Y-144968225D01*
X129387024Y-144939321D01*
X129325445Y-144928360D01*
X129291730Y-144909757D01*
X129271574Y-144872186D01*
X129261197Y-144839711D01*
X129246912Y-144783358D01*
X129249418Y-144751263D01*
X129270602Y-144728062D01*
X129275343Y-144724519D01*
X129328483Y-144704288D01*
X129404706Y-144696203D01*
X129486382Y-144700814D01*
X129549205Y-144715976D01*
X129590485Y-144743551D01*
X129603374Y-144792103D01*
X129603500Y-144800154D01*
X129620121Y-144858689D01*
X129661949Y-144901341D01*
X129716933Y-144923563D01*
X129773024Y-144920804D01*
X129818169Y-144888518D01*
X129822131Y-144882679D01*
X129828879Y-144835679D01*
X129799142Y-144782396D01*
X129737214Y-144727914D01*
X129649332Y-144678208D01*
X129571863Y-144646992D01*
X129497329Y-144629698D01*
X129407160Y-144622717D01*
X129360083Y-144621992D01*
X129233599Y-144627487D01*
G37*
X129233599Y-144627487D02*
X129144032Y-144646300D01*
X129087628Y-144680000D01*
X129060636Y-144730157D01*
X129057736Y-144748397D01*
X129063010Y-144796480D01*
X129082736Y-144873237D01*
X129114101Y-144968689D01*
X129137111Y-145030200D01*
X129180047Y-145141816D01*
X129207155Y-145219758D01*
X129218664Y-145269524D01*
X129214801Y-145296612D01*
X129195794Y-145306517D01*
X129161872Y-145304739D01*
X129148416Y-145302683D01*
X129093344Y-145300156D01*
X129076686Y-145314806D01*
X129099476Y-145343987D01*
X129125011Y-145362562D01*
X129193726Y-145394320D01*
X129267452Y-145408032D01*
X129335540Y-145404528D01*
X129387339Y-145384635D01*
X129412198Y-145349182D01*
X129413000Y-145340171D01*
X129413834Y-145320249D01*
X129422101Y-145312516D01*
X129446443Y-145318289D01*
X129495505Y-145338888D01*
X129542734Y-145359951D01*
X129681126Y-145407095D01*
X129814526Y-145424999D01*
X129919966Y-145414865D01*
X129998207Y-145382249D01*
X130038286Y-145331602D01*
X130039722Y-145264187D01*
X130032261Y-145247198D01*
X129822692Y-145247198D01*
X129808085Y-145291373D01*
X129765036Y-145320100D01*
X129698148Y-145329116D01*
X129612024Y-145314157D01*
X129566553Y-145297776D01*
X129504580Y-145266924D01*
X129453999Y-145233619D01*
X129448564Y-145228984D01*
X129417610Y-145191831D01*
X129381777Y-145136753D01*
X129349833Y-145078890D01*
X129330549Y-145033385D01*
X129328333Y-145021382D01*
X129347147Y-145015470D01*
X129396291Y-145017598D01*
X129464818Y-145026411D01*
X129541780Y-145040551D01*
X129605646Y-145055744D01*
X129677903Y-145084911D01*
X129744292Y-145126376D01*
X129748170Y-145129555D01*
X129804254Y-145191837D01*
X129822692Y-145247198D01*
X130032261Y-145247198D01*
X130006351Y-145188201D01*
X129944716Y-145122684D01*
X129845559Y-145062943D01*
X129713507Y-145010836D01*
X129553190Y-144968225D01*
X129387024Y-144939321D01*
X129325445Y-144928360D01*
X129291730Y-144909757D01*
X129271574Y-144872186D01*
X129261197Y-144839711D01*
X129246912Y-144783358D01*
X129249418Y-144751263D01*
X129270602Y-144728062D01*
X129275343Y-144724519D01*
X129328483Y-144704288D01*
X129404706Y-144696203D01*
X129486382Y-144700814D01*
X129549205Y-144715976D01*
X129590485Y-144743551D01*
X129603374Y-144792103D01*
X129603500Y-144800154D01*
X129620121Y-144858689D01*
X129661949Y-144901341D01*
X129716933Y-144923563D01*
X129773024Y-144920804D01*
X129818169Y-144888518D01*
X129822131Y-144882679D01*
X129828879Y-144835679D01*
X129799142Y-144782396D01*
X129737214Y-144727914D01*
X129649332Y-144678208D01*
X129571863Y-144646992D01*
X129497329Y-144629698D01*
X129407160Y-144622717D01*
X129360083Y-144621992D01*
X129233599Y-144627487D01*
G36*
X130854777Y-144214381D02*
G01*
X130852333Y-144223288D01*
X130858554Y-144248417D01*
X130875349Y-144304554D01*
X130899915Y-144382542D01*
X130920612Y-144446384D01*
X130952756Y-144541116D01*
X130976940Y-144601859D01*
X130996851Y-144635325D01*
X131016179Y-144648224D01*
X131031737Y-144648554D01*
X131060717Y-144634769D01*
X131077810Y-144596967D01*
X131086138Y-144547166D01*
X131107785Y-144445334D01*
X131146830Y-144375733D01*
X131208355Y-144330092D01*
X131223774Y-144323124D01*
X131327074Y-144295870D01*
X131433862Y-144294573D01*
X131536068Y-144316004D01*
X131625620Y-144356934D01*
X131694450Y-144414133D01*
X131734485Y-144484371D01*
X131741333Y-144530221D01*
X131734963Y-144569637D01*
X131712091Y-144602088D01*
X131667077Y-144630677D01*
X131594279Y-144658506D01*
X131488056Y-144688677D01*
X131423833Y-144704831D01*
X131326445Y-144731080D01*
X131239709Y-144758754D01*
X131174974Y-144783999D01*
X131148666Y-144798278D01*
X131089791Y-144864173D01*
X131065972Y-144944479D01*
X131075001Y-145033523D01*
X131114669Y-145125634D01*
X131182765Y-145215137D01*
X131277081Y-145296361D01*
X131362744Y-145347948D01*
X131451040Y-145388543D01*
X131530855Y-145412307D01*
X131623282Y-145424745D01*
X131668722Y-145427793D01*
X131797219Y-145428720D01*
X131892437Y-145414777D01*
X131918608Y-145406470D01*
X131976177Y-145381672D01*
X132017405Y-145358082D01*
X132023383Y-145353083D01*
X132070797Y-145331446D01*
X132124422Y-145347220D01*
X132154083Y-145372666D01*
X132201290Y-145405112D01*
X132242030Y-145415000D01*
X132276330Y-145413931D01*
X132288401Y-145403492D01*
X132280827Y-145372835D01*
X132262828Y-145327626D01*
X132240946Y-145272053D01*
X132210621Y-145193286D01*
X132178194Y-145107797D01*
X132176311Y-145102791D01*
X132142415Y-145019919D01*
X132114841Y-144971539D01*
X132089419Y-144951132D01*
X132078149Y-144949333D01*
X132051780Y-144956922D01*
X132039984Y-144986858D01*
X132037666Y-145036092D01*
X132020607Y-145152802D01*
X131970800Y-145243790D01*
X131890301Y-145307435D01*
X131781168Y-145342112D01*
X131645457Y-145346201D01*
X131644681Y-145346139D01*
X131512148Y-145320926D01*
X131400107Y-145270478D01*
X131316576Y-145198848D01*
X131295787Y-145169891D01*
X131261982Y-145103668D01*
X131253912Y-145050400D01*
X131274775Y-145006813D01*
X131327773Y-144969635D01*
X131416104Y-144935592D01*
X131542969Y-144901411D01*
X131562878Y-144896689D01*
X131710410Y-144858114D01*
X131819333Y-144819087D01*
X131893282Y-144776433D01*
X131935892Y-144726979D01*
X131950799Y-144667552D01*
X131941639Y-144594979D01*
X131935207Y-144571707D01*
X131878935Y-144455796D01*
X131788422Y-144358518D01*
X131668937Y-144283296D01*
X131525747Y-144233557D01*
X131384435Y-144213593D01*
X131295239Y-144210715D01*
X131232334Y-144215549D01*
X131179982Y-144230726D01*
X131126367Y-144256756D01*
X131029985Y-144308719D01*
X130971729Y-144258609D01*
X130922244Y-144224386D01*
X130879578Y-144208554D01*
X130854777Y-144214381D01*
G37*
X130854777Y-144214381D02*
X130852333Y-144223288D01*
X130858554Y-144248417D01*
X130875349Y-144304554D01*
X130899915Y-144382542D01*
X130920612Y-144446384D01*
X130952756Y-144541116D01*
X130976940Y-144601859D01*
X130996851Y-144635325D01*
X131016179Y-144648224D01*
X131031737Y-144648554D01*
X131060717Y-144634769D01*
X131077810Y-144596967D01*
X131086138Y-144547166D01*
X131107785Y-144445334D01*
X131146830Y-144375733D01*
X131208355Y-144330092D01*
X131223774Y-144323124D01*
X131327074Y-144295870D01*
X131433862Y-144294573D01*
X131536068Y-144316004D01*
X131625620Y-144356934D01*
X131694450Y-144414133D01*
X131734485Y-144484371D01*
X131741333Y-144530221D01*
X131734963Y-144569637D01*
X131712091Y-144602088D01*
X131667077Y-144630677D01*
X131594279Y-144658506D01*
X131488056Y-144688677D01*
X131423833Y-144704831D01*
X131326445Y-144731080D01*
X131239709Y-144758754D01*
X131174974Y-144783999D01*
X131148666Y-144798278D01*
X131089791Y-144864173D01*
X131065972Y-144944479D01*
X131075001Y-145033523D01*
X131114669Y-145125634D01*
X131182765Y-145215137D01*
X131277081Y-145296361D01*
X131362744Y-145347948D01*
X131451040Y-145388543D01*
X131530855Y-145412307D01*
X131623282Y-145424745D01*
X131668722Y-145427793D01*
X131797219Y-145428720D01*
X131892437Y-145414777D01*
X131918608Y-145406470D01*
X131976177Y-145381672D01*
X132017405Y-145358082D01*
X132023383Y-145353083D01*
X132070797Y-145331446D01*
X132124422Y-145347220D01*
X132154083Y-145372666D01*
X132201290Y-145405112D01*
X132242030Y-145415000D01*
X132276330Y-145413931D01*
X132288401Y-145403492D01*
X132280827Y-145372835D01*
X132262828Y-145327626D01*
X132240946Y-145272053D01*
X132210621Y-145193286D01*
X132178194Y-145107797D01*
X132176311Y-145102791D01*
X132142415Y-145019919D01*
X132114841Y-144971539D01*
X132089419Y-144951132D01*
X132078149Y-144949333D01*
X132051780Y-144956922D01*
X132039984Y-144986858D01*
X132037666Y-145036092D01*
X132020607Y-145152802D01*
X131970800Y-145243790D01*
X131890301Y-145307435D01*
X131781168Y-145342112D01*
X131645457Y-145346201D01*
X131644681Y-145346139D01*
X131512148Y-145320926D01*
X131400107Y-145270478D01*
X131316576Y-145198848D01*
X131295787Y-145169891D01*
X131261982Y-145103668D01*
X131253912Y-145050400D01*
X131274775Y-145006813D01*
X131327773Y-144969635D01*
X131416104Y-144935592D01*
X131542969Y-144901411D01*
X131562878Y-144896689D01*
X131710410Y-144858114D01*
X131819333Y-144819087D01*
X131893282Y-144776433D01*
X131935892Y-144726979D01*
X131950799Y-144667552D01*
X131941639Y-144594979D01*
X131935207Y-144571707D01*
X131878935Y-144455796D01*
X131788422Y-144358518D01*
X131668937Y-144283296D01*
X131525747Y-144233557D01*
X131384435Y-144213593D01*
X131295239Y-144210715D01*
X131232334Y-144215549D01*
X131179982Y-144230726D01*
X131126367Y-144256756D01*
X131029985Y-144308719D01*
X130971729Y-144258609D01*
X130922244Y-144224386D01*
X130879578Y-144208554D01*
X130854777Y-144214381D01*
G36*
X130205527Y-144620082D02*
G01*
X130109917Y-144653544D01*
X130045020Y-144708860D01*
X130008604Y-144781302D01*
X129998440Y-144866138D01*
X130012294Y-144958640D01*
X130047936Y-145054075D01*
X130103135Y-145147715D01*
X130175659Y-145234829D01*
X130263278Y-145310687D01*
X130363759Y-145370558D01*
X130474872Y-145409713D01*
X130584444Y-145423371D01*
X130657926Y-145422039D01*
X130704156Y-145412115D01*
X130738037Y-145388848D01*
X130757050Y-145368364D01*
X130805961Y-145311501D01*
X130860897Y-145459711D01*
X130894080Y-145552496D01*
X130910749Y-145612926D01*
X130910297Y-145647880D01*
X130892115Y-145664234D01*
X130855597Y-145668866D01*
X130842414Y-145669000D01*
X130793379Y-145673231D01*
X130778499Y-145688540D01*
X130781179Y-145700750D01*
X130793822Y-145714445D01*
X130823739Y-145723701D01*
X130877523Y-145729280D01*
X130961768Y-145731948D01*
X131055017Y-145732500D01*
X131165026Y-145731852D01*
X131238888Y-145729387D01*
X131282776Y-145724318D01*
X131302863Y-145715860D01*
X131305323Y-145703227D01*
X131304488Y-145700750D01*
X131276075Y-145675763D01*
X131243383Y-145669000D01*
X131189442Y-145663655D01*
X131161796Y-145656464D01*
X131147072Y-145634957D01*
X131119955Y-145580833D01*
X131083298Y-145500971D01*
X131039955Y-145402246D01*
X130992780Y-145291534D01*
X130949923Y-145188452D01*
X130725333Y-145188452D01*
X130708588Y-145261085D01*
X130663391Y-145309153D01*
X130597298Y-145330350D01*
X130517864Y-145322373D01*
X130432647Y-145282915D01*
X130427316Y-145279362D01*
X130366327Y-145221188D01*
X130305378Y-145135217D01*
X130252341Y-145035251D01*
X130215089Y-144935096D01*
X130204848Y-144889290D01*
X130204843Y-144804624D01*
X130236376Y-144748178D01*
X130299388Y-144720024D01*
X130342322Y-144716579D01*
X130435553Y-144736499D01*
X130525408Y-144790898D01*
X130605595Y-144872022D01*
X130669820Y-144972116D01*
X130711789Y-145083427D01*
X130725333Y-145188452D01*
X130949923Y-145188452D01*
X130944626Y-145175714D01*
X130898346Y-145061660D01*
X130856796Y-144956251D01*
X130822827Y-144866361D01*
X130799293Y-144798869D01*
X130789048Y-144760651D01*
X130788833Y-144757685D01*
X130807266Y-144743758D01*
X130851825Y-144737676D01*
X130853885Y-144737666D01*
X130899619Y-144732162D01*
X130913031Y-144711807D01*
X130911859Y-144700625D01*
X130901972Y-144681854D01*
X130875480Y-144669764D01*
X130824091Y-144662397D01*
X130739513Y-144657799D01*
X130728684Y-144657408D01*
X130642908Y-144654873D01*
X130591699Y-144655964D01*
X130567325Y-144662608D01*
X130562052Y-144676730D01*
X130567310Y-144697624D01*
X130582034Y-144744015D01*
X130521198Y-144700696D01*
X130436903Y-144656237D01*
X130337847Y-144626556D01*
X130243221Y-144616554D01*
X130205527Y-144620082D01*
G37*
X130205527Y-144620082D02*
X130109917Y-144653544D01*
X130045020Y-144708860D01*
X130008604Y-144781302D01*
X129998440Y-144866138D01*
X130012294Y-144958640D01*
X130047936Y-145054075D01*
X130103135Y-145147715D01*
X130175659Y-145234829D01*
X130263278Y-145310687D01*
X130363759Y-145370558D01*
X130474872Y-145409713D01*
X130584444Y-145423371D01*
X130657926Y-145422039D01*
X130704156Y-145412115D01*
X130738037Y-145388848D01*
X130757050Y-145368364D01*
X130805961Y-145311501D01*
X130860897Y-145459711D01*
X130894080Y-145552496D01*
X130910749Y-145612926D01*
X130910297Y-145647880D01*
X130892115Y-145664234D01*
X130855597Y-145668866D01*
X130842414Y-145669000D01*
X130793379Y-145673231D01*
X130778499Y-145688540D01*
X130781179Y-145700750D01*
X130793822Y-145714445D01*
X130823739Y-145723701D01*
X130877523Y-145729280D01*
X130961768Y-145731948D01*
X131055017Y-145732500D01*
X131165026Y-145731852D01*
X131238888Y-145729387D01*
X131282776Y-145724318D01*
X131302863Y-145715860D01*
X131305323Y-145703227D01*
X131304488Y-145700750D01*
X131276075Y-145675763D01*
X131243383Y-145669000D01*
X131189442Y-145663655D01*
X131161796Y-145656464D01*
X131147072Y-145634957D01*
X131119955Y-145580833D01*
X131083298Y-145500971D01*
X131039955Y-145402246D01*
X130992780Y-145291534D01*
X130949923Y-145188452D01*
X130725333Y-145188452D01*
X130708588Y-145261085D01*
X130663391Y-145309153D01*
X130597298Y-145330350D01*
X130517864Y-145322373D01*
X130432647Y-145282915D01*
X130427316Y-145279362D01*
X130366327Y-145221188D01*
X130305378Y-145135217D01*
X130252341Y-145035251D01*
X130215089Y-144935096D01*
X130204848Y-144889290D01*
X130204843Y-144804624D01*
X130236376Y-144748178D01*
X130299388Y-144720024D01*
X130342322Y-144716579D01*
X130435553Y-144736499D01*
X130525408Y-144790898D01*
X130605595Y-144872022D01*
X130669820Y-144972116D01*
X130711789Y-145083427D01*
X130725333Y-145188452D01*
X130949923Y-145188452D01*
X130944626Y-145175714D01*
X130898346Y-145061660D01*
X130856796Y-144956251D01*
X130822827Y-144866361D01*
X130799293Y-144798869D01*
X130789048Y-144760651D01*
X130788833Y-144757685D01*
X130807266Y-144743758D01*
X130851825Y-144737676D01*
X130853885Y-144737666D01*
X130899619Y-144732162D01*
X130913031Y-144711807D01*
X130911859Y-144700625D01*
X130901972Y-144681854D01*
X130875480Y-144669764D01*
X130824091Y-144662397D01*
X130739513Y-144657799D01*
X130728684Y-144657408D01*
X130642908Y-144654873D01*
X130591699Y-144655964D01*
X130567325Y-144662608D01*
X130562052Y-144676730D01*
X130567310Y-144697624D01*
X130582034Y-144744015D01*
X130521198Y-144700696D01*
X130436903Y-144656237D01*
X130337847Y-144626556D01*
X130243221Y-144616554D01*
X130205527Y-144620082D01*
D11*
%TO.C,D2*%
G36*
X153263600Y-139852400D02*
G01*
X153898600Y-139852400D01*
X153898600Y-141884400D01*
X153263600Y-141884400D01*
X153263600Y-142900400D01*
X150215600Y-142900400D01*
X150215600Y-141884400D01*
X149580600Y-141884400D01*
X149580600Y-139852400D01*
X150215600Y-139852400D01*
X150215600Y-138836400D01*
X153263600Y-138836400D01*
X153263600Y-139852400D01*
G37*
X153263600Y-139852400D02*
X153898600Y-139852400D01*
X153898600Y-141884400D01*
X153263600Y-141884400D01*
X153263600Y-142900400D01*
X150215600Y-142900400D01*
X150215600Y-141884400D01*
X149580600Y-141884400D01*
X149580600Y-139852400D01*
X150215600Y-139852400D01*
X150215600Y-138836400D01*
X153263600Y-138836400D01*
X153263600Y-139852400D01*
%TD*%
%TO.C,D3*%
G36*
G01*
X152435000Y-141508000D02*
X152435000Y-140178000D01*
G75*
G02*
X152645000Y-139968000I210000J0D01*
G01*
X153275000Y-139968000D01*
G75*
G02*
X153485000Y-140178000I0J-210000D01*
G01*
X153485000Y-141508000D01*
G75*
G02*
X153275000Y-141718000I-210000J0D01*
G01*
X152645000Y-141718000D01*
G75*
G02*
X152435000Y-141508000I0J210000D01*
G01*
G37*
G36*
G01*
X149335000Y-141508000D02*
X149335000Y-140178000D01*
G75*
G02*
X149545000Y-139968000I210000J0D01*
G01*
X150175000Y-139968000D01*
G75*
G02*
X150385000Y-140178000I0J-210000D01*
G01*
X150385000Y-141508000D01*
G75*
G02*
X150175000Y-141718000I-210000J0D01*
G01*
X149545000Y-141718000D01*
G75*
G02*
X149335000Y-141508000I0J210000D01*
G01*
G37*
%TD*%
%TO.C,R1*%
G36*
G01*
X147798262Y-143110000D02*
X146841738Y-143110000D01*
G75*
G02*
X146570000Y-142838262I0J271738D01*
G01*
X146570000Y-142131738D01*
G75*
G02*
X146841738Y-141860000I271738J0D01*
G01*
X147798262Y-141860000D01*
G75*
G02*
X148070000Y-142131738I0J-271738D01*
G01*
X148070000Y-142838262D01*
G75*
G02*
X147798262Y-143110000I-271738J0D01*
G01*
G37*
G36*
G01*
X147798262Y-145160000D02*
X146841738Y-145160000D01*
G75*
G02*
X146570000Y-144888262I0J271738D01*
G01*
X146570000Y-144181738D01*
G75*
G02*
X146841738Y-143910000I271738J0D01*
G01*
X147798262Y-143910000D01*
G75*
G02*
X148070000Y-144181738I0J-271738D01*
G01*
X148070000Y-144888262D01*
G75*
G02*
X147798262Y-145160000I-271738J0D01*
G01*
G37*
%TD*%
D12*
%TO.C,J2*%
X152400000Y-125679200D03*
X154940000Y-125679200D03*
X152400000Y-123139200D03*
X154940000Y-123139200D03*
X152400000Y-120599200D03*
X154940000Y-120599200D03*
X152400000Y-118059200D03*
X154940000Y-118059200D03*
X152400000Y-115519200D03*
X154940000Y-115519200D03*
X152400000Y-112979200D03*
X154940000Y-112979200D03*
X152400000Y-110439200D03*
X154940000Y-110439200D03*
X152400000Y-107899200D03*
X154940000Y-107899200D03*
X152400000Y-105359200D03*
X154940000Y-105359200D03*
%TD*%
%TO.C,J3*%
X127000000Y-125679200D03*
X129540000Y-125679200D03*
X127000000Y-123139200D03*
X129540000Y-123139200D03*
X127000000Y-120599200D03*
X129540000Y-120599200D03*
X127000000Y-118059200D03*
X129540000Y-118059200D03*
X127000000Y-115519200D03*
X129540000Y-115519200D03*
X127000000Y-112979200D03*
X129540000Y-112979200D03*
X127000000Y-110439200D03*
X129540000Y-110439200D03*
X127000000Y-107899200D03*
X129540000Y-107899200D03*
X127000000Y-105359200D03*
X129540000Y-105359200D03*
%TD*%
D13*
%TO.C,D2*%
X149289600Y-139268400D03*
X149289600Y-142468400D03*
X154189600Y-139268400D03*
X154189600Y-142468400D03*
%TD*%
D14*
%TO.C,J1*%
X145442400Y-139719600D03*
X136802400Y-139719600D03*
D15*
X138232400Y-140249600D03*
D16*
X136802400Y-143899600D03*
D15*
X144012400Y-140249600D03*
D16*
X145442400Y-143899600D03*
%TD*%
M02*
