M48
; DRILL file {KiCad (5.1.6-0-10_14)} date Thursday, August 20, 2020 at 06:16:26 PM
; FORMAT={-:-/ absolute / inch / decimal}
; #@! TF.CreationDate,2020-08-20T18:16:26+02:00
; #@! TF.GenerationSoftware,Kicad,Pcbnew,(5.1.6-0-10_14)
; #@! TF.FileFunction,Plated,1,2,PTH
FMAT,2
INCH
T1C0.0157
T2C0.0236
T3C0.0394
%
G90
G05
T1
X5.005Y-5.17
X5.0513Y-4.4281
X5.09Y-5.345
X5.17Y-5.425
X5.175Y-5.255
X5.2074Y-5.3463
X5.215Y-5.385
X5.245Y-5.27
X5.2482Y-5.1882
X5.27Y-4.62
X5.27Y-4.925
X5.275Y-4.7493
X5.2821Y-4.4268
X5.2935Y-4.3594
X5.3Y-4.55
X5.33Y-5.38
X5.34Y-4.215
X5.35Y-4.84
X5.355Y-4.78
X5.36Y-4.695
X5.37Y-5.38
X5.375Y-5.265
X5.385Y-5.215
X5.388Y-5.3093
X5.3948Y-4.5404
X5.4079Y-5.17
X5.42Y-4.505
X5.42Y-4.6907
X5.42Y-4.835
X5.455Y-4.775
X5.465Y-4.84
X5.47Y-4.9
X5.49Y-5.51
X5.51Y-5.075
X5.545Y-5.515
X5.56Y-4.72
X5.595Y-5.005
X5.5963Y-5.5158
X5.6Y-5.35
X5.615Y-4.525
X5.625Y-4.61
X5.665Y-4.68
X5.665Y-4.775
X5.665Y-4.89
X5.68Y-4.465
X5.6847Y-4.5577
X5.686Y-4.5213
X5.7043Y-4.6357
X5.73Y-4.755
X5.73Y-5.385
X5.74Y-4.28
X5.7462Y-4.5911
X5.785Y-5.275
X5.795Y-4.745
X5.805Y-5.315
X5.834Y-4.524
X5.835Y-4.575
X5.835Y-4.62
X5.835Y-4.875
X5.84Y-4.975
X5.84Y-5.075
T3
X5.0Y-4.2
X5.0Y-4.3
X5.0Y-4.4
X5.0Y-4.5
X5.0Y-4.6
X5.0Y-4.7
X5.0Y-4.8
X5.0Y-4.9
X5.0Y-5.0
X5.0Y-5.1
X5.1Y-4.2
X5.1Y-4.3
X5.1Y-4.4
X5.1Y-4.5
X5.1Y-4.6
X5.1Y-4.7
X5.1Y-4.8
X5.1Y-4.9
X5.1Y-5.0
X5.1Y-5.1
X6.0Y-4.2
X6.0Y-4.3
X6.0Y-4.4
X6.0Y-4.5
X6.0Y-4.6
X6.0Y-4.7
X6.0Y-4.8
X6.0Y-4.9
X6.0Y-5.0
X6.0Y-5.1
X6.1Y-4.2
X6.1Y-4.3
X6.1Y-4.4
X6.1Y-4.5
X6.1Y-4.6
X6.1Y-4.7
X6.1Y-4.8
X6.1Y-4.9
X6.1Y-5.0
X6.1Y-5.1
T2
G00X5.3849Y-5.4651
M15
G01X5.3849Y-5.5084
M16
G05
G00X5.3849Y-5.6395
M15
G01X5.3849Y-5.6631
M16
G05
G00X5.7251Y-5.4651
M15
G01X5.7251Y-5.5084
M16
G05
G00X5.7251Y-5.6395
M15
G01X5.7251Y-5.6631
M16
G05
T0
M30
