%TF.GenerationSoftware,KiCad,Pcbnew,(5.1.6-0-10_14)*%
%TF.CreationDate,2020-08-21T01:25:04+02:00*%
%TF.ProjectId,USBCWrover,55534243-5772-46f7-9665-722e6b696361,rev?*%
%TF.SameCoordinates,Original*%
%TF.FileFunction,Profile,NP*%
%FSLAX46Y46*%
G04 Gerber Fmt 4.6, Leading zero omitted, Abs format (unit mm)*
G04 Created by KiCad (PCBNEW (5.1.6-0-10_14)) date 2020-08-21 01:25:04*
%MOMM*%
%LPD*%
G01*
G04 APERTURE LIST*
%TA.AperFunction,Profile*%
%ADD10C,0.100000*%
%TD*%
G04 APERTURE END LIST*
D10*
X156702881Y-143349108D02*
X156697667Y-143489449D01*
X156697667Y-143489449D02*
X156682169Y-143628186D01*
X156682169Y-143628186D02*
X156656605Y-143764794D01*
X156656605Y-143764794D02*
X156621190Y-143898751D01*
X156621190Y-143898751D02*
X156576141Y-144029535D01*
X156576141Y-144029535D02*
X156521676Y-144156622D01*
X156521676Y-144156622D02*
X156458009Y-144279489D01*
X156458009Y-144279489D02*
X156385358Y-144397615D01*
X156385358Y-144397615D02*
X156303940Y-144510475D01*
X156303940Y-144510475D02*
X156213971Y-144617547D01*
X156213971Y-144617547D02*
X156149348Y-144685456D01*
X127128771Y-145238989D02*
X126988429Y-145233775D01*
X126988429Y-145233775D02*
X126849692Y-145218277D01*
X126849692Y-145218277D02*
X126713084Y-145192713D01*
X126713084Y-145192713D02*
X126579127Y-145157298D01*
X126579127Y-145157298D02*
X126448343Y-145112249D01*
X126448343Y-145112249D02*
X126321256Y-145057784D01*
X126321256Y-145057784D02*
X126198389Y-144994117D01*
X126198389Y-144994117D02*
X126080263Y-144921466D01*
X126080263Y-144921466D02*
X125967403Y-144840048D01*
X125967403Y-144840048D02*
X125860331Y-144750079D01*
X125860331Y-144750079D02*
X125792423Y-144685456D01*
X156702881Y-106664881D02*
X156702881Y-143349108D01*
X156149348Y-105328533D02*
X156244897Y-105431456D01*
X156244897Y-105431456D02*
X156332040Y-105540516D01*
X156332040Y-105540516D02*
X156410560Y-105655189D01*
X156410560Y-105655189D02*
X156480240Y-105774953D01*
X156480240Y-105774953D02*
X156540864Y-105899286D01*
X156540864Y-105899286D02*
X156592215Y-106027663D01*
X156592215Y-106027663D02*
X156634076Y-106159562D01*
X156634076Y-106159562D02*
X156666231Y-106294461D01*
X156666231Y-106294461D02*
X156688464Y-106431837D01*
X156688464Y-106431837D02*
X156700558Y-106571167D01*
X156700558Y-106571167D02*
X156702881Y-106664881D01*
X127128771Y-104775000D02*
X154813000Y-104775000D01*
X127128771Y-104775000D02*
X127128771Y-104775000D01*
X125238890Y-143349108D02*
X125238890Y-106664881D01*
X125792423Y-105328533D02*
X125895346Y-105232983D01*
X125895346Y-105232983D02*
X126004406Y-105145840D01*
X126004406Y-105145840D02*
X126119079Y-105067320D01*
X126119079Y-105067320D02*
X126238843Y-104997640D01*
X126238843Y-104997640D02*
X126363176Y-104937016D01*
X126363176Y-104937016D02*
X126491553Y-104885665D01*
X126491553Y-104885665D02*
X126623452Y-104843804D01*
X126623452Y-104843804D02*
X126758351Y-104811649D01*
X126758351Y-104811649D02*
X126895727Y-104789416D01*
X126895727Y-104789416D02*
X127035057Y-104777322D01*
X127035057Y-104777322D02*
X127128771Y-104775000D01*
X125238890Y-106664881D02*
X125244103Y-106524539D01*
X125244103Y-106524539D02*
X125259601Y-106385802D01*
X125259601Y-106385802D02*
X125285165Y-106249194D01*
X125285165Y-106249194D02*
X125320580Y-106115237D01*
X125320580Y-106115237D02*
X125365629Y-105984453D01*
X125365629Y-105984453D02*
X125420094Y-105857366D01*
X125420094Y-105857366D02*
X125483761Y-105734499D01*
X125483761Y-105734499D02*
X125556412Y-105616373D01*
X125556412Y-105616373D02*
X125637830Y-105503513D01*
X125637830Y-105503513D02*
X125727799Y-105396441D01*
X125727799Y-105396441D02*
X125792423Y-105328533D01*
X154813000Y-145238989D02*
X127128771Y-145238989D01*
X125792423Y-144685456D02*
X125696873Y-144582532D01*
X125696873Y-144582532D02*
X125609730Y-144473472D01*
X125609730Y-144473472D02*
X125531210Y-144358799D01*
X125531210Y-144358799D02*
X125461530Y-144239035D01*
X125461530Y-144239035D02*
X125400906Y-144114702D01*
X125400906Y-144114702D02*
X125349555Y-143986325D01*
X125349555Y-143986325D02*
X125307694Y-143854426D01*
X125307694Y-143854426D02*
X125275539Y-143719527D01*
X125275539Y-143719527D02*
X125253306Y-143582151D01*
X125253306Y-143582151D02*
X125241212Y-143442821D01*
X125241212Y-143442821D02*
X125238890Y-143349108D01*
X156149348Y-144685456D02*
X156046424Y-144781005D01*
X156046424Y-144781005D02*
X155937364Y-144868148D01*
X155937364Y-144868148D02*
X155822691Y-144946668D01*
X155822691Y-144946668D02*
X155702927Y-145016348D01*
X155702927Y-145016348D02*
X155578594Y-145076972D01*
X155578594Y-145076972D02*
X155450217Y-145128323D01*
X155450217Y-145128323D02*
X155318318Y-145170184D01*
X155318318Y-145170184D02*
X155183419Y-145202339D01*
X155183419Y-145202339D02*
X155046043Y-145224572D01*
X155046043Y-145224572D02*
X154906713Y-145236666D01*
X154906713Y-145236666D02*
X154813000Y-145238989D01*
X154813000Y-104775000D02*
X154953341Y-104780213D01*
X154953341Y-104780213D02*
X155092078Y-104795711D01*
X155092078Y-104795711D02*
X155228686Y-104821275D01*
X155228686Y-104821275D02*
X155362643Y-104856690D01*
X155362643Y-104856690D02*
X155493427Y-104901739D01*
X155493427Y-104901739D02*
X155620514Y-104956204D01*
X155620514Y-104956204D02*
X155743381Y-105019871D01*
X155743381Y-105019871D02*
X155861507Y-105092522D01*
X155861507Y-105092522D02*
X155974367Y-105173940D01*
X155974367Y-105173940D02*
X156081439Y-105263909D01*
X156081439Y-105263909D02*
X156149348Y-105328533D01*
M02*
