%TF.GenerationSoftware,KiCad,Pcbnew,(5.1.6-0-10_14)*%
%TF.CreationDate,2020-08-20T18:16:30+02:00*%
%TF.ProjectId,USBCWrover,55534243-5772-46f7-9665-722e6b696361,rev?*%
%TF.SameCoordinates,Original*%
%TF.FileFunction,Copper,L1,Top*%
%TF.FilePolarity,Positive*%
%FSLAX46Y46*%
G04 Gerber Fmt 4.6, Leading zero omitted, Abs format (unit mm)*
G04 Created by KiCad (PCBNEW (5.1.6-0-10_14)) date 2020-08-20 18:16:30*
%MOMM*%
%LPD*%
G01*
G04 APERTURE LIST*
%TA.AperFunction,SMDPad,CuDef*%
%ADD10R,1.550000X1.300000*%
%TD*%
%TA.AperFunction,SMDPad,CuDef*%
%ADD11R,0.600000X1.450000*%
%TD*%
%TA.AperFunction,SMDPad,CuDef*%
%ADD12R,0.300000X1.450000*%
%TD*%
%TA.AperFunction,ComponentPad*%
%ADD13O,1.000000X2.100000*%
%TD*%
%TA.AperFunction,ComponentPad*%
%ADD14O,1.000000X1.600000*%
%TD*%
%TA.AperFunction,ComponentPad*%
%ADD15O,1.700000X1.700000*%
%TD*%
%TA.AperFunction,ComponentPad*%
%ADD16C,1.700000*%
%TD*%
%TA.AperFunction,SMDPad,CuDef*%
%ADD17R,1.060000X0.650000*%
%TD*%
%TA.AperFunction,SMDPad,CuDef*%
%ADD18R,0.700000X0.510000*%
%TD*%
%TA.AperFunction,SMDPad,CuDef*%
%ADD19R,2.600000X2.600000*%
%TD*%
%TA.AperFunction,ViaPad*%
%ADD20C,0.800000*%
%TD*%
%TA.AperFunction,Conductor*%
%ADD21C,0.250000*%
%TD*%
%TA.AperFunction,Conductor*%
%ADD22C,0.254000*%
%TD*%
G04 APERTURE END LIST*
D10*
%TO.P,SW1,2*%
%TO.N,GND*%
X134531000Y-143093000D03*
%TO.P,SW1,1*%
%TO.N,ESP_RST*%
X134531000Y-138593000D03*
X126581000Y-138593000D03*
%TO.P,SW1,2*%
%TO.N,GND*%
X126581000Y-143093000D03*
%TD*%
D11*
%TO.P,J1,B1*%
%TO.N,GND*%
X144347000Y-138449000D03*
%TO.P,J1,A9*%
%TO.N,+5V*%
X143547000Y-138449000D03*
%TO.P,J1,B9*%
X138647000Y-138449000D03*
%TO.P,J1,B12*%
%TO.N,GND*%
X137847000Y-138449000D03*
%TO.P,J1,A1*%
X137847000Y-138449000D03*
%TO.P,J1,A4*%
%TO.N,+5V*%
X138647000Y-138449000D03*
%TO.P,J1,B4*%
X143547000Y-138449000D03*
%TO.P,J1,A12*%
%TO.N,GND*%
X144347000Y-138449000D03*
D12*
%TO.P,J1,B8*%
%TO.N,Net-(J1-PadB8)*%
X139347000Y-138449000D03*
%TO.P,J1,A5*%
%TO.N,Net-(J1-PadA5)*%
X139847000Y-138449000D03*
%TO.P,J1,B7*%
%TO.N,USB_D-*%
X140347000Y-138449000D03*
%TO.P,J1,A7*%
X141347000Y-138449000D03*
%TO.P,J1,B6*%
%TO.N,USB_D+*%
X141847000Y-138449000D03*
%TO.P,J1,A8*%
%TO.N,Net-(J1-PadA8)*%
X142347000Y-138449000D03*
%TO.P,J1,B5*%
%TO.N,Net-(J1-PadB5)*%
X142847000Y-138449000D03*
%TO.P,J1,A6*%
%TO.N,USB_D+*%
X140847000Y-138449000D03*
D13*
%TO.P,J1,S1*%
%TO.N,GND*%
X145417000Y-139364000D03*
X136777000Y-139364000D03*
D14*
X136777000Y-143544000D03*
X145417000Y-143544000D03*
%TD*%
%TO.P,U4,1*%
%TO.N,GND*%
%TA.AperFunction,SMDPad,CuDef*%
G36*
G01*
X130982400Y-106244600D02*
X130982400Y-105794600D01*
G75*
G02*
X131207400Y-105569600I225000J0D01*
G01*
X132757400Y-105569600D01*
G75*
G02*
X132982400Y-105794600I0J-225000D01*
G01*
X132982400Y-106244600D01*
G75*
G02*
X132757400Y-106469600I-225000J0D01*
G01*
X131207400Y-106469600D01*
G75*
G02*
X130982400Y-106244600I0J225000D01*
G01*
G37*
%TD.AperFunction*%
%TO.P,U4,2*%
%TO.N,+3V3*%
%TA.AperFunction,SMDPad,CuDef*%
G36*
G01*
X130982400Y-107514600D02*
X130982400Y-107064600D01*
G75*
G02*
X131207400Y-106839600I225000J0D01*
G01*
X132757400Y-106839600D01*
G75*
G02*
X132982400Y-107064600I0J-225000D01*
G01*
X132982400Y-107514600D01*
G75*
G02*
X132757400Y-107739600I-225000J0D01*
G01*
X131207400Y-107739600D01*
G75*
G02*
X130982400Y-107514600I0J225000D01*
G01*
G37*
%TD.AperFunction*%
%TO.P,U4,3*%
%TO.N,ESP_RST*%
%TA.AperFunction,SMDPad,CuDef*%
G36*
G01*
X130982400Y-108784600D02*
X130982400Y-108334600D01*
G75*
G02*
X131207400Y-108109600I225000J0D01*
G01*
X132757400Y-108109600D01*
G75*
G02*
X132982400Y-108334600I0J-225000D01*
G01*
X132982400Y-108784600D01*
G75*
G02*
X132757400Y-109009600I-225000J0D01*
G01*
X131207400Y-109009600D01*
G75*
G02*
X130982400Y-108784600I0J225000D01*
G01*
G37*
%TD.AperFunction*%
%TO.P,U4,4*%
%TO.N,Sensor_VP*%
%TA.AperFunction,SMDPad,CuDef*%
G36*
G01*
X130982400Y-110054600D02*
X130982400Y-109604600D01*
G75*
G02*
X131207400Y-109379600I225000J0D01*
G01*
X132757400Y-109379600D01*
G75*
G02*
X132982400Y-109604600I0J-225000D01*
G01*
X132982400Y-110054600D01*
G75*
G02*
X132757400Y-110279600I-225000J0D01*
G01*
X131207400Y-110279600D01*
G75*
G02*
X130982400Y-110054600I0J225000D01*
G01*
G37*
%TD.AperFunction*%
%TO.P,U4,5*%
%TO.N,SENSOR_VN*%
%TA.AperFunction,SMDPad,CuDef*%
G36*
G01*
X130982400Y-111324600D02*
X130982400Y-110874600D01*
G75*
G02*
X131207400Y-110649600I225000J0D01*
G01*
X132757400Y-110649600D01*
G75*
G02*
X132982400Y-110874600I0J-225000D01*
G01*
X132982400Y-111324600D01*
G75*
G02*
X132757400Y-111549600I-225000J0D01*
G01*
X131207400Y-111549600D01*
G75*
G02*
X130982400Y-111324600I0J225000D01*
G01*
G37*
%TD.AperFunction*%
%TO.P,U4,6*%
%TO.N,IO34*%
%TA.AperFunction,SMDPad,CuDef*%
G36*
G01*
X130982400Y-112594600D02*
X130982400Y-112144600D01*
G75*
G02*
X131207400Y-111919600I225000J0D01*
G01*
X132757400Y-111919600D01*
G75*
G02*
X132982400Y-112144600I0J-225000D01*
G01*
X132982400Y-112594600D01*
G75*
G02*
X132757400Y-112819600I-225000J0D01*
G01*
X131207400Y-112819600D01*
G75*
G02*
X130982400Y-112594600I0J225000D01*
G01*
G37*
%TD.AperFunction*%
%TO.P,U4,7*%
%TO.N,IO35*%
%TA.AperFunction,SMDPad,CuDef*%
G36*
G01*
X130982400Y-113864600D02*
X130982400Y-113414600D01*
G75*
G02*
X131207400Y-113189600I225000J0D01*
G01*
X132757400Y-113189600D01*
G75*
G02*
X132982400Y-113414600I0J-225000D01*
G01*
X132982400Y-113864600D01*
G75*
G02*
X132757400Y-114089600I-225000J0D01*
G01*
X131207400Y-114089600D01*
G75*
G02*
X130982400Y-113864600I0J225000D01*
G01*
G37*
%TD.AperFunction*%
%TO.P,U4,8*%
%TO.N,IO32*%
%TA.AperFunction,SMDPad,CuDef*%
G36*
G01*
X130982400Y-115134600D02*
X130982400Y-114684600D01*
G75*
G02*
X131207400Y-114459600I225000J0D01*
G01*
X132757400Y-114459600D01*
G75*
G02*
X132982400Y-114684600I0J-225000D01*
G01*
X132982400Y-115134600D01*
G75*
G02*
X132757400Y-115359600I-225000J0D01*
G01*
X131207400Y-115359600D01*
G75*
G02*
X130982400Y-115134600I0J225000D01*
G01*
G37*
%TD.AperFunction*%
%TO.P,U4,9*%
%TO.N,IO33*%
%TA.AperFunction,SMDPad,CuDef*%
G36*
G01*
X130982400Y-116404600D02*
X130982400Y-115954600D01*
G75*
G02*
X131207400Y-115729600I225000J0D01*
G01*
X132757400Y-115729600D01*
G75*
G02*
X132982400Y-115954600I0J-225000D01*
G01*
X132982400Y-116404600D01*
G75*
G02*
X132757400Y-116629600I-225000J0D01*
G01*
X131207400Y-116629600D01*
G75*
G02*
X130982400Y-116404600I0J225000D01*
G01*
G37*
%TD.AperFunction*%
%TO.P,U4,10*%
%TO.N,IO25*%
%TA.AperFunction,SMDPad,CuDef*%
G36*
G01*
X130982400Y-117674600D02*
X130982400Y-117224600D01*
G75*
G02*
X131207400Y-116999600I225000J0D01*
G01*
X132757400Y-116999600D01*
G75*
G02*
X132982400Y-117224600I0J-225000D01*
G01*
X132982400Y-117674600D01*
G75*
G02*
X132757400Y-117899600I-225000J0D01*
G01*
X131207400Y-117899600D01*
G75*
G02*
X130982400Y-117674600I0J225000D01*
G01*
G37*
%TD.AperFunction*%
%TO.P,U4,11*%
%TO.N,IO26*%
%TA.AperFunction,SMDPad,CuDef*%
G36*
G01*
X130982400Y-118944600D02*
X130982400Y-118494600D01*
G75*
G02*
X131207400Y-118269600I225000J0D01*
G01*
X132757400Y-118269600D01*
G75*
G02*
X132982400Y-118494600I0J-225000D01*
G01*
X132982400Y-118944600D01*
G75*
G02*
X132757400Y-119169600I-225000J0D01*
G01*
X131207400Y-119169600D01*
G75*
G02*
X130982400Y-118944600I0J225000D01*
G01*
G37*
%TD.AperFunction*%
%TO.P,U4,12*%
%TO.N,IO27*%
%TA.AperFunction,SMDPad,CuDef*%
G36*
G01*
X130982400Y-120214600D02*
X130982400Y-119764600D01*
G75*
G02*
X131207400Y-119539600I225000J0D01*
G01*
X132757400Y-119539600D01*
G75*
G02*
X132982400Y-119764600I0J-225000D01*
G01*
X132982400Y-120214600D01*
G75*
G02*
X132757400Y-120439600I-225000J0D01*
G01*
X131207400Y-120439600D01*
G75*
G02*
X130982400Y-120214600I0J225000D01*
G01*
G37*
%TD.AperFunction*%
%TO.P,U4,13*%
%TO.N,IO14*%
%TA.AperFunction,SMDPad,CuDef*%
G36*
G01*
X130982400Y-121484600D02*
X130982400Y-121034600D01*
G75*
G02*
X131207400Y-120809600I225000J0D01*
G01*
X132757400Y-120809600D01*
G75*
G02*
X132982400Y-121034600I0J-225000D01*
G01*
X132982400Y-121484600D01*
G75*
G02*
X132757400Y-121709600I-225000J0D01*
G01*
X131207400Y-121709600D01*
G75*
G02*
X130982400Y-121484600I0J225000D01*
G01*
G37*
%TD.AperFunction*%
%TO.P,U4,14*%
%TO.N,IO12*%
%TA.AperFunction,SMDPad,CuDef*%
G36*
G01*
X130982400Y-122754600D02*
X130982400Y-122304600D01*
G75*
G02*
X131207400Y-122079600I225000J0D01*
G01*
X132757400Y-122079600D01*
G75*
G02*
X132982400Y-122304600I0J-225000D01*
G01*
X132982400Y-122754600D01*
G75*
G02*
X132757400Y-122979600I-225000J0D01*
G01*
X131207400Y-122979600D01*
G75*
G02*
X130982400Y-122754600I0J225000D01*
G01*
G37*
%TD.AperFunction*%
%TO.P,U4,15*%
%TO.N,GND*%
%TA.AperFunction,SMDPad,CuDef*%
G36*
G01*
X130982400Y-124054600D02*
X130982400Y-123604600D01*
G75*
G02*
X131207400Y-123379600I225000J0D01*
G01*
X132757400Y-123379600D01*
G75*
G02*
X132982400Y-123604600I0J-225000D01*
G01*
X132982400Y-124054600D01*
G75*
G02*
X132757400Y-124279600I-225000J0D01*
G01*
X131207400Y-124279600D01*
G75*
G02*
X130982400Y-124054600I0J225000D01*
G01*
G37*
%TD.AperFunction*%
%TO.P,U4,16*%
%TO.N,IO13*%
%TA.AperFunction,SMDPad,CuDef*%
G36*
G01*
X130982400Y-125324600D02*
X130982400Y-124874600D01*
G75*
G02*
X131207400Y-124649600I225000J0D01*
G01*
X132757400Y-124649600D01*
G75*
G02*
X132982400Y-124874600I0J-225000D01*
G01*
X132982400Y-125324600D01*
G75*
G02*
X132757400Y-125549600I-225000J0D01*
G01*
X131207400Y-125549600D01*
G75*
G02*
X130982400Y-125324600I0J225000D01*
G01*
G37*
%TD.AperFunction*%
%TO.P,U4,17*%
%TO.N,SD2_IO9*%
%TA.AperFunction,SMDPad,CuDef*%
G36*
G01*
X130982400Y-126594600D02*
X130982400Y-126144600D01*
G75*
G02*
X131207400Y-125919600I225000J0D01*
G01*
X132757400Y-125919600D01*
G75*
G02*
X132982400Y-126144600I0J-225000D01*
G01*
X132982400Y-126594600D01*
G75*
G02*
X132757400Y-126819600I-225000J0D01*
G01*
X131207400Y-126819600D01*
G75*
G02*
X130982400Y-126594600I0J225000D01*
G01*
G37*
%TD.AperFunction*%
%TO.P,U4,18*%
%TO.N,SD3_IO10*%
%TA.AperFunction,SMDPad,CuDef*%
G36*
G01*
X130982400Y-127864600D02*
X130982400Y-127414600D01*
G75*
G02*
X131207400Y-127189600I225000J0D01*
G01*
X132757400Y-127189600D01*
G75*
G02*
X132982400Y-127414600I0J-225000D01*
G01*
X132982400Y-127864600D01*
G75*
G02*
X132757400Y-128089600I-225000J0D01*
G01*
X131207400Y-128089600D01*
G75*
G02*
X130982400Y-127864600I0J225000D01*
G01*
G37*
%TD.AperFunction*%
%TO.P,U4,19*%
%TO.N,CMD_IO11*%
%TA.AperFunction,SMDPad,CuDef*%
G36*
G01*
X130982400Y-129134600D02*
X130982400Y-128684600D01*
G75*
G02*
X131207400Y-128459600I225000J0D01*
G01*
X132757400Y-128459600D01*
G75*
G02*
X132982400Y-128684600I0J-225000D01*
G01*
X132982400Y-129134600D01*
G75*
G02*
X132757400Y-129359600I-225000J0D01*
G01*
X131207400Y-129359600D01*
G75*
G02*
X130982400Y-129134600I0J225000D01*
G01*
G37*
%TD.AperFunction*%
%TO.P,U4,20*%
%TO.N,CLK_IO6*%
%TA.AperFunction,SMDPad,CuDef*%
G36*
G01*
X148982400Y-129134600D02*
X148982400Y-128684600D01*
G75*
G02*
X149207400Y-128459600I225000J0D01*
G01*
X150757400Y-128459600D01*
G75*
G02*
X150982400Y-128684600I0J-225000D01*
G01*
X150982400Y-129134600D01*
G75*
G02*
X150757400Y-129359600I-225000J0D01*
G01*
X149207400Y-129359600D01*
G75*
G02*
X148982400Y-129134600I0J225000D01*
G01*
G37*
%TD.AperFunction*%
%TO.P,U4,21*%
%TO.N,SD0_IO7*%
%TA.AperFunction,SMDPad,CuDef*%
G36*
G01*
X148982400Y-127864600D02*
X148982400Y-127414600D01*
G75*
G02*
X149207400Y-127189600I225000J0D01*
G01*
X150757400Y-127189600D01*
G75*
G02*
X150982400Y-127414600I0J-225000D01*
G01*
X150982400Y-127864600D01*
G75*
G02*
X150757400Y-128089600I-225000J0D01*
G01*
X149207400Y-128089600D01*
G75*
G02*
X148982400Y-127864600I0J225000D01*
G01*
G37*
%TD.AperFunction*%
%TO.P,U4,22*%
%TO.N,SD1_IO8*%
%TA.AperFunction,SMDPad,CuDef*%
G36*
G01*
X148982400Y-126594600D02*
X148982400Y-126144600D01*
G75*
G02*
X149207400Y-125919600I225000J0D01*
G01*
X150757400Y-125919600D01*
G75*
G02*
X150982400Y-126144600I0J-225000D01*
G01*
X150982400Y-126594600D01*
G75*
G02*
X150757400Y-126819600I-225000J0D01*
G01*
X149207400Y-126819600D01*
G75*
G02*
X148982400Y-126594600I0J225000D01*
G01*
G37*
%TD.AperFunction*%
%TO.P,U4,23*%
%TO.N,IO15*%
%TA.AperFunction,SMDPad,CuDef*%
G36*
G01*
X148982400Y-125324600D02*
X148982400Y-124874600D01*
G75*
G02*
X149207400Y-124649600I225000J0D01*
G01*
X150757400Y-124649600D01*
G75*
G02*
X150982400Y-124874600I0J-225000D01*
G01*
X150982400Y-125324600D01*
G75*
G02*
X150757400Y-125549600I-225000J0D01*
G01*
X149207400Y-125549600D01*
G75*
G02*
X148982400Y-125324600I0J225000D01*
G01*
G37*
%TD.AperFunction*%
%TO.P,U4,24*%
%TO.N,IO2*%
%TA.AperFunction,SMDPad,CuDef*%
G36*
G01*
X148982400Y-124054600D02*
X148982400Y-123604600D01*
G75*
G02*
X149207400Y-123379600I225000J0D01*
G01*
X150757400Y-123379600D01*
G75*
G02*
X150982400Y-123604600I0J-225000D01*
G01*
X150982400Y-124054600D01*
G75*
G02*
X150757400Y-124279600I-225000J0D01*
G01*
X149207400Y-124279600D01*
G75*
G02*
X148982400Y-124054600I0J225000D01*
G01*
G37*
%TD.AperFunction*%
%TO.P,U4,25*%
%TO.N,ESP_FLS*%
%TA.AperFunction,SMDPad,CuDef*%
G36*
G01*
X149012400Y-122754600D02*
X149012400Y-122304600D01*
G75*
G02*
X149237400Y-122079600I225000J0D01*
G01*
X150787400Y-122079600D01*
G75*
G02*
X151012400Y-122304600I0J-225000D01*
G01*
X151012400Y-122754600D01*
G75*
G02*
X150787400Y-122979600I-225000J0D01*
G01*
X149237400Y-122979600D01*
G75*
G02*
X149012400Y-122754600I0J225000D01*
G01*
G37*
%TD.AperFunction*%
%TO.P,U4,26*%
%TO.N,IO4*%
%TA.AperFunction,SMDPad,CuDef*%
G36*
G01*
X149012400Y-121484600D02*
X149012400Y-121034600D01*
G75*
G02*
X149237400Y-120809600I225000J0D01*
G01*
X150787400Y-120809600D01*
G75*
G02*
X151012400Y-121034600I0J-225000D01*
G01*
X151012400Y-121484600D01*
G75*
G02*
X150787400Y-121709600I-225000J0D01*
G01*
X149237400Y-121709600D01*
G75*
G02*
X149012400Y-121484600I0J225000D01*
G01*
G37*
%TD.AperFunction*%
%TO.P,U4,27*%
%TO.N,IO16*%
%TA.AperFunction,SMDPad,CuDef*%
G36*
G01*
X149012400Y-120214600D02*
X149012400Y-119764600D01*
G75*
G02*
X149237400Y-119539600I225000J0D01*
G01*
X150787400Y-119539600D01*
G75*
G02*
X151012400Y-119764600I0J-225000D01*
G01*
X151012400Y-120214600D01*
G75*
G02*
X150787400Y-120439600I-225000J0D01*
G01*
X149237400Y-120439600D01*
G75*
G02*
X149012400Y-120214600I0J225000D01*
G01*
G37*
%TD.AperFunction*%
%TO.P,U4,28*%
%TO.N,IO17*%
%TA.AperFunction,SMDPad,CuDef*%
G36*
G01*
X149012400Y-118944600D02*
X149012400Y-118494600D01*
G75*
G02*
X149237400Y-118269600I225000J0D01*
G01*
X150787400Y-118269600D01*
G75*
G02*
X151012400Y-118494600I0J-225000D01*
G01*
X151012400Y-118944600D01*
G75*
G02*
X150787400Y-119169600I-225000J0D01*
G01*
X149237400Y-119169600D01*
G75*
G02*
X149012400Y-118944600I0J225000D01*
G01*
G37*
%TD.AperFunction*%
%TO.P,U4,29*%
%TO.N,IO5*%
%TA.AperFunction,SMDPad,CuDef*%
G36*
G01*
X149012400Y-117674600D02*
X149012400Y-117224600D01*
G75*
G02*
X149237400Y-116999600I225000J0D01*
G01*
X150787400Y-116999600D01*
G75*
G02*
X151012400Y-117224600I0J-225000D01*
G01*
X151012400Y-117674600D01*
G75*
G02*
X150787400Y-117899600I-225000J0D01*
G01*
X149237400Y-117899600D01*
G75*
G02*
X149012400Y-117674600I0J225000D01*
G01*
G37*
%TD.AperFunction*%
%TO.P,U4,30*%
%TO.N,IO18*%
%TA.AperFunction,SMDPad,CuDef*%
G36*
G01*
X149012400Y-116404600D02*
X149012400Y-115954600D01*
G75*
G02*
X149237400Y-115729600I225000J0D01*
G01*
X150787400Y-115729600D01*
G75*
G02*
X151012400Y-115954600I0J-225000D01*
G01*
X151012400Y-116404600D01*
G75*
G02*
X150787400Y-116629600I-225000J0D01*
G01*
X149237400Y-116629600D01*
G75*
G02*
X149012400Y-116404600I0J225000D01*
G01*
G37*
%TD.AperFunction*%
%TO.P,U4,31*%
%TO.N,IO19*%
%TA.AperFunction,SMDPad,CuDef*%
G36*
G01*
X149012400Y-115134600D02*
X149012400Y-114684600D01*
G75*
G02*
X149237400Y-114459600I225000J0D01*
G01*
X150787400Y-114459600D01*
G75*
G02*
X151012400Y-114684600I0J-225000D01*
G01*
X151012400Y-115134600D01*
G75*
G02*
X150787400Y-115359600I-225000J0D01*
G01*
X149237400Y-115359600D01*
G75*
G02*
X149012400Y-115134600I0J225000D01*
G01*
G37*
%TD.AperFunction*%
%TO.P,U4,32*%
%TO.N,Net-(U4-Pad32)*%
%TA.AperFunction,SMDPad,CuDef*%
G36*
G01*
X149012400Y-113864600D02*
X149012400Y-113414600D01*
G75*
G02*
X149237400Y-113189600I225000J0D01*
G01*
X150787400Y-113189600D01*
G75*
G02*
X151012400Y-113414600I0J-225000D01*
G01*
X151012400Y-113864600D01*
G75*
G02*
X150787400Y-114089600I-225000J0D01*
G01*
X149237400Y-114089600D01*
G75*
G02*
X149012400Y-113864600I0J225000D01*
G01*
G37*
%TD.AperFunction*%
%TO.P,U4,33*%
%TO.N,IO21*%
%TA.AperFunction,SMDPad,CuDef*%
G36*
G01*
X149012400Y-112594600D02*
X149012400Y-112144600D01*
G75*
G02*
X149237400Y-111919600I225000J0D01*
G01*
X150787400Y-111919600D01*
G75*
G02*
X151012400Y-112144600I0J-225000D01*
G01*
X151012400Y-112594600D01*
G75*
G02*
X150787400Y-112819600I-225000J0D01*
G01*
X149237400Y-112819600D01*
G75*
G02*
X149012400Y-112594600I0J225000D01*
G01*
G37*
%TD.AperFunction*%
%TO.P,U4,34*%
%TO.N,ESP_RXD*%
%TA.AperFunction,SMDPad,CuDef*%
G36*
G01*
X149012400Y-111324600D02*
X149012400Y-110874600D01*
G75*
G02*
X149237400Y-110649600I225000J0D01*
G01*
X150787400Y-110649600D01*
G75*
G02*
X151012400Y-110874600I0J-225000D01*
G01*
X151012400Y-111324600D01*
G75*
G02*
X150787400Y-111549600I-225000J0D01*
G01*
X149237400Y-111549600D01*
G75*
G02*
X149012400Y-111324600I0J225000D01*
G01*
G37*
%TD.AperFunction*%
%TO.P,U4,35*%
%TO.N,ESP_TXD*%
%TA.AperFunction,SMDPad,CuDef*%
G36*
G01*
X149012400Y-110054600D02*
X149012400Y-109604600D01*
G75*
G02*
X149237400Y-109379600I225000J0D01*
G01*
X150787400Y-109379600D01*
G75*
G02*
X151012400Y-109604600I0J-225000D01*
G01*
X151012400Y-110054600D01*
G75*
G02*
X150787400Y-110279600I-225000J0D01*
G01*
X149237400Y-110279600D01*
G75*
G02*
X149012400Y-110054600I0J225000D01*
G01*
G37*
%TD.AperFunction*%
%TO.P,U4,36*%
%TO.N,IO22*%
%TA.AperFunction,SMDPad,CuDef*%
G36*
G01*
X149012400Y-108784600D02*
X149012400Y-108334600D01*
G75*
G02*
X149237400Y-108109600I225000J0D01*
G01*
X150787400Y-108109600D01*
G75*
G02*
X151012400Y-108334600I0J-225000D01*
G01*
X151012400Y-108784600D01*
G75*
G02*
X150787400Y-109009600I-225000J0D01*
G01*
X149237400Y-109009600D01*
G75*
G02*
X149012400Y-108784600I0J225000D01*
G01*
G37*
%TD.AperFunction*%
%TO.P,U4,37*%
%TO.N,IO23*%
%TA.AperFunction,SMDPad,CuDef*%
G36*
G01*
X149012400Y-107514600D02*
X149012400Y-107064600D01*
G75*
G02*
X149237400Y-106839600I225000J0D01*
G01*
X150787400Y-106839600D01*
G75*
G02*
X151012400Y-107064600I0J-225000D01*
G01*
X151012400Y-107514600D01*
G75*
G02*
X150787400Y-107739600I-225000J0D01*
G01*
X149237400Y-107739600D01*
G75*
G02*
X149012400Y-107514600I0J225000D01*
G01*
G37*
%TD.AperFunction*%
%TO.P,U4,38*%
%TO.N,GND*%
%TA.AperFunction,SMDPad,CuDef*%
G36*
G01*
X149012400Y-106244600D02*
X149012400Y-105794600D01*
G75*
G02*
X149237400Y-105569600I225000J0D01*
G01*
X150787400Y-105569600D01*
G75*
G02*
X151012400Y-105794600I0J-225000D01*
G01*
X151012400Y-106244600D01*
G75*
G02*
X150787400Y-106469600I-225000J0D01*
G01*
X149237400Y-106469600D01*
G75*
G02*
X149012400Y-106244600I0J225000D01*
G01*
G37*
%TD.AperFunction*%
%TD*%
D15*
%TO.P,J2,20*%
%TO.N,SD0_IO7*%
X152400000Y-129540000D03*
%TO.P,J2,19*%
%TO.N,CLK_IO6*%
X154940000Y-129540000D03*
%TO.P,J2,18*%
%TO.N,IO15*%
X152400000Y-127000000D03*
%TO.P,J2,17*%
%TO.N,SD1_IO8*%
X154940000Y-127000000D03*
%TO.P,J2,16*%
%TO.N,+5V*%
X152400000Y-124460000D03*
%TO.P,J2,15*%
%TO.N,IO2*%
X154940000Y-124460000D03*
%TO.P,J2,14*%
%TO.N,GND*%
X152400000Y-121920000D03*
%TO.P,J2,13*%
%TO.N,ESP_FLS*%
X154940000Y-121920000D03*
%TO.P,J2,12*%
%TO.N,IO16*%
X152400000Y-119380000D03*
%TO.P,J2,11*%
%TO.N,IO4*%
X154940000Y-119380000D03*
%TO.P,J2,10*%
%TO.N,IO17*%
X152400000Y-116840000D03*
%TO.P,J2,9*%
%TO.N,IO12*%
X154940000Y-116840000D03*
%TO.P,J2,8*%
%TO.N,IO21*%
X152400000Y-114300000D03*
%TO.P,J2,7*%
%TO.N,IO32*%
X154940000Y-114300000D03*
%TO.P,J2,6*%
%TO.N,IO22*%
X152400000Y-111760000D03*
%TO.P,J2,5*%
%TO.N,IO25*%
X154940000Y-111760000D03*
%TO.P,J2,4*%
%TO.N,ESP_RXD*%
X152400000Y-109220000D03*
%TO.P,J2,3*%
%TO.N,IO27*%
X154940000Y-109220000D03*
%TO.P,J2,2*%
%TO.N,ESP_TXD*%
X152400000Y-106680000D03*
D16*
%TO.P,J2,1*%
%TO.N,GND*%
X154940000Y-106680000D03*
%TD*%
D15*
%TO.P,J3,20*%
%TO.N,CMD_IO11*%
X127000000Y-129540000D03*
%TO.P,J3,19*%
%TO.N,SD3_IO10*%
X129540000Y-129540000D03*
%TO.P,J3,18*%
%TO.N,SD2_IO9*%
X127000000Y-127000000D03*
%TO.P,J3,17*%
%TO.N,IO13*%
X129540000Y-127000000D03*
%TO.P,J3,16*%
%TO.N,Net-(J3-Pad16)*%
X127000000Y-124460000D03*
%TO.P,J3,15*%
%TO.N,+3V3*%
X129540000Y-124460000D03*
%TO.P,J3,14*%
%TO.N,IO14*%
X127000000Y-121920000D03*
%TO.P,J3,13*%
%TO.N,IO5*%
X129540000Y-121920000D03*
%TO.P,J3,12*%
%TO.N,IO34*%
X127000000Y-119380000D03*
%TO.P,J3,11*%
%TO.N,IO23*%
X129540000Y-119380000D03*
%TO.P,J3,10*%
%TO.N,IO33*%
X127000000Y-116840000D03*
%TO.P,J3,9*%
%TO.N,IO19*%
X129540000Y-116840000D03*
%TO.P,J3,8*%
%TO.N,IO35*%
X127000000Y-114300000D03*
%TO.P,J3,7*%
%TO.N,IO18*%
X129540000Y-114300000D03*
%TO.P,J3,6*%
%TO.N,SENSOR_VN*%
X127000000Y-111760000D03*
%TO.P,J3,5*%
%TO.N,IO26*%
X129540000Y-111760000D03*
%TO.P,J3,4*%
%TO.N,Net-(J3-Pad4)*%
X127000000Y-109220000D03*
%TO.P,J3,3*%
%TO.N,Sensor_VP*%
X129540000Y-109220000D03*
%TO.P,J3,2*%
%TO.N,GND*%
X127000000Y-106680000D03*
D16*
%TO.P,J3,1*%
%TO.N,ESP_RST*%
X129540000Y-106680000D03*
%TD*%
D17*
%TO.P,U3,5*%
%TO.N,+3V3*%
X149776000Y-134808000D03*
%TO.P,U3,4*%
%TO.N,Net-(U3-Pad4)*%
X149776000Y-132908000D03*
%TO.P,U3,3*%
%TO.N,+5V*%
X151976000Y-132908000D03*
%TO.P,U3,2*%
%TO.N,GND*%
X151976000Y-133858000D03*
%TO.P,U3,1*%
%TO.N,+5V*%
X151976000Y-134808000D03*
%TD*%
%TO.P,R2,2*%
%TO.N,Net-(J1-PadB5)*%
%TA.AperFunction,SMDPad,CuDef*%
G36*
G01*
X144430000Y-134871750D02*
X144430000Y-135384250D01*
G75*
G02*
X144211250Y-135603000I-218750J0D01*
G01*
X143773750Y-135603000D01*
G75*
G02*
X143555000Y-135384250I0J218750D01*
G01*
X143555000Y-134871750D01*
G75*
G02*
X143773750Y-134653000I218750J0D01*
G01*
X144211250Y-134653000D01*
G75*
G02*
X144430000Y-134871750I0J-218750D01*
G01*
G37*
%TD.AperFunction*%
%TO.P,R2,1*%
%TO.N,GND*%
%TA.AperFunction,SMDPad,CuDef*%
G36*
G01*
X146005000Y-134871750D02*
X146005000Y-135384250D01*
G75*
G02*
X145786250Y-135603000I-218750J0D01*
G01*
X145348750Y-135603000D01*
G75*
G02*
X145130000Y-135384250I0J218750D01*
G01*
X145130000Y-134871750D01*
G75*
G02*
X145348750Y-134653000I218750J0D01*
G01*
X145786250Y-134653000D01*
G75*
G02*
X146005000Y-134871750I0J-218750D01*
G01*
G37*
%TD.AperFunction*%
%TD*%
D18*
%TO.P,U1,6*%
%TO.N,ESP_RST*%
X130463000Y-132715000D03*
%TO.P,U1,5*%
%TO.N,SER_RTS*%
X130463000Y-133665000D03*
%TO.P,U1,4*%
%TO.N,SER_DTR*%
X130463000Y-134615000D03*
%TO.P,U1,3*%
%TO.N,ESP_FLS*%
X128143000Y-134615000D03*
%TO.P,U1,2*%
%TO.N,SER_DTR*%
X128143000Y-133665000D03*
%TO.P,U1,1*%
%TO.N,SER_RTS*%
X128143000Y-132715000D03*
%TD*%
D19*
%TO.P,U2,25*%
%TO.N,GND*%
X140339000Y-133890500D03*
%TO.P,U2,24*%
%TO.N,Net-(U2-Pad24)*%
%TA.AperFunction,SMDPad,CuDef*%
G36*
G01*
X138751500Y-135265500D02*
X138051500Y-135265500D01*
G75*
G02*
X137989000Y-135203000I0J62500D01*
G01*
X137989000Y-135078000D01*
G75*
G02*
X138051500Y-135015500I62500J0D01*
G01*
X138751500Y-135015500D01*
G75*
G02*
X138814000Y-135078000I0J-62500D01*
G01*
X138814000Y-135203000D01*
G75*
G02*
X138751500Y-135265500I-62500J0D01*
G01*
G37*
%TD.AperFunction*%
%TO.P,U2,23*%
%TO.N,SER_DTR*%
%TA.AperFunction,SMDPad,CuDef*%
G36*
G01*
X138751500Y-134765500D02*
X138051500Y-134765500D01*
G75*
G02*
X137989000Y-134703000I0J62500D01*
G01*
X137989000Y-134578000D01*
G75*
G02*
X138051500Y-134515500I62500J0D01*
G01*
X138751500Y-134515500D01*
G75*
G02*
X138814000Y-134578000I0J-62500D01*
G01*
X138814000Y-134703000D01*
G75*
G02*
X138751500Y-134765500I-62500J0D01*
G01*
G37*
%TD.AperFunction*%
%TO.P,U2,22*%
%TO.N,Net-(U2-Pad22)*%
%TA.AperFunction,SMDPad,CuDef*%
G36*
G01*
X138751500Y-134265500D02*
X138051500Y-134265500D01*
G75*
G02*
X137989000Y-134203000I0J62500D01*
G01*
X137989000Y-134078000D01*
G75*
G02*
X138051500Y-134015500I62500J0D01*
G01*
X138751500Y-134015500D01*
G75*
G02*
X138814000Y-134078000I0J-62500D01*
G01*
X138814000Y-134203000D01*
G75*
G02*
X138751500Y-134265500I-62500J0D01*
G01*
G37*
%TD.AperFunction*%
%TO.P,U2,21*%
%TO.N,ESP_RXD*%
%TA.AperFunction,SMDPad,CuDef*%
G36*
G01*
X138751500Y-133765500D02*
X138051500Y-133765500D01*
G75*
G02*
X137989000Y-133703000I0J62500D01*
G01*
X137989000Y-133578000D01*
G75*
G02*
X138051500Y-133515500I62500J0D01*
G01*
X138751500Y-133515500D01*
G75*
G02*
X138814000Y-133578000I0J-62500D01*
G01*
X138814000Y-133703000D01*
G75*
G02*
X138751500Y-133765500I-62500J0D01*
G01*
G37*
%TD.AperFunction*%
%TO.P,U2,20*%
%TO.N,ESP_TXD*%
%TA.AperFunction,SMDPad,CuDef*%
G36*
G01*
X138751500Y-133265500D02*
X138051500Y-133265500D01*
G75*
G02*
X137989000Y-133203000I0J62500D01*
G01*
X137989000Y-133078000D01*
G75*
G02*
X138051500Y-133015500I62500J0D01*
G01*
X138751500Y-133015500D01*
G75*
G02*
X138814000Y-133078000I0J-62500D01*
G01*
X138814000Y-133203000D01*
G75*
G02*
X138751500Y-133265500I-62500J0D01*
G01*
G37*
%TD.AperFunction*%
%TO.P,U2,19*%
%TO.N,SER_RTS*%
%TA.AperFunction,SMDPad,CuDef*%
G36*
G01*
X138751500Y-132765500D02*
X138051500Y-132765500D01*
G75*
G02*
X137989000Y-132703000I0J62500D01*
G01*
X137989000Y-132578000D01*
G75*
G02*
X138051500Y-132515500I62500J0D01*
G01*
X138751500Y-132515500D01*
G75*
G02*
X138814000Y-132578000I0J-62500D01*
G01*
X138814000Y-132703000D01*
G75*
G02*
X138751500Y-132765500I-62500J0D01*
G01*
G37*
%TD.AperFunction*%
%TO.P,U2,18*%
%TO.N,Net-(U2-Pad18)*%
%TA.AperFunction,SMDPad,CuDef*%
G36*
G01*
X139151500Y-132365500D02*
X139026500Y-132365500D01*
G75*
G02*
X138964000Y-132303000I0J62500D01*
G01*
X138964000Y-131603000D01*
G75*
G02*
X139026500Y-131540500I62500J0D01*
G01*
X139151500Y-131540500D01*
G75*
G02*
X139214000Y-131603000I0J-62500D01*
G01*
X139214000Y-132303000D01*
G75*
G02*
X139151500Y-132365500I-62500J0D01*
G01*
G37*
%TD.AperFunction*%
%TO.P,U2,17*%
%TO.N,Net-(U2-Pad17)*%
%TA.AperFunction,SMDPad,CuDef*%
G36*
G01*
X139651500Y-132365500D02*
X139526500Y-132365500D01*
G75*
G02*
X139464000Y-132303000I0J62500D01*
G01*
X139464000Y-131603000D01*
G75*
G02*
X139526500Y-131540500I62500J0D01*
G01*
X139651500Y-131540500D01*
G75*
G02*
X139714000Y-131603000I0J-62500D01*
G01*
X139714000Y-132303000D01*
G75*
G02*
X139651500Y-132365500I-62500J0D01*
G01*
G37*
%TD.AperFunction*%
%TO.P,U2,16*%
%TO.N,Net-(C2-Pad1)*%
%TA.AperFunction,SMDPad,CuDef*%
G36*
G01*
X140151500Y-132365500D02*
X140026500Y-132365500D01*
G75*
G02*
X139964000Y-132303000I0J62500D01*
G01*
X139964000Y-131603000D01*
G75*
G02*
X140026500Y-131540500I62500J0D01*
G01*
X140151500Y-131540500D01*
G75*
G02*
X140214000Y-131603000I0J-62500D01*
G01*
X140214000Y-132303000D01*
G75*
G02*
X140151500Y-132365500I-62500J0D01*
G01*
G37*
%TD.AperFunction*%
%TO.P,U2,15*%
%TO.N,Net-(U2-Pad15)*%
%TA.AperFunction,SMDPad,CuDef*%
G36*
G01*
X140651500Y-132365500D02*
X140526500Y-132365500D01*
G75*
G02*
X140464000Y-132303000I0J62500D01*
G01*
X140464000Y-131603000D01*
G75*
G02*
X140526500Y-131540500I62500J0D01*
G01*
X140651500Y-131540500D01*
G75*
G02*
X140714000Y-131603000I0J-62500D01*
G01*
X140714000Y-132303000D01*
G75*
G02*
X140651500Y-132365500I-62500J0D01*
G01*
G37*
%TD.AperFunction*%
%TO.P,U2,14*%
%TO.N,Net-(U2-Pad14)*%
%TA.AperFunction,SMDPad,CuDef*%
G36*
G01*
X141151500Y-132365500D02*
X141026500Y-132365500D01*
G75*
G02*
X140964000Y-132303000I0J62500D01*
G01*
X140964000Y-131603000D01*
G75*
G02*
X141026500Y-131540500I62500J0D01*
G01*
X141151500Y-131540500D01*
G75*
G02*
X141214000Y-131603000I0J-62500D01*
G01*
X141214000Y-132303000D01*
G75*
G02*
X141151500Y-132365500I-62500J0D01*
G01*
G37*
%TD.AperFunction*%
%TO.P,U2,13*%
%TO.N,Net-(U2-Pad13)*%
%TA.AperFunction,SMDPad,CuDef*%
G36*
G01*
X141651500Y-132365500D02*
X141526500Y-132365500D01*
G75*
G02*
X141464000Y-132303000I0J62500D01*
G01*
X141464000Y-131603000D01*
G75*
G02*
X141526500Y-131540500I62500J0D01*
G01*
X141651500Y-131540500D01*
G75*
G02*
X141714000Y-131603000I0J-62500D01*
G01*
X141714000Y-132303000D01*
G75*
G02*
X141651500Y-132365500I-62500J0D01*
G01*
G37*
%TD.AperFunction*%
%TO.P,U2,12*%
%TO.N,Net-(U2-Pad12)*%
%TA.AperFunction,SMDPad,CuDef*%
G36*
G01*
X142626500Y-132765500D02*
X141926500Y-132765500D01*
G75*
G02*
X141864000Y-132703000I0J62500D01*
G01*
X141864000Y-132578000D01*
G75*
G02*
X141926500Y-132515500I62500J0D01*
G01*
X142626500Y-132515500D01*
G75*
G02*
X142689000Y-132578000I0J-62500D01*
G01*
X142689000Y-132703000D01*
G75*
G02*
X142626500Y-132765500I-62500J0D01*
G01*
G37*
%TD.AperFunction*%
%TO.P,U2,11*%
%TO.N,Net-(U2-Pad11)*%
%TA.AperFunction,SMDPad,CuDef*%
G36*
G01*
X142626500Y-133265500D02*
X141926500Y-133265500D01*
G75*
G02*
X141864000Y-133203000I0J62500D01*
G01*
X141864000Y-133078000D01*
G75*
G02*
X141926500Y-133015500I62500J0D01*
G01*
X142626500Y-133015500D01*
G75*
G02*
X142689000Y-133078000I0J-62500D01*
G01*
X142689000Y-133203000D01*
G75*
G02*
X142626500Y-133265500I-62500J0D01*
G01*
G37*
%TD.AperFunction*%
%TO.P,U2,10*%
%TO.N,Net-(U2-Pad10)*%
%TA.AperFunction,SMDPad,CuDef*%
G36*
G01*
X142626500Y-133765500D02*
X141926500Y-133765500D01*
G75*
G02*
X141864000Y-133703000I0J62500D01*
G01*
X141864000Y-133578000D01*
G75*
G02*
X141926500Y-133515500I62500J0D01*
G01*
X142626500Y-133515500D01*
G75*
G02*
X142689000Y-133578000I0J-62500D01*
G01*
X142689000Y-133703000D01*
G75*
G02*
X142626500Y-133765500I-62500J0D01*
G01*
G37*
%TD.AperFunction*%
%TO.P,U2,9*%
%TO.N,Net-(U2-Pad9)*%
%TA.AperFunction,SMDPad,CuDef*%
G36*
G01*
X142626500Y-134265500D02*
X141926500Y-134265500D01*
G75*
G02*
X141864000Y-134203000I0J62500D01*
G01*
X141864000Y-134078000D01*
G75*
G02*
X141926500Y-134015500I62500J0D01*
G01*
X142626500Y-134015500D01*
G75*
G02*
X142689000Y-134078000I0J-62500D01*
G01*
X142689000Y-134203000D01*
G75*
G02*
X142626500Y-134265500I-62500J0D01*
G01*
G37*
%TD.AperFunction*%
%TO.P,U2,8*%
%TO.N,+5V*%
%TA.AperFunction,SMDPad,CuDef*%
G36*
G01*
X142626500Y-134765500D02*
X141926500Y-134765500D01*
G75*
G02*
X141864000Y-134703000I0J62500D01*
G01*
X141864000Y-134578000D01*
G75*
G02*
X141926500Y-134515500I62500J0D01*
G01*
X142626500Y-134515500D01*
G75*
G02*
X142689000Y-134578000I0J-62500D01*
G01*
X142689000Y-134703000D01*
G75*
G02*
X142626500Y-134765500I-62500J0D01*
G01*
G37*
%TD.AperFunction*%
%TO.P,U2,7*%
%TO.N,+3V3*%
%TA.AperFunction,SMDPad,CuDef*%
G36*
G01*
X142626500Y-135265500D02*
X141926500Y-135265500D01*
G75*
G02*
X141864000Y-135203000I0J62500D01*
G01*
X141864000Y-135078000D01*
G75*
G02*
X141926500Y-135015500I62500J0D01*
G01*
X142626500Y-135015500D01*
G75*
G02*
X142689000Y-135078000I0J-62500D01*
G01*
X142689000Y-135203000D01*
G75*
G02*
X142626500Y-135265500I-62500J0D01*
G01*
G37*
%TD.AperFunction*%
%TO.P,U2,6*%
%TA.AperFunction,SMDPad,CuDef*%
G36*
G01*
X141651500Y-136240500D02*
X141526500Y-136240500D01*
G75*
G02*
X141464000Y-136178000I0J62500D01*
G01*
X141464000Y-135478000D01*
G75*
G02*
X141526500Y-135415500I62500J0D01*
G01*
X141651500Y-135415500D01*
G75*
G02*
X141714000Y-135478000I0J-62500D01*
G01*
X141714000Y-136178000D01*
G75*
G02*
X141651500Y-136240500I-62500J0D01*
G01*
G37*
%TD.AperFunction*%
%TO.P,U2,5*%
%TA.AperFunction,SMDPad,CuDef*%
G36*
G01*
X141151500Y-136240500D02*
X141026500Y-136240500D01*
G75*
G02*
X140964000Y-136178000I0J62500D01*
G01*
X140964000Y-135478000D01*
G75*
G02*
X141026500Y-135415500I62500J0D01*
G01*
X141151500Y-135415500D01*
G75*
G02*
X141214000Y-135478000I0J-62500D01*
G01*
X141214000Y-136178000D01*
G75*
G02*
X141151500Y-136240500I-62500J0D01*
G01*
G37*
%TD.AperFunction*%
%TO.P,U2,4*%
%TO.N,USB_D-*%
%TA.AperFunction,SMDPad,CuDef*%
G36*
G01*
X140651500Y-136240500D02*
X140526500Y-136240500D01*
G75*
G02*
X140464000Y-136178000I0J62500D01*
G01*
X140464000Y-135478000D01*
G75*
G02*
X140526500Y-135415500I62500J0D01*
G01*
X140651500Y-135415500D01*
G75*
G02*
X140714000Y-135478000I0J-62500D01*
G01*
X140714000Y-136178000D01*
G75*
G02*
X140651500Y-136240500I-62500J0D01*
G01*
G37*
%TD.AperFunction*%
%TO.P,U2,3*%
%TO.N,USB_D+*%
%TA.AperFunction,SMDPad,CuDef*%
G36*
G01*
X140151500Y-136240500D02*
X140026500Y-136240500D01*
G75*
G02*
X139964000Y-136178000I0J62500D01*
G01*
X139964000Y-135478000D01*
G75*
G02*
X140026500Y-135415500I62500J0D01*
G01*
X140151500Y-135415500D01*
G75*
G02*
X140214000Y-135478000I0J-62500D01*
G01*
X140214000Y-136178000D01*
G75*
G02*
X140151500Y-136240500I-62500J0D01*
G01*
G37*
%TD.AperFunction*%
%TO.P,U2,2*%
%TO.N,GND*%
%TA.AperFunction,SMDPad,CuDef*%
G36*
G01*
X139651500Y-136240500D02*
X139526500Y-136240500D01*
G75*
G02*
X139464000Y-136178000I0J62500D01*
G01*
X139464000Y-135478000D01*
G75*
G02*
X139526500Y-135415500I62500J0D01*
G01*
X139651500Y-135415500D01*
G75*
G02*
X139714000Y-135478000I0J-62500D01*
G01*
X139714000Y-136178000D01*
G75*
G02*
X139651500Y-136240500I-62500J0D01*
G01*
G37*
%TD.AperFunction*%
%TO.P,U2,1*%
%TO.N,Net-(U2-Pad1)*%
%TA.AperFunction,SMDPad,CuDef*%
G36*
G01*
X139151500Y-136240500D02*
X139026500Y-136240500D01*
G75*
G02*
X138964000Y-136178000I0J62500D01*
G01*
X138964000Y-135478000D01*
G75*
G02*
X139026500Y-135415500I62500J0D01*
G01*
X139151500Y-135415500D01*
G75*
G02*
X139214000Y-135478000I0J-62500D01*
G01*
X139214000Y-136178000D01*
G75*
G02*
X139151500Y-136240500I-62500J0D01*
G01*
G37*
%TD.AperFunction*%
%TD*%
%TO.P,R6,2*%
%TO.N,ESP_FLS*%
%TA.AperFunction,SMDPad,CuDef*%
G36*
G01*
X126621250Y-133254000D02*
X126108750Y-133254000D01*
G75*
G02*
X125890000Y-133035250I0J218750D01*
G01*
X125890000Y-132597750D01*
G75*
G02*
X126108750Y-132379000I218750J0D01*
G01*
X126621250Y-132379000D01*
G75*
G02*
X126840000Y-132597750I0J-218750D01*
G01*
X126840000Y-133035250D01*
G75*
G02*
X126621250Y-133254000I-218750J0D01*
G01*
G37*
%TD.AperFunction*%
%TO.P,R6,1*%
%TO.N,+3V3*%
%TA.AperFunction,SMDPad,CuDef*%
G36*
G01*
X126621250Y-134829000D02*
X126108750Y-134829000D01*
G75*
G02*
X125890000Y-134610250I0J218750D01*
G01*
X125890000Y-134172750D01*
G75*
G02*
X126108750Y-133954000I218750J0D01*
G01*
X126621250Y-133954000D01*
G75*
G02*
X126840000Y-134172750I0J-218750D01*
G01*
X126840000Y-134610250D01*
G75*
G02*
X126621250Y-134829000I-218750J0D01*
G01*
G37*
%TD.AperFunction*%
%TD*%
%TO.P,R5,2*%
%TO.N,ESP_RST*%
%TA.AperFunction,SMDPad,CuDef*%
G36*
G01*
X132463250Y-133254000D02*
X131950750Y-133254000D01*
G75*
G02*
X131732000Y-133035250I0J218750D01*
G01*
X131732000Y-132597750D01*
G75*
G02*
X131950750Y-132379000I218750J0D01*
G01*
X132463250Y-132379000D01*
G75*
G02*
X132682000Y-132597750I0J-218750D01*
G01*
X132682000Y-133035250D01*
G75*
G02*
X132463250Y-133254000I-218750J0D01*
G01*
G37*
%TD.AperFunction*%
%TO.P,R5,1*%
%TO.N,+3V3*%
%TA.AperFunction,SMDPad,CuDef*%
G36*
G01*
X132463250Y-134829000D02*
X131950750Y-134829000D01*
G75*
G02*
X131732000Y-134610250I0J218750D01*
G01*
X131732000Y-134172750D01*
G75*
G02*
X131950750Y-133954000I218750J0D01*
G01*
X132463250Y-133954000D01*
G75*
G02*
X132682000Y-134172750I0J-218750D01*
G01*
X132682000Y-134610250D01*
G75*
G02*
X132463250Y-134829000I-218750J0D01*
G01*
G37*
%TD.AperFunction*%
%TD*%
%TO.P,R1,2*%
%TO.N,Net-(J1-PadA5)*%
%TA.AperFunction,SMDPad,CuDef*%
G36*
G01*
X135224000Y-135349250D02*
X135224000Y-134836750D01*
G75*
G02*
X135442750Y-134618000I218750J0D01*
G01*
X135880250Y-134618000D01*
G75*
G02*
X136099000Y-134836750I0J-218750D01*
G01*
X136099000Y-135349250D01*
G75*
G02*
X135880250Y-135568000I-218750J0D01*
G01*
X135442750Y-135568000D01*
G75*
G02*
X135224000Y-135349250I0J218750D01*
G01*
G37*
%TD.AperFunction*%
%TO.P,R1,1*%
%TO.N,GND*%
%TA.AperFunction,SMDPad,CuDef*%
G36*
G01*
X133649000Y-135349250D02*
X133649000Y-134836750D01*
G75*
G02*
X133867750Y-134618000I218750J0D01*
G01*
X134305250Y-134618000D01*
G75*
G02*
X134524000Y-134836750I0J-218750D01*
G01*
X134524000Y-135349250D01*
G75*
G02*
X134305250Y-135568000I-218750J0D01*
G01*
X133867750Y-135568000D01*
G75*
G02*
X133649000Y-135349250I0J218750D01*
G01*
G37*
%TD.AperFunction*%
%TD*%
%TO.P,C2,2*%
%TO.N,GND*%
%TA.AperFunction,SMDPad,CuDef*%
G36*
G01*
X134524000Y-132331750D02*
X134524000Y-132844250D01*
G75*
G02*
X134305250Y-133063000I-218750J0D01*
G01*
X133867750Y-133063000D01*
G75*
G02*
X133649000Y-132844250I0J218750D01*
G01*
X133649000Y-132331750D01*
G75*
G02*
X133867750Y-132113000I218750J0D01*
G01*
X134305250Y-132113000D01*
G75*
G02*
X134524000Y-132331750I0J-218750D01*
G01*
G37*
%TD.AperFunction*%
%TO.P,C2,1*%
%TO.N,Net-(C2-Pad1)*%
%TA.AperFunction,SMDPad,CuDef*%
G36*
G01*
X136099000Y-132331750D02*
X136099000Y-132844250D01*
G75*
G02*
X135880250Y-133063000I-218750J0D01*
G01*
X135442750Y-133063000D01*
G75*
G02*
X135224000Y-132844250I0J218750D01*
G01*
X135224000Y-132331750D01*
G75*
G02*
X135442750Y-132113000I218750J0D01*
G01*
X135880250Y-132113000D01*
G75*
G02*
X136099000Y-132331750I0J-218750D01*
G01*
G37*
%TD.AperFunction*%
%TD*%
%TO.P,C1,2*%
%TO.N,GND*%
%TA.AperFunction,SMDPad,CuDef*%
G36*
G01*
X144274250Y-131730000D02*
X143761750Y-131730000D01*
G75*
G02*
X143543000Y-131511250I0J218750D01*
G01*
X143543000Y-131073750D01*
G75*
G02*
X143761750Y-130855000I218750J0D01*
G01*
X144274250Y-130855000D01*
G75*
G02*
X144493000Y-131073750I0J-218750D01*
G01*
X144493000Y-131511250D01*
G75*
G02*
X144274250Y-131730000I-218750J0D01*
G01*
G37*
%TD.AperFunction*%
%TO.P,C1,1*%
%TO.N,+3V3*%
%TA.AperFunction,SMDPad,CuDef*%
G36*
G01*
X144274250Y-133305000D02*
X143761750Y-133305000D01*
G75*
G02*
X143543000Y-133086250I0J218750D01*
G01*
X143543000Y-132648750D01*
G75*
G02*
X143761750Y-132430000I218750J0D01*
G01*
X144274250Y-132430000D01*
G75*
G02*
X144493000Y-132648750I0J-218750D01*
G01*
X144493000Y-133086250D01*
G75*
G02*
X144274250Y-133305000I-218750J0D01*
G01*
G37*
%TD.AperFunction*%
%TD*%
%TO.P,C7,2*%
%TO.N,GND*%
%TA.AperFunction,SMDPad,CuDef*%
G36*
G01*
X148084250Y-131730000D02*
X147571750Y-131730000D01*
G75*
G02*
X147353000Y-131511250I0J218750D01*
G01*
X147353000Y-131073750D01*
G75*
G02*
X147571750Y-130855000I218750J0D01*
G01*
X148084250Y-130855000D01*
G75*
G02*
X148303000Y-131073750I0J-218750D01*
G01*
X148303000Y-131511250D01*
G75*
G02*
X148084250Y-131730000I-218750J0D01*
G01*
G37*
%TD.AperFunction*%
%TO.P,C7,1*%
%TO.N,+3V3*%
%TA.AperFunction,SMDPad,CuDef*%
G36*
G01*
X148084250Y-133305000D02*
X147571750Y-133305000D01*
G75*
G02*
X147353000Y-133086250I0J218750D01*
G01*
X147353000Y-132648750D01*
G75*
G02*
X147571750Y-132430000I218750J0D01*
G01*
X148084250Y-132430000D01*
G75*
G02*
X148303000Y-132648750I0J-218750D01*
G01*
X148303000Y-133086250D01*
G75*
G02*
X148084250Y-133305000I-218750J0D01*
G01*
G37*
%TD.AperFunction*%
%TD*%
%TO.P,C6,2*%
%TO.N,GND*%
%TA.AperFunction,SMDPad,CuDef*%
G36*
G01*
X146179250Y-131730000D02*
X145666750Y-131730000D01*
G75*
G02*
X145448000Y-131511250I0J218750D01*
G01*
X145448000Y-131073750D01*
G75*
G02*
X145666750Y-130855000I218750J0D01*
G01*
X146179250Y-130855000D01*
G75*
G02*
X146398000Y-131073750I0J-218750D01*
G01*
X146398000Y-131511250D01*
G75*
G02*
X146179250Y-131730000I-218750J0D01*
G01*
G37*
%TD.AperFunction*%
%TO.P,C6,1*%
%TO.N,+3V3*%
%TA.AperFunction,SMDPad,CuDef*%
G36*
G01*
X146179250Y-133305000D02*
X145666750Y-133305000D01*
G75*
G02*
X145448000Y-133086250I0J218750D01*
G01*
X145448000Y-132648750D01*
G75*
G02*
X145666750Y-132430000I218750J0D01*
G01*
X146179250Y-132430000D01*
G75*
G02*
X146398000Y-132648750I0J-218750D01*
G01*
X146398000Y-133086250D01*
G75*
G02*
X146179250Y-133305000I-218750J0D01*
G01*
G37*
%TD.AperFunction*%
%TD*%
%TO.P,C5,2*%
%TO.N,GND*%
%TA.AperFunction,SMDPad,CuDef*%
G36*
G01*
X155010500Y-133098250D02*
X155010500Y-132585750D01*
G75*
G02*
X155229250Y-132367000I218750J0D01*
G01*
X155666750Y-132367000D01*
G75*
G02*
X155885500Y-132585750I0J-218750D01*
G01*
X155885500Y-133098250D01*
G75*
G02*
X155666750Y-133317000I-218750J0D01*
G01*
X155229250Y-133317000D01*
G75*
G02*
X155010500Y-133098250I0J218750D01*
G01*
G37*
%TD.AperFunction*%
%TO.P,C5,1*%
%TO.N,+5V*%
%TA.AperFunction,SMDPad,CuDef*%
G36*
G01*
X153435500Y-133098250D02*
X153435500Y-132585750D01*
G75*
G02*
X153654250Y-132367000I218750J0D01*
G01*
X154091750Y-132367000D01*
G75*
G02*
X154310500Y-132585750I0J-218750D01*
G01*
X154310500Y-133098250D01*
G75*
G02*
X154091750Y-133317000I-218750J0D01*
G01*
X153654250Y-133317000D01*
G75*
G02*
X153435500Y-133098250I0J218750D01*
G01*
G37*
%TD.AperFunction*%
%TD*%
%TO.P,C4,2*%
%TO.N,GND*%
%TA.AperFunction,SMDPad,CuDef*%
G36*
G01*
X155036000Y-135257250D02*
X155036000Y-134744750D01*
G75*
G02*
X155254750Y-134526000I218750J0D01*
G01*
X155692250Y-134526000D01*
G75*
G02*
X155911000Y-134744750I0J-218750D01*
G01*
X155911000Y-135257250D01*
G75*
G02*
X155692250Y-135476000I-218750J0D01*
G01*
X155254750Y-135476000D01*
G75*
G02*
X155036000Y-135257250I0J218750D01*
G01*
G37*
%TD.AperFunction*%
%TO.P,C4,1*%
%TO.N,+5V*%
%TA.AperFunction,SMDPad,CuDef*%
G36*
G01*
X153461000Y-135257250D02*
X153461000Y-134744750D01*
G75*
G02*
X153679750Y-134526000I218750J0D01*
G01*
X154117250Y-134526000D01*
G75*
G02*
X154336000Y-134744750I0J-218750D01*
G01*
X154336000Y-135257250D01*
G75*
G02*
X154117250Y-135476000I-218750J0D01*
G01*
X153679750Y-135476000D01*
G75*
G02*
X153461000Y-135257250I0J218750D01*
G01*
G37*
%TD.AperFunction*%
%TD*%
D20*
%TO.N,GND*%
X135636000Y-107061000D03*
X145796000Y-108712000D03*
X143891000Y-118872000D03*
X142621000Y-114935000D03*
X143891000Y-121285000D03*
X136017000Y-121412000D03*
X137026787Y-115325320D03*
X133223000Y-133858000D03*
X138557000Y-121285000D03*
X138811000Y-122936000D03*
X138938000Y-124460000D03*
X135890000Y-122936000D03*
X147447000Y-135001000D03*
X145542000Y-136779000D03*
X135382000Y-136652000D03*
%TO.N,+3V3*%
X137668000Y-119143000D03*
X146939000Y-133985000D03*
X139954000Y-128905000D03*
X132461001Y-136779001D03*
X142240000Y-135890000D03*
%TO.N,Net-(J1-PadA5)*%
X139446000Y-139954000D03*
X136398000Y-136652000D03*
%TO.N,USB_D+*%
X142147012Y-140100386D03*
X140843000Y-140080990D03*
%TO.N,ESP_RST*%
X136144000Y-119253000D03*
X137668000Y-122809000D03*
X131318000Y-137795000D03*
X131445000Y-133476984D03*
%TO.N,SER_RTS*%
X127127000Y-131318000D03*
X137361500Y-131318008D03*
%TO.N,ESP_FLS*%
X133303034Y-131779034D03*
X129286000Y-135763000D03*
%TO.N,SER_DTR*%
X136854112Y-134856990D03*
X132268722Y-135795196D03*
%TO.N,ESP_TXD*%
X142113000Y-127127000D03*
X143891000Y-124206000D03*
X145542000Y-120777000D03*
X136779000Y-132461000D03*
%TO.N,ESP_RXD*%
X147193000Y-120523000D03*
X136525000Y-133731000D03*
%TO.N,CLK_IO6*%
X148336000Y-128905000D03*
%TO.N,IO5*%
X133985000Y-120632990D03*
X144888003Y-117747999D03*
X148209000Y-117348000D03*
%TO.N,IO34*%
X128302609Y-112472999D03*
X134164948Y-112440227D03*
%TO.N,IO23*%
X137668000Y-114427002D03*
%TO.N,IO19*%
X148183600Y-114909600D03*
%TO.N,IO18*%
X148209000Y-116205000D03*
X144272000Y-113411002D03*
X145952261Y-116612899D03*
%TO.N,IO26*%
X134454313Y-110728275D03*
%TO.N,IO32*%
X134620000Y-115570000D03*
%TO.N,IO25*%
X133857992Y-117348000D03*
X142875008Y-117094000D03*
X144391230Y-115766849D03*
%TO.N,IO27*%
X144424437Y-114840432D03*
%TO.N,IO12*%
X141223994Y-119888000D03*
%TO.N,IO13*%
X133858000Y-125094998D03*
%TO.N,SD1_IO8*%
X148336000Y-126365000D03*
%TO.N,IO2*%
X148209000Y-123825000D03*
%TD*%
D21*
%TO.N,GND*%
X140572400Y-112939600D02*
X140582400Y-112939600D01*
X138582400Y-114929600D02*
X140572400Y-112939600D01*
X140592400Y-112939600D02*
X142582400Y-114929600D01*
X140582400Y-112939600D02*
X140592400Y-112939600D01*
X138196680Y-115325320D02*
X137026787Y-115325320D01*
X140582400Y-112939600D02*
X138196680Y-115325320D01*
X137692000Y-138449000D02*
X136777000Y-139364000D01*
X137847000Y-138449000D02*
X137692000Y-138449000D01*
X144502000Y-138449000D02*
X145417000Y-139364000D01*
X144347000Y-138449000D02*
X144502000Y-138449000D01*
X145417000Y-136904000D02*
X145542000Y-136779000D01*
X145417000Y-139364000D02*
X145417000Y-136904000D01*
X136777000Y-138047000D02*
X135382000Y-136652000D01*
X136777000Y-139364000D02*
X136777000Y-138047000D01*
X153829600Y-105569600D02*
X154940000Y-106680000D01*
X150462400Y-105569600D02*
X153829600Y-105569600D01*
X150012400Y-106019600D02*
X150462400Y-105569600D01*
X152933172Y-121920000D02*
X152400000Y-121920000D01*
X154035173Y-120817999D02*
X152933172Y-121920000D01*
X155468961Y-120817999D02*
X154035173Y-120817999D01*
X156042001Y-107782001D02*
X156042001Y-120244959D01*
X156042001Y-120244959D02*
X155468961Y-120817999D01*
X154940000Y-106680000D02*
X156042001Y-107782001D01*
X139589000Y-134640500D02*
X140339000Y-133890500D01*
X139589000Y-135828000D02*
X139589000Y-134640500D01*
X137847000Y-137474000D02*
X137847000Y-138449000D01*
X138302287Y-137471999D02*
X137849001Y-137471999D01*
X137849001Y-137471999D02*
X137847000Y-137474000D01*
X139589000Y-136185286D02*
X138302287Y-137471999D01*
X139589000Y-135828000D02*
X139589000Y-136185286D01*
%TO.N,+3V3*%
X137668000Y-119143000D02*
X136144000Y-117619000D01*
X132982400Y-107289600D02*
X131982400Y-107289600D01*
X136144000Y-117619000D02*
X136144000Y-114681000D01*
X136144000Y-110451200D02*
X132982400Y-107289600D01*
X136144000Y-114681000D02*
X136144000Y-110451200D01*
X136144000Y-114681000D02*
X136144000Y-114554000D01*
X149768500Y-134808000D02*
X147828000Y-132867500D01*
X149776000Y-134808000D02*
X149768500Y-134808000D01*
X145923000Y-132867500D02*
X144018000Y-132867500D01*
X146939000Y-133985000D02*
X146939000Y-133350000D01*
X146939000Y-133350000D02*
X147421500Y-132867500D01*
X147421500Y-132867500D02*
X145923000Y-132867500D01*
X147828000Y-132867500D02*
X147421500Y-132867500D01*
X126365000Y-134391500D02*
X128752500Y-136779000D01*
X132986001Y-135170501D02*
X132207000Y-134391500D01*
X132986001Y-136202961D02*
X132986001Y-135170501D01*
X132409962Y-136779000D02*
X132986001Y-136202961D01*
X128752500Y-136779000D02*
X132409962Y-136779000D01*
X140055500Y-128905000D02*
X139954000Y-128905000D01*
X144018000Y-132867500D02*
X140055500Y-128905000D01*
X132461000Y-136779000D02*
X132461001Y-136779001D01*
X132409962Y-136779000D02*
X132461000Y-136779000D01*
X141089000Y-135828000D02*
X141589000Y-135828000D01*
X142178000Y-135828000D02*
X142240000Y-135890000D01*
X141589000Y-135828000D02*
X142178000Y-135828000D01*
X142240000Y-135177000D02*
X142276500Y-135140500D01*
X142240000Y-135890000D02*
X142240000Y-135177000D01*
%TO.N,Net-(C2-Pad1)*%
X135661500Y-132053046D02*
X137093556Y-130620990D01*
X135661500Y-132588000D02*
X135661500Y-132053046D01*
X140089000Y-131540500D02*
X140089000Y-131953000D01*
X139169490Y-130620990D02*
X140089000Y-131540500D01*
X137093556Y-130620990D02*
X139169490Y-130620990D01*
%TO.N,+5V*%
X143547000Y-137474000D02*
X143547000Y-138449000D01*
X144682010Y-136338990D02*
X143547000Y-137474000D01*
X153807000Y-132908000D02*
X153873000Y-132842000D01*
X151976000Y-132908000D02*
X153807000Y-132908000D01*
X153873000Y-134975500D02*
X153898500Y-135001000D01*
X153873000Y-132842000D02*
X153873000Y-134975500D01*
X153705500Y-134808000D02*
X153898500Y-135001000D01*
X151976000Y-134808000D02*
X153705500Y-134808000D01*
X153898500Y-135001000D02*
X153543000Y-135001000D01*
X152429010Y-136114990D02*
X144682010Y-136114990D01*
X144682010Y-136114990D02*
X144682010Y-136338990D01*
X153543000Y-135001000D02*
X152429010Y-136114990D01*
X153837999Y-132806999D02*
X153873000Y-132842000D01*
X153837999Y-125897999D02*
X153837999Y-132806999D01*
X152400000Y-124460000D02*
X153837999Y-125897999D01*
X143409999Y-138586001D02*
X143547000Y-138449000D01*
X141975960Y-141605000D02*
X143409999Y-140170961D01*
X139813988Y-141478000D02*
X139940988Y-141605000D01*
X139813988Y-141464988D02*
X139813988Y-141478000D01*
X139940988Y-141605000D02*
X141975960Y-141605000D01*
X138651981Y-140302981D02*
X139813988Y-141464988D01*
X138647000Y-138449000D02*
X138647000Y-139480038D01*
X138647000Y-139480038D02*
X138784001Y-139617039D01*
X138784001Y-140170961D02*
X138651981Y-140302981D01*
X143409999Y-140170961D02*
X143409999Y-138586001D01*
X138784001Y-139617039D02*
X138784001Y-140170961D01*
X144682010Y-134676752D02*
X144682010Y-134844990D01*
X144406248Y-134400990D02*
X144682010Y-134676752D01*
X143578752Y-134400990D02*
X144406248Y-134400990D01*
X143339242Y-134640500D02*
X143578752Y-134400990D01*
X142276500Y-134640500D02*
X143339242Y-134640500D01*
X144682010Y-134844990D02*
X144682010Y-136114990D01*
%TO.N,Net-(J1-PadA5)*%
X139847000Y-138449000D02*
X139847000Y-138664000D01*
X139749001Y-139650999D02*
X139446000Y-139954000D01*
X139749001Y-138761999D02*
X139749001Y-139650999D01*
X139847000Y-138664000D02*
X139749001Y-138761999D01*
X136398000Y-135829500D02*
X135661500Y-135093000D01*
X136398000Y-136652000D02*
X136398000Y-135829500D01*
%TO.N,USB_D-*%
X141155962Y-141114002D02*
X141495002Y-140774962D01*
X141347000Y-139424000D02*
X141347000Y-138449000D01*
X141495002Y-139572002D02*
X141347000Y-139424000D01*
X140347000Y-138449000D02*
X140347000Y-139485036D01*
X140347000Y-139485036D02*
X140190998Y-139641038D01*
X140190998Y-139641038D02*
X140190998Y-140774962D01*
X140530038Y-141114002D02*
X141155962Y-141114002D01*
X140190998Y-140774962D02*
X140530038Y-141114002D01*
X141495002Y-140774962D02*
X141495002Y-139572002D01*
X141347000Y-137283000D02*
X141347000Y-138449000D01*
X140589000Y-136525000D02*
X141347000Y-137283000D01*
X140589000Y-135828000D02*
X140589000Y-136525000D01*
%TO.N,USB_D+*%
X141847000Y-139424000D02*
X142147012Y-139724012D01*
X142147012Y-139724012D02*
X142147012Y-140100386D01*
X141847000Y-138449000D02*
X141847000Y-139424000D01*
X140089000Y-136676643D02*
X140089000Y-135828000D01*
X140847000Y-137434643D02*
X140089000Y-136676643D01*
X140847000Y-138449000D02*
X140847000Y-137434643D01*
%TO.N,Net-(J1-PadB5)*%
X142847000Y-136273500D02*
X143992500Y-135128000D01*
X142847000Y-138449000D02*
X142847000Y-136273500D01*
%TO.N,ESP_RST*%
X131419600Y-108559600D02*
X129540000Y-106680000D01*
X131982400Y-108559600D02*
X131419600Y-108559600D01*
X135649011Y-118758011D02*
X136144000Y-119253000D01*
X135649011Y-110958011D02*
X135649011Y-118758011D01*
X133250600Y-108559600D02*
X135649011Y-110958011D01*
X131982400Y-108559600D02*
X133250600Y-108559600D01*
X130520000Y-138593000D02*
X131318000Y-137795000D01*
X130266000Y-138593000D02*
X130520000Y-138593000D01*
X126581000Y-138593000D02*
X130266000Y-138593000D01*
X130266000Y-138593000D02*
X134531000Y-138593000D01*
X132105500Y-132715000D02*
X132207000Y-132816500D01*
X130463000Y-132715000D02*
X132105500Y-132715000D01*
X137668000Y-126450476D02*
X131445000Y-132673476D01*
X131445000Y-132673476D02*
X131445000Y-133476984D01*
X137668000Y-122809000D02*
X137668000Y-126450476D01*
X131063000Y-132715000D02*
X131445000Y-133097000D01*
X130463000Y-132715000D02*
X131063000Y-132715000D01*
X131445000Y-133097000D02*
X131445000Y-133476984D01*
%TO.N,SER_RTS*%
X128143000Y-132715000D02*
X128905000Y-132715000D01*
X129855000Y-133665000D02*
X130463000Y-133665000D01*
X128905000Y-132715000D02*
X129855000Y-133665000D01*
X127127000Y-131699000D02*
X128143000Y-132715000D01*
X127127000Y-131318000D02*
X127127000Y-131699000D01*
X137361508Y-131318008D02*
X137361500Y-131318008D01*
X138401500Y-132358008D02*
X137361500Y-131318008D01*
X138401500Y-132640500D02*
X138401500Y-132358008D01*
%TO.N,ESP_FLS*%
X151835999Y-123095001D02*
X153764999Y-123095001D01*
X153764999Y-123095001D02*
X154940000Y-121920000D01*
X151270598Y-122529600D02*
X151835999Y-123095001D01*
X150012400Y-122529600D02*
X151270598Y-122529600D01*
X150012400Y-122529600D02*
X144424400Y-122529600D01*
X128048000Y-134615000D02*
X128143000Y-134615000D01*
X126365000Y-132932000D02*
X128048000Y-134615000D01*
X126365000Y-132816500D02*
X126365000Y-132932000D01*
X135174966Y-131779034D02*
X133303034Y-131779034D01*
X144424400Y-122529600D02*
X135174966Y-131779034D01*
X129286000Y-135758000D02*
X128143000Y-134615000D01*
X129286000Y-135763000D02*
X129286000Y-135758000D01*
%TO.N,SER_DTR*%
X128143000Y-133665000D02*
X128839000Y-133665000D01*
X129789000Y-134615000D02*
X130463000Y-134615000D01*
X128839000Y-133665000D02*
X129789000Y-134615000D01*
X136854112Y-134722888D02*
X136854112Y-134856990D01*
X130463000Y-134615000D02*
X131088526Y-134615000D01*
X131088526Y-134615000D02*
X132268722Y-135795196D01*
X137070602Y-134640500D02*
X136854112Y-134856990D01*
X138401500Y-134640500D02*
X137070602Y-134640500D01*
%TO.N,ESP_TXD*%
X142113000Y-125984000D02*
X143891000Y-124206000D01*
X142113000Y-127127000D02*
X142113000Y-125984000D01*
X146685000Y-119634000D02*
X145542000Y-120777000D01*
X147955000Y-110998000D02*
X147955000Y-113157000D01*
X149098000Y-109855000D02*
X147955000Y-110998000D01*
X149987000Y-109855000D02*
X149098000Y-109855000D01*
X146685000Y-114427000D02*
X146685000Y-119634000D01*
X147955000Y-113157000D02*
X146685000Y-114427000D01*
X150012400Y-109829600D02*
X149987000Y-109855000D01*
X136791000Y-132473000D02*
X136779000Y-132461000D01*
X137458500Y-133140500D02*
X136779000Y-132461000D01*
X138401500Y-133140500D02*
X137458500Y-133140500D01*
%TO.N,ESP_RXD*%
X151384000Y-110236000D02*
X152400000Y-109220000D01*
X151028400Y-111099600D02*
X151384000Y-110744000D01*
X151384000Y-110744000D02*
X151384000Y-110236000D01*
X150012400Y-111099600D02*
X151028400Y-111099600D01*
X148332011Y-113313163D02*
X148332011Y-111779989D01*
X147193000Y-120523000D02*
X147193000Y-114452174D01*
X147193000Y-114452174D02*
X148332011Y-113313163D01*
X148332011Y-111779989D02*
X149012400Y-111099600D01*
X149012400Y-111099600D02*
X150012400Y-111099600D01*
X136615500Y-133640500D02*
X136525000Y-133731000D01*
X138401500Y-133640500D02*
X136615500Y-133640500D01*
%TO.N,CMD_IO11*%
X130176999Y-130715001D02*
X131982400Y-128909600D01*
X128175001Y-130715001D02*
X130176999Y-130715001D01*
X127000000Y-129540000D02*
X128175001Y-130715001D01*
%TO.N,SD3_IO10*%
X131440400Y-127639600D02*
X131982400Y-127639600D01*
X129540000Y-129540000D02*
X131440400Y-127639600D01*
%TO.N,SD2_IO9*%
X130437799Y-125824999D02*
X130982400Y-126369600D01*
X128975999Y-125824999D02*
X130437799Y-125824999D01*
X130982400Y-126369600D02*
X131982400Y-126369600D01*
X127800998Y-127000000D02*
X128975999Y-125824999D01*
X127000000Y-127000000D02*
X127800998Y-127000000D01*
%TO.N,CLK_IO6*%
X148340600Y-128909600D02*
X148336000Y-128905000D01*
X149982400Y-128909600D02*
X148340600Y-128909600D01*
%TO.N,IO5*%
X150012400Y-117449600D02*
X149562400Y-117899600D01*
X142018037Y-117747999D02*
X144888003Y-117747999D01*
X133985000Y-120632990D02*
X139133046Y-120632990D01*
X139133046Y-120632990D02*
X142018037Y-117747999D01*
X149910800Y-117348000D02*
X150012400Y-117449600D01*
X148209000Y-117348000D02*
X149910800Y-117348000D01*
%TO.N,IO34*%
X127568829Y-113197999D02*
X128293829Y-112472999D01*
X125897999Y-118277999D02*
X125897999Y-113771039D01*
X126471039Y-113197999D02*
X127568829Y-113197999D01*
X128293829Y-112472999D02*
X128302609Y-112472999D01*
X125897999Y-113771039D02*
X126471039Y-113197999D01*
X127000000Y-119380000D02*
X125897999Y-118277999D01*
X131982400Y-112369600D02*
X134094321Y-112369600D01*
X134094321Y-112369600D02*
X134164948Y-112440227D01*
%TO.N,IO23*%
X144805402Y-107289600D02*
X137668000Y-114427002D01*
X150012400Y-107289600D02*
X144805402Y-107289600D01*
%TO.N,IO33*%
X130982400Y-116179600D02*
X131982400Y-116179600D01*
X130467799Y-115664999D02*
X130982400Y-116179600D01*
X128175001Y-115664999D02*
X130467799Y-115664999D01*
X127000000Y-116840000D02*
X128175001Y-115664999D01*
%TO.N,IO19*%
X150012400Y-114909600D02*
X148183600Y-114909600D01*
%TO.N,IO35*%
X128175001Y-113124999D02*
X127000000Y-114300000D01*
X130618602Y-113639600D02*
X130104001Y-113124999D01*
X130104001Y-113124999D02*
X128175001Y-113124999D01*
X131982400Y-113639600D02*
X130618602Y-113639600D01*
%TO.N,IO18*%
X149072364Y-116179600D02*
X150012400Y-116179600D01*
X149987000Y-116205000D02*
X150012400Y-116179600D01*
X148209000Y-116205000D02*
X149987000Y-116205000D01*
X145952261Y-115091263D02*
X144272000Y-113411002D01*
X145952261Y-116612899D02*
X145952261Y-115091263D01*
%TO.N,SENSOR_VN*%
X128175001Y-110584999D02*
X127000000Y-111760000D01*
X130104001Y-110584999D02*
X128175001Y-110584999D01*
X130618602Y-111099600D02*
X130104001Y-110584999D01*
X131982400Y-111099600D02*
X130618602Y-111099600D01*
%TO.N,IO26*%
X135272002Y-116898961D02*
X135272002Y-114749038D01*
X133451363Y-118719600D02*
X135272002Y-116898961D01*
X134854312Y-111128274D02*
X134454313Y-110728275D01*
X135272002Y-114749038D02*
X134854312Y-114331348D01*
X134854312Y-114331348D02*
X134854312Y-111128274D01*
X131982400Y-118719600D02*
X133451363Y-118719600D01*
%TO.N,Sensor_VP*%
X130149600Y-109829600D02*
X131982400Y-109829600D01*
X129540000Y-109220000D02*
X130149600Y-109829600D01*
%TO.N,IO32*%
X131982400Y-114909600D02*
X133959600Y-114909600D01*
X133959600Y-114909600D02*
X134620000Y-115570000D01*
%TO.N,IO25*%
X131982400Y-117449600D02*
X132486400Y-117449600D01*
X132588000Y-117348000D02*
X133857992Y-117348000D01*
X132486400Y-117449600D02*
X132588000Y-117348000D01*
X144202159Y-115766849D02*
X144391230Y-115766849D01*
X142875008Y-117094000D02*
X144202159Y-115766849D01*
%TO.N,IO27*%
X134306574Y-119989600D02*
X139090400Y-119989600D01*
X131982400Y-119989600D02*
X132432400Y-119539600D01*
X141968998Y-117111002D02*
X141968998Y-116730186D01*
X143858752Y-114840432D02*
X144424437Y-114840432D01*
X132432400Y-119539600D02*
X133856574Y-119539600D01*
X139090400Y-119989600D02*
X141968998Y-117111002D01*
X141968998Y-116730186D02*
X143858752Y-114840432D01*
X133856574Y-119539600D02*
X134306574Y-119989600D01*
%TO.N,IO14*%
X130467799Y-120744999D02*
X130982400Y-121259600D01*
X130982400Y-121259600D02*
X131982400Y-121259600D01*
X128175001Y-120744999D02*
X130467799Y-120744999D01*
X127000000Y-121920000D02*
X128175001Y-120744999D01*
%TO.N,IO12*%
X132432400Y-122079600D02*
X139032394Y-122079600D01*
X139032394Y-122079600D02*
X141223994Y-119888000D01*
X131982400Y-122529600D02*
X132432400Y-122079600D01*
%TO.N,IO13*%
X131982400Y-125099600D02*
X133853398Y-125099600D01*
X133853398Y-125099600D02*
X133858000Y-125094998D01*
%TO.N,SD0_IO7*%
X152400000Y-129057200D02*
X152400000Y-129540000D01*
X150982400Y-127639600D02*
X152400000Y-129057200D01*
X149982400Y-127639600D02*
X150982400Y-127639600D01*
%TO.N,SD1_IO8*%
X148340600Y-126369600D02*
X148336000Y-126365000D01*
X149982400Y-126369600D02*
X148340600Y-126369600D01*
%TO.N,IO15*%
X150499600Y-125099600D02*
X152400000Y-127000000D01*
X149982400Y-125099600D02*
X150499600Y-125099600D01*
%TO.N,IO2*%
X148213600Y-123829600D02*
X148209000Y-123825000D01*
X149982400Y-123829600D02*
X148213600Y-123829600D01*
%TO.N,IO4*%
X153764999Y-120555001D02*
X154940000Y-119380000D01*
X152025997Y-120555001D02*
X153764999Y-120555001D01*
X151321398Y-121259600D02*
X152025997Y-120555001D01*
X150012400Y-121259600D02*
X151321398Y-121259600D01*
%TO.N,IO21*%
X151012400Y-112369600D02*
X150012400Y-112369600D01*
X152400000Y-113757200D02*
X151012400Y-112369600D01*
X152400000Y-114300000D02*
X152400000Y-113757200D01*
%TO.N,IO22*%
X153129999Y-108044999D02*
X153575001Y-108490001D01*
X153575001Y-110584999D02*
X152400000Y-111760000D01*
X153575001Y-108490001D02*
X153575001Y-110584999D01*
X151835999Y-108044999D02*
X153129999Y-108044999D01*
X151321398Y-108559600D02*
X151835999Y-108044999D01*
X150012400Y-108559600D02*
X151321398Y-108559600D01*
%TO.N,IO16*%
X151790400Y-119989600D02*
X152400000Y-119380000D01*
X150012400Y-119989600D02*
X151790400Y-119989600D01*
%TO.N,IO17*%
X150520400Y-118719600D02*
X152400000Y-116840000D01*
X150012400Y-118719600D02*
X150520400Y-118719600D01*
%TD*%
D22*
%TO.N,GND*%
G36*
X154581981Y-105231401D02*
G01*
X154306253Y-105329081D01*
X154168843Y-105402528D01*
X154091208Y-105651603D01*
X154940000Y-106500395D01*
X154954143Y-106486253D01*
X155133748Y-106665858D01*
X155119605Y-106680000D01*
X155968397Y-107528792D01*
X156217472Y-107451157D01*
X156271881Y-107337048D01*
X156271882Y-131862632D01*
X156239994Y-131836463D01*
X156129680Y-131777498D01*
X156009982Y-131741188D01*
X155885500Y-131728928D01*
X155733750Y-131732000D01*
X155575000Y-131890750D01*
X155575000Y-132715000D01*
X155595000Y-132715000D01*
X155595000Y-132969000D01*
X155575000Y-132969000D01*
X155575000Y-133793250D01*
X155716000Y-133934250D01*
X155600500Y-134049750D01*
X155600500Y-134874000D01*
X155620500Y-134874000D01*
X155620500Y-135128000D01*
X155600500Y-135128000D01*
X155600500Y-135952250D01*
X155759250Y-136111000D01*
X155911000Y-136114072D01*
X156035482Y-136101812D01*
X156155180Y-136065502D01*
X156265494Y-136006537D01*
X156271882Y-136001295D01*
X156271882Y-143341073D01*
X156267557Y-143457480D01*
X156255598Y-143564539D01*
X156235872Y-143669947D01*
X156208544Y-143773315D01*
X156173775Y-143874255D01*
X156131740Y-143972341D01*
X156082607Y-144067158D01*
X156026543Y-144158315D01*
X155963716Y-144245406D01*
X155892558Y-144330089D01*
X155846330Y-144378668D01*
X155764893Y-144454269D01*
X155680735Y-144521513D01*
X155592258Y-144582097D01*
X155499842Y-144635866D01*
X155403877Y-144682658D01*
X155304802Y-144722288D01*
X155203004Y-144754596D01*
X155098910Y-144779408D01*
X154992901Y-144796565D01*
X154882727Y-144806128D01*
X154807644Y-144807989D01*
X146019439Y-144807989D01*
X146129764Y-144736369D01*
X146290161Y-144580169D01*
X146417003Y-144395678D01*
X146505415Y-144189987D01*
X146552000Y-143971000D01*
X146552000Y-143671000D01*
X145544000Y-143671000D01*
X145544000Y-143691000D01*
X145290000Y-143691000D01*
X145290000Y-143671000D01*
X144282000Y-143671000D01*
X144282000Y-143971000D01*
X144328585Y-144189987D01*
X144416997Y-144395678D01*
X144543839Y-144580169D01*
X144704236Y-144736369D01*
X144814561Y-144807989D01*
X137379439Y-144807989D01*
X137489764Y-144736369D01*
X137650161Y-144580169D01*
X137777003Y-144395678D01*
X137865415Y-144189987D01*
X137912000Y-143971000D01*
X137912000Y-143671000D01*
X136904000Y-143671000D01*
X136904000Y-143691000D01*
X136650000Y-143691000D01*
X136650000Y-143671000D01*
X136630000Y-143671000D01*
X136630000Y-143417000D01*
X136650000Y-143417000D01*
X136650000Y-142276046D01*
X136904000Y-142276046D01*
X136904000Y-143417000D01*
X137912000Y-143417000D01*
X137912000Y-143117000D01*
X144282000Y-143117000D01*
X144282000Y-143417000D01*
X145290000Y-143417000D01*
X145290000Y-142276046D01*
X145544000Y-142276046D01*
X145544000Y-143417000D01*
X146552000Y-143417000D01*
X146552000Y-143117000D01*
X146505415Y-142898013D01*
X146417003Y-142692322D01*
X146290161Y-142507831D01*
X146129764Y-142351631D01*
X145941976Y-142229724D01*
X145718874Y-142149881D01*
X145544000Y-142276046D01*
X145290000Y-142276046D01*
X145115126Y-142149881D01*
X144892024Y-142229724D01*
X144704236Y-142351631D01*
X144543839Y-142507831D01*
X144416997Y-142692322D01*
X144328585Y-142898013D01*
X144282000Y-143117000D01*
X137912000Y-143117000D01*
X137865415Y-142898013D01*
X137777003Y-142692322D01*
X137650161Y-142507831D01*
X137489764Y-142351631D01*
X137301976Y-142229724D01*
X137078874Y-142149881D01*
X136904000Y-142276046D01*
X136650000Y-142276046D01*
X136475126Y-142149881D01*
X136252024Y-142229724D01*
X136064236Y-142351631D01*
X135943854Y-142468863D01*
X135944072Y-142443000D01*
X135931812Y-142318518D01*
X135895502Y-142198820D01*
X135836537Y-142088506D01*
X135757185Y-141991815D01*
X135660494Y-141912463D01*
X135550180Y-141853498D01*
X135430482Y-141817188D01*
X135306000Y-141804928D01*
X134816750Y-141808000D01*
X134658000Y-141966750D01*
X134658000Y-142966000D01*
X134678000Y-142966000D01*
X134678000Y-143220000D01*
X134658000Y-143220000D01*
X134658000Y-144219250D01*
X134816750Y-144378000D01*
X135306000Y-144381072D01*
X135430482Y-144368812D01*
X135550180Y-144332502D01*
X135660494Y-144273537D01*
X135707807Y-144234708D01*
X135776997Y-144395678D01*
X135903839Y-144580169D01*
X136064236Y-144736369D01*
X136174561Y-144807989D01*
X127136779Y-144807989D01*
X127020398Y-144803665D01*
X126913339Y-144791706D01*
X126807931Y-144771980D01*
X126704563Y-144744652D01*
X126603623Y-144709883D01*
X126505537Y-144667848D01*
X126410720Y-144618715D01*
X126319563Y-144562651D01*
X126232472Y-144499824D01*
X126147790Y-144428667D01*
X126099212Y-144382438D01*
X126096252Y-144379250D01*
X126295250Y-144378000D01*
X126454000Y-144219250D01*
X126454000Y-143220000D01*
X126708000Y-143220000D01*
X126708000Y-144219250D01*
X126866750Y-144378000D01*
X127356000Y-144381072D01*
X127480482Y-144368812D01*
X127600180Y-144332502D01*
X127710494Y-144273537D01*
X127807185Y-144194185D01*
X127886537Y-144097494D01*
X127945502Y-143987180D01*
X127981812Y-143867482D01*
X127994072Y-143743000D01*
X133117928Y-143743000D01*
X133130188Y-143867482D01*
X133166498Y-143987180D01*
X133225463Y-144097494D01*
X133304815Y-144194185D01*
X133401506Y-144273537D01*
X133511820Y-144332502D01*
X133631518Y-144368812D01*
X133756000Y-144381072D01*
X134245250Y-144378000D01*
X134404000Y-144219250D01*
X134404000Y-143220000D01*
X133279750Y-143220000D01*
X133121000Y-143378750D01*
X133117928Y-143743000D01*
X127994072Y-143743000D01*
X127991000Y-143378750D01*
X127832250Y-143220000D01*
X126708000Y-143220000D01*
X126454000Y-143220000D01*
X126434000Y-143220000D01*
X126434000Y-142966000D01*
X126454000Y-142966000D01*
X126454000Y-141966750D01*
X126708000Y-141966750D01*
X126708000Y-142966000D01*
X127832250Y-142966000D01*
X127991000Y-142807250D01*
X127994072Y-142443000D01*
X133117928Y-142443000D01*
X133121000Y-142807250D01*
X133279750Y-142966000D01*
X134404000Y-142966000D01*
X134404000Y-141966750D01*
X134245250Y-141808000D01*
X133756000Y-141804928D01*
X133631518Y-141817188D01*
X133511820Y-141853498D01*
X133401506Y-141912463D01*
X133304815Y-141991815D01*
X133225463Y-142088506D01*
X133166498Y-142198820D01*
X133130188Y-142318518D01*
X133117928Y-142443000D01*
X127994072Y-142443000D01*
X127981812Y-142318518D01*
X127945502Y-142198820D01*
X127886537Y-142088506D01*
X127807185Y-141991815D01*
X127710494Y-141912463D01*
X127600180Y-141853498D01*
X127480482Y-141817188D01*
X127356000Y-141804928D01*
X126866750Y-141808000D01*
X126708000Y-141966750D01*
X126454000Y-141966750D01*
X126295250Y-141808000D01*
X125806000Y-141804928D01*
X125681518Y-141817188D01*
X125669890Y-141820715D01*
X125669890Y-139599855D01*
X125731311Y-139618487D01*
X125806000Y-139625843D01*
X127356000Y-139625843D01*
X127430689Y-139618487D01*
X127502508Y-139596701D01*
X127568696Y-139561322D01*
X127626711Y-139513711D01*
X127674322Y-139455696D01*
X127709701Y-139389508D01*
X127731487Y-139317689D01*
X127738843Y-139243000D01*
X127738843Y-139099000D01*
X130495154Y-139099000D01*
X130520000Y-139101447D01*
X130544846Y-139099000D01*
X133373157Y-139099000D01*
X133373157Y-139243000D01*
X133380513Y-139317689D01*
X133402299Y-139389508D01*
X133437678Y-139455696D01*
X133485289Y-139513711D01*
X133543304Y-139561322D01*
X133609492Y-139596701D01*
X133681311Y-139618487D01*
X133756000Y-139625843D01*
X135306000Y-139625843D01*
X135380689Y-139618487D01*
X135452508Y-139596701D01*
X135518696Y-139561322D01*
X135576711Y-139513711D01*
X135624322Y-139455696D01*
X135642000Y-139422624D01*
X135642000Y-140041000D01*
X135688585Y-140259987D01*
X135776997Y-140465678D01*
X135903839Y-140650169D01*
X136064236Y-140806369D01*
X136252024Y-140928276D01*
X136475126Y-141008119D01*
X136650000Y-140881954D01*
X136650000Y-139491000D01*
X136630000Y-139491000D01*
X136630000Y-139237000D01*
X136650000Y-139237000D01*
X136650000Y-137846046D01*
X136475126Y-137719881D01*
X136252024Y-137799724D01*
X136064236Y-137921631D01*
X135903839Y-138077831D01*
X135776997Y-138262322D01*
X135688843Y-138467413D01*
X135688843Y-137943000D01*
X135681487Y-137868311D01*
X135659701Y-137796492D01*
X135624322Y-137730304D01*
X135576711Y-137672289D01*
X135518696Y-137624678D01*
X135452508Y-137589299D01*
X135380689Y-137567513D01*
X135306000Y-137560157D01*
X133756000Y-137560157D01*
X133681311Y-137567513D01*
X133609492Y-137589299D01*
X133543304Y-137624678D01*
X133485289Y-137672289D01*
X133437678Y-137730304D01*
X133402299Y-137796492D01*
X133380513Y-137868311D01*
X133373157Y-137943000D01*
X133373157Y-138087000D01*
X132042398Y-138087000D01*
X132068987Y-138022809D01*
X132099000Y-137871922D01*
X132099000Y-137718078D01*
X132068987Y-137567191D01*
X132010113Y-137425058D01*
X132000420Y-137410551D01*
X132091059Y-137471114D01*
X132233192Y-137529988D01*
X132384079Y-137560001D01*
X132537923Y-137560001D01*
X132688810Y-137529988D01*
X132830943Y-137471114D01*
X132958860Y-137385643D01*
X133067643Y-137276860D01*
X133153114Y-137148943D01*
X133211988Y-137006810D01*
X133242001Y-136855923D01*
X133242001Y-136702079D01*
X133235443Y-136669111D01*
X133326221Y-136578333D01*
X133345528Y-136562488D01*
X133408760Y-136485440D01*
X133455746Y-136397536D01*
X133465966Y-136363843D01*
X133484679Y-136302155D01*
X133486658Y-136282058D01*
X133492001Y-136227815D01*
X133492001Y-136227808D01*
X133494448Y-136202962D01*
X133492593Y-136184128D01*
X133524518Y-136193812D01*
X133649000Y-136206072D01*
X133800750Y-136203000D01*
X133959500Y-136044250D01*
X133959500Y-135220000D01*
X133939500Y-135220000D01*
X133939500Y-134966000D01*
X133959500Y-134966000D01*
X133959500Y-134141750D01*
X133800750Y-133983000D01*
X133649000Y-133979928D01*
X133524518Y-133992188D01*
X133404820Y-134028498D01*
X133294506Y-134087463D01*
X133197815Y-134166815D01*
X133118463Y-134263506D01*
X133064843Y-134363820D01*
X133064843Y-134172750D01*
X133053284Y-134055385D01*
X133019049Y-133942530D01*
X132963456Y-133838523D01*
X132888640Y-133747360D01*
X132797477Y-133672544D01*
X132693470Y-133616951D01*
X132650777Y-133604000D01*
X132693470Y-133591049D01*
X132797477Y-133535456D01*
X132888640Y-133460640D01*
X132963456Y-133369477D01*
X133019049Y-133265470D01*
X133032947Y-133219654D01*
X133059498Y-133307180D01*
X133118463Y-133417494D01*
X133197815Y-133514185D01*
X133294506Y-133593537D01*
X133404820Y-133652502D01*
X133524518Y-133688812D01*
X133649000Y-133701072D01*
X133800750Y-133698000D01*
X133959500Y-133539250D01*
X133959500Y-132715000D01*
X133939500Y-132715000D01*
X133939500Y-132461000D01*
X133959500Y-132461000D01*
X133959500Y-132441000D01*
X134213500Y-132441000D01*
X134213500Y-132461000D01*
X134233500Y-132461000D01*
X134233500Y-132715000D01*
X134213500Y-132715000D01*
X134213500Y-133539250D01*
X134372250Y-133698000D01*
X134524000Y-133701072D01*
X134648482Y-133688812D01*
X134768180Y-133652502D01*
X134878494Y-133593537D01*
X134975185Y-133514185D01*
X135054537Y-133417494D01*
X135098134Y-133335930D01*
X135108523Y-133344456D01*
X135212530Y-133400049D01*
X135325385Y-133434284D01*
X135442750Y-133445843D01*
X135797768Y-133445843D01*
X135774013Y-133503191D01*
X135744000Y-133654078D01*
X135744000Y-133807922D01*
X135774013Y-133958809D01*
X135832887Y-134100942D01*
X135918358Y-134228859D01*
X135929507Y-134240008D01*
X135880250Y-134235157D01*
X135442750Y-134235157D01*
X135325385Y-134246716D01*
X135212530Y-134280951D01*
X135108523Y-134336544D01*
X135098134Y-134345070D01*
X135054537Y-134263506D01*
X134975185Y-134166815D01*
X134878494Y-134087463D01*
X134768180Y-134028498D01*
X134648482Y-133992188D01*
X134524000Y-133979928D01*
X134372250Y-133983000D01*
X134213500Y-134141750D01*
X134213500Y-134966000D01*
X134233500Y-134966000D01*
X134233500Y-135220000D01*
X134213500Y-135220000D01*
X134213500Y-136044250D01*
X134372250Y-136203000D01*
X134524000Y-136206072D01*
X134648482Y-136193812D01*
X134768180Y-136157502D01*
X134878494Y-136098537D01*
X134975185Y-136019185D01*
X135054537Y-135922494D01*
X135098134Y-135840930D01*
X135108523Y-135849456D01*
X135212530Y-135905049D01*
X135325385Y-135939284D01*
X135442750Y-135950843D01*
X135803751Y-135950843D01*
X135892001Y-136039093D01*
X135892001Y-136053498D01*
X135791358Y-136154141D01*
X135705887Y-136282058D01*
X135647013Y-136424191D01*
X135617000Y-136575078D01*
X135617000Y-136728922D01*
X135647013Y-136879809D01*
X135705887Y-137021942D01*
X135791358Y-137149859D01*
X135900141Y-137258642D01*
X136028058Y-137344113D01*
X136170191Y-137402987D01*
X136321078Y-137433000D01*
X136474922Y-137433000D01*
X136625809Y-137402987D01*
X136767942Y-137344113D01*
X136895859Y-137258642D01*
X137004642Y-137149859D01*
X137090113Y-137021942D01*
X137148987Y-136879809D01*
X137179000Y-136728922D01*
X137179000Y-136575078D01*
X137148987Y-136424191D01*
X137090113Y-136282058D01*
X137004642Y-136154141D01*
X136904000Y-136053499D01*
X136904000Y-135854345D01*
X136906447Y-135829499D01*
X136904000Y-135804653D01*
X136904000Y-135804646D01*
X136896678Y-135730307D01*
X136896224Y-135728808D01*
X136886097Y-135695426D01*
X136868675Y-135637990D01*
X136931034Y-135637990D01*
X137081921Y-135607977D01*
X137224054Y-135549103D01*
X137351971Y-135463632D01*
X137460754Y-135354849D01*
X137546225Y-135226932D01*
X137579541Y-135146500D01*
X137606157Y-135146500D01*
X137606157Y-135203000D01*
X137614714Y-135289882D01*
X137640057Y-135373425D01*
X137681211Y-135450419D01*
X137736595Y-135517905D01*
X137804081Y-135573289D01*
X137881075Y-135614443D01*
X137964618Y-135639786D01*
X138051500Y-135648343D01*
X138581157Y-135648343D01*
X138581157Y-136178000D01*
X138589714Y-136264882D01*
X138615057Y-136348425D01*
X138656211Y-136425419D01*
X138711595Y-136492905D01*
X138779081Y-136548289D01*
X138856075Y-136589443D01*
X138939618Y-136614786D01*
X138951489Y-136615955D01*
X139002508Y-136681138D01*
X139097340Y-136762703D01*
X139206262Y-136824201D01*
X139325089Y-136863268D01*
X139430250Y-136875500D01*
X139584906Y-136720844D01*
X139590322Y-136775835D01*
X139619255Y-136871217D01*
X139666241Y-136959122D01*
X139729473Y-137036170D01*
X139748785Y-137052019D01*
X140042393Y-137345628D01*
X139997000Y-137341157D01*
X139697000Y-137341157D01*
X139622311Y-137348513D01*
X139597000Y-137356191D01*
X139571689Y-137348513D01*
X139497000Y-137341157D01*
X139197000Y-137341157D01*
X139122311Y-137348513D01*
X139072000Y-137363775D01*
X139021689Y-137348513D01*
X138947000Y-137341157D01*
X138654272Y-137341157D01*
X138598185Y-137272815D01*
X138501494Y-137193463D01*
X138391180Y-137134498D01*
X138271482Y-137098188D01*
X138147000Y-137085928D01*
X138132750Y-137089000D01*
X137974000Y-137247750D01*
X137974000Y-137641112D01*
X137971513Y-137649311D01*
X137964157Y-137724000D01*
X137964157Y-138596000D01*
X137892642Y-138596000D01*
X137865415Y-138468013D01*
X137777003Y-138262322D01*
X137720000Y-138179411D01*
X137720000Y-137247750D01*
X137561250Y-137089000D01*
X137547000Y-137085928D01*
X137422518Y-137098188D01*
X137302820Y-137134498D01*
X137192506Y-137193463D01*
X137095815Y-137272815D01*
X137016463Y-137369506D01*
X136957498Y-137479820D01*
X136921188Y-137599518D01*
X136908928Y-137724000D01*
X136909753Y-137841896D01*
X136904000Y-137846046D01*
X136904000Y-139237000D01*
X136915133Y-139237000D01*
X136921188Y-139298482D01*
X136924000Y-139307752D01*
X136924000Y-139491000D01*
X136904000Y-139491000D01*
X136904000Y-140881954D01*
X137078874Y-141008119D01*
X137301976Y-140928276D01*
X137489764Y-140806369D01*
X137650161Y-140650169D01*
X137777003Y-140465678D01*
X137780307Y-140457992D01*
X137872584Y-140519649D01*
X138001067Y-140572869D01*
X138137465Y-140600000D01*
X138241156Y-140600000D01*
X138292454Y-140662508D01*
X138311763Y-140678355D01*
X139388177Y-141754769D01*
X139391229Y-141760479D01*
X139454461Y-141837527D01*
X139473773Y-141853376D01*
X139565612Y-141945215D01*
X139581461Y-141964527D01*
X139658509Y-142027759D01*
X139746413Y-142074745D01*
X139791778Y-142088506D01*
X139841794Y-142103678D01*
X139851682Y-142104652D01*
X139916134Y-142111000D01*
X139916141Y-142111000D01*
X139940987Y-142113447D01*
X139965833Y-142111000D01*
X141951114Y-142111000D01*
X141975960Y-142113447D01*
X142000806Y-142111000D01*
X142000814Y-142111000D01*
X142075153Y-142103678D01*
X142170535Y-142074745D01*
X142258439Y-142027759D01*
X142335487Y-141964527D01*
X142351336Y-141945215D01*
X143740490Y-140556061D01*
X143781067Y-140572869D01*
X143917465Y-140600000D01*
X144056535Y-140600000D01*
X144192933Y-140572869D01*
X144321416Y-140519649D01*
X144413693Y-140457992D01*
X144416997Y-140465678D01*
X144543839Y-140650169D01*
X144704236Y-140806369D01*
X144892024Y-140928276D01*
X145115126Y-141008119D01*
X145290000Y-140881954D01*
X145290000Y-139491000D01*
X145544000Y-139491000D01*
X145544000Y-140881954D01*
X145718874Y-141008119D01*
X145941976Y-140928276D01*
X146129764Y-140806369D01*
X146290161Y-140650169D01*
X146417003Y-140465678D01*
X146505415Y-140259987D01*
X146552000Y-140041000D01*
X146552000Y-139491000D01*
X145544000Y-139491000D01*
X145290000Y-139491000D01*
X145270000Y-139491000D01*
X145270000Y-139307752D01*
X145272812Y-139298482D01*
X145278867Y-139237000D01*
X145290000Y-139237000D01*
X145290000Y-137846046D01*
X145544000Y-137846046D01*
X145544000Y-139237000D01*
X146552000Y-139237000D01*
X146552000Y-138687000D01*
X146505415Y-138468013D01*
X146417003Y-138262322D01*
X146290161Y-138077831D01*
X146129764Y-137921631D01*
X145941976Y-137799724D01*
X145718874Y-137719881D01*
X145544000Y-137846046D01*
X145290000Y-137846046D01*
X145284247Y-137841896D01*
X145285072Y-137724000D01*
X145272812Y-137599518D01*
X145236502Y-137479820D01*
X145177537Y-137369506D01*
X145098185Y-137272815D01*
X145001494Y-137193463D01*
X144891180Y-137134498D01*
X144771482Y-137098188D01*
X144650335Y-137086256D01*
X145022230Y-136714362D01*
X145041537Y-136698517D01*
X145104769Y-136621469D01*
X145105025Y-136620990D01*
X152404164Y-136620990D01*
X152429010Y-136623437D01*
X152453856Y-136620990D01*
X152453864Y-136620990D01*
X152528203Y-136613668D01*
X152623585Y-136584735D01*
X152711489Y-136537749D01*
X152788537Y-136474517D01*
X152804386Y-136455205D01*
X153447583Y-135812008D01*
X153449530Y-135813049D01*
X153562385Y-135847284D01*
X153679750Y-135858843D01*
X154117250Y-135858843D01*
X154234615Y-135847284D01*
X154347470Y-135813049D01*
X154451477Y-135757456D01*
X154461866Y-135748930D01*
X154505463Y-135830494D01*
X154584815Y-135927185D01*
X154681506Y-136006537D01*
X154791820Y-136065502D01*
X154911518Y-136101812D01*
X155036000Y-136114072D01*
X155187750Y-136111000D01*
X155346500Y-135952250D01*
X155346500Y-135128000D01*
X155326500Y-135128000D01*
X155326500Y-134874000D01*
X155346500Y-134874000D01*
X155346500Y-134049750D01*
X155205500Y-133908750D01*
X155321000Y-133793250D01*
X155321000Y-132969000D01*
X155301000Y-132969000D01*
X155301000Y-132715000D01*
X155321000Y-132715000D01*
X155321000Y-131890750D01*
X155162250Y-131732000D01*
X155010500Y-131728928D01*
X154886018Y-131741188D01*
X154766320Y-131777498D01*
X154656006Y-131836463D01*
X154559315Y-131915815D01*
X154479963Y-132012506D01*
X154436366Y-132094070D01*
X154425977Y-132085544D01*
X154343999Y-132041726D01*
X154343999Y-130622276D01*
X154356903Y-130630898D01*
X154580931Y-130723693D01*
X154818757Y-130771000D01*
X155061243Y-130771000D01*
X155299069Y-130723693D01*
X155523097Y-130630898D01*
X155724717Y-130496180D01*
X155896180Y-130324717D01*
X156030898Y-130123097D01*
X156123693Y-129899069D01*
X156171000Y-129661243D01*
X156171000Y-129418757D01*
X156123693Y-129180931D01*
X156030898Y-128956903D01*
X155896180Y-128755283D01*
X155724717Y-128583820D01*
X155523097Y-128449102D01*
X155299069Y-128356307D01*
X155061243Y-128309000D01*
X154818757Y-128309000D01*
X154580931Y-128356307D01*
X154356903Y-128449102D01*
X154343999Y-128457724D01*
X154343999Y-128082276D01*
X154356903Y-128090898D01*
X154580931Y-128183693D01*
X154818757Y-128231000D01*
X155061243Y-128231000D01*
X155299069Y-128183693D01*
X155523097Y-128090898D01*
X155724717Y-127956180D01*
X155896180Y-127784717D01*
X156030898Y-127583097D01*
X156123693Y-127359069D01*
X156171000Y-127121243D01*
X156171000Y-126878757D01*
X156123693Y-126640931D01*
X156030898Y-126416903D01*
X155896180Y-126215283D01*
X155724717Y-126043820D01*
X155523097Y-125909102D01*
X155299069Y-125816307D01*
X155061243Y-125769000D01*
X154818757Y-125769000D01*
X154580931Y-125816307D01*
X154356903Y-125909102D01*
X154344540Y-125917363D01*
X154346447Y-125897999D01*
X154336677Y-125798806D01*
X154307744Y-125703424D01*
X154301103Y-125691000D01*
X154260758Y-125615520D01*
X154197526Y-125538472D01*
X154178219Y-125522627D01*
X153551758Y-124896167D01*
X153583693Y-124819069D01*
X153631000Y-124581243D01*
X153631000Y-124338757D01*
X153709000Y-124338757D01*
X153709000Y-124581243D01*
X153756307Y-124819069D01*
X153849102Y-125043097D01*
X153983820Y-125244717D01*
X154155283Y-125416180D01*
X154356903Y-125550898D01*
X154580931Y-125643693D01*
X154818757Y-125691000D01*
X155061243Y-125691000D01*
X155299069Y-125643693D01*
X155523097Y-125550898D01*
X155724717Y-125416180D01*
X155896180Y-125244717D01*
X156030898Y-125043097D01*
X156123693Y-124819069D01*
X156171000Y-124581243D01*
X156171000Y-124338757D01*
X156123693Y-124100931D01*
X156030898Y-123876903D01*
X155896180Y-123675283D01*
X155724717Y-123503820D01*
X155523097Y-123369102D01*
X155299069Y-123276307D01*
X155061243Y-123229000D01*
X154818757Y-123229000D01*
X154580931Y-123276307D01*
X154356903Y-123369102D01*
X154155283Y-123503820D01*
X153983820Y-123675283D01*
X153849102Y-123876903D01*
X153756307Y-124100931D01*
X153709000Y-124338757D01*
X153631000Y-124338757D01*
X153583693Y-124100931D01*
X153490898Y-123876903D01*
X153356180Y-123675283D01*
X153281898Y-123601001D01*
X153740153Y-123601001D01*
X153764999Y-123603448D01*
X153789845Y-123601001D01*
X153789853Y-123601001D01*
X153864192Y-123593679D01*
X153959574Y-123564746D01*
X154047478Y-123517760D01*
X154124526Y-123454528D01*
X154140375Y-123435216D01*
X154503833Y-123071758D01*
X154580931Y-123103693D01*
X154818757Y-123151000D01*
X155061243Y-123151000D01*
X155299069Y-123103693D01*
X155523097Y-123010898D01*
X155724717Y-122876180D01*
X155896180Y-122704717D01*
X156030898Y-122503097D01*
X156123693Y-122279069D01*
X156171000Y-122041243D01*
X156171000Y-121798757D01*
X156123693Y-121560931D01*
X156030898Y-121336903D01*
X155896180Y-121135283D01*
X155724717Y-120963820D01*
X155523097Y-120829102D01*
X155299069Y-120736307D01*
X155061243Y-120689000D01*
X154818757Y-120689000D01*
X154580931Y-120736307D01*
X154356903Y-120829102D01*
X154155283Y-120963820D01*
X153983820Y-121135283D01*
X153849102Y-121336903D01*
X153805091Y-121443154D01*
X153796825Y-121415901D01*
X153671641Y-121153080D01*
X153602960Y-121061001D01*
X153740153Y-121061001D01*
X153764999Y-121063448D01*
X153789845Y-121061001D01*
X153789853Y-121061001D01*
X153864192Y-121053679D01*
X153959574Y-121024746D01*
X154047478Y-120977760D01*
X154124526Y-120914528D01*
X154140375Y-120895216D01*
X154503833Y-120531758D01*
X154580931Y-120563693D01*
X154818757Y-120611000D01*
X155061243Y-120611000D01*
X155299069Y-120563693D01*
X155523097Y-120470898D01*
X155724717Y-120336180D01*
X155896180Y-120164717D01*
X156030898Y-119963097D01*
X156123693Y-119739069D01*
X156171000Y-119501243D01*
X156171000Y-119258757D01*
X156123693Y-119020931D01*
X156030898Y-118796903D01*
X155896180Y-118595283D01*
X155724717Y-118423820D01*
X155523097Y-118289102D01*
X155299069Y-118196307D01*
X155061243Y-118149000D01*
X154818757Y-118149000D01*
X154580931Y-118196307D01*
X154356903Y-118289102D01*
X154155283Y-118423820D01*
X153983820Y-118595283D01*
X153849102Y-118796903D01*
X153756307Y-119020931D01*
X153709000Y-119258757D01*
X153709000Y-119501243D01*
X153756307Y-119739069D01*
X153788242Y-119816167D01*
X153555408Y-120049001D01*
X153433499Y-120049001D01*
X153490898Y-119963097D01*
X153583693Y-119739069D01*
X153631000Y-119501243D01*
X153631000Y-119258757D01*
X153583693Y-119020931D01*
X153490898Y-118796903D01*
X153356180Y-118595283D01*
X153184717Y-118423820D01*
X152983097Y-118289102D01*
X152759069Y-118196307D01*
X152521243Y-118149000D01*
X152278757Y-118149000D01*
X152040931Y-118196307D01*
X151816903Y-118289102D01*
X151615283Y-118423820D01*
X151443820Y-118595283D01*
X151395243Y-118667984D01*
X151395243Y-118560348D01*
X151963833Y-117991758D01*
X152040931Y-118023693D01*
X152278757Y-118071000D01*
X152521243Y-118071000D01*
X152759069Y-118023693D01*
X152983097Y-117930898D01*
X153184717Y-117796180D01*
X153356180Y-117624717D01*
X153490898Y-117423097D01*
X153583693Y-117199069D01*
X153631000Y-116961243D01*
X153631000Y-116718757D01*
X153709000Y-116718757D01*
X153709000Y-116961243D01*
X153756307Y-117199069D01*
X153849102Y-117423097D01*
X153983820Y-117624717D01*
X154155283Y-117796180D01*
X154356903Y-117930898D01*
X154580931Y-118023693D01*
X154818757Y-118071000D01*
X155061243Y-118071000D01*
X155299069Y-118023693D01*
X155523097Y-117930898D01*
X155724717Y-117796180D01*
X155896180Y-117624717D01*
X156030898Y-117423097D01*
X156123693Y-117199069D01*
X156171000Y-116961243D01*
X156171000Y-116718757D01*
X156123693Y-116480931D01*
X156030898Y-116256903D01*
X155896180Y-116055283D01*
X155724717Y-115883820D01*
X155523097Y-115749102D01*
X155299069Y-115656307D01*
X155061243Y-115609000D01*
X154818757Y-115609000D01*
X154580931Y-115656307D01*
X154356903Y-115749102D01*
X154155283Y-115883820D01*
X153983820Y-116055283D01*
X153849102Y-116256903D01*
X153756307Y-116480931D01*
X153709000Y-116718757D01*
X153631000Y-116718757D01*
X153583693Y-116480931D01*
X153490898Y-116256903D01*
X153356180Y-116055283D01*
X153184717Y-115883820D01*
X152983097Y-115749102D01*
X152759069Y-115656307D01*
X152521243Y-115609000D01*
X152278757Y-115609000D01*
X152040931Y-115656307D01*
X151816903Y-115749102D01*
X151615283Y-115883820D01*
X151443820Y-116055283D01*
X151395243Y-116127984D01*
X151395243Y-115954600D01*
X151383563Y-115836016D01*
X151348974Y-115721989D01*
X151292803Y-115616901D01*
X151233468Y-115544600D01*
X151292803Y-115472299D01*
X151348974Y-115367211D01*
X151383563Y-115253184D01*
X151395243Y-115134600D01*
X151395243Y-115012016D01*
X151443820Y-115084717D01*
X151615283Y-115256180D01*
X151816903Y-115390898D01*
X152040931Y-115483693D01*
X152278757Y-115531000D01*
X152521243Y-115531000D01*
X152759069Y-115483693D01*
X152983097Y-115390898D01*
X153184717Y-115256180D01*
X153356180Y-115084717D01*
X153490898Y-114883097D01*
X153583693Y-114659069D01*
X153631000Y-114421243D01*
X153631000Y-114178757D01*
X153709000Y-114178757D01*
X153709000Y-114421243D01*
X153756307Y-114659069D01*
X153849102Y-114883097D01*
X153983820Y-115084717D01*
X154155283Y-115256180D01*
X154356903Y-115390898D01*
X154580931Y-115483693D01*
X154818757Y-115531000D01*
X155061243Y-115531000D01*
X155299069Y-115483693D01*
X155523097Y-115390898D01*
X155724717Y-115256180D01*
X155896180Y-115084717D01*
X156030898Y-114883097D01*
X156123693Y-114659069D01*
X156171000Y-114421243D01*
X156171000Y-114178757D01*
X156123693Y-113940931D01*
X156030898Y-113716903D01*
X155896180Y-113515283D01*
X155724717Y-113343820D01*
X155523097Y-113209102D01*
X155299069Y-113116307D01*
X155061243Y-113069000D01*
X154818757Y-113069000D01*
X154580931Y-113116307D01*
X154356903Y-113209102D01*
X154155283Y-113343820D01*
X153983820Y-113515283D01*
X153849102Y-113716903D01*
X153756307Y-113940931D01*
X153709000Y-114178757D01*
X153631000Y-114178757D01*
X153583693Y-113940931D01*
X153490898Y-113716903D01*
X153356180Y-113515283D01*
X153184717Y-113343820D01*
X152983097Y-113209102D01*
X152759069Y-113116307D01*
X152521243Y-113069000D01*
X152427392Y-113069000D01*
X152349392Y-112991000D01*
X152521243Y-112991000D01*
X152759069Y-112943693D01*
X152983097Y-112850898D01*
X153184717Y-112716180D01*
X153356180Y-112544717D01*
X153490898Y-112343097D01*
X153583693Y-112119069D01*
X153631000Y-111881243D01*
X153631000Y-111638757D01*
X153709000Y-111638757D01*
X153709000Y-111881243D01*
X153756307Y-112119069D01*
X153849102Y-112343097D01*
X153983820Y-112544717D01*
X154155283Y-112716180D01*
X154356903Y-112850898D01*
X154580931Y-112943693D01*
X154818757Y-112991000D01*
X155061243Y-112991000D01*
X155299069Y-112943693D01*
X155523097Y-112850898D01*
X155724717Y-112716180D01*
X155896180Y-112544717D01*
X156030898Y-112343097D01*
X156123693Y-112119069D01*
X156171000Y-111881243D01*
X156171000Y-111638757D01*
X156123693Y-111400931D01*
X156030898Y-111176903D01*
X155896180Y-110975283D01*
X155724717Y-110803820D01*
X155523097Y-110669102D01*
X155299069Y-110576307D01*
X155061243Y-110529000D01*
X154818757Y-110529000D01*
X154580931Y-110576307D01*
X154356903Y-110669102D01*
X154155283Y-110803820D01*
X153983820Y-110975283D01*
X153849102Y-111176903D01*
X153756307Y-111400931D01*
X153709000Y-111638757D01*
X153631000Y-111638757D01*
X153583693Y-111400931D01*
X153551758Y-111323833D01*
X153915221Y-110960371D01*
X153934528Y-110944526D01*
X153997760Y-110867478D01*
X154044746Y-110779574D01*
X154073679Y-110684192D01*
X154081001Y-110609853D01*
X154081001Y-110609846D01*
X154083448Y-110585000D01*
X154081001Y-110560154D01*
X154081001Y-110101898D01*
X154155283Y-110176180D01*
X154356903Y-110310898D01*
X154580931Y-110403693D01*
X154818757Y-110451000D01*
X155061243Y-110451000D01*
X155299069Y-110403693D01*
X155523097Y-110310898D01*
X155724717Y-110176180D01*
X155896180Y-110004717D01*
X156030898Y-109803097D01*
X156123693Y-109579069D01*
X156171000Y-109341243D01*
X156171000Y-109098757D01*
X156123693Y-108860931D01*
X156030898Y-108636903D01*
X155896180Y-108435283D01*
X155724717Y-108263820D01*
X155523097Y-108129102D01*
X155418683Y-108085852D01*
X155573747Y-108030919D01*
X155711157Y-107957472D01*
X155788792Y-107708397D01*
X154940000Y-106859605D01*
X154091208Y-107708397D01*
X154168843Y-107957472D01*
X154432883Y-108083371D01*
X154454228Y-108088789D01*
X154356903Y-108129102D01*
X154155283Y-108263820D01*
X154063116Y-108355987D01*
X154044746Y-108295426D01*
X154034962Y-108277122D01*
X153997760Y-108207522D01*
X153934528Y-108130474D01*
X153915221Y-108114629D01*
X153505375Y-107704784D01*
X153489526Y-107685472D01*
X153412478Y-107622240D01*
X153324574Y-107575254D01*
X153264013Y-107556884D01*
X153356180Y-107464717D01*
X153490898Y-107263097D01*
X153534148Y-107158683D01*
X153589081Y-107313747D01*
X153662528Y-107451157D01*
X153911603Y-107528792D01*
X154760395Y-106680000D01*
X153911603Y-105831208D01*
X153662528Y-105908843D01*
X153536629Y-106172883D01*
X153531211Y-106194228D01*
X153490898Y-106096903D01*
X153356180Y-105895283D01*
X153184717Y-105723820D01*
X152983097Y-105589102D01*
X152759069Y-105496307D01*
X152521243Y-105449000D01*
X152278757Y-105449000D01*
X152040931Y-105496307D01*
X151816903Y-105589102D01*
X151647996Y-105701962D01*
X151650472Y-105569600D01*
X151638212Y-105445118D01*
X151601902Y-105325420D01*
X151542937Y-105215106D01*
X151535464Y-105206000D01*
X154757009Y-105206000D01*
X154581981Y-105231401D01*
G37*
X154581981Y-105231401D02*
X154306253Y-105329081D01*
X154168843Y-105402528D01*
X154091208Y-105651603D01*
X154940000Y-106500395D01*
X154954143Y-106486253D01*
X155133748Y-106665858D01*
X155119605Y-106680000D01*
X155968397Y-107528792D01*
X156217472Y-107451157D01*
X156271881Y-107337048D01*
X156271882Y-131862632D01*
X156239994Y-131836463D01*
X156129680Y-131777498D01*
X156009982Y-131741188D01*
X155885500Y-131728928D01*
X155733750Y-131732000D01*
X155575000Y-131890750D01*
X155575000Y-132715000D01*
X155595000Y-132715000D01*
X155595000Y-132969000D01*
X155575000Y-132969000D01*
X155575000Y-133793250D01*
X155716000Y-133934250D01*
X155600500Y-134049750D01*
X155600500Y-134874000D01*
X155620500Y-134874000D01*
X155620500Y-135128000D01*
X155600500Y-135128000D01*
X155600500Y-135952250D01*
X155759250Y-136111000D01*
X155911000Y-136114072D01*
X156035482Y-136101812D01*
X156155180Y-136065502D01*
X156265494Y-136006537D01*
X156271882Y-136001295D01*
X156271882Y-143341073D01*
X156267557Y-143457480D01*
X156255598Y-143564539D01*
X156235872Y-143669947D01*
X156208544Y-143773315D01*
X156173775Y-143874255D01*
X156131740Y-143972341D01*
X156082607Y-144067158D01*
X156026543Y-144158315D01*
X155963716Y-144245406D01*
X155892558Y-144330089D01*
X155846330Y-144378668D01*
X155764893Y-144454269D01*
X155680735Y-144521513D01*
X155592258Y-144582097D01*
X155499842Y-144635866D01*
X155403877Y-144682658D01*
X155304802Y-144722288D01*
X155203004Y-144754596D01*
X155098910Y-144779408D01*
X154992901Y-144796565D01*
X154882727Y-144806128D01*
X154807644Y-144807989D01*
X146019439Y-144807989D01*
X146129764Y-144736369D01*
X146290161Y-144580169D01*
X146417003Y-144395678D01*
X146505415Y-144189987D01*
X146552000Y-143971000D01*
X146552000Y-143671000D01*
X145544000Y-143671000D01*
X145544000Y-143691000D01*
X145290000Y-143691000D01*
X145290000Y-143671000D01*
X144282000Y-143671000D01*
X144282000Y-143971000D01*
X144328585Y-144189987D01*
X144416997Y-144395678D01*
X144543839Y-144580169D01*
X144704236Y-144736369D01*
X144814561Y-144807989D01*
X137379439Y-144807989D01*
X137489764Y-144736369D01*
X137650161Y-144580169D01*
X137777003Y-144395678D01*
X137865415Y-144189987D01*
X137912000Y-143971000D01*
X137912000Y-143671000D01*
X136904000Y-143671000D01*
X136904000Y-143691000D01*
X136650000Y-143691000D01*
X136650000Y-143671000D01*
X136630000Y-143671000D01*
X136630000Y-143417000D01*
X136650000Y-143417000D01*
X136650000Y-142276046D01*
X136904000Y-142276046D01*
X136904000Y-143417000D01*
X137912000Y-143417000D01*
X137912000Y-143117000D01*
X144282000Y-143117000D01*
X144282000Y-143417000D01*
X145290000Y-143417000D01*
X145290000Y-142276046D01*
X145544000Y-142276046D01*
X145544000Y-143417000D01*
X146552000Y-143417000D01*
X146552000Y-143117000D01*
X146505415Y-142898013D01*
X146417003Y-142692322D01*
X146290161Y-142507831D01*
X146129764Y-142351631D01*
X145941976Y-142229724D01*
X145718874Y-142149881D01*
X145544000Y-142276046D01*
X145290000Y-142276046D01*
X145115126Y-142149881D01*
X144892024Y-142229724D01*
X144704236Y-142351631D01*
X144543839Y-142507831D01*
X144416997Y-142692322D01*
X144328585Y-142898013D01*
X144282000Y-143117000D01*
X137912000Y-143117000D01*
X137865415Y-142898013D01*
X137777003Y-142692322D01*
X137650161Y-142507831D01*
X137489764Y-142351631D01*
X137301976Y-142229724D01*
X137078874Y-142149881D01*
X136904000Y-142276046D01*
X136650000Y-142276046D01*
X136475126Y-142149881D01*
X136252024Y-142229724D01*
X136064236Y-142351631D01*
X135943854Y-142468863D01*
X135944072Y-142443000D01*
X135931812Y-142318518D01*
X135895502Y-142198820D01*
X135836537Y-142088506D01*
X135757185Y-141991815D01*
X135660494Y-141912463D01*
X135550180Y-141853498D01*
X135430482Y-141817188D01*
X135306000Y-141804928D01*
X134816750Y-141808000D01*
X134658000Y-141966750D01*
X134658000Y-142966000D01*
X134678000Y-142966000D01*
X134678000Y-143220000D01*
X134658000Y-143220000D01*
X134658000Y-144219250D01*
X134816750Y-144378000D01*
X135306000Y-144381072D01*
X135430482Y-144368812D01*
X135550180Y-144332502D01*
X135660494Y-144273537D01*
X135707807Y-144234708D01*
X135776997Y-144395678D01*
X135903839Y-144580169D01*
X136064236Y-144736369D01*
X136174561Y-144807989D01*
X127136779Y-144807989D01*
X127020398Y-144803665D01*
X126913339Y-144791706D01*
X126807931Y-144771980D01*
X126704563Y-144744652D01*
X126603623Y-144709883D01*
X126505537Y-144667848D01*
X126410720Y-144618715D01*
X126319563Y-144562651D01*
X126232472Y-144499824D01*
X126147790Y-144428667D01*
X126099212Y-144382438D01*
X126096252Y-144379250D01*
X126295250Y-144378000D01*
X126454000Y-144219250D01*
X126454000Y-143220000D01*
X126708000Y-143220000D01*
X126708000Y-144219250D01*
X126866750Y-144378000D01*
X127356000Y-144381072D01*
X127480482Y-144368812D01*
X127600180Y-144332502D01*
X127710494Y-144273537D01*
X127807185Y-144194185D01*
X127886537Y-144097494D01*
X127945502Y-143987180D01*
X127981812Y-143867482D01*
X127994072Y-143743000D01*
X133117928Y-143743000D01*
X133130188Y-143867482D01*
X133166498Y-143987180D01*
X133225463Y-144097494D01*
X133304815Y-144194185D01*
X133401506Y-144273537D01*
X133511820Y-144332502D01*
X133631518Y-144368812D01*
X133756000Y-144381072D01*
X134245250Y-144378000D01*
X134404000Y-144219250D01*
X134404000Y-143220000D01*
X133279750Y-143220000D01*
X133121000Y-143378750D01*
X133117928Y-143743000D01*
X127994072Y-143743000D01*
X127991000Y-143378750D01*
X127832250Y-143220000D01*
X126708000Y-143220000D01*
X126454000Y-143220000D01*
X126434000Y-143220000D01*
X126434000Y-142966000D01*
X126454000Y-142966000D01*
X126454000Y-141966750D01*
X126708000Y-141966750D01*
X126708000Y-142966000D01*
X127832250Y-142966000D01*
X127991000Y-142807250D01*
X127994072Y-142443000D01*
X133117928Y-142443000D01*
X133121000Y-142807250D01*
X133279750Y-142966000D01*
X134404000Y-142966000D01*
X134404000Y-141966750D01*
X134245250Y-141808000D01*
X133756000Y-141804928D01*
X133631518Y-141817188D01*
X133511820Y-141853498D01*
X133401506Y-141912463D01*
X133304815Y-141991815D01*
X133225463Y-142088506D01*
X133166498Y-142198820D01*
X133130188Y-142318518D01*
X133117928Y-142443000D01*
X127994072Y-142443000D01*
X127981812Y-142318518D01*
X127945502Y-142198820D01*
X127886537Y-142088506D01*
X127807185Y-141991815D01*
X127710494Y-141912463D01*
X127600180Y-141853498D01*
X127480482Y-141817188D01*
X127356000Y-141804928D01*
X126866750Y-141808000D01*
X126708000Y-141966750D01*
X126454000Y-141966750D01*
X126295250Y-141808000D01*
X125806000Y-141804928D01*
X125681518Y-141817188D01*
X125669890Y-141820715D01*
X125669890Y-139599855D01*
X125731311Y-139618487D01*
X125806000Y-139625843D01*
X127356000Y-139625843D01*
X127430689Y-139618487D01*
X127502508Y-139596701D01*
X127568696Y-139561322D01*
X127626711Y-139513711D01*
X127674322Y-139455696D01*
X127709701Y-139389508D01*
X127731487Y-139317689D01*
X127738843Y-139243000D01*
X127738843Y-139099000D01*
X130495154Y-139099000D01*
X130520000Y-139101447D01*
X130544846Y-139099000D01*
X133373157Y-139099000D01*
X133373157Y-139243000D01*
X133380513Y-139317689D01*
X133402299Y-139389508D01*
X133437678Y-139455696D01*
X133485289Y-139513711D01*
X133543304Y-139561322D01*
X133609492Y-139596701D01*
X133681311Y-139618487D01*
X133756000Y-139625843D01*
X135306000Y-139625843D01*
X135380689Y-139618487D01*
X135452508Y-139596701D01*
X135518696Y-139561322D01*
X135576711Y-139513711D01*
X135624322Y-139455696D01*
X135642000Y-139422624D01*
X135642000Y-140041000D01*
X135688585Y-140259987D01*
X135776997Y-140465678D01*
X135903839Y-140650169D01*
X136064236Y-140806369D01*
X136252024Y-140928276D01*
X136475126Y-141008119D01*
X136650000Y-140881954D01*
X136650000Y-139491000D01*
X136630000Y-139491000D01*
X136630000Y-139237000D01*
X136650000Y-139237000D01*
X136650000Y-137846046D01*
X136475126Y-137719881D01*
X136252024Y-137799724D01*
X136064236Y-137921631D01*
X135903839Y-138077831D01*
X135776997Y-138262322D01*
X135688843Y-138467413D01*
X135688843Y-137943000D01*
X135681487Y-137868311D01*
X135659701Y-137796492D01*
X135624322Y-137730304D01*
X135576711Y-137672289D01*
X135518696Y-137624678D01*
X135452508Y-137589299D01*
X135380689Y-137567513D01*
X135306000Y-137560157D01*
X133756000Y-137560157D01*
X133681311Y-137567513D01*
X133609492Y-137589299D01*
X133543304Y-137624678D01*
X133485289Y-137672289D01*
X133437678Y-137730304D01*
X133402299Y-137796492D01*
X133380513Y-137868311D01*
X133373157Y-137943000D01*
X133373157Y-138087000D01*
X132042398Y-138087000D01*
X132068987Y-138022809D01*
X132099000Y-137871922D01*
X132099000Y-137718078D01*
X132068987Y-137567191D01*
X132010113Y-137425058D01*
X132000420Y-137410551D01*
X132091059Y-137471114D01*
X132233192Y-137529988D01*
X132384079Y-137560001D01*
X132537923Y-137560001D01*
X132688810Y-137529988D01*
X132830943Y-137471114D01*
X132958860Y-137385643D01*
X133067643Y-137276860D01*
X133153114Y-137148943D01*
X133211988Y-137006810D01*
X133242001Y-136855923D01*
X133242001Y-136702079D01*
X133235443Y-136669111D01*
X133326221Y-136578333D01*
X133345528Y-136562488D01*
X133408760Y-136485440D01*
X133455746Y-136397536D01*
X133465966Y-136363843D01*
X133484679Y-136302155D01*
X133486658Y-136282058D01*
X133492001Y-136227815D01*
X133492001Y-136227808D01*
X133494448Y-136202962D01*
X133492593Y-136184128D01*
X133524518Y-136193812D01*
X133649000Y-136206072D01*
X133800750Y-136203000D01*
X133959500Y-136044250D01*
X133959500Y-135220000D01*
X133939500Y-135220000D01*
X133939500Y-134966000D01*
X133959500Y-134966000D01*
X133959500Y-134141750D01*
X133800750Y-133983000D01*
X133649000Y-133979928D01*
X133524518Y-133992188D01*
X133404820Y-134028498D01*
X133294506Y-134087463D01*
X133197815Y-134166815D01*
X133118463Y-134263506D01*
X133064843Y-134363820D01*
X133064843Y-134172750D01*
X133053284Y-134055385D01*
X133019049Y-133942530D01*
X132963456Y-133838523D01*
X132888640Y-133747360D01*
X132797477Y-133672544D01*
X132693470Y-133616951D01*
X132650777Y-133604000D01*
X132693470Y-133591049D01*
X132797477Y-133535456D01*
X132888640Y-133460640D01*
X132963456Y-133369477D01*
X133019049Y-133265470D01*
X133032947Y-133219654D01*
X133059498Y-133307180D01*
X133118463Y-133417494D01*
X133197815Y-133514185D01*
X133294506Y-133593537D01*
X133404820Y-133652502D01*
X133524518Y-133688812D01*
X133649000Y-133701072D01*
X133800750Y-133698000D01*
X133959500Y-133539250D01*
X133959500Y-132715000D01*
X133939500Y-132715000D01*
X133939500Y-132461000D01*
X133959500Y-132461000D01*
X133959500Y-132441000D01*
X134213500Y-132441000D01*
X134213500Y-132461000D01*
X134233500Y-132461000D01*
X134233500Y-132715000D01*
X134213500Y-132715000D01*
X134213500Y-133539250D01*
X134372250Y-133698000D01*
X134524000Y-133701072D01*
X134648482Y-133688812D01*
X134768180Y-133652502D01*
X134878494Y-133593537D01*
X134975185Y-133514185D01*
X135054537Y-133417494D01*
X135098134Y-133335930D01*
X135108523Y-133344456D01*
X135212530Y-133400049D01*
X135325385Y-133434284D01*
X135442750Y-133445843D01*
X135797768Y-133445843D01*
X135774013Y-133503191D01*
X135744000Y-133654078D01*
X135744000Y-133807922D01*
X135774013Y-133958809D01*
X135832887Y-134100942D01*
X135918358Y-134228859D01*
X135929507Y-134240008D01*
X135880250Y-134235157D01*
X135442750Y-134235157D01*
X135325385Y-134246716D01*
X135212530Y-134280951D01*
X135108523Y-134336544D01*
X135098134Y-134345070D01*
X135054537Y-134263506D01*
X134975185Y-134166815D01*
X134878494Y-134087463D01*
X134768180Y-134028498D01*
X134648482Y-133992188D01*
X134524000Y-133979928D01*
X134372250Y-133983000D01*
X134213500Y-134141750D01*
X134213500Y-134966000D01*
X134233500Y-134966000D01*
X134233500Y-135220000D01*
X134213500Y-135220000D01*
X134213500Y-136044250D01*
X134372250Y-136203000D01*
X134524000Y-136206072D01*
X134648482Y-136193812D01*
X134768180Y-136157502D01*
X134878494Y-136098537D01*
X134975185Y-136019185D01*
X135054537Y-135922494D01*
X135098134Y-135840930D01*
X135108523Y-135849456D01*
X135212530Y-135905049D01*
X135325385Y-135939284D01*
X135442750Y-135950843D01*
X135803751Y-135950843D01*
X135892001Y-136039093D01*
X135892001Y-136053498D01*
X135791358Y-136154141D01*
X135705887Y-136282058D01*
X135647013Y-136424191D01*
X135617000Y-136575078D01*
X135617000Y-136728922D01*
X135647013Y-136879809D01*
X135705887Y-137021942D01*
X135791358Y-137149859D01*
X135900141Y-137258642D01*
X136028058Y-137344113D01*
X136170191Y-137402987D01*
X136321078Y-137433000D01*
X136474922Y-137433000D01*
X136625809Y-137402987D01*
X136767942Y-137344113D01*
X136895859Y-137258642D01*
X137004642Y-137149859D01*
X137090113Y-137021942D01*
X137148987Y-136879809D01*
X137179000Y-136728922D01*
X137179000Y-136575078D01*
X137148987Y-136424191D01*
X137090113Y-136282058D01*
X137004642Y-136154141D01*
X136904000Y-136053499D01*
X136904000Y-135854345D01*
X136906447Y-135829499D01*
X136904000Y-135804653D01*
X136904000Y-135804646D01*
X136896678Y-135730307D01*
X136896224Y-135728808D01*
X136886097Y-135695426D01*
X136868675Y-135637990D01*
X136931034Y-135637990D01*
X137081921Y-135607977D01*
X137224054Y-135549103D01*
X137351971Y-135463632D01*
X137460754Y-135354849D01*
X137546225Y-135226932D01*
X137579541Y-135146500D01*
X137606157Y-135146500D01*
X137606157Y-135203000D01*
X137614714Y-135289882D01*
X137640057Y-135373425D01*
X137681211Y-135450419D01*
X137736595Y-135517905D01*
X137804081Y-135573289D01*
X137881075Y-135614443D01*
X137964618Y-135639786D01*
X138051500Y-135648343D01*
X138581157Y-135648343D01*
X138581157Y-136178000D01*
X138589714Y-136264882D01*
X138615057Y-136348425D01*
X138656211Y-136425419D01*
X138711595Y-136492905D01*
X138779081Y-136548289D01*
X138856075Y-136589443D01*
X138939618Y-136614786D01*
X138951489Y-136615955D01*
X139002508Y-136681138D01*
X139097340Y-136762703D01*
X139206262Y-136824201D01*
X139325089Y-136863268D01*
X139430250Y-136875500D01*
X139584906Y-136720844D01*
X139590322Y-136775835D01*
X139619255Y-136871217D01*
X139666241Y-136959122D01*
X139729473Y-137036170D01*
X139748785Y-137052019D01*
X140042393Y-137345628D01*
X139997000Y-137341157D01*
X139697000Y-137341157D01*
X139622311Y-137348513D01*
X139597000Y-137356191D01*
X139571689Y-137348513D01*
X139497000Y-137341157D01*
X139197000Y-137341157D01*
X139122311Y-137348513D01*
X139072000Y-137363775D01*
X139021689Y-137348513D01*
X138947000Y-137341157D01*
X138654272Y-137341157D01*
X138598185Y-137272815D01*
X138501494Y-137193463D01*
X138391180Y-137134498D01*
X138271482Y-137098188D01*
X138147000Y-137085928D01*
X138132750Y-137089000D01*
X137974000Y-137247750D01*
X137974000Y-137641112D01*
X137971513Y-137649311D01*
X137964157Y-137724000D01*
X137964157Y-138596000D01*
X137892642Y-138596000D01*
X137865415Y-138468013D01*
X137777003Y-138262322D01*
X137720000Y-138179411D01*
X137720000Y-137247750D01*
X137561250Y-137089000D01*
X137547000Y-137085928D01*
X137422518Y-137098188D01*
X137302820Y-137134498D01*
X137192506Y-137193463D01*
X137095815Y-137272815D01*
X137016463Y-137369506D01*
X136957498Y-137479820D01*
X136921188Y-137599518D01*
X136908928Y-137724000D01*
X136909753Y-137841896D01*
X136904000Y-137846046D01*
X136904000Y-139237000D01*
X136915133Y-139237000D01*
X136921188Y-139298482D01*
X136924000Y-139307752D01*
X136924000Y-139491000D01*
X136904000Y-139491000D01*
X136904000Y-140881954D01*
X137078874Y-141008119D01*
X137301976Y-140928276D01*
X137489764Y-140806369D01*
X137650161Y-140650169D01*
X137777003Y-140465678D01*
X137780307Y-140457992D01*
X137872584Y-140519649D01*
X138001067Y-140572869D01*
X138137465Y-140600000D01*
X138241156Y-140600000D01*
X138292454Y-140662508D01*
X138311763Y-140678355D01*
X139388177Y-141754769D01*
X139391229Y-141760479D01*
X139454461Y-141837527D01*
X139473773Y-141853376D01*
X139565612Y-141945215D01*
X139581461Y-141964527D01*
X139658509Y-142027759D01*
X139746413Y-142074745D01*
X139791778Y-142088506D01*
X139841794Y-142103678D01*
X139851682Y-142104652D01*
X139916134Y-142111000D01*
X139916141Y-142111000D01*
X139940987Y-142113447D01*
X139965833Y-142111000D01*
X141951114Y-142111000D01*
X141975960Y-142113447D01*
X142000806Y-142111000D01*
X142000814Y-142111000D01*
X142075153Y-142103678D01*
X142170535Y-142074745D01*
X142258439Y-142027759D01*
X142335487Y-141964527D01*
X142351336Y-141945215D01*
X143740490Y-140556061D01*
X143781067Y-140572869D01*
X143917465Y-140600000D01*
X144056535Y-140600000D01*
X144192933Y-140572869D01*
X144321416Y-140519649D01*
X144413693Y-140457992D01*
X144416997Y-140465678D01*
X144543839Y-140650169D01*
X144704236Y-140806369D01*
X144892024Y-140928276D01*
X145115126Y-141008119D01*
X145290000Y-140881954D01*
X145290000Y-139491000D01*
X145544000Y-139491000D01*
X145544000Y-140881954D01*
X145718874Y-141008119D01*
X145941976Y-140928276D01*
X146129764Y-140806369D01*
X146290161Y-140650169D01*
X146417003Y-140465678D01*
X146505415Y-140259987D01*
X146552000Y-140041000D01*
X146552000Y-139491000D01*
X145544000Y-139491000D01*
X145290000Y-139491000D01*
X145270000Y-139491000D01*
X145270000Y-139307752D01*
X145272812Y-139298482D01*
X145278867Y-139237000D01*
X145290000Y-139237000D01*
X145290000Y-137846046D01*
X145544000Y-137846046D01*
X145544000Y-139237000D01*
X146552000Y-139237000D01*
X146552000Y-138687000D01*
X146505415Y-138468013D01*
X146417003Y-138262322D01*
X146290161Y-138077831D01*
X146129764Y-137921631D01*
X145941976Y-137799724D01*
X145718874Y-137719881D01*
X145544000Y-137846046D01*
X145290000Y-137846046D01*
X145284247Y-137841896D01*
X145285072Y-137724000D01*
X145272812Y-137599518D01*
X145236502Y-137479820D01*
X145177537Y-137369506D01*
X145098185Y-137272815D01*
X145001494Y-137193463D01*
X144891180Y-137134498D01*
X144771482Y-137098188D01*
X144650335Y-137086256D01*
X145022230Y-136714362D01*
X145041537Y-136698517D01*
X145104769Y-136621469D01*
X145105025Y-136620990D01*
X152404164Y-136620990D01*
X152429010Y-136623437D01*
X152453856Y-136620990D01*
X152453864Y-136620990D01*
X152528203Y-136613668D01*
X152623585Y-136584735D01*
X152711489Y-136537749D01*
X152788537Y-136474517D01*
X152804386Y-136455205D01*
X153447583Y-135812008D01*
X153449530Y-135813049D01*
X153562385Y-135847284D01*
X153679750Y-135858843D01*
X154117250Y-135858843D01*
X154234615Y-135847284D01*
X154347470Y-135813049D01*
X154451477Y-135757456D01*
X154461866Y-135748930D01*
X154505463Y-135830494D01*
X154584815Y-135927185D01*
X154681506Y-136006537D01*
X154791820Y-136065502D01*
X154911518Y-136101812D01*
X155036000Y-136114072D01*
X155187750Y-136111000D01*
X155346500Y-135952250D01*
X155346500Y-135128000D01*
X155326500Y-135128000D01*
X155326500Y-134874000D01*
X155346500Y-134874000D01*
X155346500Y-134049750D01*
X155205500Y-133908750D01*
X155321000Y-133793250D01*
X155321000Y-132969000D01*
X155301000Y-132969000D01*
X155301000Y-132715000D01*
X155321000Y-132715000D01*
X155321000Y-131890750D01*
X155162250Y-131732000D01*
X155010500Y-131728928D01*
X154886018Y-131741188D01*
X154766320Y-131777498D01*
X154656006Y-131836463D01*
X154559315Y-131915815D01*
X154479963Y-132012506D01*
X154436366Y-132094070D01*
X154425977Y-132085544D01*
X154343999Y-132041726D01*
X154343999Y-130622276D01*
X154356903Y-130630898D01*
X154580931Y-130723693D01*
X154818757Y-130771000D01*
X155061243Y-130771000D01*
X155299069Y-130723693D01*
X155523097Y-130630898D01*
X155724717Y-130496180D01*
X155896180Y-130324717D01*
X156030898Y-130123097D01*
X156123693Y-129899069D01*
X156171000Y-129661243D01*
X156171000Y-129418757D01*
X156123693Y-129180931D01*
X156030898Y-128956903D01*
X155896180Y-128755283D01*
X155724717Y-128583820D01*
X155523097Y-128449102D01*
X155299069Y-128356307D01*
X155061243Y-128309000D01*
X154818757Y-128309000D01*
X154580931Y-128356307D01*
X154356903Y-128449102D01*
X154343999Y-128457724D01*
X154343999Y-128082276D01*
X154356903Y-128090898D01*
X154580931Y-128183693D01*
X154818757Y-128231000D01*
X155061243Y-128231000D01*
X155299069Y-128183693D01*
X155523097Y-128090898D01*
X155724717Y-127956180D01*
X155896180Y-127784717D01*
X156030898Y-127583097D01*
X156123693Y-127359069D01*
X156171000Y-127121243D01*
X156171000Y-126878757D01*
X156123693Y-126640931D01*
X156030898Y-126416903D01*
X155896180Y-126215283D01*
X155724717Y-126043820D01*
X155523097Y-125909102D01*
X155299069Y-125816307D01*
X155061243Y-125769000D01*
X154818757Y-125769000D01*
X154580931Y-125816307D01*
X154356903Y-125909102D01*
X154344540Y-125917363D01*
X154346447Y-125897999D01*
X154336677Y-125798806D01*
X154307744Y-125703424D01*
X154301103Y-125691000D01*
X154260758Y-125615520D01*
X154197526Y-125538472D01*
X154178219Y-125522627D01*
X153551758Y-124896167D01*
X153583693Y-124819069D01*
X153631000Y-124581243D01*
X153631000Y-124338757D01*
X153709000Y-124338757D01*
X153709000Y-124581243D01*
X153756307Y-124819069D01*
X153849102Y-125043097D01*
X153983820Y-125244717D01*
X154155283Y-125416180D01*
X154356903Y-125550898D01*
X154580931Y-125643693D01*
X154818757Y-125691000D01*
X155061243Y-125691000D01*
X155299069Y-125643693D01*
X155523097Y-125550898D01*
X155724717Y-125416180D01*
X155896180Y-125244717D01*
X156030898Y-125043097D01*
X156123693Y-124819069D01*
X156171000Y-124581243D01*
X156171000Y-124338757D01*
X156123693Y-124100931D01*
X156030898Y-123876903D01*
X155896180Y-123675283D01*
X155724717Y-123503820D01*
X155523097Y-123369102D01*
X155299069Y-123276307D01*
X155061243Y-123229000D01*
X154818757Y-123229000D01*
X154580931Y-123276307D01*
X154356903Y-123369102D01*
X154155283Y-123503820D01*
X153983820Y-123675283D01*
X153849102Y-123876903D01*
X153756307Y-124100931D01*
X153709000Y-124338757D01*
X153631000Y-124338757D01*
X153583693Y-124100931D01*
X153490898Y-123876903D01*
X153356180Y-123675283D01*
X153281898Y-123601001D01*
X153740153Y-123601001D01*
X153764999Y-123603448D01*
X153789845Y-123601001D01*
X153789853Y-123601001D01*
X153864192Y-123593679D01*
X153959574Y-123564746D01*
X154047478Y-123517760D01*
X154124526Y-123454528D01*
X154140375Y-123435216D01*
X154503833Y-123071758D01*
X154580931Y-123103693D01*
X154818757Y-123151000D01*
X155061243Y-123151000D01*
X155299069Y-123103693D01*
X155523097Y-123010898D01*
X155724717Y-122876180D01*
X155896180Y-122704717D01*
X156030898Y-122503097D01*
X156123693Y-122279069D01*
X156171000Y-122041243D01*
X156171000Y-121798757D01*
X156123693Y-121560931D01*
X156030898Y-121336903D01*
X155896180Y-121135283D01*
X155724717Y-120963820D01*
X155523097Y-120829102D01*
X155299069Y-120736307D01*
X155061243Y-120689000D01*
X154818757Y-120689000D01*
X154580931Y-120736307D01*
X154356903Y-120829102D01*
X154155283Y-120963820D01*
X153983820Y-121135283D01*
X153849102Y-121336903D01*
X153805091Y-121443154D01*
X153796825Y-121415901D01*
X153671641Y-121153080D01*
X153602960Y-121061001D01*
X153740153Y-121061001D01*
X153764999Y-121063448D01*
X153789845Y-121061001D01*
X153789853Y-121061001D01*
X153864192Y-121053679D01*
X153959574Y-121024746D01*
X154047478Y-120977760D01*
X154124526Y-120914528D01*
X154140375Y-120895216D01*
X154503833Y-120531758D01*
X154580931Y-120563693D01*
X154818757Y-120611000D01*
X155061243Y-120611000D01*
X155299069Y-120563693D01*
X155523097Y-120470898D01*
X155724717Y-120336180D01*
X155896180Y-120164717D01*
X156030898Y-119963097D01*
X156123693Y-119739069D01*
X156171000Y-119501243D01*
X156171000Y-119258757D01*
X156123693Y-119020931D01*
X156030898Y-118796903D01*
X155896180Y-118595283D01*
X155724717Y-118423820D01*
X155523097Y-118289102D01*
X155299069Y-118196307D01*
X155061243Y-118149000D01*
X154818757Y-118149000D01*
X154580931Y-118196307D01*
X154356903Y-118289102D01*
X154155283Y-118423820D01*
X153983820Y-118595283D01*
X153849102Y-118796903D01*
X153756307Y-119020931D01*
X153709000Y-119258757D01*
X153709000Y-119501243D01*
X153756307Y-119739069D01*
X153788242Y-119816167D01*
X153555408Y-120049001D01*
X153433499Y-120049001D01*
X153490898Y-119963097D01*
X153583693Y-119739069D01*
X153631000Y-119501243D01*
X153631000Y-119258757D01*
X153583693Y-119020931D01*
X153490898Y-118796903D01*
X153356180Y-118595283D01*
X153184717Y-118423820D01*
X152983097Y-118289102D01*
X152759069Y-118196307D01*
X152521243Y-118149000D01*
X152278757Y-118149000D01*
X152040931Y-118196307D01*
X151816903Y-118289102D01*
X151615283Y-118423820D01*
X151443820Y-118595283D01*
X151395243Y-118667984D01*
X151395243Y-118560348D01*
X151963833Y-117991758D01*
X152040931Y-118023693D01*
X152278757Y-118071000D01*
X152521243Y-118071000D01*
X152759069Y-118023693D01*
X152983097Y-117930898D01*
X153184717Y-117796180D01*
X153356180Y-117624717D01*
X153490898Y-117423097D01*
X153583693Y-117199069D01*
X153631000Y-116961243D01*
X153631000Y-116718757D01*
X153709000Y-116718757D01*
X153709000Y-116961243D01*
X153756307Y-117199069D01*
X153849102Y-117423097D01*
X153983820Y-117624717D01*
X154155283Y-117796180D01*
X154356903Y-117930898D01*
X154580931Y-118023693D01*
X154818757Y-118071000D01*
X155061243Y-118071000D01*
X155299069Y-118023693D01*
X155523097Y-117930898D01*
X155724717Y-117796180D01*
X155896180Y-117624717D01*
X156030898Y-117423097D01*
X156123693Y-117199069D01*
X156171000Y-116961243D01*
X156171000Y-116718757D01*
X156123693Y-116480931D01*
X156030898Y-116256903D01*
X155896180Y-116055283D01*
X155724717Y-115883820D01*
X155523097Y-115749102D01*
X155299069Y-115656307D01*
X155061243Y-115609000D01*
X154818757Y-115609000D01*
X154580931Y-115656307D01*
X154356903Y-115749102D01*
X154155283Y-115883820D01*
X153983820Y-116055283D01*
X153849102Y-116256903D01*
X153756307Y-116480931D01*
X153709000Y-116718757D01*
X153631000Y-116718757D01*
X153583693Y-116480931D01*
X153490898Y-116256903D01*
X153356180Y-116055283D01*
X153184717Y-115883820D01*
X152983097Y-115749102D01*
X152759069Y-115656307D01*
X152521243Y-115609000D01*
X152278757Y-115609000D01*
X152040931Y-115656307D01*
X151816903Y-115749102D01*
X151615283Y-115883820D01*
X151443820Y-116055283D01*
X151395243Y-116127984D01*
X151395243Y-115954600D01*
X151383563Y-115836016D01*
X151348974Y-115721989D01*
X151292803Y-115616901D01*
X151233468Y-115544600D01*
X151292803Y-115472299D01*
X151348974Y-115367211D01*
X151383563Y-115253184D01*
X151395243Y-115134600D01*
X151395243Y-115012016D01*
X151443820Y-115084717D01*
X151615283Y-115256180D01*
X151816903Y-115390898D01*
X152040931Y-115483693D01*
X152278757Y-115531000D01*
X152521243Y-115531000D01*
X152759069Y-115483693D01*
X152983097Y-115390898D01*
X153184717Y-115256180D01*
X153356180Y-115084717D01*
X153490898Y-114883097D01*
X153583693Y-114659069D01*
X153631000Y-114421243D01*
X153631000Y-114178757D01*
X153709000Y-114178757D01*
X153709000Y-114421243D01*
X153756307Y-114659069D01*
X153849102Y-114883097D01*
X153983820Y-115084717D01*
X154155283Y-115256180D01*
X154356903Y-115390898D01*
X154580931Y-115483693D01*
X154818757Y-115531000D01*
X155061243Y-115531000D01*
X155299069Y-115483693D01*
X155523097Y-115390898D01*
X155724717Y-115256180D01*
X155896180Y-115084717D01*
X156030898Y-114883097D01*
X156123693Y-114659069D01*
X156171000Y-114421243D01*
X156171000Y-114178757D01*
X156123693Y-113940931D01*
X156030898Y-113716903D01*
X155896180Y-113515283D01*
X155724717Y-113343820D01*
X155523097Y-113209102D01*
X155299069Y-113116307D01*
X155061243Y-113069000D01*
X154818757Y-113069000D01*
X154580931Y-113116307D01*
X154356903Y-113209102D01*
X154155283Y-113343820D01*
X153983820Y-113515283D01*
X153849102Y-113716903D01*
X153756307Y-113940931D01*
X153709000Y-114178757D01*
X153631000Y-114178757D01*
X153583693Y-113940931D01*
X153490898Y-113716903D01*
X153356180Y-113515283D01*
X153184717Y-113343820D01*
X152983097Y-113209102D01*
X152759069Y-113116307D01*
X152521243Y-113069000D01*
X152427392Y-113069000D01*
X152349392Y-112991000D01*
X152521243Y-112991000D01*
X152759069Y-112943693D01*
X152983097Y-112850898D01*
X153184717Y-112716180D01*
X153356180Y-112544717D01*
X153490898Y-112343097D01*
X153583693Y-112119069D01*
X153631000Y-111881243D01*
X153631000Y-111638757D01*
X153709000Y-111638757D01*
X153709000Y-111881243D01*
X153756307Y-112119069D01*
X153849102Y-112343097D01*
X153983820Y-112544717D01*
X154155283Y-112716180D01*
X154356903Y-112850898D01*
X154580931Y-112943693D01*
X154818757Y-112991000D01*
X155061243Y-112991000D01*
X155299069Y-112943693D01*
X155523097Y-112850898D01*
X155724717Y-112716180D01*
X155896180Y-112544717D01*
X156030898Y-112343097D01*
X156123693Y-112119069D01*
X156171000Y-111881243D01*
X156171000Y-111638757D01*
X156123693Y-111400931D01*
X156030898Y-111176903D01*
X155896180Y-110975283D01*
X155724717Y-110803820D01*
X155523097Y-110669102D01*
X155299069Y-110576307D01*
X155061243Y-110529000D01*
X154818757Y-110529000D01*
X154580931Y-110576307D01*
X154356903Y-110669102D01*
X154155283Y-110803820D01*
X153983820Y-110975283D01*
X153849102Y-111176903D01*
X153756307Y-111400931D01*
X153709000Y-111638757D01*
X153631000Y-111638757D01*
X153583693Y-111400931D01*
X153551758Y-111323833D01*
X153915221Y-110960371D01*
X153934528Y-110944526D01*
X153997760Y-110867478D01*
X154044746Y-110779574D01*
X154073679Y-110684192D01*
X154081001Y-110609853D01*
X154081001Y-110609846D01*
X154083448Y-110585000D01*
X154081001Y-110560154D01*
X154081001Y-110101898D01*
X154155283Y-110176180D01*
X154356903Y-110310898D01*
X154580931Y-110403693D01*
X154818757Y-110451000D01*
X155061243Y-110451000D01*
X155299069Y-110403693D01*
X155523097Y-110310898D01*
X155724717Y-110176180D01*
X155896180Y-110004717D01*
X156030898Y-109803097D01*
X156123693Y-109579069D01*
X156171000Y-109341243D01*
X156171000Y-109098757D01*
X156123693Y-108860931D01*
X156030898Y-108636903D01*
X155896180Y-108435283D01*
X155724717Y-108263820D01*
X155523097Y-108129102D01*
X155418683Y-108085852D01*
X155573747Y-108030919D01*
X155711157Y-107957472D01*
X155788792Y-107708397D01*
X154940000Y-106859605D01*
X154091208Y-107708397D01*
X154168843Y-107957472D01*
X154432883Y-108083371D01*
X154454228Y-108088789D01*
X154356903Y-108129102D01*
X154155283Y-108263820D01*
X154063116Y-108355987D01*
X154044746Y-108295426D01*
X154034962Y-108277122D01*
X153997760Y-108207522D01*
X153934528Y-108130474D01*
X153915221Y-108114629D01*
X153505375Y-107704784D01*
X153489526Y-107685472D01*
X153412478Y-107622240D01*
X153324574Y-107575254D01*
X153264013Y-107556884D01*
X153356180Y-107464717D01*
X153490898Y-107263097D01*
X153534148Y-107158683D01*
X153589081Y-107313747D01*
X153662528Y-107451157D01*
X153911603Y-107528792D01*
X154760395Y-106680000D01*
X153911603Y-105831208D01*
X153662528Y-105908843D01*
X153536629Y-106172883D01*
X153531211Y-106194228D01*
X153490898Y-106096903D01*
X153356180Y-105895283D01*
X153184717Y-105723820D01*
X152983097Y-105589102D01*
X152759069Y-105496307D01*
X152521243Y-105449000D01*
X152278757Y-105449000D01*
X152040931Y-105496307D01*
X151816903Y-105589102D01*
X151647996Y-105701962D01*
X151650472Y-105569600D01*
X151638212Y-105445118D01*
X151601902Y-105325420D01*
X151542937Y-105215106D01*
X151535464Y-105206000D01*
X154757009Y-105206000D01*
X154581981Y-105231401D01*
G36*
X144328585Y-138468013D02*
G01*
X144301358Y-138596000D01*
X144229843Y-138596000D01*
X144229843Y-138302000D01*
X144399942Y-138302000D01*
X144328585Y-138468013D01*
G37*
X144328585Y-138468013D02*
X144301358Y-138596000D01*
X144229843Y-138596000D01*
X144229843Y-138302000D01*
X144399942Y-138302000D01*
X144328585Y-138468013D01*
G36*
X148731997Y-123092299D02*
G01*
X148790799Y-123163950D01*
X148777590Y-123174790D01*
X148726069Y-123237568D01*
X148706859Y-123218358D01*
X148578942Y-123132887D01*
X148436809Y-123074013D01*
X148285922Y-123044000D01*
X148132078Y-123044000D01*
X147981191Y-123074013D01*
X147839058Y-123132887D01*
X147711141Y-123218358D01*
X147602358Y-123327141D01*
X147516887Y-123455058D01*
X147458013Y-123597191D01*
X147428000Y-123748078D01*
X147428000Y-123901922D01*
X147458013Y-124052809D01*
X147516887Y-124194942D01*
X147602358Y-124322859D01*
X147711141Y-124431642D01*
X147839058Y-124517113D01*
X147981191Y-124575987D01*
X148132078Y-124606000D01*
X148285922Y-124606000D01*
X148436809Y-124575987D01*
X148578942Y-124517113D01*
X148706859Y-124431642D01*
X148721923Y-124416578D01*
X148761332Y-124464600D01*
X148701997Y-124536901D01*
X148645826Y-124641989D01*
X148611237Y-124756016D01*
X148599557Y-124874600D01*
X148599557Y-125324600D01*
X148611237Y-125443184D01*
X148645826Y-125557211D01*
X148701997Y-125662299D01*
X148716446Y-125679906D01*
X148705942Y-125672887D01*
X148563809Y-125614013D01*
X148412922Y-125584000D01*
X148259078Y-125584000D01*
X148108191Y-125614013D01*
X147966058Y-125672887D01*
X147838141Y-125758358D01*
X147729358Y-125867141D01*
X147643887Y-125995058D01*
X147585013Y-126137191D01*
X147555000Y-126288078D01*
X147555000Y-126441922D01*
X147585013Y-126592809D01*
X147643887Y-126734942D01*
X147729358Y-126862859D01*
X147838141Y-126971642D01*
X147966058Y-127057113D01*
X148108191Y-127115987D01*
X148259078Y-127146000D01*
X148412922Y-127146000D01*
X148563809Y-127115987D01*
X148705942Y-127057113D01*
X148733163Y-127038924D01*
X148701997Y-127076901D01*
X148645826Y-127181989D01*
X148611237Y-127296016D01*
X148599557Y-127414600D01*
X148599557Y-127864600D01*
X148611237Y-127983184D01*
X148645826Y-128097211D01*
X148701997Y-128202299D01*
X148716446Y-128219906D01*
X148705942Y-128212887D01*
X148563809Y-128154013D01*
X148412922Y-128124000D01*
X148259078Y-128124000D01*
X148108191Y-128154013D01*
X147966058Y-128212887D01*
X147838141Y-128298358D01*
X147729358Y-128407141D01*
X147643887Y-128535058D01*
X147585013Y-128677191D01*
X147555000Y-128828078D01*
X147555000Y-128981922D01*
X147585013Y-129132809D01*
X147643887Y-129274942D01*
X147729358Y-129402859D01*
X147838141Y-129511642D01*
X147966058Y-129597113D01*
X148108191Y-129655987D01*
X148259078Y-129686000D01*
X148412922Y-129686000D01*
X148563809Y-129655987D01*
X148705942Y-129597113D01*
X148769549Y-129554612D01*
X148777590Y-129564410D01*
X148869701Y-129640003D01*
X148974789Y-129696174D01*
X149088816Y-129730763D01*
X149207400Y-129742443D01*
X150757400Y-129742443D01*
X150875984Y-129730763D01*
X150990011Y-129696174D01*
X151095099Y-129640003D01*
X151169000Y-129579354D01*
X151169000Y-129661243D01*
X151216307Y-129899069D01*
X151309102Y-130123097D01*
X151443820Y-130324717D01*
X151615283Y-130496180D01*
X151816903Y-130630898D01*
X152040931Y-130723693D01*
X152278757Y-130771000D01*
X152521243Y-130771000D01*
X152759069Y-130723693D01*
X152983097Y-130630898D01*
X153184717Y-130496180D01*
X153332000Y-130348897D01*
X153332000Y-132079142D01*
X153320023Y-132085544D01*
X153228860Y-132160360D01*
X153154044Y-132251523D01*
X153098451Y-132355530D01*
X153084354Y-132402000D01*
X152841264Y-132402000D01*
X152824322Y-132370304D01*
X152776711Y-132312289D01*
X152718696Y-132264678D01*
X152652508Y-132229299D01*
X152580689Y-132207513D01*
X152506000Y-132200157D01*
X151446000Y-132200157D01*
X151371311Y-132207513D01*
X151299492Y-132229299D01*
X151233304Y-132264678D01*
X151175289Y-132312289D01*
X151127678Y-132370304D01*
X151092299Y-132436492D01*
X151070513Y-132508311D01*
X151063157Y-132583000D01*
X151063157Y-133025728D01*
X150994815Y-133081815D01*
X150915463Y-133178506D01*
X150856498Y-133288820D01*
X150820188Y-133408518D01*
X150807928Y-133533000D01*
X150811000Y-133572250D01*
X150969750Y-133731000D01*
X151849000Y-133731000D01*
X151849000Y-133711000D01*
X152103000Y-133711000D01*
X152103000Y-133731000D01*
X152982250Y-133731000D01*
X153141000Y-133572250D01*
X153144072Y-133533000D01*
X153132352Y-133414000D01*
X153144168Y-133414000D01*
X153154044Y-133432477D01*
X153228860Y-133523640D01*
X153320023Y-133598456D01*
X153367000Y-133623566D01*
X153367001Y-134233064D01*
X153345523Y-134244544D01*
X153275513Y-134302000D01*
X153132352Y-134302000D01*
X153144072Y-134183000D01*
X153141000Y-134143750D01*
X152982250Y-133985000D01*
X152103000Y-133985000D01*
X152103000Y-134005000D01*
X151849000Y-134005000D01*
X151849000Y-133985000D01*
X150969750Y-133985000D01*
X150811000Y-134143750D01*
X150807928Y-134183000D01*
X150820188Y-134307482D01*
X150856498Y-134427180D01*
X150915463Y-134537494D01*
X150994815Y-134634185D01*
X151063157Y-134690272D01*
X151063157Y-135133000D01*
X151070513Y-135207689D01*
X151092299Y-135279508D01*
X151127678Y-135345696D01*
X151175289Y-135403711D01*
X151233304Y-135451322D01*
X151299492Y-135486701D01*
X151371311Y-135508487D01*
X151446000Y-135515843D01*
X152312566Y-135515843D01*
X152219419Y-135608990D01*
X146642482Y-135608990D01*
X146643072Y-135603000D01*
X146640000Y-135413750D01*
X146481250Y-135255000D01*
X145694500Y-135255000D01*
X145694500Y-135275000D01*
X145440500Y-135275000D01*
X145440500Y-135255000D01*
X145420500Y-135255000D01*
X145420500Y-135001000D01*
X145440500Y-135001000D01*
X145440500Y-134176750D01*
X145281750Y-134018000D01*
X145130000Y-134014928D01*
X145005518Y-134027188D01*
X144885820Y-134063498D01*
X144819693Y-134098844D01*
X144781624Y-134060775D01*
X144765775Y-134041463D01*
X144688727Y-133978231D01*
X144600823Y-133931245D01*
X144505441Y-133902312D01*
X144431102Y-133894990D01*
X144431094Y-133894990D01*
X144406248Y-133892543D01*
X144381402Y-133894990D01*
X143603597Y-133894990D01*
X143578751Y-133892543D01*
X143553905Y-133894990D01*
X143553898Y-133894990D01*
X143489446Y-133901338D01*
X143479558Y-133902312D01*
X143457359Y-133909046D01*
X143384177Y-133931245D01*
X143296273Y-133978231D01*
X143219225Y-134041463D01*
X143203376Y-134060775D01*
X143129651Y-134134500D01*
X143071843Y-134134500D01*
X143071843Y-134078000D01*
X143063286Y-133991118D01*
X143037943Y-133907575D01*
X143028816Y-133890500D01*
X143037943Y-133873425D01*
X143063286Y-133789882D01*
X143071843Y-133703000D01*
X143071843Y-133578000D01*
X143063286Y-133491118D01*
X143037943Y-133407575D01*
X143028816Y-133390500D01*
X143037943Y-133373425D01*
X143063286Y-133289882D01*
X143071843Y-133203000D01*
X143071843Y-133078000D01*
X143063286Y-132991118D01*
X143037943Y-132907575D01*
X143028816Y-132890500D01*
X143037943Y-132873425D01*
X143063286Y-132789882D01*
X143071843Y-132703000D01*
X143071843Y-132636935D01*
X143160157Y-132725249D01*
X143160157Y-133086250D01*
X143171716Y-133203615D01*
X143205951Y-133316470D01*
X143261544Y-133420477D01*
X143336360Y-133511640D01*
X143427523Y-133586456D01*
X143531530Y-133642049D01*
X143644385Y-133676284D01*
X143761750Y-133687843D01*
X144274250Y-133687843D01*
X144391615Y-133676284D01*
X144504470Y-133642049D01*
X144608477Y-133586456D01*
X144699640Y-133511640D01*
X144774456Y-133420477D01*
X144799566Y-133373500D01*
X145141434Y-133373500D01*
X145166544Y-133420477D01*
X145241360Y-133511640D01*
X145332523Y-133586456D01*
X145436530Y-133642049D01*
X145549385Y-133676284D01*
X145666750Y-133687843D01*
X146179250Y-133687843D01*
X146218333Y-133683994D01*
X146188013Y-133757191D01*
X146158000Y-133908078D01*
X146158000Y-134035839D01*
X146129482Y-134027188D01*
X146005000Y-134014928D01*
X145853250Y-134018000D01*
X145694500Y-134176750D01*
X145694500Y-135001000D01*
X146481250Y-135001000D01*
X146640000Y-134842250D01*
X146642189Y-134707405D01*
X146711191Y-134735987D01*
X146862078Y-134766000D01*
X147015922Y-134766000D01*
X147166809Y-134735987D01*
X147308942Y-134677113D01*
X147436859Y-134591642D01*
X147545642Y-134482859D01*
X147631113Y-134354942D01*
X147689987Y-134212809D01*
X147720000Y-134061922D01*
X147720000Y-133908078D01*
X147689987Y-133757191D01*
X147661262Y-133687843D01*
X147932752Y-133687843D01*
X148863157Y-134618249D01*
X148863157Y-135133000D01*
X148870513Y-135207689D01*
X148892299Y-135279508D01*
X148927678Y-135345696D01*
X148975289Y-135403711D01*
X149033304Y-135451322D01*
X149099492Y-135486701D01*
X149171311Y-135508487D01*
X149246000Y-135515843D01*
X150306000Y-135515843D01*
X150380689Y-135508487D01*
X150452508Y-135486701D01*
X150518696Y-135451322D01*
X150576711Y-135403711D01*
X150624322Y-135345696D01*
X150659701Y-135279508D01*
X150681487Y-135207689D01*
X150688843Y-135133000D01*
X150688843Y-134483000D01*
X150681487Y-134408311D01*
X150659701Y-134336492D01*
X150624322Y-134270304D01*
X150576711Y-134212289D01*
X150518696Y-134164678D01*
X150452508Y-134129299D01*
X150380689Y-134107513D01*
X150306000Y-134100157D01*
X149776249Y-134100157D01*
X149291935Y-133615843D01*
X150306000Y-133615843D01*
X150380689Y-133608487D01*
X150452508Y-133586701D01*
X150518696Y-133551322D01*
X150576711Y-133503711D01*
X150624322Y-133445696D01*
X150659701Y-133379508D01*
X150681487Y-133307689D01*
X150688843Y-133233000D01*
X150688843Y-132583000D01*
X150681487Y-132508311D01*
X150659701Y-132436492D01*
X150624322Y-132370304D01*
X150576711Y-132312289D01*
X150518696Y-132264678D01*
X150452508Y-132229299D01*
X150380689Y-132207513D01*
X150306000Y-132200157D01*
X149246000Y-132200157D01*
X149171311Y-132207513D01*
X149099492Y-132229299D01*
X149033304Y-132264678D01*
X148975289Y-132312289D01*
X148927678Y-132370304D01*
X148892299Y-132436492D01*
X148870513Y-132508311D01*
X148863157Y-132583000D01*
X148863157Y-133187066D01*
X148685843Y-133009752D01*
X148685843Y-132648750D01*
X148674284Y-132531385D01*
X148640049Y-132418530D01*
X148584456Y-132314523D01*
X148575930Y-132304134D01*
X148657494Y-132260537D01*
X148754185Y-132181185D01*
X148833537Y-132084494D01*
X148892502Y-131974180D01*
X148928812Y-131854482D01*
X148941072Y-131730000D01*
X148938000Y-131578250D01*
X148779250Y-131419500D01*
X147955000Y-131419500D01*
X147955000Y-131439500D01*
X147701000Y-131439500D01*
X147701000Y-131419500D01*
X146876750Y-131419500D01*
X146875500Y-131420750D01*
X146874250Y-131419500D01*
X146050000Y-131419500D01*
X146050000Y-131439500D01*
X145796000Y-131439500D01*
X145796000Y-131419500D01*
X144971750Y-131419500D01*
X144970500Y-131420750D01*
X144969250Y-131419500D01*
X144145000Y-131419500D01*
X144145000Y-131439500D01*
X143891000Y-131439500D01*
X143891000Y-131419500D01*
X143871000Y-131419500D01*
X143871000Y-131165500D01*
X143891000Y-131165500D01*
X143891000Y-130378750D01*
X144145000Y-130378750D01*
X144145000Y-131165500D01*
X144969250Y-131165500D01*
X144970500Y-131164250D01*
X144971750Y-131165500D01*
X145796000Y-131165500D01*
X145796000Y-130378750D01*
X146050000Y-130378750D01*
X146050000Y-131165500D01*
X146874250Y-131165500D01*
X146875500Y-131164250D01*
X146876750Y-131165500D01*
X147701000Y-131165500D01*
X147701000Y-130378750D01*
X147955000Y-130378750D01*
X147955000Y-131165500D01*
X148779250Y-131165500D01*
X148938000Y-131006750D01*
X148941072Y-130855000D01*
X148928812Y-130730518D01*
X148892502Y-130610820D01*
X148833537Y-130500506D01*
X148754185Y-130403815D01*
X148657494Y-130324463D01*
X148547180Y-130265498D01*
X148427482Y-130229188D01*
X148303000Y-130216928D01*
X148113750Y-130220000D01*
X147955000Y-130378750D01*
X147701000Y-130378750D01*
X147542250Y-130220000D01*
X147353000Y-130216928D01*
X147228518Y-130229188D01*
X147108820Y-130265498D01*
X146998506Y-130324463D01*
X146901815Y-130403815D01*
X146875500Y-130435880D01*
X146849185Y-130403815D01*
X146752494Y-130324463D01*
X146642180Y-130265498D01*
X146522482Y-130229188D01*
X146398000Y-130216928D01*
X146208750Y-130220000D01*
X146050000Y-130378750D01*
X145796000Y-130378750D01*
X145637250Y-130220000D01*
X145448000Y-130216928D01*
X145323518Y-130229188D01*
X145203820Y-130265498D01*
X145093506Y-130324463D01*
X144996815Y-130403815D01*
X144970500Y-130435880D01*
X144944185Y-130403815D01*
X144847494Y-130324463D01*
X144737180Y-130265498D01*
X144617482Y-130229188D01*
X144493000Y-130216928D01*
X144303750Y-130220000D01*
X144145000Y-130378750D01*
X143891000Y-130378750D01*
X143732250Y-130220000D01*
X143543000Y-130216928D01*
X143418518Y-130229188D01*
X143298820Y-130265498D01*
X143188506Y-130324463D01*
X143091815Y-130403815D01*
X143012463Y-130500506D01*
X142953498Y-130610820D01*
X142917188Y-130730518D01*
X142904928Y-130855000D01*
X142908000Y-131006750D01*
X143066748Y-131165498D01*
X143031590Y-131165498D01*
X140735000Y-128868909D01*
X140735000Y-128828078D01*
X140704987Y-128677191D01*
X140646113Y-128535058D01*
X140560642Y-128407141D01*
X140451859Y-128298358D01*
X140323942Y-128212887D01*
X140181809Y-128154013D01*
X140030922Y-128124000D01*
X139877078Y-128124000D01*
X139726191Y-128154013D01*
X139584058Y-128212887D01*
X139456141Y-128298358D01*
X139347358Y-128407141D01*
X139261887Y-128535058D01*
X139203013Y-128677191D01*
X139173000Y-128828078D01*
X139173000Y-128981922D01*
X139203013Y-129132809D01*
X139261887Y-129274942D01*
X139347358Y-129402859D01*
X139456141Y-129511642D01*
X139584058Y-129597113D01*
X139726191Y-129655987D01*
X139877078Y-129686000D01*
X140030922Y-129686000D01*
X140105979Y-129671070D01*
X141592566Y-131157657D01*
X141526500Y-131157657D01*
X141439618Y-131166214D01*
X141356075Y-131191557D01*
X141339000Y-131200684D01*
X141321925Y-131191557D01*
X141238382Y-131166214D01*
X141151500Y-131157657D01*
X141026500Y-131157657D01*
X140939618Y-131166214D01*
X140856075Y-131191557D01*
X140839000Y-131200684D01*
X140821925Y-131191557D01*
X140738382Y-131166214D01*
X140651500Y-131157657D01*
X140526500Y-131157657D01*
X140439618Y-131166214D01*
X140432992Y-131168224D01*
X140429220Y-131165128D01*
X139544866Y-130280775D01*
X139529017Y-130261463D01*
X139451969Y-130198231D01*
X139364065Y-130151245D01*
X139268683Y-130122312D01*
X139194344Y-130114990D01*
X139194336Y-130114990D01*
X139169490Y-130112543D01*
X139144644Y-130114990D01*
X137554601Y-130114990D01*
X141607001Y-126062591D01*
X141607001Y-126528498D01*
X141506358Y-126629141D01*
X141420887Y-126757058D01*
X141362013Y-126899191D01*
X141332000Y-127050078D01*
X141332000Y-127203922D01*
X141362013Y-127354809D01*
X141420887Y-127496942D01*
X141506358Y-127624859D01*
X141615141Y-127733642D01*
X141743058Y-127819113D01*
X141885191Y-127877987D01*
X142036078Y-127908000D01*
X142189922Y-127908000D01*
X142340809Y-127877987D01*
X142482942Y-127819113D01*
X142610859Y-127733642D01*
X142719642Y-127624859D01*
X142805113Y-127496942D01*
X142863987Y-127354809D01*
X142894000Y-127203922D01*
X142894000Y-127050078D01*
X142863987Y-126899191D01*
X142805113Y-126757058D01*
X142719642Y-126629141D01*
X142619000Y-126528499D01*
X142619000Y-126193591D01*
X143825592Y-124987000D01*
X143967922Y-124987000D01*
X144118809Y-124956987D01*
X144260942Y-124898113D01*
X144388859Y-124812642D01*
X144497642Y-124703859D01*
X144583113Y-124575942D01*
X144641987Y-124433809D01*
X144672000Y-124282922D01*
X144672000Y-124129078D01*
X144641987Y-123978191D01*
X144583113Y-123836058D01*
X144497642Y-123708141D01*
X144388859Y-123599358D01*
X144260942Y-123513887D01*
X144186528Y-123483064D01*
X144633992Y-123035600D01*
X148701691Y-123035600D01*
X148731997Y-123092299D01*
G37*
X148731997Y-123092299D02*
X148790799Y-123163950D01*
X148777590Y-123174790D01*
X148726069Y-123237568D01*
X148706859Y-123218358D01*
X148578942Y-123132887D01*
X148436809Y-123074013D01*
X148285922Y-123044000D01*
X148132078Y-123044000D01*
X147981191Y-123074013D01*
X147839058Y-123132887D01*
X147711141Y-123218358D01*
X147602358Y-123327141D01*
X147516887Y-123455058D01*
X147458013Y-123597191D01*
X147428000Y-123748078D01*
X147428000Y-123901922D01*
X147458013Y-124052809D01*
X147516887Y-124194942D01*
X147602358Y-124322859D01*
X147711141Y-124431642D01*
X147839058Y-124517113D01*
X147981191Y-124575987D01*
X148132078Y-124606000D01*
X148285922Y-124606000D01*
X148436809Y-124575987D01*
X148578942Y-124517113D01*
X148706859Y-124431642D01*
X148721923Y-124416578D01*
X148761332Y-124464600D01*
X148701997Y-124536901D01*
X148645826Y-124641989D01*
X148611237Y-124756016D01*
X148599557Y-124874600D01*
X148599557Y-125324600D01*
X148611237Y-125443184D01*
X148645826Y-125557211D01*
X148701997Y-125662299D01*
X148716446Y-125679906D01*
X148705942Y-125672887D01*
X148563809Y-125614013D01*
X148412922Y-125584000D01*
X148259078Y-125584000D01*
X148108191Y-125614013D01*
X147966058Y-125672887D01*
X147838141Y-125758358D01*
X147729358Y-125867141D01*
X147643887Y-125995058D01*
X147585013Y-126137191D01*
X147555000Y-126288078D01*
X147555000Y-126441922D01*
X147585013Y-126592809D01*
X147643887Y-126734942D01*
X147729358Y-126862859D01*
X147838141Y-126971642D01*
X147966058Y-127057113D01*
X148108191Y-127115987D01*
X148259078Y-127146000D01*
X148412922Y-127146000D01*
X148563809Y-127115987D01*
X148705942Y-127057113D01*
X148733163Y-127038924D01*
X148701997Y-127076901D01*
X148645826Y-127181989D01*
X148611237Y-127296016D01*
X148599557Y-127414600D01*
X148599557Y-127864600D01*
X148611237Y-127983184D01*
X148645826Y-128097211D01*
X148701997Y-128202299D01*
X148716446Y-128219906D01*
X148705942Y-128212887D01*
X148563809Y-128154013D01*
X148412922Y-128124000D01*
X148259078Y-128124000D01*
X148108191Y-128154013D01*
X147966058Y-128212887D01*
X147838141Y-128298358D01*
X147729358Y-128407141D01*
X147643887Y-128535058D01*
X147585013Y-128677191D01*
X147555000Y-128828078D01*
X147555000Y-128981922D01*
X147585013Y-129132809D01*
X147643887Y-129274942D01*
X147729358Y-129402859D01*
X147838141Y-129511642D01*
X147966058Y-129597113D01*
X148108191Y-129655987D01*
X148259078Y-129686000D01*
X148412922Y-129686000D01*
X148563809Y-129655987D01*
X148705942Y-129597113D01*
X148769549Y-129554612D01*
X148777590Y-129564410D01*
X148869701Y-129640003D01*
X148974789Y-129696174D01*
X149088816Y-129730763D01*
X149207400Y-129742443D01*
X150757400Y-129742443D01*
X150875984Y-129730763D01*
X150990011Y-129696174D01*
X151095099Y-129640003D01*
X151169000Y-129579354D01*
X151169000Y-129661243D01*
X151216307Y-129899069D01*
X151309102Y-130123097D01*
X151443820Y-130324717D01*
X151615283Y-130496180D01*
X151816903Y-130630898D01*
X152040931Y-130723693D01*
X152278757Y-130771000D01*
X152521243Y-130771000D01*
X152759069Y-130723693D01*
X152983097Y-130630898D01*
X153184717Y-130496180D01*
X153332000Y-130348897D01*
X153332000Y-132079142D01*
X153320023Y-132085544D01*
X153228860Y-132160360D01*
X153154044Y-132251523D01*
X153098451Y-132355530D01*
X153084354Y-132402000D01*
X152841264Y-132402000D01*
X152824322Y-132370304D01*
X152776711Y-132312289D01*
X152718696Y-132264678D01*
X152652508Y-132229299D01*
X152580689Y-132207513D01*
X152506000Y-132200157D01*
X151446000Y-132200157D01*
X151371311Y-132207513D01*
X151299492Y-132229299D01*
X151233304Y-132264678D01*
X151175289Y-132312289D01*
X151127678Y-132370304D01*
X151092299Y-132436492D01*
X151070513Y-132508311D01*
X151063157Y-132583000D01*
X151063157Y-133025728D01*
X150994815Y-133081815D01*
X150915463Y-133178506D01*
X150856498Y-133288820D01*
X150820188Y-133408518D01*
X150807928Y-133533000D01*
X150811000Y-133572250D01*
X150969750Y-133731000D01*
X151849000Y-133731000D01*
X151849000Y-133711000D01*
X152103000Y-133711000D01*
X152103000Y-133731000D01*
X152982250Y-133731000D01*
X153141000Y-133572250D01*
X153144072Y-133533000D01*
X153132352Y-133414000D01*
X153144168Y-133414000D01*
X153154044Y-133432477D01*
X153228860Y-133523640D01*
X153320023Y-133598456D01*
X153367000Y-133623566D01*
X153367001Y-134233064D01*
X153345523Y-134244544D01*
X153275513Y-134302000D01*
X153132352Y-134302000D01*
X153144072Y-134183000D01*
X153141000Y-134143750D01*
X152982250Y-133985000D01*
X152103000Y-133985000D01*
X152103000Y-134005000D01*
X151849000Y-134005000D01*
X151849000Y-133985000D01*
X150969750Y-133985000D01*
X150811000Y-134143750D01*
X150807928Y-134183000D01*
X150820188Y-134307482D01*
X150856498Y-134427180D01*
X150915463Y-134537494D01*
X150994815Y-134634185D01*
X151063157Y-134690272D01*
X151063157Y-135133000D01*
X151070513Y-135207689D01*
X151092299Y-135279508D01*
X151127678Y-135345696D01*
X151175289Y-135403711D01*
X151233304Y-135451322D01*
X151299492Y-135486701D01*
X151371311Y-135508487D01*
X151446000Y-135515843D01*
X152312566Y-135515843D01*
X152219419Y-135608990D01*
X146642482Y-135608990D01*
X146643072Y-135603000D01*
X146640000Y-135413750D01*
X146481250Y-135255000D01*
X145694500Y-135255000D01*
X145694500Y-135275000D01*
X145440500Y-135275000D01*
X145440500Y-135255000D01*
X145420500Y-135255000D01*
X145420500Y-135001000D01*
X145440500Y-135001000D01*
X145440500Y-134176750D01*
X145281750Y-134018000D01*
X145130000Y-134014928D01*
X145005518Y-134027188D01*
X144885820Y-134063498D01*
X144819693Y-134098844D01*
X144781624Y-134060775D01*
X144765775Y-134041463D01*
X144688727Y-133978231D01*
X144600823Y-133931245D01*
X144505441Y-133902312D01*
X144431102Y-133894990D01*
X144431094Y-133894990D01*
X144406248Y-133892543D01*
X144381402Y-133894990D01*
X143603597Y-133894990D01*
X143578751Y-133892543D01*
X143553905Y-133894990D01*
X143553898Y-133894990D01*
X143489446Y-133901338D01*
X143479558Y-133902312D01*
X143457359Y-133909046D01*
X143384177Y-133931245D01*
X143296273Y-133978231D01*
X143219225Y-134041463D01*
X143203376Y-134060775D01*
X143129651Y-134134500D01*
X143071843Y-134134500D01*
X143071843Y-134078000D01*
X143063286Y-133991118D01*
X143037943Y-133907575D01*
X143028816Y-133890500D01*
X143037943Y-133873425D01*
X143063286Y-133789882D01*
X143071843Y-133703000D01*
X143071843Y-133578000D01*
X143063286Y-133491118D01*
X143037943Y-133407575D01*
X143028816Y-133390500D01*
X143037943Y-133373425D01*
X143063286Y-133289882D01*
X143071843Y-133203000D01*
X143071843Y-133078000D01*
X143063286Y-132991118D01*
X143037943Y-132907575D01*
X143028816Y-132890500D01*
X143037943Y-132873425D01*
X143063286Y-132789882D01*
X143071843Y-132703000D01*
X143071843Y-132636935D01*
X143160157Y-132725249D01*
X143160157Y-133086250D01*
X143171716Y-133203615D01*
X143205951Y-133316470D01*
X143261544Y-133420477D01*
X143336360Y-133511640D01*
X143427523Y-133586456D01*
X143531530Y-133642049D01*
X143644385Y-133676284D01*
X143761750Y-133687843D01*
X144274250Y-133687843D01*
X144391615Y-133676284D01*
X144504470Y-133642049D01*
X144608477Y-133586456D01*
X144699640Y-133511640D01*
X144774456Y-133420477D01*
X144799566Y-133373500D01*
X145141434Y-133373500D01*
X145166544Y-133420477D01*
X145241360Y-133511640D01*
X145332523Y-133586456D01*
X145436530Y-133642049D01*
X145549385Y-133676284D01*
X145666750Y-133687843D01*
X146179250Y-133687843D01*
X146218333Y-133683994D01*
X146188013Y-133757191D01*
X146158000Y-133908078D01*
X146158000Y-134035839D01*
X146129482Y-134027188D01*
X146005000Y-134014928D01*
X145853250Y-134018000D01*
X145694500Y-134176750D01*
X145694500Y-135001000D01*
X146481250Y-135001000D01*
X146640000Y-134842250D01*
X146642189Y-134707405D01*
X146711191Y-134735987D01*
X146862078Y-134766000D01*
X147015922Y-134766000D01*
X147166809Y-134735987D01*
X147308942Y-134677113D01*
X147436859Y-134591642D01*
X147545642Y-134482859D01*
X147631113Y-134354942D01*
X147689987Y-134212809D01*
X147720000Y-134061922D01*
X147720000Y-133908078D01*
X147689987Y-133757191D01*
X147661262Y-133687843D01*
X147932752Y-133687843D01*
X148863157Y-134618249D01*
X148863157Y-135133000D01*
X148870513Y-135207689D01*
X148892299Y-135279508D01*
X148927678Y-135345696D01*
X148975289Y-135403711D01*
X149033304Y-135451322D01*
X149099492Y-135486701D01*
X149171311Y-135508487D01*
X149246000Y-135515843D01*
X150306000Y-135515843D01*
X150380689Y-135508487D01*
X150452508Y-135486701D01*
X150518696Y-135451322D01*
X150576711Y-135403711D01*
X150624322Y-135345696D01*
X150659701Y-135279508D01*
X150681487Y-135207689D01*
X150688843Y-135133000D01*
X150688843Y-134483000D01*
X150681487Y-134408311D01*
X150659701Y-134336492D01*
X150624322Y-134270304D01*
X150576711Y-134212289D01*
X150518696Y-134164678D01*
X150452508Y-134129299D01*
X150380689Y-134107513D01*
X150306000Y-134100157D01*
X149776249Y-134100157D01*
X149291935Y-133615843D01*
X150306000Y-133615843D01*
X150380689Y-133608487D01*
X150452508Y-133586701D01*
X150518696Y-133551322D01*
X150576711Y-133503711D01*
X150624322Y-133445696D01*
X150659701Y-133379508D01*
X150681487Y-133307689D01*
X150688843Y-133233000D01*
X150688843Y-132583000D01*
X150681487Y-132508311D01*
X150659701Y-132436492D01*
X150624322Y-132370304D01*
X150576711Y-132312289D01*
X150518696Y-132264678D01*
X150452508Y-132229299D01*
X150380689Y-132207513D01*
X150306000Y-132200157D01*
X149246000Y-132200157D01*
X149171311Y-132207513D01*
X149099492Y-132229299D01*
X149033304Y-132264678D01*
X148975289Y-132312289D01*
X148927678Y-132370304D01*
X148892299Y-132436492D01*
X148870513Y-132508311D01*
X148863157Y-132583000D01*
X148863157Y-133187066D01*
X148685843Y-133009752D01*
X148685843Y-132648750D01*
X148674284Y-132531385D01*
X148640049Y-132418530D01*
X148584456Y-132314523D01*
X148575930Y-132304134D01*
X148657494Y-132260537D01*
X148754185Y-132181185D01*
X148833537Y-132084494D01*
X148892502Y-131974180D01*
X148928812Y-131854482D01*
X148941072Y-131730000D01*
X148938000Y-131578250D01*
X148779250Y-131419500D01*
X147955000Y-131419500D01*
X147955000Y-131439500D01*
X147701000Y-131439500D01*
X147701000Y-131419500D01*
X146876750Y-131419500D01*
X146875500Y-131420750D01*
X146874250Y-131419500D01*
X146050000Y-131419500D01*
X146050000Y-131439500D01*
X145796000Y-131439500D01*
X145796000Y-131419500D01*
X144971750Y-131419500D01*
X144970500Y-131420750D01*
X144969250Y-131419500D01*
X144145000Y-131419500D01*
X144145000Y-131439500D01*
X143891000Y-131439500D01*
X143891000Y-131419500D01*
X143871000Y-131419500D01*
X143871000Y-131165500D01*
X143891000Y-131165500D01*
X143891000Y-130378750D01*
X144145000Y-130378750D01*
X144145000Y-131165500D01*
X144969250Y-131165500D01*
X144970500Y-131164250D01*
X144971750Y-131165500D01*
X145796000Y-131165500D01*
X145796000Y-130378750D01*
X146050000Y-130378750D01*
X146050000Y-131165500D01*
X146874250Y-131165500D01*
X146875500Y-131164250D01*
X146876750Y-131165500D01*
X147701000Y-131165500D01*
X147701000Y-130378750D01*
X147955000Y-130378750D01*
X147955000Y-131165500D01*
X148779250Y-131165500D01*
X148938000Y-131006750D01*
X148941072Y-130855000D01*
X148928812Y-130730518D01*
X148892502Y-130610820D01*
X148833537Y-130500506D01*
X148754185Y-130403815D01*
X148657494Y-130324463D01*
X148547180Y-130265498D01*
X148427482Y-130229188D01*
X148303000Y-130216928D01*
X148113750Y-130220000D01*
X147955000Y-130378750D01*
X147701000Y-130378750D01*
X147542250Y-130220000D01*
X147353000Y-130216928D01*
X147228518Y-130229188D01*
X147108820Y-130265498D01*
X146998506Y-130324463D01*
X146901815Y-130403815D01*
X146875500Y-130435880D01*
X146849185Y-130403815D01*
X146752494Y-130324463D01*
X146642180Y-130265498D01*
X146522482Y-130229188D01*
X146398000Y-130216928D01*
X146208750Y-130220000D01*
X146050000Y-130378750D01*
X145796000Y-130378750D01*
X145637250Y-130220000D01*
X145448000Y-130216928D01*
X145323518Y-130229188D01*
X145203820Y-130265498D01*
X145093506Y-130324463D01*
X144996815Y-130403815D01*
X144970500Y-130435880D01*
X144944185Y-130403815D01*
X144847494Y-130324463D01*
X144737180Y-130265498D01*
X144617482Y-130229188D01*
X144493000Y-130216928D01*
X144303750Y-130220000D01*
X144145000Y-130378750D01*
X143891000Y-130378750D01*
X143732250Y-130220000D01*
X143543000Y-130216928D01*
X143418518Y-130229188D01*
X143298820Y-130265498D01*
X143188506Y-130324463D01*
X143091815Y-130403815D01*
X143012463Y-130500506D01*
X142953498Y-130610820D01*
X142917188Y-130730518D01*
X142904928Y-130855000D01*
X142908000Y-131006750D01*
X143066748Y-131165498D01*
X143031590Y-131165498D01*
X140735000Y-128868909D01*
X140735000Y-128828078D01*
X140704987Y-128677191D01*
X140646113Y-128535058D01*
X140560642Y-128407141D01*
X140451859Y-128298358D01*
X140323942Y-128212887D01*
X140181809Y-128154013D01*
X140030922Y-128124000D01*
X139877078Y-128124000D01*
X139726191Y-128154013D01*
X139584058Y-128212887D01*
X139456141Y-128298358D01*
X139347358Y-128407141D01*
X139261887Y-128535058D01*
X139203013Y-128677191D01*
X139173000Y-128828078D01*
X139173000Y-128981922D01*
X139203013Y-129132809D01*
X139261887Y-129274942D01*
X139347358Y-129402859D01*
X139456141Y-129511642D01*
X139584058Y-129597113D01*
X139726191Y-129655987D01*
X139877078Y-129686000D01*
X140030922Y-129686000D01*
X140105979Y-129671070D01*
X141592566Y-131157657D01*
X141526500Y-131157657D01*
X141439618Y-131166214D01*
X141356075Y-131191557D01*
X141339000Y-131200684D01*
X141321925Y-131191557D01*
X141238382Y-131166214D01*
X141151500Y-131157657D01*
X141026500Y-131157657D01*
X140939618Y-131166214D01*
X140856075Y-131191557D01*
X140839000Y-131200684D01*
X140821925Y-131191557D01*
X140738382Y-131166214D01*
X140651500Y-131157657D01*
X140526500Y-131157657D01*
X140439618Y-131166214D01*
X140432992Y-131168224D01*
X140429220Y-131165128D01*
X139544866Y-130280775D01*
X139529017Y-130261463D01*
X139451969Y-130198231D01*
X139364065Y-130151245D01*
X139268683Y-130122312D01*
X139194344Y-130114990D01*
X139194336Y-130114990D01*
X139169490Y-130112543D01*
X139144644Y-130114990D01*
X137554601Y-130114990D01*
X141607001Y-126062591D01*
X141607001Y-126528498D01*
X141506358Y-126629141D01*
X141420887Y-126757058D01*
X141362013Y-126899191D01*
X141332000Y-127050078D01*
X141332000Y-127203922D01*
X141362013Y-127354809D01*
X141420887Y-127496942D01*
X141506358Y-127624859D01*
X141615141Y-127733642D01*
X141743058Y-127819113D01*
X141885191Y-127877987D01*
X142036078Y-127908000D01*
X142189922Y-127908000D01*
X142340809Y-127877987D01*
X142482942Y-127819113D01*
X142610859Y-127733642D01*
X142719642Y-127624859D01*
X142805113Y-127496942D01*
X142863987Y-127354809D01*
X142894000Y-127203922D01*
X142894000Y-127050078D01*
X142863987Y-126899191D01*
X142805113Y-126757058D01*
X142719642Y-126629141D01*
X142619000Y-126528499D01*
X142619000Y-126193591D01*
X143825592Y-124987000D01*
X143967922Y-124987000D01*
X144118809Y-124956987D01*
X144260942Y-124898113D01*
X144388859Y-124812642D01*
X144497642Y-124703859D01*
X144583113Y-124575942D01*
X144641987Y-124433809D01*
X144672000Y-124282922D01*
X144672000Y-124129078D01*
X144641987Y-123978191D01*
X144583113Y-123836058D01*
X144497642Y-123708141D01*
X144388859Y-123599358D01*
X144260942Y-123513887D01*
X144186528Y-123483064D01*
X144633992Y-123035600D01*
X148701691Y-123035600D01*
X148731997Y-123092299D01*
G36*
X140466000Y-133763500D02*
G01*
X140486000Y-133763500D01*
X140486000Y-134017500D01*
X140466000Y-134017500D01*
X140466000Y-134037500D01*
X140212000Y-134037500D01*
X140212000Y-134017500D01*
X140192000Y-134017500D01*
X140192000Y-133763500D01*
X140212000Y-133763500D01*
X140212000Y-133743500D01*
X140466000Y-133743500D01*
X140466000Y-133763500D01*
G37*
X140466000Y-133763500D02*
X140486000Y-133763500D01*
X140486000Y-134017500D01*
X140466000Y-134017500D01*
X140466000Y-134037500D01*
X140212000Y-134037500D01*
X140212000Y-134017500D01*
X140192000Y-134017500D01*
X140192000Y-133763500D01*
X140212000Y-133763500D01*
X140212000Y-133743500D01*
X140466000Y-133743500D01*
X140466000Y-133763500D01*
G36*
X136887000Y-122732078D02*
G01*
X136887000Y-122885922D01*
X136917013Y-123036809D01*
X136975887Y-123178942D01*
X137061358Y-123306859D01*
X137162000Y-123407501D01*
X137162001Y-126240883D01*
X131193885Y-132209000D01*
X131099887Y-132209000D01*
X131083711Y-132189289D01*
X131025696Y-132141678D01*
X130959508Y-132106299D01*
X130887689Y-132084513D01*
X130813000Y-132077157D01*
X130113000Y-132077157D01*
X130038311Y-132084513D01*
X129966492Y-132106299D01*
X129900304Y-132141678D01*
X129842289Y-132189289D01*
X129794678Y-132247304D01*
X129759299Y-132313492D01*
X129737513Y-132385311D01*
X129730157Y-132460000D01*
X129730157Y-132824566D01*
X129280376Y-132374785D01*
X129264527Y-132355473D01*
X129187479Y-132292241D01*
X129099575Y-132245255D01*
X129004193Y-132216322D01*
X128929854Y-132209000D01*
X128929846Y-132209000D01*
X128905000Y-132206553D01*
X128880154Y-132209000D01*
X128779887Y-132209000D01*
X128763711Y-132189289D01*
X128705696Y-132141678D01*
X128639508Y-132106299D01*
X128567689Y-132084513D01*
X128493000Y-132077157D01*
X128220749Y-132077157D01*
X127822751Y-131679160D01*
X127877987Y-131545809D01*
X127908000Y-131394922D01*
X127908000Y-131241078D01*
X127886459Y-131132784D01*
X127892522Y-131137760D01*
X127980426Y-131184746D01*
X128053608Y-131206945D01*
X128075807Y-131213679D01*
X128085695Y-131214653D01*
X128150147Y-131221001D01*
X128150154Y-131221001D01*
X128175000Y-131223448D01*
X128199846Y-131221001D01*
X130152153Y-131221001D01*
X130176999Y-131223448D01*
X130201845Y-131221001D01*
X130201853Y-131221001D01*
X130276192Y-131213679D01*
X130371574Y-131184746D01*
X130459478Y-131137760D01*
X130536526Y-131074528D01*
X130552375Y-131055216D01*
X131865149Y-129742443D01*
X132757400Y-129742443D01*
X132875984Y-129730763D01*
X132990011Y-129696174D01*
X133095099Y-129640003D01*
X133187210Y-129564410D01*
X133262803Y-129472299D01*
X133318974Y-129367211D01*
X133353563Y-129253184D01*
X133365243Y-129134600D01*
X133365243Y-128684600D01*
X133353563Y-128566016D01*
X133318974Y-128451989D01*
X133262803Y-128346901D01*
X133203468Y-128274600D01*
X133262803Y-128202299D01*
X133318974Y-128097211D01*
X133353563Y-127983184D01*
X133365243Y-127864600D01*
X133365243Y-127414600D01*
X133353563Y-127296016D01*
X133318974Y-127181989D01*
X133262803Y-127076901D01*
X133203468Y-127004600D01*
X133262803Y-126932299D01*
X133318974Y-126827211D01*
X133353563Y-126713184D01*
X133365243Y-126594600D01*
X133365243Y-126144600D01*
X133353563Y-126026016D01*
X133318974Y-125911989D01*
X133262803Y-125806901D01*
X133203468Y-125734600D01*
X133262803Y-125662299D01*
X133283005Y-125624504D01*
X133360141Y-125701640D01*
X133488058Y-125787111D01*
X133630191Y-125845985D01*
X133781078Y-125875998D01*
X133934922Y-125875998D01*
X134085809Y-125845985D01*
X134227942Y-125787111D01*
X134355859Y-125701640D01*
X134464642Y-125592857D01*
X134550113Y-125464940D01*
X134608987Y-125322807D01*
X134639000Y-125171920D01*
X134639000Y-125018076D01*
X134608987Y-124867189D01*
X134550113Y-124725056D01*
X134464642Y-124597139D01*
X134355859Y-124488356D01*
X134227942Y-124402885D01*
X134085809Y-124344011D01*
X133934922Y-124313998D01*
X133781078Y-124313998D01*
X133630191Y-124344011D01*
X133613445Y-124350947D01*
X133620472Y-124279600D01*
X133617400Y-124115350D01*
X133458650Y-123956600D01*
X132109400Y-123956600D01*
X132109400Y-123976600D01*
X131855400Y-123976600D01*
X131855400Y-123956600D01*
X131835400Y-123956600D01*
X131835400Y-123702600D01*
X131855400Y-123702600D01*
X131855400Y-123682600D01*
X132109400Y-123682600D01*
X132109400Y-123702600D01*
X133458650Y-123702600D01*
X133617400Y-123543850D01*
X133620472Y-123379600D01*
X133608212Y-123255118D01*
X133571902Y-123135420D01*
X133512937Y-123025106D01*
X133433585Y-122928415D01*
X133354514Y-122863524D01*
X133365243Y-122754600D01*
X133365243Y-122585600D01*
X136916136Y-122585600D01*
X136887000Y-122732078D01*
G37*
X136887000Y-122732078D02*
X136887000Y-122885922D01*
X136917013Y-123036809D01*
X136975887Y-123178942D01*
X137061358Y-123306859D01*
X137162000Y-123407501D01*
X137162001Y-126240883D01*
X131193885Y-132209000D01*
X131099887Y-132209000D01*
X131083711Y-132189289D01*
X131025696Y-132141678D01*
X130959508Y-132106299D01*
X130887689Y-132084513D01*
X130813000Y-132077157D01*
X130113000Y-132077157D01*
X130038311Y-132084513D01*
X129966492Y-132106299D01*
X129900304Y-132141678D01*
X129842289Y-132189289D01*
X129794678Y-132247304D01*
X129759299Y-132313492D01*
X129737513Y-132385311D01*
X129730157Y-132460000D01*
X129730157Y-132824566D01*
X129280376Y-132374785D01*
X129264527Y-132355473D01*
X129187479Y-132292241D01*
X129099575Y-132245255D01*
X129004193Y-132216322D01*
X128929854Y-132209000D01*
X128929846Y-132209000D01*
X128905000Y-132206553D01*
X128880154Y-132209000D01*
X128779887Y-132209000D01*
X128763711Y-132189289D01*
X128705696Y-132141678D01*
X128639508Y-132106299D01*
X128567689Y-132084513D01*
X128493000Y-132077157D01*
X128220749Y-132077157D01*
X127822751Y-131679160D01*
X127877987Y-131545809D01*
X127908000Y-131394922D01*
X127908000Y-131241078D01*
X127886459Y-131132784D01*
X127892522Y-131137760D01*
X127980426Y-131184746D01*
X128053608Y-131206945D01*
X128075807Y-131213679D01*
X128085695Y-131214653D01*
X128150147Y-131221001D01*
X128150154Y-131221001D01*
X128175000Y-131223448D01*
X128199846Y-131221001D01*
X130152153Y-131221001D01*
X130176999Y-131223448D01*
X130201845Y-131221001D01*
X130201853Y-131221001D01*
X130276192Y-131213679D01*
X130371574Y-131184746D01*
X130459478Y-131137760D01*
X130536526Y-131074528D01*
X130552375Y-131055216D01*
X131865149Y-129742443D01*
X132757400Y-129742443D01*
X132875984Y-129730763D01*
X132990011Y-129696174D01*
X133095099Y-129640003D01*
X133187210Y-129564410D01*
X133262803Y-129472299D01*
X133318974Y-129367211D01*
X133353563Y-129253184D01*
X133365243Y-129134600D01*
X133365243Y-128684600D01*
X133353563Y-128566016D01*
X133318974Y-128451989D01*
X133262803Y-128346901D01*
X133203468Y-128274600D01*
X133262803Y-128202299D01*
X133318974Y-128097211D01*
X133353563Y-127983184D01*
X133365243Y-127864600D01*
X133365243Y-127414600D01*
X133353563Y-127296016D01*
X133318974Y-127181989D01*
X133262803Y-127076901D01*
X133203468Y-127004600D01*
X133262803Y-126932299D01*
X133318974Y-126827211D01*
X133353563Y-126713184D01*
X133365243Y-126594600D01*
X133365243Y-126144600D01*
X133353563Y-126026016D01*
X133318974Y-125911989D01*
X133262803Y-125806901D01*
X133203468Y-125734600D01*
X133262803Y-125662299D01*
X133283005Y-125624504D01*
X133360141Y-125701640D01*
X133488058Y-125787111D01*
X133630191Y-125845985D01*
X133781078Y-125875998D01*
X133934922Y-125875998D01*
X134085809Y-125845985D01*
X134227942Y-125787111D01*
X134355859Y-125701640D01*
X134464642Y-125592857D01*
X134550113Y-125464940D01*
X134608987Y-125322807D01*
X134639000Y-125171920D01*
X134639000Y-125018076D01*
X134608987Y-124867189D01*
X134550113Y-124725056D01*
X134464642Y-124597139D01*
X134355859Y-124488356D01*
X134227942Y-124402885D01*
X134085809Y-124344011D01*
X133934922Y-124313998D01*
X133781078Y-124313998D01*
X133630191Y-124344011D01*
X133613445Y-124350947D01*
X133620472Y-124279600D01*
X133617400Y-124115350D01*
X133458650Y-123956600D01*
X132109400Y-123956600D01*
X132109400Y-123976600D01*
X131855400Y-123976600D01*
X131855400Y-123956600D01*
X131835400Y-123956600D01*
X131835400Y-123702600D01*
X131855400Y-123702600D01*
X131855400Y-123682600D01*
X132109400Y-123682600D01*
X132109400Y-123702600D01*
X133458650Y-123702600D01*
X133617400Y-123543850D01*
X133620472Y-123379600D01*
X133608212Y-123255118D01*
X133571902Y-123135420D01*
X133512937Y-123025106D01*
X133433585Y-122928415D01*
X133354514Y-122863524D01*
X133365243Y-122754600D01*
X133365243Y-122585600D01*
X136916136Y-122585600D01*
X136887000Y-122732078D01*
G36*
X145582319Y-117305012D02*
G01*
X145724452Y-117363886D01*
X145875339Y-117393899D01*
X146029183Y-117393899D01*
X146179001Y-117364099D01*
X146179001Y-119424407D01*
X145607409Y-119996000D01*
X145465078Y-119996000D01*
X145314191Y-120026013D01*
X145172058Y-120084887D01*
X145044141Y-120170358D01*
X144935358Y-120279141D01*
X144849887Y-120407058D01*
X144791013Y-120549191D01*
X144761000Y-120700078D01*
X144761000Y-120853922D01*
X144791013Y-121004809D01*
X144849887Y-121146942D01*
X144935358Y-121274859D01*
X145044141Y-121383642D01*
X145172058Y-121469113D01*
X145314191Y-121527987D01*
X145465078Y-121558000D01*
X145618922Y-121558000D01*
X145769809Y-121527987D01*
X145911942Y-121469113D01*
X146039859Y-121383642D01*
X146148642Y-121274859D01*
X146234113Y-121146942D01*
X146292987Y-121004809D01*
X146323000Y-120853922D01*
X146323000Y-120711591D01*
X146415761Y-120618830D01*
X146442013Y-120750809D01*
X146500887Y-120892942D01*
X146586358Y-121020859D01*
X146695141Y-121129642D01*
X146823058Y-121215113D01*
X146965191Y-121273987D01*
X147116078Y-121304000D01*
X147269922Y-121304000D01*
X147420809Y-121273987D01*
X147562942Y-121215113D01*
X147690859Y-121129642D01*
X147799642Y-121020859D01*
X147885113Y-120892942D01*
X147943987Y-120750809D01*
X147974000Y-120599922D01*
X147974000Y-120446078D01*
X147943987Y-120295191D01*
X147885113Y-120153058D01*
X147799642Y-120025141D01*
X147699000Y-119924499D01*
X147699000Y-117942501D01*
X147711141Y-117954642D01*
X147839058Y-118040113D01*
X147981191Y-118098987D01*
X148132078Y-118129000D01*
X148285922Y-118129000D01*
X148436809Y-118098987D01*
X148578942Y-118040113D01*
X148702673Y-117957439D01*
X148731997Y-118012299D01*
X148791332Y-118084600D01*
X148731997Y-118156901D01*
X148675826Y-118261989D01*
X148641237Y-118376016D01*
X148629557Y-118494600D01*
X148629557Y-118944600D01*
X148641237Y-119063184D01*
X148675826Y-119177211D01*
X148731997Y-119282299D01*
X148791332Y-119354600D01*
X148731997Y-119426901D01*
X148675826Y-119531989D01*
X148641237Y-119646016D01*
X148629557Y-119764600D01*
X148629557Y-120214600D01*
X148641237Y-120333184D01*
X148675826Y-120447211D01*
X148731997Y-120552299D01*
X148791332Y-120624600D01*
X148731997Y-120696901D01*
X148675826Y-120801989D01*
X148641237Y-120916016D01*
X148629557Y-121034600D01*
X148629557Y-121484600D01*
X148641237Y-121603184D01*
X148675826Y-121717211D01*
X148731997Y-121822299D01*
X148791332Y-121894600D01*
X148731997Y-121966901D01*
X148701691Y-122023600D01*
X144449245Y-122023600D01*
X144424399Y-122021153D01*
X144399553Y-122023600D01*
X144399546Y-122023600D01*
X144325207Y-122030922D01*
X144229825Y-122059855D01*
X144141921Y-122106841D01*
X144064873Y-122170073D01*
X144049029Y-122189379D01*
X134965375Y-131273034D01*
X133901535Y-131273034D01*
X133800893Y-131172392D01*
X133717438Y-131116629D01*
X138008220Y-126825848D01*
X138027527Y-126810003D01*
X138090759Y-126732955D01*
X138137745Y-126645051D01*
X138166678Y-126549669D01*
X138174000Y-126475330D01*
X138174000Y-126475322D01*
X138176447Y-126450476D01*
X138174000Y-126425630D01*
X138174000Y-123407501D01*
X138274642Y-123306859D01*
X138360113Y-123178942D01*
X138418987Y-123036809D01*
X138449000Y-122885922D01*
X138449000Y-122732078D01*
X138419864Y-122585600D01*
X139007548Y-122585600D01*
X139032394Y-122588047D01*
X139057240Y-122585600D01*
X139057248Y-122585600D01*
X139131587Y-122578278D01*
X139226969Y-122549345D01*
X139314873Y-122502359D01*
X139391921Y-122439127D01*
X139407770Y-122419815D01*
X141158586Y-120669000D01*
X141300916Y-120669000D01*
X141451803Y-120638987D01*
X141593936Y-120580113D01*
X141721853Y-120494642D01*
X141830636Y-120385859D01*
X141916107Y-120257942D01*
X141974981Y-120115809D01*
X142004994Y-119964922D01*
X142004994Y-119811078D01*
X141974981Y-119660191D01*
X141916107Y-119518058D01*
X141830636Y-119390141D01*
X141721853Y-119281358D01*
X141593936Y-119195887D01*
X141451803Y-119137013D01*
X141362398Y-119119229D01*
X142227629Y-118253999D01*
X144289502Y-118253999D01*
X144390144Y-118354641D01*
X144518061Y-118440112D01*
X144660194Y-118498986D01*
X144811081Y-118528999D01*
X144964925Y-118528999D01*
X145115812Y-118498986D01*
X145257945Y-118440112D01*
X145385862Y-118354641D01*
X145494645Y-118245858D01*
X145580116Y-118117941D01*
X145638990Y-117975808D01*
X145669003Y-117824921D01*
X145669003Y-117671077D01*
X145638990Y-117520190D01*
X145580116Y-117378057D01*
X145494645Y-117250140D01*
X145483466Y-117238961D01*
X145582319Y-117305012D01*
G37*
X145582319Y-117305012D02*
X145724452Y-117363886D01*
X145875339Y-117393899D01*
X146029183Y-117393899D01*
X146179001Y-117364099D01*
X146179001Y-119424407D01*
X145607409Y-119996000D01*
X145465078Y-119996000D01*
X145314191Y-120026013D01*
X145172058Y-120084887D01*
X145044141Y-120170358D01*
X144935358Y-120279141D01*
X144849887Y-120407058D01*
X144791013Y-120549191D01*
X144761000Y-120700078D01*
X144761000Y-120853922D01*
X144791013Y-121004809D01*
X144849887Y-121146942D01*
X144935358Y-121274859D01*
X145044141Y-121383642D01*
X145172058Y-121469113D01*
X145314191Y-121527987D01*
X145465078Y-121558000D01*
X145618922Y-121558000D01*
X145769809Y-121527987D01*
X145911942Y-121469113D01*
X146039859Y-121383642D01*
X146148642Y-121274859D01*
X146234113Y-121146942D01*
X146292987Y-121004809D01*
X146323000Y-120853922D01*
X146323000Y-120711591D01*
X146415761Y-120618830D01*
X146442013Y-120750809D01*
X146500887Y-120892942D01*
X146586358Y-121020859D01*
X146695141Y-121129642D01*
X146823058Y-121215113D01*
X146965191Y-121273987D01*
X147116078Y-121304000D01*
X147269922Y-121304000D01*
X147420809Y-121273987D01*
X147562942Y-121215113D01*
X147690859Y-121129642D01*
X147799642Y-121020859D01*
X147885113Y-120892942D01*
X147943987Y-120750809D01*
X147974000Y-120599922D01*
X147974000Y-120446078D01*
X147943987Y-120295191D01*
X147885113Y-120153058D01*
X147799642Y-120025141D01*
X147699000Y-119924499D01*
X147699000Y-117942501D01*
X147711141Y-117954642D01*
X147839058Y-118040113D01*
X147981191Y-118098987D01*
X148132078Y-118129000D01*
X148285922Y-118129000D01*
X148436809Y-118098987D01*
X148578942Y-118040113D01*
X148702673Y-117957439D01*
X148731997Y-118012299D01*
X148791332Y-118084600D01*
X148731997Y-118156901D01*
X148675826Y-118261989D01*
X148641237Y-118376016D01*
X148629557Y-118494600D01*
X148629557Y-118944600D01*
X148641237Y-119063184D01*
X148675826Y-119177211D01*
X148731997Y-119282299D01*
X148791332Y-119354600D01*
X148731997Y-119426901D01*
X148675826Y-119531989D01*
X148641237Y-119646016D01*
X148629557Y-119764600D01*
X148629557Y-120214600D01*
X148641237Y-120333184D01*
X148675826Y-120447211D01*
X148731997Y-120552299D01*
X148791332Y-120624600D01*
X148731997Y-120696901D01*
X148675826Y-120801989D01*
X148641237Y-120916016D01*
X148629557Y-121034600D01*
X148629557Y-121484600D01*
X148641237Y-121603184D01*
X148675826Y-121717211D01*
X148731997Y-121822299D01*
X148791332Y-121894600D01*
X148731997Y-121966901D01*
X148701691Y-122023600D01*
X144449245Y-122023600D01*
X144424399Y-122021153D01*
X144399553Y-122023600D01*
X144399546Y-122023600D01*
X144325207Y-122030922D01*
X144229825Y-122059855D01*
X144141921Y-122106841D01*
X144064873Y-122170073D01*
X144049029Y-122189379D01*
X134965375Y-131273034D01*
X133901535Y-131273034D01*
X133800893Y-131172392D01*
X133717438Y-131116629D01*
X138008220Y-126825848D01*
X138027527Y-126810003D01*
X138090759Y-126732955D01*
X138137745Y-126645051D01*
X138166678Y-126549669D01*
X138174000Y-126475330D01*
X138174000Y-126475322D01*
X138176447Y-126450476D01*
X138174000Y-126425630D01*
X138174000Y-123407501D01*
X138274642Y-123306859D01*
X138360113Y-123178942D01*
X138418987Y-123036809D01*
X138449000Y-122885922D01*
X138449000Y-122732078D01*
X138419864Y-122585600D01*
X139007548Y-122585600D01*
X139032394Y-122588047D01*
X139057240Y-122585600D01*
X139057248Y-122585600D01*
X139131587Y-122578278D01*
X139226969Y-122549345D01*
X139314873Y-122502359D01*
X139391921Y-122439127D01*
X139407770Y-122419815D01*
X141158586Y-120669000D01*
X141300916Y-120669000D01*
X141451803Y-120638987D01*
X141593936Y-120580113D01*
X141721853Y-120494642D01*
X141830636Y-120385859D01*
X141916107Y-120257942D01*
X141974981Y-120115809D01*
X142004994Y-119964922D01*
X142004994Y-119811078D01*
X141974981Y-119660191D01*
X141916107Y-119518058D01*
X141830636Y-119390141D01*
X141721853Y-119281358D01*
X141593936Y-119195887D01*
X141451803Y-119137013D01*
X141362398Y-119119229D01*
X142227629Y-118253999D01*
X144289502Y-118253999D01*
X144390144Y-118354641D01*
X144518061Y-118440112D01*
X144660194Y-118498986D01*
X144811081Y-118528999D01*
X144964925Y-118528999D01*
X145115812Y-118498986D01*
X145257945Y-118440112D01*
X145385862Y-118354641D01*
X145494645Y-118245858D01*
X145580116Y-118117941D01*
X145638990Y-117975808D01*
X145669003Y-117824921D01*
X145669003Y-117671077D01*
X145638990Y-117520190D01*
X145580116Y-117378057D01*
X145494645Y-117250140D01*
X145483466Y-117238961D01*
X145582319Y-117305012D01*
G36*
X152527000Y-121793000D02*
G01*
X152547000Y-121793000D01*
X152547000Y-122047000D01*
X152527000Y-122047000D01*
X152527000Y-122067000D01*
X152273000Y-122067000D01*
X152273000Y-122047000D01*
X152253000Y-122047000D01*
X152253000Y-121793000D01*
X152273000Y-121793000D01*
X152273000Y-121773000D01*
X152527000Y-121773000D01*
X152527000Y-121793000D01*
G37*
X152527000Y-121793000D02*
X152547000Y-121793000D01*
X152547000Y-122047000D01*
X152527000Y-122047000D01*
X152527000Y-122067000D01*
X152273000Y-122067000D01*
X152273000Y-122047000D01*
X152253000Y-122047000D01*
X152253000Y-121793000D01*
X152273000Y-121793000D01*
X152273000Y-121773000D01*
X152527000Y-121773000D01*
X152527000Y-121793000D01*
G36*
X133378358Y-121130849D02*
G01*
X133487141Y-121239632D01*
X133615058Y-121325103D01*
X133757191Y-121383977D01*
X133908078Y-121413990D01*
X134061922Y-121413990D01*
X134212809Y-121383977D01*
X134354942Y-121325103D01*
X134482859Y-121239632D01*
X134583501Y-121138990D01*
X139108200Y-121138990D01*
X139133046Y-121141437D01*
X139157892Y-121138990D01*
X139157900Y-121138990D01*
X139232239Y-121131668D01*
X139278884Y-121117519D01*
X138822803Y-121573600D01*
X133356477Y-121573600D01*
X133365243Y-121484600D01*
X133365243Y-121111221D01*
X133378358Y-121130849D01*
G37*
X133378358Y-121130849D02*
X133487141Y-121239632D01*
X133615058Y-121325103D01*
X133757191Y-121383977D01*
X133908078Y-121413990D01*
X134061922Y-121413990D01*
X134212809Y-121383977D01*
X134354942Y-121325103D01*
X134482859Y-121239632D01*
X134583501Y-121138990D01*
X139108200Y-121138990D01*
X139133046Y-121141437D01*
X139157892Y-121138990D01*
X139157900Y-121138990D01*
X139232239Y-121131668D01*
X139278884Y-121117519D01*
X138822803Y-121573600D01*
X133356477Y-121573600D01*
X133365243Y-121484600D01*
X133365243Y-121111221D01*
X133378358Y-121130849D01*
G36*
X148481863Y-105215106D02*
G01*
X148422898Y-105325420D01*
X148386588Y-105445118D01*
X148374328Y-105569600D01*
X148377400Y-105733850D01*
X148536150Y-105892600D01*
X149885400Y-105892600D01*
X149885400Y-105872600D01*
X150139400Y-105872600D01*
X150139400Y-105892600D01*
X150159400Y-105892600D01*
X150159400Y-106146600D01*
X150139400Y-106146600D01*
X150139400Y-106166600D01*
X149885400Y-106166600D01*
X149885400Y-106146600D01*
X148536150Y-106146600D01*
X148377400Y-106305350D01*
X148374328Y-106469600D01*
X148386588Y-106594082D01*
X148422898Y-106713780D01*
X148460218Y-106783600D01*
X144830256Y-106783600D01*
X144805402Y-106781152D01*
X144780548Y-106783600D01*
X144706209Y-106790922D01*
X144610827Y-106819855D01*
X144522923Y-106866841D01*
X144445875Y-106930073D01*
X144430030Y-106949380D01*
X137733409Y-113646002D01*
X137591078Y-113646002D01*
X137440191Y-113676015D01*
X137298058Y-113734889D01*
X137170141Y-113820360D01*
X137061358Y-113929143D01*
X136975887Y-114057060D01*
X136917013Y-114199193D01*
X136887000Y-114350080D01*
X136887000Y-114503924D01*
X136917013Y-114654811D01*
X136975887Y-114796944D01*
X137061358Y-114924861D01*
X137170141Y-115033644D01*
X137298058Y-115119115D01*
X137440191Y-115177989D01*
X137591078Y-115208002D01*
X137744922Y-115208002D01*
X137895809Y-115177989D01*
X138037942Y-115119115D01*
X138165859Y-115033644D01*
X138274642Y-114924861D01*
X138360113Y-114796944D01*
X138418987Y-114654811D01*
X138449000Y-114503924D01*
X138449000Y-114361593D01*
X145014994Y-107795600D01*
X148701691Y-107795600D01*
X148731997Y-107852299D01*
X148791332Y-107924600D01*
X148731997Y-107996901D01*
X148675826Y-108101989D01*
X148641237Y-108216016D01*
X148629557Y-108334600D01*
X148629557Y-108784600D01*
X148641237Y-108903184D01*
X148675826Y-109017211D01*
X148731997Y-109122299D01*
X148791332Y-109194600D01*
X148731997Y-109266901D01*
X148675826Y-109371989D01*
X148641237Y-109486016D01*
X148629557Y-109604600D01*
X148629557Y-109607851D01*
X147614785Y-110622624D01*
X147595473Y-110638473D01*
X147532241Y-110715521D01*
X147485255Y-110803426D01*
X147456322Y-110898808D01*
X147449000Y-110973147D01*
X147449000Y-110973154D01*
X147446553Y-110998000D01*
X147449000Y-111022846D01*
X147449001Y-112947407D01*
X146344785Y-114051624D01*
X146325473Y-114067473D01*
X146262241Y-114144521D01*
X146215255Y-114232426D01*
X146186322Y-114327808D01*
X146179000Y-114402147D01*
X146179000Y-114402154D01*
X146176553Y-114427000D01*
X146179000Y-114451846D01*
X146179000Y-114602410D01*
X145053000Y-113476411D01*
X145053000Y-113334080D01*
X145022987Y-113183193D01*
X144964113Y-113041060D01*
X144878642Y-112913143D01*
X144769859Y-112804360D01*
X144641942Y-112718889D01*
X144499809Y-112660015D01*
X144348922Y-112630002D01*
X144195078Y-112630002D01*
X144044191Y-112660015D01*
X143902058Y-112718889D01*
X143774141Y-112804360D01*
X143665358Y-112913143D01*
X143579887Y-113041060D01*
X143521013Y-113183193D01*
X143491000Y-113334080D01*
X143491000Y-113487924D01*
X143521013Y-113638811D01*
X143579887Y-113780944D01*
X143665358Y-113908861D01*
X143774141Y-114017644D01*
X143902058Y-114103115D01*
X144037922Y-114159392D01*
X143926578Y-114233790D01*
X143825066Y-114335302D01*
X143759559Y-114341754D01*
X143664177Y-114370687D01*
X143576273Y-114417673D01*
X143499225Y-114480905D01*
X143483380Y-114500212D01*
X141628779Y-116354814D01*
X141609472Y-116370659D01*
X141546240Y-116447707D01*
X141528726Y-116480473D01*
X141499253Y-116535612D01*
X141470320Y-116630994D01*
X141467165Y-116663026D01*
X141462998Y-116705332D01*
X141462998Y-116705340D01*
X141460551Y-116730186D01*
X141462998Y-116755032D01*
X141462998Y-116901410D01*
X138880809Y-119483600D01*
X138372267Y-119483600D01*
X138418987Y-119370809D01*
X138449000Y-119219922D01*
X138449000Y-119066078D01*
X138418987Y-118915191D01*
X138360113Y-118773058D01*
X138274642Y-118645141D01*
X138165859Y-118536358D01*
X138037942Y-118450887D01*
X137895809Y-118392013D01*
X137744922Y-118362000D01*
X137602592Y-118362000D01*
X136650000Y-117409409D01*
X136650000Y-110476054D01*
X136652448Y-110451200D01*
X136642678Y-110352007D01*
X136613745Y-110256625D01*
X136607703Y-110245322D01*
X136566759Y-110168721D01*
X136503527Y-110091673D01*
X136484220Y-110075828D01*
X133376239Y-106967848D01*
X133433585Y-106920785D01*
X133512937Y-106824094D01*
X133571902Y-106713780D01*
X133608212Y-106594082D01*
X133620472Y-106469600D01*
X133617400Y-106305350D01*
X133458650Y-106146600D01*
X132109400Y-106146600D01*
X132109400Y-106166600D01*
X131855400Y-106166600D01*
X131855400Y-106146600D01*
X131835400Y-106146600D01*
X131835400Y-105892600D01*
X131855400Y-105892600D01*
X131855400Y-105872600D01*
X132109400Y-105872600D01*
X132109400Y-105892600D01*
X133458650Y-105892600D01*
X133617400Y-105733850D01*
X133620472Y-105569600D01*
X133608212Y-105445118D01*
X133571902Y-105325420D01*
X133512937Y-105215106D01*
X133505464Y-105206000D01*
X148489336Y-105206000D01*
X148481863Y-105215106D01*
G37*
X148481863Y-105215106D02*
X148422898Y-105325420D01*
X148386588Y-105445118D01*
X148374328Y-105569600D01*
X148377400Y-105733850D01*
X148536150Y-105892600D01*
X149885400Y-105892600D01*
X149885400Y-105872600D01*
X150139400Y-105872600D01*
X150139400Y-105892600D01*
X150159400Y-105892600D01*
X150159400Y-106146600D01*
X150139400Y-106146600D01*
X150139400Y-106166600D01*
X149885400Y-106166600D01*
X149885400Y-106146600D01*
X148536150Y-106146600D01*
X148377400Y-106305350D01*
X148374328Y-106469600D01*
X148386588Y-106594082D01*
X148422898Y-106713780D01*
X148460218Y-106783600D01*
X144830256Y-106783600D01*
X144805402Y-106781152D01*
X144780548Y-106783600D01*
X144706209Y-106790922D01*
X144610827Y-106819855D01*
X144522923Y-106866841D01*
X144445875Y-106930073D01*
X144430030Y-106949380D01*
X137733409Y-113646002D01*
X137591078Y-113646002D01*
X137440191Y-113676015D01*
X137298058Y-113734889D01*
X137170141Y-113820360D01*
X137061358Y-113929143D01*
X136975887Y-114057060D01*
X136917013Y-114199193D01*
X136887000Y-114350080D01*
X136887000Y-114503924D01*
X136917013Y-114654811D01*
X136975887Y-114796944D01*
X137061358Y-114924861D01*
X137170141Y-115033644D01*
X137298058Y-115119115D01*
X137440191Y-115177989D01*
X137591078Y-115208002D01*
X137744922Y-115208002D01*
X137895809Y-115177989D01*
X138037942Y-115119115D01*
X138165859Y-115033644D01*
X138274642Y-114924861D01*
X138360113Y-114796944D01*
X138418987Y-114654811D01*
X138449000Y-114503924D01*
X138449000Y-114361593D01*
X145014994Y-107795600D01*
X148701691Y-107795600D01*
X148731997Y-107852299D01*
X148791332Y-107924600D01*
X148731997Y-107996901D01*
X148675826Y-108101989D01*
X148641237Y-108216016D01*
X148629557Y-108334600D01*
X148629557Y-108784600D01*
X148641237Y-108903184D01*
X148675826Y-109017211D01*
X148731997Y-109122299D01*
X148791332Y-109194600D01*
X148731997Y-109266901D01*
X148675826Y-109371989D01*
X148641237Y-109486016D01*
X148629557Y-109604600D01*
X148629557Y-109607851D01*
X147614785Y-110622624D01*
X147595473Y-110638473D01*
X147532241Y-110715521D01*
X147485255Y-110803426D01*
X147456322Y-110898808D01*
X147449000Y-110973147D01*
X147449000Y-110973154D01*
X147446553Y-110998000D01*
X147449000Y-111022846D01*
X147449001Y-112947407D01*
X146344785Y-114051624D01*
X146325473Y-114067473D01*
X146262241Y-114144521D01*
X146215255Y-114232426D01*
X146186322Y-114327808D01*
X146179000Y-114402147D01*
X146179000Y-114402154D01*
X146176553Y-114427000D01*
X146179000Y-114451846D01*
X146179000Y-114602410D01*
X145053000Y-113476411D01*
X145053000Y-113334080D01*
X145022987Y-113183193D01*
X144964113Y-113041060D01*
X144878642Y-112913143D01*
X144769859Y-112804360D01*
X144641942Y-112718889D01*
X144499809Y-112660015D01*
X144348922Y-112630002D01*
X144195078Y-112630002D01*
X144044191Y-112660015D01*
X143902058Y-112718889D01*
X143774141Y-112804360D01*
X143665358Y-112913143D01*
X143579887Y-113041060D01*
X143521013Y-113183193D01*
X143491000Y-113334080D01*
X143491000Y-113487924D01*
X143521013Y-113638811D01*
X143579887Y-113780944D01*
X143665358Y-113908861D01*
X143774141Y-114017644D01*
X143902058Y-114103115D01*
X144037922Y-114159392D01*
X143926578Y-114233790D01*
X143825066Y-114335302D01*
X143759559Y-114341754D01*
X143664177Y-114370687D01*
X143576273Y-114417673D01*
X143499225Y-114480905D01*
X143483380Y-114500212D01*
X141628779Y-116354814D01*
X141609472Y-116370659D01*
X141546240Y-116447707D01*
X141528726Y-116480473D01*
X141499253Y-116535612D01*
X141470320Y-116630994D01*
X141467165Y-116663026D01*
X141462998Y-116705332D01*
X141462998Y-116705340D01*
X141460551Y-116730186D01*
X141462998Y-116755032D01*
X141462998Y-116901410D01*
X138880809Y-119483600D01*
X138372267Y-119483600D01*
X138418987Y-119370809D01*
X138449000Y-119219922D01*
X138449000Y-119066078D01*
X138418987Y-118915191D01*
X138360113Y-118773058D01*
X138274642Y-118645141D01*
X138165859Y-118536358D01*
X138037942Y-118450887D01*
X137895809Y-118392013D01*
X137744922Y-118362000D01*
X137602592Y-118362000D01*
X136650000Y-117409409D01*
X136650000Y-110476054D01*
X136652448Y-110451200D01*
X136642678Y-110352007D01*
X136613745Y-110256625D01*
X136607703Y-110245322D01*
X136566759Y-110168721D01*
X136503527Y-110091673D01*
X136484220Y-110075828D01*
X133376239Y-106967848D01*
X133433585Y-106920785D01*
X133512937Y-106824094D01*
X133571902Y-106713780D01*
X133608212Y-106594082D01*
X133620472Y-106469600D01*
X133617400Y-106305350D01*
X133458650Y-106146600D01*
X132109400Y-106146600D01*
X132109400Y-106166600D01*
X131855400Y-106166600D01*
X131855400Y-106146600D01*
X131835400Y-106146600D01*
X131835400Y-105892600D01*
X131855400Y-105892600D01*
X131855400Y-105872600D01*
X132109400Y-105872600D01*
X132109400Y-105892600D01*
X133458650Y-105892600D01*
X133617400Y-105733850D01*
X133620472Y-105569600D01*
X133608212Y-105445118D01*
X133571902Y-105325420D01*
X133512937Y-105215106D01*
X133505464Y-105206000D01*
X148489336Y-105206000D01*
X148481863Y-105215106D01*
G36*
X127127000Y-106553000D02*
G01*
X127147000Y-106553000D01*
X127147000Y-106807000D01*
X127127000Y-106807000D01*
X127127000Y-106827000D01*
X126873000Y-106827000D01*
X126873000Y-106807000D01*
X126853000Y-106807000D01*
X126853000Y-106553000D01*
X126873000Y-106553000D01*
X126873000Y-106533000D01*
X127127000Y-106533000D01*
X127127000Y-106553000D01*
G37*
X127127000Y-106553000D02*
X127147000Y-106553000D01*
X127147000Y-106807000D01*
X127127000Y-106807000D01*
X127127000Y-106827000D01*
X126873000Y-106827000D01*
X126873000Y-106807000D01*
X126853000Y-106807000D01*
X126853000Y-106553000D01*
X126873000Y-106553000D01*
X126873000Y-106533000D01*
X127127000Y-106533000D01*
X127127000Y-106553000D01*
%TD*%
M02*
