%TF.GenerationSoftware,KiCad,Pcbnew,(5.1.6-0-10_14)*%
%TF.CreationDate,2020-09-06T23:56:44+02:00*%
%TF.ProjectId,USBCWrover,55534243-5772-46f7-9665-722e6b696361,rev?*%
%TF.SameCoordinates,Original*%
%TF.FileFunction,Legend,Top*%
%TF.FilePolarity,Positive*%
%FSLAX46Y46*%
G04 Gerber Fmt 4.6, Leading zero omitted, Abs format (unit mm)*
G04 Created by KiCad (PCBNEW (5.1.6-0-10_14)) date 2020-09-06 23:56:44*
%MOMM*%
%LPD*%
G01*
G04 APERTURE LIST*
%ADD10C,0.150000*%
%ADD11C,0.120000*%
%ADD12C,0.050000*%
G04 APERTURE END LIST*
D10*
X154140000Y-126561904D02*
X154292380Y-126561904D01*
X154368571Y-126600000D01*
X154444761Y-126676190D01*
X154482857Y-126828571D01*
X154482857Y-127095238D01*
X154444761Y-127247619D01*
X154368571Y-127323809D01*
X154292380Y-127361904D01*
X154140000Y-127361904D01*
X154063809Y-127323809D01*
X153987619Y-127247619D01*
X153949523Y-127095238D01*
X153949523Y-126828571D01*
X153987619Y-126676190D01*
X154063809Y-126600000D01*
X154140000Y-126561904D01*
X154825714Y-126561904D02*
X154825714Y-127209523D01*
X154863809Y-127285714D01*
X154901904Y-127323809D01*
X154978095Y-127361904D01*
X155130476Y-127361904D01*
X155206666Y-127323809D01*
X155244761Y-127285714D01*
X155282857Y-127209523D01*
X155282857Y-126561904D01*
X155549523Y-126561904D02*
X156006666Y-126561904D01*
X155778095Y-127361904D02*
X155778095Y-126561904D01*
X154279676Y-103638400D02*
X154203485Y-103600304D01*
X154089200Y-103600304D01*
X153974914Y-103638400D01*
X153898723Y-103714590D01*
X153860628Y-103790780D01*
X153822533Y-103943161D01*
X153822533Y-104057447D01*
X153860628Y-104209828D01*
X153898723Y-104286019D01*
X153974914Y-104362209D01*
X154089200Y-104400304D01*
X154165390Y-104400304D01*
X154279676Y-104362209D01*
X154317771Y-104324114D01*
X154317771Y-104057447D01*
X154165390Y-104057447D01*
X154660628Y-104400304D02*
X154660628Y-103600304D01*
X155117771Y-104400304D01*
X155117771Y-103600304D01*
X155498723Y-104400304D02*
X155498723Y-103600304D01*
X155689200Y-103600304D01*
X155803485Y-103638400D01*
X155879676Y-103714590D01*
X155917771Y-103790780D01*
X155955866Y-103943161D01*
X155955866Y-104057447D01*
X155917771Y-104209828D01*
X155879676Y-104286019D01*
X155803485Y-104362209D01*
X155689200Y-104400304D01*
X155498723Y-104400304D01*
X151841276Y-103600304D02*
X152298419Y-103600304D01*
X152069847Y-104400304D02*
X152069847Y-103600304D01*
X152488895Y-103600304D02*
X153022228Y-104400304D01*
X153022228Y-103600304D02*
X152488895Y-104400304D01*
X152317466Y-107041904D02*
X152050800Y-106660952D01*
X151860323Y-107041904D02*
X151860323Y-106241904D01*
X152165085Y-106241904D01*
X152241276Y-106280000D01*
X152279371Y-106318095D01*
X152317466Y-106394285D01*
X152317466Y-106508571D01*
X152279371Y-106584761D01*
X152241276Y-106622857D01*
X152165085Y-106660952D01*
X151860323Y-106660952D01*
X152584133Y-106241904D02*
X153117466Y-107041904D01*
X153117466Y-106241904D02*
X152584133Y-107041904D01*
X154381276Y-106318095D02*
X154419371Y-106280000D01*
X154495561Y-106241904D01*
X154686038Y-106241904D01*
X154762228Y-106280000D01*
X154800323Y-106318095D01*
X154838419Y-106394285D01*
X154838419Y-106470476D01*
X154800323Y-106584761D01*
X154343180Y-107041904D01*
X154838419Y-107041904D01*
X155105085Y-106241904D02*
X155638419Y-106241904D01*
X155295561Y-107041904D01*
X154381276Y-108858095D02*
X154419371Y-108820000D01*
X154495561Y-108781904D01*
X154686038Y-108781904D01*
X154762228Y-108820000D01*
X154800323Y-108858095D01*
X154838419Y-108934285D01*
X154838419Y-109010476D01*
X154800323Y-109124761D01*
X154343180Y-109581904D01*
X154838419Y-109581904D01*
X155562228Y-108781904D02*
X155181276Y-108781904D01*
X155143180Y-109162857D01*
X155181276Y-109124761D01*
X155257466Y-109086666D01*
X155447942Y-109086666D01*
X155524133Y-109124761D01*
X155562228Y-109162857D01*
X155600323Y-109239047D01*
X155600323Y-109429523D01*
X155562228Y-109505714D01*
X155524133Y-109543809D01*
X155447942Y-109581904D01*
X155257466Y-109581904D01*
X155181276Y-109543809D01*
X155143180Y-109505714D01*
X151841276Y-108858095D02*
X151879371Y-108820000D01*
X151955561Y-108781904D01*
X152146038Y-108781904D01*
X152222228Y-108820000D01*
X152260323Y-108858095D01*
X152298419Y-108934285D01*
X152298419Y-109010476D01*
X152260323Y-109124761D01*
X151803180Y-109581904D01*
X152298419Y-109581904D01*
X152603180Y-108858095D02*
X152641276Y-108820000D01*
X152717466Y-108781904D01*
X152907942Y-108781904D01*
X152984133Y-108820000D01*
X153022228Y-108858095D01*
X153060323Y-108934285D01*
X153060323Y-109010476D01*
X153022228Y-109124761D01*
X152565085Y-109581904D01*
X153060323Y-109581904D01*
X151790476Y-111448895D02*
X151828571Y-111410800D01*
X151904761Y-111372704D01*
X152095238Y-111372704D01*
X152171428Y-111410800D01*
X152209523Y-111448895D01*
X152247619Y-111525085D01*
X152247619Y-111601276D01*
X152209523Y-111715561D01*
X151752380Y-112172704D01*
X152247619Y-112172704D01*
X153009523Y-112172704D02*
X152552380Y-112172704D01*
X152780952Y-112172704D02*
X152780952Y-111372704D01*
X152704761Y-111486990D01*
X152628571Y-111563180D01*
X152552380Y-111601276D01*
X154292380Y-111423504D02*
X154787619Y-111423504D01*
X154520952Y-111728266D01*
X154635238Y-111728266D01*
X154711428Y-111766361D01*
X154749523Y-111804457D01*
X154787619Y-111880647D01*
X154787619Y-112071123D01*
X154749523Y-112147314D01*
X154711428Y-112185409D01*
X154635238Y-112223504D01*
X154406666Y-112223504D01*
X154330476Y-112185409D01*
X154292380Y-112147314D01*
X155092380Y-111499695D02*
X155130476Y-111461600D01*
X155206666Y-111423504D01*
X155397142Y-111423504D01*
X155473333Y-111461600D01*
X155511428Y-111499695D01*
X155549523Y-111575885D01*
X155549523Y-111652076D01*
X155511428Y-111766361D01*
X155054285Y-112223504D01*
X155549523Y-112223504D01*
X154787619Y-114661904D02*
X154330476Y-114661904D01*
X154559047Y-114661904D02*
X154559047Y-113861904D01*
X154482857Y-113976190D01*
X154406666Y-114052380D01*
X154330476Y-114090476D01*
X155092380Y-113938095D02*
X155130476Y-113900000D01*
X155206666Y-113861904D01*
X155397142Y-113861904D01*
X155473333Y-113900000D01*
X155511428Y-113938095D01*
X155549523Y-114014285D01*
X155549523Y-114090476D01*
X155511428Y-114204761D01*
X155054285Y-114661904D01*
X155549523Y-114661904D01*
X155092380Y-116617771D02*
X155092380Y-117151104D01*
X154901904Y-116313009D02*
X154711428Y-116884438D01*
X155206666Y-116884438D01*
X151841276Y-119030800D02*
X151765085Y-118992704D01*
X151650800Y-118992704D01*
X151536514Y-119030800D01*
X151460323Y-119106990D01*
X151422228Y-119183180D01*
X151384133Y-119335561D01*
X151384133Y-119449847D01*
X151422228Y-119602228D01*
X151460323Y-119678419D01*
X151536514Y-119754609D01*
X151650800Y-119792704D01*
X151726990Y-119792704D01*
X151841276Y-119754609D01*
X151879371Y-119716514D01*
X151879371Y-119449847D01*
X151726990Y-119449847D01*
X152222228Y-119792704D02*
X152222228Y-118992704D01*
X152679371Y-119792704D01*
X152679371Y-118992704D01*
X153060323Y-119792704D02*
X153060323Y-118992704D01*
X153250800Y-118992704D01*
X153365085Y-119030800D01*
X153441276Y-119106990D01*
X153479371Y-119183180D01*
X153517466Y-119335561D01*
X153517466Y-119449847D01*
X153479371Y-119602228D01*
X153441276Y-119678419D01*
X153365085Y-119754609D01*
X153250800Y-119792704D01*
X153060323Y-119792704D01*
X154140000Y-118941904D02*
X154216190Y-118941904D01*
X154292380Y-118980000D01*
X154330476Y-119018095D01*
X154368571Y-119094285D01*
X154406666Y-119246666D01*
X154406666Y-119437142D01*
X154368571Y-119589523D01*
X154330476Y-119665714D01*
X154292380Y-119703809D01*
X154216190Y-119741904D01*
X154140000Y-119741904D01*
X154063809Y-119703809D01*
X154025714Y-119665714D01*
X153987619Y-119589523D01*
X153949523Y-119437142D01*
X153949523Y-119246666D01*
X153987619Y-119094285D01*
X154025714Y-119018095D01*
X154063809Y-118980000D01*
X154140000Y-118941904D01*
X155320952Y-118903809D02*
X154635238Y-119932380D01*
X155854285Y-119322857D02*
X155587619Y-119322857D01*
X155587619Y-119741904D02*
X155587619Y-118941904D01*
X155968571Y-118941904D01*
X154711428Y-121558095D02*
X154749523Y-121520000D01*
X154825714Y-121481904D01*
X155016190Y-121481904D01*
X155092380Y-121520000D01*
X155130476Y-121558095D01*
X155168571Y-121634285D01*
X155168571Y-121710476D01*
X155130476Y-121824761D01*
X154673333Y-122281904D01*
X155168571Y-122281904D01*
X152247619Y-121481904D02*
X151866666Y-121481904D01*
X151828571Y-121862857D01*
X151866666Y-121824761D01*
X151942857Y-121786666D01*
X152133333Y-121786666D01*
X152209523Y-121824761D01*
X152247619Y-121862857D01*
X152285714Y-121939047D01*
X152285714Y-122129523D01*
X152247619Y-122205714D01*
X152209523Y-122243809D01*
X152133333Y-122281904D01*
X151942857Y-122281904D01*
X151866666Y-122243809D01*
X151828571Y-122205714D01*
X152514285Y-121481904D02*
X152780952Y-122281904D01*
X153047619Y-121481904D01*
X151885714Y-127361904D02*
X151504761Y-127361904D01*
X151504761Y-126561904D01*
X152152380Y-126942857D02*
X152419047Y-126942857D01*
X152533333Y-127361904D02*
X152152380Y-127361904D01*
X152152380Y-126561904D01*
X152533333Y-126561904D01*
X152876190Y-127361904D02*
X152876190Y-126561904D01*
X153066666Y-126561904D01*
X153180952Y-126600000D01*
X153257142Y-126676190D01*
X153295238Y-126752380D01*
X153333333Y-126904761D01*
X153333333Y-127019047D01*
X153295238Y-127171428D01*
X153257142Y-127247619D01*
X153180952Y-127323809D01*
X153066666Y-127361904D01*
X152876190Y-127361904D01*
X152247619Y-124872704D02*
X151790476Y-124872704D01*
X152019047Y-124872704D02*
X152019047Y-124072704D01*
X151942857Y-124186990D01*
X151866666Y-124263180D01*
X151790476Y-124301276D01*
X152971428Y-124072704D02*
X152590476Y-124072704D01*
X152552380Y-124453657D01*
X152590476Y-124415561D01*
X152666666Y-124377466D01*
X152857142Y-124377466D01*
X152933333Y-124415561D01*
X152971428Y-124453657D01*
X153009523Y-124529847D01*
X153009523Y-124720323D01*
X152971428Y-124796514D01*
X152933333Y-124834609D01*
X152857142Y-124872704D01*
X152666666Y-124872704D01*
X152590476Y-124834609D01*
X152552380Y-124796514D01*
X129387619Y-124872704D02*
X128930476Y-124872704D01*
X129159047Y-124872704D02*
X129159047Y-124072704D01*
X129082857Y-124186990D01*
X129006666Y-124263180D01*
X128930476Y-124301276D01*
X129654285Y-124072704D02*
X130149523Y-124072704D01*
X129882857Y-124377466D01*
X129997142Y-124377466D01*
X130073333Y-124415561D01*
X130111428Y-124453657D01*
X130149523Y-124529847D01*
X130149523Y-124720323D01*
X130111428Y-124796514D01*
X130073333Y-124834609D01*
X129997142Y-124872704D01*
X129768571Y-124872704D01*
X129692380Y-124834609D01*
X129654285Y-124796514D01*
X128549523Y-121481904D02*
X129044761Y-121481904D01*
X128778095Y-121786666D01*
X128892380Y-121786666D01*
X128968571Y-121824761D01*
X129006666Y-121862857D01*
X129044761Y-121939047D01*
X129044761Y-122129523D01*
X129006666Y-122205714D01*
X128968571Y-122243809D01*
X128892380Y-122281904D01*
X128663809Y-122281904D01*
X128587619Y-122243809D01*
X128549523Y-122205714D01*
X129273333Y-121481904D02*
X129540000Y-122281904D01*
X129806666Y-121481904D01*
X129997142Y-121481904D02*
X130492380Y-121481904D01*
X130225714Y-121786666D01*
X130340000Y-121786666D01*
X130416190Y-121824761D01*
X130454285Y-121862857D01*
X130492380Y-121939047D01*
X130492380Y-122129523D01*
X130454285Y-122205714D01*
X130416190Y-122243809D01*
X130340000Y-122281904D01*
X130111428Y-122281904D01*
X130035238Y-122243809D01*
X129997142Y-122205714D01*
X129730476Y-118891104D02*
X129349523Y-118891104D01*
X129311428Y-119272057D01*
X129349523Y-119233961D01*
X129425714Y-119195866D01*
X129616190Y-119195866D01*
X129692380Y-119233961D01*
X129730476Y-119272057D01*
X129768571Y-119348247D01*
X129768571Y-119538723D01*
X129730476Y-119614914D01*
X129692380Y-119653009D01*
X129616190Y-119691104D01*
X129425714Y-119691104D01*
X129349523Y-119653009D01*
X129311428Y-119614914D01*
X126847619Y-119741904D02*
X126390476Y-119741904D01*
X126619047Y-119741904D02*
X126619047Y-118941904D01*
X126542857Y-119056190D01*
X126466666Y-119132380D01*
X126390476Y-119170476D01*
X127533333Y-119208571D02*
X127533333Y-119741904D01*
X127342857Y-118903809D02*
X127152380Y-119475238D01*
X127647619Y-119475238D01*
X128981276Y-116478095D02*
X129019371Y-116440000D01*
X129095561Y-116401904D01*
X129286038Y-116401904D01*
X129362228Y-116440000D01*
X129400323Y-116478095D01*
X129438419Y-116554285D01*
X129438419Y-116630476D01*
X129400323Y-116744761D01*
X128943180Y-117201904D01*
X129438419Y-117201904D01*
X129705085Y-116401904D02*
X130200323Y-116401904D01*
X129933657Y-116706666D01*
X130047942Y-116706666D01*
X130124133Y-116744761D01*
X130162228Y-116782857D01*
X130200323Y-116859047D01*
X130200323Y-117049523D01*
X130162228Y-117125714D01*
X130124133Y-117163809D01*
X130047942Y-117201904D01*
X129819371Y-117201904D01*
X129743180Y-117163809D01*
X129705085Y-117125714D01*
X125933333Y-117252704D02*
X125933333Y-116452704D01*
X126847619Y-116452704D02*
X127342857Y-116452704D01*
X127076190Y-116757466D01*
X127190476Y-116757466D01*
X127266666Y-116795561D01*
X127304761Y-116833657D01*
X127342857Y-116909847D01*
X127342857Y-117100323D01*
X127304761Y-117176514D01*
X127266666Y-117214609D01*
X127190476Y-117252704D01*
X126961904Y-117252704D01*
X126885714Y-117214609D01*
X126847619Y-117176514D01*
X128028571Y-116719371D02*
X128028571Y-117252704D01*
X127838095Y-116414609D02*
X127647619Y-116986038D01*
X128142857Y-116986038D01*
X126352380Y-113912704D02*
X126847619Y-113912704D01*
X126580952Y-114217466D01*
X126695238Y-114217466D01*
X126771428Y-114255561D01*
X126809523Y-114293657D01*
X126847619Y-114369847D01*
X126847619Y-114560323D01*
X126809523Y-114636514D01*
X126771428Y-114674609D01*
X126695238Y-114712704D01*
X126466666Y-114712704D01*
X126390476Y-114674609D01*
X126352380Y-114636514D01*
X127114285Y-113912704D02*
X127609523Y-113912704D01*
X127342857Y-114217466D01*
X127457142Y-114217466D01*
X127533333Y-114255561D01*
X127571428Y-114293657D01*
X127609523Y-114369847D01*
X127609523Y-114560323D01*
X127571428Y-114636514D01*
X127533333Y-114674609D01*
X127457142Y-114712704D01*
X127228571Y-114712704D01*
X127152380Y-114674609D01*
X127114285Y-114636514D01*
X129438419Y-114712704D02*
X128981276Y-114712704D01*
X129209847Y-114712704D02*
X129209847Y-113912704D01*
X129133657Y-114026990D01*
X129057466Y-114103180D01*
X128981276Y-114141276D01*
X129819371Y-114712704D02*
X129971752Y-114712704D01*
X130047942Y-114674609D01*
X130086038Y-114636514D01*
X130162228Y-114522228D01*
X130200323Y-114369847D01*
X130200323Y-114065085D01*
X130162228Y-113988895D01*
X130124133Y-113950800D01*
X130047942Y-113912704D01*
X129895561Y-113912704D01*
X129819371Y-113950800D01*
X129781276Y-113988895D01*
X129743180Y-114065085D01*
X129743180Y-114255561D01*
X129781276Y-114331752D01*
X129819371Y-114369847D01*
X129895561Y-114407942D01*
X130047942Y-114407942D01*
X130124133Y-114369847D01*
X130162228Y-114331752D01*
X130200323Y-114255561D01*
X129438419Y-112121904D02*
X128981276Y-112121904D01*
X129209847Y-112121904D02*
X129209847Y-111321904D01*
X129133657Y-111436190D01*
X129057466Y-111512380D01*
X128981276Y-111550476D01*
X129895561Y-111664761D02*
X129819371Y-111626666D01*
X129781276Y-111588571D01*
X129743180Y-111512380D01*
X129743180Y-111474285D01*
X129781276Y-111398095D01*
X129819371Y-111360000D01*
X129895561Y-111321904D01*
X130047942Y-111321904D01*
X130124133Y-111360000D01*
X130162228Y-111398095D01*
X130200323Y-111474285D01*
X130200323Y-111512380D01*
X130162228Y-111588571D01*
X130124133Y-111626666D01*
X130047942Y-111664761D01*
X129895561Y-111664761D01*
X129819371Y-111702857D01*
X129781276Y-111740952D01*
X129743180Y-111817142D01*
X129743180Y-111969523D01*
X129781276Y-112045714D01*
X129819371Y-112083809D01*
X129895561Y-112121904D01*
X130047942Y-112121904D01*
X130124133Y-112083809D01*
X130162228Y-112045714D01*
X130200323Y-111969523D01*
X130200323Y-111817142D01*
X130162228Y-111740952D01*
X130124133Y-111702857D01*
X130047942Y-111664761D01*
X125882533Y-112121904D02*
X125882533Y-111321904D01*
X126796819Y-111321904D02*
X127292057Y-111321904D01*
X127025390Y-111626666D01*
X127139676Y-111626666D01*
X127215866Y-111664761D01*
X127253961Y-111702857D01*
X127292057Y-111779047D01*
X127292057Y-111969523D01*
X127253961Y-112045714D01*
X127215866Y-112083809D01*
X127139676Y-112121904D01*
X126911104Y-112121904D01*
X126834914Y-112083809D01*
X126796819Y-112045714D01*
X128015866Y-111321904D02*
X127634914Y-111321904D01*
X127596819Y-111702857D01*
X127634914Y-111664761D01*
X127711104Y-111626666D01*
X127901580Y-111626666D01*
X127977771Y-111664761D01*
X128015866Y-111702857D01*
X128053961Y-111779047D01*
X128053961Y-111969523D01*
X128015866Y-112045714D01*
X127977771Y-112083809D01*
X127901580Y-112121904D01*
X127711104Y-112121904D01*
X127634914Y-112083809D01*
X127596819Y-112045714D01*
X128981276Y-108807295D02*
X129019371Y-108769200D01*
X129095561Y-108731104D01*
X129286038Y-108731104D01*
X129362228Y-108769200D01*
X129400323Y-108807295D01*
X129438419Y-108883485D01*
X129438419Y-108959676D01*
X129400323Y-109073961D01*
X128943180Y-109531104D01*
X129438419Y-109531104D01*
X130124133Y-108731104D02*
X129971752Y-108731104D01*
X129895561Y-108769200D01*
X129857466Y-108807295D01*
X129781276Y-108921580D01*
X129743180Y-109073961D01*
X129743180Y-109378723D01*
X129781276Y-109454914D01*
X129819371Y-109493009D01*
X129895561Y-109531104D01*
X130047942Y-109531104D01*
X130124133Y-109493009D01*
X130162228Y-109454914D01*
X130200323Y-109378723D01*
X130200323Y-109188247D01*
X130162228Y-109112057D01*
X130124133Y-109073961D01*
X130047942Y-109035866D01*
X129895561Y-109035866D01*
X129819371Y-109073961D01*
X129781276Y-109112057D01*
X129743180Y-109188247D01*
X125882533Y-109581904D02*
X125882533Y-108781904D01*
X126796819Y-108781904D02*
X127292057Y-108781904D01*
X127025390Y-109086666D01*
X127139676Y-109086666D01*
X127215866Y-109124761D01*
X127253961Y-109162857D01*
X127292057Y-109239047D01*
X127292057Y-109429523D01*
X127253961Y-109505714D01*
X127215866Y-109543809D01*
X127139676Y-109581904D01*
X126911104Y-109581904D01*
X126834914Y-109543809D01*
X126796819Y-109505714D01*
X127673009Y-109581904D02*
X127825390Y-109581904D01*
X127901580Y-109543809D01*
X127939676Y-109505714D01*
X128015866Y-109391428D01*
X128053961Y-109239047D01*
X128053961Y-108934285D01*
X128015866Y-108858095D01*
X127977771Y-108820000D01*
X127901580Y-108781904D01*
X127749200Y-108781904D01*
X127673009Y-108820000D01*
X127634914Y-108858095D01*
X127596819Y-108934285D01*
X127596819Y-109124761D01*
X127634914Y-109200952D01*
X127673009Y-109239047D01*
X127749200Y-109277142D01*
X127901580Y-109277142D01*
X127977771Y-109239047D01*
X128015866Y-109200952D01*
X128053961Y-109124761D01*
X128524133Y-107041904D02*
X128524133Y-106241904D01*
X129438419Y-106241904D02*
X129933657Y-106241904D01*
X129666990Y-106546666D01*
X129781276Y-106546666D01*
X129857466Y-106584761D01*
X129895561Y-106622857D01*
X129933657Y-106699047D01*
X129933657Y-106889523D01*
X129895561Y-106965714D01*
X129857466Y-107003809D01*
X129781276Y-107041904D01*
X129552704Y-107041904D01*
X129476514Y-107003809D01*
X129438419Y-106965714D01*
X130619371Y-106241904D02*
X130466990Y-106241904D01*
X130390800Y-106280000D01*
X130352704Y-106318095D01*
X130276514Y-106432380D01*
X130238419Y-106584761D01*
X130238419Y-106889523D01*
X130276514Y-106965714D01*
X130314609Y-107003809D01*
X130390800Y-107041904D01*
X130543180Y-107041904D01*
X130619371Y-107003809D01*
X130657466Y-106965714D01*
X130695561Y-106889523D01*
X130695561Y-106699047D01*
X130657466Y-106622857D01*
X130619371Y-106584761D01*
X130543180Y-106546666D01*
X130390800Y-106546666D01*
X130314609Y-106584761D01*
X130276514Y-106622857D01*
X130238419Y-106699047D01*
X129101904Y-104400304D02*
X128835238Y-104019352D01*
X128644761Y-104400304D02*
X128644761Y-103600304D01*
X128949523Y-103600304D01*
X129025714Y-103638400D01*
X129063809Y-103676495D01*
X129101904Y-103752685D01*
X129101904Y-103866971D01*
X129063809Y-103943161D01*
X129025714Y-103981257D01*
X128949523Y-104019352D01*
X128644761Y-104019352D01*
X129406666Y-104362209D02*
X129520952Y-104400304D01*
X129711428Y-104400304D01*
X129787619Y-104362209D01*
X129825714Y-104324114D01*
X129863809Y-104247923D01*
X129863809Y-104171733D01*
X129825714Y-104095542D01*
X129787619Y-104057447D01*
X129711428Y-104019352D01*
X129559047Y-103981257D01*
X129482857Y-103943161D01*
X129444761Y-103905066D01*
X129406666Y-103828876D01*
X129406666Y-103752685D01*
X129444761Y-103676495D01*
X129482857Y-103638400D01*
X129559047Y-103600304D01*
X129749523Y-103600304D01*
X129863809Y-103638400D01*
X130092380Y-103600304D02*
X130549523Y-103600304D01*
X130320952Y-104400304D02*
X130320952Y-103600304D01*
X126390476Y-103638400D02*
X126314285Y-103600304D01*
X126200000Y-103600304D01*
X126085714Y-103638400D01*
X126009523Y-103714590D01*
X125971428Y-103790780D01*
X125933333Y-103943161D01*
X125933333Y-104057447D01*
X125971428Y-104209828D01*
X126009523Y-104286019D01*
X126085714Y-104362209D01*
X126200000Y-104400304D01*
X126276190Y-104400304D01*
X126390476Y-104362209D01*
X126428571Y-104324114D01*
X126428571Y-104057447D01*
X126276190Y-104057447D01*
X126771428Y-104400304D02*
X126771428Y-103600304D01*
X127228571Y-104400304D01*
X127228571Y-103600304D01*
X127609523Y-104400304D02*
X127609523Y-103600304D01*
X127800000Y-103600304D01*
X127914285Y-103638400D01*
X127990476Y-103714590D01*
X128028571Y-103790780D01*
X128066666Y-103943161D01*
X128066666Y-104057447D01*
X128028571Y-104209828D01*
X127990476Y-104286019D01*
X127914285Y-104362209D01*
X127800000Y-104400304D01*
X127609523Y-104400304D01*
X134511023Y-109186942D02*
X134463404Y-109234561D01*
X134320547Y-109282180D01*
X134225309Y-109282180D01*
X134082452Y-109234561D01*
X133987214Y-109139323D01*
X133939595Y-109044085D01*
X133891976Y-108853609D01*
X133891976Y-108710752D01*
X133939595Y-108520276D01*
X133987214Y-108425038D01*
X134082452Y-108329800D01*
X134225309Y-108282180D01*
X134320547Y-108282180D01*
X134463404Y-108329800D01*
X134511023Y-108377419D01*
X135463404Y-109282180D02*
X134891976Y-109282180D01*
X135177690Y-109282180D02*
X135177690Y-108282180D01*
X135082452Y-108425038D01*
X134987214Y-108520276D01*
X134891976Y-108567895D01*
X135939595Y-109234561D02*
X135939595Y-109282180D01*
X135891976Y-109377419D01*
X135844357Y-109425038D01*
X137701500Y-109186942D02*
X137653880Y-109234561D01*
X137511023Y-109282180D01*
X137415785Y-109282180D01*
X137272928Y-109234561D01*
X137177690Y-109139323D01*
X137130071Y-109044085D01*
X137082452Y-108853609D01*
X137082452Y-108710752D01*
X137130071Y-108520276D01*
X137177690Y-108425038D01*
X137272928Y-108329800D01*
X137415785Y-108282180D01*
X137511023Y-108282180D01*
X137653880Y-108329800D01*
X137701500Y-108377419D01*
X138034833Y-108282180D02*
X138653880Y-108282180D01*
X138320547Y-108663133D01*
X138463404Y-108663133D01*
X138558642Y-108710752D01*
X138606261Y-108758371D01*
X138653880Y-108853609D01*
X138653880Y-109091704D01*
X138606261Y-109186942D01*
X138558642Y-109234561D01*
X138463404Y-109282180D01*
X138177690Y-109282180D01*
X138082452Y-109234561D01*
X138034833Y-109186942D01*
X140368166Y-109282180D02*
X139796738Y-109282180D01*
X140082452Y-109282180D02*
X140082452Y-108282180D01*
X139987214Y-108425038D01*
X139891976Y-108520276D01*
X139796738Y-108567895D01*
X140987214Y-108282180D02*
X141082452Y-108282180D01*
X141177690Y-108329800D01*
X141225309Y-108377419D01*
X141272928Y-108472657D01*
X141320547Y-108663133D01*
X141320547Y-108901228D01*
X141272928Y-109091704D01*
X141225309Y-109186942D01*
X141177690Y-109234561D01*
X141082452Y-109282180D01*
X140987214Y-109282180D01*
X140891976Y-109234561D01*
X140844357Y-109186942D01*
X140796738Y-109091704D01*
X140749119Y-108901228D01*
X140749119Y-108663133D01*
X140796738Y-108472657D01*
X140844357Y-108377419D01*
X140891976Y-108329800D01*
X140987214Y-108282180D01*
X141939595Y-108282180D02*
X142034833Y-108282180D01*
X142130071Y-108329800D01*
X142177690Y-108377419D01*
X142225309Y-108472657D01*
X142272928Y-108663133D01*
X142272928Y-108901228D01*
X142225309Y-109091704D01*
X142177690Y-109186942D01*
X142130071Y-109234561D01*
X142034833Y-109282180D01*
X141939595Y-109282180D01*
X141844357Y-109234561D01*
X141796738Y-109186942D01*
X141749119Y-109091704D01*
X141701500Y-108901228D01*
X141701500Y-108663133D01*
X141749119Y-108472657D01*
X141796738Y-108377419D01*
X141844357Y-108329800D01*
X141939595Y-108282180D01*
X142701500Y-108615514D02*
X142701500Y-109282180D01*
X142701500Y-108710752D02*
X142749119Y-108663133D01*
X142844357Y-108615514D01*
X142987214Y-108615514D01*
X143082452Y-108663133D01*
X143130071Y-108758371D01*
X143130071Y-109282180D01*
X134511023Y-110836942D02*
X134463404Y-110884561D01*
X134320547Y-110932180D01*
X134225309Y-110932180D01*
X134082452Y-110884561D01*
X133987214Y-110789323D01*
X133939595Y-110694085D01*
X133891976Y-110503609D01*
X133891976Y-110360752D01*
X133939595Y-110170276D01*
X133987214Y-110075038D01*
X134082452Y-109979800D01*
X134225309Y-109932180D01*
X134320547Y-109932180D01*
X134463404Y-109979800D01*
X134511023Y-110027419D01*
X134891976Y-110027419D02*
X134939595Y-109979800D01*
X135034833Y-109932180D01*
X135272928Y-109932180D01*
X135368166Y-109979800D01*
X135415785Y-110027419D01*
X135463404Y-110122657D01*
X135463404Y-110217895D01*
X135415785Y-110360752D01*
X134844357Y-110932180D01*
X135463404Y-110932180D01*
X135939595Y-110884561D02*
X135939595Y-110932180D01*
X135891976Y-111027419D01*
X135844357Y-111075038D01*
X137701500Y-110836942D02*
X137653880Y-110884561D01*
X137511023Y-110932180D01*
X137415785Y-110932180D01*
X137272928Y-110884561D01*
X137177690Y-110789323D01*
X137130071Y-110694085D01*
X137082452Y-110503609D01*
X137082452Y-110360752D01*
X137130071Y-110170276D01*
X137177690Y-110075038D01*
X137272928Y-109979800D01*
X137415785Y-109932180D01*
X137511023Y-109932180D01*
X137653880Y-109979800D01*
X137701500Y-110027419D01*
X138558642Y-110265514D02*
X138558642Y-110932180D01*
X138320547Y-109884561D02*
X138082452Y-110598847D01*
X138701500Y-110598847D01*
X140272928Y-110265514D02*
X140272928Y-110932180D01*
X140034833Y-109884561D02*
X139796738Y-110598847D01*
X140415785Y-110598847D01*
X141225309Y-110265514D02*
X141225309Y-110932180D01*
X140796738Y-110265514D02*
X140796738Y-110789323D01*
X140844357Y-110884561D01*
X140939595Y-110932180D01*
X141082452Y-110932180D01*
X141177690Y-110884561D01*
X141225309Y-110836942D01*
X141606261Y-109932180D02*
X142272928Y-109932180D01*
X141844357Y-110932180D01*
X133939595Y-112582180D02*
X133939595Y-111582180D01*
X134177690Y-111582180D01*
X134320547Y-111629800D01*
X134415785Y-111725038D01*
X134463404Y-111820276D01*
X134511023Y-112010752D01*
X134511023Y-112153609D01*
X134463404Y-112344085D01*
X134415785Y-112439323D01*
X134320547Y-112534561D01*
X134177690Y-112582180D01*
X133939595Y-112582180D01*
X135463404Y-112582180D02*
X134891976Y-112582180D01*
X135177690Y-112582180D02*
X135177690Y-111582180D01*
X135082452Y-111725038D01*
X134987214Y-111820276D01*
X134891976Y-111867895D01*
X136987214Y-112058371D02*
X137130071Y-112105990D01*
X137177690Y-112153609D01*
X137225309Y-112248847D01*
X137225309Y-112391704D01*
X137177690Y-112486942D01*
X137130071Y-112534561D01*
X137034833Y-112582180D01*
X136653880Y-112582180D01*
X136653880Y-111582180D01*
X136987214Y-111582180D01*
X137082452Y-111629800D01*
X137130071Y-111677419D01*
X137177690Y-111772657D01*
X137177690Y-111867895D01*
X137130071Y-111963133D01*
X137082452Y-112010752D01*
X136987214Y-112058371D01*
X136653880Y-112058371D01*
X138130071Y-111582180D02*
X137653880Y-111582180D01*
X137606261Y-112058371D01*
X137653880Y-112010752D01*
X137749119Y-111963133D01*
X137987214Y-111963133D01*
X138082452Y-112010752D01*
X138130071Y-112058371D01*
X138177690Y-112153609D01*
X138177690Y-112391704D01*
X138130071Y-112486942D01*
X138082452Y-112534561D01*
X137987214Y-112582180D01*
X137749119Y-112582180D01*
X137653880Y-112534561D01*
X137606261Y-112486942D01*
X138749119Y-112010752D02*
X138653880Y-111963133D01*
X138606261Y-111915514D01*
X138558642Y-111820276D01*
X138558642Y-111772657D01*
X138606261Y-111677419D01*
X138653880Y-111629800D01*
X138749119Y-111582180D01*
X138939595Y-111582180D01*
X139034833Y-111629800D01*
X139082452Y-111677419D01*
X139130071Y-111772657D01*
X139130071Y-111820276D01*
X139082452Y-111915514D01*
X139034833Y-111963133D01*
X138939595Y-112010752D01*
X138749119Y-112010752D01*
X138653880Y-112058371D01*
X138606261Y-112105990D01*
X138558642Y-112201228D01*
X138558642Y-112391704D01*
X138606261Y-112486942D01*
X138653880Y-112534561D01*
X138749119Y-112582180D01*
X138939595Y-112582180D01*
X139034833Y-112534561D01*
X139082452Y-112486942D01*
X139130071Y-112391704D01*
X139130071Y-112201228D01*
X139082452Y-112105990D01*
X139034833Y-112058371D01*
X138939595Y-112010752D01*
X140082452Y-112582180D02*
X139511023Y-112582180D01*
X139796738Y-112582180D02*
X139796738Y-111582180D01*
X139701500Y-111725038D01*
X139606261Y-111820276D01*
X139511023Y-111867895D01*
X140558642Y-112582180D02*
X140749119Y-112582180D01*
X140844357Y-112534561D01*
X140891976Y-112486942D01*
X140987214Y-112344085D01*
X141034833Y-112153609D01*
X141034833Y-111772657D01*
X140987214Y-111677419D01*
X140939595Y-111629800D01*
X140844357Y-111582180D01*
X140653880Y-111582180D01*
X140558642Y-111629800D01*
X140511023Y-111677419D01*
X140463404Y-111772657D01*
X140463404Y-112010752D01*
X140511023Y-112105990D01*
X140558642Y-112153609D01*
X140653880Y-112201228D01*
X140844357Y-112201228D01*
X140939595Y-112153609D01*
X140987214Y-112105990D01*
X141034833Y-112010752D01*
X141368166Y-111582180D02*
X141606261Y-112582180D01*
X141796738Y-111867895D01*
X141987214Y-112582180D01*
X142225309Y-111582180D01*
X133939595Y-114232180D02*
X133939595Y-113232180D01*
X134177690Y-113232180D01*
X134320547Y-113279800D01*
X134415785Y-113375038D01*
X134463404Y-113470276D01*
X134511023Y-113660752D01*
X134511023Y-113803609D01*
X134463404Y-113994085D01*
X134415785Y-114089323D01*
X134320547Y-114184561D01*
X134177690Y-114232180D01*
X133939595Y-114232180D01*
X134891976Y-113327419D02*
X134939595Y-113279800D01*
X135034833Y-113232180D01*
X135272928Y-113232180D01*
X135368166Y-113279800D01*
X135415785Y-113327419D01*
X135463404Y-113422657D01*
X135463404Y-113517895D01*
X135415785Y-113660752D01*
X134844357Y-114232180D01*
X135463404Y-114232180D01*
X136606261Y-114184561D02*
X136749119Y-114232180D01*
X136987214Y-114232180D01*
X137082452Y-114184561D01*
X137130071Y-114136942D01*
X137177690Y-114041704D01*
X137177690Y-113946466D01*
X137130071Y-113851228D01*
X137082452Y-113803609D01*
X136987214Y-113755990D01*
X136796738Y-113708371D01*
X136701500Y-113660752D01*
X136653880Y-113613133D01*
X136606261Y-113517895D01*
X136606261Y-113422657D01*
X136653880Y-113327419D01*
X136701500Y-113279800D01*
X136796738Y-113232180D01*
X137034833Y-113232180D01*
X137177690Y-113279800D01*
X137606261Y-114232180D02*
X137606261Y-113232180D01*
X138177690Y-114232180D02*
X137749119Y-113660752D01*
X138177690Y-113232180D02*
X137606261Y-113803609D01*
X139034833Y-113232180D02*
X138844357Y-113232180D01*
X138749119Y-113279800D01*
X138701500Y-113327419D01*
X138606261Y-113470276D01*
X138558642Y-113660752D01*
X138558642Y-114041704D01*
X138606261Y-114136942D01*
X138653880Y-114184561D01*
X138749119Y-114232180D01*
X138939595Y-114232180D01*
X139034833Y-114184561D01*
X139082452Y-114136942D01*
X139130071Y-114041704D01*
X139130071Y-113803609D01*
X139082452Y-113708371D01*
X139034833Y-113660752D01*
X138939595Y-113613133D01*
X138749119Y-113613133D01*
X138653880Y-113660752D01*
X138606261Y-113708371D01*
X138558642Y-113803609D01*
X139701500Y-113660752D02*
X139606261Y-113613133D01*
X139558642Y-113565514D01*
X139511023Y-113470276D01*
X139511023Y-113422657D01*
X139558642Y-113327419D01*
X139606261Y-113279800D01*
X139701500Y-113232180D01*
X139891976Y-113232180D01*
X139987214Y-113279800D01*
X140034833Y-113327419D01*
X140082452Y-113422657D01*
X140082452Y-113470276D01*
X140034833Y-113565514D01*
X139987214Y-113613133D01*
X139891976Y-113660752D01*
X139701500Y-113660752D01*
X139606261Y-113708371D01*
X139558642Y-113755990D01*
X139511023Y-113851228D01*
X139511023Y-114041704D01*
X139558642Y-114136942D01*
X139606261Y-114184561D01*
X139701500Y-114232180D01*
X139891976Y-114232180D01*
X139987214Y-114184561D01*
X140034833Y-114136942D01*
X140082452Y-114041704D01*
X140082452Y-113851228D01*
X140034833Y-113755990D01*
X139987214Y-113708371D01*
X139891976Y-113660752D01*
X141034833Y-114232180D02*
X140463404Y-114232180D01*
X140749119Y-114232180D02*
X140749119Y-113232180D01*
X140653880Y-113375038D01*
X140558642Y-113470276D01*
X140463404Y-113517895D01*
X141415785Y-113327419D02*
X141463404Y-113279800D01*
X141558642Y-113232180D01*
X141796738Y-113232180D01*
X141891976Y-113279800D01*
X141939595Y-113327419D01*
X141987214Y-113422657D01*
X141987214Y-113517895D01*
X141939595Y-113660752D01*
X141368166Y-114232180D01*
X141987214Y-114232180D01*
X134511023Y-115882180D02*
X134177690Y-115405990D01*
X133939595Y-115882180D02*
X133939595Y-114882180D01*
X134320547Y-114882180D01*
X134415785Y-114929800D01*
X134463404Y-114977419D01*
X134511023Y-115072657D01*
X134511023Y-115215514D01*
X134463404Y-115310752D01*
X134415785Y-115358371D01*
X134320547Y-115405990D01*
X133939595Y-115405990D01*
X134939595Y-115882180D02*
X134939595Y-114882180D01*
X135511023Y-115882180D01*
X135511023Y-114882180D01*
X136511023Y-115882180D02*
X135939595Y-115882180D01*
X136225309Y-115882180D02*
X136225309Y-114882180D01*
X136130071Y-115025038D01*
X136034833Y-115120276D01*
X135939595Y-115167895D01*
X138130071Y-115215514D02*
X138130071Y-115882180D01*
X137891976Y-114834561D02*
X137653880Y-115548847D01*
X138272928Y-115548847D01*
X138558642Y-115882180D02*
X139082452Y-115215514D01*
X138558642Y-115215514D02*
X139082452Y-115882180D01*
X140701500Y-114882180D02*
X140225309Y-114882180D01*
X140177690Y-115358371D01*
X140225309Y-115310752D01*
X140320547Y-115263133D01*
X140558642Y-115263133D01*
X140653880Y-115310752D01*
X140701500Y-115358371D01*
X140749119Y-115453609D01*
X140749119Y-115691704D01*
X140701500Y-115786942D01*
X140653880Y-115834561D01*
X140558642Y-115882180D01*
X140320547Y-115882180D01*
X140225309Y-115834561D01*
X140177690Y-115786942D01*
X141177690Y-115882180D02*
X141177690Y-114882180D01*
X141272928Y-115501228D02*
X141558642Y-115882180D01*
X141558642Y-115215514D02*
X141177690Y-115596466D01*
X142511023Y-115882180D02*
X141939595Y-115882180D01*
X142225309Y-115882180D02*
X142225309Y-114882180D01*
X142130071Y-115025038D01*
X142034833Y-115120276D01*
X141939595Y-115167895D01*
X133939595Y-116532180D02*
X133939595Y-117341704D01*
X133987214Y-117436942D01*
X134034833Y-117484561D01*
X134130071Y-117532180D01*
X134320547Y-117532180D01*
X134415785Y-117484561D01*
X134463404Y-117436942D01*
X134511023Y-117341704D01*
X134511023Y-116532180D01*
X135511023Y-117532180D02*
X134939595Y-117532180D01*
X135225309Y-117532180D02*
X135225309Y-116532180D01*
X135130071Y-116675038D01*
X135034833Y-116770276D01*
X134939595Y-116817895D01*
X137272928Y-117436942D02*
X137225309Y-117484561D01*
X137082452Y-117532180D01*
X136987214Y-117532180D01*
X136844357Y-117484561D01*
X136749119Y-117389323D01*
X136701500Y-117294085D01*
X136653880Y-117103609D01*
X136653880Y-116960752D01*
X136701500Y-116770276D01*
X136749119Y-116675038D01*
X136844357Y-116579800D01*
X136987214Y-116532180D01*
X137082452Y-116532180D01*
X137225309Y-116579800D01*
X137272928Y-116627419D01*
X137701500Y-117532180D02*
X137701500Y-116532180D01*
X137701500Y-117008371D02*
X138272928Y-117008371D01*
X138272928Y-117532180D02*
X138272928Y-116532180D01*
X138653880Y-116532180D02*
X139272928Y-116532180D01*
X138939595Y-116913133D01*
X139082452Y-116913133D01*
X139177690Y-116960752D01*
X139225309Y-117008371D01*
X139272928Y-117103609D01*
X139272928Y-117341704D01*
X139225309Y-117436942D01*
X139177690Y-117484561D01*
X139082452Y-117532180D01*
X138796738Y-117532180D01*
X138701500Y-117484561D01*
X138653880Y-117436942D01*
X140130071Y-116865514D02*
X140130071Y-117532180D01*
X139891976Y-116484561D02*
X139653880Y-117198847D01*
X140272928Y-117198847D01*
X140844357Y-116532180D02*
X140939595Y-116532180D01*
X141034833Y-116579800D01*
X141082452Y-116627419D01*
X141130071Y-116722657D01*
X141177690Y-116913133D01*
X141177690Y-117151228D01*
X141130071Y-117341704D01*
X141082452Y-117436942D01*
X141034833Y-117484561D01*
X140939595Y-117532180D01*
X140844357Y-117532180D01*
X140749119Y-117484561D01*
X140701500Y-117436942D01*
X140653880Y-117341704D01*
X140606261Y-117151228D01*
X140606261Y-116913133D01*
X140653880Y-116722657D01*
X140701500Y-116627419D01*
X140749119Y-116579800D01*
X140844357Y-116532180D01*
X142177690Y-117436942D02*
X142130071Y-117484561D01*
X141987214Y-117532180D01*
X141891976Y-117532180D01*
X141749119Y-117484561D01*
X141653880Y-117389323D01*
X141606261Y-117294085D01*
X141558642Y-117103609D01*
X141558642Y-116960752D01*
X141606261Y-116770276D01*
X141653880Y-116675038D01*
X141749119Y-116579800D01*
X141891976Y-116532180D01*
X141987214Y-116532180D01*
X142130071Y-116579800D01*
X142177690Y-116627419D01*
X133939595Y-118182180D02*
X133939595Y-118991704D01*
X133987214Y-119086942D01*
X134034833Y-119134561D01*
X134130071Y-119182180D01*
X134320547Y-119182180D01*
X134415785Y-119134561D01*
X134463404Y-119086942D01*
X134511023Y-118991704D01*
X134511023Y-118182180D01*
X134939595Y-118277419D02*
X134987214Y-118229800D01*
X135082452Y-118182180D01*
X135320547Y-118182180D01*
X135415785Y-118229800D01*
X135463404Y-118277419D01*
X135511023Y-118372657D01*
X135511023Y-118467895D01*
X135463404Y-118610752D01*
X134891976Y-119182180D01*
X135511023Y-119182180D01*
X136701500Y-118182180D02*
X136701500Y-118991704D01*
X136749119Y-119086942D01*
X136796738Y-119134561D01*
X136891976Y-119182180D01*
X137082452Y-119182180D01*
X137177690Y-119134561D01*
X137225309Y-119086942D01*
X137272928Y-118991704D01*
X137272928Y-118182180D01*
X137749119Y-119182180D02*
X137749119Y-118182180D01*
X138082452Y-118896466D01*
X138415785Y-118182180D01*
X138415785Y-119182180D01*
X138891976Y-119182180D02*
X138891976Y-118182180D01*
X138891976Y-118658371D02*
X139463404Y-118658371D01*
X139463404Y-119182180D02*
X139463404Y-118182180D01*
X139844357Y-118182180D02*
X140463404Y-118182180D01*
X140130071Y-118563133D01*
X140272928Y-118563133D01*
X140368166Y-118610752D01*
X140415785Y-118658371D01*
X140463404Y-118753609D01*
X140463404Y-118991704D01*
X140415785Y-119086942D01*
X140368166Y-119134561D01*
X140272928Y-119182180D01*
X139987214Y-119182180D01*
X139891976Y-119134561D01*
X139844357Y-119086942D01*
X140891976Y-119182180D02*
X140891976Y-118182180D01*
X141463404Y-119182180D01*
X141463404Y-118182180D01*
X133939595Y-119832180D02*
X133939595Y-120641704D01*
X133987214Y-120736942D01*
X134034833Y-120784561D01*
X134130071Y-120832180D01*
X134320547Y-120832180D01*
X134415785Y-120784561D01*
X134463404Y-120736942D01*
X134511023Y-120641704D01*
X134511023Y-119832180D01*
X134891976Y-119832180D02*
X135511023Y-119832180D01*
X135177690Y-120213133D01*
X135320547Y-120213133D01*
X135415785Y-120260752D01*
X135463404Y-120308371D01*
X135511023Y-120403609D01*
X135511023Y-120641704D01*
X135463404Y-120736942D01*
X135415785Y-120784561D01*
X135320547Y-120832180D01*
X135034833Y-120832180D01*
X134939595Y-120784561D01*
X134891976Y-120736942D01*
X136701500Y-120832180D02*
X136701500Y-119832180D01*
X136701500Y-120308371D02*
X137272928Y-120308371D01*
X137272928Y-120832180D02*
X137272928Y-119832180D01*
X137653880Y-119832180D02*
X138320547Y-120832180D01*
X138320547Y-119832180D02*
X137653880Y-120832180D01*
X138749119Y-120832180D02*
X138939595Y-120832180D01*
X139034833Y-120784561D01*
X139082452Y-120736942D01*
X139177690Y-120594085D01*
X139225309Y-120403609D01*
X139225309Y-120022657D01*
X139177690Y-119927419D01*
X139130071Y-119879800D01*
X139034833Y-119832180D01*
X138844357Y-119832180D01*
X138749119Y-119879800D01*
X138701500Y-119927419D01*
X138653880Y-120022657D01*
X138653880Y-120260752D01*
X138701500Y-120355990D01*
X138749119Y-120403609D01*
X138844357Y-120451228D01*
X139034833Y-120451228D01*
X139130071Y-120403609D01*
X139177690Y-120355990D01*
X139225309Y-120260752D01*
X140177690Y-120832180D02*
X139606261Y-120832180D01*
X139891976Y-120832180D02*
X139891976Y-119832180D01*
X139796738Y-119975038D01*
X139701500Y-120070276D01*
X139606261Y-120117895D01*
X140653880Y-120832180D02*
X140844357Y-120832180D01*
X140939595Y-120784561D01*
X140987214Y-120736942D01*
X141082452Y-120594085D01*
X141130071Y-120403609D01*
X141130071Y-120022657D01*
X141082452Y-119927419D01*
X141034833Y-119879800D01*
X140939595Y-119832180D01*
X140749119Y-119832180D01*
X140653880Y-119879800D01*
X140606261Y-119927419D01*
X140558642Y-120022657D01*
X140558642Y-120260752D01*
X140606261Y-120355990D01*
X140653880Y-120403609D01*
X140749119Y-120451228D01*
X140939595Y-120451228D01*
X141034833Y-120403609D01*
X141082452Y-120355990D01*
X141130071Y-120260752D01*
X141463404Y-119832180D02*
X142082452Y-119832180D01*
X141749119Y-120213133D01*
X141891976Y-120213133D01*
X141987214Y-120260752D01*
X142034833Y-120308371D01*
X142082452Y-120403609D01*
X142082452Y-120641704D01*
X142034833Y-120736942D01*
X141987214Y-120784561D01*
X141891976Y-120832180D01*
X141606261Y-120832180D01*
X141511023Y-120784561D01*
X141463404Y-120736942D01*
X142511023Y-120451228D02*
X143272928Y-120451228D01*
X143653880Y-119832180D02*
X144272928Y-119832180D01*
X143939595Y-120213133D01*
X144082452Y-120213133D01*
X144177690Y-120260752D01*
X144225309Y-120308371D01*
X144272928Y-120403609D01*
X144272928Y-120641704D01*
X144225309Y-120736942D01*
X144177690Y-120784561D01*
X144082452Y-120832180D01*
X143796738Y-120832180D01*
X143701500Y-120784561D01*
X143653880Y-120736942D01*
X144606261Y-119832180D02*
X145225309Y-119832180D01*
X144891976Y-120213133D01*
X145034833Y-120213133D01*
X145130071Y-120260752D01*
X145177690Y-120308371D01*
X145225309Y-120403609D01*
X145225309Y-120641704D01*
X145177690Y-120736942D01*
X145130071Y-120784561D01*
X145034833Y-120832180D01*
X144749119Y-120832180D01*
X144653880Y-120784561D01*
X144606261Y-120736942D01*
X146177690Y-119879800D02*
X146082452Y-119832180D01*
X145939595Y-119832180D01*
X145796738Y-119879800D01*
X145701500Y-119975038D01*
X145653880Y-120070276D01*
X145606261Y-120260752D01*
X145606261Y-120403609D01*
X145653880Y-120594085D01*
X145701500Y-120689323D01*
X145796738Y-120784561D01*
X145939595Y-120832180D01*
X146034833Y-120832180D01*
X146177690Y-120784561D01*
X146225309Y-120736942D01*
X146225309Y-120403609D01*
X146034833Y-120403609D01*
X146987214Y-120308371D02*
X147130071Y-120355990D01*
X147177690Y-120403609D01*
X147225309Y-120498847D01*
X147225309Y-120641704D01*
X147177690Y-120736942D01*
X147130071Y-120784561D01*
X147034833Y-120832180D01*
X146653880Y-120832180D01*
X146653880Y-119832180D01*
X146987214Y-119832180D01*
X147082452Y-119879800D01*
X147130071Y-119927419D01*
X147177690Y-120022657D01*
X147177690Y-120117895D01*
X147130071Y-120213133D01*
X147082452Y-120260752D01*
X146987214Y-120308371D01*
X146653880Y-120308371D01*
X129216304Y-140152380D02*
X128882971Y-139676190D01*
X128644876Y-140152380D02*
X128644876Y-139152380D01*
X129025828Y-139152380D01*
X129121066Y-139200000D01*
X129168685Y-139247619D01*
X129216304Y-139342857D01*
X129216304Y-139485714D01*
X129168685Y-139580952D01*
X129121066Y-139628571D01*
X129025828Y-139676190D01*
X128644876Y-139676190D01*
X130025828Y-140104761D02*
X129930590Y-140152380D01*
X129740114Y-140152380D01*
X129644876Y-140104761D01*
X129597257Y-140009523D01*
X129597257Y-139628571D01*
X129644876Y-139533333D01*
X129740114Y-139485714D01*
X129930590Y-139485714D01*
X130025828Y-139533333D01*
X130073447Y-139628571D01*
X130073447Y-139723809D01*
X129597257Y-139819047D01*
X130454400Y-140104761D02*
X130549638Y-140152380D01*
X130740114Y-140152380D01*
X130835352Y-140104761D01*
X130882971Y-140009523D01*
X130882971Y-139961904D01*
X130835352Y-139866666D01*
X130740114Y-139819047D01*
X130597257Y-139819047D01*
X130502019Y-139771428D01*
X130454400Y-139676190D01*
X130454400Y-139628571D01*
X130502019Y-139533333D01*
X130597257Y-139485714D01*
X130740114Y-139485714D01*
X130835352Y-139533333D01*
X131692495Y-140104761D02*
X131597257Y-140152380D01*
X131406780Y-140152380D01*
X131311542Y-140104761D01*
X131263923Y-140009523D01*
X131263923Y-139628571D01*
X131311542Y-139533333D01*
X131406780Y-139485714D01*
X131597257Y-139485714D01*
X131692495Y-139533333D01*
X131740114Y-139628571D01*
X131740114Y-139723809D01*
X131263923Y-139819047D01*
X132025828Y-139485714D02*
X132406780Y-139485714D01*
X132168685Y-139152380D02*
X132168685Y-140009523D01*
X132216304Y-140104761D01*
X132311542Y-140152380D01*
X132406780Y-140152380D01*
X136655752Y-104873561D02*
X137131942Y-106873561D01*
X137512895Y-105444990D01*
X137893847Y-106873561D01*
X138370038Y-104873561D01*
X139131942Y-106873561D02*
X139131942Y-105540228D01*
X139131942Y-105921180D02*
X139227180Y-105730704D01*
X139322419Y-105635466D01*
X139512895Y-105540228D01*
X139703371Y-105540228D01*
X140655752Y-106873561D02*
X140465276Y-106778323D01*
X140370038Y-106683085D01*
X140274800Y-106492609D01*
X140274800Y-105921180D01*
X140370038Y-105730704D01*
X140465276Y-105635466D01*
X140655752Y-105540228D01*
X140941466Y-105540228D01*
X141131942Y-105635466D01*
X141227180Y-105730704D01*
X141322419Y-105921180D01*
X141322419Y-106492609D01*
X141227180Y-106683085D01*
X141131942Y-106778323D01*
X140941466Y-106873561D01*
X140655752Y-106873561D01*
X141989085Y-105540228D02*
X142465276Y-106873561D01*
X142941466Y-105540228D01*
X144465276Y-106778323D02*
X144274800Y-106873561D01*
X143893847Y-106873561D01*
X143703371Y-106778323D01*
X143608133Y-106587847D01*
X143608133Y-105825942D01*
X143703371Y-105635466D01*
X143893847Y-105540228D01*
X144274800Y-105540228D01*
X144465276Y-105635466D01*
X144560514Y-105825942D01*
X144560514Y-106016419D01*
X143608133Y-106206895D01*
X145417657Y-106873561D02*
X145417657Y-105540228D01*
X145417657Y-105921180D02*
X145512895Y-105730704D01*
X145608133Y-105635466D01*
X145798609Y-105540228D01*
X145989085Y-105540228D01*
X146721580Y-118004647D02*
X147435866Y-118004647D01*
X147578723Y-118052266D01*
X147673961Y-118147504D01*
X147721580Y-118290361D01*
X147721580Y-118385600D01*
X147721580Y-117052266D02*
X147721580Y-117528457D01*
X146721580Y-117528457D01*
X147626342Y-116147504D02*
X147673961Y-116195123D01*
X147721580Y-116337980D01*
X147721580Y-116433219D01*
X147673961Y-116576076D01*
X147578723Y-116671314D01*
X147483485Y-116718933D01*
X147293009Y-116766552D01*
X147150152Y-116766552D01*
X146959676Y-116718933D01*
X146864438Y-116671314D01*
X146769200Y-116576076D01*
X146721580Y-116433219D01*
X146721580Y-116337980D01*
X146769200Y-116195123D01*
X146816819Y-116147504D01*
X146721580Y-115433219D02*
X147435866Y-115433219D01*
X147578723Y-115480838D01*
X147673961Y-115576076D01*
X147721580Y-115718933D01*
X147721580Y-115814171D01*
X147721580Y-114480838D02*
X147721580Y-114957028D01*
X146721580Y-114957028D01*
X147626342Y-113576076D02*
X147673961Y-113623695D01*
X147721580Y-113766552D01*
X147721580Y-113861790D01*
X147673961Y-114004647D01*
X147578723Y-114099885D01*
X147483485Y-114147504D01*
X147293009Y-114195123D01*
X147150152Y-114195123D01*
X146959676Y-114147504D01*
X146864438Y-114099885D01*
X146769200Y-114004647D01*
X146721580Y-113861790D01*
X146721580Y-113766552D01*
X146769200Y-113623695D01*
X146816819Y-113576076D01*
X146721580Y-112861790D02*
X147435866Y-112861790D01*
X147578723Y-112909409D01*
X147673961Y-113004647D01*
X147721580Y-113147504D01*
X147721580Y-113242742D01*
X147721580Y-111909409D02*
X147721580Y-112385600D01*
X146721580Y-112385600D01*
X147626342Y-111004647D02*
X147673961Y-111052266D01*
X147721580Y-111195123D01*
X147721580Y-111290361D01*
X147673961Y-111433219D01*
X147578723Y-111528457D01*
X147483485Y-111576076D01*
X147293009Y-111623695D01*
X147150152Y-111623695D01*
X146959676Y-111576076D01*
X146864438Y-111528457D01*
X146769200Y-111433219D01*
X146721580Y-111290361D01*
X146721580Y-111195123D01*
X146769200Y-111052266D01*
X146816819Y-111004647D01*
X146721580Y-110290361D02*
X147435866Y-110290361D01*
X147578723Y-110337980D01*
X147673961Y-110433219D01*
X147721580Y-110576076D01*
X147721580Y-110671314D01*
X147721580Y-109337980D02*
X147721580Y-109814171D01*
X146721580Y-109814171D01*
X147626342Y-108433219D02*
X147673961Y-108480838D01*
X147721580Y-108623695D01*
X147721580Y-108718933D01*
X147673961Y-108861790D01*
X147578723Y-108957028D01*
X147483485Y-109004647D01*
X147293009Y-109052266D01*
X147150152Y-109052266D01*
X146959676Y-109004647D01*
X146864438Y-108957028D01*
X146769200Y-108861790D01*
X146721580Y-108718933D01*
X146721580Y-108623695D01*
X146769200Y-108480838D01*
X146816819Y-108433219D01*
D11*
%TO.C,C5*%
X133599422Y-139140000D02*
X134116578Y-139140000D01*
X133599422Y-137720000D02*
X134116578Y-137720000D01*
D12*
%TO.C,U4*%
X149982400Y-128738800D02*
X131982400Y-128738800D01*
X149982400Y-103208800D02*
X149982400Y-128738800D01*
X131982400Y-103208800D02*
X149982400Y-103208800D01*
X131982400Y-128738800D02*
X131982400Y-103208800D01*
D10*
X131965400Y-103153800D02*
X131965400Y-97184800D01*
X149999400Y-103153800D02*
X149999400Y-97184800D01*
X149999400Y-97184800D02*
X131965400Y-97184800D01*
D11*
%TO.C,C4*%
X145390800Y-131627378D02*
X145390800Y-131110222D01*
X146810800Y-131627378D02*
X146810800Y-131110222D01*
%TO.C,C3*%
X143155600Y-131627378D02*
X143155600Y-131110222D01*
X144575600Y-131627378D02*
X144575600Y-131110222D01*
%TO.C,C2*%
X153868622Y-132132000D02*
X154385778Y-132132000D01*
X153868622Y-133552000D02*
X154385778Y-133552000D01*
%TO.C,C1*%
X153868622Y-129928800D02*
X154385778Y-129928800D01*
X153868622Y-131348800D02*
X154385778Y-131348800D01*
%TO.C,RN1*%
X130040800Y-135185200D02*
X130040800Y-135985200D01*
X126600800Y-135185200D02*
X126600800Y-135985200D01*
%TO.C,U1*%
X131134800Y-133451600D02*
X131134800Y-136901600D01*
X131134800Y-133451600D02*
X131134800Y-131501600D01*
X141254800Y-133451600D02*
X141254800Y-135401600D01*
X141254800Y-133451600D02*
X141254800Y-131501600D01*
%TO.C,D1*%
X147538000Y-136483600D02*
X143638000Y-136483600D01*
X147538000Y-134483600D02*
X143638000Y-134483600D01*
X147538000Y-136483600D02*
X147538000Y-134483600D01*
%TO.C,U3*%
X148604400Y-133098800D02*
X151054400Y-133098800D01*
X150404400Y-129878800D02*
X148604400Y-129878800D01*
%TO.C,U2*%
X127368400Y-132906400D02*
X129668400Y-132906400D01*
X128968400Y-129706400D02*
X127368400Y-129706400D01*
%TO.C,C5*%
D10*
X136993333Y-128169942D02*
X136945714Y-128217561D01*
X136802857Y-128265180D01*
X136707619Y-128265180D01*
X136564761Y-128217561D01*
X136469523Y-128122323D01*
X136421904Y-128027085D01*
X136374285Y-127836609D01*
X136374285Y-127693752D01*
X136421904Y-127503276D01*
X136469523Y-127408038D01*
X136564761Y-127312800D01*
X136707619Y-127265180D01*
X136802857Y-127265180D01*
X136945714Y-127312800D01*
X136993333Y-127360419D01*
X137898095Y-127265180D02*
X137421904Y-127265180D01*
X137374285Y-127741371D01*
X137421904Y-127693752D01*
X137517142Y-127646133D01*
X137755238Y-127646133D01*
X137850476Y-127693752D01*
X137898095Y-127741371D01*
X137945714Y-127836609D01*
X137945714Y-128074704D01*
X137898095Y-128169942D01*
X137850476Y-128217561D01*
X137755238Y-128265180D01*
X137517142Y-128265180D01*
X137421904Y-128217561D01*
X137374285Y-128169942D01*
%TO.C,C4*%
X142546342Y-125439466D02*
X142593961Y-125487085D01*
X142641580Y-125629942D01*
X142641580Y-125725180D01*
X142593961Y-125868038D01*
X142498723Y-125963276D01*
X142403485Y-126010895D01*
X142213009Y-126058514D01*
X142070152Y-126058514D01*
X141879676Y-126010895D01*
X141784438Y-125963276D01*
X141689200Y-125868038D01*
X141641580Y-125725180D01*
X141641580Y-125629942D01*
X141689200Y-125487085D01*
X141736819Y-125439466D01*
X141974914Y-124582323D02*
X142641580Y-124582323D01*
X141593961Y-124820419D02*
X142308247Y-125058514D01*
X142308247Y-124439466D01*
%TO.C,C3*%
X140768342Y-125490266D02*
X140815961Y-125537885D01*
X140863580Y-125680742D01*
X140863580Y-125775980D01*
X140815961Y-125918838D01*
X140720723Y-126014076D01*
X140625485Y-126061695D01*
X140435009Y-126109314D01*
X140292152Y-126109314D01*
X140101676Y-126061695D01*
X140006438Y-126014076D01*
X139911200Y-125918838D01*
X139863580Y-125775980D01*
X139863580Y-125680742D01*
X139911200Y-125537885D01*
X139958819Y-125490266D01*
X139863580Y-125156933D02*
X139863580Y-124537885D01*
X140244533Y-124871219D01*
X140244533Y-124728361D01*
X140292152Y-124633123D01*
X140339771Y-124585504D01*
X140435009Y-124537885D01*
X140673104Y-124537885D01*
X140768342Y-124585504D01*
X140815961Y-124633123D01*
X140863580Y-124728361D01*
X140863580Y-125014076D01*
X140815961Y-125109314D01*
X140768342Y-125156933D01*
%TO.C,C2*%
X147407333Y-126645942D02*
X147359714Y-126693561D01*
X147216857Y-126741180D01*
X147121619Y-126741180D01*
X146978761Y-126693561D01*
X146883523Y-126598323D01*
X146835904Y-126503085D01*
X146788285Y-126312609D01*
X146788285Y-126169752D01*
X146835904Y-125979276D01*
X146883523Y-125884038D01*
X146978761Y-125788800D01*
X147121619Y-125741180D01*
X147216857Y-125741180D01*
X147359714Y-125788800D01*
X147407333Y-125836419D01*
X147788285Y-125836419D02*
X147835904Y-125788800D01*
X147931142Y-125741180D01*
X148169238Y-125741180D01*
X148264476Y-125788800D01*
X148312095Y-125836419D01*
X148359714Y-125931657D01*
X148359714Y-126026895D01*
X148312095Y-126169752D01*
X147740666Y-126741180D01*
X148359714Y-126741180D01*
%TO.C,C1*%
X147407333Y-124715542D02*
X147359714Y-124763161D01*
X147216857Y-124810780D01*
X147121619Y-124810780D01*
X146978761Y-124763161D01*
X146883523Y-124667923D01*
X146835904Y-124572685D01*
X146788285Y-124382209D01*
X146788285Y-124239352D01*
X146835904Y-124048876D01*
X146883523Y-123953638D01*
X146978761Y-123858400D01*
X147121619Y-123810780D01*
X147216857Y-123810780D01*
X147359714Y-123858400D01*
X147407333Y-123906019D01*
X148359714Y-124810780D02*
X147788285Y-124810780D01*
X148074000Y-124810780D02*
X148074000Y-123810780D01*
X147978761Y-123953638D01*
X147883523Y-124048876D01*
X147788285Y-124096495D01*
%TO.C,RN1*%
X134285123Y-127147580D02*
X133951790Y-126671390D01*
X133713695Y-127147580D02*
X133713695Y-126147580D01*
X134094647Y-126147580D01*
X134189885Y-126195200D01*
X134237504Y-126242819D01*
X134285123Y-126338057D01*
X134285123Y-126480914D01*
X134237504Y-126576152D01*
X134189885Y-126623771D01*
X134094647Y-126671390D01*
X133713695Y-126671390D01*
X134713695Y-127147580D02*
X134713695Y-126147580D01*
X135285123Y-127147580D01*
X135285123Y-126147580D01*
X136285123Y-127147580D02*
X135713695Y-127147580D01*
X135999409Y-127147580D02*
X135999409Y-126147580D01*
X135904171Y-126290438D01*
X135808933Y-126385676D01*
X135713695Y-126433295D01*
%TO.C,U1*%
X137363295Y-125283980D02*
X137363295Y-126093504D01*
X137410914Y-126188742D01*
X137458533Y-126236361D01*
X137553771Y-126283980D01*
X137744247Y-126283980D01*
X137839485Y-126236361D01*
X137887104Y-126188742D01*
X137934723Y-126093504D01*
X137934723Y-125283980D01*
X138934723Y-126283980D02*
X138363295Y-126283980D01*
X138649009Y-126283980D02*
X138649009Y-125283980D01*
X138553771Y-125426838D01*
X138458533Y-125522076D01*
X138363295Y-125569695D01*
%TO.C,D1*%
X140536704Y-128366780D02*
X140536704Y-127366780D01*
X140774800Y-127366780D01*
X140917657Y-127414400D01*
X141012895Y-127509638D01*
X141060514Y-127604876D01*
X141108133Y-127795352D01*
X141108133Y-127938209D01*
X141060514Y-128128685D01*
X141012895Y-128223923D01*
X140917657Y-128319161D01*
X140774800Y-128366780D01*
X140536704Y-128366780D01*
X142060514Y-128366780D02*
X141489085Y-128366780D01*
X141774800Y-128366780D02*
X141774800Y-127366780D01*
X141679561Y-127509638D01*
X141584323Y-127604876D01*
X141489085Y-127652495D01*
%TO.C,U3*%
X144384780Y-125882304D02*
X145194304Y-125882304D01*
X145289542Y-125834685D01*
X145337161Y-125787066D01*
X145384780Y-125691828D01*
X145384780Y-125501352D01*
X145337161Y-125406114D01*
X145289542Y-125358495D01*
X145194304Y-125310876D01*
X144384780Y-125310876D01*
X144384780Y-124929923D02*
X144384780Y-124310876D01*
X144765733Y-124644209D01*
X144765733Y-124501352D01*
X144813352Y-124406114D01*
X144860971Y-124358495D01*
X144956209Y-124310876D01*
X145194304Y-124310876D01*
X145289542Y-124358495D01*
X145337161Y-124406114D01*
X145384780Y-124501352D01*
X145384780Y-124787066D01*
X145337161Y-124882304D01*
X145289542Y-124929923D01*
%TO.C,U2*%
X134326380Y-125526704D02*
X135135904Y-125526704D01*
X135231142Y-125479085D01*
X135278761Y-125431466D01*
X135326380Y-125336228D01*
X135326380Y-125145752D01*
X135278761Y-125050514D01*
X135231142Y-125002895D01*
X135135904Y-124955276D01*
X134326380Y-124955276D01*
X134421619Y-124526704D02*
X134374000Y-124479085D01*
X134326380Y-124383847D01*
X134326380Y-124145752D01*
X134374000Y-124050514D01*
X134421619Y-124002895D01*
X134516857Y-123955276D01*
X134612095Y-123955276D01*
X134754952Y-124002895D01*
X135326380Y-124574323D01*
X135326380Y-123955276D01*
%TD*%
M02*
