%TF.GenerationSoftware,KiCad,Pcbnew,(5.1.6-0-10_14)*%
%TF.CreationDate,2020-08-21T01:25:04+02:00*%
%TF.ProjectId,USBCWrover,55534243-5772-46f7-9665-722e6b696361,rev?*%
%TF.SameCoordinates,Original*%
%TF.FileFunction,Soldermask,Top*%
%TF.FilePolarity,Negative*%
%FSLAX46Y46*%
G04 Gerber Fmt 4.6, Leading zero omitted, Abs format (unit mm)*
G04 Created by KiCad (PCBNEW (5.1.6-0-10_14)) date 2020-08-21 01:25:04*
%MOMM*%
%LPD*%
G01*
G04 APERTURE LIST*
%ADD10C,0.010000*%
%ADD11R,1.650000X1.400000*%
%ADD12R,0.700000X1.550000*%
%ADD13R,0.400000X1.550000*%
%ADD14O,1.100000X2.200000*%
%ADD15C,0.750000*%
%ADD16O,1.100000X1.700000*%
%ADD17O,1.800000X1.800000*%
%ADD18C,1.800000*%
%ADD19R,1.160000X0.750000*%
%ADD20R,0.800000X0.610000*%
%ADD21R,2.700000X2.700000*%
G04 APERTURE END LIST*
D10*
%TO.C,G\u002A\u002A\u002A*%
G36*
X151632235Y-136783474D02*
G01*
X151601556Y-136816278D01*
X151590336Y-136824823D01*
X151544532Y-136870243D01*
X151537673Y-136915152D01*
X151570276Y-136964799D01*
X151607379Y-136997761D01*
X151654526Y-137040214D01*
X151674807Y-137078864D01*
X151677037Y-137132688D01*
X151676170Y-137145880D01*
X151666225Y-137206904D01*
X151639883Y-137248083D01*
X151590375Y-137285206D01*
X151532748Y-137338484D01*
X151508798Y-137397525D01*
X151521003Y-137453697D01*
X151536400Y-137473266D01*
X151550219Y-137494538D01*
X151537600Y-137498666D01*
X151508569Y-137482944D01*
X151480450Y-137451623D01*
X151451256Y-137387627D01*
X151459312Y-137326212D01*
X151506003Y-137260410D01*
X151521583Y-137244666D01*
X151565295Y-137195382D01*
X151591899Y-137152049D01*
X151595666Y-137137193D01*
X151579893Y-137103374D01*
X151540225Y-137060499D01*
X151520422Y-137044133D01*
X151472607Y-137002324D01*
X151452624Y-136963994D01*
X151451508Y-136911688D01*
X151451630Y-136910218D01*
X151462801Y-136855723D01*
X151492799Y-136819137D01*
X151537328Y-136792106D01*
X151595090Y-136768283D01*
X151628403Y-136766441D01*
X151632235Y-136783474D01*
G37*
X151632235Y-136783474D02*
X151601556Y-136816278D01*
X151590336Y-136824823D01*
X151544532Y-136870243D01*
X151537673Y-136915152D01*
X151570276Y-136964799D01*
X151607379Y-136997761D01*
X151654526Y-137040214D01*
X151674807Y-137078864D01*
X151677037Y-137132688D01*
X151676170Y-137145880D01*
X151666225Y-137206904D01*
X151639883Y-137248083D01*
X151590375Y-137285206D01*
X151532748Y-137338484D01*
X151508798Y-137397525D01*
X151521003Y-137453697D01*
X151536400Y-137473266D01*
X151550219Y-137494538D01*
X151537600Y-137498666D01*
X151508569Y-137482944D01*
X151480450Y-137451623D01*
X151451256Y-137387627D01*
X151459312Y-137326212D01*
X151506003Y-137260410D01*
X151521583Y-137244666D01*
X151565295Y-137195382D01*
X151591899Y-137152049D01*
X151595666Y-137137193D01*
X151579893Y-137103374D01*
X151540225Y-137060499D01*
X151520422Y-137044133D01*
X151472607Y-137002324D01*
X151452624Y-136963994D01*
X151451508Y-136911688D01*
X151451630Y-136910218D01*
X151462801Y-136855723D01*
X151492799Y-136819137D01*
X151537328Y-136792106D01*
X151595090Y-136768283D01*
X151628403Y-136766441D01*
X151632235Y-136783474D01*
G36*
X151949794Y-137193446D02*
G01*
X151968668Y-137228878D01*
X151972643Y-137250167D01*
X151964371Y-137302938D01*
X151934857Y-137329052D01*
X151905056Y-137354045D01*
X151899343Y-137393377D01*
X151903739Y-137423302D01*
X151907404Y-137482452D01*
X151890408Y-137504874D01*
X151854269Y-137489898D01*
X151821155Y-137459714D01*
X151774920Y-137396218D01*
X151768958Y-137344667D01*
X151803240Y-137305604D01*
X151830165Y-137292850D01*
X151879082Y-137262896D01*
X151906694Y-137224752D01*
X151906943Y-137223844D01*
X151926104Y-137190520D01*
X151949794Y-137193446D01*
G37*
X151949794Y-137193446D02*
X151968668Y-137228878D01*
X151972643Y-137250167D01*
X151964371Y-137302938D01*
X151934857Y-137329052D01*
X151905056Y-137354045D01*
X151899343Y-137393377D01*
X151903739Y-137423302D01*
X151907404Y-137482452D01*
X151890408Y-137504874D01*
X151854269Y-137489898D01*
X151821155Y-137459714D01*
X151774920Y-137396218D01*
X151768958Y-137344667D01*
X151803240Y-137305604D01*
X151830165Y-137292850D01*
X151879082Y-137262896D01*
X151906694Y-137224752D01*
X151906943Y-137223844D01*
X151926104Y-137190520D01*
X151949794Y-137193446D01*
G36*
X151195818Y-137156661D02*
G01*
X151234865Y-137185666D01*
X151276266Y-137226384D01*
X151308594Y-137267667D01*
X151320500Y-137296777D01*
X151304363Y-137327683D01*
X151270553Y-137357190D01*
X151199322Y-137412125D01*
X151162441Y-137459932D01*
X151159868Y-137490812D01*
X151166204Y-137517110D01*
X151150219Y-137509577D01*
X151134233Y-137494433D01*
X151111303Y-137454358D01*
X151120433Y-137405528D01*
X151155254Y-137349497D01*
X151184148Y-137302434D01*
X151184722Y-137272493D01*
X151176421Y-137261454D01*
X151154811Y-137220445D01*
X151154297Y-137175391D01*
X151170555Y-137150515D01*
X151195818Y-137156661D01*
G37*
X151195818Y-137156661D02*
X151234865Y-137185666D01*
X151276266Y-137226384D01*
X151308594Y-137267667D01*
X151320500Y-137296777D01*
X151304363Y-137327683D01*
X151270553Y-137357190D01*
X151199322Y-137412125D01*
X151162441Y-137459932D01*
X151159868Y-137490812D01*
X151166204Y-137517110D01*
X151150219Y-137509577D01*
X151134233Y-137494433D01*
X151111303Y-137454358D01*
X151120433Y-137405528D01*
X151155254Y-137349497D01*
X151184148Y-137302434D01*
X151184722Y-137272493D01*
X151176421Y-137261454D01*
X151154811Y-137220445D01*
X151154297Y-137175391D01*
X151170555Y-137150515D01*
X151195818Y-137156661D01*
G36*
X151548920Y-139062554D02*
G01*
X151672595Y-139108956D01*
X151748827Y-139156943D01*
X151800991Y-139217261D01*
X151825160Y-139260631D01*
X151868809Y-139388984D01*
X151886762Y-139539274D01*
X151879295Y-139700006D01*
X151846686Y-139859690D01*
X151808150Y-139966752D01*
X151758854Y-140050061D01*
X151680608Y-140147718D01*
X151580990Y-140252672D01*
X151467575Y-140357874D01*
X151347941Y-140456273D01*
X151229665Y-140540818D01*
X151125723Y-140601750D01*
X151055458Y-140632887D01*
X150992740Y-140647081D01*
X150926619Y-140643611D01*
X150846143Y-140621756D01*
X150740360Y-140580795D01*
X150727833Y-140575564D01*
X150632670Y-140532054D01*
X150539278Y-140483321D01*
X150464262Y-140438184D01*
X150448822Y-140427398D01*
X150327744Y-140324322D01*
X150211955Y-140200146D01*
X150114063Y-140069350D01*
X150066175Y-139987976D01*
X150032144Y-139916733D01*
X150011981Y-139855858D01*
X150002076Y-139788819D01*
X149998818Y-139699081D01*
X149998657Y-139678833D01*
X150002120Y-139564807D01*
X150017562Y-139477753D01*
X150050326Y-139402831D01*
X150105754Y-139325202D01*
X150140854Y-139283903D01*
X150234430Y-139188427D01*
X150320983Y-139127027D01*
X150409655Y-139094655D01*
X150498855Y-139086166D01*
X150633031Y-139099218D01*
X150742345Y-139141077D01*
X150836275Y-139215796D01*
X150858248Y-139239835D01*
X150935747Y-139329223D01*
X151021493Y-139231811D01*
X151135110Y-139132354D01*
X151264755Y-139070263D01*
X151404626Y-139046631D01*
X151548920Y-139062554D01*
G37*
X151548920Y-139062554D02*
X151672595Y-139108956D01*
X151748827Y-139156943D01*
X151800991Y-139217261D01*
X151825160Y-139260631D01*
X151868809Y-139388984D01*
X151886762Y-139539274D01*
X151879295Y-139700006D01*
X151846686Y-139859690D01*
X151808150Y-139966752D01*
X151758854Y-140050061D01*
X151680608Y-140147718D01*
X151580990Y-140252672D01*
X151467575Y-140357874D01*
X151347941Y-140456273D01*
X151229665Y-140540818D01*
X151125723Y-140601750D01*
X151055458Y-140632887D01*
X150992740Y-140647081D01*
X150926619Y-140643611D01*
X150846143Y-140621756D01*
X150740360Y-140580795D01*
X150727833Y-140575564D01*
X150632670Y-140532054D01*
X150539278Y-140483321D01*
X150464262Y-140438184D01*
X150448822Y-140427398D01*
X150327744Y-140324322D01*
X150211955Y-140200146D01*
X150114063Y-140069350D01*
X150066175Y-139987976D01*
X150032144Y-139916733D01*
X150011981Y-139855858D01*
X150002076Y-139788819D01*
X149998818Y-139699081D01*
X149998657Y-139678833D01*
X150002120Y-139564807D01*
X150017562Y-139477753D01*
X150050326Y-139402831D01*
X150105754Y-139325202D01*
X150140854Y-139283903D01*
X150234430Y-139188427D01*
X150320983Y-139127027D01*
X150409655Y-139094655D01*
X150498855Y-139086166D01*
X150633031Y-139099218D01*
X150742345Y-139141077D01*
X150836275Y-139215796D01*
X150858248Y-139239835D01*
X150935747Y-139329223D01*
X151021493Y-139231811D01*
X151135110Y-139132354D01*
X151264755Y-139070263D01*
X151404626Y-139046631D01*
X151548920Y-139062554D01*
G36*
X149271449Y-140144500D02*
G01*
X149273591Y-140235198D01*
X149275444Y-140318228D01*
X149276647Y-140377359D01*
X149276740Y-140382625D01*
X149277916Y-140451416D01*
X149140333Y-140452205D01*
X149057616Y-140457589D01*
X148982798Y-140475431D01*
X148908721Y-140509795D01*
X148828227Y-140564745D01*
X148734159Y-140644345D01*
X148630875Y-140741486D01*
X148535704Y-140838546D01*
X148429608Y-140954904D01*
X148319624Y-141082073D01*
X148212788Y-141211563D01*
X148116137Y-141334885D01*
X148036707Y-141443550D01*
X147990161Y-141514441D01*
X147951960Y-141572850D01*
X147920186Y-141613137D01*
X147904140Y-141625566D01*
X147897119Y-141605969D01*
X147894025Y-141551444D01*
X147895044Y-141469230D01*
X147898331Y-141398625D01*
X147921432Y-141174362D01*
X147964491Y-140980898D01*
X148030631Y-140810185D01*
X148122977Y-140654180D01*
X148244651Y-140504837D01*
X148245919Y-140503466D01*
X148402564Y-140351674D01*
X148570017Y-140220815D01*
X148742044Y-140114334D01*
X148912415Y-140035677D01*
X149074897Y-139988288D01*
X149201596Y-139975166D01*
X149267333Y-139975166D01*
X149271449Y-140144500D01*
G37*
X149271449Y-140144500D02*
X149273591Y-140235198D01*
X149275444Y-140318228D01*
X149276647Y-140377359D01*
X149276740Y-140382625D01*
X149277916Y-140451416D01*
X149140333Y-140452205D01*
X149057616Y-140457589D01*
X148982798Y-140475431D01*
X148908721Y-140509795D01*
X148828227Y-140564745D01*
X148734159Y-140644345D01*
X148630875Y-140741486D01*
X148535704Y-140838546D01*
X148429608Y-140954904D01*
X148319624Y-141082073D01*
X148212788Y-141211563D01*
X148116137Y-141334885D01*
X148036707Y-141443550D01*
X147990161Y-141514441D01*
X147951960Y-141572850D01*
X147920186Y-141613137D01*
X147904140Y-141625566D01*
X147897119Y-141605969D01*
X147894025Y-141551444D01*
X147895044Y-141469230D01*
X147898331Y-141398625D01*
X147921432Y-141174362D01*
X147964491Y-140980898D01*
X148030631Y-140810185D01*
X148122977Y-140654180D01*
X148244651Y-140504837D01*
X148245919Y-140503466D01*
X148402564Y-140351674D01*
X148570017Y-140220815D01*
X148742044Y-140114334D01*
X148912415Y-140035677D01*
X149074897Y-139988288D01*
X149201596Y-139975166D01*
X149267333Y-139975166D01*
X149271449Y-140144500D01*
G36*
X151478976Y-137653503D02*
G01*
X151620185Y-137661521D01*
X151765762Y-137676531D01*
X151925229Y-137699267D01*
X152108113Y-137730464D01*
X152292409Y-137764817D01*
X152495867Y-137809857D01*
X152698675Y-137866205D01*
X152894023Y-137931176D01*
X153075104Y-138002086D01*
X153235107Y-138076254D01*
X153367225Y-138150994D01*
X153464647Y-138223625D01*
X153470607Y-138229140D01*
X153504694Y-138262712D01*
X153525942Y-138292425D01*
X153537384Y-138329244D01*
X153542057Y-138384132D01*
X153542993Y-138468056D01*
X153543000Y-138490707D01*
X153544608Y-138575193D01*
X153548922Y-138640824D01*
X153555171Y-138678258D01*
X153558875Y-138683482D01*
X153587688Y-138678760D01*
X153641305Y-138667503D01*
X153665486Y-138662034D01*
X153715391Y-138653117D01*
X153759196Y-138654677D01*
X153810099Y-138669494D01*
X153881296Y-138700347D01*
X153908903Y-138713296D01*
X154059561Y-138801871D01*
X154210302Y-138922486D01*
X154350665Y-139066183D01*
X154417427Y-139148844D01*
X154511856Y-139274461D01*
X154527128Y-139528649D01*
X154532100Y-139649515D01*
X154533468Y-139775230D01*
X154531224Y-139888517D01*
X154527352Y-139952842D01*
X154519630Y-140029515D01*
X154509149Y-140087051D01*
X154490987Y-140137260D01*
X154460223Y-140191953D01*
X154411935Y-140262942D01*
X154378671Y-140309651D01*
X154309138Y-140401328D01*
X154221452Y-140508913D01*
X154127359Y-140618344D01*
X154046925Y-140706769D01*
X153963436Y-140796707D01*
X153881021Y-140887766D01*
X153808977Y-140969535D01*
X153756603Y-141031603D01*
X153755072Y-141033500D01*
X153690948Y-141111559D01*
X153621728Y-141193440D01*
X153575708Y-141246316D01*
X153525413Y-141305316D01*
X153484557Y-141357455D01*
X153466702Y-141383753D01*
X153445032Y-141411622D01*
X153420152Y-141404916D01*
X153405124Y-141393187D01*
X153397340Y-141385078D01*
X153390751Y-141372545D01*
X153385300Y-141352424D01*
X153380930Y-141321549D01*
X153377583Y-141276755D01*
X153375203Y-141214879D01*
X153373732Y-141132756D01*
X153373114Y-141027221D01*
X153373290Y-140895109D01*
X153374203Y-140733257D01*
X153375797Y-140538498D01*
X153376097Y-140507210D01*
X153460397Y-140507210D01*
X153461034Y-140621260D01*
X153464046Y-140702525D01*
X153469324Y-140747487D01*
X153474296Y-140755479D01*
X153494510Y-140737723D01*
X153537402Y-140693674D01*
X153597762Y-140628889D01*
X153670382Y-140548927D01*
X153719646Y-140493750D01*
X153808275Y-140392331D01*
X153871263Y-140316060D01*
X153912369Y-140259624D01*
X153935354Y-140217711D01*
X153943974Y-140185009D01*
X153944322Y-140176250D01*
X153940939Y-140087235D01*
X153933299Y-139987083D01*
X153922642Y-139885770D01*
X153910209Y-139793274D01*
X153897242Y-139719569D01*
X153884979Y-139674633D01*
X153881053Y-139667510D01*
X153844879Y-139641656D01*
X153787801Y-139616736D01*
X153773994Y-139612281D01*
X153723118Y-139600575D01*
X153683574Y-139604183D01*
X153649024Y-139628478D01*
X153613133Y-139678832D01*
X153569565Y-139760620D01*
X153548492Y-139803497D01*
X153470194Y-139964583D01*
X153462241Y-140363896D01*
X153460397Y-140507210D01*
X153376097Y-140507210D01*
X153378015Y-140307669D01*
X153380731Y-140043958D01*
X153383577Y-139740608D01*
X153384403Y-139614825D01*
X153482121Y-139614825D01*
X153560185Y-139538950D01*
X153612539Y-139493021D01*
X153654350Y-139473070D01*
X153701719Y-139472174D01*
X153712333Y-139473538D01*
X153798223Y-139493529D01*
X153882404Y-139526178D01*
X153953029Y-139565582D01*
X153998253Y-139605839D01*
X154006261Y-139619994D01*
X154013811Y-139657946D01*
X154022085Y-139729128D01*
X154030233Y-139824465D01*
X154037406Y-139934883D01*
X154039517Y-139975166D01*
X154054579Y-140282083D01*
X153931837Y-140419666D01*
X153854879Y-140505196D01*
X153766873Y-140601911D01*
X153685741Y-140690125D01*
X153679122Y-140697261D01*
X153614679Y-140769222D01*
X153574335Y-140823076D01*
X153551601Y-140869978D01*
X153539985Y-140921083D01*
X153537498Y-140940654D01*
X153533017Y-141004857D01*
X153534746Y-141051675D01*
X153538117Y-141063890D01*
X153556465Y-141058898D01*
X153593440Y-141027286D01*
X153641446Y-140975667D01*
X153647235Y-140968859D01*
X153699700Y-140908691D01*
X153772235Y-140828286D01*
X153855512Y-140737866D01*
X153940201Y-140647652D01*
X153945463Y-140642111D01*
X154035616Y-140543654D01*
X154129490Y-140435074D01*
X154215589Y-140329997D01*
X154278838Y-140247038D01*
X154410833Y-140063827D01*
X154410833Y-139327304D01*
X154342041Y-139261822D01*
X154293266Y-139219436D01*
X154224815Y-139165194D01*
X154144321Y-139104542D01*
X154059415Y-139042924D01*
X153977730Y-138985785D01*
X153906896Y-138938570D01*
X153854546Y-138906725D01*
X153828831Y-138895666D01*
X153799986Y-138905822D01*
X153746046Y-138932324D01*
X153677902Y-138969223D01*
X153606446Y-139010570D01*
X153542569Y-139050418D01*
X153529459Y-139059177D01*
X153517991Y-139087521D01*
X153507588Y-139153157D01*
X153498881Y-139251044D01*
X153493728Y-139345204D01*
X153482121Y-139614825D01*
X153384403Y-139614825D01*
X153385298Y-139478702D01*
X153385860Y-139257366D01*
X153385232Y-139075723D01*
X153383379Y-138932900D01*
X153380271Y-138828022D01*
X153375875Y-138760213D01*
X153370157Y-138728598D01*
X153363085Y-138732303D01*
X153354626Y-138770452D01*
X153344749Y-138842171D01*
X153338127Y-138900958D01*
X153319516Y-139075583D01*
X153295780Y-138899536D01*
X153283550Y-138817537D01*
X153271681Y-138752710D01*
X153262201Y-138715690D01*
X153259899Y-138711343D01*
X153235566Y-138711858D01*
X153181528Y-138723909D01*
X153108047Y-138745076D01*
X153083168Y-138753030D01*
X152829711Y-138820239D01*
X152544899Y-138866048D01*
X152226654Y-138890728D01*
X151987250Y-138895580D01*
X151852674Y-138893477D01*
X151696760Y-138887629D01*
X151527314Y-138878647D01*
X151352142Y-138867144D01*
X151179052Y-138853732D01*
X151015849Y-138839024D01*
X150870341Y-138823630D01*
X150750334Y-138808163D01*
X150663634Y-138793236D01*
X150653750Y-138791026D01*
X150546845Y-138767182D01*
X150423349Y-138741341D01*
X150308379Y-138718746D01*
X150298681Y-138716935D01*
X150158535Y-138685639D01*
X150010129Y-138643559D01*
X149866328Y-138595002D01*
X149740000Y-138544275D01*
X149651963Y-138500378D01*
X149597543Y-138472017D01*
X149559396Y-138457855D01*
X149549563Y-138458214D01*
X149542493Y-138485929D01*
X149536034Y-138551090D01*
X149530221Y-138648811D01*
X149525086Y-138774209D01*
X149520662Y-138922398D01*
X149516982Y-139088496D01*
X149514081Y-139267618D01*
X149511990Y-139454878D01*
X149510744Y-139645394D01*
X149510375Y-139834281D01*
X149510917Y-140016654D01*
X149512403Y-140187629D01*
X149514867Y-140342322D01*
X149518340Y-140475848D01*
X149522858Y-140583324D01*
X149528453Y-140659864D01*
X149534320Y-140697848D01*
X149567450Y-140743428D01*
X149633311Y-140766182D01*
X149728587Y-140765483D01*
X149811938Y-140750483D01*
X149929818Y-140724732D01*
X150056550Y-140700444D01*
X150181185Y-140679394D01*
X150292773Y-140663360D01*
X150380365Y-140654117D01*
X150415576Y-140652567D01*
X150485225Y-140664021D01*
X150561603Y-140702000D01*
X150600320Y-140728235D01*
X150656944Y-140775476D01*
X150728027Y-140844309D01*
X150806624Y-140926867D01*
X150885792Y-141015288D01*
X150958585Y-141101705D01*
X151018060Y-141178256D01*
X151057274Y-141237074D01*
X151066813Y-141256575D01*
X151076694Y-141303479D01*
X151084044Y-141378217D01*
X151087544Y-141466305D01*
X151087666Y-141485476D01*
X151090572Y-141587323D01*
X151101077Y-141662248D01*
X151121864Y-141725377D01*
X151135291Y-141753973D01*
X151202246Y-141842250D01*
X151296879Y-141906370D01*
X151408506Y-141940079D01*
X151459287Y-141943666D01*
X151515146Y-141948002D01*
X151558140Y-141965687D01*
X151596047Y-142003740D01*
X151636641Y-142069176D01*
X151670387Y-142134166D01*
X151739974Y-142291342D01*
X151795630Y-142453831D01*
X151832594Y-142606546D01*
X151843355Y-142682181D01*
X151856343Y-142817446D01*
X152048796Y-142804582D01*
X152154183Y-142792243D01*
X152285686Y-142769000D01*
X152429464Y-142737925D01*
X152571673Y-142702091D01*
X152698470Y-142664569D01*
X152734358Y-142652416D01*
X152741246Y-142633578D01*
X152722060Y-142588920D01*
X152679116Y-142520745D01*
X152603087Y-142396188D01*
X152528601Y-142252470D01*
X152463711Y-142106453D01*
X152416470Y-141975000D01*
X152413178Y-141963833D01*
X152382566Y-141824243D01*
X152359427Y-141645067D01*
X152343948Y-141428418D01*
X152336321Y-141176411D01*
X152335605Y-141097000D01*
X152333918Y-140930464D01*
X152329917Y-140800204D01*
X152322574Y-140700184D01*
X152310862Y-140624365D01*
X152293755Y-140566711D01*
X152270228Y-140521183D01*
X152239252Y-140481745D01*
X152229183Y-140471053D01*
X152170859Y-140421248D01*
X152102096Y-140386145D01*
X152011817Y-140361413D01*
X151906597Y-140344889D01*
X151845369Y-140334785D01*
X151816535Y-140320794D01*
X151810213Y-140296794D01*
X151811347Y-140285886D01*
X151835105Y-140243900D01*
X151890654Y-140193725D01*
X151969786Y-140141033D01*
X152064291Y-140091496D01*
X152136472Y-140061256D01*
X152296266Y-140023384D01*
X152462328Y-140024300D01*
X152627268Y-140062720D01*
X152783697Y-140137362D01*
X152853602Y-140185690D01*
X152954208Y-140275256D01*
X153037845Y-140378079D01*
X153107280Y-140499974D01*
X153165283Y-140646756D01*
X153214620Y-140824240D01*
X153257220Y-141033500D01*
X153276294Y-141130468D01*
X153297110Y-141219931D01*
X153316287Y-141287903D01*
X153323540Y-141307892D01*
X153357905Y-141374870D01*
X153396566Y-141427613D01*
X153430995Y-141455136D01*
X153439155Y-141456833D01*
X153458625Y-141441580D01*
X153498905Y-141400173D01*
X153553897Y-141339141D01*
X153610500Y-141273341D01*
X153688190Y-141182322D01*
X153781924Y-141074167D01*
X153879309Y-140963100D01*
X153959508Y-140872769D01*
X154034113Y-140788353D01*
X154101076Y-140710659D01*
X154153891Y-140647368D01*
X154186057Y-140606161D01*
X154189484Y-140601177D01*
X154226530Y-140559749D01*
X154268055Y-140547603D01*
X154318799Y-140566356D01*
X154383504Y-140617623D01*
X154457156Y-140692428D01*
X154541750Y-140790970D01*
X154609632Y-140888866D01*
X154666393Y-140996756D01*
X154717626Y-141125275D01*
X154768925Y-141285062D01*
X154769153Y-141285830D01*
X154815118Y-141474458D01*
X154833209Y-141645133D01*
X154823853Y-141811389D01*
X154790848Y-141974076D01*
X154744157Y-142126206D01*
X154689466Y-142247729D01*
X154620223Y-142350347D01*
X154529874Y-142445762D01*
X154523298Y-142451826D01*
X154338957Y-142605626D01*
X154156091Y-142725572D01*
X153963530Y-142818208D01*
X153800385Y-142875424D01*
X153716783Y-142898151D01*
X153641177Y-142910959D01*
X153557700Y-142915434D01*
X153450484Y-142913158D01*
X153430880Y-142912310D01*
X153325429Y-142906101D01*
X153247090Y-142896354D01*
X153180641Y-142879583D01*
X153110860Y-142852300D01*
X153053542Y-142825870D01*
X152892167Y-142749182D01*
X152778375Y-142810626D01*
X152700937Y-142848176D01*
X152602996Y-142889826D01*
X152504483Y-142927147D01*
X152495250Y-142930357D01*
X152413160Y-142956528D01*
X152339041Y-142974027D01*
X152259637Y-142984777D01*
X152161693Y-142990704D01*
X152062023Y-142993250D01*
X151944762Y-142996469D01*
X151864410Y-143001766D01*
X151815568Y-143009797D01*
X151792836Y-143021220D01*
X151789976Y-143026386D01*
X151775794Y-143062305D01*
X151750242Y-143117465D01*
X151740677Y-143136830D01*
X151716126Y-143189339D01*
X151711042Y-143220526D01*
X151725021Y-143246449D01*
X151737558Y-143260826D01*
X151797398Y-143308766D01*
X151887241Y-143358232D01*
X151995366Y-143403591D01*
X152107203Y-143438484D01*
X152202386Y-143455703D01*
X152325213Y-143467654D01*
X152463488Y-143474181D01*
X152605014Y-143475131D01*
X152737597Y-143470349D01*
X152849039Y-143459681D01*
X152908000Y-143448614D01*
X153091512Y-143388274D01*
X153251716Y-143308039D01*
X153381179Y-143211922D01*
X153421580Y-143171167D01*
X153472367Y-143117861D01*
X153512253Y-143081876D01*
X153533335Y-143070265D01*
X153534128Y-143070740D01*
X153531800Y-143094398D01*
X153513507Y-143143152D01*
X153492583Y-143187565D01*
X153439321Y-143292674D01*
X153517618Y-143356586D01*
X153560886Y-143396077D01*
X153583452Y-143425118D01*
X153584019Y-143433049D01*
X153558932Y-143434415D01*
X153506022Y-143425145D01*
X153451481Y-143411280D01*
X153330839Y-143376960D01*
X153184988Y-143444187D01*
X153044735Y-143501332D01*
X152907260Y-143539908D01*
X152761065Y-143561790D01*
X152594649Y-143568851D01*
X152442333Y-143565229D01*
X152277025Y-143555026D01*
X152142271Y-143539113D01*
X152026402Y-143514856D01*
X151917751Y-143479621D01*
X151804648Y-143430774D01*
X151767932Y-143412986D01*
X151686890Y-143374682D01*
X151632485Y-143354594D01*
X151594508Y-143350087D01*
X151562751Y-143358531D01*
X151560561Y-143359510D01*
X151497261Y-143378170D01*
X151452353Y-143383000D01*
X151413601Y-143391842D01*
X151345290Y-143416161D01*
X151255796Y-143452646D01*
X151153493Y-143497987D01*
X151109390Y-143518558D01*
X150967681Y-143583666D01*
X150844634Y-143633946D01*
X150733214Y-143669703D01*
X150626387Y-143691240D01*
X150517119Y-143698862D01*
X150398376Y-143692874D01*
X150263124Y-143673579D01*
X150104327Y-143641283D01*
X149914953Y-143596289D01*
X149826182Y-143574076D01*
X149650637Y-143529139D01*
X149510443Y-143491352D01*
X149399683Y-143458417D01*
X149312443Y-143428037D01*
X149242807Y-143397914D01*
X149184860Y-143365750D01*
X149132686Y-143329249D01*
X149096316Y-143299260D01*
X150441510Y-143299260D01*
X150442589Y-143330514D01*
X150464491Y-143365452D01*
X150493729Y-143382960D01*
X150495000Y-143383000D01*
X150520400Y-143368651D01*
X150536563Y-143352177D01*
X150551401Y-143312329D01*
X150529769Y-143284217D01*
X150495000Y-143277166D01*
X150454686Y-143287640D01*
X150441510Y-143299260D01*
X149096316Y-143299260D01*
X149080369Y-143286112D01*
X149076833Y-143283033D01*
X149009134Y-143227779D01*
X148985379Y-143209862D01*
X150710747Y-143209862D01*
X150714344Y-143245478D01*
X150742117Y-143270114D01*
X150783739Y-143271551D01*
X150819264Y-143252082D01*
X150829183Y-143232278D01*
X150822047Y-143213666D01*
X151373416Y-143213666D01*
X151374384Y-143233202D01*
X151381501Y-143234833D01*
X151411424Y-143219386D01*
X151415750Y-143213666D01*
X151414782Y-143194130D01*
X151407665Y-143192500D01*
X151377742Y-143207946D01*
X151373416Y-143213666D01*
X150822047Y-143213666D01*
X150816673Y-143199652D01*
X150787431Y-143185346D01*
X150736080Y-143184404D01*
X150710747Y-143209862D01*
X148985379Y-143209862D01*
X148924450Y-143163909D01*
X148844000Y-143107238D01*
X148777376Y-143063589D01*
X148741056Y-143043464D01*
X148731226Y-143045319D01*
X148743282Y-143066502D01*
X148787570Y-143131947D01*
X148810995Y-143173489D01*
X148811372Y-143187018D01*
X148806193Y-143184714D01*
X148776428Y-143182988D01*
X148718383Y-143190833D01*
X148644587Y-143206552D01*
X148644088Y-143206675D01*
X148529673Y-143225895D01*
X148421640Y-143222308D01*
X148308321Y-143193990D01*
X148178048Y-143139014D01*
X148149865Y-143125120D01*
X148031048Y-143045730D01*
X147918423Y-142933638D01*
X147849257Y-142838440D01*
X150941649Y-142838440D01*
X150965819Y-142876815D01*
X150973819Y-142885128D01*
X151017603Y-142910840D01*
X151056277Y-142906042D01*
X151076447Y-142873457D01*
X151077083Y-142864126D01*
X151065846Y-142832547D01*
X151025550Y-142817567D01*
X151008291Y-142815450D01*
X150955883Y-142817831D01*
X150941649Y-142838440D01*
X147849257Y-142838440D01*
X147820188Y-142798432D01*
X147745787Y-142652750D01*
X147713507Y-142543932D01*
X151087666Y-142543932D01*
X151103868Y-142603507D01*
X151150460Y-142634646D01*
X151203979Y-142637829D01*
X151249464Y-142626888D01*
X151269094Y-142596812D01*
X151274127Y-142563985D01*
X151274430Y-142517930D01*
X151255560Y-142495374D01*
X151252188Y-142494486D01*
X151490744Y-142494486D01*
X151503001Y-142532962D01*
X151516291Y-142543481D01*
X151568886Y-142554939D01*
X151593919Y-142536922D01*
X151595666Y-142524358D01*
X151584684Y-142471736D01*
X151558146Y-142433146D01*
X151525666Y-142421689D01*
X151521260Y-142422969D01*
X151497124Y-142450691D01*
X151490744Y-142494486D01*
X151252188Y-142494486D01*
X151206708Y-142482512D01*
X151137829Y-142476833D01*
X151100191Y-142494331D01*
X151087756Y-142538121D01*
X151087666Y-142543932D01*
X147713507Y-142543932D01*
X147709317Y-142529809D01*
X147686793Y-142380950D01*
X147679674Y-142222563D01*
X147829080Y-142222563D01*
X147829194Y-142232239D01*
X147837120Y-142309435D01*
X147854665Y-142384008D01*
X147855653Y-142386914D01*
X147900350Y-142452424D01*
X147981245Y-142498822D01*
X148096417Y-142525412D01*
X148243946Y-142531496D01*
X148253290Y-142531210D01*
X148340866Y-142525696D01*
X148411383Y-142512947D01*
X148481972Y-142488259D01*
X148569761Y-142446926D01*
X148581368Y-142441077D01*
X148654795Y-142398297D01*
X148737457Y-142341238D01*
X148822069Y-142276091D01*
X148901346Y-142209047D01*
X148968004Y-142146297D01*
X149014756Y-142094032D01*
X149034319Y-142058443D01*
X149034500Y-142056003D01*
X149017285Y-142053796D01*
X148972274Y-142067720D01*
X148912791Y-142093142D01*
X148749288Y-142152671D01*
X148560374Y-142192594D01*
X148358597Y-142212049D01*
X148156502Y-142210178D01*
X147966634Y-142186121D01*
X147875625Y-142164189D01*
X147844891Y-142159319D01*
X147831628Y-142175476D01*
X147829080Y-142222563D01*
X147679674Y-142222563D01*
X147679589Y-142220678D01*
X147689081Y-142063498D01*
X147689577Y-142059466D01*
X147701286Y-141991975D01*
X147701430Y-141991590D01*
X148691845Y-141991590D01*
X148752047Y-141977439D01*
X148798653Y-141961255D01*
X148869383Y-141930729D01*
X148951110Y-141891628D01*
X148975216Y-141879394D01*
X149051771Y-141841346D01*
X149115246Y-141812305D01*
X149155411Y-141796854D01*
X149162369Y-141795500D01*
X149186612Y-141805778D01*
X149232251Y-141837926D01*
X149301761Y-141893915D01*
X149397618Y-141975714D01*
X149485778Y-142052970D01*
X149548301Y-142102292D01*
X149587193Y-142118239D01*
X149604238Y-142101294D01*
X149605335Y-142085292D01*
X149594211Y-142044761D01*
X149565581Y-141979645D01*
X149524558Y-141898882D01*
X149476258Y-141811411D01*
X149425795Y-141726173D01*
X149378284Y-141652105D01*
X149360315Y-141627524D01*
X150322339Y-141627524D01*
X150333799Y-141693804D01*
X150345688Y-141727350D01*
X150371536Y-141770662D01*
X150395837Y-141788464D01*
X150399571Y-141787913D01*
X150439773Y-141793721D01*
X150484963Y-141834729D01*
X150524040Y-141896041D01*
X150552933Y-141939942D01*
X150580744Y-141964846D01*
X150598507Y-141964078D01*
X150600833Y-141953198D01*
X150590474Y-141922869D01*
X150564681Y-141871647D01*
X150531378Y-141813944D01*
X150498491Y-141764172D01*
X150492563Y-141756311D01*
X150460828Y-141699141D01*
X150440283Y-141634602D01*
X150426453Y-141586613D01*
X150410213Y-141563135D01*
X150407977Y-141562666D01*
X150391278Y-141545488D01*
X150389166Y-141530916D01*
X150372878Y-141502839D01*
X150358694Y-141499166D01*
X150335504Y-141517623D01*
X150323147Y-141564603D01*
X150322339Y-141627524D01*
X149360315Y-141627524D01*
X149338840Y-141598148D01*
X149312578Y-141573239D01*
X149312285Y-141573122D01*
X149256334Y-141570923D01*
X149178570Y-141593491D01*
X149087398Y-141635943D01*
X148991220Y-141693397D01*
X148898439Y-141760968D01*
X148817459Y-141833775D01*
X148769994Y-141888253D01*
X148691845Y-141991590D01*
X147701430Y-141991590D01*
X147721605Y-141937817D01*
X147757936Y-141882484D01*
X147813876Y-141815780D01*
X147878445Y-141742452D01*
X147957593Y-141652580D01*
X148037916Y-141561383D01*
X148068582Y-141526570D01*
X148143401Y-141438019D01*
X148219428Y-141342056D01*
X148284259Y-141254540D01*
X148305244Y-141224000D01*
X148372853Y-141133043D01*
X148462546Y-141027692D01*
X148565209Y-140917314D01*
X148671725Y-140811277D01*
X148772980Y-140718947D01*
X148859857Y-140649691D01*
X148872982Y-140640588D01*
X148991468Y-140582545D01*
X149112411Y-140566708D01*
X149236759Y-140592973D01*
X149254165Y-140599867D01*
X149330833Y-140631901D01*
X149330632Y-140234742D01*
X149329446Y-140080863D01*
X149326283Y-139900494D01*
X149321525Y-139709414D01*
X149315558Y-139523402D01*
X149309887Y-139382500D01*
X149297763Y-139094089D01*
X149289315Y-138846548D01*
X149284538Y-138638570D01*
X149283431Y-138468852D01*
X149285991Y-138336089D01*
X149290436Y-138266733D01*
X149630578Y-138266733D01*
X149635728Y-138278562D01*
X149657041Y-138301286D01*
X149669293Y-138296624D01*
X149669500Y-138293665D01*
X149654465Y-138275762D01*
X149645062Y-138269228D01*
X149630578Y-138266733D01*
X149290436Y-138266733D01*
X149292216Y-138238975D01*
X149302103Y-138176206D01*
X149307531Y-138159326D01*
X149318116Y-138140881D01*
X149590250Y-138140881D01*
X149593378Y-138184486D01*
X149604222Y-138223913D01*
X149618412Y-138239500D01*
X149622340Y-138222730D01*
X149616637Y-138197338D01*
X149616400Y-138162573D01*
X149648474Y-138137721D01*
X149662836Y-138131602D01*
X149763213Y-138090638D01*
X149822922Y-138063299D01*
X150287458Y-138063299D01*
X150297792Y-138110994D01*
X150306616Y-138144250D01*
X150336040Y-138227614D01*
X150374175Y-138301930D01*
X150415792Y-138360578D01*
X150455661Y-138396937D01*
X150488552Y-138404388D01*
X150502660Y-138392395D01*
X150496240Y-138368772D01*
X150470805Y-138318233D01*
X150430801Y-138249104D01*
X150398107Y-138196604D01*
X150351583Y-138125028D01*
X150562307Y-138125028D01*
X150576452Y-138158519D01*
X150610295Y-138224837D01*
X150623637Y-138250083D01*
X150667551Y-138330369D01*
X150707682Y-138399485D01*
X150737536Y-138446395D01*
X150745134Y-138456458D01*
X150781051Y-138487659D01*
X150806282Y-138490326D01*
X150812500Y-138473582D01*
X150797231Y-138444642D01*
X150793353Y-138441831D01*
X150773127Y-138418346D01*
X150740161Y-138369474D01*
X150709344Y-138318874D01*
X150663397Y-138245585D01*
X150615259Y-138177050D01*
X150589108Y-138144250D01*
X150566859Y-138121294D01*
X150562307Y-138125028D01*
X150351583Y-138125028D01*
X150343188Y-138112113D01*
X150307926Y-138062582D01*
X150290093Y-138046736D01*
X150287458Y-138063299D01*
X149822922Y-138063299D01*
X149826155Y-138061819D01*
X149854362Y-138043830D01*
X149855636Y-138037581D01*
X149831424Y-138037597D01*
X149781251Y-138048262D01*
X149718866Y-138065559D01*
X149658019Y-138085467D01*
X149612459Y-138103969D01*
X149598024Y-138112871D01*
X149590250Y-138140881D01*
X149318116Y-138140881D01*
X149329871Y-138120400D01*
X149366527Y-138085669D01*
X149426166Y-138048551D01*
X149508356Y-138006845D01*
X149550558Y-137987936D01*
X150767968Y-137987936D01*
X150776864Y-138031319D01*
X150795845Y-138096562D01*
X150798186Y-138103822D01*
X150825371Y-138171584D01*
X150861872Y-138242060D01*
X150902379Y-138307573D01*
X150941580Y-138360449D01*
X150974167Y-138393011D01*
X150994830Y-138397585D01*
X150997872Y-138392464D01*
X150991163Y-138365688D01*
X150967117Y-138311181D01*
X150929852Y-138237709D01*
X150897363Y-138178373D01*
X150850750Y-138097614D01*
X150810453Y-138031336D01*
X150781668Y-137987887D01*
X150771069Y-137975474D01*
X150767968Y-137987936D01*
X149550558Y-137987936D01*
X149606319Y-137962952D01*
X149655002Y-137943166D01*
X151416547Y-137943166D01*
X151416599Y-137961861D01*
X151422107Y-138009160D01*
X151426156Y-138037254D01*
X151444394Y-138101481D01*
X151480357Y-138187321D01*
X151528188Y-138281234D01*
X151542908Y-138307129D01*
X151591705Y-138390919D01*
X151636041Y-138467191D01*
X151669078Y-138524176D01*
X151678732Y-138540905D01*
X151709025Y-138577196D01*
X151753605Y-138614488D01*
X151799724Y-138644001D01*
X151834635Y-138656957D01*
X151843800Y-138654588D01*
X151835419Y-138635727D01*
X151808277Y-138589629D01*
X151795124Y-138568704D01*
X153013511Y-138568704D01*
X153029291Y-138575199D01*
X153078146Y-138557032D01*
X153130250Y-138529655D01*
X153193574Y-138481691D01*
X153246225Y-138421609D01*
X153256056Y-138405543D01*
X153281141Y-138355376D01*
X153285823Y-138323015D01*
X153270176Y-138289216D01*
X153256581Y-138268498D01*
X153215965Y-138207750D01*
X153202913Y-138301633D01*
X153189657Y-138360713D01*
X153163093Y-138409099D01*
X153114168Y-138461096D01*
X153085972Y-138486406D01*
X153032005Y-138538716D01*
X153013511Y-138568704D01*
X151795124Y-138568704D01*
X151767169Y-138524235D01*
X151738430Y-138480006D01*
X151674329Y-138379286D01*
X151603280Y-138262743D01*
X151538323Y-138151871D01*
X151524316Y-138127116D01*
X151480477Y-138049678D01*
X151444914Y-137988325D01*
X151422231Y-137950919D01*
X151416547Y-137943166D01*
X149655002Y-137943166D01*
X149725545Y-137914496D01*
X149846773Y-137869147D01*
X149859078Y-137864898D01*
X151688046Y-137864898D01*
X151688741Y-137890700D01*
X151705225Y-137946106D01*
X151734358Y-138022855D01*
X151772996Y-138112685D01*
X151817999Y-138207337D01*
X151819155Y-138209647D01*
X151868133Y-138299602D01*
X151920427Y-138382926D01*
X151970362Y-138451771D01*
X152012264Y-138498293D01*
X152039750Y-138514666D01*
X152038021Y-138497059D01*
X152020084Y-138449194D01*
X151989002Y-138378510D01*
X151950437Y-138297708D01*
X151897133Y-138193427D01*
X151856618Y-138119063D01*
X152213340Y-138119063D01*
X152220613Y-138159539D01*
X152237864Y-138214147D01*
X152262432Y-138274822D01*
X152291657Y-138333495D01*
X152322879Y-138382100D01*
X152331749Y-138392958D01*
X152364570Y-138418399D01*
X152399475Y-138431177D01*
X152420138Y-138426091D01*
X152421166Y-138421450D01*
X152410885Y-138396327D01*
X152384360Y-138346485D01*
X152348071Y-138282924D01*
X152308495Y-138216642D01*
X152292517Y-138191170D01*
X152594110Y-138191170D01*
X152608562Y-138240773D01*
X152633791Y-138297640D01*
X152663879Y-138347508D01*
X152681135Y-138367517D01*
X152725087Y-138401632D01*
X152747216Y-138405250D01*
X152743338Y-138379722D01*
X152727759Y-138352452D01*
X152691003Y-138294416D01*
X152651478Y-138229383D01*
X152648618Y-138224548D01*
X152619819Y-138181818D01*
X152599541Y-138162617D01*
X152596349Y-138163094D01*
X152594110Y-138191170D01*
X152292517Y-138191170D01*
X152272111Y-138158640D01*
X152245398Y-138119916D01*
X152239367Y-138112783D01*
X152218705Y-138100789D01*
X152213340Y-138119063D01*
X151856618Y-138119063D01*
X151842673Y-138093468D01*
X151790918Y-138004200D01*
X151745729Y-137931992D01*
X151710967Y-137883212D01*
X151690493Y-137864228D01*
X151688046Y-137864898D01*
X149859078Y-137864898D01*
X149902333Y-137849963D01*
X150056234Y-137800796D01*
X150194821Y-137761906D01*
X150327778Y-137731632D01*
X150464788Y-137708313D01*
X150615536Y-137690289D01*
X150789705Y-137675899D01*
X150986291Y-137664048D01*
X151171554Y-137655501D01*
X151332607Y-137651742D01*
X151478976Y-137653503D01*
G37*
X151478976Y-137653503D02*
X151620185Y-137661521D01*
X151765762Y-137676531D01*
X151925229Y-137699267D01*
X152108113Y-137730464D01*
X152292409Y-137764817D01*
X152495867Y-137809857D01*
X152698675Y-137866205D01*
X152894023Y-137931176D01*
X153075104Y-138002086D01*
X153235107Y-138076254D01*
X153367225Y-138150994D01*
X153464647Y-138223625D01*
X153470607Y-138229140D01*
X153504694Y-138262712D01*
X153525942Y-138292425D01*
X153537384Y-138329244D01*
X153542057Y-138384132D01*
X153542993Y-138468056D01*
X153543000Y-138490707D01*
X153544608Y-138575193D01*
X153548922Y-138640824D01*
X153555171Y-138678258D01*
X153558875Y-138683482D01*
X153587688Y-138678760D01*
X153641305Y-138667503D01*
X153665486Y-138662034D01*
X153715391Y-138653117D01*
X153759196Y-138654677D01*
X153810099Y-138669494D01*
X153881296Y-138700347D01*
X153908903Y-138713296D01*
X154059561Y-138801871D01*
X154210302Y-138922486D01*
X154350665Y-139066183D01*
X154417427Y-139148844D01*
X154511856Y-139274461D01*
X154527128Y-139528649D01*
X154532100Y-139649515D01*
X154533468Y-139775230D01*
X154531224Y-139888517D01*
X154527352Y-139952842D01*
X154519630Y-140029515D01*
X154509149Y-140087051D01*
X154490987Y-140137260D01*
X154460223Y-140191953D01*
X154411935Y-140262942D01*
X154378671Y-140309651D01*
X154309138Y-140401328D01*
X154221452Y-140508913D01*
X154127359Y-140618344D01*
X154046925Y-140706769D01*
X153963436Y-140796707D01*
X153881021Y-140887766D01*
X153808977Y-140969535D01*
X153756603Y-141031603D01*
X153755072Y-141033500D01*
X153690948Y-141111559D01*
X153621728Y-141193440D01*
X153575708Y-141246316D01*
X153525413Y-141305316D01*
X153484557Y-141357455D01*
X153466702Y-141383753D01*
X153445032Y-141411622D01*
X153420152Y-141404916D01*
X153405124Y-141393187D01*
X153397340Y-141385078D01*
X153390751Y-141372545D01*
X153385300Y-141352424D01*
X153380930Y-141321549D01*
X153377583Y-141276755D01*
X153375203Y-141214879D01*
X153373732Y-141132756D01*
X153373114Y-141027221D01*
X153373290Y-140895109D01*
X153374203Y-140733257D01*
X153375797Y-140538498D01*
X153376097Y-140507210D01*
X153460397Y-140507210D01*
X153461034Y-140621260D01*
X153464046Y-140702525D01*
X153469324Y-140747487D01*
X153474296Y-140755479D01*
X153494510Y-140737723D01*
X153537402Y-140693674D01*
X153597762Y-140628889D01*
X153670382Y-140548927D01*
X153719646Y-140493750D01*
X153808275Y-140392331D01*
X153871263Y-140316060D01*
X153912369Y-140259624D01*
X153935354Y-140217711D01*
X153943974Y-140185009D01*
X153944322Y-140176250D01*
X153940939Y-140087235D01*
X153933299Y-139987083D01*
X153922642Y-139885770D01*
X153910209Y-139793274D01*
X153897242Y-139719569D01*
X153884979Y-139674633D01*
X153881053Y-139667510D01*
X153844879Y-139641656D01*
X153787801Y-139616736D01*
X153773994Y-139612281D01*
X153723118Y-139600575D01*
X153683574Y-139604183D01*
X153649024Y-139628478D01*
X153613133Y-139678832D01*
X153569565Y-139760620D01*
X153548492Y-139803497D01*
X153470194Y-139964583D01*
X153462241Y-140363896D01*
X153460397Y-140507210D01*
X153376097Y-140507210D01*
X153378015Y-140307669D01*
X153380731Y-140043958D01*
X153383577Y-139740608D01*
X153384403Y-139614825D01*
X153482121Y-139614825D01*
X153560185Y-139538950D01*
X153612539Y-139493021D01*
X153654350Y-139473070D01*
X153701719Y-139472174D01*
X153712333Y-139473538D01*
X153798223Y-139493529D01*
X153882404Y-139526178D01*
X153953029Y-139565582D01*
X153998253Y-139605839D01*
X154006261Y-139619994D01*
X154013811Y-139657946D01*
X154022085Y-139729128D01*
X154030233Y-139824465D01*
X154037406Y-139934883D01*
X154039517Y-139975166D01*
X154054579Y-140282083D01*
X153931837Y-140419666D01*
X153854879Y-140505196D01*
X153766873Y-140601911D01*
X153685741Y-140690125D01*
X153679122Y-140697261D01*
X153614679Y-140769222D01*
X153574335Y-140823076D01*
X153551601Y-140869978D01*
X153539985Y-140921083D01*
X153537498Y-140940654D01*
X153533017Y-141004857D01*
X153534746Y-141051675D01*
X153538117Y-141063890D01*
X153556465Y-141058898D01*
X153593440Y-141027286D01*
X153641446Y-140975667D01*
X153647235Y-140968859D01*
X153699700Y-140908691D01*
X153772235Y-140828286D01*
X153855512Y-140737866D01*
X153940201Y-140647652D01*
X153945463Y-140642111D01*
X154035616Y-140543654D01*
X154129490Y-140435074D01*
X154215589Y-140329997D01*
X154278838Y-140247038D01*
X154410833Y-140063827D01*
X154410833Y-139327304D01*
X154342041Y-139261822D01*
X154293266Y-139219436D01*
X154224815Y-139165194D01*
X154144321Y-139104542D01*
X154059415Y-139042924D01*
X153977730Y-138985785D01*
X153906896Y-138938570D01*
X153854546Y-138906725D01*
X153828831Y-138895666D01*
X153799986Y-138905822D01*
X153746046Y-138932324D01*
X153677902Y-138969223D01*
X153606446Y-139010570D01*
X153542569Y-139050418D01*
X153529459Y-139059177D01*
X153517991Y-139087521D01*
X153507588Y-139153157D01*
X153498881Y-139251044D01*
X153493728Y-139345204D01*
X153482121Y-139614825D01*
X153384403Y-139614825D01*
X153385298Y-139478702D01*
X153385860Y-139257366D01*
X153385232Y-139075723D01*
X153383379Y-138932900D01*
X153380271Y-138828022D01*
X153375875Y-138760213D01*
X153370157Y-138728598D01*
X153363085Y-138732303D01*
X153354626Y-138770452D01*
X153344749Y-138842171D01*
X153338127Y-138900958D01*
X153319516Y-139075583D01*
X153295780Y-138899536D01*
X153283550Y-138817537D01*
X153271681Y-138752710D01*
X153262201Y-138715690D01*
X153259899Y-138711343D01*
X153235566Y-138711858D01*
X153181528Y-138723909D01*
X153108047Y-138745076D01*
X153083168Y-138753030D01*
X152829711Y-138820239D01*
X152544899Y-138866048D01*
X152226654Y-138890728D01*
X151987250Y-138895580D01*
X151852674Y-138893477D01*
X151696760Y-138887629D01*
X151527314Y-138878647D01*
X151352142Y-138867144D01*
X151179052Y-138853732D01*
X151015849Y-138839024D01*
X150870341Y-138823630D01*
X150750334Y-138808163D01*
X150663634Y-138793236D01*
X150653750Y-138791026D01*
X150546845Y-138767182D01*
X150423349Y-138741341D01*
X150308379Y-138718746D01*
X150298681Y-138716935D01*
X150158535Y-138685639D01*
X150010129Y-138643559D01*
X149866328Y-138595002D01*
X149740000Y-138544275D01*
X149651963Y-138500378D01*
X149597543Y-138472017D01*
X149559396Y-138457855D01*
X149549563Y-138458214D01*
X149542493Y-138485929D01*
X149536034Y-138551090D01*
X149530221Y-138648811D01*
X149525086Y-138774209D01*
X149520662Y-138922398D01*
X149516982Y-139088496D01*
X149514081Y-139267618D01*
X149511990Y-139454878D01*
X149510744Y-139645394D01*
X149510375Y-139834281D01*
X149510917Y-140016654D01*
X149512403Y-140187629D01*
X149514867Y-140342322D01*
X149518340Y-140475848D01*
X149522858Y-140583324D01*
X149528453Y-140659864D01*
X149534320Y-140697848D01*
X149567450Y-140743428D01*
X149633311Y-140766182D01*
X149728587Y-140765483D01*
X149811938Y-140750483D01*
X149929818Y-140724732D01*
X150056550Y-140700444D01*
X150181185Y-140679394D01*
X150292773Y-140663360D01*
X150380365Y-140654117D01*
X150415576Y-140652567D01*
X150485225Y-140664021D01*
X150561603Y-140702000D01*
X150600320Y-140728235D01*
X150656944Y-140775476D01*
X150728027Y-140844309D01*
X150806624Y-140926867D01*
X150885792Y-141015288D01*
X150958585Y-141101705D01*
X151018060Y-141178256D01*
X151057274Y-141237074D01*
X151066813Y-141256575D01*
X151076694Y-141303479D01*
X151084044Y-141378217D01*
X151087544Y-141466305D01*
X151087666Y-141485476D01*
X151090572Y-141587323D01*
X151101077Y-141662248D01*
X151121864Y-141725377D01*
X151135291Y-141753973D01*
X151202246Y-141842250D01*
X151296879Y-141906370D01*
X151408506Y-141940079D01*
X151459287Y-141943666D01*
X151515146Y-141948002D01*
X151558140Y-141965687D01*
X151596047Y-142003740D01*
X151636641Y-142069176D01*
X151670387Y-142134166D01*
X151739974Y-142291342D01*
X151795630Y-142453831D01*
X151832594Y-142606546D01*
X151843355Y-142682181D01*
X151856343Y-142817446D01*
X152048796Y-142804582D01*
X152154183Y-142792243D01*
X152285686Y-142769000D01*
X152429464Y-142737925D01*
X152571673Y-142702091D01*
X152698470Y-142664569D01*
X152734358Y-142652416D01*
X152741246Y-142633578D01*
X152722060Y-142588920D01*
X152679116Y-142520745D01*
X152603087Y-142396188D01*
X152528601Y-142252470D01*
X152463711Y-142106453D01*
X152416470Y-141975000D01*
X152413178Y-141963833D01*
X152382566Y-141824243D01*
X152359427Y-141645067D01*
X152343948Y-141428418D01*
X152336321Y-141176411D01*
X152335605Y-141097000D01*
X152333918Y-140930464D01*
X152329917Y-140800204D01*
X152322574Y-140700184D01*
X152310862Y-140624365D01*
X152293755Y-140566711D01*
X152270228Y-140521183D01*
X152239252Y-140481745D01*
X152229183Y-140471053D01*
X152170859Y-140421248D01*
X152102096Y-140386145D01*
X152011817Y-140361413D01*
X151906597Y-140344889D01*
X151845369Y-140334785D01*
X151816535Y-140320794D01*
X151810213Y-140296794D01*
X151811347Y-140285886D01*
X151835105Y-140243900D01*
X151890654Y-140193725D01*
X151969786Y-140141033D01*
X152064291Y-140091496D01*
X152136472Y-140061256D01*
X152296266Y-140023384D01*
X152462328Y-140024300D01*
X152627268Y-140062720D01*
X152783697Y-140137362D01*
X152853602Y-140185690D01*
X152954208Y-140275256D01*
X153037845Y-140378079D01*
X153107280Y-140499974D01*
X153165283Y-140646756D01*
X153214620Y-140824240D01*
X153257220Y-141033500D01*
X153276294Y-141130468D01*
X153297110Y-141219931D01*
X153316287Y-141287903D01*
X153323540Y-141307892D01*
X153357905Y-141374870D01*
X153396566Y-141427613D01*
X153430995Y-141455136D01*
X153439155Y-141456833D01*
X153458625Y-141441580D01*
X153498905Y-141400173D01*
X153553897Y-141339141D01*
X153610500Y-141273341D01*
X153688190Y-141182322D01*
X153781924Y-141074167D01*
X153879309Y-140963100D01*
X153959508Y-140872769D01*
X154034113Y-140788353D01*
X154101076Y-140710659D01*
X154153891Y-140647368D01*
X154186057Y-140606161D01*
X154189484Y-140601177D01*
X154226530Y-140559749D01*
X154268055Y-140547603D01*
X154318799Y-140566356D01*
X154383504Y-140617623D01*
X154457156Y-140692428D01*
X154541750Y-140790970D01*
X154609632Y-140888866D01*
X154666393Y-140996756D01*
X154717626Y-141125275D01*
X154768925Y-141285062D01*
X154769153Y-141285830D01*
X154815118Y-141474458D01*
X154833209Y-141645133D01*
X154823853Y-141811389D01*
X154790848Y-141974076D01*
X154744157Y-142126206D01*
X154689466Y-142247729D01*
X154620223Y-142350347D01*
X154529874Y-142445762D01*
X154523298Y-142451826D01*
X154338957Y-142605626D01*
X154156091Y-142725572D01*
X153963530Y-142818208D01*
X153800385Y-142875424D01*
X153716783Y-142898151D01*
X153641177Y-142910959D01*
X153557700Y-142915434D01*
X153450484Y-142913158D01*
X153430880Y-142912310D01*
X153325429Y-142906101D01*
X153247090Y-142896354D01*
X153180641Y-142879583D01*
X153110860Y-142852300D01*
X153053542Y-142825870D01*
X152892167Y-142749182D01*
X152778375Y-142810626D01*
X152700937Y-142848176D01*
X152602996Y-142889826D01*
X152504483Y-142927147D01*
X152495250Y-142930357D01*
X152413160Y-142956528D01*
X152339041Y-142974027D01*
X152259637Y-142984777D01*
X152161693Y-142990704D01*
X152062023Y-142993250D01*
X151944762Y-142996469D01*
X151864410Y-143001766D01*
X151815568Y-143009797D01*
X151792836Y-143021220D01*
X151789976Y-143026386D01*
X151775794Y-143062305D01*
X151750242Y-143117465D01*
X151740677Y-143136830D01*
X151716126Y-143189339D01*
X151711042Y-143220526D01*
X151725021Y-143246449D01*
X151737558Y-143260826D01*
X151797398Y-143308766D01*
X151887241Y-143358232D01*
X151995366Y-143403591D01*
X152107203Y-143438484D01*
X152202386Y-143455703D01*
X152325213Y-143467654D01*
X152463488Y-143474181D01*
X152605014Y-143475131D01*
X152737597Y-143470349D01*
X152849039Y-143459681D01*
X152908000Y-143448614D01*
X153091512Y-143388274D01*
X153251716Y-143308039D01*
X153381179Y-143211922D01*
X153421580Y-143171167D01*
X153472367Y-143117861D01*
X153512253Y-143081876D01*
X153533335Y-143070265D01*
X153534128Y-143070740D01*
X153531800Y-143094398D01*
X153513507Y-143143152D01*
X153492583Y-143187565D01*
X153439321Y-143292674D01*
X153517618Y-143356586D01*
X153560886Y-143396077D01*
X153583452Y-143425118D01*
X153584019Y-143433049D01*
X153558932Y-143434415D01*
X153506022Y-143425145D01*
X153451481Y-143411280D01*
X153330839Y-143376960D01*
X153184988Y-143444187D01*
X153044735Y-143501332D01*
X152907260Y-143539908D01*
X152761065Y-143561790D01*
X152594649Y-143568851D01*
X152442333Y-143565229D01*
X152277025Y-143555026D01*
X152142271Y-143539113D01*
X152026402Y-143514856D01*
X151917751Y-143479621D01*
X151804648Y-143430774D01*
X151767932Y-143412986D01*
X151686890Y-143374682D01*
X151632485Y-143354594D01*
X151594508Y-143350087D01*
X151562751Y-143358531D01*
X151560561Y-143359510D01*
X151497261Y-143378170D01*
X151452353Y-143383000D01*
X151413601Y-143391842D01*
X151345290Y-143416161D01*
X151255796Y-143452646D01*
X151153493Y-143497987D01*
X151109390Y-143518558D01*
X150967681Y-143583666D01*
X150844634Y-143633946D01*
X150733214Y-143669703D01*
X150626387Y-143691240D01*
X150517119Y-143698862D01*
X150398376Y-143692874D01*
X150263124Y-143673579D01*
X150104327Y-143641283D01*
X149914953Y-143596289D01*
X149826182Y-143574076D01*
X149650637Y-143529139D01*
X149510443Y-143491352D01*
X149399683Y-143458417D01*
X149312443Y-143428037D01*
X149242807Y-143397914D01*
X149184860Y-143365750D01*
X149132686Y-143329249D01*
X149096316Y-143299260D01*
X150441510Y-143299260D01*
X150442589Y-143330514D01*
X150464491Y-143365452D01*
X150493729Y-143382960D01*
X150495000Y-143383000D01*
X150520400Y-143368651D01*
X150536563Y-143352177D01*
X150551401Y-143312329D01*
X150529769Y-143284217D01*
X150495000Y-143277166D01*
X150454686Y-143287640D01*
X150441510Y-143299260D01*
X149096316Y-143299260D01*
X149080369Y-143286112D01*
X149076833Y-143283033D01*
X149009134Y-143227779D01*
X148985379Y-143209862D01*
X150710747Y-143209862D01*
X150714344Y-143245478D01*
X150742117Y-143270114D01*
X150783739Y-143271551D01*
X150819264Y-143252082D01*
X150829183Y-143232278D01*
X150822047Y-143213666D01*
X151373416Y-143213666D01*
X151374384Y-143233202D01*
X151381501Y-143234833D01*
X151411424Y-143219386D01*
X151415750Y-143213666D01*
X151414782Y-143194130D01*
X151407665Y-143192500D01*
X151377742Y-143207946D01*
X151373416Y-143213666D01*
X150822047Y-143213666D01*
X150816673Y-143199652D01*
X150787431Y-143185346D01*
X150736080Y-143184404D01*
X150710747Y-143209862D01*
X148985379Y-143209862D01*
X148924450Y-143163909D01*
X148844000Y-143107238D01*
X148777376Y-143063589D01*
X148741056Y-143043464D01*
X148731226Y-143045319D01*
X148743282Y-143066502D01*
X148787570Y-143131947D01*
X148810995Y-143173489D01*
X148811372Y-143187018D01*
X148806193Y-143184714D01*
X148776428Y-143182988D01*
X148718383Y-143190833D01*
X148644587Y-143206552D01*
X148644088Y-143206675D01*
X148529673Y-143225895D01*
X148421640Y-143222308D01*
X148308321Y-143193990D01*
X148178048Y-143139014D01*
X148149865Y-143125120D01*
X148031048Y-143045730D01*
X147918423Y-142933638D01*
X147849257Y-142838440D01*
X150941649Y-142838440D01*
X150965819Y-142876815D01*
X150973819Y-142885128D01*
X151017603Y-142910840D01*
X151056277Y-142906042D01*
X151076447Y-142873457D01*
X151077083Y-142864126D01*
X151065846Y-142832547D01*
X151025550Y-142817567D01*
X151008291Y-142815450D01*
X150955883Y-142817831D01*
X150941649Y-142838440D01*
X147849257Y-142838440D01*
X147820188Y-142798432D01*
X147745787Y-142652750D01*
X147713507Y-142543932D01*
X151087666Y-142543932D01*
X151103868Y-142603507D01*
X151150460Y-142634646D01*
X151203979Y-142637829D01*
X151249464Y-142626888D01*
X151269094Y-142596812D01*
X151274127Y-142563985D01*
X151274430Y-142517930D01*
X151255560Y-142495374D01*
X151252188Y-142494486D01*
X151490744Y-142494486D01*
X151503001Y-142532962D01*
X151516291Y-142543481D01*
X151568886Y-142554939D01*
X151593919Y-142536922D01*
X151595666Y-142524358D01*
X151584684Y-142471736D01*
X151558146Y-142433146D01*
X151525666Y-142421689D01*
X151521260Y-142422969D01*
X151497124Y-142450691D01*
X151490744Y-142494486D01*
X151252188Y-142494486D01*
X151206708Y-142482512D01*
X151137829Y-142476833D01*
X151100191Y-142494331D01*
X151087756Y-142538121D01*
X151087666Y-142543932D01*
X147713507Y-142543932D01*
X147709317Y-142529809D01*
X147686793Y-142380950D01*
X147679674Y-142222563D01*
X147829080Y-142222563D01*
X147829194Y-142232239D01*
X147837120Y-142309435D01*
X147854665Y-142384008D01*
X147855653Y-142386914D01*
X147900350Y-142452424D01*
X147981245Y-142498822D01*
X148096417Y-142525412D01*
X148243946Y-142531496D01*
X148253290Y-142531210D01*
X148340866Y-142525696D01*
X148411383Y-142512947D01*
X148481972Y-142488259D01*
X148569761Y-142446926D01*
X148581368Y-142441077D01*
X148654795Y-142398297D01*
X148737457Y-142341238D01*
X148822069Y-142276091D01*
X148901346Y-142209047D01*
X148968004Y-142146297D01*
X149014756Y-142094032D01*
X149034319Y-142058443D01*
X149034500Y-142056003D01*
X149017285Y-142053796D01*
X148972274Y-142067720D01*
X148912791Y-142093142D01*
X148749288Y-142152671D01*
X148560374Y-142192594D01*
X148358597Y-142212049D01*
X148156502Y-142210178D01*
X147966634Y-142186121D01*
X147875625Y-142164189D01*
X147844891Y-142159319D01*
X147831628Y-142175476D01*
X147829080Y-142222563D01*
X147679674Y-142222563D01*
X147679589Y-142220678D01*
X147689081Y-142063498D01*
X147689577Y-142059466D01*
X147701286Y-141991975D01*
X147701430Y-141991590D01*
X148691845Y-141991590D01*
X148752047Y-141977439D01*
X148798653Y-141961255D01*
X148869383Y-141930729D01*
X148951110Y-141891628D01*
X148975216Y-141879394D01*
X149051771Y-141841346D01*
X149115246Y-141812305D01*
X149155411Y-141796854D01*
X149162369Y-141795500D01*
X149186612Y-141805778D01*
X149232251Y-141837926D01*
X149301761Y-141893915D01*
X149397618Y-141975714D01*
X149485778Y-142052970D01*
X149548301Y-142102292D01*
X149587193Y-142118239D01*
X149604238Y-142101294D01*
X149605335Y-142085292D01*
X149594211Y-142044761D01*
X149565581Y-141979645D01*
X149524558Y-141898882D01*
X149476258Y-141811411D01*
X149425795Y-141726173D01*
X149378284Y-141652105D01*
X149360315Y-141627524D01*
X150322339Y-141627524D01*
X150333799Y-141693804D01*
X150345688Y-141727350D01*
X150371536Y-141770662D01*
X150395837Y-141788464D01*
X150399571Y-141787913D01*
X150439773Y-141793721D01*
X150484963Y-141834729D01*
X150524040Y-141896041D01*
X150552933Y-141939942D01*
X150580744Y-141964846D01*
X150598507Y-141964078D01*
X150600833Y-141953198D01*
X150590474Y-141922869D01*
X150564681Y-141871647D01*
X150531378Y-141813944D01*
X150498491Y-141764172D01*
X150492563Y-141756311D01*
X150460828Y-141699141D01*
X150440283Y-141634602D01*
X150426453Y-141586613D01*
X150410213Y-141563135D01*
X150407977Y-141562666D01*
X150391278Y-141545488D01*
X150389166Y-141530916D01*
X150372878Y-141502839D01*
X150358694Y-141499166D01*
X150335504Y-141517623D01*
X150323147Y-141564603D01*
X150322339Y-141627524D01*
X149360315Y-141627524D01*
X149338840Y-141598148D01*
X149312578Y-141573239D01*
X149312285Y-141573122D01*
X149256334Y-141570923D01*
X149178570Y-141593491D01*
X149087398Y-141635943D01*
X148991220Y-141693397D01*
X148898439Y-141760968D01*
X148817459Y-141833775D01*
X148769994Y-141888253D01*
X148691845Y-141991590D01*
X147701430Y-141991590D01*
X147721605Y-141937817D01*
X147757936Y-141882484D01*
X147813876Y-141815780D01*
X147878445Y-141742452D01*
X147957593Y-141652580D01*
X148037916Y-141561383D01*
X148068582Y-141526570D01*
X148143401Y-141438019D01*
X148219428Y-141342056D01*
X148284259Y-141254540D01*
X148305244Y-141224000D01*
X148372853Y-141133043D01*
X148462546Y-141027692D01*
X148565209Y-140917314D01*
X148671725Y-140811277D01*
X148772980Y-140718947D01*
X148859857Y-140649691D01*
X148872982Y-140640588D01*
X148991468Y-140582545D01*
X149112411Y-140566708D01*
X149236759Y-140592973D01*
X149254165Y-140599867D01*
X149330833Y-140631901D01*
X149330632Y-140234742D01*
X149329446Y-140080863D01*
X149326283Y-139900494D01*
X149321525Y-139709414D01*
X149315558Y-139523402D01*
X149309887Y-139382500D01*
X149297763Y-139094089D01*
X149289315Y-138846548D01*
X149284538Y-138638570D01*
X149283431Y-138468852D01*
X149285991Y-138336089D01*
X149290436Y-138266733D01*
X149630578Y-138266733D01*
X149635728Y-138278562D01*
X149657041Y-138301286D01*
X149669293Y-138296624D01*
X149669500Y-138293665D01*
X149654465Y-138275762D01*
X149645062Y-138269228D01*
X149630578Y-138266733D01*
X149290436Y-138266733D01*
X149292216Y-138238975D01*
X149302103Y-138176206D01*
X149307531Y-138159326D01*
X149318116Y-138140881D01*
X149590250Y-138140881D01*
X149593378Y-138184486D01*
X149604222Y-138223913D01*
X149618412Y-138239500D01*
X149622340Y-138222730D01*
X149616637Y-138197338D01*
X149616400Y-138162573D01*
X149648474Y-138137721D01*
X149662836Y-138131602D01*
X149763213Y-138090638D01*
X149822922Y-138063299D01*
X150287458Y-138063299D01*
X150297792Y-138110994D01*
X150306616Y-138144250D01*
X150336040Y-138227614D01*
X150374175Y-138301930D01*
X150415792Y-138360578D01*
X150455661Y-138396937D01*
X150488552Y-138404388D01*
X150502660Y-138392395D01*
X150496240Y-138368772D01*
X150470805Y-138318233D01*
X150430801Y-138249104D01*
X150398107Y-138196604D01*
X150351583Y-138125028D01*
X150562307Y-138125028D01*
X150576452Y-138158519D01*
X150610295Y-138224837D01*
X150623637Y-138250083D01*
X150667551Y-138330369D01*
X150707682Y-138399485D01*
X150737536Y-138446395D01*
X150745134Y-138456458D01*
X150781051Y-138487659D01*
X150806282Y-138490326D01*
X150812500Y-138473582D01*
X150797231Y-138444642D01*
X150793353Y-138441831D01*
X150773127Y-138418346D01*
X150740161Y-138369474D01*
X150709344Y-138318874D01*
X150663397Y-138245585D01*
X150615259Y-138177050D01*
X150589108Y-138144250D01*
X150566859Y-138121294D01*
X150562307Y-138125028D01*
X150351583Y-138125028D01*
X150343188Y-138112113D01*
X150307926Y-138062582D01*
X150290093Y-138046736D01*
X150287458Y-138063299D01*
X149822922Y-138063299D01*
X149826155Y-138061819D01*
X149854362Y-138043830D01*
X149855636Y-138037581D01*
X149831424Y-138037597D01*
X149781251Y-138048262D01*
X149718866Y-138065559D01*
X149658019Y-138085467D01*
X149612459Y-138103969D01*
X149598024Y-138112871D01*
X149590250Y-138140881D01*
X149318116Y-138140881D01*
X149329871Y-138120400D01*
X149366527Y-138085669D01*
X149426166Y-138048551D01*
X149508356Y-138006845D01*
X149550558Y-137987936D01*
X150767968Y-137987936D01*
X150776864Y-138031319D01*
X150795845Y-138096562D01*
X150798186Y-138103822D01*
X150825371Y-138171584D01*
X150861872Y-138242060D01*
X150902379Y-138307573D01*
X150941580Y-138360449D01*
X150974167Y-138393011D01*
X150994830Y-138397585D01*
X150997872Y-138392464D01*
X150991163Y-138365688D01*
X150967117Y-138311181D01*
X150929852Y-138237709D01*
X150897363Y-138178373D01*
X150850750Y-138097614D01*
X150810453Y-138031336D01*
X150781668Y-137987887D01*
X150771069Y-137975474D01*
X150767968Y-137987936D01*
X149550558Y-137987936D01*
X149606319Y-137962952D01*
X149655002Y-137943166D01*
X151416547Y-137943166D01*
X151416599Y-137961861D01*
X151422107Y-138009160D01*
X151426156Y-138037254D01*
X151444394Y-138101481D01*
X151480357Y-138187321D01*
X151528188Y-138281234D01*
X151542908Y-138307129D01*
X151591705Y-138390919D01*
X151636041Y-138467191D01*
X151669078Y-138524176D01*
X151678732Y-138540905D01*
X151709025Y-138577196D01*
X151753605Y-138614488D01*
X151799724Y-138644001D01*
X151834635Y-138656957D01*
X151843800Y-138654588D01*
X151835419Y-138635727D01*
X151808277Y-138589629D01*
X151795124Y-138568704D01*
X153013511Y-138568704D01*
X153029291Y-138575199D01*
X153078146Y-138557032D01*
X153130250Y-138529655D01*
X153193574Y-138481691D01*
X153246225Y-138421609D01*
X153256056Y-138405543D01*
X153281141Y-138355376D01*
X153285823Y-138323015D01*
X153270176Y-138289216D01*
X153256581Y-138268498D01*
X153215965Y-138207750D01*
X153202913Y-138301633D01*
X153189657Y-138360713D01*
X153163093Y-138409099D01*
X153114168Y-138461096D01*
X153085972Y-138486406D01*
X153032005Y-138538716D01*
X153013511Y-138568704D01*
X151795124Y-138568704D01*
X151767169Y-138524235D01*
X151738430Y-138480006D01*
X151674329Y-138379286D01*
X151603280Y-138262743D01*
X151538323Y-138151871D01*
X151524316Y-138127116D01*
X151480477Y-138049678D01*
X151444914Y-137988325D01*
X151422231Y-137950919D01*
X151416547Y-137943166D01*
X149655002Y-137943166D01*
X149725545Y-137914496D01*
X149846773Y-137869147D01*
X149859078Y-137864898D01*
X151688046Y-137864898D01*
X151688741Y-137890700D01*
X151705225Y-137946106D01*
X151734358Y-138022855D01*
X151772996Y-138112685D01*
X151817999Y-138207337D01*
X151819155Y-138209647D01*
X151868133Y-138299602D01*
X151920427Y-138382926D01*
X151970362Y-138451771D01*
X152012264Y-138498293D01*
X152039750Y-138514666D01*
X152038021Y-138497059D01*
X152020084Y-138449194D01*
X151989002Y-138378510D01*
X151950437Y-138297708D01*
X151897133Y-138193427D01*
X151856618Y-138119063D01*
X152213340Y-138119063D01*
X152220613Y-138159539D01*
X152237864Y-138214147D01*
X152262432Y-138274822D01*
X152291657Y-138333495D01*
X152322879Y-138382100D01*
X152331749Y-138392958D01*
X152364570Y-138418399D01*
X152399475Y-138431177D01*
X152420138Y-138426091D01*
X152421166Y-138421450D01*
X152410885Y-138396327D01*
X152384360Y-138346485D01*
X152348071Y-138282924D01*
X152308495Y-138216642D01*
X152292517Y-138191170D01*
X152594110Y-138191170D01*
X152608562Y-138240773D01*
X152633791Y-138297640D01*
X152663879Y-138347508D01*
X152681135Y-138367517D01*
X152725087Y-138401632D01*
X152747216Y-138405250D01*
X152743338Y-138379722D01*
X152727759Y-138352452D01*
X152691003Y-138294416D01*
X152651478Y-138229383D01*
X152648618Y-138224548D01*
X152619819Y-138181818D01*
X152599541Y-138162617D01*
X152596349Y-138163094D01*
X152594110Y-138191170D01*
X152292517Y-138191170D01*
X152272111Y-138158640D01*
X152245398Y-138119916D01*
X152239367Y-138112783D01*
X152218705Y-138100789D01*
X152213340Y-138119063D01*
X151856618Y-138119063D01*
X151842673Y-138093468D01*
X151790918Y-138004200D01*
X151745729Y-137931992D01*
X151710967Y-137883212D01*
X151690493Y-137864228D01*
X151688046Y-137864898D01*
X149859078Y-137864898D01*
X149902333Y-137849963D01*
X150056234Y-137800796D01*
X150194821Y-137761906D01*
X150327778Y-137731632D01*
X150464788Y-137708313D01*
X150615536Y-137690289D01*
X150789705Y-137675899D01*
X150986291Y-137664048D01*
X151171554Y-137655501D01*
X151332607Y-137651742D01*
X151478976Y-137653503D01*
%TD*%
D11*
%TO.C,SW1*%
X134531000Y-143093000D03*
X134531000Y-138593000D03*
X126581000Y-138593000D03*
X126581000Y-143093000D03*
%TD*%
D12*
%TO.C,J1*%
X144347000Y-138449000D03*
X143547000Y-138449000D03*
X138647000Y-138449000D03*
X137847000Y-138449000D03*
X137847000Y-138449000D03*
X138647000Y-138449000D03*
X143547000Y-138449000D03*
X144347000Y-138449000D03*
D13*
X139347000Y-138449000D03*
X139847000Y-138449000D03*
X140347000Y-138449000D03*
X141347000Y-138449000D03*
X141847000Y-138449000D03*
X142347000Y-138449000D03*
X142847000Y-138449000D03*
X140847000Y-138449000D03*
D14*
X145417000Y-139364000D03*
X136777000Y-139364000D03*
D15*
X138207000Y-139894000D03*
D16*
X136777000Y-143544000D03*
D15*
X143987000Y-139894000D03*
D16*
X145417000Y-143544000D03*
%TD*%
%TO.C,U4*%
G36*
G01*
X130932400Y-106269600D02*
X130932400Y-105769600D01*
G75*
G02*
X131182400Y-105519600I250000J0D01*
G01*
X132782400Y-105519600D01*
G75*
G02*
X133032400Y-105769600I0J-250000D01*
G01*
X133032400Y-106269600D01*
G75*
G02*
X132782400Y-106519600I-250000J0D01*
G01*
X131182400Y-106519600D01*
G75*
G02*
X130932400Y-106269600I0J250000D01*
G01*
G37*
G36*
G01*
X130932400Y-107539600D02*
X130932400Y-107039600D01*
G75*
G02*
X131182400Y-106789600I250000J0D01*
G01*
X132782400Y-106789600D01*
G75*
G02*
X133032400Y-107039600I0J-250000D01*
G01*
X133032400Y-107539600D01*
G75*
G02*
X132782400Y-107789600I-250000J0D01*
G01*
X131182400Y-107789600D01*
G75*
G02*
X130932400Y-107539600I0J250000D01*
G01*
G37*
G36*
G01*
X130932400Y-108809600D02*
X130932400Y-108309600D01*
G75*
G02*
X131182400Y-108059600I250000J0D01*
G01*
X132782400Y-108059600D01*
G75*
G02*
X133032400Y-108309600I0J-250000D01*
G01*
X133032400Y-108809600D01*
G75*
G02*
X132782400Y-109059600I-250000J0D01*
G01*
X131182400Y-109059600D01*
G75*
G02*
X130932400Y-108809600I0J250000D01*
G01*
G37*
G36*
G01*
X130932400Y-110079600D02*
X130932400Y-109579600D01*
G75*
G02*
X131182400Y-109329600I250000J0D01*
G01*
X132782400Y-109329600D01*
G75*
G02*
X133032400Y-109579600I0J-250000D01*
G01*
X133032400Y-110079600D01*
G75*
G02*
X132782400Y-110329600I-250000J0D01*
G01*
X131182400Y-110329600D01*
G75*
G02*
X130932400Y-110079600I0J250000D01*
G01*
G37*
G36*
G01*
X130932400Y-111349600D02*
X130932400Y-110849600D01*
G75*
G02*
X131182400Y-110599600I250000J0D01*
G01*
X132782400Y-110599600D01*
G75*
G02*
X133032400Y-110849600I0J-250000D01*
G01*
X133032400Y-111349600D01*
G75*
G02*
X132782400Y-111599600I-250000J0D01*
G01*
X131182400Y-111599600D01*
G75*
G02*
X130932400Y-111349600I0J250000D01*
G01*
G37*
G36*
G01*
X130932400Y-112619600D02*
X130932400Y-112119600D01*
G75*
G02*
X131182400Y-111869600I250000J0D01*
G01*
X132782400Y-111869600D01*
G75*
G02*
X133032400Y-112119600I0J-250000D01*
G01*
X133032400Y-112619600D01*
G75*
G02*
X132782400Y-112869600I-250000J0D01*
G01*
X131182400Y-112869600D01*
G75*
G02*
X130932400Y-112619600I0J250000D01*
G01*
G37*
G36*
G01*
X130932400Y-113889600D02*
X130932400Y-113389600D01*
G75*
G02*
X131182400Y-113139600I250000J0D01*
G01*
X132782400Y-113139600D01*
G75*
G02*
X133032400Y-113389600I0J-250000D01*
G01*
X133032400Y-113889600D01*
G75*
G02*
X132782400Y-114139600I-250000J0D01*
G01*
X131182400Y-114139600D01*
G75*
G02*
X130932400Y-113889600I0J250000D01*
G01*
G37*
G36*
G01*
X130932400Y-115159600D02*
X130932400Y-114659600D01*
G75*
G02*
X131182400Y-114409600I250000J0D01*
G01*
X132782400Y-114409600D01*
G75*
G02*
X133032400Y-114659600I0J-250000D01*
G01*
X133032400Y-115159600D01*
G75*
G02*
X132782400Y-115409600I-250000J0D01*
G01*
X131182400Y-115409600D01*
G75*
G02*
X130932400Y-115159600I0J250000D01*
G01*
G37*
G36*
G01*
X130932400Y-116429600D02*
X130932400Y-115929600D01*
G75*
G02*
X131182400Y-115679600I250000J0D01*
G01*
X132782400Y-115679600D01*
G75*
G02*
X133032400Y-115929600I0J-250000D01*
G01*
X133032400Y-116429600D01*
G75*
G02*
X132782400Y-116679600I-250000J0D01*
G01*
X131182400Y-116679600D01*
G75*
G02*
X130932400Y-116429600I0J250000D01*
G01*
G37*
G36*
G01*
X130932400Y-117699600D02*
X130932400Y-117199600D01*
G75*
G02*
X131182400Y-116949600I250000J0D01*
G01*
X132782400Y-116949600D01*
G75*
G02*
X133032400Y-117199600I0J-250000D01*
G01*
X133032400Y-117699600D01*
G75*
G02*
X132782400Y-117949600I-250000J0D01*
G01*
X131182400Y-117949600D01*
G75*
G02*
X130932400Y-117699600I0J250000D01*
G01*
G37*
G36*
G01*
X130932400Y-118969600D02*
X130932400Y-118469600D01*
G75*
G02*
X131182400Y-118219600I250000J0D01*
G01*
X132782400Y-118219600D01*
G75*
G02*
X133032400Y-118469600I0J-250000D01*
G01*
X133032400Y-118969600D01*
G75*
G02*
X132782400Y-119219600I-250000J0D01*
G01*
X131182400Y-119219600D01*
G75*
G02*
X130932400Y-118969600I0J250000D01*
G01*
G37*
G36*
G01*
X130932400Y-120239600D02*
X130932400Y-119739600D01*
G75*
G02*
X131182400Y-119489600I250000J0D01*
G01*
X132782400Y-119489600D01*
G75*
G02*
X133032400Y-119739600I0J-250000D01*
G01*
X133032400Y-120239600D01*
G75*
G02*
X132782400Y-120489600I-250000J0D01*
G01*
X131182400Y-120489600D01*
G75*
G02*
X130932400Y-120239600I0J250000D01*
G01*
G37*
G36*
G01*
X130932400Y-121509600D02*
X130932400Y-121009600D01*
G75*
G02*
X131182400Y-120759600I250000J0D01*
G01*
X132782400Y-120759600D01*
G75*
G02*
X133032400Y-121009600I0J-250000D01*
G01*
X133032400Y-121509600D01*
G75*
G02*
X132782400Y-121759600I-250000J0D01*
G01*
X131182400Y-121759600D01*
G75*
G02*
X130932400Y-121509600I0J250000D01*
G01*
G37*
G36*
G01*
X130932400Y-122779600D02*
X130932400Y-122279600D01*
G75*
G02*
X131182400Y-122029600I250000J0D01*
G01*
X132782400Y-122029600D01*
G75*
G02*
X133032400Y-122279600I0J-250000D01*
G01*
X133032400Y-122779600D01*
G75*
G02*
X132782400Y-123029600I-250000J0D01*
G01*
X131182400Y-123029600D01*
G75*
G02*
X130932400Y-122779600I0J250000D01*
G01*
G37*
G36*
G01*
X130932400Y-124079600D02*
X130932400Y-123579600D01*
G75*
G02*
X131182400Y-123329600I250000J0D01*
G01*
X132782400Y-123329600D01*
G75*
G02*
X133032400Y-123579600I0J-250000D01*
G01*
X133032400Y-124079600D01*
G75*
G02*
X132782400Y-124329600I-250000J0D01*
G01*
X131182400Y-124329600D01*
G75*
G02*
X130932400Y-124079600I0J250000D01*
G01*
G37*
G36*
G01*
X130932400Y-125349600D02*
X130932400Y-124849600D01*
G75*
G02*
X131182400Y-124599600I250000J0D01*
G01*
X132782400Y-124599600D01*
G75*
G02*
X133032400Y-124849600I0J-250000D01*
G01*
X133032400Y-125349600D01*
G75*
G02*
X132782400Y-125599600I-250000J0D01*
G01*
X131182400Y-125599600D01*
G75*
G02*
X130932400Y-125349600I0J250000D01*
G01*
G37*
G36*
G01*
X130932400Y-126619600D02*
X130932400Y-126119600D01*
G75*
G02*
X131182400Y-125869600I250000J0D01*
G01*
X132782400Y-125869600D01*
G75*
G02*
X133032400Y-126119600I0J-250000D01*
G01*
X133032400Y-126619600D01*
G75*
G02*
X132782400Y-126869600I-250000J0D01*
G01*
X131182400Y-126869600D01*
G75*
G02*
X130932400Y-126619600I0J250000D01*
G01*
G37*
G36*
G01*
X130932400Y-127889600D02*
X130932400Y-127389600D01*
G75*
G02*
X131182400Y-127139600I250000J0D01*
G01*
X132782400Y-127139600D01*
G75*
G02*
X133032400Y-127389600I0J-250000D01*
G01*
X133032400Y-127889600D01*
G75*
G02*
X132782400Y-128139600I-250000J0D01*
G01*
X131182400Y-128139600D01*
G75*
G02*
X130932400Y-127889600I0J250000D01*
G01*
G37*
G36*
G01*
X130932400Y-129159600D02*
X130932400Y-128659600D01*
G75*
G02*
X131182400Y-128409600I250000J0D01*
G01*
X132782400Y-128409600D01*
G75*
G02*
X133032400Y-128659600I0J-250000D01*
G01*
X133032400Y-129159600D01*
G75*
G02*
X132782400Y-129409600I-250000J0D01*
G01*
X131182400Y-129409600D01*
G75*
G02*
X130932400Y-129159600I0J250000D01*
G01*
G37*
G36*
G01*
X148932400Y-129159600D02*
X148932400Y-128659600D01*
G75*
G02*
X149182400Y-128409600I250000J0D01*
G01*
X150782400Y-128409600D01*
G75*
G02*
X151032400Y-128659600I0J-250000D01*
G01*
X151032400Y-129159600D01*
G75*
G02*
X150782400Y-129409600I-250000J0D01*
G01*
X149182400Y-129409600D01*
G75*
G02*
X148932400Y-129159600I0J250000D01*
G01*
G37*
G36*
G01*
X148932400Y-127889600D02*
X148932400Y-127389600D01*
G75*
G02*
X149182400Y-127139600I250000J0D01*
G01*
X150782400Y-127139600D01*
G75*
G02*
X151032400Y-127389600I0J-250000D01*
G01*
X151032400Y-127889600D01*
G75*
G02*
X150782400Y-128139600I-250000J0D01*
G01*
X149182400Y-128139600D01*
G75*
G02*
X148932400Y-127889600I0J250000D01*
G01*
G37*
G36*
G01*
X148932400Y-126619600D02*
X148932400Y-126119600D01*
G75*
G02*
X149182400Y-125869600I250000J0D01*
G01*
X150782400Y-125869600D01*
G75*
G02*
X151032400Y-126119600I0J-250000D01*
G01*
X151032400Y-126619600D01*
G75*
G02*
X150782400Y-126869600I-250000J0D01*
G01*
X149182400Y-126869600D01*
G75*
G02*
X148932400Y-126619600I0J250000D01*
G01*
G37*
G36*
G01*
X148932400Y-125349600D02*
X148932400Y-124849600D01*
G75*
G02*
X149182400Y-124599600I250000J0D01*
G01*
X150782400Y-124599600D01*
G75*
G02*
X151032400Y-124849600I0J-250000D01*
G01*
X151032400Y-125349600D01*
G75*
G02*
X150782400Y-125599600I-250000J0D01*
G01*
X149182400Y-125599600D01*
G75*
G02*
X148932400Y-125349600I0J250000D01*
G01*
G37*
G36*
G01*
X148932400Y-124079600D02*
X148932400Y-123579600D01*
G75*
G02*
X149182400Y-123329600I250000J0D01*
G01*
X150782400Y-123329600D01*
G75*
G02*
X151032400Y-123579600I0J-250000D01*
G01*
X151032400Y-124079600D01*
G75*
G02*
X150782400Y-124329600I-250000J0D01*
G01*
X149182400Y-124329600D01*
G75*
G02*
X148932400Y-124079600I0J250000D01*
G01*
G37*
G36*
G01*
X148962400Y-122779600D02*
X148962400Y-122279600D01*
G75*
G02*
X149212400Y-122029600I250000J0D01*
G01*
X150812400Y-122029600D01*
G75*
G02*
X151062400Y-122279600I0J-250000D01*
G01*
X151062400Y-122779600D01*
G75*
G02*
X150812400Y-123029600I-250000J0D01*
G01*
X149212400Y-123029600D01*
G75*
G02*
X148962400Y-122779600I0J250000D01*
G01*
G37*
G36*
G01*
X148962400Y-121509600D02*
X148962400Y-121009600D01*
G75*
G02*
X149212400Y-120759600I250000J0D01*
G01*
X150812400Y-120759600D01*
G75*
G02*
X151062400Y-121009600I0J-250000D01*
G01*
X151062400Y-121509600D01*
G75*
G02*
X150812400Y-121759600I-250000J0D01*
G01*
X149212400Y-121759600D01*
G75*
G02*
X148962400Y-121509600I0J250000D01*
G01*
G37*
G36*
G01*
X148962400Y-120239600D02*
X148962400Y-119739600D01*
G75*
G02*
X149212400Y-119489600I250000J0D01*
G01*
X150812400Y-119489600D01*
G75*
G02*
X151062400Y-119739600I0J-250000D01*
G01*
X151062400Y-120239600D01*
G75*
G02*
X150812400Y-120489600I-250000J0D01*
G01*
X149212400Y-120489600D01*
G75*
G02*
X148962400Y-120239600I0J250000D01*
G01*
G37*
G36*
G01*
X148962400Y-118969600D02*
X148962400Y-118469600D01*
G75*
G02*
X149212400Y-118219600I250000J0D01*
G01*
X150812400Y-118219600D01*
G75*
G02*
X151062400Y-118469600I0J-250000D01*
G01*
X151062400Y-118969600D01*
G75*
G02*
X150812400Y-119219600I-250000J0D01*
G01*
X149212400Y-119219600D01*
G75*
G02*
X148962400Y-118969600I0J250000D01*
G01*
G37*
G36*
G01*
X148962400Y-117699600D02*
X148962400Y-117199600D01*
G75*
G02*
X149212400Y-116949600I250000J0D01*
G01*
X150812400Y-116949600D01*
G75*
G02*
X151062400Y-117199600I0J-250000D01*
G01*
X151062400Y-117699600D01*
G75*
G02*
X150812400Y-117949600I-250000J0D01*
G01*
X149212400Y-117949600D01*
G75*
G02*
X148962400Y-117699600I0J250000D01*
G01*
G37*
G36*
G01*
X148962400Y-116429600D02*
X148962400Y-115929600D01*
G75*
G02*
X149212400Y-115679600I250000J0D01*
G01*
X150812400Y-115679600D01*
G75*
G02*
X151062400Y-115929600I0J-250000D01*
G01*
X151062400Y-116429600D01*
G75*
G02*
X150812400Y-116679600I-250000J0D01*
G01*
X149212400Y-116679600D01*
G75*
G02*
X148962400Y-116429600I0J250000D01*
G01*
G37*
G36*
G01*
X148962400Y-115159600D02*
X148962400Y-114659600D01*
G75*
G02*
X149212400Y-114409600I250000J0D01*
G01*
X150812400Y-114409600D01*
G75*
G02*
X151062400Y-114659600I0J-250000D01*
G01*
X151062400Y-115159600D01*
G75*
G02*
X150812400Y-115409600I-250000J0D01*
G01*
X149212400Y-115409600D01*
G75*
G02*
X148962400Y-115159600I0J250000D01*
G01*
G37*
G36*
G01*
X148962400Y-113889600D02*
X148962400Y-113389600D01*
G75*
G02*
X149212400Y-113139600I250000J0D01*
G01*
X150812400Y-113139600D01*
G75*
G02*
X151062400Y-113389600I0J-250000D01*
G01*
X151062400Y-113889600D01*
G75*
G02*
X150812400Y-114139600I-250000J0D01*
G01*
X149212400Y-114139600D01*
G75*
G02*
X148962400Y-113889600I0J250000D01*
G01*
G37*
G36*
G01*
X148962400Y-112619600D02*
X148962400Y-112119600D01*
G75*
G02*
X149212400Y-111869600I250000J0D01*
G01*
X150812400Y-111869600D01*
G75*
G02*
X151062400Y-112119600I0J-250000D01*
G01*
X151062400Y-112619600D01*
G75*
G02*
X150812400Y-112869600I-250000J0D01*
G01*
X149212400Y-112869600D01*
G75*
G02*
X148962400Y-112619600I0J250000D01*
G01*
G37*
G36*
G01*
X148962400Y-111349600D02*
X148962400Y-110849600D01*
G75*
G02*
X149212400Y-110599600I250000J0D01*
G01*
X150812400Y-110599600D01*
G75*
G02*
X151062400Y-110849600I0J-250000D01*
G01*
X151062400Y-111349600D01*
G75*
G02*
X150812400Y-111599600I-250000J0D01*
G01*
X149212400Y-111599600D01*
G75*
G02*
X148962400Y-111349600I0J250000D01*
G01*
G37*
G36*
G01*
X148962400Y-110079600D02*
X148962400Y-109579600D01*
G75*
G02*
X149212400Y-109329600I250000J0D01*
G01*
X150812400Y-109329600D01*
G75*
G02*
X151062400Y-109579600I0J-250000D01*
G01*
X151062400Y-110079600D01*
G75*
G02*
X150812400Y-110329600I-250000J0D01*
G01*
X149212400Y-110329600D01*
G75*
G02*
X148962400Y-110079600I0J250000D01*
G01*
G37*
G36*
G01*
X148962400Y-108809600D02*
X148962400Y-108309600D01*
G75*
G02*
X149212400Y-108059600I250000J0D01*
G01*
X150812400Y-108059600D01*
G75*
G02*
X151062400Y-108309600I0J-250000D01*
G01*
X151062400Y-108809600D01*
G75*
G02*
X150812400Y-109059600I-250000J0D01*
G01*
X149212400Y-109059600D01*
G75*
G02*
X148962400Y-108809600I0J250000D01*
G01*
G37*
G36*
G01*
X148962400Y-107539600D02*
X148962400Y-107039600D01*
G75*
G02*
X149212400Y-106789600I250000J0D01*
G01*
X150812400Y-106789600D01*
G75*
G02*
X151062400Y-107039600I0J-250000D01*
G01*
X151062400Y-107539600D01*
G75*
G02*
X150812400Y-107789600I-250000J0D01*
G01*
X149212400Y-107789600D01*
G75*
G02*
X148962400Y-107539600I0J250000D01*
G01*
G37*
G36*
G01*
X148962400Y-106269600D02*
X148962400Y-105769600D01*
G75*
G02*
X149212400Y-105519600I250000J0D01*
G01*
X150812400Y-105519600D01*
G75*
G02*
X151062400Y-105769600I0J-250000D01*
G01*
X151062400Y-106269600D01*
G75*
G02*
X150812400Y-106519600I-250000J0D01*
G01*
X149212400Y-106519600D01*
G75*
G02*
X148962400Y-106269600I0J250000D01*
G01*
G37*
%TD*%
D17*
%TO.C,J2*%
X152400000Y-129540000D03*
X154940000Y-129540000D03*
X152400000Y-127000000D03*
X154940000Y-127000000D03*
X152400000Y-124460000D03*
X154940000Y-124460000D03*
X152400000Y-121920000D03*
X154940000Y-121920000D03*
X152400000Y-119380000D03*
X154940000Y-119380000D03*
X152400000Y-116840000D03*
X154940000Y-116840000D03*
X152400000Y-114300000D03*
X154940000Y-114300000D03*
X152400000Y-111760000D03*
X154940000Y-111760000D03*
X152400000Y-109220000D03*
X154940000Y-109220000D03*
X152400000Y-106680000D03*
D18*
X154940000Y-106680000D03*
%TD*%
D17*
%TO.C,J3*%
X127000000Y-129540000D03*
X129540000Y-129540000D03*
X127000000Y-127000000D03*
X129540000Y-127000000D03*
X127000000Y-124460000D03*
X129540000Y-124460000D03*
X127000000Y-121920000D03*
X129540000Y-121920000D03*
X127000000Y-119380000D03*
X129540000Y-119380000D03*
X127000000Y-116840000D03*
X129540000Y-116840000D03*
X127000000Y-114300000D03*
X129540000Y-114300000D03*
X127000000Y-111760000D03*
X129540000Y-111760000D03*
X127000000Y-109220000D03*
X129540000Y-109220000D03*
X127000000Y-106680000D03*
D18*
X129540000Y-106680000D03*
%TD*%
D19*
%TO.C,U3*%
X149776000Y-134808000D03*
X149776000Y-132908000D03*
X151976000Y-132908000D03*
X151976000Y-133858000D03*
X151976000Y-134808000D03*
%TD*%
%TO.C,R2*%
G36*
G01*
X144480000Y-134846750D02*
X144480000Y-135409250D01*
G75*
G02*
X144236250Y-135653000I-243750J0D01*
G01*
X143748750Y-135653000D01*
G75*
G02*
X143505000Y-135409250I0J243750D01*
G01*
X143505000Y-134846750D01*
G75*
G02*
X143748750Y-134603000I243750J0D01*
G01*
X144236250Y-134603000D01*
G75*
G02*
X144480000Y-134846750I0J-243750D01*
G01*
G37*
G36*
G01*
X146055000Y-134846750D02*
X146055000Y-135409250D01*
G75*
G02*
X145811250Y-135653000I-243750J0D01*
G01*
X145323750Y-135653000D01*
G75*
G02*
X145080000Y-135409250I0J243750D01*
G01*
X145080000Y-134846750D01*
G75*
G02*
X145323750Y-134603000I243750J0D01*
G01*
X145811250Y-134603000D01*
G75*
G02*
X146055000Y-134846750I0J-243750D01*
G01*
G37*
%TD*%
D20*
%TO.C,U1*%
X130463000Y-132715000D03*
X130463000Y-133665000D03*
X130463000Y-134615000D03*
X128143000Y-134615000D03*
X128143000Y-133665000D03*
X128143000Y-132715000D03*
%TD*%
D21*
%TO.C,U2*%
X140339000Y-133890500D03*
G36*
G01*
X138776500Y-135315500D02*
X138026500Y-135315500D01*
G75*
G02*
X137939000Y-135228000I0J87500D01*
G01*
X137939000Y-135053000D01*
G75*
G02*
X138026500Y-134965500I87500J0D01*
G01*
X138776500Y-134965500D01*
G75*
G02*
X138864000Y-135053000I0J-87500D01*
G01*
X138864000Y-135228000D01*
G75*
G02*
X138776500Y-135315500I-87500J0D01*
G01*
G37*
G36*
G01*
X138776500Y-134815500D02*
X138026500Y-134815500D01*
G75*
G02*
X137939000Y-134728000I0J87500D01*
G01*
X137939000Y-134553000D01*
G75*
G02*
X138026500Y-134465500I87500J0D01*
G01*
X138776500Y-134465500D01*
G75*
G02*
X138864000Y-134553000I0J-87500D01*
G01*
X138864000Y-134728000D01*
G75*
G02*
X138776500Y-134815500I-87500J0D01*
G01*
G37*
G36*
G01*
X138776500Y-134315500D02*
X138026500Y-134315500D01*
G75*
G02*
X137939000Y-134228000I0J87500D01*
G01*
X137939000Y-134053000D01*
G75*
G02*
X138026500Y-133965500I87500J0D01*
G01*
X138776500Y-133965500D01*
G75*
G02*
X138864000Y-134053000I0J-87500D01*
G01*
X138864000Y-134228000D01*
G75*
G02*
X138776500Y-134315500I-87500J0D01*
G01*
G37*
G36*
G01*
X138776500Y-133815500D02*
X138026500Y-133815500D01*
G75*
G02*
X137939000Y-133728000I0J87500D01*
G01*
X137939000Y-133553000D01*
G75*
G02*
X138026500Y-133465500I87500J0D01*
G01*
X138776500Y-133465500D01*
G75*
G02*
X138864000Y-133553000I0J-87500D01*
G01*
X138864000Y-133728000D01*
G75*
G02*
X138776500Y-133815500I-87500J0D01*
G01*
G37*
G36*
G01*
X138776500Y-133315500D02*
X138026500Y-133315500D01*
G75*
G02*
X137939000Y-133228000I0J87500D01*
G01*
X137939000Y-133053000D01*
G75*
G02*
X138026500Y-132965500I87500J0D01*
G01*
X138776500Y-132965500D01*
G75*
G02*
X138864000Y-133053000I0J-87500D01*
G01*
X138864000Y-133228000D01*
G75*
G02*
X138776500Y-133315500I-87500J0D01*
G01*
G37*
G36*
G01*
X138776500Y-132815500D02*
X138026500Y-132815500D01*
G75*
G02*
X137939000Y-132728000I0J87500D01*
G01*
X137939000Y-132553000D01*
G75*
G02*
X138026500Y-132465500I87500J0D01*
G01*
X138776500Y-132465500D01*
G75*
G02*
X138864000Y-132553000I0J-87500D01*
G01*
X138864000Y-132728000D01*
G75*
G02*
X138776500Y-132815500I-87500J0D01*
G01*
G37*
G36*
G01*
X139176500Y-132415500D02*
X139001500Y-132415500D01*
G75*
G02*
X138914000Y-132328000I0J87500D01*
G01*
X138914000Y-131578000D01*
G75*
G02*
X139001500Y-131490500I87500J0D01*
G01*
X139176500Y-131490500D01*
G75*
G02*
X139264000Y-131578000I0J-87500D01*
G01*
X139264000Y-132328000D01*
G75*
G02*
X139176500Y-132415500I-87500J0D01*
G01*
G37*
G36*
G01*
X139676500Y-132415500D02*
X139501500Y-132415500D01*
G75*
G02*
X139414000Y-132328000I0J87500D01*
G01*
X139414000Y-131578000D01*
G75*
G02*
X139501500Y-131490500I87500J0D01*
G01*
X139676500Y-131490500D01*
G75*
G02*
X139764000Y-131578000I0J-87500D01*
G01*
X139764000Y-132328000D01*
G75*
G02*
X139676500Y-132415500I-87500J0D01*
G01*
G37*
G36*
G01*
X140176500Y-132415500D02*
X140001500Y-132415500D01*
G75*
G02*
X139914000Y-132328000I0J87500D01*
G01*
X139914000Y-131578000D01*
G75*
G02*
X140001500Y-131490500I87500J0D01*
G01*
X140176500Y-131490500D01*
G75*
G02*
X140264000Y-131578000I0J-87500D01*
G01*
X140264000Y-132328000D01*
G75*
G02*
X140176500Y-132415500I-87500J0D01*
G01*
G37*
G36*
G01*
X140676500Y-132415500D02*
X140501500Y-132415500D01*
G75*
G02*
X140414000Y-132328000I0J87500D01*
G01*
X140414000Y-131578000D01*
G75*
G02*
X140501500Y-131490500I87500J0D01*
G01*
X140676500Y-131490500D01*
G75*
G02*
X140764000Y-131578000I0J-87500D01*
G01*
X140764000Y-132328000D01*
G75*
G02*
X140676500Y-132415500I-87500J0D01*
G01*
G37*
G36*
G01*
X141176500Y-132415500D02*
X141001500Y-132415500D01*
G75*
G02*
X140914000Y-132328000I0J87500D01*
G01*
X140914000Y-131578000D01*
G75*
G02*
X141001500Y-131490500I87500J0D01*
G01*
X141176500Y-131490500D01*
G75*
G02*
X141264000Y-131578000I0J-87500D01*
G01*
X141264000Y-132328000D01*
G75*
G02*
X141176500Y-132415500I-87500J0D01*
G01*
G37*
G36*
G01*
X141676500Y-132415500D02*
X141501500Y-132415500D01*
G75*
G02*
X141414000Y-132328000I0J87500D01*
G01*
X141414000Y-131578000D01*
G75*
G02*
X141501500Y-131490500I87500J0D01*
G01*
X141676500Y-131490500D01*
G75*
G02*
X141764000Y-131578000I0J-87500D01*
G01*
X141764000Y-132328000D01*
G75*
G02*
X141676500Y-132415500I-87500J0D01*
G01*
G37*
G36*
G01*
X142651500Y-132815500D02*
X141901500Y-132815500D01*
G75*
G02*
X141814000Y-132728000I0J87500D01*
G01*
X141814000Y-132553000D01*
G75*
G02*
X141901500Y-132465500I87500J0D01*
G01*
X142651500Y-132465500D01*
G75*
G02*
X142739000Y-132553000I0J-87500D01*
G01*
X142739000Y-132728000D01*
G75*
G02*
X142651500Y-132815500I-87500J0D01*
G01*
G37*
G36*
G01*
X142651500Y-133315500D02*
X141901500Y-133315500D01*
G75*
G02*
X141814000Y-133228000I0J87500D01*
G01*
X141814000Y-133053000D01*
G75*
G02*
X141901500Y-132965500I87500J0D01*
G01*
X142651500Y-132965500D01*
G75*
G02*
X142739000Y-133053000I0J-87500D01*
G01*
X142739000Y-133228000D01*
G75*
G02*
X142651500Y-133315500I-87500J0D01*
G01*
G37*
G36*
G01*
X142651500Y-133815500D02*
X141901500Y-133815500D01*
G75*
G02*
X141814000Y-133728000I0J87500D01*
G01*
X141814000Y-133553000D01*
G75*
G02*
X141901500Y-133465500I87500J0D01*
G01*
X142651500Y-133465500D01*
G75*
G02*
X142739000Y-133553000I0J-87500D01*
G01*
X142739000Y-133728000D01*
G75*
G02*
X142651500Y-133815500I-87500J0D01*
G01*
G37*
G36*
G01*
X142651500Y-134315500D02*
X141901500Y-134315500D01*
G75*
G02*
X141814000Y-134228000I0J87500D01*
G01*
X141814000Y-134053000D01*
G75*
G02*
X141901500Y-133965500I87500J0D01*
G01*
X142651500Y-133965500D01*
G75*
G02*
X142739000Y-134053000I0J-87500D01*
G01*
X142739000Y-134228000D01*
G75*
G02*
X142651500Y-134315500I-87500J0D01*
G01*
G37*
G36*
G01*
X142651500Y-134815500D02*
X141901500Y-134815500D01*
G75*
G02*
X141814000Y-134728000I0J87500D01*
G01*
X141814000Y-134553000D01*
G75*
G02*
X141901500Y-134465500I87500J0D01*
G01*
X142651500Y-134465500D01*
G75*
G02*
X142739000Y-134553000I0J-87500D01*
G01*
X142739000Y-134728000D01*
G75*
G02*
X142651500Y-134815500I-87500J0D01*
G01*
G37*
G36*
G01*
X142651500Y-135315500D02*
X141901500Y-135315500D01*
G75*
G02*
X141814000Y-135228000I0J87500D01*
G01*
X141814000Y-135053000D01*
G75*
G02*
X141901500Y-134965500I87500J0D01*
G01*
X142651500Y-134965500D01*
G75*
G02*
X142739000Y-135053000I0J-87500D01*
G01*
X142739000Y-135228000D01*
G75*
G02*
X142651500Y-135315500I-87500J0D01*
G01*
G37*
G36*
G01*
X141676500Y-136290500D02*
X141501500Y-136290500D01*
G75*
G02*
X141414000Y-136203000I0J87500D01*
G01*
X141414000Y-135453000D01*
G75*
G02*
X141501500Y-135365500I87500J0D01*
G01*
X141676500Y-135365500D01*
G75*
G02*
X141764000Y-135453000I0J-87500D01*
G01*
X141764000Y-136203000D01*
G75*
G02*
X141676500Y-136290500I-87500J0D01*
G01*
G37*
G36*
G01*
X141176500Y-136290500D02*
X141001500Y-136290500D01*
G75*
G02*
X140914000Y-136203000I0J87500D01*
G01*
X140914000Y-135453000D01*
G75*
G02*
X141001500Y-135365500I87500J0D01*
G01*
X141176500Y-135365500D01*
G75*
G02*
X141264000Y-135453000I0J-87500D01*
G01*
X141264000Y-136203000D01*
G75*
G02*
X141176500Y-136290500I-87500J0D01*
G01*
G37*
G36*
G01*
X140676500Y-136290500D02*
X140501500Y-136290500D01*
G75*
G02*
X140414000Y-136203000I0J87500D01*
G01*
X140414000Y-135453000D01*
G75*
G02*
X140501500Y-135365500I87500J0D01*
G01*
X140676500Y-135365500D01*
G75*
G02*
X140764000Y-135453000I0J-87500D01*
G01*
X140764000Y-136203000D01*
G75*
G02*
X140676500Y-136290500I-87500J0D01*
G01*
G37*
G36*
G01*
X140176500Y-136290500D02*
X140001500Y-136290500D01*
G75*
G02*
X139914000Y-136203000I0J87500D01*
G01*
X139914000Y-135453000D01*
G75*
G02*
X140001500Y-135365500I87500J0D01*
G01*
X140176500Y-135365500D01*
G75*
G02*
X140264000Y-135453000I0J-87500D01*
G01*
X140264000Y-136203000D01*
G75*
G02*
X140176500Y-136290500I-87500J0D01*
G01*
G37*
G36*
G01*
X139676500Y-136290500D02*
X139501500Y-136290500D01*
G75*
G02*
X139414000Y-136203000I0J87500D01*
G01*
X139414000Y-135453000D01*
G75*
G02*
X139501500Y-135365500I87500J0D01*
G01*
X139676500Y-135365500D01*
G75*
G02*
X139764000Y-135453000I0J-87500D01*
G01*
X139764000Y-136203000D01*
G75*
G02*
X139676500Y-136290500I-87500J0D01*
G01*
G37*
G36*
G01*
X139176500Y-136290500D02*
X139001500Y-136290500D01*
G75*
G02*
X138914000Y-136203000I0J87500D01*
G01*
X138914000Y-135453000D01*
G75*
G02*
X139001500Y-135365500I87500J0D01*
G01*
X139176500Y-135365500D01*
G75*
G02*
X139264000Y-135453000I0J-87500D01*
G01*
X139264000Y-136203000D01*
G75*
G02*
X139176500Y-136290500I-87500J0D01*
G01*
G37*
%TD*%
%TO.C,R6*%
G36*
G01*
X126646250Y-133304000D02*
X126083750Y-133304000D01*
G75*
G02*
X125840000Y-133060250I0J243750D01*
G01*
X125840000Y-132572750D01*
G75*
G02*
X126083750Y-132329000I243750J0D01*
G01*
X126646250Y-132329000D01*
G75*
G02*
X126890000Y-132572750I0J-243750D01*
G01*
X126890000Y-133060250D01*
G75*
G02*
X126646250Y-133304000I-243750J0D01*
G01*
G37*
G36*
G01*
X126646250Y-134879000D02*
X126083750Y-134879000D01*
G75*
G02*
X125840000Y-134635250I0J243750D01*
G01*
X125840000Y-134147750D01*
G75*
G02*
X126083750Y-133904000I243750J0D01*
G01*
X126646250Y-133904000D01*
G75*
G02*
X126890000Y-134147750I0J-243750D01*
G01*
X126890000Y-134635250D01*
G75*
G02*
X126646250Y-134879000I-243750J0D01*
G01*
G37*
%TD*%
%TO.C,R5*%
G36*
G01*
X132488250Y-133304000D02*
X131925750Y-133304000D01*
G75*
G02*
X131682000Y-133060250I0J243750D01*
G01*
X131682000Y-132572750D01*
G75*
G02*
X131925750Y-132329000I243750J0D01*
G01*
X132488250Y-132329000D01*
G75*
G02*
X132732000Y-132572750I0J-243750D01*
G01*
X132732000Y-133060250D01*
G75*
G02*
X132488250Y-133304000I-243750J0D01*
G01*
G37*
G36*
G01*
X132488250Y-134879000D02*
X131925750Y-134879000D01*
G75*
G02*
X131682000Y-134635250I0J243750D01*
G01*
X131682000Y-134147750D01*
G75*
G02*
X131925750Y-133904000I243750J0D01*
G01*
X132488250Y-133904000D01*
G75*
G02*
X132732000Y-134147750I0J-243750D01*
G01*
X132732000Y-134635250D01*
G75*
G02*
X132488250Y-134879000I-243750J0D01*
G01*
G37*
%TD*%
%TO.C,R1*%
G36*
G01*
X135174000Y-135374250D02*
X135174000Y-134811750D01*
G75*
G02*
X135417750Y-134568000I243750J0D01*
G01*
X135905250Y-134568000D01*
G75*
G02*
X136149000Y-134811750I0J-243750D01*
G01*
X136149000Y-135374250D01*
G75*
G02*
X135905250Y-135618000I-243750J0D01*
G01*
X135417750Y-135618000D01*
G75*
G02*
X135174000Y-135374250I0J243750D01*
G01*
G37*
G36*
G01*
X133599000Y-135374250D02*
X133599000Y-134811750D01*
G75*
G02*
X133842750Y-134568000I243750J0D01*
G01*
X134330250Y-134568000D01*
G75*
G02*
X134574000Y-134811750I0J-243750D01*
G01*
X134574000Y-135374250D01*
G75*
G02*
X134330250Y-135618000I-243750J0D01*
G01*
X133842750Y-135618000D01*
G75*
G02*
X133599000Y-135374250I0J243750D01*
G01*
G37*
%TD*%
%TO.C,C2*%
G36*
G01*
X134574000Y-132306750D02*
X134574000Y-132869250D01*
G75*
G02*
X134330250Y-133113000I-243750J0D01*
G01*
X133842750Y-133113000D01*
G75*
G02*
X133599000Y-132869250I0J243750D01*
G01*
X133599000Y-132306750D01*
G75*
G02*
X133842750Y-132063000I243750J0D01*
G01*
X134330250Y-132063000D01*
G75*
G02*
X134574000Y-132306750I0J-243750D01*
G01*
G37*
G36*
G01*
X136149000Y-132306750D02*
X136149000Y-132869250D01*
G75*
G02*
X135905250Y-133113000I-243750J0D01*
G01*
X135417750Y-133113000D01*
G75*
G02*
X135174000Y-132869250I0J243750D01*
G01*
X135174000Y-132306750D01*
G75*
G02*
X135417750Y-132063000I243750J0D01*
G01*
X135905250Y-132063000D01*
G75*
G02*
X136149000Y-132306750I0J-243750D01*
G01*
G37*
%TD*%
%TO.C,C1*%
G36*
G01*
X144299250Y-131780000D02*
X143736750Y-131780000D01*
G75*
G02*
X143493000Y-131536250I0J243750D01*
G01*
X143493000Y-131048750D01*
G75*
G02*
X143736750Y-130805000I243750J0D01*
G01*
X144299250Y-130805000D01*
G75*
G02*
X144543000Y-131048750I0J-243750D01*
G01*
X144543000Y-131536250D01*
G75*
G02*
X144299250Y-131780000I-243750J0D01*
G01*
G37*
G36*
G01*
X144299250Y-133355000D02*
X143736750Y-133355000D01*
G75*
G02*
X143493000Y-133111250I0J243750D01*
G01*
X143493000Y-132623750D01*
G75*
G02*
X143736750Y-132380000I243750J0D01*
G01*
X144299250Y-132380000D01*
G75*
G02*
X144543000Y-132623750I0J-243750D01*
G01*
X144543000Y-133111250D01*
G75*
G02*
X144299250Y-133355000I-243750J0D01*
G01*
G37*
%TD*%
%TO.C,C7*%
G36*
G01*
X148109250Y-131780000D02*
X147546750Y-131780000D01*
G75*
G02*
X147303000Y-131536250I0J243750D01*
G01*
X147303000Y-131048750D01*
G75*
G02*
X147546750Y-130805000I243750J0D01*
G01*
X148109250Y-130805000D01*
G75*
G02*
X148353000Y-131048750I0J-243750D01*
G01*
X148353000Y-131536250D01*
G75*
G02*
X148109250Y-131780000I-243750J0D01*
G01*
G37*
G36*
G01*
X148109250Y-133355000D02*
X147546750Y-133355000D01*
G75*
G02*
X147303000Y-133111250I0J243750D01*
G01*
X147303000Y-132623750D01*
G75*
G02*
X147546750Y-132380000I243750J0D01*
G01*
X148109250Y-132380000D01*
G75*
G02*
X148353000Y-132623750I0J-243750D01*
G01*
X148353000Y-133111250D01*
G75*
G02*
X148109250Y-133355000I-243750J0D01*
G01*
G37*
%TD*%
%TO.C,C6*%
G36*
G01*
X146204250Y-131780000D02*
X145641750Y-131780000D01*
G75*
G02*
X145398000Y-131536250I0J243750D01*
G01*
X145398000Y-131048750D01*
G75*
G02*
X145641750Y-130805000I243750J0D01*
G01*
X146204250Y-130805000D01*
G75*
G02*
X146448000Y-131048750I0J-243750D01*
G01*
X146448000Y-131536250D01*
G75*
G02*
X146204250Y-131780000I-243750J0D01*
G01*
G37*
G36*
G01*
X146204250Y-133355000D02*
X145641750Y-133355000D01*
G75*
G02*
X145398000Y-133111250I0J243750D01*
G01*
X145398000Y-132623750D01*
G75*
G02*
X145641750Y-132380000I243750J0D01*
G01*
X146204250Y-132380000D01*
G75*
G02*
X146448000Y-132623750I0J-243750D01*
G01*
X146448000Y-133111250D01*
G75*
G02*
X146204250Y-133355000I-243750J0D01*
G01*
G37*
%TD*%
%TO.C,C5*%
G36*
G01*
X154960500Y-133123250D02*
X154960500Y-132560750D01*
G75*
G02*
X155204250Y-132317000I243750J0D01*
G01*
X155691750Y-132317000D01*
G75*
G02*
X155935500Y-132560750I0J-243750D01*
G01*
X155935500Y-133123250D01*
G75*
G02*
X155691750Y-133367000I-243750J0D01*
G01*
X155204250Y-133367000D01*
G75*
G02*
X154960500Y-133123250I0J243750D01*
G01*
G37*
G36*
G01*
X153385500Y-133123250D02*
X153385500Y-132560750D01*
G75*
G02*
X153629250Y-132317000I243750J0D01*
G01*
X154116750Y-132317000D01*
G75*
G02*
X154360500Y-132560750I0J-243750D01*
G01*
X154360500Y-133123250D01*
G75*
G02*
X154116750Y-133367000I-243750J0D01*
G01*
X153629250Y-133367000D01*
G75*
G02*
X153385500Y-133123250I0J243750D01*
G01*
G37*
%TD*%
%TO.C,C4*%
G36*
G01*
X154986000Y-135282250D02*
X154986000Y-134719750D01*
G75*
G02*
X155229750Y-134476000I243750J0D01*
G01*
X155717250Y-134476000D01*
G75*
G02*
X155961000Y-134719750I0J-243750D01*
G01*
X155961000Y-135282250D01*
G75*
G02*
X155717250Y-135526000I-243750J0D01*
G01*
X155229750Y-135526000D01*
G75*
G02*
X154986000Y-135282250I0J243750D01*
G01*
G37*
G36*
G01*
X153411000Y-135282250D02*
X153411000Y-134719750D01*
G75*
G02*
X153654750Y-134476000I243750J0D01*
G01*
X154142250Y-134476000D01*
G75*
G02*
X154386000Y-134719750I0J-243750D01*
G01*
X154386000Y-135282250D01*
G75*
G02*
X154142250Y-135526000I-243750J0D01*
G01*
X153654750Y-135526000D01*
G75*
G02*
X153411000Y-135282250I0J243750D01*
G01*
G37*
%TD*%
M02*
