%TF.GenerationSoftware,KiCad,Pcbnew,(5.1.6-0-10_14)*%
%TF.CreationDate,2020-09-06T23:56:44+02:00*%
%TF.ProjectId,USBCWrover,55534243-5772-46f7-9665-722e6b696361,rev?*%
%TF.SameCoordinates,Original*%
%TF.FileFunction,Legend,Bot*%
%TF.FilePolarity,Positive*%
%FSLAX46Y46*%
G04 Gerber Fmt 4.6, Leading zero omitted, Abs format (unit mm)*
G04 Created by KiCad (PCBNEW (5.1.6-0-10_14)) date 2020-09-06 23:56:44*
%MOMM*%
%LPD*%
G01*
G04 APERTURE LIST*
%ADD10C,0.300000*%
%ADD11C,0.150000*%
%ADD12C,0.120000*%
G04 APERTURE END LIST*
D10*
X148760714Y-145966571D02*
X149260714Y-145252285D01*
X149617857Y-145966571D02*
X149617857Y-144466571D01*
X149046428Y-144466571D01*
X148903571Y-144538000D01*
X148832142Y-144609428D01*
X148760714Y-144752285D01*
X148760714Y-144966571D01*
X148832142Y-145109428D01*
X148903571Y-145180857D01*
X149046428Y-145252285D01*
X149617857Y-145252285D01*
D11*
X148851904Y-141295380D02*
X148851904Y-140295380D01*
X148280476Y-141295380D02*
X148709047Y-140723952D01*
X148280476Y-140295380D02*
X148851904Y-140866809D01*
X155051095Y-141009666D02*
X154574904Y-141009666D01*
X155146333Y-141295380D02*
X154813000Y-140295380D01*
X154479666Y-141295380D01*
X153058476Y-137510780D02*
X153058476Y-136844114D01*
X153058476Y-137034590D02*
X153010857Y-136939352D01*
X152963238Y-136891733D01*
X152868000Y-136844114D01*
X152772761Y-136844114D01*
X152058476Y-137463161D02*
X152153714Y-137510780D01*
X152344190Y-137510780D01*
X152439428Y-137463161D01*
X152487047Y-137367923D01*
X152487047Y-136986971D01*
X152439428Y-136891733D01*
X152344190Y-136844114D01*
X152153714Y-136844114D01*
X152058476Y-136891733D01*
X152010857Y-136986971D01*
X152010857Y-137082209D01*
X152487047Y-137177447D01*
X151677523Y-136844114D02*
X151439428Y-137510780D01*
X151201333Y-136844114D01*
X150439428Y-137463161D02*
X150534666Y-137510780D01*
X150725142Y-137510780D01*
X150820380Y-137463161D01*
X150868000Y-137367923D01*
X150868000Y-136986971D01*
X150820380Y-136891733D01*
X150725142Y-136844114D01*
X150534666Y-136844114D01*
X150439428Y-136891733D01*
X150391809Y-136986971D01*
X150391809Y-137082209D01*
X150868000Y-137177447D01*
X149963238Y-137510780D02*
X149963238Y-136844114D01*
X149963238Y-137034590D02*
X149915619Y-136939352D01*
X149868000Y-136891733D01*
X149772761Y-136844114D01*
X149677523Y-136844114D01*
X149391809Y-137463161D02*
X149296571Y-137510780D01*
X149106095Y-137510780D01*
X149010857Y-137463161D01*
X148963238Y-137367923D01*
X148963238Y-137320304D01*
X149010857Y-137225066D01*
X149106095Y-137177447D01*
X149248952Y-137177447D01*
X149344190Y-137129828D01*
X149391809Y-137034590D01*
X149391809Y-136986971D01*
X149344190Y-136891733D01*
X149248952Y-136844114D01*
X149106095Y-136844114D01*
X149010857Y-136891733D01*
X148153714Y-137463161D02*
X148248952Y-137510780D01*
X148439428Y-137510780D01*
X148534666Y-137463161D01*
X148582285Y-137367923D01*
X148582285Y-136986971D01*
X148534666Y-136891733D01*
X148439428Y-136844114D01*
X148248952Y-136844114D01*
X148153714Y-136891733D01*
X148106095Y-136986971D01*
X148106095Y-137082209D01*
X148582285Y-137177447D01*
X147677523Y-137415542D02*
X147629904Y-137463161D01*
X147677523Y-137510780D01*
X147725142Y-137463161D01*
X147677523Y-137415542D01*
X147677523Y-137510780D01*
X147677523Y-137129828D02*
X147725142Y-136558400D01*
X147677523Y-136510780D01*
X147629904Y-136558400D01*
X147677523Y-137129828D01*
X147677523Y-136510780D01*
D12*
X150622000Y-121640600D02*
X150622000Y-126949200D01*
X147193000Y-121640600D02*
X150622000Y-121640600D01*
X147193000Y-124244100D02*
X147193000Y-121640600D01*
X143319500Y-124244100D02*
X147193000Y-124244100D01*
X143319500Y-126949200D02*
X143319500Y-124244100D01*
X150622000Y-126949200D02*
X143319500Y-126949200D01*
X131305300Y-121818400D02*
X131305300Y-126949200D01*
X135432800Y-121818400D02*
X131305300Y-121818400D01*
X135445500Y-124294900D02*
X135445500Y-121818400D01*
X139649200Y-124294900D02*
X135445500Y-124294900D01*
X139700000Y-126949200D02*
X139700000Y-124294900D01*
X131318000Y-126949200D02*
X139700000Y-126949200D01*
D11*
X146568461Y-104341409D02*
X145997033Y-104341409D01*
X146282747Y-105941409D02*
X146282747Y-104341409D01*
X145758938Y-104341409D02*
X145092271Y-105941409D01*
X145092271Y-104341409D02*
X145758938Y-105941409D01*
X144711319Y-105941409D02*
X144711319Y-104341409D01*
X144473223Y-104341409D01*
X144330366Y-104417600D01*
X144235128Y-104569980D01*
X144187509Y-104722361D01*
X144139890Y-105027123D01*
X144139890Y-105255695D01*
X144187509Y-105560457D01*
X144235128Y-105712838D01*
X144330366Y-105865219D01*
X144473223Y-105941409D01*
X144711319Y-105941409D01*
X145854176Y-108491409D02*
X146187509Y-107729504D01*
X146425604Y-108491409D02*
X146425604Y-106891409D01*
X146044652Y-106891409D01*
X145949414Y-106967600D01*
X145901795Y-107043790D01*
X145854176Y-107196171D01*
X145854176Y-107424742D01*
X145901795Y-107577123D01*
X145949414Y-107653314D01*
X146044652Y-107729504D01*
X146425604Y-107729504D01*
X145520842Y-106891409D02*
X144854176Y-108491409D01*
X144854176Y-106891409D02*
X145520842Y-108491409D01*
X144473223Y-108491409D02*
X144473223Y-106891409D01*
X144235128Y-106891409D01*
X144092271Y-106967600D01*
X143997033Y-107119980D01*
X143949414Y-107272361D01*
X143901795Y-107577123D01*
X143901795Y-107805695D01*
X143949414Y-108110457D01*
X143997033Y-108262838D01*
X144092271Y-108415219D01*
X144235128Y-108491409D01*
X144473223Y-108491409D01*
X146425604Y-111041409D02*
X146425604Y-109441409D01*
X145758938Y-109441409D02*
X145568461Y-109441409D01*
X145473223Y-109517600D01*
X145377985Y-109669980D01*
X145330366Y-109974742D01*
X145330366Y-110508076D01*
X145377985Y-110812838D01*
X145473223Y-110965219D01*
X145568461Y-111041409D01*
X145758938Y-111041409D01*
X145854176Y-110965219D01*
X145949414Y-110812838D01*
X145997033Y-110508076D01*
X145997033Y-109974742D01*
X145949414Y-109669980D01*
X145854176Y-109517600D01*
X145758938Y-109441409D01*
X144949414Y-109593790D02*
X144901795Y-109517600D01*
X144806557Y-109441409D01*
X144568461Y-109441409D01*
X144473223Y-109517600D01*
X144425604Y-109593790D01*
X144377985Y-109746171D01*
X144377985Y-109898552D01*
X144425604Y-110127123D01*
X144997033Y-111041409D01*
X144377985Y-111041409D01*
X143997033Y-109593790D02*
X143949414Y-109517600D01*
X143854176Y-109441409D01*
X143616080Y-109441409D01*
X143520842Y-109517600D01*
X143473223Y-109593790D01*
X143425604Y-109746171D01*
X143425604Y-109898552D01*
X143473223Y-110127123D01*
X144044652Y-111041409D01*
X143425604Y-111041409D01*
X146425604Y-113591409D02*
X146425604Y-111991409D01*
X145758938Y-111991409D02*
X145568461Y-111991409D01*
X145473223Y-112067600D01*
X145377985Y-112219980D01*
X145330366Y-112524742D01*
X145330366Y-113058076D01*
X145377985Y-113362838D01*
X145473223Y-113515219D01*
X145568461Y-113591409D01*
X145758938Y-113591409D01*
X145854176Y-113515219D01*
X145949414Y-113362838D01*
X145997033Y-113058076D01*
X145997033Y-112524742D01*
X145949414Y-112219980D01*
X145854176Y-112067600D01*
X145758938Y-111991409D01*
X144949414Y-112143790D02*
X144901795Y-112067600D01*
X144806557Y-111991409D01*
X144568461Y-111991409D01*
X144473223Y-112067600D01*
X144425604Y-112143790D01*
X144377985Y-112296171D01*
X144377985Y-112448552D01*
X144425604Y-112677123D01*
X144997033Y-113591409D01*
X144377985Y-113591409D01*
X143425604Y-113591409D02*
X143997033Y-113591409D01*
X143711319Y-113591409D02*
X143711319Y-111991409D01*
X143806557Y-112219980D01*
X143901795Y-112372361D01*
X143997033Y-112448552D01*
X146425604Y-116141409D02*
X146425604Y-114541409D01*
X145854176Y-116141409D01*
X145854176Y-114541409D01*
X144806557Y-115989028D02*
X144854176Y-116065219D01*
X144997033Y-116141409D01*
X145092271Y-116141409D01*
X145235128Y-116065219D01*
X145330366Y-115912838D01*
X145377985Y-115760457D01*
X145425604Y-115455695D01*
X145425604Y-115227123D01*
X145377985Y-114922361D01*
X145330366Y-114769980D01*
X145235128Y-114617600D01*
X145092271Y-114541409D01*
X144997033Y-114541409D01*
X144854176Y-114617600D01*
X144806557Y-114693790D01*
X146425604Y-118691409D02*
X146425604Y-117091409D01*
X145854176Y-118691409D01*
X145854176Y-117091409D01*
X144806557Y-118539028D02*
X144854176Y-118615219D01*
X144997033Y-118691409D01*
X145092271Y-118691409D01*
X145235128Y-118615219D01*
X145330366Y-118462838D01*
X145377985Y-118310457D01*
X145425604Y-118005695D01*
X145425604Y-117777123D01*
X145377985Y-117472361D01*
X145330366Y-117319980D01*
X145235128Y-117167600D01*
X145092271Y-117091409D01*
X144997033Y-117091409D01*
X144854176Y-117167600D01*
X144806557Y-117243790D01*
X145901795Y-119717600D02*
X145997033Y-119641409D01*
X146139890Y-119641409D01*
X146282747Y-119717600D01*
X146377985Y-119869980D01*
X146425604Y-120022361D01*
X146473223Y-120327123D01*
X146473223Y-120555695D01*
X146425604Y-120860457D01*
X146377985Y-121012838D01*
X146282747Y-121165219D01*
X146139890Y-121241409D01*
X146044652Y-121241409D01*
X145901795Y-121165219D01*
X145854176Y-121089028D01*
X145854176Y-120555695D01*
X146044652Y-120555695D01*
X145425604Y-121241409D02*
X145425604Y-119641409D01*
X144854176Y-121241409D01*
X144854176Y-119641409D01*
X144377985Y-121241409D02*
X144377985Y-119641409D01*
X144139890Y-119641409D01*
X143997033Y-119717600D01*
X143901795Y-119869980D01*
X143854176Y-120022361D01*
X143806557Y-120327123D01*
X143806557Y-120555695D01*
X143854176Y-120860457D01*
X143901795Y-121012838D01*
X143997033Y-121165219D01*
X144139890Y-121241409D01*
X144377985Y-121241409D01*
X145949414Y-122191409D02*
X146425604Y-122191409D01*
X146473223Y-122953314D01*
X146425604Y-122877123D01*
X146330366Y-122800933D01*
X146092271Y-122800933D01*
X145997033Y-122877123D01*
X145949414Y-122953314D01*
X145901795Y-123105695D01*
X145901795Y-123486647D01*
X145949414Y-123639028D01*
X145997033Y-123715219D01*
X146092271Y-123791409D01*
X146330366Y-123791409D01*
X146425604Y-123715219D01*
X146473223Y-123639028D01*
X145616080Y-122191409D02*
X145282747Y-123791409D01*
X144949414Y-122191409D01*
X146425604Y-126341409D02*
X146425604Y-124741409D01*
X145758938Y-124741409D02*
X145568461Y-124741409D01*
X145473223Y-124817600D01*
X145377985Y-124969980D01*
X145330366Y-125274742D01*
X145330366Y-125808076D01*
X145377985Y-126112838D01*
X145473223Y-126265219D01*
X145568461Y-126341409D01*
X145758938Y-126341409D01*
X145854176Y-126265219D01*
X145949414Y-126112838D01*
X145997033Y-125808076D01*
X145997033Y-125274742D01*
X145949414Y-124969980D01*
X145854176Y-124817600D01*
X145758938Y-124741409D01*
X144377985Y-126341409D02*
X144949414Y-126341409D01*
X144663700Y-126341409D02*
X144663700Y-124741409D01*
X144758938Y-124969980D01*
X144854176Y-125122361D01*
X144949414Y-125198552D01*
X143473223Y-124741409D02*
X143949414Y-124741409D01*
X143997033Y-125503314D01*
X143949414Y-125427123D01*
X143854176Y-125350933D01*
X143616080Y-125350933D01*
X143520842Y-125427123D01*
X143473223Y-125503314D01*
X143425604Y-125655695D01*
X143425604Y-126036647D01*
X143473223Y-126189028D01*
X143520842Y-126265219D01*
X143616080Y-126341409D01*
X143854176Y-126341409D01*
X143949414Y-126265219D01*
X143997033Y-126189028D01*
X149508595Y-104468400D02*
X149603833Y-104392209D01*
X149746690Y-104392209D01*
X149889547Y-104468400D01*
X149984785Y-104620780D01*
X150032404Y-104773161D01*
X150080023Y-105077923D01*
X150080023Y-105306495D01*
X150032404Y-105611257D01*
X149984785Y-105763638D01*
X149889547Y-105916019D01*
X149746690Y-105992209D01*
X149651452Y-105992209D01*
X149508595Y-105916019D01*
X149460976Y-105839828D01*
X149460976Y-105306495D01*
X149651452Y-105306495D01*
X149032404Y-105992209D02*
X149032404Y-104392209D01*
X148460976Y-105992209D01*
X148460976Y-104392209D01*
X147984785Y-105992209D02*
X147984785Y-104392209D01*
X147746690Y-104392209D01*
X147603833Y-104468400D01*
X147508595Y-104620780D01*
X147460976Y-104773161D01*
X147413357Y-105077923D01*
X147413357Y-105306495D01*
X147460976Y-105611257D01*
X147508595Y-105763638D01*
X147603833Y-105916019D01*
X147746690Y-105992209D01*
X147984785Y-105992209D01*
X150032404Y-108542209D02*
X150032404Y-106942209D01*
X149365738Y-106942209D02*
X149175261Y-106942209D01*
X149080023Y-107018400D01*
X148984785Y-107170780D01*
X148937166Y-107475542D01*
X148937166Y-108008876D01*
X148984785Y-108313638D01*
X149080023Y-108466019D01*
X149175261Y-108542209D01*
X149365738Y-108542209D01*
X149460976Y-108466019D01*
X149556214Y-108313638D01*
X149603833Y-108008876D01*
X149603833Y-107475542D01*
X149556214Y-107170780D01*
X149460976Y-107018400D01*
X149365738Y-106942209D01*
X148556214Y-107094590D02*
X148508595Y-107018400D01*
X148413357Y-106942209D01*
X148175261Y-106942209D01*
X148080023Y-107018400D01*
X148032404Y-107094590D01*
X147984785Y-107246971D01*
X147984785Y-107399352D01*
X148032404Y-107627923D01*
X148603833Y-108542209D01*
X147984785Y-108542209D01*
X147651452Y-106942209D02*
X146984785Y-106942209D01*
X147413357Y-108542209D01*
X150032404Y-111092209D02*
X150032404Y-109492209D01*
X149365738Y-109492209D02*
X149175261Y-109492209D01*
X149080023Y-109568400D01*
X148984785Y-109720780D01*
X148937166Y-110025542D01*
X148937166Y-110558876D01*
X148984785Y-110863638D01*
X149080023Y-111016019D01*
X149175261Y-111092209D01*
X149365738Y-111092209D01*
X149460976Y-111016019D01*
X149556214Y-110863638D01*
X149603833Y-110558876D01*
X149603833Y-110025542D01*
X149556214Y-109720780D01*
X149460976Y-109568400D01*
X149365738Y-109492209D01*
X148556214Y-109644590D02*
X148508595Y-109568400D01*
X148413357Y-109492209D01*
X148175261Y-109492209D01*
X148080023Y-109568400D01*
X148032404Y-109644590D01*
X147984785Y-109796971D01*
X147984785Y-109949352D01*
X148032404Y-110177923D01*
X148603833Y-111092209D01*
X147984785Y-111092209D01*
X147080023Y-109492209D02*
X147556214Y-109492209D01*
X147603833Y-110254114D01*
X147556214Y-110177923D01*
X147460976Y-110101733D01*
X147222880Y-110101733D01*
X147127642Y-110177923D01*
X147080023Y-110254114D01*
X147032404Y-110406495D01*
X147032404Y-110787447D01*
X147080023Y-110939828D01*
X147127642Y-111016019D01*
X147222880Y-111092209D01*
X147460976Y-111092209D01*
X147556214Y-111016019D01*
X147603833Y-110939828D01*
X150032404Y-113642209D02*
X150032404Y-112042209D01*
X149365738Y-112042209D02*
X149175261Y-112042209D01*
X149080023Y-112118400D01*
X148984785Y-112270780D01*
X148937166Y-112575542D01*
X148937166Y-113108876D01*
X148984785Y-113413638D01*
X149080023Y-113566019D01*
X149175261Y-113642209D01*
X149365738Y-113642209D01*
X149460976Y-113566019D01*
X149556214Y-113413638D01*
X149603833Y-113108876D01*
X149603833Y-112575542D01*
X149556214Y-112270780D01*
X149460976Y-112118400D01*
X149365738Y-112042209D01*
X148603833Y-112042209D02*
X147984785Y-112042209D01*
X148318119Y-112651733D01*
X148175261Y-112651733D01*
X148080023Y-112727923D01*
X148032404Y-112804114D01*
X147984785Y-112956495D01*
X147984785Y-113337447D01*
X148032404Y-113489828D01*
X148080023Y-113566019D01*
X148175261Y-113642209D01*
X148460976Y-113642209D01*
X148556214Y-113566019D01*
X148603833Y-113489828D01*
X147603833Y-112194590D02*
X147556214Y-112118400D01*
X147460976Y-112042209D01*
X147222880Y-112042209D01*
X147127642Y-112118400D01*
X147080023Y-112194590D01*
X147032404Y-112346971D01*
X147032404Y-112499352D01*
X147080023Y-112727923D01*
X147651452Y-113642209D01*
X147032404Y-113642209D01*
X150032404Y-116192209D02*
X150032404Y-114592209D01*
X149365738Y-114592209D02*
X149175261Y-114592209D01*
X149080023Y-114668400D01*
X148984785Y-114820780D01*
X148937166Y-115125542D01*
X148937166Y-115658876D01*
X148984785Y-115963638D01*
X149080023Y-116116019D01*
X149175261Y-116192209D01*
X149365738Y-116192209D01*
X149460976Y-116116019D01*
X149556214Y-115963638D01*
X149603833Y-115658876D01*
X149603833Y-115125542D01*
X149556214Y-114820780D01*
X149460976Y-114668400D01*
X149365738Y-114592209D01*
X147984785Y-116192209D02*
X148556214Y-116192209D01*
X148270500Y-116192209D02*
X148270500Y-114592209D01*
X148365738Y-114820780D01*
X148460976Y-114973161D01*
X148556214Y-115049352D01*
X147603833Y-114744590D02*
X147556214Y-114668400D01*
X147460976Y-114592209D01*
X147222880Y-114592209D01*
X147127642Y-114668400D01*
X147080023Y-114744590D01*
X147032404Y-114896971D01*
X147032404Y-115049352D01*
X147080023Y-115277923D01*
X147651452Y-116192209D01*
X147032404Y-116192209D01*
X150032404Y-118742209D02*
X150032404Y-117142209D01*
X149365738Y-117142209D02*
X149175261Y-117142209D01*
X149080023Y-117218400D01*
X148984785Y-117370780D01*
X148937166Y-117675542D01*
X148937166Y-118208876D01*
X148984785Y-118513638D01*
X149080023Y-118666019D01*
X149175261Y-118742209D01*
X149365738Y-118742209D01*
X149460976Y-118666019D01*
X149556214Y-118513638D01*
X149603833Y-118208876D01*
X149603833Y-117675542D01*
X149556214Y-117370780D01*
X149460976Y-117218400D01*
X149365738Y-117142209D01*
X148080023Y-117675542D02*
X148080023Y-118742209D01*
X148318119Y-117066019D02*
X148556214Y-118208876D01*
X147937166Y-118208876D01*
X150032404Y-121292209D02*
X150032404Y-119692209D01*
X149365738Y-119692209D02*
X149175261Y-119692209D01*
X149080023Y-119768400D01*
X148984785Y-119920780D01*
X148937166Y-120225542D01*
X148937166Y-120758876D01*
X148984785Y-121063638D01*
X149080023Y-121216019D01*
X149175261Y-121292209D01*
X149365738Y-121292209D01*
X149460976Y-121216019D01*
X149556214Y-121063638D01*
X149603833Y-120758876D01*
X149603833Y-120225542D01*
X149556214Y-119920780D01*
X149460976Y-119768400D01*
X149365738Y-119692209D01*
X148318119Y-119692209D02*
X148222880Y-119692209D01*
X148127642Y-119768400D01*
X148080023Y-119844590D01*
X148032404Y-119996971D01*
X147984785Y-120301733D01*
X147984785Y-120682685D01*
X148032404Y-120987447D01*
X148080023Y-121139828D01*
X148127642Y-121216019D01*
X148222880Y-121292209D01*
X148318119Y-121292209D01*
X148413357Y-121216019D01*
X148460976Y-121139828D01*
X148508595Y-120987447D01*
X148556214Y-120682685D01*
X148556214Y-120301733D01*
X148508595Y-119996971D01*
X148460976Y-119844590D01*
X148413357Y-119768400D01*
X148318119Y-119692209D01*
X150032404Y-123842209D02*
X150032404Y-122242209D01*
X149365738Y-122242209D02*
X149175261Y-122242209D01*
X149080023Y-122318400D01*
X148984785Y-122470780D01*
X148937166Y-122775542D01*
X148937166Y-123308876D01*
X148984785Y-123613638D01*
X149080023Y-123766019D01*
X149175261Y-123842209D01*
X149365738Y-123842209D01*
X149460976Y-123766019D01*
X149556214Y-123613638D01*
X149603833Y-123308876D01*
X149603833Y-122775542D01*
X149556214Y-122470780D01*
X149460976Y-122318400D01*
X149365738Y-122242209D01*
X148556214Y-122394590D02*
X148508595Y-122318400D01*
X148413357Y-122242209D01*
X148175261Y-122242209D01*
X148080023Y-122318400D01*
X148032404Y-122394590D01*
X147984785Y-122546971D01*
X147984785Y-122699352D01*
X148032404Y-122927923D01*
X148603833Y-123842209D01*
X147984785Y-123842209D01*
X150032404Y-126392209D02*
X150032404Y-124792209D01*
X149460976Y-126392209D01*
X149460976Y-124792209D01*
X148413357Y-126239828D02*
X148460976Y-126316019D01*
X148603833Y-126392209D01*
X148699071Y-126392209D01*
X148841928Y-126316019D01*
X148937166Y-126163638D01*
X148984785Y-126011257D01*
X149032404Y-125706495D01*
X149032404Y-125477923D01*
X148984785Y-125173161D01*
X148937166Y-125020780D01*
X148841928Y-124868400D01*
X148699071Y-124792209D01*
X148603833Y-124792209D01*
X148460976Y-124868400D01*
X148413357Y-124944590D01*
X133760595Y-104620800D02*
X133855833Y-104544609D01*
X133998690Y-104544609D01*
X134141547Y-104620800D01*
X134236785Y-104773180D01*
X134284404Y-104925561D01*
X134332023Y-105230323D01*
X134332023Y-105458895D01*
X134284404Y-105763657D01*
X134236785Y-105916038D01*
X134141547Y-106068419D01*
X133998690Y-106144609D01*
X133903452Y-106144609D01*
X133760595Y-106068419D01*
X133712976Y-105992228D01*
X133712976Y-105458895D01*
X133903452Y-105458895D01*
X133284404Y-106144609D02*
X133284404Y-104544609D01*
X132712976Y-106144609D01*
X132712976Y-104544609D01*
X132236785Y-106144609D02*
X132236785Y-104544609D01*
X131998690Y-104544609D01*
X131855833Y-104620800D01*
X131760595Y-104773180D01*
X131712976Y-104925561D01*
X131665357Y-105230323D01*
X131665357Y-105458895D01*
X131712976Y-105763657D01*
X131760595Y-105916038D01*
X131855833Y-106068419D01*
X131998690Y-106144609D01*
X132236785Y-106144609D01*
X134284404Y-108694609D02*
X134284404Y-107094609D01*
X133712976Y-108694609D01*
X133712976Y-107094609D01*
X132665357Y-108542228D02*
X132712976Y-108618419D01*
X132855833Y-108694609D01*
X132951071Y-108694609D01*
X133093928Y-108618419D01*
X133189166Y-108466038D01*
X133236785Y-108313657D01*
X133284404Y-108008895D01*
X133284404Y-107780323D01*
X133236785Y-107475561D01*
X133189166Y-107323180D01*
X133093928Y-107170800D01*
X132951071Y-107094609D01*
X132855833Y-107094609D01*
X132712976Y-107170800D01*
X132665357Y-107246990D01*
X134284404Y-111244609D02*
X134284404Y-109644609D01*
X133141547Y-109644609D02*
X132522500Y-109644609D01*
X132855833Y-110254133D01*
X132712976Y-110254133D01*
X132617738Y-110330323D01*
X132570119Y-110406514D01*
X132522500Y-110558895D01*
X132522500Y-110939847D01*
X132570119Y-111092228D01*
X132617738Y-111168419D01*
X132712976Y-111244609D01*
X132998690Y-111244609D01*
X133093928Y-111168419D01*
X133141547Y-111092228D01*
X132046309Y-111244609D02*
X131855833Y-111244609D01*
X131760595Y-111168419D01*
X131712976Y-111092228D01*
X131617738Y-110863657D01*
X131570119Y-110558895D01*
X131570119Y-109949371D01*
X131617738Y-109796990D01*
X131665357Y-109720800D01*
X131760595Y-109644609D01*
X131951071Y-109644609D01*
X132046309Y-109720800D01*
X132093928Y-109796990D01*
X132141547Y-109949371D01*
X132141547Y-110330323D01*
X132093928Y-110482704D01*
X132046309Y-110558895D01*
X131951071Y-110635085D01*
X131760595Y-110635085D01*
X131665357Y-110558895D01*
X131617738Y-110482704D01*
X131570119Y-110330323D01*
X134284404Y-113794609D02*
X134284404Y-112194609D01*
X133141547Y-112194609D02*
X132522500Y-112194609D01*
X132855833Y-112804133D01*
X132712976Y-112804133D01*
X132617738Y-112880323D01*
X132570119Y-112956514D01*
X132522500Y-113108895D01*
X132522500Y-113489847D01*
X132570119Y-113642228D01*
X132617738Y-113718419D01*
X132712976Y-113794609D01*
X132998690Y-113794609D01*
X133093928Y-113718419D01*
X133141547Y-113642228D01*
X131617738Y-112194609D02*
X132093928Y-112194609D01*
X132141547Y-112956514D01*
X132093928Y-112880323D01*
X131998690Y-112804133D01*
X131760595Y-112804133D01*
X131665357Y-112880323D01*
X131617738Y-112956514D01*
X131570119Y-113108895D01*
X131570119Y-113489847D01*
X131617738Y-113642228D01*
X131665357Y-113718419D01*
X131760595Y-113794609D01*
X131998690Y-113794609D01*
X132093928Y-113718419D01*
X132141547Y-113642228D01*
X134284404Y-116344609D02*
X134284404Y-114744609D01*
X133617738Y-114744609D02*
X133427261Y-114744609D01*
X133332023Y-114820800D01*
X133236785Y-114973180D01*
X133189166Y-115277942D01*
X133189166Y-115811276D01*
X133236785Y-116116038D01*
X133332023Y-116268419D01*
X133427261Y-116344609D01*
X133617738Y-116344609D01*
X133712976Y-116268419D01*
X133808214Y-116116038D01*
X133855833Y-115811276D01*
X133855833Y-115277942D01*
X133808214Y-114973180D01*
X133712976Y-114820800D01*
X133617738Y-114744609D01*
X132855833Y-114744609D02*
X132236785Y-114744609D01*
X132570119Y-115354133D01*
X132427261Y-115354133D01*
X132332023Y-115430323D01*
X132284404Y-115506514D01*
X132236785Y-115658895D01*
X132236785Y-116039847D01*
X132284404Y-116192228D01*
X132332023Y-116268419D01*
X132427261Y-116344609D01*
X132712976Y-116344609D01*
X132808214Y-116268419D01*
X132855833Y-116192228D01*
X131903452Y-114744609D02*
X131284404Y-114744609D01*
X131617738Y-115354133D01*
X131474880Y-115354133D01*
X131379642Y-115430323D01*
X131332023Y-115506514D01*
X131284404Y-115658895D01*
X131284404Y-116039847D01*
X131332023Y-116192228D01*
X131379642Y-116268419D01*
X131474880Y-116344609D01*
X131760595Y-116344609D01*
X131855833Y-116268419D01*
X131903452Y-116192228D01*
X134284404Y-118894609D02*
X134284404Y-117294609D01*
X133141547Y-117294609D02*
X132522500Y-117294609D01*
X132855833Y-117904133D01*
X132712976Y-117904133D01*
X132617738Y-117980323D01*
X132570119Y-118056514D01*
X132522500Y-118208895D01*
X132522500Y-118589847D01*
X132570119Y-118742228D01*
X132617738Y-118818419D01*
X132712976Y-118894609D01*
X132998690Y-118894609D01*
X133093928Y-118818419D01*
X133141547Y-118742228D01*
X131665357Y-117827942D02*
X131665357Y-118894609D01*
X131903452Y-117218419D02*
X132141547Y-118361276D01*
X131522500Y-118361276D01*
X134284404Y-121444609D02*
X134284404Y-119844609D01*
X133617738Y-119844609D02*
X133427261Y-119844609D01*
X133332023Y-119920800D01*
X133236785Y-120073180D01*
X133189166Y-120377942D01*
X133189166Y-120911276D01*
X133236785Y-121216038D01*
X133332023Y-121368419D01*
X133427261Y-121444609D01*
X133617738Y-121444609D01*
X133712976Y-121368419D01*
X133808214Y-121216038D01*
X133855833Y-120911276D01*
X133855833Y-120377942D01*
X133808214Y-120073180D01*
X133712976Y-119920800D01*
X133617738Y-119844609D01*
X132236785Y-121444609D02*
X132808214Y-121444609D01*
X132522500Y-121444609D02*
X132522500Y-119844609D01*
X132617738Y-120073180D01*
X132712976Y-120225561D01*
X132808214Y-120301752D01*
X131379642Y-120377942D02*
X131379642Y-121444609D01*
X131617738Y-119768419D02*
X131855833Y-120911276D01*
X131236785Y-120911276D01*
X134284404Y-123994609D02*
X134284404Y-122394609D01*
X133712976Y-123994609D01*
X133712976Y-122394609D01*
X132665357Y-123842228D02*
X132712976Y-123918419D01*
X132855833Y-123994609D01*
X132951071Y-123994609D01*
X133093928Y-123918419D01*
X133189166Y-123766038D01*
X133236785Y-123613657D01*
X133284404Y-123308895D01*
X133284404Y-123080323D01*
X133236785Y-122775561D01*
X133189166Y-122623180D01*
X133093928Y-122470800D01*
X132951071Y-122394609D01*
X132855833Y-122394609D01*
X132712976Y-122470800D01*
X132665357Y-122546990D01*
X134284404Y-126544609D02*
X134284404Y-124944609D01*
X133712976Y-126544609D01*
X133712976Y-124944609D01*
X132665357Y-126392228D02*
X132712976Y-126468419D01*
X132855833Y-126544609D01*
X132951071Y-126544609D01*
X133093928Y-126468419D01*
X133189166Y-126316038D01*
X133236785Y-126163657D01*
X133284404Y-125858895D01*
X133284404Y-125630323D01*
X133236785Y-125325561D01*
X133189166Y-125173180D01*
X133093928Y-125020800D01*
X132951071Y-124944609D01*
X132855833Y-124944609D01*
X132712976Y-125020800D01*
X132665357Y-125096990D01*
X137980176Y-106144609D02*
X138313509Y-105382704D01*
X138551604Y-106144609D02*
X138551604Y-104544609D01*
X138170652Y-104544609D01*
X138075414Y-104620800D01*
X138027795Y-104696990D01*
X137980176Y-104849371D01*
X137980176Y-105077942D01*
X138027795Y-105230323D01*
X138075414Y-105306514D01*
X138170652Y-105382704D01*
X138551604Y-105382704D01*
X137599223Y-106068419D02*
X137456366Y-106144609D01*
X137218271Y-106144609D01*
X137123033Y-106068419D01*
X137075414Y-105992228D01*
X137027795Y-105839847D01*
X137027795Y-105687466D01*
X137075414Y-105535085D01*
X137123033Y-105458895D01*
X137218271Y-105382704D01*
X137408747Y-105306514D01*
X137503985Y-105230323D01*
X137551604Y-105154133D01*
X137599223Y-105001752D01*
X137599223Y-104849371D01*
X137551604Y-104696990D01*
X137503985Y-104620800D01*
X137408747Y-104544609D01*
X137170652Y-104544609D01*
X137027795Y-104620800D01*
X136742080Y-104544609D02*
X136170652Y-104544609D01*
X136456366Y-106144609D02*
X136456366Y-104544609D01*
X138551604Y-108694609D02*
X138551604Y-107094609D01*
X137408747Y-107094609D02*
X136789700Y-107094609D01*
X137123033Y-107704133D01*
X136980176Y-107704133D01*
X136884938Y-107780323D01*
X136837319Y-107856514D01*
X136789700Y-108008895D01*
X136789700Y-108389847D01*
X136837319Y-108542228D01*
X136884938Y-108618419D01*
X136980176Y-108694609D01*
X137265890Y-108694609D01*
X137361128Y-108618419D01*
X137408747Y-108542228D01*
X135932557Y-107094609D02*
X136123033Y-107094609D01*
X136218271Y-107170800D01*
X136265890Y-107246990D01*
X136361128Y-107475561D01*
X136408747Y-107780323D01*
X136408747Y-108389847D01*
X136361128Y-108542228D01*
X136313509Y-108618419D01*
X136218271Y-108694609D01*
X136027795Y-108694609D01*
X135932557Y-108618419D01*
X135884938Y-108542228D01*
X135837319Y-108389847D01*
X135837319Y-108008895D01*
X135884938Y-107856514D01*
X135932557Y-107780323D01*
X136027795Y-107704133D01*
X136218271Y-107704133D01*
X136313509Y-107780323D01*
X136361128Y-107856514D01*
X136408747Y-108008895D01*
X138551604Y-111244609D02*
X138551604Y-109644609D01*
X137884938Y-109644609D02*
X137694461Y-109644609D01*
X137599223Y-109720800D01*
X137503985Y-109873180D01*
X137456366Y-110177942D01*
X137456366Y-110711276D01*
X137503985Y-111016038D01*
X137599223Y-111168419D01*
X137694461Y-111244609D01*
X137884938Y-111244609D01*
X137980176Y-111168419D01*
X138075414Y-111016038D01*
X138123033Y-110711276D01*
X138123033Y-110177942D01*
X138075414Y-109873180D01*
X137980176Y-109720800D01*
X137884938Y-109644609D01*
X137075414Y-109796990D02*
X137027795Y-109720800D01*
X136932557Y-109644609D01*
X136694461Y-109644609D01*
X136599223Y-109720800D01*
X136551604Y-109796990D01*
X136503985Y-109949371D01*
X136503985Y-110101752D01*
X136551604Y-110330323D01*
X137123033Y-111244609D01*
X136503985Y-111244609D01*
X135646842Y-109644609D02*
X135837319Y-109644609D01*
X135932557Y-109720800D01*
X135980176Y-109796990D01*
X136075414Y-110025561D01*
X136123033Y-110330323D01*
X136123033Y-110939847D01*
X136075414Y-111092228D01*
X136027795Y-111168419D01*
X135932557Y-111244609D01*
X135742080Y-111244609D01*
X135646842Y-111168419D01*
X135599223Y-111092228D01*
X135551604Y-110939847D01*
X135551604Y-110558895D01*
X135599223Y-110406514D01*
X135646842Y-110330323D01*
X135742080Y-110254133D01*
X135932557Y-110254133D01*
X136027795Y-110330323D01*
X136075414Y-110406514D01*
X136123033Y-110558895D01*
X138551604Y-113794609D02*
X138551604Y-112194609D01*
X137884938Y-112194609D02*
X137694461Y-112194609D01*
X137599223Y-112270800D01*
X137503985Y-112423180D01*
X137456366Y-112727942D01*
X137456366Y-113261276D01*
X137503985Y-113566038D01*
X137599223Y-113718419D01*
X137694461Y-113794609D01*
X137884938Y-113794609D01*
X137980176Y-113718419D01*
X138075414Y-113566038D01*
X138123033Y-113261276D01*
X138123033Y-112727942D01*
X138075414Y-112423180D01*
X137980176Y-112270800D01*
X137884938Y-112194609D01*
X136503985Y-113794609D02*
X137075414Y-113794609D01*
X136789700Y-113794609D02*
X136789700Y-112194609D01*
X136884938Y-112423180D01*
X136980176Y-112575561D01*
X137075414Y-112651752D01*
X135932557Y-112880323D02*
X136027795Y-112804133D01*
X136075414Y-112727942D01*
X136123033Y-112575561D01*
X136123033Y-112499371D01*
X136075414Y-112346990D01*
X136027795Y-112270800D01*
X135932557Y-112194609D01*
X135742080Y-112194609D01*
X135646842Y-112270800D01*
X135599223Y-112346990D01*
X135551604Y-112499371D01*
X135551604Y-112575561D01*
X135599223Y-112727942D01*
X135646842Y-112804133D01*
X135742080Y-112880323D01*
X135932557Y-112880323D01*
X136027795Y-112956514D01*
X136075414Y-113032704D01*
X136123033Y-113185085D01*
X136123033Y-113489847D01*
X136075414Y-113642228D01*
X136027795Y-113718419D01*
X135932557Y-113794609D01*
X135742080Y-113794609D01*
X135646842Y-113718419D01*
X135599223Y-113642228D01*
X135551604Y-113489847D01*
X135551604Y-113185085D01*
X135599223Y-113032704D01*
X135646842Y-112956514D01*
X135742080Y-112880323D01*
X138551604Y-116344609D02*
X138551604Y-114744609D01*
X137884938Y-114744609D02*
X137694461Y-114744609D01*
X137599223Y-114820800D01*
X137503985Y-114973180D01*
X137456366Y-115277942D01*
X137456366Y-115811276D01*
X137503985Y-116116038D01*
X137599223Y-116268419D01*
X137694461Y-116344609D01*
X137884938Y-116344609D01*
X137980176Y-116268419D01*
X138075414Y-116116038D01*
X138123033Y-115811276D01*
X138123033Y-115277942D01*
X138075414Y-114973180D01*
X137980176Y-114820800D01*
X137884938Y-114744609D01*
X136503985Y-116344609D02*
X137075414Y-116344609D01*
X136789700Y-116344609D02*
X136789700Y-114744609D01*
X136884938Y-114973180D01*
X136980176Y-115125561D01*
X137075414Y-115201752D01*
X136027795Y-116344609D02*
X135837319Y-116344609D01*
X135742080Y-116268419D01*
X135694461Y-116192228D01*
X135599223Y-115963657D01*
X135551604Y-115658895D01*
X135551604Y-115049371D01*
X135599223Y-114896990D01*
X135646842Y-114820800D01*
X135742080Y-114744609D01*
X135932557Y-114744609D01*
X136027795Y-114820800D01*
X136075414Y-114896990D01*
X136123033Y-115049371D01*
X136123033Y-115430323D01*
X136075414Y-115582704D01*
X136027795Y-115658895D01*
X135932557Y-115735085D01*
X135742080Y-115735085D01*
X135646842Y-115658895D01*
X135599223Y-115582704D01*
X135551604Y-115430323D01*
X138551604Y-118894609D02*
X138551604Y-117294609D01*
X137884938Y-117294609D02*
X137694461Y-117294609D01*
X137599223Y-117370800D01*
X137503985Y-117523180D01*
X137456366Y-117827942D01*
X137456366Y-118361276D01*
X137503985Y-118666038D01*
X137599223Y-118818419D01*
X137694461Y-118894609D01*
X137884938Y-118894609D01*
X137980176Y-118818419D01*
X138075414Y-118666038D01*
X138123033Y-118361276D01*
X138123033Y-117827942D01*
X138075414Y-117523180D01*
X137980176Y-117370800D01*
X137884938Y-117294609D01*
X137075414Y-117446990D02*
X137027795Y-117370800D01*
X136932557Y-117294609D01*
X136694461Y-117294609D01*
X136599223Y-117370800D01*
X136551604Y-117446990D01*
X136503985Y-117599371D01*
X136503985Y-117751752D01*
X136551604Y-117980323D01*
X137123033Y-118894609D01*
X136503985Y-118894609D01*
X136170652Y-117294609D02*
X135551604Y-117294609D01*
X135884938Y-117904133D01*
X135742080Y-117904133D01*
X135646842Y-117980323D01*
X135599223Y-118056514D01*
X135551604Y-118208895D01*
X135551604Y-118589847D01*
X135599223Y-118742228D01*
X135646842Y-118818419D01*
X135742080Y-118894609D01*
X136027795Y-118894609D01*
X136123033Y-118818419D01*
X136170652Y-118742228D01*
X138551604Y-121444609D02*
X138551604Y-119844609D01*
X137884938Y-119844609D02*
X137694461Y-119844609D01*
X137599223Y-119920800D01*
X137503985Y-120073180D01*
X137456366Y-120377942D01*
X137456366Y-120911276D01*
X137503985Y-121216038D01*
X137599223Y-121368419D01*
X137694461Y-121444609D01*
X137884938Y-121444609D01*
X137980176Y-121368419D01*
X138075414Y-121216038D01*
X138123033Y-120911276D01*
X138123033Y-120377942D01*
X138075414Y-120073180D01*
X137980176Y-119920800D01*
X137884938Y-119844609D01*
X136551604Y-119844609D02*
X137027795Y-119844609D01*
X137075414Y-120606514D01*
X137027795Y-120530323D01*
X136932557Y-120454133D01*
X136694461Y-120454133D01*
X136599223Y-120530323D01*
X136551604Y-120606514D01*
X136503985Y-120758895D01*
X136503985Y-121139847D01*
X136551604Y-121292228D01*
X136599223Y-121368419D01*
X136694461Y-121444609D01*
X136932557Y-121444609D01*
X137027795Y-121368419D01*
X137075414Y-121292228D01*
X138646842Y-122394609D02*
X138027795Y-122394609D01*
X138361128Y-123004133D01*
X138218271Y-123004133D01*
X138123033Y-123080323D01*
X138075414Y-123156514D01*
X138027795Y-123308895D01*
X138027795Y-123689847D01*
X138075414Y-123842228D01*
X138123033Y-123918419D01*
X138218271Y-123994609D01*
X138503985Y-123994609D01*
X138599223Y-123918419D01*
X138646842Y-123842228D01*
X137599223Y-123842228D02*
X137551604Y-123918419D01*
X137599223Y-123994609D01*
X137646842Y-123918419D01*
X137599223Y-123842228D01*
X137599223Y-123994609D01*
X137218271Y-122394609D02*
X136599223Y-122394609D01*
X136932557Y-123004133D01*
X136789700Y-123004133D01*
X136694461Y-123080323D01*
X136646842Y-123156514D01*
X136599223Y-123308895D01*
X136599223Y-123689847D01*
X136646842Y-123842228D01*
X136694461Y-123918419D01*
X136789700Y-123994609D01*
X137075414Y-123994609D01*
X137170652Y-123918419D01*
X137218271Y-123842228D01*
X136265890Y-122927942D02*
X136027795Y-123994609D01*
X135789700Y-122927942D01*
X138551604Y-126544609D02*
X138551604Y-124944609D01*
X137884938Y-124944609D02*
X137694461Y-124944609D01*
X137599223Y-125020800D01*
X137503985Y-125173180D01*
X137456366Y-125477942D01*
X137456366Y-126011276D01*
X137503985Y-126316038D01*
X137599223Y-126468419D01*
X137694461Y-126544609D01*
X137884938Y-126544609D01*
X137980176Y-126468419D01*
X138075414Y-126316038D01*
X138123033Y-126011276D01*
X138123033Y-125477942D01*
X138075414Y-125173180D01*
X137980176Y-125020800D01*
X137884938Y-124944609D01*
X136503985Y-126544609D02*
X137075414Y-126544609D01*
X136789700Y-126544609D02*
X136789700Y-124944609D01*
X136884938Y-125173180D01*
X136980176Y-125325561D01*
X137075414Y-125401752D01*
X136170652Y-124944609D02*
X135551604Y-124944609D01*
X135884938Y-125554133D01*
X135742080Y-125554133D01*
X135646842Y-125630323D01*
X135599223Y-125706514D01*
X135551604Y-125858895D01*
X135551604Y-126239847D01*
X135599223Y-126392228D01*
X135646842Y-126468419D01*
X135742080Y-126544609D01*
X136027795Y-126544609D01*
X136123033Y-126468419D01*
X136170652Y-126392228D01*
D10*
X142207371Y-104248571D02*
X140707371Y-104248571D01*
X142207371Y-104891428D02*
X141421657Y-104891428D01*
X141278800Y-104820000D01*
X141207371Y-104677142D01*
X141207371Y-104462857D01*
X141278800Y-104320000D01*
X141350228Y-104248571D01*
X141207371Y-105391428D02*
X141207371Y-105962857D01*
X140707371Y-105605714D02*
X141993085Y-105605714D01*
X142135942Y-105677142D01*
X142207371Y-105820000D01*
X142207371Y-105962857D01*
X141207371Y-106248571D02*
X141207371Y-106820000D01*
X140707371Y-106462857D02*
X141993085Y-106462857D01*
X142135942Y-106534285D01*
X142207371Y-106677142D01*
X142207371Y-106820000D01*
X141207371Y-107320000D02*
X142707371Y-107320000D01*
X141278800Y-107320000D02*
X141207371Y-107462857D01*
X141207371Y-107748571D01*
X141278800Y-107891428D01*
X141350228Y-107962857D01*
X141493085Y-108034285D01*
X141921657Y-108034285D01*
X142064514Y-107962857D01*
X142135942Y-107891428D01*
X142207371Y-107748571D01*
X142207371Y-107462857D01*
X142135942Y-107320000D01*
X142135942Y-108605714D02*
X142207371Y-108748571D01*
X142207371Y-109034285D01*
X142135942Y-109177142D01*
X141993085Y-109248571D01*
X141921657Y-109248571D01*
X141778800Y-109177142D01*
X141707371Y-109034285D01*
X141707371Y-108820000D01*
X141635942Y-108677142D01*
X141493085Y-108605714D01*
X141421657Y-108605714D01*
X141278800Y-108677142D01*
X141207371Y-108820000D01*
X141207371Y-109034285D01*
X141278800Y-109177142D01*
X142064514Y-109891428D02*
X142135942Y-109962857D01*
X142207371Y-109891428D01*
X142135942Y-109820000D01*
X142064514Y-109891428D01*
X142207371Y-109891428D01*
X141278800Y-109891428D02*
X141350228Y-109962857D01*
X141421657Y-109891428D01*
X141350228Y-109820000D01*
X141278800Y-109891428D01*
X141421657Y-109891428D01*
X140635942Y-111677142D02*
X142564514Y-110391428D01*
X140635942Y-113248571D02*
X142564514Y-111962857D01*
X141207371Y-114391428D02*
X142421657Y-114391428D01*
X142564514Y-114320000D01*
X142635942Y-114248571D01*
X142707371Y-114105714D01*
X142707371Y-113891428D01*
X142635942Y-113748571D01*
X142135942Y-114391428D02*
X142207371Y-114248571D01*
X142207371Y-113962857D01*
X142135942Y-113820000D01*
X142064514Y-113748571D01*
X141921657Y-113677142D01*
X141493085Y-113677142D01*
X141350228Y-113748571D01*
X141278800Y-113820000D01*
X141207371Y-113962857D01*
X141207371Y-114248571D01*
X141278800Y-114391428D01*
X142207371Y-115105714D02*
X141207371Y-115105714D01*
X140707371Y-115105714D02*
X140778800Y-115034285D01*
X140850228Y-115105714D01*
X140778800Y-115177142D01*
X140707371Y-115105714D01*
X140850228Y-115105714D01*
X141207371Y-115605714D02*
X141207371Y-116177142D01*
X140707371Y-115820000D02*
X141993085Y-115820000D01*
X142135942Y-115891428D01*
X142207371Y-116034285D01*
X142207371Y-116177142D01*
X142064514Y-116677142D02*
X142135942Y-116748571D01*
X142207371Y-116677142D01*
X142135942Y-116605714D01*
X142064514Y-116677142D01*
X142207371Y-116677142D01*
X142207371Y-117391428D02*
X141207371Y-117391428D01*
X140707371Y-117391428D02*
X140778800Y-117320000D01*
X140850228Y-117391428D01*
X140778800Y-117462857D01*
X140707371Y-117391428D01*
X140850228Y-117391428D01*
X142207371Y-118320000D02*
X142135942Y-118177142D01*
X142064514Y-118105714D01*
X141921657Y-118034285D01*
X141493085Y-118034285D01*
X141350228Y-118105714D01*
X141278800Y-118177142D01*
X141207371Y-118320000D01*
X141207371Y-118534285D01*
X141278800Y-118677142D01*
X141350228Y-118748571D01*
X141493085Y-118820000D01*
X141921657Y-118820000D01*
X142064514Y-118748571D01*
X142135942Y-118677142D01*
X142207371Y-118534285D01*
X142207371Y-118320000D01*
X140635942Y-120534285D02*
X142564514Y-119248571D01*
X140707371Y-121462857D02*
X141778800Y-121462857D01*
X141993085Y-121391428D01*
X142135942Y-121248571D01*
X142207371Y-121034285D01*
X142207371Y-120891428D01*
X140707371Y-122605714D02*
X141778800Y-122605714D01*
X141993085Y-122534285D01*
X142135942Y-122391428D01*
X142207371Y-122177142D01*
X142207371Y-122034285D01*
X141778800Y-123248571D02*
X141778800Y-123962857D01*
X142207371Y-123105714D02*
X140707371Y-123605714D01*
X142207371Y-124105714D01*
X142207371Y-124605714D02*
X140707371Y-124605714D01*
X142207371Y-125462857D02*
X141350228Y-124820000D01*
X140707371Y-125462857D02*
X141564514Y-124605714D01*
X140778800Y-126891428D02*
X140707371Y-126748571D01*
X140707371Y-126534285D01*
X140778800Y-126320000D01*
X140921657Y-126177142D01*
X141064514Y-126105714D01*
X141350228Y-126034285D01*
X141564514Y-126034285D01*
X141850228Y-126105714D01*
X141993085Y-126177142D01*
X142135942Y-126320000D01*
X142207371Y-126534285D01*
X142207371Y-126677142D01*
X142135942Y-126891428D01*
X142064514Y-126962857D01*
X141564514Y-126962857D01*
X141564514Y-126677142D01*
D12*
%TO.C,D3*%
X149125000Y-142303000D02*
X149125000Y-139383000D01*
%TO.C,R1*%
X148030000Y-143771252D02*
X148030000Y-143248748D01*
X146610000Y-143771252D02*
X146610000Y-143248748D01*
%TO.C,D2*%
X155389600Y-143618400D02*
X155389600Y-142468400D01*
X148089600Y-143618400D02*
X155389600Y-143618400D01*
X148089600Y-138118400D02*
X155389600Y-138118400D01*
D11*
X155271695Y-137713980D02*
X155271695Y-136713980D01*
X155033600Y-136713980D01*
X154890742Y-136761600D01*
X154795504Y-136856838D01*
X154747885Y-136952076D01*
X154700266Y-137142552D01*
X154700266Y-137285409D01*
X154747885Y-137475885D01*
X154795504Y-137571123D01*
X154890742Y-137666361D01*
X155033600Y-137713980D01*
X155271695Y-137713980D01*
X154319314Y-136809219D02*
X154271695Y-136761600D01*
X154176457Y-136713980D01*
X153938361Y-136713980D01*
X153843123Y-136761600D01*
X153795504Y-136809219D01*
X153747885Y-136904457D01*
X153747885Y-136999695D01*
X153795504Y-137142552D01*
X154366933Y-137713980D01*
X153747885Y-137713980D01*
%TD*%
M02*
