%TF.GenerationSoftware,KiCad,Pcbnew,(5.1.6-0-10_14)*%
%TF.CreationDate,2020-08-20T18:16:30+02:00*%
%TF.ProjectId,USBCWrover,55534243-5772-46f7-9665-722e6b696361,rev?*%
%TF.SameCoordinates,Original*%
%TF.FileFunction,Legend,Bot*%
%TF.FilePolarity,Positive*%
%FSLAX46Y46*%
G04 Gerber Fmt 4.6, Leading zero omitted, Abs format (unit mm)*
G04 Created by KiCad (PCBNEW (5.1.6-0-10_14)) date 2020-08-20 18:16:30*
%MOMM*%
%LPD*%
G01*
G04 APERTURE LIST*
%ADD10C,0.120000*%
%ADD11C,0.150000*%
%ADD12C,0.300000*%
%ADD13C,0.010000*%
G04 APERTURE END LIST*
D10*
X150622000Y-130873500D02*
X150558500Y-130873500D01*
X150622000Y-123063000D02*
X150622000Y-130873500D01*
X147193000Y-123063000D02*
X150622000Y-123063000D01*
X147193000Y-125666500D02*
X147193000Y-123063000D01*
X143319500Y-125666500D02*
X147193000Y-125666500D01*
X143319500Y-130873500D02*
X143319500Y-125666500D01*
X150558500Y-130873500D02*
X143319500Y-130873500D01*
X131318000Y-123190000D02*
X131318000Y-130873500D01*
X135445500Y-123190000D02*
X131318000Y-123190000D01*
X135445500Y-125666500D02*
X135445500Y-123190000D01*
X139700000Y-125666500D02*
X135445500Y-125666500D01*
X139700000Y-130873500D02*
X139700000Y-125666500D01*
X131381500Y-130873500D02*
X139700000Y-130873500D01*
D11*
X146619261Y-105695309D02*
X146047833Y-105695309D01*
X146333547Y-107295309D02*
X146333547Y-105695309D01*
X145809738Y-105695309D02*
X145143071Y-107295309D01*
X145143071Y-105695309D02*
X145809738Y-107295309D01*
X144762119Y-107295309D02*
X144762119Y-105695309D01*
X144524023Y-105695309D01*
X144381166Y-105771500D01*
X144285928Y-105923880D01*
X144238309Y-106076261D01*
X144190690Y-106381023D01*
X144190690Y-106609595D01*
X144238309Y-106914357D01*
X144285928Y-107066738D01*
X144381166Y-107219119D01*
X144524023Y-107295309D01*
X144762119Y-107295309D01*
X145904976Y-109845309D02*
X146238309Y-109083404D01*
X146476404Y-109845309D02*
X146476404Y-108245309D01*
X146095452Y-108245309D01*
X146000214Y-108321500D01*
X145952595Y-108397690D01*
X145904976Y-108550071D01*
X145904976Y-108778642D01*
X145952595Y-108931023D01*
X146000214Y-109007214D01*
X146095452Y-109083404D01*
X146476404Y-109083404D01*
X145571642Y-108245309D02*
X144904976Y-109845309D01*
X144904976Y-108245309D02*
X145571642Y-109845309D01*
X144524023Y-109845309D02*
X144524023Y-108245309D01*
X144285928Y-108245309D01*
X144143071Y-108321500D01*
X144047833Y-108473880D01*
X144000214Y-108626261D01*
X143952595Y-108931023D01*
X143952595Y-109159595D01*
X144000214Y-109464357D01*
X144047833Y-109616738D01*
X144143071Y-109769119D01*
X144285928Y-109845309D01*
X144524023Y-109845309D01*
X146476404Y-112395309D02*
X146476404Y-110795309D01*
X145809738Y-110795309D02*
X145619261Y-110795309D01*
X145524023Y-110871500D01*
X145428785Y-111023880D01*
X145381166Y-111328642D01*
X145381166Y-111861976D01*
X145428785Y-112166738D01*
X145524023Y-112319119D01*
X145619261Y-112395309D01*
X145809738Y-112395309D01*
X145904976Y-112319119D01*
X146000214Y-112166738D01*
X146047833Y-111861976D01*
X146047833Y-111328642D01*
X146000214Y-111023880D01*
X145904976Y-110871500D01*
X145809738Y-110795309D01*
X145000214Y-110947690D02*
X144952595Y-110871500D01*
X144857357Y-110795309D01*
X144619261Y-110795309D01*
X144524023Y-110871500D01*
X144476404Y-110947690D01*
X144428785Y-111100071D01*
X144428785Y-111252452D01*
X144476404Y-111481023D01*
X145047833Y-112395309D01*
X144428785Y-112395309D01*
X144047833Y-110947690D02*
X144000214Y-110871500D01*
X143904976Y-110795309D01*
X143666880Y-110795309D01*
X143571642Y-110871500D01*
X143524023Y-110947690D01*
X143476404Y-111100071D01*
X143476404Y-111252452D01*
X143524023Y-111481023D01*
X144095452Y-112395309D01*
X143476404Y-112395309D01*
X146476404Y-114945309D02*
X146476404Y-113345309D01*
X145809738Y-113345309D02*
X145619261Y-113345309D01*
X145524023Y-113421500D01*
X145428785Y-113573880D01*
X145381166Y-113878642D01*
X145381166Y-114411976D01*
X145428785Y-114716738D01*
X145524023Y-114869119D01*
X145619261Y-114945309D01*
X145809738Y-114945309D01*
X145904976Y-114869119D01*
X146000214Y-114716738D01*
X146047833Y-114411976D01*
X146047833Y-113878642D01*
X146000214Y-113573880D01*
X145904976Y-113421500D01*
X145809738Y-113345309D01*
X145000214Y-113497690D02*
X144952595Y-113421500D01*
X144857357Y-113345309D01*
X144619261Y-113345309D01*
X144524023Y-113421500D01*
X144476404Y-113497690D01*
X144428785Y-113650071D01*
X144428785Y-113802452D01*
X144476404Y-114031023D01*
X145047833Y-114945309D01*
X144428785Y-114945309D01*
X143476404Y-114945309D02*
X144047833Y-114945309D01*
X143762119Y-114945309D02*
X143762119Y-113345309D01*
X143857357Y-113573880D01*
X143952595Y-113726261D01*
X144047833Y-113802452D01*
X146476404Y-117495309D02*
X146476404Y-115895309D01*
X145809738Y-115895309D02*
X145619261Y-115895309D01*
X145524023Y-115971500D01*
X145428785Y-116123880D01*
X145381166Y-116428642D01*
X145381166Y-116961976D01*
X145428785Y-117266738D01*
X145524023Y-117419119D01*
X145619261Y-117495309D01*
X145809738Y-117495309D01*
X145904976Y-117419119D01*
X146000214Y-117266738D01*
X146047833Y-116961976D01*
X146047833Y-116428642D01*
X146000214Y-116123880D01*
X145904976Y-115971500D01*
X145809738Y-115895309D01*
X144428785Y-117495309D02*
X145000214Y-117495309D01*
X144714500Y-117495309D02*
X144714500Y-115895309D01*
X144809738Y-116123880D01*
X144904976Y-116276261D01*
X145000214Y-116352452D01*
X144095452Y-115895309D02*
X143428785Y-115895309D01*
X143857357Y-117495309D01*
X142904976Y-115895309D02*
X142904976Y-116276261D01*
X143143071Y-116123880D02*
X142904976Y-116276261D01*
X142666880Y-116123880D01*
X143047833Y-116581023D02*
X142904976Y-116276261D01*
X142762119Y-116581023D01*
X146476404Y-120045309D02*
X146476404Y-118445309D01*
X145809738Y-118445309D02*
X145619261Y-118445309D01*
X145524023Y-118521500D01*
X145428785Y-118673880D01*
X145381166Y-118978642D01*
X145381166Y-119511976D01*
X145428785Y-119816738D01*
X145524023Y-119969119D01*
X145619261Y-120045309D01*
X145809738Y-120045309D01*
X145904976Y-119969119D01*
X146000214Y-119816738D01*
X146047833Y-119511976D01*
X146047833Y-118978642D01*
X146000214Y-118673880D01*
X145904976Y-118521500D01*
X145809738Y-118445309D01*
X144428785Y-120045309D02*
X145000214Y-120045309D01*
X144714500Y-120045309D02*
X144714500Y-118445309D01*
X144809738Y-118673880D01*
X144904976Y-118826261D01*
X145000214Y-118902452D01*
X143571642Y-118445309D02*
X143762119Y-118445309D01*
X143857357Y-118521500D01*
X143904976Y-118597690D01*
X144000214Y-118826261D01*
X144047833Y-119131023D01*
X144047833Y-119740547D01*
X144000214Y-119892928D01*
X143952595Y-119969119D01*
X143857357Y-120045309D01*
X143666880Y-120045309D01*
X143571642Y-119969119D01*
X143524023Y-119892928D01*
X143476404Y-119740547D01*
X143476404Y-119359595D01*
X143524023Y-119207214D01*
X143571642Y-119131023D01*
X143666880Y-119054833D01*
X143857357Y-119054833D01*
X143952595Y-119131023D01*
X144000214Y-119207214D01*
X144047833Y-119359595D01*
X142904976Y-118445309D02*
X142904976Y-118826261D01*
X143143071Y-118673880D02*
X142904976Y-118826261D01*
X142666880Y-118673880D01*
X143047833Y-119131023D02*
X142904976Y-118826261D01*
X142762119Y-119131023D01*
X145952595Y-121071500D02*
X146047833Y-120995309D01*
X146190690Y-120995309D01*
X146333547Y-121071500D01*
X146428785Y-121223880D01*
X146476404Y-121376261D01*
X146524023Y-121681023D01*
X146524023Y-121909595D01*
X146476404Y-122214357D01*
X146428785Y-122366738D01*
X146333547Y-122519119D01*
X146190690Y-122595309D01*
X146095452Y-122595309D01*
X145952595Y-122519119D01*
X145904976Y-122442928D01*
X145904976Y-121909595D01*
X146095452Y-121909595D01*
X145476404Y-122595309D02*
X145476404Y-120995309D01*
X144904976Y-122595309D01*
X144904976Y-120995309D01*
X144428785Y-122595309D02*
X144428785Y-120995309D01*
X144190690Y-120995309D01*
X144047833Y-121071500D01*
X143952595Y-121223880D01*
X143904976Y-121376261D01*
X143857357Y-121681023D01*
X143857357Y-121909595D01*
X143904976Y-122214357D01*
X143952595Y-122366738D01*
X144047833Y-122519119D01*
X144190690Y-122595309D01*
X144428785Y-122595309D01*
X146000214Y-123545309D02*
X146476404Y-123545309D01*
X146524023Y-124307214D01*
X146476404Y-124231023D01*
X146381166Y-124154833D01*
X146143071Y-124154833D01*
X146047833Y-124231023D01*
X146000214Y-124307214D01*
X145952595Y-124459595D01*
X145952595Y-124840547D01*
X146000214Y-124992928D01*
X146047833Y-125069119D01*
X146143071Y-125145309D01*
X146381166Y-125145309D01*
X146476404Y-125069119D01*
X146524023Y-124992928D01*
X145666880Y-123545309D02*
X145333547Y-125145309D01*
X145000214Y-123545309D01*
X146619261Y-126095309D02*
X146047833Y-126095309D01*
X146333547Y-127695309D02*
X146333547Y-126095309D01*
X145714500Y-127695309D02*
X145714500Y-126095309D01*
X145476404Y-126095309D01*
X145333547Y-126171500D01*
X145238309Y-126323880D01*
X145190690Y-126476261D01*
X145143071Y-126781023D01*
X145143071Y-127009595D01*
X145190690Y-127314357D01*
X145238309Y-127466738D01*
X145333547Y-127619119D01*
X145476404Y-127695309D01*
X145714500Y-127695309D01*
X144714500Y-127695309D02*
X144714500Y-126095309D01*
X144476404Y-126095309D01*
X144333547Y-126171500D01*
X144238309Y-126323880D01*
X144190690Y-126476261D01*
X144143071Y-126781023D01*
X144143071Y-127009595D01*
X144190690Y-127314357D01*
X144238309Y-127466738D01*
X144333547Y-127619119D01*
X144476404Y-127695309D01*
X144714500Y-127695309D01*
X146524023Y-130169119D02*
X146381166Y-130245309D01*
X146143071Y-130245309D01*
X146047833Y-130169119D01*
X146000214Y-130092928D01*
X145952595Y-129940547D01*
X145952595Y-129788166D01*
X146000214Y-129635785D01*
X146047833Y-129559595D01*
X146143071Y-129483404D01*
X146333547Y-129407214D01*
X146428785Y-129331023D01*
X146476404Y-129254833D01*
X146524023Y-129102452D01*
X146524023Y-128950071D01*
X146476404Y-128797690D01*
X146428785Y-128721500D01*
X146333547Y-128645309D01*
X146095452Y-128645309D01*
X145952595Y-128721500D01*
X145524023Y-130245309D02*
X145524023Y-128645309D01*
X145285928Y-128645309D01*
X145143071Y-128721500D01*
X145047833Y-128873880D01*
X145000214Y-129026261D01*
X144952595Y-129331023D01*
X144952595Y-129559595D01*
X145000214Y-129864357D01*
X145047833Y-130016738D01*
X145143071Y-130169119D01*
X145285928Y-130245309D01*
X145524023Y-130245309D01*
X144333547Y-128645309D02*
X144238309Y-128645309D01*
X144143071Y-128721500D01*
X144095452Y-128797690D01*
X144047833Y-128950071D01*
X144000214Y-129254833D01*
X144000214Y-129635785D01*
X144047833Y-129940547D01*
X144095452Y-130092928D01*
X144143071Y-130169119D01*
X144238309Y-130245309D01*
X144333547Y-130245309D01*
X144428785Y-130169119D01*
X144476404Y-130092928D01*
X144524023Y-129940547D01*
X144571642Y-129635785D01*
X144571642Y-129254833D01*
X144524023Y-128950071D01*
X144476404Y-128797690D01*
X144428785Y-128721500D01*
X144333547Y-128645309D01*
X149762595Y-105771500D02*
X149857833Y-105695309D01*
X150000690Y-105695309D01*
X150143547Y-105771500D01*
X150238785Y-105923880D01*
X150286404Y-106076261D01*
X150334023Y-106381023D01*
X150334023Y-106609595D01*
X150286404Y-106914357D01*
X150238785Y-107066738D01*
X150143547Y-107219119D01*
X150000690Y-107295309D01*
X149905452Y-107295309D01*
X149762595Y-107219119D01*
X149714976Y-107142928D01*
X149714976Y-106609595D01*
X149905452Y-106609595D01*
X149286404Y-107295309D02*
X149286404Y-105695309D01*
X148714976Y-107295309D01*
X148714976Y-105695309D01*
X148238785Y-107295309D02*
X148238785Y-105695309D01*
X148000690Y-105695309D01*
X147857833Y-105771500D01*
X147762595Y-105923880D01*
X147714976Y-106076261D01*
X147667357Y-106381023D01*
X147667357Y-106609595D01*
X147714976Y-106914357D01*
X147762595Y-107066738D01*
X147857833Y-107219119D01*
X148000690Y-107295309D01*
X148238785Y-107295309D01*
X150286404Y-109845309D02*
X150286404Y-108245309D01*
X149619738Y-108245309D02*
X149429261Y-108245309D01*
X149334023Y-108321500D01*
X149238785Y-108473880D01*
X149191166Y-108778642D01*
X149191166Y-109311976D01*
X149238785Y-109616738D01*
X149334023Y-109769119D01*
X149429261Y-109845309D01*
X149619738Y-109845309D01*
X149714976Y-109769119D01*
X149810214Y-109616738D01*
X149857833Y-109311976D01*
X149857833Y-108778642D01*
X149810214Y-108473880D01*
X149714976Y-108321500D01*
X149619738Y-108245309D01*
X148810214Y-108397690D02*
X148762595Y-108321500D01*
X148667357Y-108245309D01*
X148429261Y-108245309D01*
X148334023Y-108321500D01*
X148286404Y-108397690D01*
X148238785Y-108550071D01*
X148238785Y-108702452D01*
X148286404Y-108931023D01*
X148857833Y-109845309D01*
X148238785Y-109845309D01*
X147905452Y-108245309D02*
X147238785Y-108245309D01*
X147667357Y-109845309D01*
X150286404Y-112395309D02*
X150286404Y-110795309D01*
X149619738Y-110795309D02*
X149429261Y-110795309D01*
X149334023Y-110871500D01*
X149238785Y-111023880D01*
X149191166Y-111328642D01*
X149191166Y-111861976D01*
X149238785Y-112166738D01*
X149334023Y-112319119D01*
X149429261Y-112395309D01*
X149619738Y-112395309D01*
X149714976Y-112319119D01*
X149810214Y-112166738D01*
X149857833Y-111861976D01*
X149857833Y-111328642D01*
X149810214Y-111023880D01*
X149714976Y-110871500D01*
X149619738Y-110795309D01*
X148810214Y-110947690D02*
X148762595Y-110871500D01*
X148667357Y-110795309D01*
X148429261Y-110795309D01*
X148334023Y-110871500D01*
X148286404Y-110947690D01*
X148238785Y-111100071D01*
X148238785Y-111252452D01*
X148286404Y-111481023D01*
X148857833Y-112395309D01*
X148238785Y-112395309D01*
X147334023Y-110795309D02*
X147810214Y-110795309D01*
X147857833Y-111557214D01*
X147810214Y-111481023D01*
X147714976Y-111404833D01*
X147476880Y-111404833D01*
X147381642Y-111481023D01*
X147334023Y-111557214D01*
X147286404Y-111709595D01*
X147286404Y-112090547D01*
X147334023Y-112242928D01*
X147381642Y-112319119D01*
X147476880Y-112395309D01*
X147714976Y-112395309D01*
X147810214Y-112319119D01*
X147857833Y-112242928D01*
X150286404Y-114945309D02*
X150286404Y-113345309D01*
X149619738Y-113345309D02*
X149429261Y-113345309D01*
X149334023Y-113421500D01*
X149238785Y-113573880D01*
X149191166Y-113878642D01*
X149191166Y-114411976D01*
X149238785Y-114716738D01*
X149334023Y-114869119D01*
X149429261Y-114945309D01*
X149619738Y-114945309D01*
X149714976Y-114869119D01*
X149810214Y-114716738D01*
X149857833Y-114411976D01*
X149857833Y-113878642D01*
X149810214Y-113573880D01*
X149714976Y-113421500D01*
X149619738Y-113345309D01*
X148857833Y-113345309D02*
X148238785Y-113345309D01*
X148572119Y-113954833D01*
X148429261Y-113954833D01*
X148334023Y-114031023D01*
X148286404Y-114107214D01*
X148238785Y-114259595D01*
X148238785Y-114640547D01*
X148286404Y-114792928D01*
X148334023Y-114869119D01*
X148429261Y-114945309D01*
X148714976Y-114945309D01*
X148810214Y-114869119D01*
X148857833Y-114792928D01*
X147857833Y-113497690D02*
X147810214Y-113421500D01*
X147714976Y-113345309D01*
X147476880Y-113345309D01*
X147381642Y-113421500D01*
X147334023Y-113497690D01*
X147286404Y-113650071D01*
X147286404Y-113802452D01*
X147334023Y-114031023D01*
X147905452Y-114945309D01*
X147286404Y-114945309D01*
X150429261Y-115895309D02*
X149857833Y-115895309D01*
X150143547Y-117495309D02*
X150143547Y-115895309D01*
X149524500Y-117495309D02*
X149524500Y-115895309D01*
X149286404Y-115895309D01*
X149143547Y-115971500D01*
X149048309Y-116123880D01*
X149000690Y-116276261D01*
X148953071Y-116581023D01*
X148953071Y-116809595D01*
X149000690Y-117114357D01*
X149048309Y-117266738D01*
X149143547Y-117419119D01*
X149286404Y-117495309D01*
X149524500Y-117495309D01*
X148524500Y-117495309D02*
X148524500Y-115895309D01*
X150286404Y-120045309D02*
X150286404Y-118445309D01*
X149619738Y-118445309D02*
X149429261Y-118445309D01*
X149334023Y-118521500D01*
X149238785Y-118673880D01*
X149191166Y-118978642D01*
X149191166Y-119511976D01*
X149238785Y-119816738D01*
X149334023Y-119969119D01*
X149429261Y-120045309D01*
X149619738Y-120045309D01*
X149714976Y-119969119D01*
X149810214Y-119816738D01*
X149857833Y-119511976D01*
X149857833Y-118978642D01*
X149810214Y-118673880D01*
X149714976Y-118521500D01*
X149619738Y-118445309D01*
X148334023Y-118978642D02*
X148334023Y-120045309D01*
X148572119Y-118369119D02*
X148810214Y-119511976D01*
X148191166Y-119511976D01*
X150286404Y-122595309D02*
X150286404Y-120995309D01*
X149619738Y-120995309D02*
X149429261Y-120995309D01*
X149334023Y-121071500D01*
X149238785Y-121223880D01*
X149191166Y-121528642D01*
X149191166Y-122061976D01*
X149238785Y-122366738D01*
X149334023Y-122519119D01*
X149429261Y-122595309D01*
X149619738Y-122595309D01*
X149714976Y-122519119D01*
X149810214Y-122366738D01*
X149857833Y-122061976D01*
X149857833Y-121528642D01*
X149810214Y-121223880D01*
X149714976Y-121071500D01*
X149619738Y-120995309D01*
X148572119Y-120995309D02*
X148476880Y-120995309D01*
X148381642Y-121071500D01*
X148334023Y-121147690D01*
X148286404Y-121300071D01*
X148238785Y-121604833D01*
X148238785Y-121985785D01*
X148286404Y-122290547D01*
X148334023Y-122442928D01*
X148381642Y-122519119D01*
X148476880Y-122595309D01*
X148572119Y-122595309D01*
X148667357Y-122519119D01*
X148714976Y-122442928D01*
X148762595Y-122290547D01*
X148810214Y-121985785D01*
X148810214Y-121604833D01*
X148762595Y-121300071D01*
X148714976Y-121147690D01*
X148667357Y-121071500D01*
X148572119Y-120995309D01*
X150286404Y-125145309D02*
X150286404Y-123545309D01*
X149619738Y-123545309D02*
X149429261Y-123545309D01*
X149334023Y-123621500D01*
X149238785Y-123773880D01*
X149191166Y-124078642D01*
X149191166Y-124611976D01*
X149238785Y-124916738D01*
X149334023Y-125069119D01*
X149429261Y-125145309D01*
X149619738Y-125145309D01*
X149714976Y-125069119D01*
X149810214Y-124916738D01*
X149857833Y-124611976D01*
X149857833Y-124078642D01*
X149810214Y-123773880D01*
X149714976Y-123621500D01*
X149619738Y-123545309D01*
X148810214Y-123697690D02*
X148762595Y-123621500D01*
X148667357Y-123545309D01*
X148429261Y-123545309D01*
X148334023Y-123621500D01*
X148286404Y-123697690D01*
X148238785Y-123850071D01*
X148238785Y-124002452D01*
X148286404Y-124231023D01*
X148857833Y-125145309D01*
X148238785Y-125145309D01*
X150334023Y-127619119D02*
X150191166Y-127695309D01*
X149953071Y-127695309D01*
X149857833Y-127619119D01*
X149810214Y-127542928D01*
X149762595Y-127390547D01*
X149762595Y-127238166D01*
X149810214Y-127085785D01*
X149857833Y-127009595D01*
X149953071Y-126933404D01*
X150143547Y-126857214D01*
X150238785Y-126781023D01*
X150286404Y-126704833D01*
X150334023Y-126552452D01*
X150334023Y-126400071D01*
X150286404Y-126247690D01*
X150238785Y-126171500D01*
X150143547Y-126095309D01*
X149905452Y-126095309D01*
X149762595Y-126171500D01*
X149334023Y-127695309D02*
X149334023Y-126095309D01*
X149095928Y-126095309D01*
X148953071Y-126171500D01*
X148857833Y-126323880D01*
X148810214Y-126476261D01*
X148762595Y-126781023D01*
X148762595Y-127009595D01*
X148810214Y-127314357D01*
X148857833Y-127466738D01*
X148953071Y-127619119D01*
X149095928Y-127695309D01*
X149334023Y-127695309D01*
X147810214Y-127695309D02*
X148381642Y-127695309D01*
X148095928Y-127695309D02*
X148095928Y-126095309D01*
X148191166Y-126323880D01*
X148286404Y-126476261D01*
X148381642Y-126552452D01*
X149714976Y-130092928D02*
X149762595Y-130169119D01*
X149905452Y-130245309D01*
X150000690Y-130245309D01*
X150143547Y-130169119D01*
X150238785Y-130016738D01*
X150286404Y-129864357D01*
X150334023Y-129559595D01*
X150334023Y-129331023D01*
X150286404Y-129026261D01*
X150238785Y-128873880D01*
X150143547Y-128721500D01*
X150000690Y-128645309D01*
X149905452Y-128645309D01*
X149762595Y-128721500D01*
X149714976Y-128797690D01*
X148810214Y-130245309D02*
X149286404Y-130245309D01*
X149286404Y-128645309D01*
X148476880Y-130245309D02*
X148476880Y-128645309D01*
X147905452Y-130245309D02*
X148334023Y-129331023D01*
X147905452Y-128645309D02*
X148476880Y-129559595D01*
X133887595Y-105835000D02*
X133982833Y-105758809D01*
X134125690Y-105758809D01*
X134268547Y-105835000D01*
X134363785Y-105987380D01*
X134411404Y-106139761D01*
X134459023Y-106444523D01*
X134459023Y-106673095D01*
X134411404Y-106977857D01*
X134363785Y-107130238D01*
X134268547Y-107282619D01*
X134125690Y-107358809D01*
X134030452Y-107358809D01*
X133887595Y-107282619D01*
X133839976Y-107206428D01*
X133839976Y-106673095D01*
X134030452Y-106673095D01*
X133411404Y-107358809D02*
X133411404Y-105758809D01*
X132839976Y-107358809D01*
X132839976Y-105758809D01*
X132363785Y-107358809D02*
X132363785Y-105758809D01*
X132125690Y-105758809D01*
X131982833Y-105835000D01*
X131887595Y-105987380D01*
X131839976Y-106139761D01*
X131792357Y-106444523D01*
X131792357Y-106673095D01*
X131839976Y-106977857D01*
X131887595Y-107130238D01*
X131982833Y-107282619D01*
X132125690Y-107358809D01*
X132363785Y-107358809D01*
X134411404Y-109908809D02*
X134411404Y-108308809D01*
X133839976Y-109908809D01*
X133839976Y-108308809D01*
X132792357Y-109756428D02*
X132839976Y-109832619D01*
X132982833Y-109908809D01*
X133078071Y-109908809D01*
X133220928Y-109832619D01*
X133316166Y-109680238D01*
X133363785Y-109527857D01*
X133411404Y-109223095D01*
X133411404Y-108994523D01*
X133363785Y-108689761D01*
X133316166Y-108537380D01*
X133220928Y-108385000D01*
X133078071Y-108308809D01*
X132982833Y-108308809D01*
X132839976Y-108385000D01*
X132792357Y-108461190D01*
X134459023Y-112382619D02*
X134316166Y-112458809D01*
X134078071Y-112458809D01*
X133982833Y-112382619D01*
X133935214Y-112306428D01*
X133887595Y-112154047D01*
X133887595Y-112001666D01*
X133935214Y-111849285D01*
X133982833Y-111773095D01*
X134078071Y-111696904D01*
X134268547Y-111620714D01*
X134363785Y-111544523D01*
X134411404Y-111468333D01*
X134459023Y-111315952D01*
X134459023Y-111163571D01*
X134411404Y-111011190D01*
X134363785Y-110935000D01*
X134268547Y-110858809D01*
X134030452Y-110858809D01*
X133887595Y-110935000D01*
X133601880Y-110858809D02*
X133268547Y-112458809D01*
X132935214Y-110858809D01*
X132601880Y-112458809D02*
X132601880Y-110858809D01*
X132030452Y-112458809D01*
X132030452Y-110858809D01*
X134411404Y-115008809D02*
X134411404Y-113408809D01*
X133744738Y-113408809D02*
X133554261Y-113408809D01*
X133459023Y-113485000D01*
X133363785Y-113637380D01*
X133316166Y-113942142D01*
X133316166Y-114475476D01*
X133363785Y-114780238D01*
X133459023Y-114932619D01*
X133554261Y-115008809D01*
X133744738Y-115008809D01*
X133839976Y-114932619D01*
X133935214Y-114780238D01*
X133982833Y-114475476D01*
X133982833Y-113942142D01*
X133935214Y-113637380D01*
X133839976Y-113485000D01*
X133744738Y-113408809D01*
X132982833Y-113408809D02*
X132363785Y-113408809D01*
X132697119Y-114018333D01*
X132554261Y-114018333D01*
X132459023Y-114094523D01*
X132411404Y-114170714D01*
X132363785Y-114323095D01*
X132363785Y-114704047D01*
X132411404Y-114856428D01*
X132459023Y-114932619D01*
X132554261Y-115008809D01*
X132839976Y-115008809D01*
X132935214Y-114932619D01*
X132982833Y-114856428D01*
X131459023Y-113408809D02*
X131935214Y-113408809D01*
X131982833Y-114170714D01*
X131935214Y-114094523D01*
X131839976Y-114018333D01*
X131601880Y-114018333D01*
X131506642Y-114094523D01*
X131459023Y-114170714D01*
X131411404Y-114323095D01*
X131411404Y-114704047D01*
X131459023Y-114856428D01*
X131506642Y-114932619D01*
X131601880Y-115008809D01*
X131839976Y-115008809D01*
X131935214Y-114932619D01*
X131982833Y-114856428D01*
X134411404Y-117558809D02*
X134411404Y-115958809D01*
X133744738Y-115958809D02*
X133554261Y-115958809D01*
X133459023Y-116035000D01*
X133363785Y-116187380D01*
X133316166Y-116492142D01*
X133316166Y-117025476D01*
X133363785Y-117330238D01*
X133459023Y-117482619D01*
X133554261Y-117558809D01*
X133744738Y-117558809D01*
X133839976Y-117482619D01*
X133935214Y-117330238D01*
X133982833Y-117025476D01*
X133982833Y-116492142D01*
X133935214Y-116187380D01*
X133839976Y-116035000D01*
X133744738Y-115958809D01*
X132982833Y-115958809D02*
X132363785Y-115958809D01*
X132697119Y-116568333D01*
X132554261Y-116568333D01*
X132459023Y-116644523D01*
X132411404Y-116720714D01*
X132363785Y-116873095D01*
X132363785Y-117254047D01*
X132411404Y-117406428D01*
X132459023Y-117482619D01*
X132554261Y-117558809D01*
X132839976Y-117558809D01*
X132935214Y-117482619D01*
X132982833Y-117406428D01*
X132030452Y-115958809D02*
X131411404Y-115958809D01*
X131744738Y-116568333D01*
X131601880Y-116568333D01*
X131506642Y-116644523D01*
X131459023Y-116720714D01*
X131411404Y-116873095D01*
X131411404Y-117254047D01*
X131459023Y-117406428D01*
X131506642Y-117482619D01*
X131601880Y-117558809D01*
X131887595Y-117558809D01*
X131982833Y-117482619D01*
X132030452Y-117406428D01*
X134411404Y-120108809D02*
X134411404Y-118508809D01*
X133744738Y-118508809D02*
X133554261Y-118508809D01*
X133459023Y-118585000D01*
X133363785Y-118737380D01*
X133316166Y-119042142D01*
X133316166Y-119575476D01*
X133363785Y-119880238D01*
X133459023Y-120032619D01*
X133554261Y-120108809D01*
X133744738Y-120108809D01*
X133839976Y-120032619D01*
X133935214Y-119880238D01*
X133982833Y-119575476D01*
X133982833Y-119042142D01*
X133935214Y-118737380D01*
X133839976Y-118585000D01*
X133744738Y-118508809D01*
X132982833Y-118508809D02*
X132363785Y-118508809D01*
X132697119Y-119118333D01*
X132554261Y-119118333D01*
X132459023Y-119194523D01*
X132411404Y-119270714D01*
X132363785Y-119423095D01*
X132363785Y-119804047D01*
X132411404Y-119956428D01*
X132459023Y-120032619D01*
X132554261Y-120108809D01*
X132839976Y-120108809D01*
X132935214Y-120032619D01*
X132982833Y-119956428D01*
X131506642Y-119042142D02*
X131506642Y-120108809D01*
X131744738Y-118432619D02*
X131982833Y-119575476D01*
X131363785Y-119575476D01*
X134554261Y-121058809D02*
X133982833Y-121058809D01*
X134268547Y-122658809D02*
X134268547Y-121058809D01*
X133649500Y-122658809D02*
X133649500Y-121058809D01*
X133316166Y-122201666D01*
X132982833Y-121058809D01*
X132982833Y-122658809D01*
X132554261Y-122582619D02*
X132411404Y-122658809D01*
X132173309Y-122658809D01*
X132078071Y-122582619D01*
X132030452Y-122506428D01*
X131982833Y-122354047D01*
X131982833Y-122201666D01*
X132030452Y-122049285D01*
X132078071Y-121973095D01*
X132173309Y-121896904D01*
X132363785Y-121820714D01*
X132459023Y-121744523D01*
X132506642Y-121668333D01*
X132554261Y-121515952D01*
X132554261Y-121363571D01*
X132506642Y-121211190D01*
X132459023Y-121135000D01*
X132363785Y-121058809D01*
X132125690Y-121058809D01*
X131982833Y-121135000D01*
X134411404Y-125208809D02*
X134411404Y-123608809D01*
X133839976Y-125208809D01*
X133839976Y-123608809D01*
X132792357Y-125056428D02*
X132839976Y-125132619D01*
X132982833Y-125208809D01*
X133078071Y-125208809D01*
X133220928Y-125132619D01*
X133316166Y-124980238D01*
X133363785Y-124827857D01*
X133411404Y-124523095D01*
X133411404Y-124294523D01*
X133363785Y-123989761D01*
X133316166Y-123837380D01*
X133220928Y-123685000D01*
X133078071Y-123608809D01*
X132982833Y-123608809D01*
X132839976Y-123685000D01*
X132792357Y-123761190D01*
X134459023Y-127682619D02*
X134316166Y-127758809D01*
X134078071Y-127758809D01*
X133982833Y-127682619D01*
X133935214Y-127606428D01*
X133887595Y-127454047D01*
X133887595Y-127301666D01*
X133935214Y-127149285D01*
X133982833Y-127073095D01*
X134078071Y-126996904D01*
X134268547Y-126920714D01*
X134363785Y-126844523D01*
X134411404Y-126768333D01*
X134459023Y-126615952D01*
X134459023Y-126463571D01*
X134411404Y-126311190D01*
X134363785Y-126235000D01*
X134268547Y-126158809D01*
X134030452Y-126158809D01*
X133887595Y-126235000D01*
X133459023Y-127758809D02*
X133459023Y-126158809D01*
X133220928Y-126158809D01*
X133078071Y-126235000D01*
X132982833Y-126387380D01*
X132935214Y-126539761D01*
X132887595Y-126844523D01*
X132887595Y-127073095D01*
X132935214Y-127377857D01*
X132982833Y-127530238D01*
X133078071Y-127682619D01*
X133220928Y-127758809D01*
X133459023Y-127758809D01*
X132506642Y-126311190D02*
X132459023Y-126235000D01*
X132363785Y-126158809D01*
X132125690Y-126158809D01*
X132030452Y-126235000D01*
X131982833Y-126311190D01*
X131935214Y-126463571D01*
X131935214Y-126615952D01*
X131982833Y-126844523D01*
X132554261Y-127758809D01*
X131935214Y-127758809D01*
X133839976Y-130156428D02*
X133887595Y-130232619D01*
X134030452Y-130308809D01*
X134125690Y-130308809D01*
X134268547Y-130232619D01*
X134363785Y-130080238D01*
X134411404Y-129927857D01*
X134459023Y-129623095D01*
X134459023Y-129394523D01*
X134411404Y-129089761D01*
X134363785Y-128937380D01*
X134268547Y-128785000D01*
X134125690Y-128708809D01*
X134030452Y-128708809D01*
X133887595Y-128785000D01*
X133839976Y-128861190D01*
X133411404Y-130308809D02*
X133411404Y-128708809D01*
X133078071Y-129851666D01*
X132744738Y-128708809D01*
X132744738Y-130308809D01*
X132268547Y-130308809D02*
X132268547Y-128708809D01*
X132030452Y-128708809D01*
X131887595Y-128785000D01*
X131792357Y-128937380D01*
X131744738Y-129089761D01*
X131697119Y-129394523D01*
X131697119Y-129623095D01*
X131744738Y-129927857D01*
X131792357Y-130080238D01*
X131887595Y-130232619D01*
X132030452Y-130308809D01*
X132268547Y-130308809D01*
X138475476Y-107358809D02*
X138808809Y-106596904D01*
X139046904Y-107358809D02*
X139046904Y-105758809D01*
X138665952Y-105758809D01*
X138570714Y-105835000D01*
X138523095Y-105911190D01*
X138475476Y-106063571D01*
X138475476Y-106292142D01*
X138523095Y-106444523D01*
X138570714Y-106520714D01*
X138665952Y-106596904D01*
X139046904Y-106596904D01*
X138094523Y-107282619D02*
X137951666Y-107358809D01*
X137713571Y-107358809D01*
X137618333Y-107282619D01*
X137570714Y-107206428D01*
X137523095Y-107054047D01*
X137523095Y-106901666D01*
X137570714Y-106749285D01*
X137618333Y-106673095D01*
X137713571Y-106596904D01*
X137904047Y-106520714D01*
X137999285Y-106444523D01*
X138046904Y-106368333D01*
X138094523Y-106215952D01*
X138094523Y-106063571D01*
X138046904Y-105911190D01*
X137999285Y-105835000D01*
X137904047Y-105758809D01*
X137665952Y-105758809D01*
X137523095Y-105835000D01*
X137237380Y-105758809D02*
X136665952Y-105758809D01*
X136951666Y-107358809D02*
X136951666Y-105758809D01*
X139094523Y-109832619D02*
X138951666Y-109908809D01*
X138713571Y-109908809D01*
X138618333Y-109832619D01*
X138570714Y-109756428D01*
X138523095Y-109604047D01*
X138523095Y-109451666D01*
X138570714Y-109299285D01*
X138618333Y-109223095D01*
X138713571Y-109146904D01*
X138904047Y-109070714D01*
X138999285Y-108994523D01*
X139046904Y-108918333D01*
X139094523Y-108765952D01*
X139094523Y-108613571D01*
X139046904Y-108461190D01*
X138999285Y-108385000D01*
X138904047Y-108308809D01*
X138665952Y-108308809D01*
X138523095Y-108385000D01*
X138237380Y-108308809D02*
X137904047Y-109908809D01*
X137570714Y-108308809D01*
X137237380Y-109908809D02*
X137237380Y-108308809D01*
X136856428Y-108308809D01*
X136761190Y-108385000D01*
X136713571Y-108461190D01*
X136665952Y-108613571D01*
X136665952Y-108842142D01*
X136713571Y-108994523D01*
X136761190Y-109070714D01*
X136856428Y-109146904D01*
X137237380Y-109146904D01*
X139046904Y-112458809D02*
X139046904Y-110858809D01*
X138380238Y-110858809D02*
X138189761Y-110858809D01*
X138094523Y-110935000D01*
X137999285Y-111087380D01*
X137951666Y-111392142D01*
X137951666Y-111925476D01*
X137999285Y-112230238D01*
X138094523Y-112382619D01*
X138189761Y-112458809D01*
X138380238Y-112458809D01*
X138475476Y-112382619D01*
X138570714Y-112230238D01*
X138618333Y-111925476D01*
X138618333Y-111392142D01*
X138570714Y-111087380D01*
X138475476Y-110935000D01*
X138380238Y-110858809D01*
X137570714Y-111011190D02*
X137523095Y-110935000D01*
X137427857Y-110858809D01*
X137189761Y-110858809D01*
X137094523Y-110935000D01*
X137046904Y-111011190D01*
X136999285Y-111163571D01*
X136999285Y-111315952D01*
X137046904Y-111544523D01*
X137618333Y-112458809D01*
X136999285Y-112458809D01*
X136142142Y-110858809D02*
X136332619Y-110858809D01*
X136427857Y-110935000D01*
X136475476Y-111011190D01*
X136570714Y-111239761D01*
X136618333Y-111544523D01*
X136618333Y-112154047D01*
X136570714Y-112306428D01*
X136523095Y-112382619D01*
X136427857Y-112458809D01*
X136237380Y-112458809D01*
X136142142Y-112382619D01*
X136094523Y-112306428D01*
X136046904Y-112154047D01*
X136046904Y-111773095D01*
X136094523Y-111620714D01*
X136142142Y-111544523D01*
X136237380Y-111468333D01*
X136427857Y-111468333D01*
X136523095Y-111544523D01*
X136570714Y-111620714D01*
X136618333Y-111773095D01*
X139046904Y-115008809D02*
X139046904Y-113408809D01*
X138380238Y-113408809D02*
X138189761Y-113408809D01*
X138094523Y-113485000D01*
X137999285Y-113637380D01*
X137951666Y-113942142D01*
X137951666Y-114475476D01*
X137999285Y-114780238D01*
X138094523Y-114932619D01*
X138189761Y-115008809D01*
X138380238Y-115008809D01*
X138475476Y-114932619D01*
X138570714Y-114780238D01*
X138618333Y-114475476D01*
X138618333Y-113942142D01*
X138570714Y-113637380D01*
X138475476Y-113485000D01*
X138380238Y-113408809D01*
X136999285Y-115008809D02*
X137570714Y-115008809D01*
X137285000Y-115008809D02*
X137285000Y-113408809D01*
X137380238Y-113637380D01*
X137475476Y-113789761D01*
X137570714Y-113865952D01*
X136427857Y-114094523D02*
X136523095Y-114018333D01*
X136570714Y-113942142D01*
X136618333Y-113789761D01*
X136618333Y-113713571D01*
X136570714Y-113561190D01*
X136523095Y-113485000D01*
X136427857Y-113408809D01*
X136237380Y-113408809D01*
X136142142Y-113485000D01*
X136094523Y-113561190D01*
X136046904Y-113713571D01*
X136046904Y-113789761D01*
X136094523Y-113942142D01*
X136142142Y-114018333D01*
X136237380Y-114094523D01*
X136427857Y-114094523D01*
X136523095Y-114170714D01*
X136570714Y-114246904D01*
X136618333Y-114399285D01*
X136618333Y-114704047D01*
X136570714Y-114856428D01*
X136523095Y-114932619D01*
X136427857Y-115008809D01*
X136237380Y-115008809D01*
X136142142Y-114932619D01*
X136094523Y-114856428D01*
X136046904Y-114704047D01*
X136046904Y-114399285D01*
X136094523Y-114246904D01*
X136142142Y-114170714D01*
X136237380Y-114094523D01*
X139046904Y-117558809D02*
X139046904Y-115958809D01*
X138380238Y-115958809D02*
X138189761Y-115958809D01*
X138094523Y-116035000D01*
X137999285Y-116187380D01*
X137951666Y-116492142D01*
X137951666Y-117025476D01*
X137999285Y-117330238D01*
X138094523Y-117482619D01*
X138189761Y-117558809D01*
X138380238Y-117558809D01*
X138475476Y-117482619D01*
X138570714Y-117330238D01*
X138618333Y-117025476D01*
X138618333Y-116492142D01*
X138570714Y-116187380D01*
X138475476Y-116035000D01*
X138380238Y-115958809D01*
X136999285Y-117558809D02*
X137570714Y-117558809D01*
X137285000Y-117558809D02*
X137285000Y-115958809D01*
X137380238Y-116187380D01*
X137475476Y-116339761D01*
X137570714Y-116415952D01*
X136523095Y-117558809D02*
X136332619Y-117558809D01*
X136237380Y-117482619D01*
X136189761Y-117406428D01*
X136094523Y-117177857D01*
X136046904Y-116873095D01*
X136046904Y-116263571D01*
X136094523Y-116111190D01*
X136142142Y-116035000D01*
X136237380Y-115958809D01*
X136427857Y-115958809D01*
X136523095Y-116035000D01*
X136570714Y-116111190D01*
X136618333Y-116263571D01*
X136618333Y-116644523D01*
X136570714Y-116796904D01*
X136523095Y-116873095D01*
X136427857Y-116949285D01*
X136237380Y-116949285D01*
X136142142Y-116873095D01*
X136094523Y-116796904D01*
X136046904Y-116644523D01*
X139046904Y-120108809D02*
X139046904Y-118508809D01*
X138380238Y-118508809D02*
X138189761Y-118508809D01*
X138094523Y-118585000D01*
X137999285Y-118737380D01*
X137951666Y-119042142D01*
X137951666Y-119575476D01*
X137999285Y-119880238D01*
X138094523Y-120032619D01*
X138189761Y-120108809D01*
X138380238Y-120108809D01*
X138475476Y-120032619D01*
X138570714Y-119880238D01*
X138618333Y-119575476D01*
X138618333Y-119042142D01*
X138570714Y-118737380D01*
X138475476Y-118585000D01*
X138380238Y-118508809D01*
X137570714Y-118661190D02*
X137523095Y-118585000D01*
X137427857Y-118508809D01*
X137189761Y-118508809D01*
X137094523Y-118585000D01*
X137046904Y-118661190D01*
X136999285Y-118813571D01*
X136999285Y-118965952D01*
X137046904Y-119194523D01*
X137618333Y-120108809D01*
X136999285Y-120108809D01*
X136665952Y-118508809D02*
X136046904Y-118508809D01*
X136380238Y-119118333D01*
X136237380Y-119118333D01*
X136142142Y-119194523D01*
X136094523Y-119270714D01*
X136046904Y-119423095D01*
X136046904Y-119804047D01*
X136094523Y-119956428D01*
X136142142Y-120032619D01*
X136237380Y-120108809D01*
X136523095Y-120108809D01*
X136618333Y-120032619D01*
X136665952Y-119956428D01*
X139046904Y-122658809D02*
X139046904Y-121058809D01*
X138380238Y-121058809D02*
X138189761Y-121058809D01*
X138094523Y-121135000D01*
X137999285Y-121287380D01*
X137951666Y-121592142D01*
X137951666Y-122125476D01*
X137999285Y-122430238D01*
X138094523Y-122582619D01*
X138189761Y-122658809D01*
X138380238Y-122658809D01*
X138475476Y-122582619D01*
X138570714Y-122430238D01*
X138618333Y-122125476D01*
X138618333Y-121592142D01*
X138570714Y-121287380D01*
X138475476Y-121135000D01*
X138380238Y-121058809D01*
X137046904Y-121058809D02*
X137523095Y-121058809D01*
X137570714Y-121820714D01*
X137523095Y-121744523D01*
X137427857Y-121668333D01*
X137189761Y-121668333D01*
X137094523Y-121744523D01*
X137046904Y-121820714D01*
X136999285Y-121973095D01*
X136999285Y-122354047D01*
X137046904Y-122506428D01*
X137094523Y-122582619D01*
X137189761Y-122658809D01*
X137427857Y-122658809D01*
X137523095Y-122582619D01*
X137570714Y-122506428D01*
X139142142Y-123608809D02*
X138523095Y-123608809D01*
X138856428Y-124218333D01*
X138713571Y-124218333D01*
X138618333Y-124294523D01*
X138570714Y-124370714D01*
X138523095Y-124523095D01*
X138523095Y-124904047D01*
X138570714Y-125056428D01*
X138618333Y-125132619D01*
X138713571Y-125208809D01*
X138999285Y-125208809D01*
X139094523Y-125132619D01*
X139142142Y-125056428D01*
X138094523Y-125056428D02*
X138046904Y-125132619D01*
X138094523Y-125208809D01*
X138142142Y-125132619D01*
X138094523Y-125056428D01*
X138094523Y-125208809D01*
X137713571Y-123608809D02*
X137094523Y-123608809D01*
X137427857Y-124218333D01*
X137285000Y-124218333D01*
X137189761Y-124294523D01*
X137142142Y-124370714D01*
X137094523Y-124523095D01*
X137094523Y-124904047D01*
X137142142Y-125056428D01*
X137189761Y-125132619D01*
X137285000Y-125208809D01*
X137570714Y-125208809D01*
X137665952Y-125132619D01*
X137713571Y-125056428D01*
X136761190Y-124142142D02*
X136523095Y-125208809D01*
X136285000Y-124142142D01*
X139189761Y-126158809D02*
X138618333Y-126158809D01*
X138904047Y-127758809D02*
X138904047Y-126158809D01*
X137713571Y-127606428D02*
X137761190Y-127682619D01*
X137904047Y-127758809D01*
X137999285Y-127758809D01*
X138142142Y-127682619D01*
X138237380Y-127530238D01*
X138285000Y-127377857D01*
X138332619Y-127073095D01*
X138332619Y-126844523D01*
X138285000Y-126539761D01*
X138237380Y-126387380D01*
X138142142Y-126235000D01*
X137999285Y-126158809D01*
X137904047Y-126158809D01*
X137761190Y-126235000D01*
X137713571Y-126311190D01*
X137285000Y-127758809D02*
X137285000Y-126158809D01*
X136713571Y-127758809D02*
X137142142Y-126844523D01*
X136713571Y-126158809D02*
X137285000Y-127073095D01*
X139094523Y-130232619D02*
X138951666Y-130308809D01*
X138713571Y-130308809D01*
X138618333Y-130232619D01*
X138570714Y-130156428D01*
X138523095Y-130004047D01*
X138523095Y-129851666D01*
X138570714Y-129699285D01*
X138618333Y-129623095D01*
X138713571Y-129546904D01*
X138904047Y-129470714D01*
X138999285Y-129394523D01*
X139046904Y-129318333D01*
X139094523Y-129165952D01*
X139094523Y-129013571D01*
X139046904Y-128861190D01*
X138999285Y-128785000D01*
X138904047Y-128708809D01*
X138665952Y-128708809D01*
X138523095Y-128785000D01*
X138094523Y-130308809D02*
X138094523Y-128708809D01*
X137856428Y-128708809D01*
X137713571Y-128785000D01*
X137618333Y-128937380D01*
X137570714Y-129089761D01*
X137523095Y-129394523D01*
X137523095Y-129623095D01*
X137570714Y-129927857D01*
X137618333Y-130080238D01*
X137713571Y-130232619D01*
X137856428Y-130308809D01*
X138094523Y-130308809D01*
X137189761Y-128708809D02*
X136570714Y-128708809D01*
X136904047Y-129318333D01*
X136761190Y-129318333D01*
X136665952Y-129394523D01*
X136618333Y-129470714D01*
X136570714Y-129623095D01*
X136570714Y-130004047D01*
X136618333Y-130156428D01*
X136665952Y-130232619D01*
X136761190Y-130308809D01*
X137046904Y-130308809D01*
X137142142Y-130232619D01*
X137189761Y-130156428D01*
D12*
X141902571Y-106534571D02*
X140402571Y-106534571D01*
X141902571Y-107177428D02*
X141116857Y-107177428D01*
X140974000Y-107106000D01*
X140902571Y-106963142D01*
X140902571Y-106748857D01*
X140974000Y-106606000D01*
X141045428Y-106534571D01*
X140902571Y-107677428D02*
X140902571Y-108248857D01*
X140402571Y-107891714D02*
X141688285Y-107891714D01*
X141831142Y-107963142D01*
X141902571Y-108106000D01*
X141902571Y-108248857D01*
X140902571Y-108534571D02*
X140902571Y-109106000D01*
X140402571Y-108748857D02*
X141688285Y-108748857D01*
X141831142Y-108820285D01*
X141902571Y-108963142D01*
X141902571Y-109106000D01*
X140902571Y-109606000D02*
X142402571Y-109606000D01*
X140974000Y-109606000D02*
X140902571Y-109748857D01*
X140902571Y-110034571D01*
X140974000Y-110177428D01*
X141045428Y-110248857D01*
X141188285Y-110320285D01*
X141616857Y-110320285D01*
X141759714Y-110248857D01*
X141831142Y-110177428D01*
X141902571Y-110034571D01*
X141902571Y-109748857D01*
X141831142Y-109606000D01*
X141831142Y-110891714D02*
X141902571Y-111034571D01*
X141902571Y-111320285D01*
X141831142Y-111463142D01*
X141688285Y-111534571D01*
X141616857Y-111534571D01*
X141474000Y-111463142D01*
X141402571Y-111320285D01*
X141402571Y-111106000D01*
X141331142Y-110963142D01*
X141188285Y-110891714D01*
X141116857Y-110891714D01*
X140974000Y-110963142D01*
X140902571Y-111106000D01*
X140902571Y-111320285D01*
X140974000Y-111463142D01*
X141759714Y-112177428D02*
X141831142Y-112248857D01*
X141902571Y-112177428D01*
X141831142Y-112106000D01*
X141759714Y-112177428D01*
X141902571Y-112177428D01*
X140974000Y-112177428D02*
X141045428Y-112248857D01*
X141116857Y-112177428D01*
X141045428Y-112106000D01*
X140974000Y-112177428D01*
X141116857Y-112177428D01*
X140331142Y-113963142D02*
X142259714Y-112677428D01*
X140331142Y-115534571D02*
X142259714Y-114248857D01*
X140902571Y-116677428D02*
X142116857Y-116677428D01*
X142259714Y-116606000D01*
X142331142Y-116534571D01*
X142402571Y-116391714D01*
X142402571Y-116177428D01*
X142331142Y-116034571D01*
X141831142Y-116677428D02*
X141902571Y-116534571D01*
X141902571Y-116248857D01*
X141831142Y-116106000D01*
X141759714Y-116034571D01*
X141616857Y-115963142D01*
X141188285Y-115963142D01*
X141045428Y-116034571D01*
X140974000Y-116106000D01*
X140902571Y-116248857D01*
X140902571Y-116534571D01*
X140974000Y-116677428D01*
X141902571Y-117391714D02*
X140902571Y-117391714D01*
X140402571Y-117391714D02*
X140474000Y-117320285D01*
X140545428Y-117391714D01*
X140474000Y-117463142D01*
X140402571Y-117391714D01*
X140545428Y-117391714D01*
X140902571Y-117891714D02*
X140902571Y-118463142D01*
X140402571Y-118106000D02*
X141688285Y-118106000D01*
X141831142Y-118177428D01*
X141902571Y-118320285D01*
X141902571Y-118463142D01*
X141759714Y-118963142D02*
X141831142Y-119034571D01*
X141902571Y-118963142D01*
X141831142Y-118891714D01*
X141759714Y-118963142D01*
X141902571Y-118963142D01*
X141902571Y-119677428D02*
X140902571Y-119677428D01*
X140402571Y-119677428D02*
X140474000Y-119606000D01*
X140545428Y-119677428D01*
X140474000Y-119748857D01*
X140402571Y-119677428D01*
X140545428Y-119677428D01*
X141902571Y-120606000D02*
X141831142Y-120463142D01*
X141759714Y-120391714D01*
X141616857Y-120320285D01*
X141188285Y-120320285D01*
X141045428Y-120391714D01*
X140974000Y-120463142D01*
X140902571Y-120606000D01*
X140902571Y-120820285D01*
X140974000Y-120963142D01*
X141045428Y-121034571D01*
X141188285Y-121106000D01*
X141616857Y-121106000D01*
X141759714Y-121034571D01*
X141831142Y-120963142D01*
X141902571Y-120820285D01*
X141902571Y-120606000D01*
X140331142Y-122820285D02*
X142259714Y-121534571D01*
X140402571Y-123748857D02*
X141474000Y-123748857D01*
X141688285Y-123677428D01*
X141831142Y-123534571D01*
X141902571Y-123320285D01*
X141902571Y-123177428D01*
X140402571Y-124891714D02*
X141474000Y-124891714D01*
X141688285Y-124820285D01*
X141831142Y-124677428D01*
X141902571Y-124463142D01*
X141902571Y-124320285D01*
X141474000Y-125534571D02*
X141474000Y-126248857D01*
X141902571Y-125391714D02*
X140402571Y-125891714D01*
X141902571Y-126391714D01*
X141902571Y-126891714D02*
X140402571Y-126891714D01*
X141902571Y-127748857D02*
X141045428Y-127106000D01*
X140402571Y-127748857D02*
X141259714Y-126891714D01*
X140474000Y-129177428D02*
X140402571Y-129034571D01*
X140402571Y-128820285D01*
X140474000Y-128606000D01*
X140616857Y-128463142D01*
X140759714Y-128391714D01*
X141045428Y-128320285D01*
X141259714Y-128320285D01*
X141545428Y-128391714D01*
X141688285Y-128463142D01*
X141831142Y-128606000D01*
X141902571Y-128820285D01*
X141902571Y-128963142D01*
X141831142Y-129177428D01*
X141759714Y-129248857D01*
X141259714Y-129248857D01*
X141259714Y-128963142D01*
D13*
%TO.C,G\u002A\u002A\u002A*%
G36*
X129771348Y-125606584D02*
G01*
X130149769Y-125468333D01*
X130473009Y-125205605D01*
X130618107Y-125001520D01*
X130807214Y-124671667D01*
X130807214Y-106468333D01*
X130618107Y-106138481D01*
X130338225Y-105803583D01*
X129967190Y-105579412D01*
X129553201Y-105494751D01*
X129539999Y-105494667D01*
X129257962Y-105536689D01*
X128970513Y-105639116D01*
X128946012Y-105651647D01*
X128712454Y-105829647D01*
X128501770Y-106075045D01*
X128461892Y-106138481D01*
X128272785Y-106468333D01*
X128272740Y-106768258D01*
X128667334Y-106768258D01*
X128714171Y-106426318D01*
X128734421Y-106373587D01*
X128948233Y-106056533D01*
X129259829Y-105874329D01*
X129540000Y-105833333D01*
X129806178Y-105872708D01*
X130032863Y-105967799D01*
X130038104Y-105971399D01*
X130253487Y-106206991D01*
X130390829Y-106520825D01*
X130417437Y-106835156D01*
X130412925Y-106862706D01*
X130323240Y-107070601D01*
X130158956Y-107288402D01*
X130128773Y-107318730D01*
X129830207Y-107509027D01*
X129512986Y-107558952D01*
X129207600Y-107489171D01*
X128944537Y-107320351D01*
X128754285Y-107073158D01*
X128667334Y-106768258D01*
X128272740Y-106768258D01*
X128272351Y-109308258D01*
X128667334Y-109308258D01*
X128714171Y-108966318D01*
X128734421Y-108913587D01*
X128948233Y-108596533D01*
X129259829Y-108414329D01*
X129540000Y-108373333D01*
X129806178Y-108412708D01*
X130032863Y-108507799D01*
X130038104Y-108511399D01*
X130253487Y-108746991D01*
X130390829Y-109060825D01*
X130417437Y-109375156D01*
X130412925Y-109402706D01*
X130323240Y-109610601D01*
X130158956Y-109828402D01*
X130128773Y-109858730D01*
X129830207Y-110049027D01*
X129512986Y-110098952D01*
X129207600Y-110029171D01*
X128944537Y-109860351D01*
X128754285Y-109613158D01*
X128667334Y-109308258D01*
X128272351Y-109308258D01*
X128271976Y-111752451D01*
X128670242Y-111752451D01*
X128696492Y-111482839D01*
X128802260Y-111286799D01*
X128937123Y-111151792D01*
X129255166Y-110964968D01*
X129609515Y-110911635D01*
X129946391Y-110996697D01*
X130038104Y-111051399D01*
X130253487Y-111286991D01*
X130390829Y-111600825D01*
X130417437Y-111915156D01*
X130412925Y-111942706D01*
X130323240Y-112150601D01*
X130158956Y-112368402D01*
X130128773Y-112398730D01*
X129824739Y-112590671D01*
X129497253Y-112639918D01*
X129182202Y-112562372D01*
X128915475Y-112373936D01*
X128732958Y-112090512D01*
X128670242Y-111752451D01*
X128271976Y-111752451D01*
X128271585Y-114303510D01*
X128670242Y-114303510D01*
X128741078Y-113943825D01*
X128930549Y-113670652D01*
X129204101Y-113498343D01*
X129527181Y-113441252D01*
X129865233Y-113513733D01*
X130142876Y-113691792D01*
X130352751Y-113974760D01*
X130422706Y-114290895D01*
X130367403Y-114604249D01*
X130201508Y-114878872D01*
X129939685Y-115078813D01*
X129596597Y-115168125D01*
X129540000Y-115169758D01*
X129170126Y-115094815D01*
X128884406Y-114888396D01*
X128710567Y-114578115D01*
X128670242Y-114303510D01*
X128271585Y-114303510D01*
X128271392Y-115557205D01*
X128271355Y-116771015D01*
X128661731Y-116771015D01*
X128767759Y-116430930D01*
X128905117Y-116247211D01*
X129221106Y-116015955D01*
X129557283Y-115950314D01*
X129898661Y-116050260D01*
X130165378Y-116249368D01*
X130368528Y-116550518D01*
X130421151Y-116890043D01*
X130323071Y-117228412D01*
X130170705Y-117437150D01*
X129977213Y-117602104D01*
X129767198Y-117673902D01*
X129540000Y-117686667D01*
X129259439Y-117664079D01*
X129060541Y-117574104D01*
X128909294Y-117437150D01*
X128708956Y-117119562D01*
X128661731Y-116771015D01*
X128271355Y-116771015D01*
X128271347Y-117005185D01*
X128271775Y-118293429D01*
X128272770Y-119383350D01*
X128659597Y-119383350D01*
X128725104Y-119057218D01*
X128905117Y-118787211D01*
X129221106Y-118555955D01*
X129557283Y-118490314D01*
X129898661Y-118590260D01*
X130165378Y-118789368D01*
X130364930Y-119080760D01*
X130422370Y-119398728D01*
X130353137Y-119707786D01*
X130172669Y-119972451D01*
X129896407Y-120157239D01*
X129539999Y-120226667D01*
X129179916Y-120156172D01*
X128902694Y-119968403D01*
X128724024Y-119698937D01*
X128659597Y-119383350D01*
X128272770Y-119383350D01*
X128272814Y-119431536D01*
X128274605Y-120429102D01*
X128277285Y-121295724D01*
X128280363Y-121914185D01*
X128662175Y-121914185D01*
X128730411Y-121587695D01*
X128905117Y-121327211D01*
X129222167Y-121096983D01*
X129562166Y-121031142D01*
X129905998Y-121130051D01*
X130145457Y-121303722D01*
X130363421Y-121604573D01*
X130417123Y-121944510D01*
X130345578Y-122226413D01*
X130132474Y-122543021D01*
X129819875Y-122724191D01*
X129522496Y-122766667D01*
X129168931Y-122695023D01*
X128897187Y-122504577D01*
X128723018Y-122232055D01*
X128662175Y-121914185D01*
X128280363Y-121914185D01*
X128280995Y-122041001D01*
X128285873Y-122674529D01*
X128292059Y-123205906D01*
X128299692Y-123644730D01*
X128308911Y-124000598D01*
X128319855Y-124283107D01*
X128326850Y-124402567D01*
X128660619Y-124402567D01*
X128752837Y-124069788D01*
X128934542Y-123841048D01*
X129264340Y-123624138D01*
X129606154Y-123574665D01*
X129946918Y-123692599D01*
X130145457Y-123843722D01*
X130363421Y-124144573D01*
X130417123Y-124484510D01*
X130345578Y-124766413D01*
X130131766Y-125083467D01*
X129820170Y-125265672D01*
X129539999Y-125306667D01*
X129168046Y-125230883D01*
X128880822Y-125011494D01*
X128734421Y-124766413D01*
X128660619Y-124402567D01*
X128326850Y-124402567D01*
X128332664Y-124501855D01*
X128347478Y-124666439D01*
X128364434Y-124786456D01*
X128383672Y-124871505D01*
X128405332Y-124931182D01*
X128407438Y-124935705D01*
X128655790Y-125284919D01*
X128989278Y-125513832D01*
X129372824Y-125621402D01*
X129771348Y-125606584D01*
G37*
X129771348Y-125606584D02*
X130149769Y-125468333D01*
X130473009Y-125205605D01*
X130618107Y-125001520D01*
X130807214Y-124671667D01*
X130807214Y-106468333D01*
X130618107Y-106138481D01*
X130338225Y-105803583D01*
X129967190Y-105579412D01*
X129553201Y-105494751D01*
X129539999Y-105494667D01*
X129257962Y-105536689D01*
X128970513Y-105639116D01*
X128946012Y-105651647D01*
X128712454Y-105829647D01*
X128501770Y-106075045D01*
X128461892Y-106138481D01*
X128272785Y-106468333D01*
X128272740Y-106768258D01*
X128667334Y-106768258D01*
X128714171Y-106426318D01*
X128734421Y-106373587D01*
X128948233Y-106056533D01*
X129259829Y-105874329D01*
X129540000Y-105833333D01*
X129806178Y-105872708D01*
X130032863Y-105967799D01*
X130038104Y-105971399D01*
X130253487Y-106206991D01*
X130390829Y-106520825D01*
X130417437Y-106835156D01*
X130412925Y-106862706D01*
X130323240Y-107070601D01*
X130158956Y-107288402D01*
X130128773Y-107318730D01*
X129830207Y-107509027D01*
X129512986Y-107558952D01*
X129207600Y-107489171D01*
X128944537Y-107320351D01*
X128754285Y-107073158D01*
X128667334Y-106768258D01*
X128272740Y-106768258D01*
X128272351Y-109308258D01*
X128667334Y-109308258D01*
X128714171Y-108966318D01*
X128734421Y-108913587D01*
X128948233Y-108596533D01*
X129259829Y-108414329D01*
X129540000Y-108373333D01*
X129806178Y-108412708D01*
X130032863Y-108507799D01*
X130038104Y-108511399D01*
X130253487Y-108746991D01*
X130390829Y-109060825D01*
X130417437Y-109375156D01*
X130412925Y-109402706D01*
X130323240Y-109610601D01*
X130158956Y-109828402D01*
X130128773Y-109858730D01*
X129830207Y-110049027D01*
X129512986Y-110098952D01*
X129207600Y-110029171D01*
X128944537Y-109860351D01*
X128754285Y-109613158D01*
X128667334Y-109308258D01*
X128272351Y-109308258D01*
X128271976Y-111752451D01*
X128670242Y-111752451D01*
X128696492Y-111482839D01*
X128802260Y-111286799D01*
X128937123Y-111151792D01*
X129255166Y-110964968D01*
X129609515Y-110911635D01*
X129946391Y-110996697D01*
X130038104Y-111051399D01*
X130253487Y-111286991D01*
X130390829Y-111600825D01*
X130417437Y-111915156D01*
X130412925Y-111942706D01*
X130323240Y-112150601D01*
X130158956Y-112368402D01*
X130128773Y-112398730D01*
X129824739Y-112590671D01*
X129497253Y-112639918D01*
X129182202Y-112562372D01*
X128915475Y-112373936D01*
X128732958Y-112090512D01*
X128670242Y-111752451D01*
X128271976Y-111752451D01*
X128271585Y-114303510D01*
X128670242Y-114303510D01*
X128741078Y-113943825D01*
X128930549Y-113670652D01*
X129204101Y-113498343D01*
X129527181Y-113441252D01*
X129865233Y-113513733D01*
X130142876Y-113691792D01*
X130352751Y-113974760D01*
X130422706Y-114290895D01*
X130367403Y-114604249D01*
X130201508Y-114878872D01*
X129939685Y-115078813D01*
X129596597Y-115168125D01*
X129540000Y-115169758D01*
X129170126Y-115094815D01*
X128884406Y-114888396D01*
X128710567Y-114578115D01*
X128670242Y-114303510D01*
X128271585Y-114303510D01*
X128271392Y-115557205D01*
X128271355Y-116771015D01*
X128661731Y-116771015D01*
X128767759Y-116430930D01*
X128905117Y-116247211D01*
X129221106Y-116015955D01*
X129557283Y-115950314D01*
X129898661Y-116050260D01*
X130165378Y-116249368D01*
X130368528Y-116550518D01*
X130421151Y-116890043D01*
X130323071Y-117228412D01*
X130170705Y-117437150D01*
X129977213Y-117602104D01*
X129767198Y-117673902D01*
X129540000Y-117686667D01*
X129259439Y-117664079D01*
X129060541Y-117574104D01*
X128909294Y-117437150D01*
X128708956Y-117119562D01*
X128661731Y-116771015D01*
X128271355Y-116771015D01*
X128271347Y-117005185D01*
X128271775Y-118293429D01*
X128272770Y-119383350D01*
X128659597Y-119383350D01*
X128725104Y-119057218D01*
X128905117Y-118787211D01*
X129221106Y-118555955D01*
X129557283Y-118490314D01*
X129898661Y-118590260D01*
X130165378Y-118789368D01*
X130364930Y-119080760D01*
X130422370Y-119398728D01*
X130353137Y-119707786D01*
X130172669Y-119972451D01*
X129896407Y-120157239D01*
X129539999Y-120226667D01*
X129179916Y-120156172D01*
X128902694Y-119968403D01*
X128724024Y-119698937D01*
X128659597Y-119383350D01*
X128272770Y-119383350D01*
X128272814Y-119431536D01*
X128274605Y-120429102D01*
X128277285Y-121295724D01*
X128280363Y-121914185D01*
X128662175Y-121914185D01*
X128730411Y-121587695D01*
X128905117Y-121327211D01*
X129222167Y-121096983D01*
X129562166Y-121031142D01*
X129905998Y-121130051D01*
X130145457Y-121303722D01*
X130363421Y-121604573D01*
X130417123Y-121944510D01*
X130345578Y-122226413D01*
X130132474Y-122543021D01*
X129819875Y-122724191D01*
X129522496Y-122766667D01*
X129168931Y-122695023D01*
X128897187Y-122504577D01*
X128723018Y-122232055D01*
X128662175Y-121914185D01*
X128280363Y-121914185D01*
X128280995Y-122041001D01*
X128285873Y-122674529D01*
X128292059Y-123205906D01*
X128299692Y-123644730D01*
X128308911Y-124000598D01*
X128319855Y-124283107D01*
X128326850Y-124402567D01*
X128660619Y-124402567D01*
X128752837Y-124069788D01*
X128934542Y-123841048D01*
X129264340Y-123624138D01*
X129606154Y-123574665D01*
X129946918Y-123692599D01*
X130145457Y-123843722D01*
X130363421Y-124144573D01*
X130417123Y-124484510D01*
X130345578Y-124766413D01*
X130131766Y-125083467D01*
X129820170Y-125265672D01*
X129539999Y-125306667D01*
X129168046Y-125230883D01*
X128880822Y-125011494D01*
X128734421Y-124766413D01*
X128660619Y-124402567D01*
X128326850Y-124402567D01*
X128332664Y-124501855D01*
X128347478Y-124666439D01*
X128364434Y-124786456D01*
X128383672Y-124871505D01*
X128405332Y-124931182D01*
X128407438Y-124935705D01*
X128655790Y-125284919D01*
X128989278Y-125513832D01*
X129372824Y-125621402D01*
X129771348Y-125606584D01*
G36*
X152631348Y-125606584D02*
G01*
X153009769Y-125468333D01*
X153333009Y-125205605D01*
X153478107Y-125001520D01*
X153667214Y-124671667D01*
X153667214Y-106468333D01*
X153478107Y-106138481D01*
X153198225Y-105803583D01*
X152827190Y-105579412D01*
X152413201Y-105494751D01*
X152399999Y-105494667D01*
X152117962Y-105536689D01*
X151830513Y-105639116D01*
X151806012Y-105651647D01*
X151572454Y-105829647D01*
X151361770Y-106075045D01*
X151321892Y-106138481D01*
X151132785Y-106468333D01*
X151132740Y-106768258D01*
X151527334Y-106768258D01*
X151574171Y-106426318D01*
X151594421Y-106373587D01*
X151808233Y-106056533D01*
X152119829Y-105874329D01*
X152400000Y-105833333D01*
X152666178Y-105872708D01*
X152892863Y-105967799D01*
X152898104Y-105971399D01*
X153113487Y-106206991D01*
X153250829Y-106520825D01*
X153277437Y-106835156D01*
X153272925Y-106862706D01*
X153183240Y-107070601D01*
X153018956Y-107288402D01*
X152988773Y-107318730D01*
X152690207Y-107509027D01*
X152372986Y-107558952D01*
X152067600Y-107489171D01*
X151804537Y-107320351D01*
X151614285Y-107073158D01*
X151527334Y-106768258D01*
X151132740Y-106768258D01*
X151132351Y-109308258D01*
X151527334Y-109308258D01*
X151574171Y-108966318D01*
X151594421Y-108913587D01*
X151808233Y-108596533D01*
X152119829Y-108414329D01*
X152400000Y-108373333D01*
X152666178Y-108412708D01*
X152892863Y-108507799D01*
X152898104Y-108511399D01*
X153113487Y-108746991D01*
X153250829Y-109060825D01*
X153277437Y-109375156D01*
X153272925Y-109402706D01*
X153183240Y-109610601D01*
X153018956Y-109828402D01*
X152988773Y-109858730D01*
X152690207Y-110049027D01*
X152372986Y-110098952D01*
X152067600Y-110029171D01*
X151804537Y-109860351D01*
X151614285Y-109613158D01*
X151527334Y-109308258D01*
X151132351Y-109308258D01*
X151131976Y-111752451D01*
X151530242Y-111752451D01*
X151556492Y-111482839D01*
X151662260Y-111286799D01*
X151797123Y-111151792D01*
X152115166Y-110964968D01*
X152469515Y-110911635D01*
X152806391Y-110996697D01*
X152898104Y-111051399D01*
X153113487Y-111286991D01*
X153250829Y-111600825D01*
X153277437Y-111915156D01*
X153272925Y-111942706D01*
X153183240Y-112150601D01*
X153018956Y-112368402D01*
X152988773Y-112398730D01*
X152684739Y-112590671D01*
X152357253Y-112639918D01*
X152042202Y-112562372D01*
X151775475Y-112373936D01*
X151592958Y-112090512D01*
X151530242Y-111752451D01*
X151131976Y-111752451D01*
X151131585Y-114303510D01*
X151530242Y-114303510D01*
X151601078Y-113943825D01*
X151790549Y-113670652D01*
X152064101Y-113498343D01*
X152387181Y-113441252D01*
X152725233Y-113513733D01*
X153002876Y-113691792D01*
X153212751Y-113974760D01*
X153282706Y-114290895D01*
X153227403Y-114604249D01*
X153061508Y-114878872D01*
X152799685Y-115078813D01*
X152456597Y-115168125D01*
X152400000Y-115169758D01*
X152030126Y-115094815D01*
X151744406Y-114888396D01*
X151570567Y-114578115D01*
X151530242Y-114303510D01*
X151131585Y-114303510D01*
X151131392Y-115557205D01*
X151131355Y-116771015D01*
X151521731Y-116771015D01*
X151627759Y-116430930D01*
X151765117Y-116247211D01*
X152081106Y-116015955D01*
X152417283Y-115950314D01*
X152758661Y-116050260D01*
X153025378Y-116249368D01*
X153228528Y-116550518D01*
X153281151Y-116890043D01*
X153183071Y-117228412D01*
X153030705Y-117437150D01*
X152837213Y-117602104D01*
X152627198Y-117673902D01*
X152400000Y-117686667D01*
X152119439Y-117664079D01*
X151920541Y-117574104D01*
X151769294Y-117437150D01*
X151568956Y-117119562D01*
X151521731Y-116771015D01*
X151131355Y-116771015D01*
X151131347Y-117005185D01*
X151131775Y-118293429D01*
X151132770Y-119383350D01*
X151519597Y-119383350D01*
X151585104Y-119057218D01*
X151765117Y-118787211D01*
X152081106Y-118555955D01*
X152417283Y-118490314D01*
X152758661Y-118590260D01*
X153025378Y-118789368D01*
X153224930Y-119080760D01*
X153282370Y-119398728D01*
X153213137Y-119707786D01*
X153032669Y-119972451D01*
X152756407Y-120157239D01*
X152399999Y-120226667D01*
X152039916Y-120156172D01*
X151762694Y-119968403D01*
X151584024Y-119698937D01*
X151519597Y-119383350D01*
X151132770Y-119383350D01*
X151132814Y-119431536D01*
X151134605Y-120429102D01*
X151137285Y-121295724D01*
X151140363Y-121914185D01*
X151522175Y-121914185D01*
X151590411Y-121587695D01*
X151765117Y-121327211D01*
X152082167Y-121096983D01*
X152422166Y-121031142D01*
X152765998Y-121130051D01*
X153005457Y-121303722D01*
X153223421Y-121604573D01*
X153277123Y-121944510D01*
X153205578Y-122226413D01*
X152992474Y-122543021D01*
X152679875Y-122724191D01*
X152382496Y-122766667D01*
X152028931Y-122695023D01*
X151757187Y-122504577D01*
X151583018Y-122232055D01*
X151522175Y-121914185D01*
X151140363Y-121914185D01*
X151140995Y-122041001D01*
X151145873Y-122674529D01*
X151152059Y-123205906D01*
X151159692Y-123644730D01*
X151168911Y-124000598D01*
X151179855Y-124283107D01*
X151186850Y-124402567D01*
X151520619Y-124402567D01*
X151612837Y-124069788D01*
X151794542Y-123841048D01*
X152124340Y-123624138D01*
X152466154Y-123574665D01*
X152806918Y-123692599D01*
X153005457Y-123843722D01*
X153223421Y-124144573D01*
X153277123Y-124484510D01*
X153205578Y-124766413D01*
X152991766Y-125083467D01*
X152680170Y-125265672D01*
X152399999Y-125306667D01*
X152028046Y-125230883D01*
X151740822Y-125011494D01*
X151594421Y-124766413D01*
X151520619Y-124402567D01*
X151186850Y-124402567D01*
X151192664Y-124501855D01*
X151207478Y-124666439D01*
X151224434Y-124786456D01*
X151243672Y-124871505D01*
X151265332Y-124931182D01*
X151267438Y-124935705D01*
X151515790Y-125284919D01*
X151849278Y-125513832D01*
X152232824Y-125621402D01*
X152631348Y-125606584D01*
G37*
X152631348Y-125606584D02*
X153009769Y-125468333D01*
X153333009Y-125205605D01*
X153478107Y-125001520D01*
X153667214Y-124671667D01*
X153667214Y-106468333D01*
X153478107Y-106138481D01*
X153198225Y-105803583D01*
X152827190Y-105579412D01*
X152413201Y-105494751D01*
X152399999Y-105494667D01*
X152117962Y-105536689D01*
X151830513Y-105639116D01*
X151806012Y-105651647D01*
X151572454Y-105829647D01*
X151361770Y-106075045D01*
X151321892Y-106138481D01*
X151132785Y-106468333D01*
X151132740Y-106768258D01*
X151527334Y-106768258D01*
X151574171Y-106426318D01*
X151594421Y-106373587D01*
X151808233Y-106056533D01*
X152119829Y-105874329D01*
X152400000Y-105833333D01*
X152666178Y-105872708D01*
X152892863Y-105967799D01*
X152898104Y-105971399D01*
X153113487Y-106206991D01*
X153250829Y-106520825D01*
X153277437Y-106835156D01*
X153272925Y-106862706D01*
X153183240Y-107070601D01*
X153018956Y-107288402D01*
X152988773Y-107318730D01*
X152690207Y-107509027D01*
X152372986Y-107558952D01*
X152067600Y-107489171D01*
X151804537Y-107320351D01*
X151614285Y-107073158D01*
X151527334Y-106768258D01*
X151132740Y-106768258D01*
X151132351Y-109308258D01*
X151527334Y-109308258D01*
X151574171Y-108966318D01*
X151594421Y-108913587D01*
X151808233Y-108596533D01*
X152119829Y-108414329D01*
X152400000Y-108373333D01*
X152666178Y-108412708D01*
X152892863Y-108507799D01*
X152898104Y-108511399D01*
X153113487Y-108746991D01*
X153250829Y-109060825D01*
X153277437Y-109375156D01*
X153272925Y-109402706D01*
X153183240Y-109610601D01*
X153018956Y-109828402D01*
X152988773Y-109858730D01*
X152690207Y-110049027D01*
X152372986Y-110098952D01*
X152067600Y-110029171D01*
X151804537Y-109860351D01*
X151614285Y-109613158D01*
X151527334Y-109308258D01*
X151132351Y-109308258D01*
X151131976Y-111752451D01*
X151530242Y-111752451D01*
X151556492Y-111482839D01*
X151662260Y-111286799D01*
X151797123Y-111151792D01*
X152115166Y-110964968D01*
X152469515Y-110911635D01*
X152806391Y-110996697D01*
X152898104Y-111051399D01*
X153113487Y-111286991D01*
X153250829Y-111600825D01*
X153277437Y-111915156D01*
X153272925Y-111942706D01*
X153183240Y-112150601D01*
X153018956Y-112368402D01*
X152988773Y-112398730D01*
X152684739Y-112590671D01*
X152357253Y-112639918D01*
X152042202Y-112562372D01*
X151775475Y-112373936D01*
X151592958Y-112090512D01*
X151530242Y-111752451D01*
X151131976Y-111752451D01*
X151131585Y-114303510D01*
X151530242Y-114303510D01*
X151601078Y-113943825D01*
X151790549Y-113670652D01*
X152064101Y-113498343D01*
X152387181Y-113441252D01*
X152725233Y-113513733D01*
X153002876Y-113691792D01*
X153212751Y-113974760D01*
X153282706Y-114290895D01*
X153227403Y-114604249D01*
X153061508Y-114878872D01*
X152799685Y-115078813D01*
X152456597Y-115168125D01*
X152400000Y-115169758D01*
X152030126Y-115094815D01*
X151744406Y-114888396D01*
X151570567Y-114578115D01*
X151530242Y-114303510D01*
X151131585Y-114303510D01*
X151131392Y-115557205D01*
X151131355Y-116771015D01*
X151521731Y-116771015D01*
X151627759Y-116430930D01*
X151765117Y-116247211D01*
X152081106Y-116015955D01*
X152417283Y-115950314D01*
X152758661Y-116050260D01*
X153025378Y-116249368D01*
X153228528Y-116550518D01*
X153281151Y-116890043D01*
X153183071Y-117228412D01*
X153030705Y-117437150D01*
X152837213Y-117602104D01*
X152627198Y-117673902D01*
X152400000Y-117686667D01*
X152119439Y-117664079D01*
X151920541Y-117574104D01*
X151769294Y-117437150D01*
X151568956Y-117119562D01*
X151521731Y-116771015D01*
X151131355Y-116771015D01*
X151131347Y-117005185D01*
X151131775Y-118293429D01*
X151132770Y-119383350D01*
X151519597Y-119383350D01*
X151585104Y-119057218D01*
X151765117Y-118787211D01*
X152081106Y-118555955D01*
X152417283Y-118490314D01*
X152758661Y-118590260D01*
X153025378Y-118789368D01*
X153224930Y-119080760D01*
X153282370Y-119398728D01*
X153213137Y-119707786D01*
X153032669Y-119972451D01*
X152756407Y-120157239D01*
X152399999Y-120226667D01*
X152039916Y-120156172D01*
X151762694Y-119968403D01*
X151584024Y-119698937D01*
X151519597Y-119383350D01*
X151132770Y-119383350D01*
X151132814Y-119431536D01*
X151134605Y-120429102D01*
X151137285Y-121295724D01*
X151140363Y-121914185D01*
X151522175Y-121914185D01*
X151590411Y-121587695D01*
X151765117Y-121327211D01*
X152082167Y-121096983D01*
X152422166Y-121031142D01*
X152765998Y-121130051D01*
X153005457Y-121303722D01*
X153223421Y-121604573D01*
X153277123Y-121944510D01*
X153205578Y-122226413D01*
X152992474Y-122543021D01*
X152679875Y-122724191D01*
X152382496Y-122766667D01*
X152028931Y-122695023D01*
X151757187Y-122504577D01*
X151583018Y-122232055D01*
X151522175Y-121914185D01*
X151140363Y-121914185D01*
X151140995Y-122041001D01*
X151145873Y-122674529D01*
X151152059Y-123205906D01*
X151159692Y-123644730D01*
X151168911Y-124000598D01*
X151179855Y-124283107D01*
X151186850Y-124402567D01*
X151520619Y-124402567D01*
X151612837Y-124069788D01*
X151794542Y-123841048D01*
X152124340Y-123624138D01*
X152466154Y-123574665D01*
X152806918Y-123692599D01*
X153005457Y-123843722D01*
X153223421Y-124144573D01*
X153277123Y-124484510D01*
X153205578Y-124766413D01*
X152991766Y-125083467D01*
X152680170Y-125265672D01*
X152399999Y-125306667D01*
X152028046Y-125230883D01*
X151740822Y-125011494D01*
X151594421Y-124766413D01*
X151520619Y-124402567D01*
X151186850Y-124402567D01*
X151192664Y-124501855D01*
X151207478Y-124666439D01*
X151224434Y-124786456D01*
X151243672Y-124871505D01*
X151265332Y-124931182D01*
X151267438Y-124935705D01*
X151515790Y-125284919D01*
X151849278Y-125513832D01*
X152232824Y-125621402D01*
X152631348Y-125606584D01*
%TD*%
M02*
