%TF.GenerationSoftware,KiCad,Pcbnew,(5.1.6-0-10_14)*%
%TF.CreationDate,2020-09-06T23:56:44+02:00*%
%TF.ProjectId,USBCWrover,55534243-5772-46f7-9665-722e6b696361,rev?*%
%TF.SameCoordinates,Original*%
%TF.FileFunction,Copper,L2,Bot*%
%TF.FilePolarity,Positive*%
%FSLAX46Y46*%
G04 Gerber Fmt 4.6, Leading zero omitted, Abs format (unit mm)*
G04 Created by KiCad (PCBNEW (5.1.6-0-10_14)) date 2020-09-06 23:56:44*
%MOMM*%
%LPD*%
G01*
G04 APERTURE LIST*
%TA.AperFunction,ComponentPad*%
%ADD10O,2.000000X1.200000*%
%TD*%
%TA.AperFunction,SMDPad,CuDef*%
%ADD11R,1.500000X1.000000*%
%TD*%
%TA.AperFunction,ComponentPad*%
%ADD12O,1.000000X2.100000*%
%TD*%
%TA.AperFunction,ComponentPad*%
%ADD13O,1.000000X1.600000*%
%TD*%
%TA.AperFunction,ViaPad*%
%ADD14C,0.800000*%
%TD*%
%TA.AperFunction,Conductor*%
%ADD15C,0.500000*%
%TD*%
%TA.AperFunction,Conductor*%
%ADD16C,0.250000*%
%TD*%
%TA.AperFunction,Conductor*%
%ADD17C,0.254000*%
%TD*%
G04 APERTURE END LIST*
%TO.P,D3,2*%
%TO.N,IO15*%
%TA.AperFunction,SMDPad,CuDef*%
G36*
G01*
X152485000Y-141478000D02*
X152485000Y-140208000D01*
G75*
G02*
X152675000Y-140018000I190000J0D01*
G01*
X153245000Y-140018000D01*
G75*
G02*
X153435000Y-140208000I0J-190000D01*
G01*
X153435000Y-141478000D01*
G75*
G02*
X153245000Y-141668000I-190000J0D01*
G01*
X152675000Y-141668000D01*
G75*
G02*
X152485000Y-141478000I0J190000D01*
G01*
G37*
%TD.AperFunction*%
%TO.P,D3,1*%
%TO.N,Net-(D3-Pad1)*%
%TA.AperFunction,SMDPad,CuDef*%
G36*
G01*
X149385000Y-141478000D02*
X149385000Y-140208000D01*
G75*
G02*
X149575000Y-140018000I190000J0D01*
G01*
X150145000Y-140018000D01*
G75*
G02*
X150335000Y-140208000I0J-190000D01*
G01*
X150335000Y-141478000D01*
G75*
G02*
X150145000Y-141668000I-190000J0D01*
G01*
X149575000Y-141668000D01*
G75*
G02*
X149385000Y-141478000I0J190000D01*
G01*
G37*
%TD.AperFunction*%
%TD*%
%TO.P,R1,2*%
%TO.N,Net-(D3-Pad1)*%
%TA.AperFunction,SMDPad,CuDef*%
G36*
G01*
X147770001Y-143060000D02*
X146869999Y-143060000D01*
G75*
G02*
X146620000Y-142810001I0J249999D01*
G01*
X146620000Y-142159999D01*
G75*
G02*
X146869999Y-141910000I249999J0D01*
G01*
X147770001Y-141910000D01*
G75*
G02*
X148020000Y-142159999I0J-249999D01*
G01*
X148020000Y-142810001D01*
G75*
G02*
X147770001Y-143060000I-249999J0D01*
G01*
G37*
%TD.AperFunction*%
%TO.P,R1,1*%
%TO.N,GND*%
%TA.AperFunction,SMDPad,CuDef*%
G36*
G01*
X147770001Y-145110000D02*
X146869999Y-145110000D01*
G75*
G02*
X146620000Y-144860001I0J249999D01*
G01*
X146620000Y-144209999D01*
G75*
G02*
X146869999Y-143960000I249999J0D01*
G01*
X147770001Y-143960000D01*
G75*
G02*
X148020000Y-144209999I0J-249999D01*
G01*
X148020000Y-144860001D01*
G75*
G02*
X147770001Y-145110000I-249999J0D01*
G01*
G37*
%TD.AperFunction*%
%TD*%
D10*
%TO.P,J2,18*%
%TO.N,IO15*%
X152400000Y-125679200D03*
%TO.P,J2,17*%
%TO.N,Net-(D2-Pad4)*%
X154940000Y-125679200D03*
%TO.P,J2,16*%
%TO.N,+5V*%
X152400000Y-123139200D03*
%TO.P,J2,15*%
%TO.N,IO2*%
X154940000Y-123139200D03*
%TO.P,J2,14*%
%TO.N,GND*%
X152400000Y-120599200D03*
%TO.P,J2,13*%
%TO.N,ESP_FLS*%
X154940000Y-120599200D03*
%TO.P,J2,12*%
%TO.N,Net-(J2-Pad12)*%
X152400000Y-118059200D03*
%TO.P,J2,11*%
%TO.N,IO4*%
X154940000Y-118059200D03*
%TO.P,J2,10*%
%TO.N,Net-(J2-Pad10)*%
X152400000Y-115519200D03*
%TO.P,J2,9*%
%TO.N,IO12*%
X154940000Y-115519200D03*
%TO.P,J2,8*%
%TO.N,IO21*%
X152400000Y-112979200D03*
%TO.P,J2,7*%
%TO.N,IO32*%
X154940000Y-112979200D03*
%TO.P,J2,6*%
%TO.N,IO22*%
X152400000Y-110439200D03*
%TO.P,J2,5*%
%TO.N,IO25*%
X154940000Y-110439200D03*
%TO.P,J2,4*%
%TO.N,ESP_RXD*%
X152400000Y-107899200D03*
%TO.P,J2,3*%
%TO.N,IO27*%
X154940000Y-107899200D03*
%TO.P,J2,2*%
%TO.N,ESP_TXD*%
X152400000Y-105359200D03*
%TO.P,J2,1*%
%TO.N,GND*%
X154940000Y-105359200D03*
%TD*%
%TO.P,J3,18*%
%TO.N,Net-(J3-Pad18)*%
X127000000Y-125679200D03*
%TO.P,J3,17*%
%TO.N,IO13*%
X129540000Y-125679200D03*
%TO.P,J3,16*%
%TO.N,Net-(J3-Pad16)*%
X127000000Y-123139200D03*
%TO.P,J3,15*%
%TO.N,+3V3*%
X129540000Y-123139200D03*
%TO.P,J3,14*%
%TO.N,IO14*%
X127000000Y-120599200D03*
%TO.P,J3,13*%
%TO.N,IO5*%
X129540000Y-120599200D03*
%TO.P,J3,12*%
%TO.N,IO34*%
X127000000Y-118059200D03*
%TO.P,J3,11*%
%TO.N,IO23*%
X129540000Y-118059200D03*
%TO.P,J3,10*%
%TO.N,IO33*%
X127000000Y-115519200D03*
%TO.P,J3,9*%
%TO.N,IO19*%
X129540000Y-115519200D03*
%TO.P,J3,8*%
%TO.N,IO35*%
X127000000Y-112979200D03*
%TO.P,J3,7*%
%TO.N,IO18*%
X129540000Y-112979200D03*
%TO.P,J3,6*%
%TO.N,SENSOR_VN*%
X127000000Y-110439200D03*
%TO.P,J3,5*%
%TO.N,IO26*%
X129540000Y-110439200D03*
%TO.P,J3,4*%
%TO.N,Net-(J3-Pad4)*%
X127000000Y-107899200D03*
%TO.P,J3,3*%
%TO.N,Sensor_VP*%
X129540000Y-107899200D03*
%TO.P,J3,2*%
%TO.N,GND*%
X127000000Y-105359200D03*
%TO.P,J3,1*%
%TO.N,ESP_RST*%
X129540000Y-105359200D03*
%TD*%
D11*
%TO.P,D2,3*%
%TO.N,+5V*%
X149289600Y-139268400D03*
%TO.P,D2,4*%
%TO.N,Net-(D2-Pad4)*%
X149289600Y-142468400D03*
%TO.P,D2,2*%
%TO.N,IO15*%
X154189600Y-139268400D03*
%TO.P,D2,1*%
%TO.N,GND*%
X154189600Y-142468400D03*
%TD*%
D12*
%TO.P,J1,S1*%
%TO.N,GND*%
X145442400Y-139719600D03*
X136802400Y-139719600D03*
D13*
X136802400Y-143899600D03*
X145442400Y-143899600D03*
%TD*%
D14*
%TO.N,GND*%
X141376400Y-104902000D03*
X155956000Y-128778000D03*
X151180800Y-129082800D03*
X145389600Y-134010400D03*
X134112000Y-110286800D03*
X143662400Y-115519200D03*
X140004800Y-118364000D03*
X138379200Y-114757200D03*
X136499600Y-128879600D03*
X127965200Y-138734800D03*
X146100800Y-110236000D03*
X144272000Y-110134400D03*
X140563600Y-110998000D03*
X139750800Y-109524800D03*
X130759200Y-133959600D03*
X142189200Y-136398000D03*
X151485600Y-133705600D03*
X154940000Y-134467600D03*
%TO.N,+3V3*%
X130403600Y-135636000D03*
X142759551Y-133412349D03*
X139598400Y-113588800D03*
X135331200Y-122631200D03*
X138023600Y-122631200D03*
%TO.N,+5V*%
X148074796Y-134968404D03*
%TO.N,ESP_RST*%
X127101600Y-128828800D03*
X136906000Y-115112802D03*
X130962396Y-139496800D03*
X129701490Y-140706910D03*
%TO.N,ESP_FLS*%
X128117600Y-132638800D03*
X128376225Y-129711041D03*
X137312400Y-126847600D03*
X141935200Y-126695200D03*
%TO.N,SER_DTR*%
X130505200Y-131267200D03*
X135585200Y-132486400D03*
%TO.N,ESP_TXD*%
X147718000Y-108458000D03*
%TO.N,ESP_RXD*%
X139344400Y-133959600D03*
X133248400Y-134162800D03*
%TO.N,IO5*%
X134569200Y-120548400D03*
X148031200Y-116128800D03*
X145338800Y-117195600D03*
%TO.N,IO23*%
X135777803Y-116139397D03*
%TO.N,IO19*%
X143662400Y-113487200D03*
X145796000Y-111658400D03*
X148132800Y-113131600D03*
%TO.N,IO18*%
X146710400Y-114452400D03*
%TO.N,IO26*%
X134598441Y-118139241D03*
%TO.N,IO32*%
X133858000Y-113588798D03*
%TO.N,IO25*%
X147066000Y-109474000D03*
%TO.N,IO27*%
X146050000Y-107696000D03*
%TO.N,IO12*%
X144932400Y-118770400D03*
%TO.N,IO2*%
X147828000Y-122682000D03*
%TO.N,IO22*%
X148234400Y-107238800D03*
%TO.N,VUSB*%
X139220400Y-140258800D03*
X142806035Y-140621635D03*
X132638800Y-132444000D03*
X140563600Y-134112000D03*
%TD*%
D15*
%TO.N,+3V3*%
X142759551Y-116749951D02*
X139598400Y-113588800D01*
X134823200Y-123139200D02*
X135331200Y-122631200D01*
X129540000Y-123139200D02*
X134823200Y-123139200D01*
X138023600Y-122631200D02*
X142009102Y-122631200D01*
X142759551Y-123381649D02*
X142759551Y-116749951D01*
X142009102Y-122631200D02*
X142759551Y-123381649D01*
D16*
X141328998Y-134842902D02*
X142759551Y-133412349D01*
X131927600Y-135432800D02*
X132517498Y-134842902D01*
X132517498Y-134842902D02*
X141328998Y-134842902D01*
X130606800Y-135432800D02*
X131927600Y-135432800D01*
X130403600Y-135636000D02*
X130606800Y-135432800D01*
D15*
X143159550Y-133012350D02*
X143159550Y-132124056D01*
X142759551Y-131724057D02*
X142759551Y-123381649D01*
X142759551Y-133412349D02*
X143159550Y-133012350D01*
X143159550Y-132124056D02*
X142759551Y-131724057D01*
D16*
%TO.N,+5V*%
X149289600Y-136183208D02*
X148074796Y-134968404D01*
X149289600Y-139268400D02*
X149289600Y-136183208D01*
%TO.N,ESP_RST*%
X130505200Y-128828800D02*
X136906000Y-122428000D01*
X127101600Y-128828800D02*
X130505200Y-128828800D01*
X136906000Y-122428000D02*
X136906000Y-115112802D01*
X129701490Y-140706910D02*
X130911600Y-139496800D01*
X130911600Y-139496800D02*
X130962396Y-139496800D01*
%TO.N,ESP_FLS*%
X128117600Y-129969666D02*
X128376225Y-129711041D01*
X128117600Y-132638800D02*
X128117600Y-129969666D01*
X141782800Y-126847600D02*
X141935200Y-126695200D01*
X137312400Y-126847600D02*
X141782800Y-126847600D01*
%TO.N,SER_DTR*%
X130505200Y-131267200D02*
X134366000Y-131267200D01*
X134366000Y-131267200D02*
X135585200Y-132486400D01*
%TO.N,ESP_TXD*%
X147464001Y-108348001D02*
X147574000Y-108458000D01*
X145737039Y-108348001D02*
X147464001Y-108348001D01*
X152400000Y-105359200D02*
X147421838Y-105359200D01*
X145397999Y-108008961D02*
X145737039Y-108348001D01*
X145397999Y-107383039D02*
X145397999Y-108008961D01*
X147421838Y-105359200D02*
X145397999Y-107383039D01*
X147574000Y-108458000D02*
X147718000Y-108458000D01*
%TO.N,ESP_RXD*%
X139344400Y-133959600D02*
X133451600Y-133959600D01*
X133451600Y-133959600D02*
X133248400Y-134162800D01*
%TO.N,IO5*%
X134518400Y-120599200D02*
X134569200Y-120548400D01*
X129540000Y-120599200D02*
X134518400Y-120599200D01*
X146405600Y-116128800D02*
X145338800Y-117195600D01*
X148031200Y-116128800D02*
X146405600Y-116128800D01*
%TO.N,IO23*%
X131459803Y-116139397D02*
X135777803Y-116139397D01*
X129540000Y-118059200D02*
X131459803Y-116139397D01*
%TO.N,IO19*%
X135433038Y-115519200D02*
X137211038Y-113741200D01*
X129540000Y-115519200D02*
X135433038Y-115519200D01*
X143111999Y-112936799D02*
X143662400Y-113487200D01*
X138015439Y-112936799D02*
X143111999Y-112936799D01*
X137211038Y-113741200D02*
X138015439Y-112936799D01*
X146659600Y-111658400D02*
X148132800Y-113131600D01*
X145796000Y-111658400D02*
X146659600Y-111658400D01*
%TO.N,IO18*%
X130801599Y-114240799D02*
X134570716Y-114240799D01*
X141459227Y-110242401D02*
X145669226Y-114452400D01*
X145669226Y-114452400D02*
X146710400Y-114452400D01*
X129540000Y-112979200D02*
X130801599Y-114240799D01*
X134570716Y-114240799D02*
X138569114Y-110242401D01*
X138569114Y-110242401D02*
X141459227Y-110242401D01*
%TO.N,IO26*%
X129011039Y-119161201D02*
X133576481Y-119161201D01*
X128270000Y-111709200D02*
X128270000Y-118420162D01*
X133576481Y-119161201D02*
X134598441Y-118139241D01*
X128270000Y-118420162D02*
X129011039Y-119161201D01*
X129540000Y-110439200D02*
X128270000Y-111709200D01*
%TO.N,IO32*%
X145905999Y-113749599D02*
X140868400Y-108712000D01*
X138734798Y-108712000D02*
X134257999Y-113188799D01*
X147608963Y-114081201D02*
X147277361Y-113749599D01*
X147277361Y-113749599D02*
X145905999Y-113749599D01*
X140868400Y-108712000D02*
X138734798Y-108712000D01*
X153837999Y-114081201D02*
X147608963Y-114081201D01*
X134257999Y-113188799D02*
X133858000Y-113588798D01*
X154940000Y-112979200D02*
X153837999Y-114081201D01*
%TO.N,IO25*%
X149133201Y-111541201D02*
X147066000Y-109474000D01*
X153837999Y-111541201D02*
X149133201Y-111541201D01*
X154940000Y-110439200D02*
X153837999Y-111541201D01*
%TO.N,IO27*%
X147159201Y-106586799D02*
X146050000Y-107696000D01*
X153627599Y-106586799D02*
X147159201Y-106586799D01*
X154940000Y-107899200D02*
X153627599Y-106586799D01*
%TO.N,IO12*%
X153511199Y-116948001D02*
X146754799Y-116948001D01*
X154940000Y-115519200D02*
X153511199Y-116948001D01*
X146754799Y-116948001D02*
X144932400Y-118770400D01*
%TO.N,IO15*%
X152400000Y-137478800D02*
X154189600Y-139268400D01*
X152400000Y-125679200D02*
X152400000Y-137478800D01*
X154189600Y-139268400D02*
X154189600Y-140450400D01*
X153670000Y-140970000D02*
X152664710Y-140970000D01*
X154189600Y-140450400D02*
X153670000Y-140970000D01*
%TO.N,IO2*%
X154087990Y-123991210D02*
X154940000Y-123139200D01*
X149137210Y-123991210D02*
X154087990Y-123991210D01*
X147828000Y-122682000D02*
X149137210Y-123991210D01*
%TO.N,IO22*%
X149199600Y-107238800D02*
X148234400Y-107238800D01*
X152400000Y-110439200D02*
X149199600Y-107238800D01*
%TO.N,VUSB*%
X142443200Y-140258800D02*
X142806035Y-140621635D01*
X139220400Y-140258800D02*
X142443200Y-140258800D01*
X139759199Y-133307599D02*
X140563600Y-134112000D01*
X133502399Y-133307599D02*
X139759199Y-133307599D01*
X132638800Y-132444000D02*
X133502399Y-133307599D01*
%TO.N,Net-(D2-Pad4)*%
X149289600Y-142468400D02*
X151347200Y-144526000D01*
X151347200Y-144526000D02*
X154940000Y-144526000D01*
X156455601Y-130242563D02*
X154940000Y-128726962D01*
X156455601Y-143010399D02*
X156455601Y-130242563D01*
X154940000Y-144526000D02*
X156455601Y-143010399D01*
X154940000Y-128726962D02*
X154940000Y-125679200D01*
%TO.N,Net-(D3-Pad1)*%
X148835000Y-140970000D02*
X147320000Y-142485000D01*
X149843000Y-140970000D02*
X148835000Y-140970000D01*
%TD*%
D17*
%TO.N,GND*%
G36*
X131591034Y-103315206D02*
G01*
X131593439Y-103339932D01*
X131600633Y-103363767D01*
X131612338Y-103385740D01*
X131628105Y-103405008D01*
X131647327Y-103420829D01*
X131669267Y-103432596D01*
X131693082Y-103439857D01*
X131717855Y-103442332D01*
X150183398Y-103468423D01*
X150209104Y-103465831D01*
X150232885Y-103458460D01*
X150254770Y-103446592D01*
X150273920Y-103430682D01*
X150289597Y-103411342D01*
X150301201Y-103389315D01*
X150308284Y-103365448D01*
X150310575Y-103340657D01*
X150275406Y-97509800D01*
X154605027Y-97509800D01*
X154700261Y-97512160D01*
X154789485Y-97518798D01*
X154877949Y-97529787D01*
X154965503Y-97545064D01*
X155052004Y-97564568D01*
X155137301Y-97588239D01*
X155221272Y-97616022D01*
X155303736Y-97647848D01*
X155384524Y-97683643D01*
X155463536Y-97723368D01*
X155540609Y-97766956D01*
X155615560Y-97814326D01*
X155688282Y-97865441D01*
X155758597Y-97920217D01*
X155826386Y-97978617D01*
X155891517Y-98040598D01*
X155953497Y-98105728D01*
X156011897Y-98173517D01*
X156066673Y-98243832D01*
X156117793Y-98316561D01*
X156165160Y-98391510D01*
X156208739Y-98468565D01*
X156248468Y-98547584D01*
X156284269Y-98628385D01*
X156316094Y-98710847D01*
X156343875Y-98794813D01*
X156367546Y-98880110D01*
X156387050Y-98966611D01*
X156402327Y-99054164D01*
X156413316Y-99142633D01*
X156419954Y-99231853D01*
X156422315Y-99327093D01*
X156422315Y-104755848D01*
X156303078Y-104575726D01*
X156131725Y-104402893D01*
X155929946Y-104266810D01*
X155705496Y-104172707D01*
X155467000Y-104124200D01*
X155067000Y-104124200D01*
X155067000Y-105232200D01*
X155087000Y-105232200D01*
X155087000Y-105486200D01*
X155067000Y-105486200D01*
X155067000Y-106594200D01*
X155467000Y-106594200D01*
X155705496Y-106545693D01*
X155929946Y-106451590D01*
X156131725Y-106315507D01*
X156303078Y-106142674D01*
X156422315Y-105962552D01*
X156422316Y-129493686D01*
X155446000Y-128517371D01*
X155446000Y-126654506D01*
X155532310Y-126646005D01*
X155717229Y-126589911D01*
X155887651Y-126498818D01*
X156037028Y-126376228D01*
X156159618Y-126226851D01*
X156250711Y-126056429D01*
X156306805Y-125871510D01*
X156325746Y-125679200D01*
X156306805Y-125486890D01*
X156250711Y-125301971D01*
X156159618Y-125131549D01*
X156037028Y-124982172D01*
X155887651Y-124859582D01*
X155717229Y-124768489D01*
X155532310Y-124712395D01*
X155388187Y-124698200D01*
X154491813Y-124698200D01*
X154347690Y-124712395D01*
X154162771Y-124768489D01*
X153992349Y-124859582D01*
X153842972Y-124982172D01*
X153720382Y-125131549D01*
X153670000Y-125225807D01*
X153619618Y-125131549D01*
X153497028Y-124982172D01*
X153347651Y-124859582D01*
X153177229Y-124768489D01*
X152992310Y-124712395D01*
X152848187Y-124698200D01*
X151951813Y-124698200D01*
X151807690Y-124712395D01*
X151622771Y-124768489D01*
X151452349Y-124859582D01*
X151302972Y-124982172D01*
X151180382Y-125131549D01*
X151089289Y-125301971D01*
X151033195Y-125486890D01*
X151014254Y-125679200D01*
X151033195Y-125871510D01*
X151089289Y-126056429D01*
X151180382Y-126226851D01*
X151302972Y-126376228D01*
X151452349Y-126498818D01*
X151622771Y-126589911D01*
X151807690Y-126646005D01*
X151894000Y-126654506D01*
X151894001Y-137453944D01*
X151891553Y-137478800D01*
X151901322Y-137577992D01*
X151930255Y-137673374D01*
X151930256Y-137673375D01*
X151977242Y-137761279D01*
X152040474Y-137838327D01*
X152059781Y-137854172D01*
X152813409Y-138607800D01*
X150385769Y-138607800D01*
X150357922Y-138555704D01*
X150310311Y-138497689D01*
X150252296Y-138450078D01*
X150186108Y-138414699D01*
X150114289Y-138392913D01*
X150039600Y-138385557D01*
X149795600Y-138385557D01*
X149795600Y-136208053D01*
X149798047Y-136183207D01*
X149795600Y-136158361D01*
X149795600Y-136158354D01*
X149788278Y-136084015D01*
X149759345Y-135988633D01*
X149712359Y-135900729D01*
X149649127Y-135823681D01*
X149629820Y-135807836D01*
X148855796Y-135033813D01*
X148855796Y-134891482D01*
X148825783Y-134740595D01*
X148766909Y-134598462D01*
X148681438Y-134470545D01*
X148572655Y-134361762D01*
X148444738Y-134276291D01*
X148302605Y-134217417D01*
X148151718Y-134187404D01*
X147997874Y-134187404D01*
X147846987Y-134217417D01*
X147704854Y-134276291D01*
X147576937Y-134361762D01*
X147468154Y-134470545D01*
X147382683Y-134598462D01*
X147323809Y-134740595D01*
X147293796Y-134891482D01*
X147293796Y-135045326D01*
X147323809Y-135196213D01*
X147382683Y-135338346D01*
X147468154Y-135466263D01*
X147576937Y-135575046D01*
X147704854Y-135660517D01*
X147846987Y-135719391D01*
X147997874Y-135749404D01*
X148140205Y-135749404D01*
X148783601Y-136392801D01*
X148783600Y-138385557D01*
X148539600Y-138385557D01*
X148464911Y-138392913D01*
X148393092Y-138414699D01*
X148326904Y-138450078D01*
X148268889Y-138497689D01*
X148221278Y-138555704D01*
X148185899Y-138621892D01*
X148164113Y-138693711D01*
X148156757Y-138768400D01*
X148156757Y-139768400D01*
X148164113Y-139843089D01*
X148185899Y-139914908D01*
X148221278Y-139981096D01*
X148268889Y-140039111D01*
X148326904Y-140086722D01*
X148393092Y-140122101D01*
X148464911Y-140143887D01*
X148539600Y-140151243D01*
X149007747Y-140151243D01*
X149002157Y-140208000D01*
X149002157Y-140464000D01*
X148859854Y-140464000D01*
X148835000Y-140461552D01*
X148810146Y-140464000D01*
X148735807Y-140471322D01*
X148640425Y-140500255D01*
X148552521Y-140547241D01*
X148475473Y-140610473D01*
X148459629Y-140629779D01*
X147562252Y-141527157D01*
X146869999Y-141527157D01*
X146746538Y-141539317D01*
X146627821Y-141575329D01*
X146518411Y-141633810D01*
X146422512Y-141712512D01*
X146343810Y-141808411D01*
X146285329Y-141917821D01*
X146249317Y-142036538D01*
X146237157Y-142159999D01*
X146237157Y-142787079D01*
X146155164Y-142707231D01*
X145967376Y-142585324D01*
X145744274Y-142505481D01*
X145569400Y-142631646D01*
X145569400Y-143772600D01*
X145589400Y-143772600D01*
X145589400Y-144026600D01*
X145569400Y-144026600D01*
X145569400Y-145167554D01*
X145744274Y-145293719D01*
X145967376Y-145213876D01*
X145990669Y-145198755D01*
X145994188Y-145234482D01*
X146030498Y-145354180D01*
X146089463Y-145464494D01*
X146168815Y-145561185D01*
X146265506Y-145640537D01*
X146375820Y-145699502D01*
X146495518Y-145735812D01*
X146620000Y-145748072D01*
X147034250Y-145745000D01*
X147193000Y-145586250D01*
X147193000Y-144662000D01*
X147447000Y-144662000D01*
X147447000Y-145586250D01*
X147605750Y-145745000D01*
X148020000Y-145748072D01*
X148144482Y-145735812D01*
X148264180Y-145699502D01*
X148374494Y-145640537D01*
X148471185Y-145561185D01*
X148550537Y-145464494D01*
X148609502Y-145354180D01*
X148645812Y-145234482D01*
X148658072Y-145110000D01*
X148655000Y-144820750D01*
X148496250Y-144662000D01*
X147447000Y-144662000D01*
X147193000Y-144662000D01*
X147173000Y-144662000D01*
X147173000Y-144408000D01*
X147193000Y-144408000D01*
X147193000Y-144388000D01*
X147447000Y-144388000D01*
X147447000Y-144408000D01*
X148496250Y-144408000D01*
X148655000Y-144249250D01*
X148658072Y-143960000D01*
X148645812Y-143835518D01*
X148609502Y-143715820D01*
X148550537Y-143605506D01*
X148471185Y-143508815D01*
X148374494Y-143429463D01*
X148264180Y-143370498D01*
X148144482Y-143334188D01*
X148126220Y-143332389D01*
X148217488Y-143257488D01*
X148250729Y-143216983D01*
X148268889Y-143239111D01*
X148326904Y-143286722D01*
X148393092Y-143322101D01*
X148464911Y-143343887D01*
X148539600Y-143351243D01*
X149456852Y-143351243D01*
X150971828Y-144866220D01*
X150987673Y-144885527D01*
X151064721Y-144948759D01*
X151143686Y-144990967D01*
X151152625Y-144995745D01*
X151248007Y-145024678D01*
X151347200Y-145034448D01*
X151372054Y-145032000D01*
X154915154Y-145032000D01*
X154940000Y-145034447D01*
X154964846Y-145032000D01*
X154964854Y-145032000D01*
X155039193Y-145024678D01*
X155134575Y-144995745D01*
X155222479Y-144948759D01*
X155299527Y-144885527D01*
X155315376Y-144866215D01*
X156422316Y-143759276D01*
X156422316Y-144774322D01*
X156419954Y-144869601D01*
X156413316Y-144958821D01*
X156402327Y-145047290D01*
X156387050Y-145134843D01*
X156367546Y-145221344D01*
X156343875Y-145306641D01*
X156316094Y-145390607D01*
X156284269Y-145473069D01*
X156248468Y-145553870D01*
X156208739Y-145632889D01*
X156165160Y-145709944D01*
X156117793Y-145784893D01*
X156066673Y-145857622D01*
X156011897Y-145927937D01*
X155953497Y-145995726D01*
X155891517Y-146060857D01*
X155826386Y-146122837D01*
X155758597Y-146181237D01*
X155688282Y-146236013D01*
X155615560Y-146287128D01*
X155540609Y-146334498D01*
X155463536Y-146378086D01*
X155384524Y-146417811D01*
X155303736Y-146453606D01*
X155221272Y-146485432D01*
X155137301Y-146513215D01*
X155052004Y-146536886D01*
X154965503Y-146556390D01*
X154877949Y-146571667D01*
X154789485Y-146582656D01*
X154700261Y-146589294D01*
X154605021Y-146591655D01*
X127157755Y-146591655D01*
X127062515Y-146589294D01*
X126973295Y-146582656D01*
X126884826Y-146571667D01*
X126797273Y-146556390D01*
X126710772Y-146536886D01*
X126625475Y-146513215D01*
X126541509Y-146485434D01*
X126459047Y-146453609D01*
X126378246Y-146417808D01*
X126299227Y-146378079D01*
X126222172Y-146334500D01*
X126147223Y-146287133D01*
X126074494Y-146236013D01*
X126004179Y-146181237D01*
X125936390Y-146122837D01*
X125871260Y-146060857D01*
X125809279Y-145995726D01*
X125750879Y-145927937D01*
X125696103Y-145857622D01*
X125644988Y-145784900D01*
X125597618Y-145709949D01*
X125554030Y-145632876D01*
X125514305Y-145553864D01*
X125478510Y-145473076D01*
X125446684Y-145390612D01*
X125418901Y-145306641D01*
X125395230Y-145221344D01*
X125375726Y-145134843D01*
X125360449Y-145047289D01*
X125349460Y-144958825D01*
X125342822Y-144869601D01*
X125340462Y-144774367D01*
X125340462Y-144026600D01*
X135667400Y-144026600D01*
X135667400Y-144326600D01*
X135713985Y-144545587D01*
X135802397Y-144751278D01*
X135929239Y-144935769D01*
X136089636Y-145091969D01*
X136277424Y-145213876D01*
X136500526Y-145293719D01*
X136675400Y-145167554D01*
X136675400Y-144026600D01*
X136929400Y-144026600D01*
X136929400Y-145167554D01*
X137104274Y-145293719D01*
X137327376Y-145213876D01*
X137515164Y-145091969D01*
X137675561Y-144935769D01*
X137802403Y-144751278D01*
X137890815Y-144545587D01*
X137937400Y-144326600D01*
X137937400Y-144026600D01*
X144307400Y-144026600D01*
X144307400Y-144326600D01*
X144353985Y-144545587D01*
X144442397Y-144751278D01*
X144569239Y-144935769D01*
X144729636Y-145091969D01*
X144917424Y-145213876D01*
X145140526Y-145293719D01*
X145315400Y-145167554D01*
X145315400Y-144026600D01*
X144307400Y-144026600D01*
X137937400Y-144026600D01*
X136929400Y-144026600D01*
X136675400Y-144026600D01*
X135667400Y-144026600D01*
X125340462Y-144026600D01*
X125340462Y-143472600D01*
X135667400Y-143472600D01*
X135667400Y-143772600D01*
X136675400Y-143772600D01*
X136675400Y-142631646D01*
X136929400Y-142631646D01*
X136929400Y-143772600D01*
X137937400Y-143772600D01*
X137937400Y-143472600D01*
X144307400Y-143472600D01*
X144307400Y-143772600D01*
X145315400Y-143772600D01*
X145315400Y-142631646D01*
X145140526Y-142505481D01*
X144917424Y-142585324D01*
X144729636Y-142707231D01*
X144569239Y-142863431D01*
X144442397Y-143047922D01*
X144353985Y-143253613D01*
X144307400Y-143472600D01*
X137937400Y-143472600D01*
X137890815Y-143253613D01*
X137802403Y-143047922D01*
X137675561Y-142863431D01*
X137515164Y-142707231D01*
X137327376Y-142585324D01*
X137104274Y-142505481D01*
X136929400Y-142631646D01*
X136675400Y-142631646D01*
X136500526Y-142505481D01*
X136277424Y-142585324D01*
X136089636Y-142707231D01*
X135929239Y-142863431D01*
X135802397Y-143047922D01*
X135713985Y-143253613D01*
X135667400Y-143472600D01*
X125340462Y-143472600D01*
X125340462Y-140629988D01*
X128920490Y-140629988D01*
X128920490Y-140783832D01*
X128950503Y-140934719D01*
X129009377Y-141076852D01*
X129094848Y-141204769D01*
X129203631Y-141313552D01*
X129331548Y-141399023D01*
X129473681Y-141457897D01*
X129624568Y-141487910D01*
X129778412Y-141487910D01*
X129929299Y-141457897D01*
X130071432Y-141399023D01*
X130199349Y-141313552D01*
X130308132Y-141204769D01*
X130393603Y-141076852D01*
X130452477Y-140934719D01*
X130482490Y-140783832D01*
X130482490Y-140641501D01*
X130852709Y-140271283D01*
X130885474Y-140277800D01*
X131039318Y-140277800D01*
X131190205Y-140247787D01*
X131332338Y-140188913D01*
X131460255Y-140103442D01*
X131569038Y-139994659D01*
X131654509Y-139866742D01*
X131662852Y-139846600D01*
X135667400Y-139846600D01*
X135667400Y-140396600D01*
X135713985Y-140615587D01*
X135802397Y-140821278D01*
X135929239Y-141005769D01*
X136089636Y-141161969D01*
X136277424Y-141283876D01*
X136500526Y-141363719D01*
X136675400Y-141237554D01*
X136675400Y-139846600D01*
X135667400Y-139846600D01*
X131662852Y-139846600D01*
X131713383Y-139724609D01*
X131743396Y-139573722D01*
X131743396Y-139419878D01*
X131713383Y-139268991D01*
X131654509Y-139126858D01*
X131598210Y-139042600D01*
X135667400Y-139042600D01*
X135667400Y-139592600D01*
X136675400Y-139592600D01*
X136675400Y-138201646D01*
X136929400Y-138201646D01*
X136929400Y-139592600D01*
X136949400Y-139592600D01*
X136949400Y-139846600D01*
X136929400Y-139846600D01*
X136929400Y-141237554D01*
X137104274Y-141363719D01*
X137327376Y-141283876D01*
X137515164Y-141161969D01*
X137675561Y-141005769D01*
X137802403Y-140821278D01*
X137805707Y-140813592D01*
X137897984Y-140875249D01*
X138026467Y-140928469D01*
X138162865Y-140955600D01*
X138301935Y-140955600D01*
X138438333Y-140928469D01*
X138566816Y-140875249D01*
X138666045Y-140808946D01*
X138722541Y-140865442D01*
X138850458Y-140950913D01*
X138992591Y-141009787D01*
X139143478Y-141039800D01*
X139297322Y-141039800D01*
X139448209Y-141009787D01*
X139590342Y-140950913D01*
X139718259Y-140865442D01*
X139818901Y-140764800D01*
X142038211Y-140764800D01*
X142055048Y-140849444D01*
X142113922Y-140991577D01*
X142199393Y-141119494D01*
X142308176Y-141228277D01*
X142436093Y-141313748D01*
X142578226Y-141372622D01*
X142729113Y-141402635D01*
X142882957Y-141402635D01*
X143033844Y-141372622D01*
X143175977Y-141313748D01*
X143303894Y-141228277D01*
X143412677Y-141119494D01*
X143498148Y-140991577D01*
X143557022Y-140849444D01*
X143566682Y-140800880D01*
X143677984Y-140875249D01*
X143806467Y-140928469D01*
X143942865Y-140955600D01*
X144081935Y-140955600D01*
X144218333Y-140928469D01*
X144346816Y-140875249D01*
X144439093Y-140813592D01*
X144442397Y-140821278D01*
X144569239Y-141005769D01*
X144729636Y-141161969D01*
X144917424Y-141283876D01*
X145140526Y-141363719D01*
X145315400Y-141237554D01*
X145315400Y-139846600D01*
X145569400Y-139846600D01*
X145569400Y-141237554D01*
X145744274Y-141363719D01*
X145967376Y-141283876D01*
X146155164Y-141161969D01*
X146315561Y-141005769D01*
X146442403Y-140821278D01*
X146530815Y-140615587D01*
X146577400Y-140396600D01*
X146577400Y-139846600D01*
X145569400Y-139846600D01*
X145315400Y-139846600D01*
X145295400Y-139846600D01*
X145295400Y-139592600D01*
X145315400Y-139592600D01*
X145315400Y-138201646D01*
X145569400Y-138201646D01*
X145569400Y-139592600D01*
X146577400Y-139592600D01*
X146577400Y-139042600D01*
X146530815Y-138823613D01*
X146442403Y-138617922D01*
X146315561Y-138433431D01*
X146155164Y-138277231D01*
X145967376Y-138155324D01*
X145744274Y-138075481D01*
X145569400Y-138201646D01*
X145315400Y-138201646D01*
X145140526Y-138075481D01*
X144917424Y-138155324D01*
X144729636Y-138277231D01*
X144569239Y-138433431D01*
X144442397Y-138617922D01*
X144353985Y-138823613D01*
X144307400Y-139042600D01*
X144307400Y-139607624D01*
X144218333Y-139570731D01*
X144081935Y-139543600D01*
X143942865Y-139543600D01*
X143806467Y-139570731D01*
X143677984Y-139623951D01*
X143562351Y-139701214D01*
X143464014Y-139799551D01*
X143386751Y-139915184D01*
X143333531Y-140043667D01*
X143333371Y-140044470D01*
X143303894Y-140014993D01*
X143175977Y-139929522D01*
X143033844Y-139870648D01*
X142882957Y-139840635D01*
X142731277Y-139840635D01*
X142725679Y-139836041D01*
X142637775Y-139789055D01*
X142542393Y-139760122D01*
X142468054Y-139752800D01*
X142468046Y-139752800D01*
X142443200Y-139750353D01*
X142418354Y-139752800D01*
X139818901Y-139752800D01*
X139718259Y-139652158D01*
X139590342Y-139566687D01*
X139448209Y-139507813D01*
X139297322Y-139477800D01*
X139143478Y-139477800D01*
X138992591Y-139507813D01*
X138850458Y-139566687D01*
X138722541Y-139652158D01*
X138677075Y-139697624D01*
X138566816Y-139623951D01*
X138438333Y-139570731D01*
X138301935Y-139543600D01*
X138162865Y-139543600D01*
X138026467Y-139570731D01*
X137937400Y-139607624D01*
X137937400Y-139042600D01*
X137890815Y-138823613D01*
X137802403Y-138617922D01*
X137675561Y-138433431D01*
X137515164Y-138277231D01*
X137327376Y-138155324D01*
X137104274Y-138075481D01*
X136929400Y-138201646D01*
X136675400Y-138201646D01*
X136500526Y-138075481D01*
X136277424Y-138155324D01*
X136089636Y-138277231D01*
X135929239Y-138433431D01*
X135802397Y-138617922D01*
X135713985Y-138823613D01*
X135667400Y-139042600D01*
X131598210Y-139042600D01*
X131569038Y-138998941D01*
X131460255Y-138890158D01*
X131332338Y-138804687D01*
X131190205Y-138745813D01*
X131039318Y-138715800D01*
X130885474Y-138715800D01*
X130734587Y-138745813D01*
X130592454Y-138804687D01*
X130464537Y-138890158D01*
X130355754Y-138998941D01*
X130270283Y-139126858D01*
X130211409Y-139268991D01*
X130181396Y-139419878D01*
X130181396Y-139511412D01*
X129766899Y-139925910D01*
X129624568Y-139925910D01*
X129473681Y-139955923D01*
X129331548Y-140014797D01*
X129203631Y-140100268D01*
X129094848Y-140209051D01*
X129009377Y-140336968D01*
X128950503Y-140479101D01*
X128920490Y-140629988D01*
X125340462Y-140629988D01*
X125340462Y-125679200D01*
X125614254Y-125679200D01*
X125633195Y-125871510D01*
X125689289Y-126056429D01*
X125780382Y-126226851D01*
X125902972Y-126376228D01*
X126052349Y-126498818D01*
X126222771Y-126589911D01*
X126407690Y-126646005D01*
X126551813Y-126660200D01*
X127448187Y-126660200D01*
X127592310Y-126646005D01*
X127777229Y-126589911D01*
X127947651Y-126498818D01*
X128097028Y-126376228D01*
X128219618Y-126226851D01*
X128270000Y-126132593D01*
X128320382Y-126226851D01*
X128442972Y-126376228D01*
X128592349Y-126498818D01*
X128762771Y-126589911D01*
X128947690Y-126646005D01*
X129091813Y-126660200D01*
X129988187Y-126660200D01*
X130132310Y-126646005D01*
X130317229Y-126589911D01*
X130487651Y-126498818D01*
X130637028Y-126376228D01*
X130759618Y-126226851D01*
X130850711Y-126056429D01*
X130906805Y-125871510D01*
X130925746Y-125679200D01*
X130906805Y-125486890D01*
X130850711Y-125301971D01*
X130759618Y-125131549D01*
X130637028Y-124982172D01*
X130487651Y-124859582D01*
X130317229Y-124768489D01*
X130132310Y-124712395D01*
X129988187Y-124698200D01*
X129091813Y-124698200D01*
X128947690Y-124712395D01*
X128762771Y-124768489D01*
X128592349Y-124859582D01*
X128442972Y-124982172D01*
X128320382Y-125131549D01*
X128270000Y-125225807D01*
X128219618Y-125131549D01*
X128097028Y-124982172D01*
X127947651Y-124859582D01*
X127777229Y-124768489D01*
X127592310Y-124712395D01*
X127448187Y-124698200D01*
X126551813Y-124698200D01*
X126407690Y-124712395D01*
X126222771Y-124768489D01*
X126052349Y-124859582D01*
X125902972Y-124982172D01*
X125780382Y-125131549D01*
X125689289Y-125301971D01*
X125633195Y-125486890D01*
X125614254Y-125679200D01*
X125340462Y-125679200D01*
X125340462Y-110439200D01*
X125614254Y-110439200D01*
X125633195Y-110631510D01*
X125689289Y-110816429D01*
X125780382Y-110986851D01*
X125902972Y-111136228D01*
X126052349Y-111258818D01*
X126222771Y-111349911D01*
X126407690Y-111406005D01*
X126551813Y-111420200D01*
X127448187Y-111420200D01*
X127592310Y-111406005D01*
X127777229Y-111349911D01*
X127947651Y-111258818D01*
X128097028Y-111136228D01*
X128219618Y-110986851D01*
X128270000Y-110892593D01*
X128305186Y-110958422D01*
X127929785Y-111333824D01*
X127910473Y-111349673D01*
X127847241Y-111426721D01*
X127800255Y-111514626D01*
X127771322Y-111610008D01*
X127764000Y-111684347D01*
X127764000Y-111684354D01*
X127761553Y-111709200D01*
X127764000Y-111734046D01*
X127764000Y-112064476D01*
X127592310Y-112012395D01*
X127448187Y-111998200D01*
X126551813Y-111998200D01*
X126407690Y-112012395D01*
X126222771Y-112068489D01*
X126052349Y-112159582D01*
X125902972Y-112282172D01*
X125780382Y-112431549D01*
X125689289Y-112601971D01*
X125633195Y-112786890D01*
X125614254Y-112979200D01*
X125633195Y-113171510D01*
X125689289Y-113356429D01*
X125780382Y-113526851D01*
X125902972Y-113676228D01*
X126052349Y-113798818D01*
X126222771Y-113889911D01*
X126407690Y-113946005D01*
X126551813Y-113960200D01*
X127448187Y-113960200D01*
X127592310Y-113946005D01*
X127764000Y-113893924D01*
X127764000Y-114604476D01*
X127592310Y-114552395D01*
X127448187Y-114538200D01*
X126551813Y-114538200D01*
X126407690Y-114552395D01*
X126222771Y-114608489D01*
X126052349Y-114699582D01*
X125902972Y-114822172D01*
X125780382Y-114971549D01*
X125689289Y-115141971D01*
X125633195Y-115326890D01*
X125614254Y-115519200D01*
X125633195Y-115711510D01*
X125689289Y-115896429D01*
X125780382Y-116066851D01*
X125902972Y-116216228D01*
X126052349Y-116338818D01*
X126222771Y-116429911D01*
X126407690Y-116486005D01*
X126551813Y-116500200D01*
X127448187Y-116500200D01*
X127592310Y-116486005D01*
X127764001Y-116433924D01*
X127764001Y-117144476D01*
X127592310Y-117092395D01*
X127448187Y-117078200D01*
X126551813Y-117078200D01*
X126407690Y-117092395D01*
X126222771Y-117148489D01*
X126052349Y-117239582D01*
X125902972Y-117362172D01*
X125780382Y-117511549D01*
X125689289Y-117681971D01*
X125633195Y-117866890D01*
X125614254Y-118059200D01*
X125633195Y-118251510D01*
X125689289Y-118436429D01*
X125780382Y-118606851D01*
X125902972Y-118756228D01*
X126052349Y-118878818D01*
X126222771Y-118969911D01*
X126407690Y-119026005D01*
X126551813Y-119040200D01*
X127448187Y-119040200D01*
X127592310Y-119026005D01*
X127777229Y-118969911D01*
X127947651Y-118878818D01*
X127983579Y-118849332D01*
X128635667Y-119501421D01*
X128651512Y-119520728D01*
X128728560Y-119583960D01*
X128816464Y-119630946D01*
X128884466Y-119651574D01*
X128762771Y-119688489D01*
X128592349Y-119779582D01*
X128442972Y-119902172D01*
X128320382Y-120051549D01*
X128270000Y-120145807D01*
X128219618Y-120051549D01*
X128097028Y-119902172D01*
X127947651Y-119779582D01*
X127777229Y-119688489D01*
X127592310Y-119632395D01*
X127448187Y-119618200D01*
X126551813Y-119618200D01*
X126407690Y-119632395D01*
X126222771Y-119688489D01*
X126052349Y-119779582D01*
X125902972Y-119902172D01*
X125780382Y-120051549D01*
X125689289Y-120221971D01*
X125633195Y-120406890D01*
X125614254Y-120599200D01*
X125633195Y-120791510D01*
X125689289Y-120976429D01*
X125780382Y-121146851D01*
X125902972Y-121296228D01*
X126052349Y-121418818D01*
X126222771Y-121509911D01*
X126407690Y-121566005D01*
X126551813Y-121580200D01*
X127448187Y-121580200D01*
X127592310Y-121566005D01*
X127777229Y-121509911D01*
X127947651Y-121418818D01*
X128097028Y-121296228D01*
X128219618Y-121146851D01*
X128270000Y-121052593D01*
X128320382Y-121146851D01*
X128442972Y-121296228D01*
X128592349Y-121418818D01*
X128762771Y-121509911D01*
X128947690Y-121566005D01*
X129091813Y-121580200D01*
X129988187Y-121580200D01*
X130132310Y-121566005D01*
X130317229Y-121509911D01*
X130487651Y-121418818D01*
X130637028Y-121296228D01*
X130759618Y-121146851D01*
X130781881Y-121105200D01*
X134021499Y-121105200D01*
X134071341Y-121155042D01*
X134199258Y-121240513D01*
X134341391Y-121299387D01*
X134492278Y-121329400D01*
X134646122Y-121329400D01*
X134797009Y-121299387D01*
X134939142Y-121240513D01*
X135067059Y-121155042D01*
X135175842Y-121046259D01*
X135261313Y-120918342D01*
X135320187Y-120776209D01*
X135350200Y-120625322D01*
X135350200Y-120471478D01*
X135320187Y-120320591D01*
X135261313Y-120178458D01*
X135175842Y-120050541D01*
X135067059Y-119941758D01*
X134939142Y-119856287D01*
X134797009Y-119797413D01*
X134646122Y-119767400D01*
X134492278Y-119767400D01*
X134341391Y-119797413D01*
X134199258Y-119856287D01*
X134071341Y-119941758D01*
X133962558Y-120050541D01*
X133934054Y-120093200D01*
X130781881Y-120093200D01*
X130759618Y-120051549D01*
X130637028Y-119902172D01*
X130487651Y-119779582D01*
X130317229Y-119688489D01*
X130247051Y-119667201D01*
X133551635Y-119667201D01*
X133576481Y-119669648D01*
X133601327Y-119667201D01*
X133601335Y-119667201D01*
X133675674Y-119659879D01*
X133771056Y-119630946D01*
X133858960Y-119583960D01*
X133936008Y-119520728D01*
X133951857Y-119501416D01*
X134533033Y-118920241D01*
X134675363Y-118920241D01*
X134826250Y-118890228D01*
X134968383Y-118831354D01*
X135096300Y-118745883D01*
X135205083Y-118637100D01*
X135290554Y-118509183D01*
X135349428Y-118367050D01*
X135379441Y-118216163D01*
X135379441Y-118062319D01*
X135349428Y-117911432D01*
X135290554Y-117769299D01*
X135205083Y-117641382D01*
X135096300Y-117532599D01*
X134968383Y-117447128D01*
X134826250Y-117388254D01*
X134675363Y-117358241D01*
X134521519Y-117358241D01*
X134370632Y-117388254D01*
X134228499Y-117447128D01*
X134100582Y-117532599D01*
X133991799Y-117641382D01*
X133906328Y-117769299D01*
X133847454Y-117911432D01*
X133817441Y-118062319D01*
X133817441Y-118204649D01*
X133366890Y-118655201D01*
X130719938Y-118655201D01*
X130759618Y-118606851D01*
X130850711Y-118436429D01*
X130906805Y-118251510D01*
X130925746Y-118059200D01*
X130906805Y-117866890D01*
X130850711Y-117681971D01*
X130774814Y-117539978D01*
X131669395Y-116645397D01*
X135179302Y-116645397D01*
X135279944Y-116746039D01*
X135407861Y-116831510D01*
X135549994Y-116890384D01*
X135700881Y-116920397D01*
X135854725Y-116920397D01*
X136005612Y-116890384D01*
X136147745Y-116831510D01*
X136275662Y-116746039D01*
X136384445Y-116637256D01*
X136400001Y-116613975D01*
X136400000Y-122218408D01*
X136104225Y-122514183D01*
X136082187Y-122403391D01*
X136023313Y-122261258D01*
X135937842Y-122133341D01*
X135829059Y-122024558D01*
X135701142Y-121939087D01*
X135559009Y-121880213D01*
X135408122Y-121850200D01*
X135254278Y-121850200D01*
X135103391Y-121880213D01*
X134961258Y-121939087D01*
X134833341Y-122024558D01*
X134724558Y-122133341D01*
X134639087Y-122261258D01*
X134580213Y-122403391D01*
X134559365Y-122508200D01*
X130691216Y-122508200D01*
X130637028Y-122442172D01*
X130487651Y-122319582D01*
X130317229Y-122228489D01*
X130132310Y-122172395D01*
X129988187Y-122158200D01*
X129091813Y-122158200D01*
X128947690Y-122172395D01*
X128762771Y-122228489D01*
X128592349Y-122319582D01*
X128442972Y-122442172D01*
X128320382Y-122591549D01*
X128270000Y-122685807D01*
X128219618Y-122591549D01*
X128097028Y-122442172D01*
X127947651Y-122319582D01*
X127777229Y-122228489D01*
X127592310Y-122172395D01*
X127448187Y-122158200D01*
X126551813Y-122158200D01*
X126407690Y-122172395D01*
X126222771Y-122228489D01*
X126052349Y-122319582D01*
X125902972Y-122442172D01*
X125780382Y-122591549D01*
X125689289Y-122761971D01*
X125633195Y-122946890D01*
X125614254Y-123139200D01*
X125633195Y-123331510D01*
X125689289Y-123516429D01*
X125780382Y-123686851D01*
X125902972Y-123836228D01*
X126052349Y-123958818D01*
X126222771Y-124049911D01*
X126407690Y-124106005D01*
X126551813Y-124120200D01*
X127448187Y-124120200D01*
X127592310Y-124106005D01*
X127777229Y-124049911D01*
X127947651Y-123958818D01*
X128097028Y-123836228D01*
X128219618Y-123686851D01*
X128270000Y-123592593D01*
X128320382Y-123686851D01*
X128442972Y-123836228D01*
X128592349Y-123958818D01*
X128762771Y-124049911D01*
X128947690Y-124106005D01*
X129091813Y-124120200D01*
X129988187Y-124120200D01*
X130132310Y-124106005D01*
X130317229Y-124049911D01*
X130487651Y-123958818D01*
X130637028Y-123836228D01*
X130691216Y-123770200D01*
X134792210Y-123770200D01*
X134823200Y-123773252D01*
X134847555Y-123770853D01*
X130295609Y-128322800D01*
X127700101Y-128322800D01*
X127599459Y-128222158D01*
X127471542Y-128136687D01*
X127329409Y-128077813D01*
X127178522Y-128047800D01*
X127024678Y-128047800D01*
X126873791Y-128077813D01*
X126731658Y-128136687D01*
X126603741Y-128222158D01*
X126494958Y-128330941D01*
X126409487Y-128458858D01*
X126350613Y-128600991D01*
X126320600Y-128751878D01*
X126320600Y-128905722D01*
X126350613Y-129056609D01*
X126409487Y-129198742D01*
X126494958Y-129326659D01*
X126603741Y-129435442D01*
X126731658Y-129520913D01*
X126873791Y-129579787D01*
X127024678Y-129609800D01*
X127178522Y-129609800D01*
X127329409Y-129579787D01*
X127471542Y-129520913D01*
X127599459Y-129435442D01*
X127677260Y-129357641D01*
X127625238Y-129483232D01*
X127595225Y-129634119D01*
X127595225Y-129787963D01*
X127616510Y-129894969D01*
X127609153Y-129969666D01*
X127611601Y-129994522D01*
X127611600Y-132040299D01*
X127510958Y-132140941D01*
X127425487Y-132268858D01*
X127366613Y-132410991D01*
X127336600Y-132561878D01*
X127336600Y-132715722D01*
X127366613Y-132866609D01*
X127425487Y-133008742D01*
X127510958Y-133136659D01*
X127619741Y-133245442D01*
X127747658Y-133330913D01*
X127889791Y-133389787D01*
X128040678Y-133419800D01*
X128194522Y-133419800D01*
X128345409Y-133389787D01*
X128487542Y-133330913D01*
X128615459Y-133245442D01*
X128724242Y-133136659D01*
X128809713Y-133008742D01*
X128868587Y-132866609D01*
X128898600Y-132715722D01*
X128898600Y-132561878D01*
X128868587Y-132410991D01*
X128809713Y-132268858D01*
X128724242Y-132140941D01*
X128623600Y-132040299D01*
X128623600Y-130453923D01*
X128746167Y-130403154D01*
X128874084Y-130317683D01*
X128982867Y-130208900D01*
X129068338Y-130080983D01*
X129127212Y-129938850D01*
X129157225Y-129787963D01*
X129157225Y-129634119D01*
X129127212Y-129483232D01*
X129068338Y-129341099D01*
X129064129Y-129334800D01*
X130480354Y-129334800D01*
X130505200Y-129337247D01*
X130530046Y-129334800D01*
X130530054Y-129334800D01*
X130604393Y-129327478D01*
X130699775Y-129298545D01*
X130787679Y-129251559D01*
X130864727Y-129188327D01*
X130880576Y-129169015D01*
X137246220Y-122803372D01*
X137259395Y-122792559D01*
X137272613Y-122859009D01*
X137331487Y-123001142D01*
X137416958Y-123129059D01*
X137525741Y-123237842D01*
X137653658Y-123323313D01*
X137795791Y-123382187D01*
X137946678Y-123412200D01*
X138100522Y-123412200D01*
X138251409Y-123382187D01*
X138393542Y-123323313D01*
X138485005Y-123262200D01*
X141747734Y-123262200D01*
X142128552Y-123643019D01*
X142128552Y-125937359D01*
X142012122Y-125914200D01*
X141858278Y-125914200D01*
X141707391Y-125944213D01*
X141565258Y-126003087D01*
X141437341Y-126088558D01*
X141328558Y-126197341D01*
X141243087Y-126325258D01*
X141236318Y-126341600D01*
X137910901Y-126341600D01*
X137810259Y-126240958D01*
X137682342Y-126155487D01*
X137540209Y-126096613D01*
X137389322Y-126066600D01*
X137235478Y-126066600D01*
X137084591Y-126096613D01*
X136942458Y-126155487D01*
X136814541Y-126240958D01*
X136705758Y-126349741D01*
X136620287Y-126477658D01*
X136561413Y-126619791D01*
X136531400Y-126770678D01*
X136531400Y-126924522D01*
X136561413Y-127075409D01*
X136620287Y-127217542D01*
X136705758Y-127345459D01*
X136814541Y-127454242D01*
X136942458Y-127539713D01*
X137084591Y-127598587D01*
X137235478Y-127628600D01*
X137389322Y-127628600D01*
X137540209Y-127598587D01*
X137682342Y-127539713D01*
X137810259Y-127454242D01*
X137910901Y-127353600D01*
X141514803Y-127353600D01*
X141565258Y-127387313D01*
X141707391Y-127446187D01*
X141858278Y-127476200D01*
X142012122Y-127476200D01*
X142128552Y-127453041D01*
X142128551Y-131693067D01*
X142125499Y-131724057D01*
X142128551Y-131755047D01*
X142128551Y-131755054D01*
X142137681Y-131847754D01*
X142173762Y-131966698D01*
X142232355Y-132076317D01*
X142311208Y-132172400D01*
X142335288Y-132192162D01*
X142528550Y-132385424D01*
X142528550Y-132662684D01*
X142389609Y-132720236D01*
X142261692Y-132805707D01*
X142152909Y-132914490D01*
X142067438Y-133042407D01*
X142008564Y-133184540D01*
X141978551Y-133335427D01*
X141978551Y-133477757D01*
X141344600Y-134111709D01*
X141344600Y-134035078D01*
X141314587Y-133884191D01*
X141255713Y-133742058D01*
X141170242Y-133614141D01*
X141061459Y-133505358D01*
X140933542Y-133419887D01*
X140791409Y-133361013D01*
X140640522Y-133331000D01*
X140498191Y-133331000D01*
X140134575Y-132967384D01*
X140118726Y-132948072D01*
X140041678Y-132884840D01*
X139953774Y-132837854D01*
X139858392Y-132808921D01*
X139784053Y-132801599D01*
X139784045Y-132801599D01*
X139759199Y-132799152D01*
X139734353Y-132801599D01*
X136299989Y-132801599D01*
X136336187Y-132714209D01*
X136366200Y-132563322D01*
X136366200Y-132409478D01*
X136336187Y-132258591D01*
X136277313Y-132116458D01*
X136191842Y-131988541D01*
X136083059Y-131879758D01*
X135955142Y-131794287D01*
X135813009Y-131735413D01*
X135662122Y-131705400D01*
X135519792Y-131705400D01*
X134741376Y-130926985D01*
X134725527Y-130907673D01*
X134648479Y-130844441D01*
X134560575Y-130797455D01*
X134465193Y-130768522D01*
X134390854Y-130761200D01*
X134390846Y-130761200D01*
X134366000Y-130758753D01*
X134341154Y-130761200D01*
X131103701Y-130761200D01*
X131003059Y-130660558D01*
X130875142Y-130575087D01*
X130733009Y-130516213D01*
X130582122Y-130486200D01*
X130428278Y-130486200D01*
X130277391Y-130516213D01*
X130135258Y-130575087D01*
X130007341Y-130660558D01*
X129898558Y-130769341D01*
X129813087Y-130897258D01*
X129754213Y-131039391D01*
X129724200Y-131190278D01*
X129724200Y-131344122D01*
X129754213Y-131495009D01*
X129813087Y-131637142D01*
X129898558Y-131765059D01*
X130007341Y-131873842D01*
X130135258Y-131959313D01*
X130277391Y-132018187D01*
X130428278Y-132048200D01*
X130582122Y-132048200D01*
X130733009Y-132018187D01*
X130875142Y-131959313D01*
X131003059Y-131873842D01*
X131103701Y-131773200D01*
X132236961Y-131773200D01*
X132140941Y-131837358D01*
X132032158Y-131946141D01*
X131946687Y-132074058D01*
X131887813Y-132216191D01*
X131857800Y-132367078D01*
X131857800Y-132520922D01*
X131887813Y-132671809D01*
X131946687Y-132813942D01*
X132032158Y-132941859D01*
X132140941Y-133050642D01*
X132268858Y-133136113D01*
X132410991Y-133194987D01*
X132561878Y-133225000D01*
X132704209Y-133225000D01*
X132928972Y-133449763D01*
X132878458Y-133470687D01*
X132750541Y-133556158D01*
X132641758Y-133664941D01*
X132556287Y-133792858D01*
X132497413Y-133934991D01*
X132467400Y-134085878D01*
X132467400Y-134239722D01*
X132486844Y-134337473D01*
X132418305Y-134344224D01*
X132322923Y-134373157D01*
X132235019Y-134420143D01*
X132157971Y-134483375D01*
X132142127Y-134502681D01*
X131718009Y-134926800D01*
X130732291Y-134926800D01*
X130631409Y-134885013D01*
X130480522Y-134855000D01*
X130326678Y-134855000D01*
X130175791Y-134885013D01*
X130033658Y-134943887D01*
X129905741Y-135029358D01*
X129796958Y-135138141D01*
X129711487Y-135266058D01*
X129652613Y-135408191D01*
X129622600Y-135559078D01*
X129622600Y-135712922D01*
X129652613Y-135863809D01*
X129711487Y-136005942D01*
X129796958Y-136133859D01*
X129905741Y-136242642D01*
X130033658Y-136328113D01*
X130175791Y-136386987D01*
X130326678Y-136417000D01*
X130480522Y-136417000D01*
X130631409Y-136386987D01*
X130773542Y-136328113D01*
X130901459Y-136242642D01*
X131010242Y-136133859D01*
X131095713Y-136005942D01*
X131123524Y-135938800D01*
X131902754Y-135938800D01*
X131927600Y-135941247D01*
X131952446Y-135938800D01*
X131952454Y-135938800D01*
X132026793Y-135931478D01*
X132122175Y-135902545D01*
X132210079Y-135855559D01*
X132287127Y-135792327D01*
X132302976Y-135773015D01*
X132727090Y-135348902D01*
X141304152Y-135348902D01*
X141328998Y-135351349D01*
X141353844Y-135348902D01*
X141353852Y-135348902D01*
X141428191Y-135341580D01*
X141523573Y-135312647D01*
X141611477Y-135265661D01*
X141688525Y-135202429D01*
X141704374Y-135183117D01*
X142694143Y-134193349D01*
X142836473Y-134193349D01*
X142987360Y-134163336D01*
X143129493Y-134104462D01*
X143257410Y-134018991D01*
X143366193Y-133910208D01*
X143451664Y-133782291D01*
X143510538Y-133640158D01*
X143531998Y-133532270D01*
X143583814Y-133480454D01*
X143607893Y-133460693D01*
X143686746Y-133364611D01*
X143745339Y-133254992D01*
X143781420Y-133136048D01*
X143790550Y-133043348D01*
X143790550Y-133043341D01*
X143793602Y-133012351D01*
X143790550Y-132981360D01*
X143790550Y-132155046D01*
X143793602Y-132124055D01*
X143790550Y-132093065D01*
X143790550Y-132093058D01*
X143781420Y-132000358D01*
X143745339Y-131881414D01*
X143686746Y-131771795D01*
X143607893Y-131675713D01*
X143583813Y-131655951D01*
X143390551Y-131462689D01*
X143390551Y-123412636D01*
X143393603Y-123381648D01*
X143390551Y-123350660D01*
X143390551Y-122605078D01*
X147047000Y-122605078D01*
X147047000Y-122758922D01*
X147077013Y-122909809D01*
X147135887Y-123051942D01*
X147221358Y-123179859D01*
X147330141Y-123288642D01*
X147458058Y-123374113D01*
X147600191Y-123432987D01*
X147751078Y-123463000D01*
X147893409Y-123463000D01*
X148761838Y-124331430D01*
X148777683Y-124350737D01*
X148854731Y-124413969D01*
X148942635Y-124460955D01*
X149038017Y-124489888D01*
X149137210Y-124499658D01*
X149162064Y-124497210D01*
X154063144Y-124497210D01*
X154087990Y-124499657D01*
X154112836Y-124497210D01*
X154112844Y-124497210D01*
X154187183Y-124489888D01*
X154282565Y-124460955D01*
X154370469Y-124413969D01*
X154447517Y-124350737D01*
X154463366Y-124331425D01*
X154674591Y-124120200D01*
X155388187Y-124120200D01*
X155532310Y-124106005D01*
X155717229Y-124049911D01*
X155887651Y-123958818D01*
X156037028Y-123836228D01*
X156159618Y-123686851D01*
X156250711Y-123516429D01*
X156306805Y-123331510D01*
X156325746Y-123139200D01*
X156306805Y-122946890D01*
X156250711Y-122761971D01*
X156159618Y-122591549D01*
X156037028Y-122442172D01*
X155887651Y-122319582D01*
X155717229Y-122228489D01*
X155532310Y-122172395D01*
X155388187Y-122158200D01*
X154491813Y-122158200D01*
X154347690Y-122172395D01*
X154162771Y-122228489D01*
X153992349Y-122319582D01*
X153842972Y-122442172D01*
X153720382Y-122591549D01*
X153670000Y-122685807D01*
X153619618Y-122591549D01*
X153497028Y-122442172D01*
X153347651Y-122319582D01*
X153177229Y-122228489D01*
X152992310Y-122172395D01*
X152848187Y-122158200D01*
X151951813Y-122158200D01*
X151807690Y-122172395D01*
X151622771Y-122228489D01*
X151452349Y-122319582D01*
X151302972Y-122442172D01*
X151180382Y-122591549D01*
X151089289Y-122761971D01*
X151033195Y-122946890D01*
X151014254Y-123139200D01*
X151033195Y-123331510D01*
X151079819Y-123485210D01*
X149346802Y-123485210D01*
X148609000Y-122747409D01*
X148609000Y-122605078D01*
X148578987Y-122454191D01*
X148520113Y-122312058D01*
X148434642Y-122184141D01*
X148325859Y-122075358D01*
X148197942Y-121989887D01*
X148055809Y-121931013D01*
X147904922Y-121901000D01*
X147751078Y-121901000D01*
X147600191Y-121931013D01*
X147458058Y-121989887D01*
X147330141Y-122075358D01*
X147221358Y-122184141D01*
X147135887Y-122312058D01*
X147077013Y-122454191D01*
X147047000Y-122605078D01*
X143390551Y-122605078D01*
X143390551Y-120916809D01*
X150806538Y-120916809D01*
X150810409Y-120954482D01*
X150902579Y-121179733D01*
X151036922Y-121382674D01*
X151208275Y-121555507D01*
X151410054Y-121691590D01*
X151634504Y-121785693D01*
X151873000Y-121834200D01*
X152273000Y-121834200D01*
X152273000Y-120726200D01*
X150931269Y-120726200D01*
X150806538Y-120916809D01*
X143390551Y-120916809D01*
X143390551Y-120281591D01*
X150806538Y-120281591D01*
X150931269Y-120472200D01*
X152273000Y-120472200D01*
X152273000Y-119364200D01*
X152527000Y-119364200D01*
X152527000Y-120472200D01*
X152547000Y-120472200D01*
X152547000Y-120726200D01*
X152527000Y-120726200D01*
X152527000Y-121834200D01*
X152927000Y-121834200D01*
X153165496Y-121785693D01*
X153389946Y-121691590D01*
X153591725Y-121555507D01*
X153763078Y-121382674D01*
X153830425Y-121280939D01*
X153842972Y-121296228D01*
X153992349Y-121418818D01*
X154162771Y-121509911D01*
X154347690Y-121566005D01*
X154491813Y-121580200D01*
X155388187Y-121580200D01*
X155532310Y-121566005D01*
X155717229Y-121509911D01*
X155887651Y-121418818D01*
X156037028Y-121296228D01*
X156159618Y-121146851D01*
X156250711Y-120976429D01*
X156306805Y-120791510D01*
X156325746Y-120599200D01*
X156306805Y-120406890D01*
X156250711Y-120221971D01*
X156159618Y-120051549D01*
X156037028Y-119902172D01*
X155887651Y-119779582D01*
X155717229Y-119688489D01*
X155532310Y-119632395D01*
X155388187Y-119618200D01*
X154491813Y-119618200D01*
X154347690Y-119632395D01*
X154162771Y-119688489D01*
X153992349Y-119779582D01*
X153842972Y-119902172D01*
X153830425Y-119917461D01*
X153763078Y-119815726D01*
X153591725Y-119642893D01*
X153389946Y-119506810D01*
X153165496Y-119412707D01*
X152927000Y-119364200D01*
X152527000Y-119364200D01*
X152273000Y-119364200D01*
X151873000Y-119364200D01*
X151634504Y-119412707D01*
X151410054Y-119506810D01*
X151208275Y-119642893D01*
X151036922Y-119815726D01*
X150902579Y-120018667D01*
X150810409Y-120243918D01*
X150806538Y-120281591D01*
X143390551Y-120281591D01*
X143390551Y-116780949D01*
X143393604Y-116749951D01*
X143381421Y-116626253D01*
X143345340Y-116507309D01*
X143286747Y-116397690D01*
X143227654Y-116325685D01*
X143227652Y-116325683D01*
X143207894Y-116301608D01*
X143183819Y-116281850D01*
X140370847Y-113468879D01*
X140365659Y-113442799D01*
X142881400Y-113442799D01*
X142881400Y-113564122D01*
X142911413Y-113715009D01*
X142970287Y-113857142D01*
X143055758Y-113985059D01*
X143164541Y-114093842D01*
X143292458Y-114179313D01*
X143434591Y-114238187D01*
X143585478Y-114268200D01*
X143739322Y-114268200D01*
X143890209Y-114238187D01*
X144032342Y-114179313D01*
X144160259Y-114093842D01*
X144269042Y-113985059D01*
X144354513Y-113857142D01*
X144355645Y-113854410D01*
X145293854Y-114792620D01*
X145309699Y-114811927D01*
X145386747Y-114875159D01*
X145467321Y-114918227D01*
X145474651Y-114922145D01*
X145570033Y-114951078D01*
X145669226Y-114960848D01*
X145694080Y-114958400D01*
X146111899Y-114958400D01*
X146212541Y-115059042D01*
X146340458Y-115144513D01*
X146482591Y-115203387D01*
X146633478Y-115233400D01*
X146787322Y-115233400D01*
X146938209Y-115203387D01*
X147080342Y-115144513D01*
X147208259Y-115059042D01*
X147317042Y-114950259D01*
X147402513Y-114822342D01*
X147461387Y-114680209D01*
X147482961Y-114571747D01*
X147509770Y-114579879D01*
X147584109Y-114587201D01*
X147584116Y-114587201D01*
X147608962Y-114589648D01*
X147633808Y-114587201D01*
X151692949Y-114587201D01*
X151622771Y-114608489D01*
X151452349Y-114699582D01*
X151302972Y-114822172D01*
X151180382Y-114971549D01*
X151089289Y-115141971D01*
X151033195Y-115326890D01*
X151014254Y-115519200D01*
X151033195Y-115711510D01*
X151089289Y-115896429D01*
X151180382Y-116066851D01*
X151302972Y-116216228D01*
X151452349Y-116338818D01*
X151622771Y-116429911D01*
X151662627Y-116442001D01*
X148746816Y-116442001D01*
X148782187Y-116356609D01*
X148812200Y-116205722D01*
X148812200Y-116051878D01*
X148782187Y-115900991D01*
X148723313Y-115758858D01*
X148637842Y-115630941D01*
X148529059Y-115522158D01*
X148401142Y-115436687D01*
X148259009Y-115377813D01*
X148108122Y-115347800D01*
X147954278Y-115347800D01*
X147803391Y-115377813D01*
X147661258Y-115436687D01*
X147533341Y-115522158D01*
X147432699Y-115622800D01*
X146430445Y-115622800D01*
X146405599Y-115620353D01*
X146380753Y-115622800D01*
X146380746Y-115622800D01*
X146306407Y-115630122D01*
X146211025Y-115659055D01*
X146123121Y-115706041D01*
X146046073Y-115769273D01*
X146030228Y-115788580D01*
X145404209Y-116414600D01*
X145261878Y-116414600D01*
X145110991Y-116444613D01*
X144968858Y-116503487D01*
X144840941Y-116588958D01*
X144732158Y-116697741D01*
X144646687Y-116825658D01*
X144587813Y-116967791D01*
X144557800Y-117118678D01*
X144557800Y-117272522D01*
X144587813Y-117423409D01*
X144646687Y-117565542D01*
X144732158Y-117693459D01*
X144840941Y-117802242D01*
X144968858Y-117887713D01*
X145061233Y-117925976D01*
X144997809Y-117989400D01*
X144855478Y-117989400D01*
X144704591Y-118019413D01*
X144562458Y-118078287D01*
X144434541Y-118163758D01*
X144325758Y-118272541D01*
X144240287Y-118400458D01*
X144181413Y-118542591D01*
X144151400Y-118693478D01*
X144151400Y-118847322D01*
X144181413Y-118998209D01*
X144240287Y-119140342D01*
X144325758Y-119268259D01*
X144434541Y-119377042D01*
X144562458Y-119462513D01*
X144704591Y-119521387D01*
X144855478Y-119551400D01*
X145009322Y-119551400D01*
X145160209Y-119521387D01*
X145302342Y-119462513D01*
X145430259Y-119377042D01*
X145539042Y-119268259D01*
X145624513Y-119140342D01*
X145683387Y-118998209D01*
X145713400Y-118847322D01*
X145713400Y-118704991D01*
X146964391Y-117454001D01*
X151227610Y-117454001D01*
X151180382Y-117511549D01*
X151089289Y-117681971D01*
X151033195Y-117866890D01*
X151014254Y-118059200D01*
X151033195Y-118251510D01*
X151089289Y-118436429D01*
X151180382Y-118606851D01*
X151302972Y-118756228D01*
X151452349Y-118878818D01*
X151622771Y-118969911D01*
X151807690Y-119026005D01*
X151951813Y-119040200D01*
X152848187Y-119040200D01*
X152992310Y-119026005D01*
X153177229Y-118969911D01*
X153347651Y-118878818D01*
X153497028Y-118756228D01*
X153619618Y-118606851D01*
X153670000Y-118512593D01*
X153720382Y-118606851D01*
X153842972Y-118756228D01*
X153992349Y-118878818D01*
X154162771Y-118969911D01*
X154347690Y-119026005D01*
X154491813Y-119040200D01*
X155388187Y-119040200D01*
X155532310Y-119026005D01*
X155717229Y-118969911D01*
X155887651Y-118878818D01*
X156037028Y-118756228D01*
X156159618Y-118606851D01*
X156250711Y-118436429D01*
X156306805Y-118251510D01*
X156325746Y-118059200D01*
X156306805Y-117866890D01*
X156250711Y-117681971D01*
X156159618Y-117511549D01*
X156037028Y-117362172D01*
X155887651Y-117239582D01*
X155717229Y-117148489D01*
X155532310Y-117092395D01*
X155388187Y-117078200D01*
X154491813Y-117078200D01*
X154347690Y-117092395D01*
X154162771Y-117148489D01*
X153992349Y-117239582D01*
X153842972Y-117362172D01*
X153720382Y-117511549D01*
X153670000Y-117605807D01*
X153619618Y-117511549D01*
X153569672Y-117450690D01*
X153610392Y-117446679D01*
X153705774Y-117417746D01*
X153793678Y-117370760D01*
X153870726Y-117307528D01*
X153886575Y-117288216D01*
X154674592Y-116500200D01*
X155388187Y-116500200D01*
X155532310Y-116486005D01*
X155717229Y-116429911D01*
X155887651Y-116338818D01*
X156037028Y-116216228D01*
X156159618Y-116066851D01*
X156250711Y-115896429D01*
X156306805Y-115711510D01*
X156325746Y-115519200D01*
X156306805Y-115326890D01*
X156250711Y-115141971D01*
X156159618Y-114971549D01*
X156037028Y-114822172D01*
X155887651Y-114699582D01*
X155717229Y-114608489D01*
X155532310Y-114552395D01*
X155388187Y-114538200D01*
X154491813Y-114538200D01*
X154347690Y-114552395D01*
X154162771Y-114608489D01*
X153992349Y-114699582D01*
X153842972Y-114822172D01*
X153720382Y-114971549D01*
X153670000Y-115065807D01*
X153619618Y-114971549D01*
X153497028Y-114822172D01*
X153347651Y-114699582D01*
X153177229Y-114608489D01*
X153107051Y-114587201D01*
X153813153Y-114587201D01*
X153837999Y-114589648D01*
X153862845Y-114587201D01*
X153862853Y-114587201D01*
X153937192Y-114579879D01*
X154032574Y-114550946D01*
X154120478Y-114503960D01*
X154197526Y-114440728D01*
X154213375Y-114421416D01*
X154674591Y-113960200D01*
X155388187Y-113960200D01*
X155532310Y-113946005D01*
X155717229Y-113889911D01*
X155887651Y-113798818D01*
X156037028Y-113676228D01*
X156159618Y-113526851D01*
X156250711Y-113356429D01*
X156306805Y-113171510D01*
X156325746Y-112979200D01*
X156306805Y-112786890D01*
X156250711Y-112601971D01*
X156159618Y-112431549D01*
X156037028Y-112282172D01*
X155887651Y-112159582D01*
X155717229Y-112068489D01*
X155532310Y-112012395D01*
X155388187Y-111998200D01*
X154491813Y-111998200D01*
X154347690Y-112012395D01*
X154162771Y-112068489D01*
X153992349Y-112159582D01*
X153842972Y-112282172D01*
X153720382Y-112431549D01*
X153670000Y-112525807D01*
X153619618Y-112431549D01*
X153497028Y-112282172D01*
X153347651Y-112159582D01*
X153177229Y-112068489D01*
X153107051Y-112047201D01*
X153813153Y-112047201D01*
X153837999Y-112049648D01*
X153862845Y-112047201D01*
X153862853Y-112047201D01*
X153937192Y-112039879D01*
X154032574Y-112010946D01*
X154120478Y-111963960D01*
X154197526Y-111900728D01*
X154213375Y-111881416D01*
X154674591Y-111420200D01*
X155388187Y-111420200D01*
X155532310Y-111406005D01*
X155717229Y-111349911D01*
X155887651Y-111258818D01*
X156037028Y-111136228D01*
X156159618Y-110986851D01*
X156250711Y-110816429D01*
X156306805Y-110631510D01*
X156325746Y-110439200D01*
X156306805Y-110246890D01*
X156250711Y-110061971D01*
X156159618Y-109891549D01*
X156037028Y-109742172D01*
X155887651Y-109619582D01*
X155717229Y-109528489D01*
X155532310Y-109472395D01*
X155388187Y-109458200D01*
X154491813Y-109458200D01*
X154347690Y-109472395D01*
X154162771Y-109528489D01*
X153992349Y-109619582D01*
X153842972Y-109742172D01*
X153720382Y-109891549D01*
X153670000Y-109985807D01*
X153619618Y-109891549D01*
X153497028Y-109742172D01*
X153347651Y-109619582D01*
X153177229Y-109528489D01*
X152992310Y-109472395D01*
X152848187Y-109458200D01*
X152134592Y-109458200D01*
X149769190Y-107092799D01*
X151436244Y-107092799D01*
X151302972Y-107202172D01*
X151180382Y-107351549D01*
X151089289Y-107521971D01*
X151033195Y-107706890D01*
X151014254Y-107899200D01*
X151033195Y-108091510D01*
X151089289Y-108276429D01*
X151180382Y-108446851D01*
X151302972Y-108596228D01*
X151452349Y-108718818D01*
X151622771Y-108809911D01*
X151807690Y-108866005D01*
X151951813Y-108880200D01*
X152848187Y-108880200D01*
X152992310Y-108866005D01*
X153177229Y-108809911D01*
X153347651Y-108718818D01*
X153497028Y-108596228D01*
X153619618Y-108446851D01*
X153670000Y-108352593D01*
X153720382Y-108446851D01*
X153842972Y-108596228D01*
X153992349Y-108718818D01*
X154162771Y-108809911D01*
X154347690Y-108866005D01*
X154491813Y-108880200D01*
X155388187Y-108880200D01*
X155532310Y-108866005D01*
X155717229Y-108809911D01*
X155887651Y-108718818D01*
X156037028Y-108596228D01*
X156159618Y-108446851D01*
X156250711Y-108276429D01*
X156306805Y-108091510D01*
X156325746Y-107899200D01*
X156306805Y-107706890D01*
X156250711Y-107521971D01*
X156159618Y-107351549D01*
X156037028Y-107202172D01*
X155887651Y-107079582D01*
X155717229Y-106988489D01*
X155532310Y-106932395D01*
X155388187Y-106918200D01*
X154674592Y-106918200D01*
X154334657Y-106578266D01*
X154413000Y-106594200D01*
X154813000Y-106594200D01*
X154813000Y-105486200D01*
X154793000Y-105486200D01*
X154793000Y-105232200D01*
X154813000Y-105232200D01*
X154813000Y-104124200D01*
X154413000Y-104124200D01*
X154174504Y-104172707D01*
X153950054Y-104266810D01*
X153748275Y-104402893D01*
X153576922Y-104575726D01*
X153509575Y-104677461D01*
X153497028Y-104662172D01*
X153347651Y-104539582D01*
X153177229Y-104448489D01*
X152992310Y-104392395D01*
X152848187Y-104378200D01*
X151951813Y-104378200D01*
X151807690Y-104392395D01*
X151622771Y-104448489D01*
X151452349Y-104539582D01*
X151302972Y-104662172D01*
X151180382Y-104811549D01*
X151158119Y-104853200D01*
X147446692Y-104853200D01*
X147421838Y-104850752D01*
X147396984Y-104853200D01*
X147322645Y-104860522D01*
X147227263Y-104889455D01*
X147139359Y-104936441D01*
X147062311Y-104999673D01*
X147046466Y-105018980D01*
X145057784Y-107007663D01*
X145038472Y-107023512D01*
X144975240Y-107100560D01*
X144928254Y-107188465D01*
X144899321Y-107283847D01*
X144891999Y-107358186D01*
X144891999Y-107358193D01*
X144889552Y-107383039D01*
X144891999Y-107407886D01*
X144892000Y-107984105D01*
X144889552Y-108008961D01*
X144899321Y-108108153D01*
X144928254Y-108203535D01*
X144942502Y-108230191D01*
X144975241Y-108291440D01*
X145038473Y-108368488D01*
X145057780Y-108384333D01*
X145361663Y-108688216D01*
X145377512Y-108707528D01*
X145454560Y-108770760D01*
X145542464Y-108817746D01*
X145637846Y-108846679D01*
X145712185Y-108854001D01*
X145712193Y-108854001D01*
X145737039Y-108856448D01*
X145761885Y-108854001D01*
X146588131Y-108854001D01*
X146568141Y-108867358D01*
X146459358Y-108976141D01*
X146373887Y-109104058D01*
X146315013Y-109246191D01*
X146285000Y-109397078D01*
X146285000Y-109550922D01*
X146315013Y-109701809D01*
X146373887Y-109843942D01*
X146459358Y-109971859D01*
X146568141Y-110080642D01*
X146696058Y-110166113D01*
X146838191Y-110224987D01*
X146989078Y-110255000D01*
X147131409Y-110255000D01*
X148757829Y-111881421D01*
X148773674Y-111900728D01*
X148850722Y-111963960D01*
X148915568Y-111998621D01*
X148938626Y-112010946D01*
X149034008Y-112039879D01*
X149133201Y-112049649D01*
X149158055Y-112047201D01*
X151692949Y-112047201D01*
X151622771Y-112068489D01*
X151452349Y-112159582D01*
X151302972Y-112282172D01*
X151180382Y-112431549D01*
X151089289Y-112601971D01*
X151033195Y-112786890D01*
X151014254Y-112979200D01*
X151033195Y-113171510D01*
X151089289Y-113356429D01*
X151180382Y-113526851D01*
X151220062Y-113575201D01*
X148775696Y-113575201D01*
X148824913Y-113501542D01*
X148883787Y-113359409D01*
X148913800Y-113208522D01*
X148913800Y-113054678D01*
X148883787Y-112903791D01*
X148824913Y-112761658D01*
X148739442Y-112633741D01*
X148630659Y-112524958D01*
X148502742Y-112439487D01*
X148360609Y-112380613D01*
X148209722Y-112350600D01*
X148067392Y-112350600D01*
X147034976Y-111318185D01*
X147019127Y-111298873D01*
X146942079Y-111235641D01*
X146854175Y-111188655D01*
X146758793Y-111159722D01*
X146684454Y-111152400D01*
X146684446Y-111152400D01*
X146659600Y-111149953D01*
X146634754Y-111152400D01*
X146394501Y-111152400D01*
X146293859Y-111051758D01*
X146165942Y-110966287D01*
X146023809Y-110907413D01*
X145872922Y-110877400D01*
X145719078Y-110877400D01*
X145568191Y-110907413D01*
X145426058Y-110966287D01*
X145298141Y-111051758D01*
X145189358Y-111160541D01*
X145103887Y-111288458D01*
X145045013Y-111430591D01*
X145015000Y-111581478D01*
X145015000Y-111735322D01*
X145045013Y-111886209D01*
X145103887Y-112028342D01*
X145189358Y-112156259D01*
X145298141Y-112265042D01*
X145426058Y-112350513D01*
X145568191Y-112409387D01*
X145719078Y-112439400D01*
X145872922Y-112439400D01*
X146023809Y-112409387D01*
X146165942Y-112350513D01*
X146293859Y-112265042D01*
X146394501Y-112164400D01*
X146450009Y-112164400D01*
X147351800Y-113066192D01*
X147351800Y-113208522D01*
X147359907Y-113249281D01*
X147302215Y-113243599D01*
X147302207Y-113243599D01*
X147277361Y-113241152D01*
X147252515Y-113243599D01*
X146115591Y-113243599D01*
X141243776Y-108371785D01*
X141227927Y-108352473D01*
X141150879Y-108289241D01*
X141062975Y-108242255D01*
X140967593Y-108213322D01*
X140893254Y-108206000D01*
X140893246Y-108206000D01*
X140868400Y-108203553D01*
X140843554Y-108206000D01*
X138759652Y-108206000D01*
X138734798Y-108203552D01*
X138709944Y-108206000D01*
X138635605Y-108213322D01*
X138540223Y-108242255D01*
X138452319Y-108289241D01*
X138375271Y-108352473D01*
X138359426Y-108371780D01*
X133923409Y-112807798D01*
X133781078Y-112807798D01*
X133630191Y-112837811D01*
X133488058Y-112896685D01*
X133360141Y-112982156D01*
X133251358Y-113090939D01*
X133165887Y-113218856D01*
X133107013Y-113360989D01*
X133077000Y-113511876D01*
X133077000Y-113665720D01*
X133090741Y-113734799D01*
X131011191Y-113734799D01*
X130774814Y-113498422D01*
X130850711Y-113356429D01*
X130906805Y-113171510D01*
X130925746Y-112979200D01*
X130906805Y-112786890D01*
X130850711Y-112601971D01*
X130759618Y-112431549D01*
X130637028Y-112282172D01*
X130487651Y-112159582D01*
X130317229Y-112068489D01*
X130132310Y-112012395D01*
X129988187Y-111998200D01*
X129091813Y-111998200D01*
X128947690Y-112012395D01*
X128776000Y-112064476D01*
X128776000Y-111918791D01*
X129274592Y-111420200D01*
X129988187Y-111420200D01*
X130132310Y-111406005D01*
X130317229Y-111349911D01*
X130487651Y-111258818D01*
X130637028Y-111136228D01*
X130759618Y-110986851D01*
X130850711Y-110816429D01*
X130906805Y-110631510D01*
X130925746Y-110439200D01*
X130906805Y-110246890D01*
X130850711Y-110061971D01*
X130759618Y-109891549D01*
X130637028Y-109742172D01*
X130487651Y-109619582D01*
X130317229Y-109528489D01*
X130132310Y-109472395D01*
X129988187Y-109458200D01*
X129091813Y-109458200D01*
X128947690Y-109472395D01*
X128762771Y-109528489D01*
X128592349Y-109619582D01*
X128442972Y-109742172D01*
X128320382Y-109891549D01*
X128270000Y-109985807D01*
X128219618Y-109891549D01*
X128097028Y-109742172D01*
X127947651Y-109619582D01*
X127777229Y-109528489D01*
X127592310Y-109472395D01*
X127448187Y-109458200D01*
X126551813Y-109458200D01*
X126407690Y-109472395D01*
X126222771Y-109528489D01*
X126052349Y-109619582D01*
X125902972Y-109742172D01*
X125780382Y-109891549D01*
X125689289Y-110061971D01*
X125633195Y-110246890D01*
X125614254Y-110439200D01*
X125340462Y-110439200D01*
X125340462Y-107899200D01*
X125614254Y-107899200D01*
X125633195Y-108091510D01*
X125689289Y-108276429D01*
X125780382Y-108446851D01*
X125902972Y-108596228D01*
X126052349Y-108718818D01*
X126222771Y-108809911D01*
X126407690Y-108866005D01*
X126551813Y-108880200D01*
X127448187Y-108880200D01*
X127592310Y-108866005D01*
X127777229Y-108809911D01*
X127947651Y-108718818D01*
X128097028Y-108596228D01*
X128219618Y-108446851D01*
X128270000Y-108352593D01*
X128320382Y-108446851D01*
X128442972Y-108596228D01*
X128592349Y-108718818D01*
X128762771Y-108809911D01*
X128947690Y-108866005D01*
X129091813Y-108880200D01*
X129988187Y-108880200D01*
X130132310Y-108866005D01*
X130317229Y-108809911D01*
X130487651Y-108718818D01*
X130637028Y-108596228D01*
X130759618Y-108446851D01*
X130850711Y-108276429D01*
X130906805Y-108091510D01*
X130925746Y-107899200D01*
X130906805Y-107706890D01*
X130850711Y-107521971D01*
X130759618Y-107351549D01*
X130637028Y-107202172D01*
X130487651Y-107079582D01*
X130317229Y-106988489D01*
X130132310Y-106932395D01*
X129988187Y-106918200D01*
X129091813Y-106918200D01*
X128947690Y-106932395D01*
X128762771Y-106988489D01*
X128592349Y-107079582D01*
X128442972Y-107202172D01*
X128320382Y-107351549D01*
X128270000Y-107445807D01*
X128219618Y-107351549D01*
X128097028Y-107202172D01*
X127947651Y-107079582D01*
X127777229Y-106988489D01*
X127592310Y-106932395D01*
X127448187Y-106918200D01*
X126551813Y-106918200D01*
X126407690Y-106932395D01*
X126222771Y-106988489D01*
X126052349Y-107079582D01*
X125902972Y-107202172D01*
X125780382Y-107351549D01*
X125689289Y-107521971D01*
X125633195Y-107706890D01*
X125614254Y-107899200D01*
X125340462Y-107899200D01*
X125340462Y-105676809D01*
X125406538Y-105676809D01*
X125410409Y-105714482D01*
X125502579Y-105939733D01*
X125636922Y-106142674D01*
X125808275Y-106315507D01*
X126010054Y-106451590D01*
X126234504Y-106545693D01*
X126473000Y-106594200D01*
X126873000Y-106594200D01*
X126873000Y-105486200D01*
X125531269Y-105486200D01*
X125406538Y-105676809D01*
X125340462Y-105676809D01*
X125340462Y-105041591D01*
X125406538Y-105041591D01*
X125531269Y-105232200D01*
X126873000Y-105232200D01*
X126873000Y-104124200D01*
X127127000Y-104124200D01*
X127127000Y-105232200D01*
X127147000Y-105232200D01*
X127147000Y-105486200D01*
X127127000Y-105486200D01*
X127127000Y-106594200D01*
X127527000Y-106594200D01*
X127765496Y-106545693D01*
X127989946Y-106451590D01*
X128191725Y-106315507D01*
X128363078Y-106142674D01*
X128430425Y-106040939D01*
X128442972Y-106056228D01*
X128592349Y-106178818D01*
X128762771Y-106269911D01*
X128947690Y-106326005D01*
X129091813Y-106340200D01*
X129988187Y-106340200D01*
X130132310Y-106326005D01*
X130317229Y-106269911D01*
X130487651Y-106178818D01*
X130637028Y-106056228D01*
X130759618Y-105906851D01*
X130850711Y-105736429D01*
X130906805Y-105551510D01*
X130925746Y-105359200D01*
X130906805Y-105166890D01*
X130850711Y-104981971D01*
X130759618Y-104811549D01*
X130637028Y-104662172D01*
X130487651Y-104539582D01*
X130317229Y-104448489D01*
X130132310Y-104392395D01*
X129988187Y-104378200D01*
X129091813Y-104378200D01*
X128947690Y-104392395D01*
X128762771Y-104448489D01*
X128592349Y-104539582D01*
X128442972Y-104662172D01*
X128430425Y-104677461D01*
X128363078Y-104575726D01*
X128191725Y-104402893D01*
X127989946Y-104266810D01*
X127765496Y-104172707D01*
X127527000Y-104124200D01*
X127127000Y-104124200D01*
X126873000Y-104124200D01*
X126473000Y-104124200D01*
X126234504Y-104172707D01*
X126010054Y-104266810D01*
X125808275Y-104402893D01*
X125636922Y-104575726D01*
X125502579Y-104778667D01*
X125410409Y-105003918D01*
X125406538Y-105041591D01*
X125340462Y-105041591D01*
X125340462Y-99327088D01*
X125342822Y-99231853D01*
X125349460Y-99142629D01*
X125360449Y-99054165D01*
X125375726Y-98966611D01*
X125395230Y-98880110D01*
X125418901Y-98794813D01*
X125446684Y-98710842D01*
X125478510Y-98628378D01*
X125514305Y-98547590D01*
X125554030Y-98468578D01*
X125597618Y-98391505D01*
X125644988Y-98316554D01*
X125696103Y-98243832D01*
X125750879Y-98173517D01*
X125809279Y-98105728D01*
X125871260Y-98040598D01*
X125936390Y-97978617D01*
X126004179Y-97920217D01*
X126074494Y-97865441D01*
X126147223Y-97814321D01*
X126222172Y-97766954D01*
X126299227Y-97723375D01*
X126378246Y-97683646D01*
X126459047Y-97647845D01*
X126541509Y-97616020D01*
X126625475Y-97588239D01*
X126710772Y-97564568D01*
X126797273Y-97545064D01*
X126884826Y-97529787D01*
X126973295Y-97518798D01*
X127062515Y-97512160D01*
X127157750Y-97509800D01*
X131596773Y-97509800D01*
X131591034Y-103315206D01*
G37*
X131591034Y-103315206D02*
X131593439Y-103339932D01*
X131600633Y-103363767D01*
X131612338Y-103385740D01*
X131628105Y-103405008D01*
X131647327Y-103420829D01*
X131669267Y-103432596D01*
X131693082Y-103439857D01*
X131717855Y-103442332D01*
X150183398Y-103468423D01*
X150209104Y-103465831D01*
X150232885Y-103458460D01*
X150254770Y-103446592D01*
X150273920Y-103430682D01*
X150289597Y-103411342D01*
X150301201Y-103389315D01*
X150308284Y-103365448D01*
X150310575Y-103340657D01*
X150275406Y-97509800D01*
X154605027Y-97509800D01*
X154700261Y-97512160D01*
X154789485Y-97518798D01*
X154877949Y-97529787D01*
X154965503Y-97545064D01*
X155052004Y-97564568D01*
X155137301Y-97588239D01*
X155221272Y-97616022D01*
X155303736Y-97647848D01*
X155384524Y-97683643D01*
X155463536Y-97723368D01*
X155540609Y-97766956D01*
X155615560Y-97814326D01*
X155688282Y-97865441D01*
X155758597Y-97920217D01*
X155826386Y-97978617D01*
X155891517Y-98040598D01*
X155953497Y-98105728D01*
X156011897Y-98173517D01*
X156066673Y-98243832D01*
X156117793Y-98316561D01*
X156165160Y-98391510D01*
X156208739Y-98468565D01*
X156248468Y-98547584D01*
X156284269Y-98628385D01*
X156316094Y-98710847D01*
X156343875Y-98794813D01*
X156367546Y-98880110D01*
X156387050Y-98966611D01*
X156402327Y-99054164D01*
X156413316Y-99142633D01*
X156419954Y-99231853D01*
X156422315Y-99327093D01*
X156422315Y-104755848D01*
X156303078Y-104575726D01*
X156131725Y-104402893D01*
X155929946Y-104266810D01*
X155705496Y-104172707D01*
X155467000Y-104124200D01*
X155067000Y-104124200D01*
X155067000Y-105232200D01*
X155087000Y-105232200D01*
X155087000Y-105486200D01*
X155067000Y-105486200D01*
X155067000Y-106594200D01*
X155467000Y-106594200D01*
X155705496Y-106545693D01*
X155929946Y-106451590D01*
X156131725Y-106315507D01*
X156303078Y-106142674D01*
X156422315Y-105962552D01*
X156422316Y-129493686D01*
X155446000Y-128517371D01*
X155446000Y-126654506D01*
X155532310Y-126646005D01*
X155717229Y-126589911D01*
X155887651Y-126498818D01*
X156037028Y-126376228D01*
X156159618Y-126226851D01*
X156250711Y-126056429D01*
X156306805Y-125871510D01*
X156325746Y-125679200D01*
X156306805Y-125486890D01*
X156250711Y-125301971D01*
X156159618Y-125131549D01*
X156037028Y-124982172D01*
X155887651Y-124859582D01*
X155717229Y-124768489D01*
X155532310Y-124712395D01*
X155388187Y-124698200D01*
X154491813Y-124698200D01*
X154347690Y-124712395D01*
X154162771Y-124768489D01*
X153992349Y-124859582D01*
X153842972Y-124982172D01*
X153720382Y-125131549D01*
X153670000Y-125225807D01*
X153619618Y-125131549D01*
X153497028Y-124982172D01*
X153347651Y-124859582D01*
X153177229Y-124768489D01*
X152992310Y-124712395D01*
X152848187Y-124698200D01*
X151951813Y-124698200D01*
X151807690Y-124712395D01*
X151622771Y-124768489D01*
X151452349Y-124859582D01*
X151302972Y-124982172D01*
X151180382Y-125131549D01*
X151089289Y-125301971D01*
X151033195Y-125486890D01*
X151014254Y-125679200D01*
X151033195Y-125871510D01*
X151089289Y-126056429D01*
X151180382Y-126226851D01*
X151302972Y-126376228D01*
X151452349Y-126498818D01*
X151622771Y-126589911D01*
X151807690Y-126646005D01*
X151894000Y-126654506D01*
X151894001Y-137453944D01*
X151891553Y-137478800D01*
X151901322Y-137577992D01*
X151930255Y-137673374D01*
X151930256Y-137673375D01*
X151977242Y-137761279D01*
X152040474Y-137838327D01*
X152059781Y-137854172D01*
X152813409Y-138607800D01*
X150385769Y-138607800D01*
X150357922Y-138555704D01*
X150310311Y-138497689D01*
X150252296Y-138450078D01*
X150186108Y-138414699D01*
X150114289Y-138392913D01*
X150039600Y-138385557D01*
X149795600Y-138385557D01*
X149795600Y-136208053D01*
X149798047Y-136183207D01*
X149795600Y-136158361D01*
X149795600Y-136158354D01*
X149788278Y-136084015D01*
X149759345Y-135988633D01*
X149712359Y-135900729D01*
X149649127Y-135823681D01*
X149629820Y-135807836D01*
X148855796Y-135033813D01*
X148855796Y-134891482D01*
X148825783Y-134740595D01*
X148766909Y-134598462D01*
X148681438Y-134470545D01*
X148572655Y-134361762D01*
X148444738Y-134276291D01*
X148302605Y-134217417D01*
X148151718Y-134187404D01*
X147997874Y-134187404D01*
X147846987Y-134217417D01*
X147704854Y-134276291D01*
X147576937Y-134361762D01*
X147468154Y-134470545D01*
X147382683Y-134598462D01*
X147323809Y-134740595D01*
X147293796Y-134891482D01*
X147293796Y-135045326D01*
X147323809Y-135196213D01*
X147382683Y-135338346D01*
X147468154Y-135466263D01*
X147576937Y-135575046D01*
X147704854Y-135660517D01*
X147846987Y-135719391D01*
X147997874Y-135749404D01*
X148140205Y-135749404D01*
X148783601Y-136392801D01*
X148783600Y-138385557D01*
X148539600Y-138385557D01*
X148464911Y-138392913D01*
X148393092Y-138414699D01*
X148326904Y-138450078D01*
X148268889Y-138497689D01*
X148221278Y-138555704D01*
X148185899Y-138621892D01*
X148164113Y-138693711D01*
X148156757Y-138768400D01*
X148156757Y-139768400D01*
X148164113Y-139843089D01*
X148185899Y-139914908D01*
X148221278Y-139981096D01*
X148268889Y-140039111D01*
X148326904Y-140086722D01*
X148393092Y-140122101D01*
X148464911Y-140143887D01*
X148539600Y-140151243D01*
X149007747Y-140151243D01*
X149002157Y-140208000D01*
X149002157Y-140464000D01*
X148859854Y-140464000D01*
X148835000Y-140461552D01*
X148810146Y-140464000D01*
X148735807Y-140471322D01*
X148640425Y-140500255D01*
X148552521Y-140547241D01*
X148475473Y-140610473D01*
X148459629Y-140629779D01*
X147562252Y-141527157D01*
X146869999Y-141527157D01*
X146746538Y-141539317D01*
X146627821Y-141575329D01*
X146518411Y-141633810D01*
X146422512Y-141712512D01*
X146343810Y-141808411D01*
X146285329Y-141917821D01*
X146249317Y-142036538D01*
X146237157Y-142159999D01*
X146237157Y-142787079D01*
X146155164Y-142707231D01*
X145967376Y-142585324D01*
X145744274Y-142505481D01*
X145569400Y-142631646D01*
X145569400Y-143772600D01*
X145589400Y-143772600D01*
X145589400Y-144026600D01*
X145569400Y-144026600D01*
X145569400Y-145167554D01*
X145744274Y-145293719D01*
X145967376Y-145213876D01*
X145990669Y-145198755D01*
X145994188Y-145234482D01*
X146030498Y-145354180D01*
X146089463Y-145464494D01*
X146168815Y-145561185D01*
X146265506Y-145640537D01*
X146375820Y-145699502D01*
X146495518Y-145735812D01*
X146620000Y-145748072D01*
X147034250Y-145745000D01*
X147193000Y-145586250D01*
X147193000Y-144662000D01*
X147447000Y-144662000D01*
X147447000Y-145586250D01*
X147605750Y-145745000D01*
X148020000Y-145748072D01*
X148144482Y-145735812D01*
X148264180Y-145699502D01*
X148374494Y-145640537D01*
X148471185Y-145561185D01*
X148550537Y-145464494D01*
X148609502Y-145354180D01*
X148645812Y-145234482D01*
X148658072Y-145110000D01*
X148655000Y-144820750D01*
X148496250Y-144662000D01*
X147447000Y-144662000D01*
X147193000Y-144662000D01*
X147173000Y-144662000D01*
X147173000Y-144408000D01*
X147193000Y-144408000D01*
X147193000Y-144388000D01*
X147447000Y-144388000D01*
X147447000Y-144408000D01*
X148496250Y-144408000D01*
X148655000Y-144249250D01*
X148658072Y-143960000D01*
X148645812Y-143835518D01*
X148609502Y-143715820D01*
X148550537Y-143605506D01*
X148471185Y-143508815D01*
X148374494Y-143429463D01*
X148264180Y-143370498D01*
X148144482Y-143334188D01*
X148126220Y-143332389D01*
X148217488Y-143257488D01*
X148250729Y-143216983D01*
X148268889Y-143239111D01*
X148326904Y-143286722D01*
X148393092Y-143322101D01*
X148464911Y-143343887D01*
X148539600Y-143351243D01*
X149456852Y-143351243D01*
X150971828Y-144866220D01*
X150987673Y-144885527D01*
X151064721Y-144948759D01*
X151143686Y-144990967D01*
X151152625Y-144995745D01*
X151248007Y-145024678D01*
X151347200Y-145034448D01*
X151372054Y-145032000D01*
X154915154Y-145032000D01*
X154940000Y-145034447D01*
X154964846Y-145032000D01*
X154964854Y-145032000D01*
X155039193Y-145024678D01*
X155134575Y-144995745D01*
X155222479Y-144948759D01*
X155299527Y-144885527D01*
X155315376Y-144866215D01*
X156422316Y-143759276D01*
X156422316Y-144774322D01*
X156419954Y-144869601D01*
X156413316Y-144958821D01*
X156402327Y-145047290D01*
X156387050Y-145134843D01*
X156367546Y-145221344D01*
X156343875Y-145306641D01*
X156316094Y-145390607D01*
X156284269Y-145473069D01*
X156248468Y-145553870D01*
X156208739Y-145632889D01*
X156165160Y-145709944D01*
X156117793Y-145784893D01*
X156066673Y-145857622D01*
X156011897Y-145927937D01*
X155953497Y-145995726D01*
X155891517Y-146060857D01*
X155826386Y-146122837D01*
X155758597Y-146181237D01*
X155688282Y-146236013D01*
X155615560Y-146287128D01*
X155540609Y-146334498D01*
X155463536Y-146378086D01*
X155384524Y-146417811D01*
X155303736Y-146453606D01*
X155221272Y-146485432D01*
X155137301Y-146513215D01*
X155052004Y-146536886D01*
X154965503Y-146556390D01*
X154877949Y-146571667D01*
X154789485Y-146582656D01*
X154700261Y-146589294D01*
X154605021Y-146591655D01*
X127157755Y-146591655D01*
X127062515Y-146589294D01*
X126973295Y-146582656D01*
X126884826Y-146571667D01*
X126797273Y-146556390D01*
X126710772Y-146536886D01*
X126625475Y-146513215D01*
X126541509Y-146485434D01*
X126459047Y-146453609D01*
X126378246Y-146417808D01*
X126299227Y-146378079D01*
X126222172Y-146334500D01*
X126147223Y-146287133D01*
X126074494Y-146236013D01*
X126004179Y-146181237D01*
X125936390Y-146122837D01*
X125871260Y-146060857D01*
X125809279Y-145995726D01*
X125750879Y-145927937D01*
X125696103Y-145857622D01*
X125644988Y-145784900D01*
X125597618Y-145709949D01*
X125554030Y-145632876D01*
X125514305Y-145553864D01*
X125478510Y-145473076D01*
X125446684Y-145390612D01*
X125418901Y-145306641D01*
X125395230Y-145221344D01*
X125375726Y-145134843D01*
X125360449Y-145047289D01*
X125349460Y-144958825D01*
X125342822Y-144869601D01*
X125340462Y-144774367D01*
X125340462Y-144026600D01*
X135667400Y-144026600D01*
X135667400Y-144326600D01*
X135713985Y-144545587D01*
X135802397Y-144751278D01*
X135929239Y-144935769D01*
X136089636Y-145091969D01*
X136277424Y-145213876D01*
X136500526Y-145293719D01*
X136675400Y-145167554D01*
X136675400Y-144026600D01*
X136929400Y-144026600D01*
X136929400Y-145167554D01*
X137104274Y-145293719D01*
X137327376Y-145213876D01*
X137515164Y-145091969D01*
X137675561Y-144935769D01*
X137802403Y-144751278D01*
X137890815Y-144545587D01*
X137937400Y-144326600D01*
X137937400Y-144026600D01*
X144307400Y-144026600D01*
X144307400Y-144326600D01*
X144353985Y-144545587D01*
X144442397Y-144751278D01*
X144569239Y-144935769D01*
X144729636Y-145091969D01*
X144917424Y-145213876D01*
X145140526Y-145293719D01*
X145315400Y-145167554D01*
X145315400Y-144026600D01*
X144307400Y-144026600D01*
X137937400Y-144026600D01*
X136929400Y-144026600D01*
X136675400Y-144026600D01*
X135667400Y-144026600D01*
X125340462Y-144026600D01*
X125340462Y-143472600D01*
X135667400Y-143472600D01*
X135667400Y-143772600D01*
X136675400Y-143772600D01*
X136675400Y-142631646D01*
X136929400Y-142631646D01*
X136929400Y-143772600D01*
X137937400Y-143772600D01*
X137937400Y-143472600D01*
X144307400Y-143472600D01*
X144307400Y-143772600D01*
X145315400Y-143772600D01*
X145315400Y-142631646D01*
X145140526Y-142505481D01*
X144917424Y-142585324D01*
X144729636Y-142707231D01*
X144569239Y-142863431D01*
X144442397Y-143047922D01*
X144353985Y-143253613D01*
X144307400Y-143472600D01*
X137937400Y-143472600D01*
X137890815Y-143253613D01*
X137802403Y-143047922D01*
X137675561Y-142863431D01*
X137515164Y-142707231D01*
X137327376Y-142585324D01*
X137104274Y-142505481D01*
X136929400Y-142631646D01*
X136675400Y-142631646D01*
X136500526Y-142505481D01*
X136277424Y-142585324D01*
X136089636Y-142707231D01*
X135929239Y-142863431D01*
X135802397Y-143047922D01*
X135713985Y-143253613D01*
X135667400Y-143472600D01*
X125340462Y-143472600D01*
X125340462Y-140629988D01*
X128920490Y-140629988D01*
X128920490Y-140783832D01*
X128950503Y-140934719D01*
X129009377Y-141076852D01*
X129094848Y-141204769D01*
X129203631Y-141313552D01*
X129331548Y-141399023D01*
X129473681Y-141457897D01*
X129624568Y-141487910D01*
X129778412Y-141487910D01*
X129929299Y-141457897D01*
X130071432Y-141399023D01*
X130199349Y-141313552D01*
X130308132Y-141204769D01*
X130393603Y-141076852D01*
X130452477Y-140934719D01*
X130482490Y-140783832D01*
X130482490Y-140641501D01*
X130852709Y-140271283D01*
X130885474Y-140277800D01*
X131039318Y-140277800D01*
X131190205Y-140247787D01*
X131332338Y-140188913D01*
X131460255Y-140103442D01*
X131569038Y-139994659D01*
X131654509Y-139866742D01*
X131662852Y-139846600D01*
X135667400Y-139846600D01*
X135667400Y-140396600D01*
X135713985Y-140615587D01*
X135802397Y-140821278D01*
X135929239Y-141005769D01*
X136089636Y-141161969D01*
X136277424Y-141283876D01*
X136500526Y-141363719D01*
X136675400Y-141237554D01*
X136675400Y-139846600D01*
X135667400Y-139846600D01*
X131662852Y-139846600D01*
X131713383Y-139724609D01*
X131743396Y-139573722D01*
X131743396Y-139419878D01*
X131713383Y-139268991D01*
X131654509Y-139126858D01*
X131598210Y-139042600D01*
X135667400Y-139042600D01*
X135667400Y-139592600D01*
X136675400Y-139592600D01*
X136675400Y-138201646D01*
X136929400Y-138201646D01*
X136929400Y-139592600D01*
X136949400Y-139592600D01*
X136949400Y-139846600D01*
X136929400Y-139846600D01*
X136929400Y-141237554D01*
X137104274Y-141363719D01*
X137327376Y-141283876D01*
X137515164Y-141161969D01*
X137675561Y-141005769D01*
X137802403Y-140821278D01*
X137805707Y-140813592D01*
X137897984Y-140875249D01*
X138026467Y-140928469D01*
X138162865Y-140955600D01*
X138301935Y-140955600D01*
X138438333Y-140928469D01*
X138566816Y-140875249D01*
X138666045Y-140808946D01*
X138722541Y-140865442D01*
X138850458Y-140950913D01*
X138992591Y-141009787D01*
X139143478Y-141039800D01*
X139297322Y-141039800D01*
X139448209Y-141009787D01*
X139590342Y-140950913D01*
X139718259Y-140865442D01*
X139818901Y-140764800D01*
X142038211Y-140764800D01*
X142055048Y-140849444D01*
X142113922Y-140991577D01*
X142199393Y-141119494D01*
X142308176Y-141228277D01*
X142436093Y-141313748D01*
X142578226Y-141372622D01*
X142729113Y-141402635D01*
X142882957Y-141402635D01*
X143033844Y-141372622D01*
X143175977Y-141313748D01*
X143303894Y-141228277D01*
X143412677Y-141119494D01*
X143498148Y-140991577D01*
X143557022Y-140849444D01*
X143566682Y-140800880D01*
X143677984Y-140875249D01*
X143806467Y-140928469D01*
X143942865Y-140955600D01*
X144081935Y-140955600D01*
X144218333Y-140928469D01*
X144346816Y-140875249D01*
X144439093Y-140813592D01*
X144442397Y-140821278D01*
X144569239Y-141005769D01*
X144729636Y-141161969D01*
X144917424Y-141283876D01*
X145140526Y-141363719D01*
X145315400Y-141237554D01*
X145315400Y-139846600D01*
X145569400Y-139846600D01*
X145569400Y-141237554D01*
X145744274Y-141363719D01*
X145967376Y-141283876D01*
X146155164Y-141161969D01*
X146315561Y-141005769D01*
X146442403Y-140821278D01*
X146530815Y-140615587D01*
X146577400Y-140396600D01*
X146577400Y-139846600D01*
X145569400Y-139846600D01*
X145315400Y-139846600D01*
X145295400Y-139846600D01*
X145295400Y-139592600D01*
X145315400Y-139592600D01*
X145315400Y-138201646D01*
X145569400Y-138201646D01*
X145569400Y-139592600D01*
X146577400Y-139592600D01*
X146577400Y-139042600D01*
X146530815Y-138823613D01*
X146442403Y-138617922D01*
X146315561Y-138433431D01*
X146155164Y-138277231D01*
X145967376Y-138155324D01*
X145744274Y-138075481D01*
X145569400Y-138201646D01*
X145315400Y-138201646D01*
X145140526Y-138075481D01*
X144917424Y-138155324D01*
X144729636Y-138277231D01*
X144569239Y-138433431D01*
X144442397Y-138617922D01*
X144353985Y-138823613D01*
X144307400Y-139042600D01*
X144307400Y-139607624D01*
X144218333Y-139570731D01*
X144081935Y-139543600D01*
X143942865Y-139543600D01*
X143806467Y-139570731D01*
X143677984Y-139623951D01*
X143562351Y-139701214D01*
X143464014Y-139799551D01*
X143386751Y-139915184D01*
X143333531Y-140043667D01*
X143333371Y-140044470D01*
X143303894Y-140014993D01*
X143175977Y-139929522D01*
X143033844Y-139870648D01*
X142882957Y-139840635D01*
X142731277Y-139840635D01*
X142725679Y-139836041D01*
X142637775Y-139789055D01*
X142542393Y-139760122D01*
X142468054Y-139752800D01*
X142468046Y-139752800D01*
X142443200Y-139750353D01*
X142418354Y-139752800D01*
X139818901Y-139752800D01*
X139718259Y-139652158D01*
X139590342Y-139566687D01*
X139448209Y-139507813D01*
X139297322Y-139477800D01*
X139143478Y-139477800D01*
X138992591Y-139507813D01*
X138850458Y-139566687D01*
X138722541Y-139652158D01*
X138677075Y-139697624D01*
X138566816Y-139623951D01*
X138438333Y-139570731D01*
X138301935Y-139543600D01*
X138162865Y-139543600D01*
X138026467Y-139570731D01*
X137937400Y-139607624D01*
X137937400Y-139042600D01*
X137890815Y-138823613D01*
X137802403Y-138617922D01*
X137675561Y-138433431D01*
X137515164Y-138277231D01*
X137327376Y-138155324D01*
X137104274Y-138075481D01*
X136929400Y-138201646D01*
X136675400Y-138201646D01*
X136500526Y-138075481D01*
X136277424Y-138155324D01*
X136089636Y-138277231D01*
X135929239Y-138433431D01*
X135802397Y-138617922D01*
X135713985Y-138823613D01*
X135667400Y-139042600D01*
X131598210Y-139042600D01*
X131569038Y-138998941D01*
X131460255Y-138890158D01*
X131332338Y-138804687D01*
X131190205Y-138745813D01*
X131039318Y-138715800D01*
X130885474Y-138715800D01*
X130734587Y-138745813D01*
X130592454Y-138804687D01*
X130464537Y-138890158D01*
X130355754Y-138998941D01*
X130270283Y-139126858D01*
X130211409Y-139268991D01*
X130181396Y-139419878D01*
X130181396Y-139511412D01*
X129766899Y-139925910D01*
X129624568Y-139925910D01*
X129473681Y-139955923D01*
X129331548Y-140014797D01*
X129203631Y-140100268D01*
X129094848Y-140209051D01*
X129009377Y-140336968D01*
X128950503Y-140479101D01*
X128920490Y-140629988D01*
X125340462Y-140629988D01*
X125340462Y-125679200D01*
X125614254Y-125679200D01*
X125633195Y-125871510D01*
X125689289Y-126056429D01*
X125780382Y-126226851D01*
X125902972Y-126376228D01*
X126052349Y-126498818D01*
X126222771Y-126589911D01*
X126407690Y-126646005D01*
X126551813Y-126660200D01*
X127448187Y-126660200D01*
X127592310Y-126646005D01*
X127777229Y-126589911D01*
X127947651Y-126498818D01*
X128097028Y-126376228D01*
X128219618Y-126226851D01*
X128270000Y-126132593D01*
X128320382Y-126226851D01*
X128442972Y-126376228D01*
X128592349Y-126498818D01*
X128762771Y-126589911D01*
X128947690Y-126646005D01*
X129091813Y-126660200D01*
X129988187Y-126660200D01*
X130132310Y-126646005D01*
X130317229Y-126589911D01*
X130487651Y-126498818D01*
X130637028Y-126376228D01*
X130759618Y-126226851D01*
X130850711Y-126056429D01*
X130906805Y-125871510D01*
X130925746Y-125679200D01*
X130906805Y-125486890D01*
X130850711Y-125301971D01*
X130759618Y-125131549D01*
X130637028Y-124982172D01*
X130487651Y-124859582D01*
X130317229Y-124768489D01*
X130132310Y-124712395D01*
X129988187Y-124698200D01*
X129091813Y-124698200D01*
X128947690Y-124712395D01*
X128762771Y-124768489D01*
X128592349Y-124859582D01*
X128442972Y-124982172D01*
X128320382Y-125131549D01*
X128270000Y-125225807D01*
X128219618Y-125131549D01*
X128097028Y-124982172D01*
X127947651Y-124859582D01*
X127777229Y-124768489D01*
X127592310Y-124712395D01*
X127448187Y-124698200D01*
X126551813Y-124698200D01*
X126407690Y-124712395D01*
X126222771Y-124768489D01*
X126052349Y-124859582D01*
X125902972Y-124982172D01*
X125780382Y-125131549D01*
X125689289Y-125301971D01*
X125633195Y-125486890D01*
X125614254Y-125679200D01*
X125340462Y-125679200D01*
X125340462Y-110439200D01*
X125614254Y-110439200D01*
X125633195Y-110631510D01*
X125689289Y-110816429D01*
X125780382Y-110986851D01*
X125902972Y-111136228D01*
X126052349Y-111258818D01*
X126222771Y-111349911D01*
X126407690Y-111406005D01*
X126551813Y-111420200D01*
X127448187Y-111420200D01*
X127592310Y-111406005D01*
X127777229Y-111349911D01*
X127947651Y-111258818D01*
X128097028Y-111136228D01*
X128219618Y-110986851D01*
X128270000Y-110892593D01*
X128305186Y-110958422D01*
X127929785Y-111333824D01*
X127910473Y-111349673D01*
X127847241Y-111426721D01*
X127800255Y-111514626D01*
X127771322Y-111610008D01*
X127764000Y-111684347D01*
X127764000Y-111684354D01*
X127761553Y-111709200D01*
X127764000Y-111734046D01*
X127764000Y-112064476D01*
X127592310Y-112012395D01*
X127448187Y-111998200D01*
X126551813Y-111998200D01*
X126407690Y-112012395D01*
X126222771Y-112068489D01*
X126052349Y-112159582D01*
X125902972Y-112282172D01*
X125780382Y-112431549D01*
X125689289Y-112601971D01*
X125633195Y-112786890D01*
X125614254Y-112979200D01*
X125633195Y-113171510D01*
X125689289Y-113356429D01*
X125780382Y-113526851D01*
X125902972Y-113676228D01*
X126052349Y-113798818D01*
X126222771Y-113889911D01*
X126407690Y-113946005D01*
X126551813Y-113960200D01*
X127448187Y-113960200D01*
X127592310Y-113946005D01*
X127764000Y-113893924D01*
X127764000Y-114604476D01*
X127592310Y-114552395D01*
X127448187Y-114538200D01*
X126551813Y-114538200D01*
X126407690Y-114552395D01*
X126222771Y-114608489D01*
X126052349Y-114699582D01*
X125902972Y-114822172D01*
X125780382Y-114971549D01*
X125689289Y-115141971D01*
X125633195Y-115326890D01*
X125614254Y-115519200D01*
X125633195Y-115711510D01*
X125689289Y-115896429D01*
X125780382Y-116066851D01*
X125902972Y-116216228D01*
X126052349Y-116338818D01*
X126222771Y-116429911D01*
X126407690Y-116486005D01*
X126551813Y-116500200D01*
X127448187Y-116500200D01*
X127592310Y-116486005D01*
X127764001Y-116433924D01*
X127764001Y-117144476D01*
X127592310Y-117092395D01*
X127448187Y-117078200D01*
X126551813Y-117078200D01*
X126407690Y-117092395D01*
X126222771Y-117148489D01*
X126052349Y-117239582D01*
X125902972Y-117362172D01*
X125780382Y-117511549D01*
X125689289Y-117681971D01*
X125633195Y-117866890D01*
X125614254Y-118059200D01*
X125633195Y-118251510D01*
X125689289Y-118436429D01*
X125780382Y-118606851D01*
X125902972Y-118756228D01*
X126052349Y-118878818D01*
X126222771Y-118969911D01*
X126407690Y-119026005D01*
X126551813Y-119040200D01*
X127448187Y-119040200D01*
X127592310Y-119026005D01*
X127777229Y-118969911D01*
X127947651Y-118878818D01*
X127983579Y-118849332D01*
X128635667Y-119501421D01*
X128651512Y-119520728D01*
X128728560Y-119583960D01*
X128816464Y-119630946D01*
X128884466Y-119651574D01*
X128762771Y-119688489D01*
X128592349Y-119779582D01*
X128442972Y-119902172D01*
X128320382Y-120051549D01*
X128270000Y-120145807D01*
X128219618Y-120051549D01*
X128097028Y-119902172D01*
X127947651Y-119779582D01*
X127777229Y-119688489D01*
X127592310Y-119632395D01*
X127448187Y-119618200D01*
X126551813Y-119618200D01*
X126407690Y-119632395D01*
X126222771Y-119688489D01*
X126052349Y-119779582D01*
X125902972Y-119902172D01*
X125780382Y-120051549D01*
X125689289Y-120221971D01*
X125633195Y-120406890D01*
X125614254Y-120599200D01*
X125633195Y-120791510D01*
X125689289Y-120976429D01*
X125780382Y-121146851D01*
X125902972Y-121296228D01*
X126052349Y-121418818D01*
X126222771Y-121509911D01*
X126407690Y-121566005D01*
X126551813Y-121580200D01*
X127448187Y-121580200D01*
X127592310Y-121566005D01*
X127777229Y-121509911D01*
X127947651Y-121418818D01*
X128097028Y-121296228D01*
X128219618Y-121146851D01*
X128270000Y-121052593D01*
X128320382Y-121146851D01*
X128442972Y-121296228D01*
X128592349Y-121418818D01*
X128762771Y-121509911D01*
X128947690Y-121566005D01*
X129091813Y-121580200D01*
X129988187Y-121580200D01*
X130132310Y-121566005D01*
X130317229Y-121509911D01*
X130487651Y-121418818D01*
X130637028Y-121296228D01*
X130759618Y-121146851D01*
X130781881Y-121105200D01*
X134021499Y-121105200D01*
X134071341Y-121155042D01*
X134199258Y-121240513D01*
X134341391Y-121299387D01*
X134492278Y-121329400D01*
X134646122Y-121329400D01*
X134797009Y-121299387D01*
X134939142Y-121240513D01*
X135067059Y-121155042D01*
X135175842Y-121046259D01*
X135261313Y-120918342D01*
X135320187Y-120776209D01*
X135350200Y-120625322D01*
X135350200Y-120471478D01*
X135320187Y-120320591D01*
X135261313Y-120178458D01*
X135175842Y-120050541D01*
X135067059Y-119941758D01*
X134939142Y-119856287D01*
X134797009Y-119797413D01*
X134646122Y-119767400D01*
X134492278Y-119767400D01*
X134341391Y-119797413D01*
X134199258Y-119856287D01*
X134071341Y-119941758D01*
X133962558Y-120050541D01*
X133934054Y-120093200D01*
X130781881Y-120093200D01*
X130759618Y-120051549D01*
X130637028Y-119902172D01*
X130487651Y-119779582D01*
X130317229Y-119688489D01*
X130247051Y-119667201D01*
X133551635Y-119667201D01*
X133576481Y-119669648D01*
X133601327Y-119667201D01*
X133601335Y-119667201D01*
X133675674Y-119659879D01*
X133771056Y-119630946D01*
X133858960Y-119583960D01*
X133936008Y-119520728D01*
X133951857Y-119501416D01*
X134533033Y-118920241D01*
X134675363Y-118920241D01*
X134826250Y-118890228D01*
X134968383Y-118831354D01*
X135096300Y-118745883D01*
X135205083Y-118637100D01*
X135290554Y-118509183D01*
X135349428Y-118367050D01*
X135379441Y-118216163D01*
X135379441Y-118062319D01*
X135349428Y-117911432D01*
X135290554Y-117769299D01*
X135205083Y-117641382D01*
X135096300Y-117532599D01*
X134968383Y-117447128D01*
X134826250Y-117388254D01*
X134675363Y-117358241D01*
X134521519Y-117358241D01*
X134370632Y-117388254D01*
X134228499Y-117447128D01*
X134100582Y-117532599D01*
X133991799Y-117641382D01*
X133906328Y-117769299D01*
X133847454Y-117911432D01*
X133817441Y-118062319D01*
X133817441Y-118204649D01*
X133366890Y-118655201D01*
X130719938Y-118655201D01*
X130759618Y-118606851D01*
X130850711Y-118436429D01*
X130906805Y-118251510D01*
X130925746Y-118059200D01*
X130906805Y-117866890D01*
X130850711Y-117681971D01*
X130774814Y-117539978D01*
X131669395Y-116645397D01*
X135179302Y-116645397D01*
X135279944Y-116746039D01*
X135407861Y-116831510D01*
X135549994Y-116890384D01*
X135700881Y-116920397D01*
X135854725Y-116920397D01*
X136005612Y-116890384D01*
X136147745Y-116831510D01*
X136275662Y-116746039D01*
X136384445Y-116637256D01*
X136400001Y-116613975D01*
X136400000Y-122218408D01*
X136104225Y-122514183D01*
X136082187Y-122403391D01*
X136023313Y-122261258D01*
X135937842Y-122133341D01*
X135829059Y-122024558D01*
X135701142Y-121939087D01*
X135559009Y-121880213D01*
X135408122Y-121850200D01*
X135254278Y-121850200D01*
X135103391Y-121880213D01*
X134961258Y-121939087D01*
X134833341Y-122024558D01*
X134724558Y-122133341D01*
X134639087Y-122261258D01*
X134580213Y-122403391D01*
X134559365Y-122508200D01*
X130691216Y-122508200D01*
X130637028Y-122442172D01*
X130487651Y-122319582D01*
X130317229Y-122228489D01*
X130132310Y-122172395D01*
X129988187Y-122158200D01*
X129091813Y-122158200D01*
X128947690Y-122172395D01*
X128762771Y-122228489D01*
X128592349Y-122319582D01*
X128442972Y-122442172D01*
X128320382Y-122591549D01*
X128270000Y-122685807D01*
X128219618Y-122591549D01*
X128097028Y-122442172D01*
X127947651Y-122319582D01*
X127777229Y-122228489D01*
X127592310Y-122172395D01*
X127448187Y-122158200D01*
X126551813Y-122158200D01*
X126407690Y-122172395D01*
X126222771Y-122228489D01*
X126052349Y-122319582D01*
X125902972Y-122442172D01*
X125780382Y-122591549D01*
X125689289Y-122761971D01*
X125633195Y-122946890D01*
X125614254Y-123139200D01*
X125633195Y-123331510D01*
X125689289Y-123516429D01*
X125780382Y-123686851D01*
X125902972Y-123836228D01*
X126052349Y-123958818D01*
X126222771Y-124049911D01*
X126407690Y-124106005D01*
X126551813Y-124120200D01*
X127448187Y-124120200D01*
X127592310Y-124106005D01*
X127777229Y-124049911D01*
X127947651Y-123958818D01*
X128097028Y-123836228D01*
X128219618Y-123686851D01*
X128270000Y-123592593D01*
X128320382Y-123686851D01*
X128442972Y-123836228D01*
X128592349Y-123958818D01*
X128762771Y-124049911D01*
X128947690Y-124106005D01*
X129091813Y-124120200D01*
X129988187Y-124120200D01*
X130132310Y-124106005D01*
X130317229Y-124049911D01*
X130487651Y-123958818D01*
X130637028Y-123836228D01*
X130691216Y-123770200D01*
X134792210Y-123770200D01*
X134823200Y-123773252D01*
X134847555Y-123770853D01*
X130295609Y-128322800D01*
X127700101Y-128322800D01*
X127599459Y-128222158D01*
X127471542Y-128136687D01*
X127329409Y-128077813D01*
X127178522Y-128047800D01*
X127024678Y-128047800D01*
X126873791Y-128077813D01*
X126731658Y-128136687D01*
X126603741Y-128222158D01*
X126494958Y-128330941D01*
X126409487Y-128458858D01*
X126350613Y-128600991D01*
X126320600Y-128751878D01*
X126320600Y-128905722D01*
X126350613Y-129056609D01*
X126409487Y-129198742D01*
X126494958Y-129326659D01*
X126603741Y-129435442D01*
X126731658Y-129520913D01*
X126873791Y-129579787D01*
X127024678Y-129609800D01*
X127178522Y-129609800D01*
X127329409Y-129579787D01*
X127471542Y-129520913D01*
X127599459Y-129435442D01*
X127677260Y-129357641D01*
X127625238Y-129483232D01*
X127595225Y-129634119D01*
X127595225Y-129787963D01*
X127616510Y-129894969D01*
X127609153Y-129969666D01*
X127611601Y-129994522D01*
X127611600Y-132040299D01*
X127510958Y-132140941D01*
X127425487Y-132268858D01*
X127366613Y-132410991D01*
X127336600Y-132561878D01*
X127336600Y-132715722D01*
X127366613Y-132866609D01*
X127425487Y-133008742D01*
X127510958Y-133136659D01*
X127619741Y-133245442D01*
X127747658Y-133330913D01*
X127889791Y-133389787D01*
X128040678Y-133419800D01*
X128194522Y-133419800D01*
X128345409Y-133389787D01*
X128487542Y-133330913D01*
X128615459Y-133245442D01*
X128724242Y-133136659D01*
X128809713Y-133008742D01*
X128868587Y-132866609D01*
X128898600Y-132715722D01*
X128898600Y-132561878D01*
X128868587Y-132410991D01*
X128809713Y-132268858D01*
X128724242Y-132140941D01*
X128623600Y-132040299D01*
X128623600Y-130453923D01*
X128746167Y-130403154D01*
X128874084Y-130317683D01*
X128982867Y-130208900D01*
X129068338Y-130080983D01*
X129127212Y-129938850D01*
X129157225Y-129787963D01*
X129157225Y-129634119D01*
X129127212Y-129483232D01*
X129068338Y-129341099D01*
X129064129Y-129334800D01*
X130480354Y-129334800D01*
X130505200Y-129337247D01*
X130530046Y-129334800D01*
X130530054Y-129334800D01*
X130604393Y-129327478D01*
X130699775Y-129298545D01*
X130787679Y-129251559D01*
X130864727Y-129188327D01*
X130880576Y-129169015D01*
X137246220Y-122803372D01*
X137259395Y-122792559D01*
X137272613Y-122859009D01*
X137331487Y-123001142D01*
X137416958Y-123129059D01*
X137525741Y-123237842D01*
X137653658Y-123323313D01*
X137795791Y-123382187D01*
X137946678Y-123412200D01*
X138100522Y-123412200D01*
X138251409Y-123382187D01*
X138393542Y-123323313D01*
X138485005Y-123262200D01*
X141747734Y-123262200D01*
X142128552Y-123643019D01*
X142128552Y-125937359D01*
X142012122Y-125914200D01*
X141858278Y-125914200D01*
X141707391Y-125944213D01*
X141565258Y-126003087D01*
X141437341Y-126088558D01*
X141328558Y-126197341D01*
X141243087Y-126325258D01*
X141236318Y-126341600D01*
X137910901Y-126341600D01*
X137810259Y-126240958D01*
X137682342Y-126155487D01*
X137540209Y-126096613D01*
X137389322Y-126066600D01*
X137235478Y-126066600D01*
X137084591Y-126096613D01*
X136942458Y-126155487D01*
X136814541Y-126240958D01*
X136705758Y-126349741D01*
X136620287Y-126477658D01*
X136561413Y-126619791D01*
X136531400Y-126770678D01*
X136531400Y-126924522D01*
X136561413Y-127075409D01*
X136620287Y-127217542D01*
X136705758Y-127345459D01*
X136814541Y-127454242D01*
X136942458Y-127539713D01*
X137084591Y-127598587D01*
X137235478Y-127628600D01*
X137389322Y-127628600D01*
X137540209Y-127598587D01*
X137682342Y-127539713D01*
X137810259Y-127454242D01*
X137910901Y-127353600D01*
X141514803Y-127353600D01*
X141565258Y-127387313D01*
X141707391Y-127446187D01*
X141858278Y-127476200D01*
X142012122Y-127476200D01*
X142128552Y-127453041D01*
X142128551Y-131693067D01*
X142125499Y-131724057D01*
X142128551Y-131755047D01*
X142128551Y-131755054D01*
X142137681Y-131847754D01*
X142173762Y-131966698D01*
X142232355Y-132076317D01*
X142311208Y-132172400D01*
X142335288Y-132192162D01*
X142528550Y-132385424D01*
X142528550Y-132662684D01*
X142389609Y-132720236D01*
X142261692Y-132805707D01*
X142152909Y-132914490D01*
X142067438Y-133042407D01*
X142008564Y-133184540D01*
X141978551Y-133335427D01*
X141978551Y-133477757D01*
X141344600Y-134111709D01*
X141344600Y-134035078D01*
X141314587Y-133884191D01*
X141255713Y-133742058D01*
X141170242Y-133614141D01*
X141061459Y-133505358D01*
X140933542Y-133419887D01*
X140791409Y-133361013D01*
X140640522Y-133331000D01*
X140498191Y-133331000D01*
X140134575Y-132967384D01*
X140118726Y-132948072D01*
X140041678Y-132884840D01*
X139953774Y-132837854D01*
X139858392Y-132808921D01*
X139784053Y-132801599D01*
X139784045Y-132801599D01*
X139759199Y-132799152D01*
X139734353Y-132801599D01*
X136299989Y-132801599D01*
X136336187Y-132714209D01*
X136366200Y-132563322D01*
X136366200Y-132409478D01*
X136336187Y-132258591D01*
X136277313Y-132116458D01*
X136191842Y-131988541D01*
X136083059Y-131879758D01*
X135955142Y-131794287D01*
X135813009Y-131735413D01*
X135662122Y-131705400D01*
X135519792Y-131705400D01*
X134741376Y-130926985D01*
X134725527Y-130907673D01*
X134648479Y-130844441D01*
X134560575Y-130797455D01*
X134465193Y-130768522D01*
X134390854Y-130761200D01*
X134390846Y-130761200D01*
X134366000Y-130758753D01*
X134341154Y-130761200D01*
X131103701Y-130761200D01*
X131003059Y-130660558D01*
X130875142Y-130575087D01*
X130733009Y-130516213D01*
X130582122Y-130486200D01*
X130428278Y-130486200D01*
X130277391Y-130516213D01*
X130135258Y-130575087D01*
X130007341Y-130660558D01*
X129898558Y-130769341D01*
X129813087Y-130897258D01*
X129754213Y-131039391D01*
X129724200Y-131190278D01*
X129724200Y-131344122D01*
X129754213Y-131495009D01*
X129813087Y-131637142D01*
X129898558Y-131765059D01*
X130007341Y-131873842D01*
X130135258Y-131959313D01*
X130277391Y-132018187D01*
X130428278Y-132048200D01*
X130582122Y-132048200D01*
X130733009Y-132018187D01*
X130875142Y-131959313D01*
X131003059Y-131873842D01*
X131103701Y-131773200D01*
X132236961Y-131773200D01*
X132140941Y-131837358D01*
X132032158Y-131946141D01*
X131946687Y-132074058D01*
X131887813Y-132216191D01*
X131857800Y-132367078D01*
X131857800Y-132520922D01*
X131887813Y-132671809D01*
X131946687Y-132813942D01*
X132032158Y-132941859D01*
X132140941Y-133050642D01*
X132268858Y-133136113D01*
X132410991Y-133194987D01*
X132561878Y-133225000D01*
X132704209Y-133225000D01*
X132928972Y-133449763D01*
X132878458Y-133470687D01*
X132750541Y-133556158D01*
X132641758Y-133664941D01*
X132556287Y-133792858D01*
X132497413Y-133934991D01*
X132467400Y-134085878D01*
X132467400Y-134239722D01*
X132486844Y-134337473D01*
X132418305Y-134344224D01*
X132322923Y-134373157D01*
X132235019Y-134420143D01*
X132157971Y-134483375D01*
X132142127Y-134502681D01*
X131718009Y-134926800D01*
X130732291Y-134926800D01*
X130631409Y-134885013D01*
X130480522Y-134855000D01*
X130326678Y-134855000D01*
X130175791Y-134885013D01*
X130033658Y-134943887D01*
X129905741Y-135029358D01*
X129796958Y-135138141D01*
X129711487Y-135266058D01*
X129652613Y-135408191D01*
X129622600Y-135559078D01*
X129622600Y-135712922D01*
X129652613Y-135863809D01*
X129711487Y-136005942D01*
X129796958Y-136133859D01*
X129905741Y-136242642D01*
X130033658Y-136328113D01*
X130175791Y-136386987D01*
X130326678Y-136417000D01*
X130480522Y-136417000D01*
X130631409Y-136386987D01*
X130773542Y-136328113D01*
X130901459Y-136242642D01*
X131010242Y-136133859D01*
X131095713Y-136005942D01*
X131123524Y-135938800D01*
X131902754Y-135938800D01*
X131927600Y-135941247D01*
X131952446Y-135938800D01*
X131952454Y-135938800D01*
X132026793Y-135931478D01*
X132122175Y-135902545D01*
X132210079Y-135855559D01*
X132287127Y-135792327D01*
X132302976Y-135773015D01*
X132727090Y-135348902D01*
X141304152Y-135348902D01*
X141328998Y-135351349D01*
X141353844Y-135348902D01*
X141353852Y-135348902D01*
X141428191Y-135341580D01*
X141523573Y-135312647D01*
X141611477Y-135265661D01*
X141688525Y-135202429D01*
X141704374Y-135183117D01*
X142694143Y-134193349D01*
X142836473Y-134193349D01*
X142987360Y-134163336D01*
X143129493Y-134104462D01*
X143257410Y-134018991D01*
X143366193Y-133910208D01*
X143451664Y-133782291D01*
X143510538Y-133640158D01*
X143531998Y-133532270D01*
X143583814Y-133480454D01*
X143607893Y-133460693D01*
X143686746Y-133364611D01*
X143745339Y-133254992D01*
X143781420Y-133136048D01*
X143790550Y-133043348D01*
X143790550Y-133043341D01*
X143793602Y-133012351D01*
X143790550Y-132981360D01*
X143790550Y-132155046D01*
X143793602Y-132124055D01*
X143790550Y-132093065D01*
X143790550Y-132093058D01*
X143781420Y-132000358D01*
X143745339Y-131881414D01*
X143686746Y-131771795D01*
X143607893Y-131675713D01*
X143583813Y-131655951D01*
X143390551Y-131462689D01*
X143390551Y-123412636D01*
X143393603Y-123381648D01*
X143390551Y-123350660D01*
X143390551Y-122605078D01*
X147047000Y-122605078D01*
X147047000Y-122758922D01*
X147077013Y-122909809D01*
X147135887Y-123051942D01*
X147221358Y-123179859D01*
X147330141Y-123288642D01*
X147458058Y-123374113D01*
X147600191Y-123432987D01*
X147751078Y-123463000D01*
X147893409Y-123463000D01*
X148761838Y-124331430D01*
X148777683Y-124350737D01*
X148854731Y-124413969D01*
X148942635Y-124460955D01*
X149038017Y-124489888D01*
X149137210Y-124499658D01*
X149162064Y-124497210D01*
X154063144Y-124497210D01*
X154087990Y-124499657D01*
X154112836Y-124497210D01*
X154112844Y-124497210D01*
X154187183Y-124489888D01*
X154282565Y-124460955D01*
X154370469Y-124413969D01*
X154447517Y-124350737D01*
X154463366Y-124331425D01*
X154674591Y-124120200D01*
X155388187Y-124120200D01*
X155532310Y-124106005D01*
X155717229Y-124049911D01*
X155887651Y-123958818D01*
X156037028Y-123836228D01*
X156159618Y-123686851D01*
X156250711Y-123516429D01*
X156306805Y-123331510D01*
X156325746Y-123139200D01*
X156306805Y-122946890D01*
X156250711Y-122761971D01*
X156159618Y-122591549D01*
X156037028Y-122442172D01*
X155887651Y-122319582D01*
X155717229Y-122228489D01*
X155532310Y-122172395D01*
X155388187Y-122158200D01*
X154491813Y-122158200D01*
X154347690Y-122172395D01*
X154162771Y-122228489D01*
X153992349Y-122319582D01*
X153842972Y-122442172D01*
X153720382Y-122591549D01*
X153670000Y-122685807D01*
X153619618Y-122591549D01*
X153497028Y-122442172D01*
X153347651Y-122319582D01*
X153177229Y-122228489D01*
X152992310Y-122172395D01*
X152848187Y-122158200D01*
X151951813Y-122158200D01*
X151807690Y-122172395D01*
X151622771Y-122228489D01*
X151452349Y-122319582D01*
X151302972Y-122442172D01*
X151180382Y-122591549D01*
X151089289Y-122761971D01*
X151033195Y-122946890D01*
X151014254Y-123139200D01*
X151033195Y-123331510D01*
X151079819Y-123485210D01*
X149346802Y-123485210D01*
X148609000Y-122747409D01*
X148609000Y-122605078D01*
X148578987Y-122454191D01*
X148520113Y-122312058D01*
X148434642Y-122184141D01*
X148325859Y-122075358D01*
X148197942Y-121989887D01*
X148055809Y-121931013D01*
X147904922Y-121901000D01*
X147751078Y-121901000D01*
X147600191Y-121931013D01*
X147458058Y-121989887D01*
X147330141Y-122075358D01*
X147221358Y-122184141D01*
X147135887Y-122312058D01*
X147077013Y-122454191D01*
X147047000Y-122605078D01*
X143390551Y-122605078D01*
X143390551Y-120916809D01*
X150806538Y-120916809D01*
X150810409Y-120954482D01*
X150902579Y-121179733D01*
X151036922Y-121382674D01*
X151208275Y-121555507D01*
X151410054Y-121691590D01*
X151634504Y-121785693D01*
X151873000Y-121834200D01*
X152273000Y-121834200D01*
X152273000Y-120726200D01*
X150931269Y-120726200D01*
X150806538Y-120916809D01*
X143390551Y-120916809D01*
X143390551Y-120281591D01*
X150806538Y-120281591D01*
X150931269Y-120472200D01*
X152273000Y-120472200D01*
X152273000Y-119364200D01*
X152527000Y-119364200D01*
X152527000Y-120472200D01*
X152547000Y-120472200D01*
X152547000Y-120726200D01*
X152527000Y-120726200D01*
X152527000Y-121834200D01*
X152927000Y-121834200D01*
X153165496Y-121785693D01*
X153389946Y-121691590D01*
X153591725Y-121555507D01*
X153763078Y-121382674D01*
X153830425Y-121280939D01*
X153842972Y-121296228D01*
X153992349Y-121418818D01*
X154162771Y-121509911D01*
X154347690Y-121566005D01*
X154491813Y-121580200D01*
X155388187Y-121580200D01*
X155532310Y-121566005D01*
X155717229Y-121509911D01*
X155887651Y-121418818D01*
X156037028Y-121296228D01*
X156159618Y-121146851D01*
X156250711Y-120976429D01*
X156306805Y-120791510D01*
X156325746Y-120599200D01*
X156306805Y-120406890D01*
X156250711Y-120221971D01*
X156159618Y-120051549D01*
X156037028Y-119902172D01*
X155887651Y-119779582D01*
X155717229Y-119688489D01*
X155532310Y-119632395D01*
X155388187Y-119618200D01*
X154491813Y-119618200D01*
X154347690Y-119632395D01*
X154162771Y-119688489D01*
X153992349Y-119779582D01*
X153842972Y-119902172D01*
X153830425Y-119917461D01*
X153763078Y-119815726D01*
X153591725Y-119642893D01*
X153389946Y-119506810D01*
X153165496Y-119412707D01*
X152927000Y-119364200D01*
X152527000Y-119364200D01*
X152273000Y-119364200D01*
X151873000Y-119364200D01*
X151634504Y-119412707D01*
X151410054Y-119506810D01*
X151208275Y-119642893D01*
X151036922Y-119815726D01*
X150902579Y-120018667D01*
X150810409Y-120243918D01*
X150806538Y-120281591D01*
X143390551Y-120281591D01*
X143390551Y-116780949D01*
X143393604Y-116749951D01*
X143381421Y-116626253D01*
X143345340Y-116507309D01*
X143286747Y-116397690D01*
X143227654Y-116325685D01*
X143227652Y-116325683D01*
X143207894Y-116301608D01*
X143183819Y-116281850D01*
X140370847Y-113468879D01*
X140365659Y-113442799D01*
X142881400Y-113442799D01*
X142881400Y-113564122D01*
X142911413Y-113715009D01*
X142970287Y-113857142D01*
X143055758Y-113985059D01*
X143164541Y-114093842D01*
X143292458Y-114179313D01*
X143434591Y-114238187D01*
X143585478Y-114268200D01*
X143739322Y-114268200D01*
X143890209Y-114238187D01*
X144032342Y-114179313D01*
X144160259Y-114093842D01*
X144269042Y-113985059D01*
X144354513Y-113857142D01*
X144355645Y-113854410D01*
X145293854Y-114792620D01*
X145309699Y-114811927D01*
X145386747Y-114875159D01*
X145467321Y-114918227D01*
X145474651Y-114922145D01*
X145570033Y-114951078D01*
X145669226Y-114960848D01*
X145694080Y-114958400D01*
X146111899Y-114958400D01*
X146212541Y-115059042D01*
X146340458Y-115144513D01*
X146482591Y-115203387D01*
X146633478Y-115233400D01*
X146787322Y-115233400D01*
X146938209Y-115203387D01*
X147080342Y-115144513D01*
X147208259Y-115059042D01*
X147317042Y-114950259D01*
X147402513Y-114822342D01*
X147461387Y-114680209D01*
X147482961Y-114571747D01*
X147509770Y-114579879D01*
X147584109Y-114587201D01*
X147584116Y-114587201D01*
X147608962Y-114589648D01*
X147633808Y-114587201D01*
X151692949Y-114587201D01*
X151622771Y-114608489D01*
X151452349Y-114699582D01*
X151302972Y-114822172D01*
X151180382Y-114971549D01*
X151089289Y-115141971D01*
X151033195Y-115326890D01*
X151014254Y-115519200D01*
X151033195Y-115711510D01*
X151089289Y-115896429D01*
X151180382Y-116066851D01*
X151302972Y-116216228D01*
X151452349Y-116338818D01*
X151622771Y-116429911D01*
X151662627Y-116442001D01*
X148746816Y-116442001D01*
X148782187Y-116356609D01*
X148812200Y-116205722D01*
X148812200Y-116051878D01*
X148782187Y-115900991D01*
X148723313Y-115758858D01*
X148637842Y-115630941D01*
X148529059Y-115522158D01*
X148401142Y-115436687D01*
X148259009Y-115377813D01*
X148108122Y-115347800D01*
X147954278Y-115347800D01*
X147803391Y-115377813D01*
X147661258Y-115436687D01*
X147533341Y-115522158D01*
X147432699Y-115622800D01*
X146430445Y-115622800D01*
X146405599Y-115620353D01*
X146380753Y-115622800D01*
X146380746Y-115622800D01*
X146306407Y-115630122D01*
X146211025Y-115659055D01*
X146123121Y-115706041D01*
X146046073Y-115769273D01*
X146030228Y-115788580D01*
X145404209Y-116414600D01*
X145261878Y-116414600D01*
X145110991Y-116444613D01*
X144968858Y-116503487D01*
X144840941Y-116588958D01*
X144732158Y-116697741D01*
X144646687Y-116825658D01*
X144587813Y-116967791D01*
X144557800Y-117118678D01*
X144557800Y-117272522D01*
X144587813Y-117423409D01*
X144646687Y-117565542D01*
X144732158Y-117693459D01*
X144840941Y-117802242D01*
X144968858Y-117887713D01*
X145061233Y-117925976D01*
X144997809Y-117989400D01*
X144855478Y-117989400D01*
X144704591Y-118019413D01*
X144562458Y-118078287D01*
X144434541Y-118163758D01*
X144325758Y-118272541D01*
X144240287Y-118400458D01*
X144181413Y-118542591D01*
X144151400Y-118693478D01*
X144151400Y-118847322D01*
X144181413Y-118998209D01*
X144240287Y-119140342D01*
X144325758Y-119268259D01*
X144434541Y-119377042D01*
X144562458Y-119462513D01*
X144704591Y-119521387D01*
X144855478Y-119551400D01*
X145009322Y-119551400D01*
X145160209Y-119521387D01*
X145302342Y-119462513D01*
X145430259Y-119377042D01*
X145539042Y-119268259D01*
X145624513Y-119140342D01*
X145683387Y-118998209D01*
X145713400Y-118847322D01*
X145713400Y-118704991D01*
X146964391Y-117454001D01*
X151227610Y-117454001D01*
X151180382Y-117511549D01*
X151089289Y-117681971D01*
X151033195Y-117866890D01*
X151014254Y-118059200D01*
X151033195Y-118251510D01*
X151089289Y-118436429D01*
X151180382Y-118606851D01*
X151302972Y-118756228D01*
X151452349Y-118878818D01*
X151622771Y-118969911D01*
X151807690Y-119026005D01*
X151951813Y-119040200D01*
X152848187Y-119040200D01*
X152992310Y-119026005D01*
X153177229Y-118969911D01*
X153347651Y-118878818D01*
X153497028Y-118756228D01*
X153619618Y-118606851D01*
X153670000Y-118512593D01*
X153720382Y-118606851D01*
X153842972Y-118756228D01*
X153992349Y-118878818D01*
X154162771Y-118969911D01*
X154347690Y-119026005D01*
X154491813Y-119040200D01*
X155388187Y-119040200D01*
X155532310Y-119026005D01*
X155717229Y-118969911D01*
X155887651Y-118878818D01*
X156037028Y-118756228D01*
X156159618Y-118606851D01*
X156250711Y-118436429D01*
X156306805Y-118251510D01*
X156325746Y-118059200D01*
X156306805Y-117866890D01*
X156250711Y-117681971D01*
X156159618Y-117511549D01*
X156037028Y-117362172D01*
X155887651Y-117239582D01*
X155717229Y-117148489D01*
X155532310Y-117092395D01*
X155388187Y-117078200D01*
X154491813Y-117078200D01*
X154347690Y-117092395D01*
X154162771Y-117148489D01*
X153992349Y-117239582D01*
X153842972Y-117362172D01*
X153720382Y-117511549D01*
X153670000Y-117605807D01*
X153619618Y-117511549D01*
X153569672Y-117450690D01*
X153610392Y-117446679D01*
X153705774Y-117417746D01*
X153793678Y-117370760D01*
X153870726Y-117307528D01*
X153886575Y-117288216D01*
X154674592Y-116500200D01*
X155388187Y-116500200D01*
X155532310Y-116486005D01*
X155717229Y-116429911D01*
X155887651Y-116338818D01*
X156037028Y-116216228D01*
X156159618Y-116066851D01*
X156250711Y-115896429D01*
X156306805Y-115711510D01*
X156325746Y-115519200D01*
X156306805Y-115326890D01*
X156250711Y-115141971D01*
X156159618Y-114971549D01*
X156037028Y-114822172D01*
X155887651Y-114699582D01*
X155717229Y-114608489D01*
X155532310Y-114552395D01*
X155388187Y-114538200D01*
X154491813Y-114538200D01*
X154347690Y-114552395D01*
X154162771Y-114608489D01*
X153992349Y-114699582D01*
X153842972Y-114822172D01*
X153720382Y-114971549D01*
X153670000Y-115065807D01*
X153619618Y-114971549D01*
X153497028Y-114822172D01*
X153347651Y-114699582D01*
X153177229Y-114608489D01*
X153107051Y-114587201D01*
X153813153Y-114587201D01*
X153837999Y-114589648D01*
X153862845Y-114587201D01*
X153862853Y-114587201D01*
X153937192Y-114579879D01*
X154032574Y-114550946D01*
X154120478Y-114503960D01*
X154197526Y-114440728D01*
X154213375Y-114421416D01*
X154674591Y-113960200D01*
X155388187Y-113960200D01*
X155532310Y-113946005D01*
X155717229Y-113889911D01*
X155887651Y-113798818D01*
X156037028Y-113676228D01*
X156159618Y-113526851D01*
X156250711Y-113356429D01*
X156306805Y-113171510D01*
X156325746Y-112979200D01*
X156306805Y-112786890D01*
X156250711Y-112601971D01*
X156159618Y-112431549D01*
X156037028Y-112282172D01*
X155887651Y-112159582D01*
X155717229Y-112068489D01*
X155532310Y-112012395D01*
X155388187Y-111998200D01*
X154491813Y-111998200D01*
X154347690Y-112012395D01*
X154162771Y-112068489D01*
X153992349Y-112159582D01*
X153842972Y-112282172D01*
X153720382Y-112431549D01*
X153670000Y-112525807D01*
X153619618Y-112431549D01*
X153497028Y-112282172D01*
X153347651Y-112159582D01*
X153177229Y-112068489D01*
X153107051Y-112047201D01*
X153813153Y-112047201D01*
X153837999Y-112049648D01*
X153862845Y-112047201D01*
X153862853Y-112047201D01*
X153937192Y-112039879D01*
X154032574Y-112010946D01*
X154120478Y-111963960D01*
X154197526Y-111900728D01*
X154213375Y-111881416D01*
X154674591Y-111420200D01*
X155388187Y-111420200D01*
X155532310Y-111406005D01*
X155717229Y-111349911D01*
X155887651Y-111258818D01*
X156037028Y-111136228D01*
X156159618Y-110986851D01*
X156250711Y-110816429D01*
X156306805Y-110631510D01*
X156325746Y-110439200D01*
X156306805Y-110246890D01*
X156250711Y-110061971D01*
X156159618Y-109891549D01*
X156037028Y-109742172D01*
X155887651Y-109619582D01*
X155717229Y-109528489D01*
X155532310Y-109472395D01*
X155388187Y-109458200D01*
X154491813Y-109458200D01*
X154347690Y-109472395D01*
X154162771Y-109528489D01*
X153992349Y-109619582D01*
X153842972Y-109742172D01*
X153720382Y-109891549D01*
X153670000Y-109985807D01*
X153619618Y-109891549D01*
X153497028Y-109742172D01*
X153347651Y-109619582D01*
X153177229Y-109528489D01*
X152992310Y-109472395D01*
X152848187Y-109458200D01*
X152134592Y-109458200D01*
X149769190Y-107092799D01*
X151436244Y-107092799D01*
X151302972Y-107202172D01*
X151180382Y-107351549D01*
X151089289Y-107521971D01*
X151033195Y-107706890D01*
X151014254Y-107899200D01*
X151033195Y-108091510D01*
X151089289Y-108276429D01*
X151180382Y-108446851D01*
X151302972Y-108596228D01*
X151452349Y-108718818D01*
X151622771Y-108809911D01*
X151807690Y-108866005D01*
X151951813Y-108880200D01*
X152848187Y-108880200D01*
X152992310Y-108866005D01*
X153177229Y-108809911D01*
X153347651Y-108718818D01*
X153497028Y-108596228D01*
X153619618Y-108446851D01*
X153670000Y-108352593D01*
X153720382Y-108446851D01*
X153842972Y-108596228D01*
X153992349Y-108718818D01*
X154162771Y-108809911D01*
X154347690Y-108866005D01*
X154491813Y-108880200D01*
X155388187Y-108880200D01*
X155532310Y-108866005D01*
X155717229Y-108809911D01*
X155887651Y-108718818D01*
X156037028Y-108596228D01*
X156159618Y-108446851D01*
X156250711Y-108276429D01*
X156306805Y-108091510D01*
X156325746Y-107899200D01*
X156306805Y-107706890D01*
X156250711Y-107521971D01*
X156159618Y-107351549D01*
X156037028Y-107202172D01*
X155887651Y-107079582D01*
X155717229Y-106988489D01*
X155532310Y-106932395D01*
X155388187Y-106918200D01*
X154674592Y-106918200D01*
X154334657Y-106578266D01*
X154413000Y-106594200D01*
X154813000Y-106594200D01*
X154813000Y-105486200D01*
X154793000Y-105486200D01*
X154793000Y-105232200D01*
X154813000Y-105232200D01*
X154813000Y-104124200D01*
X154413000Y-104124200D01*
X154174504Y-104172707D01*
X153950054Y-104266810D01*
X153748275Y-104402893D01*
X153576922Y-104575726D01*
X153509575Y-104677461D01*
X153497028Y-104662172D01*
X153347651Y-104539582D01*
X153177229Y-104448489D01*
X152992310Y-104392395D01*
X152848187Y-104378200D01*
X151951813Y-104378200D01*
X151807690Y-104392395D01*
X151622771Y-104448489D01*
X151452349Y-104539582D01*
X151302972Y-104662172D01*
X151180382Y-104811549D01*
X151158119Y-104853200D01*
X147446692Y-104853200D01*
X147421838Y-104850752D01*
X147396984Y-104853200D01*
X147322645Y-104860522D01*
X147227263Y-104889455D01*
X147139359Y-104936441D01*
X147062311Y-104999673D01*
X147046466Y-105018980D01*
X145057784Y-107007663D01*
X145038472Y-107023512D01*
X144975240Y-107100560D01*
X144928254Y-107188465D01*
X144899321Y-107283847D01*
X144891999Y-107358186D01*
X144891999Y-107358193D01*
X144889552Y-107383039D01*
X144891999Y-107407886D01*
X144892000Y-107984105D01*
X144889552Y-108008961D01*
X144899321Y-108108153D01*
X144928254Y-108203535D01*
X144942502Y-108230191D01*
X144975241Y-108291440D01*
X145038473Y-108368488D01*
X145057780Y-108384333D01*
X145361663Y-108688216D01*
X145377512Y-108707528D01*
X145454560Y-108770760D01*
X145542464Y-108817746D01*
X145637846Y-108846679D01*
X145712185Y-108854001D01*
X145712193Y-108854001D01*
X145737039Y-108856448D01*
X145761885Y-108854001D01*
X146588131Y-108854001D01*
X146568141Y-108867358D01*
X146459358Y-108976141D01*
X146373887Y-109104058D01*
X146315013Y-109246191D01*
X146285000Y-109397078D01*
X146285000Y-109550922D01*
X146315013Y-109701809D01*
X146373887Y-109843942D01*
X146459358Y-109971859D01*
X146568141Y-110080642D01*
X146696058Y-110166113D01*
X146838191Y-110224987D01*
X146989078Y-110255000D01*
X147131409Y-110255000D01*
X148757829Y-111881421D01*
X148773674Y-111900728D01*
X148850722Y-111963960D01*
X148915568Y-111998621D01*
X148938626Y-112010946D01*
X149034008Y-112039879D01*
X149133201Y-112049649D01*
X149158055Y-112047201D01*
X151692949Y-112047201D01*
X151622771Y-112068489D01*
X151452349Y-112159582D01*
X151302972Y-112282172D01*
X151180382Y-112431549D01*
X151089289Y-112601971D01*
X151033195Y-112786890D01*
X151014254Y-112979200D01*
X151033195Y-113171510D01*
X151089289Y-113356429D01*
X151180382Y-113526851D01*
X151220062Y-113575201D01*
X148775696Y-113575201D01*
X148824913Y-113501542D01*
X148883787Y-113359409D01*
X148913800Y-113208522D01*
X148913800Y-113054678D01*
X148883787Y-112903791D01*
X148824913Y-112761658D01*
X148739442Y-112633741D01*
X148630659Y-112524958D01*
X148502742Y-112439487D01*
X148360609Y-112380613D01*
X148209722Y-112350600D01*
X148067392Y-112350600D01*
X147034976Y-111318185D01*
X147019127Y-111298873D01*
X146942079Y-111235641D01*
X146854175Y-111188655D01*
X146758793Y-111159722D01*
X146684454Y-111152400D01*
X146684446Y-111152400D01*
X146659600Y-111149953D01*
X146634754Y-111152400D01*
X146394501Y-111152400D01*
X146293859Y-111051758D01*
X146165942Y-110966287D01*
X146023809Y-110907413D01*
X145872922Y-110877400D01*
X145719078Y-110877400D01*
X145568191Y-110907413D01*
X145426058Y-110966287D01*
X145298141Y-111051758D01*
X145189358Y-111160541D01*
X145103887Y-111288458D01*
X145045013Y-111430591D01*
X145015000Y-111581478D01*
X145015000Y-111735322D01*
X145045013Y-111886209D01*
X145103887Y-112028342D01*
X145189358Y-112156259D01*
X145298141Y-112265042D01*
X145426058Y-112350513D01*
X145568191Y-112409387D01*
X145719078Y-112439400D01*
X145872922Y-112439400D01*
X146023809Y-112409387D01*
X146165942Y-112350513D01*
X146293859Y-112265042D01*
X146394501Y-112164400D01*
X146450009Y-112164400D01*
X147351800Y-113066192D01*
X147351800Y-113208522D01*
X147359907Y-113249281D01*
X147302215Y-113243599D01*
X147302207Y-113243599D01*
X147277361Y-113241152D01*
X147252515Y-113243599D01*
X146115591Y-113243599D01*
X141243776Y-108371785D01*
X141227927Y-108352473D01*
X141150879Y-108289241D01*
X141062975Y-108242255D01*
X140967593Y-108213322D01*
X140893254Y-108206000D01*
X140893246Y-108206000D01*
X140868400Y-108203553D01*
X140843554Y-108206000D01*
X138759652Y-108206000D01*
X138734798Y-108203552D01*
X138709944Y-108206000D01*
X138635605Y-108213322D01*
X138540223Y-108242255D01*
X138452319Y-108289241D01*
X138375271Y-108352473D01*
X138359426Y-108371780D01*
X133923409Y-112807798D01*
X133781078Y-112807798D01*
X133630191Y-112837811D01*
X133488058Y-112896685D01*
X133360141Y-112982156D01*
X133251358Y-113090939D01*
X133165887Y-113218856D01*
X133107013Y-113360989D01*
X133077000Y-113511876D01*
X133077000Y-113665720D01*
X133090741Y-113734799D01*
X131011191Y-113734799D01*
X130774814Y-113498422D01*
X130850711Y-113356429D01*
X130906805Y-113171510D01*
X130925746Y-112979200D01*
X130906805Y-112786890D01*
X130850711Y-112601971D01*
X130759618Y-112431549D01*
X130637028Y-112282172D01*
X130487651Y-112159582D01*
X130317229Y-112068489D01*
X130132310Y-112012395D01*
X129988187Y-111998200D01*
X129091813Y-111998200D01*
X128947690Y-112012395D01*
X128776000Y-112064476D01*
X128776000Y-111918791D01*
X129274592Y-111420200D01*
X129988187Y-111420200D01*
X130132310Y-111406005D01*
X130317229Y-111349911D01*
X130487651Y-111258818D01*
X130637028Y-111136228D01*
X130759618Y-110986851D01*
X130850711Y-110816429D01*
X130906805Y-110631510D01*
X130925746Y-110439200D01*
X130906805Y-110246890D01*
X130850711Y-110061971D01*
X130759618Y-109891549D01*
X130637028Y-109742172D01*
X130487651Y-109619582D01*
X130317229Y-109528489D01*
X130132310Y-109472395D01*
X129988187Y-109458200D01*
X129091813Y-109458200D01*
X128947690Y-109472395D01*
X128762771Y-109528489D01*
X128592349Y-109619582D01*
X128442972Y-109742172D01*
X128320382Y-109891549D01*
X128270000Y-109985807D01*
X128219618Y-109891549D01*
X128097028Y-109742172D01*
X127947651Y-109619582D01*
X127777229Y-109528489D01*
X127592310Y-109472395D01*
X127448187Y-109458200D01*
X126551813Y-109458200D01*
X126407690Y-109472395D01*
X126222771Y-109528489D01*
X126052349Y-109619582D01*
X125902972Y-109742172D01*
X125780382Y-109891549D01*
X125689289Y-110061971D01*
X125633195Y-110246890D01*
X125614254Y-110439200D01*
X125340462Y-110439200D01*
X125340462Y-107899200D01*
X125614254Y-107899200D01*
X125633195Y-108091510D01*
X125689289Y-108276429D01*
X125780382Y-108446851D01*
X125902972Y-108596228D01*
X126052349Y-108718818D01*
X126222771Y-108809911D01*
X126407690Y-108866005D01*
X126551813Y-108880200D01*
X127448187Y-108880200D01*
X127592310Y-108866005D01*
X127777229Y-108809911D01*
X127947651Y-108718818D01*
X128097028Y-108596228D01*
X128219618Y-108446851D01*
X128270000Y-108352593D01*
X128320382Y-108446851D01*
X128442972Y-108596228D01*
X128592349Y-108718818D01*
X128762771Y-108809911D01*
X128947690Y-108866005D01*
X129091813Y-108880200D01*
X129988187Y-108880200D01*
X130132310Y-108866005D01*
X130317229Y-108809911D01*
X130487651Y-108718818D01*
X130637028Y-108596228D01*
X130759618Y-108446851D01*
X130850711Y-108276429D01*
X130906805Y-108091510D01*
X130925746Y-107899200D01*
X130906805Y-107706890D01*
X130850711Y-107521971D01*
X130759618Y-107351549D01*
X130637028Y-107202172D01*
X130487651Y-107079582D01*
X130317229Y-106988489D01*
X130132310Y-106932395D01*
X129988187Y-106918200D01*
X129091813Y-106918200D01*
X128947690Y-106932395D01*
X128762771Y-106988489D01*
X128592349Y-107079582D01*
X128442972Y-107202172D01*
X128320382Y-107351549D01*
X128270000Y-107445807D01*
X128219618Y-107351549D01*
X128097028Y-107202172D01*
X127947651Y-107079582D01*
X127777229Y-106988489D01*
X127592310Y-106932395D01*
X127448187Y-106918200D01*
X126551813Y-106918200D01*
X126407690Y-106932395D01*
X126222771Y-106988489D01*
X126052349Y-107079582D01*
X125902972Y-107202172D01*
X125780382Y-107351549D01*
X125689289Y-107521971D01*
X125633195Y-107706890D01*
X125614254Y-107899200D01*
X125340462Y-107899200D01*
X125340462Y-105676809D01*
X125406538Y-105676809D01*
X125410409Y-105714482D01*
X125502579Y-105939733D01*
X125636922Y-106142674D01*
X125808275Y-106315507D01*
X126010054Y-106451590D01*
X126234504Y-106545693D01*
X126473000Y-106594200D01*
X126873000Y-106594200D01*
X126873000Y-105486200D01*
X125531269Y-105486200D01*
X125406538Y-105676809D01*
X125340462Y-105676809D01*
X125340462Y-105041591D01*
X125406538Y-105041591D01*
X125531269Y-105232200D01*
X126873000Y-105232200D01*
X126873000Y-104124200D01*
X127127000Y-104124200D01*
X127127000Y-105232200D01*
X127147000Y-105232200D01*
X127147000Y-105486200D01*
X127127000Y-105486200D01*
X127127000Y-106594200D01*
X127527000Y-106594200D01*
X127765496Y-106545693D01*
X127989946Y-106451590D01*
X128191725Y-106315507D01*
X128363078Y-106142674D01*
X128430425Y-106040939D01*
X128442972Y-106056228D01*
X128592349Y-106178818D01*
X128762771Y-106269911D01*
X128947690Y-106326005D01*
X129091813Y-106340200D01*
X129988187Y-106340200D01*
X130132310Y-106326005D01*
X130317229Y-106269911D01*
X130487651Y-106178818D01*
X130637028Y-106056228D01*
X130759618Y-105906851D01*
X130850711Y-105736429D01*
X130906805Y-105551510D01*
X130925746Y-105359200D01*
X130906805Y-105166890D01*
X130850711Y-104981971D01*
X130759618Y-104811549D01*
X130637028Y-104662172D01*
X130487651Y-104539582D01*
X130317229Y-104448489D01*
X130132310Y-104392395D01*
X129988187Y-104378200D01*
X129091813Y-104378200D01*
X128947690Y-104392395D01*
X128762771Y-104448489D01*
X128592349Y-104539582D01*
X128442972Y-104662172D01*
X128430425Y-104677461D01*
X128363078Y-104575726D01*
X128191725Y-104402893D01*
X127989946Y-104266810D01*
X127765496Y-104172707D01*
X127527000Y-104124200D01*
X127127000Y-104124200D01*
X126873000Y-104124200D01*
X126473000Y-104124200D01*
X126234504Y-104172707D01*
X126010054Y-104266810D01*
X125808275Y-104402893D01*
X125636922Y-104575726D01*
X125502579Y-104778667D01*
X125410409Y-105003918D01*
X125406538Y-105041591D01*
X125340462Y-105041591D01*
X125340462Y-99327088D01*
X125342822Y-99231853D01*
X125349460Y-99142629D01*
X125360449Y-99054165D01*
X125375726Y-98966611D01*
X125395230Y-98880110D01*
X125418901Y-98794813D01*
X125446684Y-98710842D01*
X125478510Y-98628378D01*
X125514305Y-98547590D01*
X125554030Y-98468578D01*
X125597618Y-98391505D01*
X125644988Y-98316554D01*
X125696103Y-98243832D01*
X125750879Y-98173517D01*
X125809279Y-98105728D01*
X125871260Y-98040598D01*
X125936390Y-97978617D01*
X126004179Y-97920217D01*
X126074494Y-97865441D01*
X126147223Y-97814321D01*
X126222172Y-97766954D01*
X126299227Y-97723375D01*
X126378246Y-97683646D01*
X126459047Y-97647845D01*
X126541509Y-97616020D01*
X126625475Y-97588239D01*
X126710772Y-97564568D01*
X126797273Y-97545064D01*
X126884826Y-97529787D01*
X126973295Y-97518798D01*
X127062515Y-97512160D01*
X127157750Y-97509800D01*
X131596773Y-97509800D01*
X131591034Y-103315206D01*
G36*
X138817400Y-113511878D02*
G01*
X138817400Y-113665722D01*
X138847413Y-113816609D01*
X138906287Y-113958742D01*
X138991758Y-114086659D01*
X139100541Y-114195442D01*
X139228458Y-114280913D01*
X139370591Y-114339787D01*
X139478479Y-114361247D01*
X142128552Y-117011321D01*
X142128551Y-122008912D01*
X142040100Y-122000200D01*
X142040092Y-122000200D01*
X142009102Y-121997148D01*
X141978112Y-122000200D01*
X138485005Y-122000200D01*
X138393542Y-121939087D01*
X138251409Y-121880213D01*
X138100522Y-121850200D01*
X137946678Y-121850200D01*
X137795791Y-121880213D01*
X137653658Y-121939087D01*
X137525741Y-122024558D01*
X137416958Y-122133341D01*
X137412000Y-122140761D01*
X137412000Y-115711303D01*
X137512642Y-115610661D01*
X137598113Y-115482744D01*
X137656987Y-115340611D01*
X137687000Y-115189724D01*
X137687000Y-115035880D01*
X137656987Y-114884993D01*
X137598113Y-114742860D01*
X137512642Y-114614943D01*
X137403859Y-114506160D01*
X137275942Y-114420689D01*
X137255577Y-114412253D01*
X137586408Y-114081422D01*
X137586412Y-114081417D01*
X138225031Y-113442799D01*
X138831141Y-113442799D01*
X138817400Y-113511878D01*
G37*
X138817400Y-113511878D02*
X138817400Y-113665722D01*
X138847413Y-113816609D01*
X138906287Y-113958742D01*
X138991758Y-114086659D01*
X139100541Y-114195442D01*
X139228458Y-114280913D01*
X139370591Y-114339787D01*
X139478479Y-114361247D01*
X142128552Y-117011321D01*
X142128551Y-122008912D01*
X142040100Y-122000200D01*
X142040092Y-122000200D01*
X142009102Y-121997148D01*
X141978112Y-122000200D01*
X138485005Y-122000200D01*
X138393542Y-121939087D01*
X138251409Y-121880213D01*
X138100522Y-121850200D01*
X137946678Y-121850200D01*
X137795791Y-121880213D01*
X137653658Y-121939087D01*
X137525741Y-122024558D01*
X137416958Y-122133341D01*
X137412000Y-122140761D01*
X137412000Y-115711303D01*
X137512642Y-115610661D01*
X137598113Y-115482744D01*
X137656987Y-115340611D01*
X137687000Y-115189724D01*
X137687000Y-115035880D01*
X137656987Y-114884993D01*
X137598113Y-114742860D01*
X137512642Y-114614943D01*
X137403859Y-114506160D01*
X137275942Y-114420689D01*
X137255577Y-114412253D01*
X137586408Y-114081422D01*
X137586412Y-114081417D01*
X138225031Y-113442799D01*
X138831141Y-113442799D01*
X138817400Y-113511878D01*
G36*
X142932034Y-112430799D02*
G01*
X138040293Y-112430799D01*
X138015439Y-112428351D01*
X137990585Y-112430799D01*
X137916246Y-112438121D01*
X137820864Y-112467054D01*
X137732960Y-112514040D01*
X137655912Y-112577272D01*
X137640067Y-112596579D01*
X136870821Y-113365826D01*
X136870816Y-113365830D01*
X135223447Y-115013200D01*
X130781881Y-115013200D01*
X130759618Y-114971549D01*
X130637028Y-114822172D01*
X130487651Y-114699582D01*
X130317229Y-114608489D01*
X130132310Y-114552395D01*
X129988187Y-114538200D01*
X129091813Y-114538200D01*
X128947690Y-114552395D01*
X128776000Y-114604476D01*
X128776000Y-113893924D01*
X128947690Y-113946005D01*
X129091813Y-113960200D01*
X129805409Y-113960200D01*
X130426227Y-114581019D01*
X130442072Y-114600326D01*
X130519120Y-114663558D01*
X130607024Y-114710544D01*
X130680206Y-114732743D01*
X130702405Y-114739477D01*
X130712293Y-114740451D01*
X130776745Y-114746799D01*
X130776752Y-114746799D01*
X130801598Y-114749246D01*
X130826444Y-114746799D01*
X134545870Y-114746799D01*
X134570716Y-114749246D01*
X134595562Y-114746799D01*
X134595570Y-114746799D01*
X134669909Y-114739477D01*
X134765291Y-114710544D01*
X134853195Y-114663558D01*
X134930243Y-114600326D01*
X134946092Y-114581014D01*
X138778706Y-110748401D01*
X141249636Y-110748401D01*
X142932034Y-112430799D01*
G37*
X142932034Y-112430799D02*
X138040293Y-112430799D01*
X138015439Y-112428351D01*
X137990585Y-112430799D01*
X137916246Y-112438121D01*
X137820864Y-112467054D01*
X137732960Y-112514040D01*
X137655912Y-112577272D01*
X137640067Y-112596579D01*
X136870821Y-113365826D01*
X136870816Y-113365830D01*
X135223447Y-115013200D01*
X130781881Y-115013200D01*
X130759618Y-114971549D01*
X130637028Y-114822172D01*
X130487651Y-114699582D01*
X130317229Y-114608489D01*
X130132310Y-114552395D01*
X129988187Y-114538200D01*
X129091813Y-114538200D01*
X128947690Y-114552395D01*
X128776000Y-114604476D01*
X128776000Y-113893924D01*
X128947690Y-113946005D01*
X129091813Y-113960200D01*
X129805409Y-113960200D01*
X130426227Y-114581019D01*
X130442072Y-114600326D01*
X130519120Y-114663558D01*
X130607024Y-114710544D01*
X130680206Y-114732743D01*
X130702405Y-114739477D01*
X130712293Y-114740451D01*
X130776745Y-114746799D01*
X130776752Y-114746799D01*
X130801598Y-114749246D01*
X130826444Y-114746799D01*
X134545870Y-114746799D01*
X134570716Y-114749246D01*
X134595562Y-114746799D01*
X134595570Y-114746799D01*
X134669909Y-114739477D01*
X134765291Y-114710544D01*
X134853195Y-114663558D01*
X134930243Y-114600326D01*
X134946092Y-114581014D01*
X138778706Y-110748401D01*
X141249636Y-110748401D01*
X142932034Y-112430799D01*
G36*
X141177210Y-109736401D02*
G01*
X138593968Y-109736401D01*
X138569114Y-109733953D01*
X138544260Y-109736401D01*
X138469921Y-109743723D01*
X138396350Y-109766040D01*
X138944390Y-109218000D01*
X140658809Y-109218000D01*
X141177210Y-109736401D01*
G37*
X141177210Y-109736401D02*
X138593968Y-109736401D01*
X138569114Y-109733953D01*
X138544260Y-109736401D01*
X138469921Y-109743723D01*
X138396350Y-109766040D01*
X138944390Y-109218000D01*
X140658809Y-109218000D01*
X141177210Y-109736401D01*
G36*
X153720382Y-126226851D02*
G01*
X153842972Y-126376228D01*
X153992349Y-126498818D01*
X154162771Y-126589911D01*
X154347690Y-126646005D01*
X154434001Y-126654506D01*
X154434000Y-128702116D01*
X154431553Y-128726962D01*
X154434000Y-128751808D01*
X154434000Y-128751815D01*
X154441322Y-128826154D01*
X154470255Y-128921536D01*
X154517241Y-129009441D01*
X154580473Y-129086489D01*
X154599785Y-129102338D01*
X155949602Y-130452156D01*
X155949601Y-142800807D01*
X155519081Y-143231327D01*
X155529102Y-143212580D01*
X155565412Y-143092882D01*
X155577672Y-142968400D01*
X155574600Y-142754150D01*
X155415850Y-142595400D01*
X154316600Y-142595400D01*
X154316600Y-143444650D01*
X154475350Y-143603400D01*
X154939600Y-143606472D01*
X155064082Y-143594212D01*
X155183780Y-143557902D01*
X155202527Y-143547881D01*
X154730409Y-144020000D01*
X151556792Y-144020000D01*
X150612885Y-143076093D01*
X152810269Y-143057150D01*
X152813788Y-143092882D01*
X152850098Y-143212580D01*
X152909063Y-143322894D01*
X152988415Y-143419585D01*
X153085106Y-143498937D01*
X153195420Y-143557902D01*
X153315118Y-143594212D01*
X153439600Y-143606472D01*
X153903850Y-143603400D01*
X154062600Y-143444650D01*
X154062600Y-142595400D01*
X154042600Y-142595400D01*
X154042600Y-142341400D01*
X154062600Y-142341400D01*
X154062600Y-141492150D01*
X154316600Y-141492150D01*
X154316600Y-142341400D01*
X155415850Y-142341400D01*
X155574600Y-142182650D01*
X155577672Y-141968400D01*
X155565412Y-141843918D01*
X155529102Y-141724220D01*
X155470137Y-141613906D01*
X155390785Y-141517215D01*
X155294094Y-141437863D01*
X155183780Y-141378898D01*
X155064082Y-141342588D01*
X154939600Y-141330328D01*
X154475350Y-141333400D01*
X154316600Y-141492150D01*
X154062600Y-141492150D01*
X153958372Y-141387922D01*
X154029527Y-141329527D01*
X154045376Y-141310215D01*
X154529820Y-140825772D01*
X154549127Y-140809927D01*
X154612359Y-140732879D01*
X154659345Y-140644975D01*
X154688278Y-140549593D01*
X154695600Y-140475254D01*
X154695600Y-140475247D01*
X154698047Y-140450401D01*
X154695600Y-140425555D01*
X154695600Y-140151243D01*
X154939600Y-140151243D01*
X155014289Y-140143887D01*
X155086108Y-140122101D01*
X155152296Y-140086722D01*
X155210311Y-140039111D01*
X155257922Y-139981096D01*
X155293301Y-139914908D01*
X155315087Y-139843089D01*
X155322443Y-139768400D01*
X155322443Y-138768400D01*
X155315087Y-138693711D01*
X155293301Y-138621892D01*
X155257922Y-138555704D01*
X155210311Y-138497689D01*
X155152296Y-138450078D01*
X155086108Y-138414699D01*
X155014289Y-138392913D01*
X154939600Y-138385557D01*
X154022349Y-138385557D01*
X152906000Y-137269209D01*
X152906000Y-126654506D01*
X152992310Y-126646005D01*
X153177229Y-126589911D01*
X153347651Y-126498818D01*
X153497028Y-126376228D01*
X153619618Y-126226851D01*
X153670000Y-126132593D01*
X153720382Y-126226851D01*
G37*
X153720382Y-126226851D02*
X153842972Y-126376228D01*
X153992349Y-126498818D01*
X154162771Y-126589911D01*
X154347690Y-126646005D01*
X154434001Y-126654506D01*
X154434000Y-128702116D01*
X154431553Y-128726962D01*
X154434000Y-128751808D01*
X154434000Y-128751815D01*
X154441322Y-128826154D01*
X154470255Y-128921536D01*
X154517241Y-129009441D01*
X154580473Y-129086489D01*
X154599785Y-129102338D01*
X155949602Y-130452156D01*
X155949601Y-142800807D01*
X155519081Y-143231327D01*
X155529102Y-143212580D01*
X155565412Y-143092882D01*
X155577672Y-142968400D01*
X155574600Y-142754150D01*
X155415850Y-142595400D01*
X154316600Y-142595400D01*
X154316600Y-143444650D01*
X154475350Y-143603400D01*
X154939600Y-143606472D01*
X155064082Y-143594212D01*
X155183780Y-143557902D01*
X155202527Y-143547881D01*
X154730409Y-144020000D01*
X151556792Y-144020000D01*
X150612885Y-143076093D01*
X152810269Y-143057150D01*
X152813788Y-143092882D01*
X152850098Y-143212580D01*
X152909063Y-143322894D01*
X152988415Y-143419585D01*
X153085106Y-143498937D01*
X153195420Y-143557902D01*
X153315118Y-143594212D01*
X153439600Y-143606472D01*
X153903850Y-143603400D01*
X154062600Y-143444650D01*
X154062600Y-142595400D01*
X154042600Y-142595400D01*
X154042600Y-142341400D01*
X154062600Y-142341400D01*
X154062600Y-141492150D01*
X154316600Y-141492150D01*
X154316600Y-142341400D01*
X155415850Y-142341400D01*
X155574600Y-142182650D01*
X155577672Y-141968400D01*
X155565412Y-141843918D01*
X155529102Y-141724220D01*
X155470137Y-141613906D01*
X155390785Y-141517215D01*
X155294094Y-141437863D01*
X155183780Y-141378898D01*
X155064082Y-141342588D01*
X154939600Y-141330328D01*
X154475350Y-141333400D01*
X154316600Y-141492150D01*
X154062600Y-141492150D01*
X153958372Y-141387922D01*
X154029527Y-141329527D01*
X154045376Y-141310215D01*
X154529820Y-140825772D01*
X154549127Y-140809927D01*
X154612359Y-140732879D01*
X154659345Y-140644975D01*
X154688278Y-140549593D01*
X154695600Y-140475254D01*
X154695600Y-140475247D01*
X154698047Y-140450401D01*
X154695600Y-140425555D01*
X154695600Y-140151243D01*
X154939600Y-140151243D01*
X155014289Y-140143887D01*
X155086108Y-140122101D01*
X155152296Y-140086722D01*
X155210311Y-140039111D01*
X155257922Y-139981096D01*
X155293301Y-139914908D01*
X155315087Y-139843089D01*
X155322443Y-139768400D01*
X155322443Y-138768400D01*
X155315087Y-138693711D01*
X155293301Y-138621892D01*
X155257922Y-138555704D01*
X155210311Y-138497689D01*
X155152296Y-138450078D01*
X155086108Y-138414699D01*
X155014289Y-138392913D01*
X154939600Y-138385557D01*
X154022349Y-138385557D01*
X152906000Y-137269209D01*
X152906000Y-126654506D01*
X152992310Y-126646005D01*
X153177229Y-126589911D01*
X153347651Y-126498818D01*
X153497028Y-126376228D01*
X153619618Y-126226851D01*
X153670000Y-126132593D01*
X153720382Y-126226851D01*
%TD*%
M02*
