%TF.GenerationSoftware,KiCad,Pcbnew,(5.1.6-0-10_14)*%
%TF.CreationDate,2020-08-20T11:34:32+02:00*%
%TF.ProjectId,USBCWrover,55534243-5772-46f7-9665-722e6b696361,rev?*%
%TF.SameCoordinates,Original*%
%TF.FileFunction,Soldermask,Bot*%
%TF.FilePolarity,Negative*%
%FSLAX46Y46*%
G04 Gerber Fmt 4.6, Leading zero omitted, Abs format (unit mm)*
G04 Created by KiCad (PCBNEW (5.1.6-0-10_14)) date 2020-08-20 11:34:32*
%MOMM*%
%LPD*%
G01*
G04 APERTURE LIST*
%ADD10O,1.800000X1.800000*%
%ADD11R,1.800000X1.800000*%
%ADD12O,1.100000X2.200000*%
%ADD13C,0.750000*%
%ADD14O,1.100000X1.700000*%
G04 APERTURE END LIST*
D10*
%TO.C,J3*%
X127000000Y-129540000D03*
X129540000Y-129540000D03*
X127000000Y-127000000D03*
X129540000Y-127000000D03*
X127000000Y-124460000D03*
X129540000Y-124460000D03*
X127000000Y-121920000D03*
X129540000Y-121920000D03*
X127000000Y-119380000D03*
X129540000Y-119380000D03*
X127000000Y-116840000D03*
X129540000Y-116840000D03*
X127000000Y-114300000D03*
X129540000Y-114300000D03*
X127000000Y-111760000D03*
X129540000Y-111760000D03*
X127000000Y-109220000D03*
X129540000Y-109220000D03*
X127000000Y-106680000D03*
D11*
X129540000Y-106680000D03*
%TD*%
D10*
%TO.C,J2*%
X152400000Y-129540000D03*
X154940000Y-129540000D03*
X152400000Y-127000000D03*
X154940000Y-127000000D03*
X152400000Y-124460000D03*
X154940000Y-124460000D03*
X152400000Y-121920000D03*
X154940000Y-121920000D03*
X152400000Y-119380000D03*
X154940000Y-119380000D03*
X152400000Y-116840000D03*
X154940000Y-116840000D03*
X152400000Y-114300000D03*
X154940000Y-114300000D03*
X152400000Y-111760000D03*
X154940000Y-111760000D03*
X152400000Y-109220000D03*
X154940000Y-109220000D03*
X152400000Y-106680000D03*
D11*
X154940000Y-106680000D03*
%TD*%
D12*
%TO.C,J1*%
X145290000Y-141142000D03*
X136650000Y-141142000D03*
D13*
X138080000Y-141672000D03*
D14*
X136650000Y-145322000D03*
D13*
X143860000Y-141672000D03*
D14*
X145290000Y-145322000D03*
%TD*%
M02*
