%TF.GenerationSoftware,KiCad,Pcbnew,(5.1.6-0-10_14)*%
%TF.CreationDate,2020-09-06T23:56:44+02:00*%
%TF.ProjectId,USBCWrover,55534243-5772-46f7-9665-722e6b696361,rev?*%
%TF.SameCoordinates,Original*%
%TF.FileFunction,Profile,NP*%
%FSLAX46Y46*%
G04 Gerber Fmt 4.6, Leading zero omitted, Abs format (unit mm)*
G04 Created by KiCad (PCBNEW (5.1.6-0-10_14)) date 2020-09-06 23:56:44*
%MOMM*%
%LPD*%
G01*
G04 APERTURE LIST*
%TA.AperFunction,Profile*%
%ADD10C,0.100000*%
%TD*%
G04 APERTURE END LIST*
D10*
X124909462Y-144779717D02*
X124909462Y-99321738D01*
X127152400Y-147022655D02*
X127041179Y-147019898D01*
X127041179Y-147019898D02*
X126930713Y-147011679D01*
X126930713Y-147011679D02*
X126821185Y-146998074D01*
X126821185Y-146998074D02*
X126712781Y-146979159D01*
X126712781Y-146979159D02*
X126605682Y-146955010D01*
X126605682Y-146955010D02*
X126500074Y-146925703D01*
X126500074Y-146925703D02*
X126396140Y-146891315D01*
X126396140Y-146891315D02*
X126294064Y-146851921D01*
X126294064Y-146851921D02*
X126194030Y-146807598D01*
X126194030Y-146807598D02*
X126096221Y-146758422D01*
X126096221Y-146758422D02*
X126000822Y-146704469D01*
X126000822Y-146704469D02*
X125908016Y-146645815D01*
X125908016Y-146645815D02*
X125817988Y-146582536D01*
X125817988Y-146582536D02*
X125730920Y-146514709D01*
X125730920Y-146514709D02*
X125646997Y-146442409D01*
X125646997Y-146442409D02*
X125566403Y-146365714D01*
X154610377Y-147022655D02*
X127152400Y-147022655D01*
X156853315Y-99321738D02*
X156853315Y-144779717D01*
X125566403Y-97735741D02*
X125646997Y-97659045D01*
X125646997Y-97659045D02*
X125730920Y-97586745D01*
X125730920Y-97586745D02*
X125817988Y-97518918D01*
X125817988Y-97518918D02*
X125908016Y-97455639D01*
X125908016Y-97455639D02*
X126000822Y-97396985D01*
X126000822Y-97396985D02*
X126096221Y-97343032D01*
X126096221Y-97343032D02*
X126194030Y-97293856D01*
X126194030Y-97293856D02*
X126294064Y-97249533D01*
X126294064Y-97249533D02*
X126396140Y-97210139D01*
X126396140Y-97210139D02*
X126500074Y-97175751D01*
X126500074Y-97175751D02*
X126605682Y-97146444D01*
X126605682Y-97146444D02*
X126712781Y-97122295D01*
X126712781Y-97122295D02*
X126821185Y-97103380D01*
X126821185Y-97103380D02*
X126930713Y-97089775D01*
X126930713Y-97089775D02*
X127041179Y-97081556D01*
X127041179Y-97081556D02*
X127152400Y-97078800D01*
X156853315Y-144779717D02*
X156850558Y-144890937D01*
X156850558Y-144890937D02*
X156842339Y-145001403D01*
X156842339Y-145001403D02*
X156828734Y-145110931D01*
X156828734Y-145110931D02*
X156809819Y-145219335D01*
X156809819Y-145219335D02*
X156785670Y-145326434D01*
X156785670Y-145326434D02*
X156756363Y-145432042D01*
X156756363Y-145432042D02*
X156721975Y-145535976D01*
X156721975Y-145535976D02*
X156682581Y-145638052D01*
X156682581Y-145638052D02*
X156638258Y-145738086D01*
X156638258Y-145738086D02*
X156589082Y-145835895D01*
X156589082Y-145835895D02*
X156535129Y-145931294D01*
X156535129Y-145931294D02*
X156476475Y-146024100D01*
X156476475Y-146024100D02*
X156413196Y-146114128D01*
X156413196Y-146114128D02*
X156345369Y-146201196D01*
X156345369Y-146201196D02*
X156273069Y-146285119D01*
X156273069Y-146285119D02*
X156196374Y-146365714D01*
X156196374Y-97735741D02*
X156273069Y-97816335D01*
X156273069Y-97816335D02*
X156345369Y-97900258D01*
X156345369Y-97900258D02*
X156413196Y-97987326D01*
X156413196Y-97987326D02*
X156476475Y-98077354D01*
X156476475Y-98077354D02*
X156535129Y-98170160D01*
X156535129Y-98170160D02*
X156589082Y-98265559D01*
X156589082Y-98265559D02*
X156638258Y-98363368D01*
X156638258Y-98363368D02*
X156682581Y-98463402D01*
X156682581Y-98463402D02*
X156721975Y-98565478D01*
X156721975Y-98565478D02*
X156756363Y-98669412D01*
X156756363Y-98669412D02*
X156785670Y-98775020D01*
X156785670Y-98775020D02*
X156809819Y-98882119D01*
X156809819Y-98882119D02*
X156828734Y-98990523D01*
X156828734Y-98990523D02*
X156842339Y-99100051D01*
X156842339Y-99100051D02*
X156850558Y-99210517D01*
X156850558Y-99210517D02*
X156853315Y-99321738D01*
X124909462Y-99321738D02*
X124912218Y-99210517D01*
X124912218Y-99210517D02*
X124920437Y-99100051D01*
X124920437Y-99100051D02*
X124934042Y-98990523D01*
X124934042Y-98990523D02*
X124952957Y-98882119D01*
X124952957Y-98882119D02*
X124977106Y-98775020D01*
X124977106Y-98775020D02*
X125006413Y-98669412D01*
X125006413Y-98669412D02*
X125040801Y-98565478D01*
X125040801Y-98565478D02*
X125080195Y-98463402D01*
X125080195Y-98463402D02*
X125124518Y-98363368D01*
X125124518Y-98363368D02*
X125173694Y-98265559D01*
X125173694Y-98265559D02*
X125227647Y-98170160D01*
X125227647Y-98170160D02*
X125286301Y-98077354D01*
X125286301Y-98077354D02*
X125349580Y-97987326D01*
X125349580Y-97987326D02*
X125417407Y-97900258D01*
X125417407Y-97900258D02*
X125489707Y-97816335D01*
X125489707Y-97816335D02*
X125566403Y-97735741D01*
X154610377Y-97078800D02*
X154721597Y-97081556D01*
X154721597Y-97081556D02*
X154832063Y-97089775D01*
X154832063Y-97089775D02*
X154941591Y-97103380D01*
X154941591Y-97103380D02*
X155049995Y-97122295D01*
X155049995Y-97122295D02*
X155157094Y-97146444D01*
X155157094Y-97146444D02*
X155262702Y-97175751D01*
X155262702Y-97175751D02*
X155366636Y-97210139D01*
X155366636Y-97210139D02*
X155468712Y-97249533D01*
X155468712Y-97249533D02*
X155568746Y-97293856D01*
X155568746Y-97293856D02*
X155666555Y-97343032D01*
X155666555Y-97343032D02*
X155761954Y-97396985D01*
X155761954Y-97396985D02*
X155854760Y-97455639D01*
X155854760Y-97455639D02*
X155944788Y-97518918D01*
X155944788Y-97518918D02*
X156031856Y-97586745D01*
X156031856Y-97586745D02*
X156115779Y-97659045D01*
X156115779Y-97659045D02*
X156196374Y-97735741D01*
X125566403Y-146365714D02*
X125489707Y-146285119D01*
X125489707Y-146285119D02*
X125417407Y-146201196D01*
X125417407Y-146201196D02*
X125349580Y-146114128D01*
X125349580Y-146114128D02*
X125286301Y-146024100D01*
X125286301Y-146024100D02*
X125227647Y-145931294D01*
X125227647Y-145931294D02*
X125173694Y-145835895D01*
X125173694Y-145835895D02*
X125124518Y-145738086D01*
X125124518Y-145738086D02*
X125080195Y-145638052D01*
X125080195Y-145638052D02*
X125040801Y-145535976D01*
X125040801Y-145535976D02*
X125006413Y-145432042D01*
X125006413Y-145432042D02*
X124977106Y-145326434D01*
X124977106Y-145326434D02*
X124952957Y-145219335D01*
X124952957Y-145219335D02*
X124934042Y-145110931D01*
X124934042Y-145110931D02*
X124920437Y-145001403D01*
X124920437Y-145001403D02*
X124912218Y-144890937D01*
X124912218Y-144890937D02*
X124909462Y-144779717D01*
X127152400Y-97078800D02*
X127152400Y-97078800D01*
X156196374Y-146365714D02*
X156115779Y-146442409D01*
X156115779Y-146442409D02*
X156031856Y-146514709D01*
X156031856Y-146514709D02*
X155944788Y-146582536D01*
X155944788Y-146582536D02*
X155854760Y-146645815D01*
X155854760Y-146645815D02*
X155761954Y-146704469D01*
X155761954Y-146704469D02*
X155666555Y-146758422D01*
X155666555Y-146758422D02*
X155568746Y-146807598D01*
X155568746Y-146807598D02*
X155468712Y-146851921D01*
X155468712Y-146851921D02*
X155366636Y-146891315D01*
X155366636Y-146891315D02*
X155262702Y-146925703D01*
X155262702Y-146925703D02*
X155157094Y-146955010D01*
X155157094Y-146955010D02*
X155049995Y-146979159D01*
X155049995Y-146979159D02*
X154941591Y-146998074D01*
X154941591Y-146998074D02*
X154832063Y-147011679D01*
X154832063Y-147011679D02*
X154721597Y-147019898D01*
X154721597Y-147019898D02*
X154610377Y-147022655D01*
X127152400Y-97078800D02*
X154610377Y-97078800D01*
M02*
