%TF.GenerationSoftware,KiCad,Pcbnew,(5.1.6-0-10_14)*%
%TF.CreationDate,2020-08-20T18:16:30+02:00*%
%TF.ProjectId,USBCWrover,55534243-5772-46f7-9665-722e6b696361,rev?*%
%TF.SameCoordinates,Original*%
%TF.FileFunction,Soldermask,Top*%
%TF.FilePolarity,Negative*%
%FSLAX46Y46*%
G04 Gerber Fmt 4.6, Leading zero omitted, Abs format (unit mm)*
G04 Created by KiCad (PCBNEW (5.1.6-0-10_14)) date 2020-08-20 18:16:30*
%MOMM*%
%LPD*%
G01*
G04 APERTURE LIST*
%ADD10R,1.650000X1.400000*%
%ADD11R,0.700000X1.550000*%
%ADD12R,0.400000X1.550000*%
%ADD13O,1.100000X2.200000*%
%ADD14C,0.750000*%
%ADD15O,1.100000X1.700000*%
%ADD16O,1.800000X1.800000*%
%ADD17C,1.800000*%
%ADD18R,1.160000X0.750000*%
%ADD19R,0.800000X0.610000*%
%ADD20R,2.700000X2.700000*%
G04 APERTURE END LIST*
D10*
%TO.C,SW1*%
X134531000Y-143093000D03*
X134531000Y-138593000D03*
X126581000Y-138593000D03*
X126581000Y-143093000D03*
%TD*%
D11*
%TO.C,J1*%
X144347000Y-138449000D03*
X143547000Y-138449000D03*
X138647000Y-138449000D03*
X137847000Y-138449000D03*
X137847000Y-138449000D03*
X138647000Y-138449000D03*
X143547000Y-138449000D03*
X144347000Y-138449000D03*
D12*
X139347000Y-138449000D03*
X139847000Y-138449000D03*
X140347000Y-138449000D03*
X141347000Y-138449000D03*
X141847000Y-138449000D03*
X142347000Y-138449000D03*
X142847000Y-138449000D03*
X140847000Y-138449000D03*
D13*
X145417000Y-139364000D03*
X136777000Y-139364000D03*
D14*
X138207000Y-139894000D03*
D15*
X136777000Y-143544000D03*
D14*
X143987000Y-139894000D03*
D15*
X145417000Y-143544000D03*
%TD*%
%TO.C,U4*%
G36*
G01*
X130932400Y-106269600D02*
X130932400Y-105769600D01*
G75*
G02*
X131182400Y-105519600I250000J0D01*
G01*
X132782400Y-105519600D01*
G75*
G02*
X133032400Y-105769600I0J-250000D01*
G01*
X133032400Y-106269600D01*
G75*
G02*
X132782400Y-106519600I-250000J0D01*
G01*
X131182400Y-106519600D01*
G75*
G02*
X130932400Y-106269600I0J250000D01*
G01*
G37*
G36*
G01*
X130932400Y-107539600D02*
X130932400Y-107039600D01*
G75*
G02*
X131182400Y-106789600I250000J0D01*
G01*
X132782400Y-106789600D01*
G75*
G02*
X133032400Y-107039600I0J-250000D01*
G01*
X133032400Y-107539600D01*
G75*
G02*
X132782400Y-107789600I-250000J0D01*
G01*
X131182400Y-107789600D01*
G75*
G02*
X130932400Y-107539600I0J250000D01*
G01*
G37*
G36*
G01*
X130932400Y-108809600D02*
X130932400Y-108309600D01*
G75*
G02*
X131182400Y-108059600I250000J0D01*
G01*
X132782400Y-108059600D01*
G75*
G02*
X133032400Y-108309600I0J-250000D01*
G01*
X133032400Y-108809600D01*
G75*
G02*
X132782400Y-109059600I-250000J0D01*
G01*
X131182400Y-109059600D01*
G75*
G02*
X130932400Y-108809600I0J250000D01*
G01*
G37*
G36*
G01*
X130932400Y-110079600D02*
X130932400Y-109579600D01*
G75*
G02*
X131182400Y-109329600I250000J0D01*
G01*
X132782400Y-109329600D01*
G75*
G02*
X133032400Y-109579600I0J-250000D01*
G01*
X133032400Y-110079600D01*
G75*
G02*
X132782400Y-110329600I-250000J0D01*
G01*
X131182400Y-110329600D01*
G75*
G02*
X130932400Y-110079600I0J250000D01*
G01*
G37*
G36*
G01*
X130932400Y-111349600D02*
X130932400Y-110849600D01*
G75*
G02*
X131182400Y-110599600I250000J0D01*
G01*
X132782400Y-110599600D01*
G75*
G02*
X133032400Y-110849600I0J-250000D01*
G01*
X133032400Y-111349600D01*
G75*
G02*
X132782400Y-111599600I-250000J0D01*
G01*
X131182400Y-111599600D01*
G75*
G02*
X130932400Y-111349600I0J250000D01*
G01*
G37*
G36*
G01*
X130932400Y-112619600D02*
X130932400Y-112119600D01*
G75*
G02*
X131182400Y-111869600I250000J0D01*
G01*
X132782400Y-111869600D01*
G75*
G02*
X133032400Y-112119600I0J-250000D01*
G01*
X133032400Y-112619600D01*
G75*
G02*
X132782400Y-112869600I-250000J0D01*
G01*
X131182400Y-112869600D01*
G75*
G02*
X130932400Y-112619600I0J250000D01*
G01*
G37*
G36*
G01*
X130932400Y-113889600D02*
X130932400Y-113389600D01*
G75*
G02*
X131182400Y-113139600I250000J0D01*
G01*
X132782400Y-113139600D01*
G75*
G02*
X133032400Y-113389600I0J-250000D01*
G01*
X133032400Y-113889600D01*
G75*
G02*
X132782400Y-114139600I-250000J0D01*
G01*
X131182400Y-114139600D01*
G75*
G02*
X130932400Y-113889600I0J250000D01*
G01*
G37*
G36*
G01*
X130932400Y-115159600D02*
X130932400Y-114659600D01*
G75*
G02*
X131182400Y-114409600I250000J0D01*
G01*
X132782400Y-114409600D01*
G75*
G02*
X133032400Y-114659600I0J-250000D01*
G01*
X133032400Y-115159600D01*
G75*
G02*
X132782400Y-115409600I-250000J0D01*
G01*
X131182400Y-115409600D01*
G75*
G02*
X130932400Y-115159600I0J250000D01*
G01*
G37*
G36*
G01*
X130932400Y-116429600D02*
X130932400Y-115929600D01*
G75*
G02*
X131182400Y-115679600I250000J0D01*
G01*
X132782400Y-115679600D01*
G75*
G02*
X133032400Y-115929600I0J-250000D01*
G01*
X133032400Y-116429600D01*
G75*
G02*
X132782400Y-116679600I-250000J0D01*
G01*
X131182400Y-116679600D01*
G75*
G02*
X130932400Y-116429600I0J250000D01*
G01*
G37*
G36*
G01*
X130932400Y-117699600D02*
X130932400Y-117199600D01*
G75*
G02*
X131182400Y-116949600I250000J0D01*
G01*
X132782400Y-116949600D01*
G75*
G02*
X133032400Y-117199600I0J-250000D01*
G01*
X133032400Y-117699600D01*
G75*
G02*
X132782400Y-117949600I-250000J0D01*
G01*
X131182400Y-117949600D01*
G75*
G02*
X130932400Y-117699600I0J250000D01*
G01*
G37*
G36*
G01*
X130932400Y-118969600D02*
X130932400Y-118469600D01*
G75*
G02*
X131182400Y-118219600I250000J0D01*
G01*
X132782400Y-118219600D01*
G75*
G02*
X133032400Y-118469600I0J-250000D01*
G01*
X133032400Y-118969600D01*
G75*
G02*
X132782400Y-119219600I-250000J0D01*
G01*
X131182400Y-119219600D01*
G75*
G02*
X130932400Y-118969600I0J250000D01*
G01*
G37*
G36*
G01*
X130932400Y-120239600D02*
X130932400Y-119739600D01*
G75*
G02*
X131182400Y-119489600I250000J0D01*
G01*
X132782400Y-119489600D01*
G75*
G02*
X133032400Y-119739600I0J-250000D01*
G01*
X133032400Y-120239600D01*
G75*
G02*
X132782400Y-120489600I-250000J0D01*
G01*
X131182400Y-120489600D01*
G75*
G02*
X130932400Y-120239600I0J250000D01*
G01*
G37*
G36*
G01*
X130932400Y-121509600D02*
X130932400Y-121009600D01*
G75*
G02*
X131182400Y-120759600I250000J0D01*
G01*
X132782400Y-120759600D01*
G75*
G02*
X133032400Y-121009600I0J-250000D01*
G01*
X133032400Y-121509600D01*
G75*
G02*
X132782400Y-121759600I-250000J0D01*
G01*
X131182400Y-121759600D01*
G75*
G02*
X130932400Y-121509600I0J250000D01*
G01*
G37*
G36*
G01*
X130932400Y-122779600D02*
X130932400Y-122279600D01*
G75*
G02*
X131182400Y-122029600I250000J0D01*
G01*
X132782400Y-122029600D01*
G75*
G02*
X133032400Y-122279600I0J-250000D01*
G01*
X133032400Y-122779600D01*
G75*
G02*
X132782400Y-123029600I-250000J0D01*
G01*
X131182400Y-123029600D01*
G75*
G02*
X130932400Y-122779600I0J250000D01*
G01*
G37*
G36*
G01*
X130932400Y-124079600D02*
X130932400Y-123579600D01*
G75*
G02*
X131182400Y-123329600I250000J0D01*
G01*
X132782400Y-123329600D01*
G75*
G02*
X133032400Y-123579600I0J-250000D01*
G01*
X133032400Y-124079600D01*
G75*
G02*
X132782400Y-124329600I-250000J0D01*
G01*
X131182400Y-124329600D01*
G75*
G02*
X130932400Y-124079600I0J250000D01*
G01*
G37*
G36*
G01*
X130932400Y-125349600D02*
X130932400Y-124849600D01*
G75*
G02*
X131182400Y-124599600I250000J0D01*
G01*
X132782400Y-124599600D01*
G75*
G02*
X133032400Y-124849600I0J-250000D01*
G01*
X133032400Y-125349600D01*
G75*
G02*
X132782400Y-125599600I-250000J0D01*
G01*
X131182400Y-125599600D01*
G75*
G02*
X130932400Y-125349600I0J250000D01*
G01*
G37*
G36*
G01*
X130932400Y-126619600D02*
X130932400Y-126119600D01*
G75*
G02*
X131182400Y-125869600I250000J0D01*
G01*
X132782400Y-125869600D01*
G75*
G02*
X133032400Y-126119600I0J-250000D01*
G01*
X133032400Y-126619600D01*
G75*
G02*
X132782400Y-126869600I-250000J0D01*
G01*
X131182400Y-126869600D01*
G75*
G02*
X130932400Y-126619600I0J250000D01*
G01*
G37*
G36*
G01*
X130932400Y-127889600D02*
X130932400Y-127389600D01*
G75*
G02*
X131182400Y-127139600I250000J0D01*
G01*
X132782400Y-127139600D01*
G75*
G02*
X133032400Y-127389600I0J-250000D01*
G01*
X133032400Y-127889600D01*
G75*
G02*
X132782400Y-128139600I-250000J0D01*
G01*
X131182400Y-128139600D01*
G75*
G02*
X130932400Y-127889600I0J250000D01*
G01*
G37*
G36*
G01*
X130932400Y-129159600D02*
X130932400Y-128659600D01*
G75*
G02*
X131182400Y-128409600I250000J0D01*
G01*
X132782400Y-128409600D01*
G75*
G02*
X133032400Y-128659600I0J-250000D01*
G01*
X133032400Y-129159600D01*
G75*
G02*
X132782400Y-129409600I-250000J0D01*
G01*
X131182400Y-129409600D01*
G75*
G02*
X130932400Y-129159600I0J250000D01*
G01*
G37*
G36*
G01*
X148932400Y-129159600D02*
X148932400Y-128659600D01*
G75*
G02*
X149182400Y-128409600I250000J0D01*
G01*
X150782400Y-128409600D01*
G75*
G02*
X151032400Y-128659600I0J-250000D01*
G01*
X151032400Y-129159600D01*
G75*
G02*
X150782400Y-129409600I-250000J0D01*
G01*
X149182400Y-129409600D01*
G75*
G02*
X148932400Y-129159600I0J250000D01*
G01*
G37*
G36*
G01*
X148932400Y-127889600D02*
X148932400Y-127389600D01*
G75*
G02*
X149182400Y-127139600I250000J0D01*
G01*
X150782400Y-127139600D01*
G75*
G02*
X151032400Y-127389600I0J-250000D01*
G01*
X151032400Y-127889600D01*
G75*
G02*
X150782400Y-128139600I-250000J0D01*
G01*
X149182400Y-128139600D01*
G75*
G02*
X148932400Y-127889600I0J250000D01*
G01*
G37*
G36*
G01*
X148932400Y-126619600D02*
X148932400Y-126119600D01*
G75*
G02*
X149182400Y-125869600I250000J0D01*
G01*
X150782400Y-125869600D01*
G75*
G02*
X151032400Y-126119600I0J-250000D01*
G01*
X151032400Y-126619600D01*
G75*
G02*
X150782400Y-126869600I-250000J0D01*
G01*
X149182400Y-126869600D01*
G75*
G02*
X148932400Y-126619600I0J250000D01*
G01*
G37*
G36*
G01*
X148932400Y-125349600D02*
X148932400Y-124849600D01*
G75*
G02*
X149182400Y-124599600I250000J0D01*
G01*
X150782400Y-124599600D01*
G75*
G02*
X151032400Y-124849600I0J-250000D01*
G01*
X151032400Y-125349600D01*
G75*
G02*
X150782400Y-125599600I-250000J0D01*
G01*
X149182400Y-125599600D01*
G75*
G02*
X148932400Y-125349600I0J250000D01*
G01*
G37*
G36*
G01*
X148932400Y-124079600D02*
X148932400Y-123579600D01*
G75*
G02*
X149182400Y-123329600I250000J0D01*
G01*
X150782400Y-123329600D01*
G75*
G02*
X151032400Y-123579600I0J-250000D01*
G01*
X151032400Y-124079600D01*
G75*
G02*
X150782400Y-124329600I-250000J0D01*
G01*
X149182400Y-124329600D01*
G75*
G02*
X148932400Y-124079600I0J250000D01*
G01*
G37*
G36*
G01*
X148962400Y-122779600D02*
X148962400Y-122279600D01*
G75*
G02*
X149212400Y-122029600I250000J0D01*
G01*
X150812400Y-122029600D01*
G75*
G02*
X151062400Y-122279600I0J-250000D01*
G01*
X151062400Y-122779600D01*
G75*
G02*
X150812400Y-123029600I-250000J0D01*
G01*
X149212400Y-123029600D01*
G75*
G02*
X148962400Y-122779600I0J250000D01*
G01*
G37*
G36*
G01*
X148962400Y-121509600D02*
X148962400Y-121009600D01*
G75*
G02*
X149212400Y-120759600I250000J0D01*
G01*
X150812400Y-120759600D01*
G75*
G02*
X151062400Y-121009600I0J-250000D01*
G01*
X151062400Y-121509600D01*
G75*
G02*
X150812400Y-121759600I-250000J0D01*
G01*
X149212400Y-121759600D01*
G75*
G02*
X148962400Y-121509600I0J250000D01*
G01*
G37*
G36*
G01*
X148962400Y-120239600D02*
X148962400Y-119739600D01*
G75*
G02*
X149212400Y-119489600I250000J0D01*
G01*
X150812400Y-119489600D01*
G75*
G02*
X151062400Y-119739600I0J-250000D01*
G01*
X151062400Y-120239600D01*
G75*
G02*
X150812400Y-120489600I-250000J0D01*
G01*
X149212400Y-120489600D01*
G75*
G02*
X148962400Y-120239600I0J250000D01*
G01*
G37*
G36*
G01*
X148962400Y-118969600D02*
X148962400Y-118469600D01*
G75*
G02*
X149212400Y-118219600I250000J0D01*
G01*
X150812400Y-118219600D01*
G75*
G02*
X151062400Y-118469600I0J-250000D01*
G01*
X151062400Y-118969600D01*
G75*
G02*
X150812400Y-119219600I-250000J0D01*
G01*
X149212400Y-119219600D01*
G75*
G02*
X148962400Y-118969600I0J250000D01*
G01*
G37*
G36*
G01*
X148962400Y-117699600D02*
X148962400Y-117199600D01*
G75*
G02*
X149212400Y-116949600I250000J0D01*
G01*
X150812400Y-116949600D01*
G75*
G02*
X151062400Y-117199600I0J-250000D01*
G01*
X151062400Y-117699600D01*
G75*
G02*
X150812400Y-117949600I-250000J0D01*
G01*
X149212400Y-117949600D01*
G75*
G02*
X148962400Y-117699600I0J250000D01*
G01*
G37*
G36*
G01*
X148962400Y-116429600D02*
X148962400Y-115929600D01*
G75*
G02*
X149212400Y-115679600I250000J0D01*
G01*
X150812400Y-115679600D01*
G75*
G02*
X151062400Y-115929600I0J-250000D01*
G01*
X151062400Y-116429600D01*
G75*
G02*
X150812400Y-116679600I-250000J0D01*
G01*
X149212400Y-116679600D01*
G75*
G02*
X148962400Y-116429600I0J250000D01*
G01*
G37*
G36*
G01*
X148962400Y-115159600D02*
X148962400Y-114659600D01*
G75*
G02*
X149212400Y-114409600I250000J0D01*
G01*
X150812400Y-114409600D01*
G75*
G02*
X151062400Y-114659600I0J-250000D01*
G01*
X151062400Y-115159600D01*
G75*
G02*
X150812400Y-115409600I-250000J0D01*
G01*
X149212400Y-115409600D01*
G75*
G02*
X148962400Y-115159600I0J250000D01*
G01*
G37*
G36*
G01*
X148962400Y-113889600D02*
X148962400Y-113389600D01*
G75*
G02*
X149212400Y-113139600I250000J0D01*
G01*
X150812400Y-113139600D01*
G75*
G02*
X151062400Y-113389600I0J-250000D01*
G01*
X151062400Y-113889600D01*
G75*
G02*
X150812400Y-114139600I-250000J0D01*
G01*
X149212400Y-114139600D01*
G75*
G02*
X148962400Y-113889600I0J250000D01*
G01*
G37*
G36*
G01*
X148962400Y-112619600D02*
X148962400Y-112119600D01*
G75*
G02*
X149212400Y-111869600I250000J0D01*
G01*
X150812400Y-111869600D01*
G75*
G02*
X151062400Y-112119600I0J-250000D01*
G01*
X151062400Y-112619600D01*
G75*
G02*
X150812400Y-112869600I-250000J0D01*
G01*
X149212400Y-112869600D01*
G75*
G02*
X148962400Y-112619600I0J250000D01*
G01*
G37*
G36*
G01*
X148962400Y-111349600D02*
X148962400Y-110849600D01*
G75*
G02*
X149212400Y-110599600I250000J0D01*
G01*
X150812400Y-110599600D01*
G75*
G02*
X151062400Y-110849600I0J-250000D01*
G01*
X151062400Y-111349600D01*
G75*
G02*
X150812400Y-111599600I-250000J0D01*
G01*
X149212400Y-111599600D01*
G75*
G02*
X148962400Y-111349600I0J250000D01*
G01*
G37*
G36*
G01*
X148962400Y-110079600D02*
X148962400Y-109579600D01*
G75*
G02*
X149212400Y-109329600I250000J0D01*
G01*
X150812400Y-109329600D01*
G75*
G02*
X151062400Y-109579600I0J-250000D01*
G01*
X151062400Y-110079600D01*
G75*
G02*
X150812400Y-110329600I-250000J0D01*
G01*
X149212400Y-110329600D01*
G75*
G02*
X148962400Y-110079600I0J250000D01*
G01*
G37*
G36*
G01*
X148962400Y-108809600D02*
X148962400Y-108309600D01*
G75*
G02*
X149212400Y-108059600I250000J0D01*
G01*
X150812400Y-108059600D01*
G75*
G02*
X151062400Y-108309600I0J-250000D01*
G01*
X151062400Y-108809600D01*
G75*
G02*
X150812400Y-109059600I-250000J0D01*
G01*
X149212400Y-109059600D01*
G75*
G02*
X148962400Y-108809600I0J250000D01*
G01*
G37*
G36*
G01*
X148962400Y-107539600D02*
X148962400Y-107039600D01*
G75*
G02*
X149212400Y-106789600I250000J0D01*
G01*
X150812400Y-106789600D01*
G75*
G02*
X151062400Y-107039600I0J-250000D01*
G01*
X151062400Y-107539600D01*
G75*
G02*
X150812400Y-107789600I-250000J0D01*
G01*
X149212400Y-107789600D01*
G75*
G02*
X148962400Y-107539600I0J250000D01*
G01*
G37*
G36*
G01*
X148962400Y-106269600D02*
X148962400Y-105769600D01*
G75*
G02*
X149212400Y-105519600I250000J0D01*
G01*
X150812400Y-105519600D01*
G75*
G02*
X151062400Y-105769600I0J-250000D01*
G01*
X151062400Y-106269600D01*
G75*
G02*
X150812400Y-106519600I-250000J0D01*
G01*
X149212400Y-106519600D01*
G75*
G02*
X148962400Y-106269600I0J250000D01*
G01*
G37*
%TD*%
D16*
%TO.C,J2*%
X152400000Y-129540000D03*
X154940000Y-129540000D03*
X152400000Y-127000000D03*
X154940000Y-127000000D03*
X152400000Y-124460000D03*
X154940000Y-124460000D03*
X152400000Y-121920000D03*
X154940000Y-121920000D03*
X152400000Y-119380000D03*
X154940000Y-119380000D03*
X152400000Y-116840000D03*
X154940000Y-116840000D03*
X152400000Y-114300000D03*
X154940000Y-114300000D03*
X152400000Y-111760000D03*
X154940000Y-111760000D03*
X152400000Y-109220000D03*
X154940000Y-109220000D03*
X152400000Y-106680000D03*
D17*
X154940000Y-106680000D03*
%TD*%
D16*
%TO.C,J3*%
X127000000Y-129540000D03*
X129540000Y-129540000D03*
X127000000Y-127000000D03*
X129540000Y-127000000D03*
X127000000Y-124460000D03*
X129540000Y-124460000D03*
X127000000Y-121920000D03*
X129540000Y-121920000D03*
X127000000Y-119380000D03*
X129540000Y-119380000D03*
X127000000Y-116840000D03*
X129540000Y-116840000D03*
X127000000Y-114300000D03*
X129540000Y-114300000D03*
X127000000Y-111760000D03*
X129540000Y-111760000D03*
X127000000Y-109220000D03*
X129540000Y-109220000D03*
X127000000Y-106680000D03*
D17*
X129540000Y-106680000D03*
%TD*%
D18*
%TO.C,U3*%
X149776000Y-134808000D03*
X149776000Y-132908000D03*
X151976000Y-132908000D03*
X151976000Y-133858000D03*
X151976000Y-134808000D03*
%TD*%
%TO.C,R2*%
G36*
G01*
X144480000Y-134846750D02*
X144480000Y-135409250D01*
G75*
G02*
X144236250Y-135653000I-243750J0D01*
G01*
X143748750Y-135653000D01*
G75*
G02*
X143505000Y-135409250I0J243750D01*
G01*
X143505000Y-134846750D01*
G75*
G02*
X143748750Y-134603000I243750J0D01*
G01*
X144236250Y-134603000D01*
G75*
G02*
X144480000Y-134846750I0J-243750D01*
G01*
G37*
G36*
G01*
X146055000Y-134846750D02*
X146055000Y-135409250D01*
G75*
G02*
X145811250Y-135653000I-243750J0D01*
G01*
X145323750Y-135653000D01*
G75*
G02*
X145080000Y-135409250I0J243750D01*
G01*
X145080000Y-134846750D01*
G75*
G02*
X145323750Y-134603000I243750J0D01*
G01*
X145811250Y-134603000D01*
G75*
G02*
X146055000Y-134846750I0J-243750D01*
G01*
G37*
%TD*%
D19*
%TO.C,U1*%
X130463000Y-132715000D03*
X130463000Y-133665000D03*
X130463000Y-134615000D03*
X128143000Y-134615000D03*
X128143000Y-133665000D03*
X128143000Y-132715000D03*
%TD*%
D20*
%TO.C,U2*%
X140339000Y-133890500D03*
G36*
G01*
X138776500Y-135315500D02*
X138026500Y-135315500D01*
G75*
G02*
X137939000Y-135228000I0J87500D01*
G01*
X137939000Y-135053000D01*
G75*
G02*
X138026500Y-134965500I87500J0D01*
G01*
X138776500Y-134965500D01*
G75*
G02*
X138864000Y-135053000I0J-87500D01*
G01*
X138864000Y-135228000D01*
G75*
G02*
X138776500Y-135315500I-87500J0D01*
G01*
G37*
G36*
G01*
X138776500Y-134815500D02*
X138026500Y-134815500D01*
G75*
G02*
X137939000Y-134728000I0J87500D01*
G01*
X137939000Y-134553000D01*
G75*
G02*
X138026500Y-134465500I87500J0D01*
G01*
X138776500Y-134465500D01*
G75*
G02*
X138864000Y-134553000I0J-87500D01*
G01*
X138864000Y-134728000D01*
G75*
G02*
X138776500Y-134815500I-87500J0D01*
G01*
G37*
G36*
G01*
X138776500Y-134315500D02*
X138026500Y-134315500D01*
G75*
G02*
X137939000Y-134228000I0J87500D01*
G01*
X137939000Y-134053000D01*
G75*
G02*
X138026500Y-133965500I87500J0D01*
G01*
X138776500Y-133965500D01*
G75*
G02*
X138864000Y-134053000I0J-87500D01*
G01*
X138864000Y-134228000D01*
G75*
G02*
X138776500Y-134315500I-87500J0D01*
G01*
G37*
G36*
G01*
X138776500Y-133815500D02*
X138026500Y-133815500D01*
G75*
G02*
X137939000Y-133728000I0J87500D01*
G01*
X137939000Y-133553000D01*
G75*
G02*
X138026500Y-133465500I87500J0D01*
G01*
X138776500Y-133465500D01*
G75*
G02*
X138864000Y-133553000I0J-87500D01*
G01*
X138864000Y-133728000D01*
G75*
G02*
X138776500Y-133815500I-87500J0D01*
G01*
G37*
G36*
G01*
X138776500Y-133315500D02*
X138026500Y-133315500D01*
G75*
G02*
X137939000Y-133228000I0J87500D01*
G01*
X137939000Y-133053000D01*
G75*
G02*
X138026500Y-132965500I87500J0D01*
G01*
X138776500Y-132965500D01*
G75*
G02*
X138864000Y-133053000I0J-87500D01*
G01*
X138864000Y-133228000D01*
G75*
G02*
X138776500Y-133315500I-87500J0D01*
G01*
G37*
G36*
G01*
X138776500Y-132815500D02*
X138026500Y-132815500D01*
G75*
G02*
X137939000Y-132728000I0J87500D01*
G01*
X137939000Y-132553000D01*
G75*
G02*
X138026500Y-132465500I87500J0D01*
G01*
X138776500Y-132465500D01*
G75*
G02*
X138864000Y-132553000I0J-87500D01*
G01*
X138864000Y-132728000D01*
G75*
G02*
X138776500Y-132815500I-87500J0D01*
G01*
G37*
G36*
G01*
X139176500Y-132415500D02*
X139001500Y-132415500D01*
G75*
G02*
X138914000Y-132328000I0J87500D01*
G01*
X138914000Y-131578000D01*
G75*
G02*
X139001500Y-131490500I87500J0D01*
G01*
X139176500Y-131490500D01*
G75*
G02*
X139264000Y-131578000I0J-87500D01*
G01*
X139264000Y-132328000D01*
G75*
G02*
X139176500Y-132415500I-87500J0D01*
G01*
G37*
G36*
G01*
X139676500Y-132415500D02*
X139501500Y-132415500D01*
G75*
G02*
X139414000Y-132328000I0J87500D01*
G01*
X139414000Y-131578000D01*
G75*
G02*
X139501500Y-131490500I87500J0D01*
G01*
X139676500Y-131490500D01*
G75*
G02*
X139764000Y-131578000I0J-87500D01*
G01*
X139764000Y-132328000D01*
G75*
G02*
X139676500Y-132415500I-87500J0D01*
G01*
G37*
G36*
G01*
X140176500Y-132415500D02*
X140001500Y-132415500D01*
G75*
G02*
X139914000Y-132328000I0J87500D01*
G01*
X139914000Y-131578000D01*
G75*
G02*
X140001500Y-131490500I87500J0D01*
G01*
X140176500Y-131490500D01*
G75*
G02*
X140264000Y-131578000I0J-87500D01*
G01*
X140264000Y-132328000D01*
G75*
G02*
X140176500Y-132415500I-87500J0D01*
G01*
G37*
G36*
G01*
X140676500Y-132415500D02*
X140501500Y-132415500D01*
G75*
G02*
X140414000Y-132328000I0J87500D01*
G01*
X140414000Y-131578000D01*
G75*
G02*
X140501500Y-131490500I87500J0D01*
G01*
X140676500Y-131490500D01*
G75*
G02*
X140764000Y-131578000I0J-87500D01*
G01*
X140764000Y-132328000D01*
G75*
G02*
X140676500Y-132415500I-87500J0D01*
G01*
G37*
G36*
G01*
X141176500Y-132415500D02*
X141001500Y-132415500D01*
G75*
G02*
X140914000Y-132328000I0J87500D01*
G01*
X140914000Y-131578000D01*
G75*
G02*
X141001500Y-131490500I87500J0D01*
G01*
X141176500Y-131490500D01*
G75*
G02*
X141264000Y-131578000I0J-87500D01*
G01*
X141264000Y-132328000D01*
G75*
G02*
X141176500Y-132415500I-87500J0D01*
G01*
G37*
G36*
G01*
X141676500Y-132415500D02*
X141501500Y-132415500D01*
G75*
G02*
X141414000Y-132328000I0J87500D01*
G01*
X141414000Y-131578000D01*
G75*
G02*
X141501500Y-131490500I87500J0D01*
G01*
X141676500Y-131490500D01*
G75*
G02*
X141764000Y-131578000I0J-87500D01*
G01*
X141764000Y-132328000D01*
G75*
G02*
X141676500Y-132415500I-87500J0D01*
G01*
G37*
G36*
G01*
X142651500Y-132815500D02*
X141901500Y-132815500D01*
G75*
G02*
X141814000Y-132728000I0J87500D01*
G01*
X141814000Y-132553000D01*
G75*
G02*
X141901500Y-132465500I87500J0D01*
G01*
X142651500Y-132465500D01*
G75*
G02*
X142739000Y-132553000I0J-87500D01*
G01*
X142739000Y-132728000D01*
G75*
G02*
X142651500Y-132815500I-87500J0D01*
G01*
G37*
G36*
G01*
X142651500Y-133315500D02*
X141901500Y-133315500D01*
G75*
G02*
X141814000Y-133228000I0J87500D01*
G01*
X141814000Y-133053000D01*
G75*
G02*
X141901500Y-132965500I87500J0D01*
G01*
X142651500Y-132965500D01*
G75*
G02*
X142739000Y-133053000I0J-87500D01*
G01*
X142739000Y-133228000D01*
G75*
G02*
X142651500Y-133315500I-87500J0D01*
G01*
G37*
G36*
G01*
X142651500Y-133815500D02*
X141901500Y-133815500D01*
G75*
G02*
X141814000Y-133728000I0J87500D01*
G01*
X141814000Y-133553000D01*
G75*
G02*
X141901500Y-133465500I87500J0D01*
G01*
X142651500Y-133465500D01*
G75*
G02*
X142739000Y-133553000I0J-87500D01*
G01*
X142739000Y-133728000D01*
G75*
G02*
X142651500Y-133815500I-87500J0D01*
G01*
G37*
G36*
G01*
X142651500Y-134315500D02*
X141901500Y-134315500D01*
G75*
G02*
X141814000Y-134228000I0J87500D01*
G01*
X141814000Y-134053000D01*
G75*
G02*
X141901500Y-133965500I87500J0D01*
G01*
X142651500Y-133965500D01*
G75*
G02*
X142739000Y-134053000I0J-87500D01*
G01*
X142739000Y-134228000D01*
G75*
G02*
X142651500Y-134315500I-87500J0D01*
G01*
G37*
G36*
G01*
X142651500Y-134815500D02*
X141901500Y-134815500D01*
G75*
G02*
X141814000Y-134728000I0J87500D01*
G01*
X141814000Y-134553000D01*
G75*
G02*
X141901500Y-134465500I87500J0D01*
G01*
X142651500Y-134465500D01*
G75*
G02*
X142739000Y-134553000I0J-87500D01*
G01*
X142739000Y-134728000D01*
G75*
G02*
X142651500Y-134815500I-87500J0D01*
G01*
G37*
G36*
G01*
X142651500Y-135315500D02*
X141901500Y-135315500D01*
G75*
G02*
X141814000Y-135228000I0J87500D01*
G01*
X141814000Y-135053000D01*
G75*
G02*
X141901500Y-134965500I87500J0D01*
G01*
X142651500Y-134965500D01*
G75*
G02*
X142739000Y-135053000I0J-87500D01*
G01*
X142739000Y-135228000D01*
G75*
G02*
X142651500Y-135315500I-87500J0D01*
G01*
G37*
G36*
G01*
X141676500Y-136290500D02*
X141501500Y-136290500D01*
G75*
G02*
X141414000Y-136203000I0J87500D01*
G01*
X141414000Y-135453000D01*
G75*
G02*
X141501500Y-135365500I87500J0D01*
G01*
X141676500Y-135365500D01*
G75*
G02*
X141764000Y-135453000I0J-87500D01*
G01*
X141764000Y-136203000D01*
G75*
G02*
X141676500Y-136290500I-87500J0D01*
G01*
G37*
G36*
G01*
X141176500Y-136290500D02*
X141001500Y-136290500D01*
G75*
G02*
X140914000Y-136203000I0J87500D01*
G01*
X140914000Y-135453000D01*
G75*
G02*
X141001500Y-135365500I87500J0D01*
G01*
X141176500Y-135365500D01*
G75*
G02*
X141264000Y-135453000I0J-87500D01*
G01*
X141264000Y-136203000D01*
G75*
G02*
X141176500Y-136290500I-87500J0D01*
G01*
G37*
G36*
G01*
X140676500Y-136290500D02*
X140501500Y-136290500D01*
G75*
G02*
X140414000Y-136203000I0J87500D01*
G01*
X140414000Y-135453000D01*
G75*
G02*
X140501500Y-135365500I87500J0D01*
G01*
X140676500Y-135365500D01*
G75*
G02*
X140764000Y-135453000I0J-87500D01*
G01*
X140764000Y-136203000D01*
G75*
G02*
X140676500Y-136290500I-87500J0D01*
G01*
G37*
G36*
G01*
X140176500Y-136290500D02*
X140001500Y-136290500D01*
G75*
G02*
X139914000Y-136203000I0J87500D01*
G01*
X139914000Y-135453000D01*
G75*
G02*
X140001500Y-135365500I87500J0D01*
G01*
X140176500Y-135365500D01*
G75*
G02*
X140264000Y-135453000I0J-87500D01*
G01*
X140264000Y-136203000D01*
G75*
G02*
X140176500Y-136290500I-87500J0D01*
G01*
G37*
G36*
G01*
X139676500Y-136290500D02*
X139501500Y-136290500D01*
G75*
G02*
X139414000Y-136203000I0J87500D01*
G01*
X139414000Y-135453000D01*
G75*
G02*
X139501500Y-135365500I87500J0D01*
G01*
X139676500Y-135365500D01*
G75*
G02*
X139764000Y-135453000I0J-87500D01*
G01*
X139764000Y-136203000D01*
G75*
G02*
X139676500Y-136290500I-87500J0D01*
G01*
G37*
G36*
G01*
X139176500Y-136290500D02*
X139001500Y-136290500D01*
G75*
G02*
X138914000Y-136203000I0J87500D01*
G01*
X138914000Y-135453000D01*
G75*
G02*
X139001500Y-135365500I87500J0D01*
G01*
X139176500Y-135365500D01*
G75*
G02*
X139264000Y-135453000I0J-87500D01*
G01*
X139264000Y-136203000D01*
G75*
G02*
X139176500Y-136290500I-87500J0D01*
G01*
G37*
%TD*%
%TO.C,R6*%
G36*
G01*
X126646250Y-133304000D02*
X126083750Y-133304000D01*
G75*
G02*
X125840000Y-133060250I0J243750D01*
G01*
X125840000Y-132572750D01*
G75*
G02*
X126083750Y-132329000I243750J0D01*
G01*
X126646250Y-132329000D01*
G75*
G02*
X126890000Y-132572750I0J-243750D01*
G01*
X126890000Y-133060250D01*
G75*
G02*
X126646250Y-133304000I-243750J0D01*
G01*
G37*
G36*
G01*
X126646250Y-134879000D02*
X126083750Y-134879000D01*
G75*
G02*
X125840000Y-134635250I0J243750D01*
G01*
X125840000Y-134147750D01*
G75*
G02*
X126083750Y-133904000I243750J0D01*
G01*
X126646250Y-133904000D01*
G75*
G02*
X126890000Y-134147750I0J-243750D01*
G01*
X126890000Y-134635250D01*
G75*
G02*
X126646250Y-134879000I-243750J0D01*
G01*
G37*
%TD*%
%TO.C,R5*%
G36*
G01*
X132488250Y-133304000D02*
X131925750Y-133304000D01*
G75*
G02*
X131682000Y-133060250I0J243750D01*
G01*
X131682000Y-132572750D01*
G75*
G02*
X131925750Y-132329000I243750J0D01*
G01*
X132488250Y-132329000D01*
G75*
G02*
X132732000Y-132572750I0J-243750D01*
G01*
X132732000Y-133060250D01*
G75*
G02*
X132488250Y-133304000I-243750J0D01*
G01*
G37*
G36*
G01*
X132488250Y-134879000D02*
X131925750Y-134879000D01*
G75*
G02*
X131682000Y-134635250I0J243750D01*
G01*
X131682000Y-134147750D01*
G75*
G02*
X131925750Y-133904000I243750J0D01*
G01*
X132488250Y-133904000D01*
G75*
G02*
X132732000Y-134147750I0J-243750D01*
G01*
X132732000Y-134635250D01*
G75*
G02*
X132488250Y-134879000I-243750J0D01*
G01*
G37*
%TD*%
%TO.C,R1*%
G36*
G01*
X135174000Y-135374250D02*
X135174000Y-134811750D01*
G75*
G02*
X135417750Y-134568000I243750J0D01*
G01*
X135905250Y-134568000D01*
G75*
G02*
X136149000Y-134811750I0J-243750D01*
G01*
X136149000Y-135374250D01*
G75*
G02*
X135905250Y-135618000I-243750J0D01*
G01*
X135417750Y-135618000D01*
G75*
G02*
X135174000Y-135374250I0J243750D01*
G01*
G37*
G36*
G01*
X133599000Y-135374250D02*
X133599000Y-134811750D01*
G75*
G02*
X133842750Y-134568000I243750J0D01*
G01*
X134330250Y-134568000D01*
G75*
G02*
X134574000Y-134811750I0J-243750D01*
G01*
X134574000Y-135374250D01*
G75*
G02*
X134330250Y-135618000I-243750J0D01*
G01*
X133842750Y-135618000D01*
G75*
G02*
X133599000Y-135374250I0J243750D01*
G01*
G37*
%TD*%
%TO.C,C2*%
G36*
G01*
X134574000Y-132306750D02*
X134574000Y-132869250D01*
G75*
G02*
X134330250Y-133113000I-243750J0D01*
G01*
X133842750Y-133113000D01*
G75*
G02*
X133599000Y-132869250I0J243750D01*
G01*
X133599000Y-132306750D01*
G75*
G02*
X133842750Y-132063000I243750J0D01*
G01*
X134330250Y-132063000D01*
G75*
G02*
X134574000Y-132306750I0J-243750D01*
G01*
G37*
G36*
G01*
X136149000Y-132306750D02*
X136149000Y-132869250D01*
G75*
G02*
X135905250Y-133113000I-243750J0D01*
G01*
X135417750Y-133113000D01*
G75*
G02*
X135174000Y-132869250I0J243750D01*
G01*
X135174000Y-132306750D01*
G75*
G02*
X135417750Y-132063000I243750J0D01*
G01*
X135905250Y-132063000D01*
G75*
G02*
X136149000Y-132306750I0J-243750D01*
G01*
G37*
%TD*%
%TO.C,C1*%
G36*
G01*
X144299250Y-131780000D02*
X143736750Y-131780000D01*
G75*
G02*
X143493000Y-131536250I0J243750D01*
G01*
X143493000Y-131048750D01*
G75*
G02*
X143736750Y-130805000I243750J0D01*
G01*
X144299250Y-130805000D01*
G75*
G02*
X144543000Y-131048750I0J-243750D01*
G01*
X144543000Y-131536250D01*
G75*
G02*
X144299250Y-131780000I-243750J0D01*
G01*
G37*
G36*
G01*
X144299250Y-133355000D02*
X143736750Y-133355000D01*
G75*
G02*
X143493000Y-133111250I0J243750D01*
G01*
X143493000Y-132623750D01*
G75*
G02*
X143736750Y-132380000I243750J0D01*
G01*
X144299250Y-132380000D01*
G75*
G02*
X144543000Y-132623750I0J-243750D01*
G01*
X144543000Y-133111250D01*
G75*
G02*
X144299250Y-133355000I-243750J0D01*
G01*
G37*
%TD*%
%TO.C,C7*%
G36*
G01*
X148109250Y-131780000D02*
X147546750Y-131780000D01*
G75*
G02*
X147303000Y-131536250I0J243750D01*
G01*
X147303000Y-131048750D01*
G75*
G02*
X147546750Y-130805000I243750J0D01*
G01*
X148109250Y-130805000D01*
G75*
G02*
X148353000Y-131048750I0J-243750D01*
G01*
X148353000Y-131536250D01*
G75*
G02*
X148109250Y-131780000I-243750J0D01*
G01*
G37*
G36*
G01*
X148109250Y-133355000D02*
X147546750Y-133355000D01*
G75*
G02*
X147303000Y-133111250I0J243750D01*
G01*
X147303000Y-132623750D01*
G75*
G02*
X147546750Y-132380000I243750J0D01*
G01*
X148109250Y-132380000D01*
G75*
G02*
X148353000Y-132623750I0J-243750D01*
G01*
X148353000Y-133111250D01*
G75*
G02*
X148109250Y-133355000I-243750J0D01*
G01*
G37*
%TD*%
%TO.C,C6*%
G36*
G01*
X146204250Y-131780000D02*
X145641750Y-131780000D01*
G75*
G02*
X145398000Y-131536250I0J243750D01*
G01*
X145398000Y-131048750D01*
G75*
G02*
X145641750Y-130805000I243750J0D01*
G01*
X146204250Y-130805000D01*
G75*
G02*
X146448000Y-131048750I0J-243750D01*
G01*
X146448000Y-131536250D01*
G75*
G02*
X146204250Y-131780000I-243750J0D01*
G01*
G37*
G36*
G01*
X146204250Y-133355000D02*
X145641750Y-133355000D01*
G75*
G02*
X145398000Y-133111250I0J243750D01*
G01*
X145398000Y-132623750D01*
G75*
G02*
X145641750Y-132380000I243750J0D01*
G01*
X146204250Y-132380000D01*
G75*
G02*
X146448000Y-132623750I0J-243750D01*
G01*
X146448000Y-133111250D01*
G75*
G02*
X146204250Y-133355000I-243750J0D01*
G01*
G37*
%TD*%
%TO.C,C5*%
G36*
G01*
X154960500Y-133123250D02*
X154960500Y-132560750D01*
G75*
G02*
X155204250Y-132317000I243750J0D01*
G01*
X155691750Y-132317000D01*
G75*
G02*
X155935500Y-132560750I0J-243750D01*
G01*
X155935500Y-133123250D01*
G75*
G02*
X155691750Y-133367000I-243750J0D01*
G01*
X155204250Y-133367000D01*
G75*
G02*
X154960500Y-133123250I0J243750D01*
G01*
G37*
G36*
G01*
X153385500Y-133123250D02*
X153385500Y-132560750D01*
G75*
G02*
X153629250Y-132317000I243750J0D01*
G01*
X154116750Y-132317000D01*
G75*
G02*
X154360500Y-132560750I0J-243750D01*
G01*
X154360500Y-133123250D01*
G75*
G02*
X154116750Y-133367000I-243750J0D01*
G01*
X153629250Y-133367000D01*
G75*
G02*
X153385500Y-133123250I0J243750D01*
G01*
G37*
%TD*%
%TO.C,C4*%
G36*
G01*
X154986000Y-135282250D02*
X154986000Y-134719750D01*
G75*
G02*
X155229750Y-134476000I243750J0D01*
G01*
X155717250Y-134476000D01*
G75*
G02*
X155961000Y-134719750I0J-243750D01*
G01*
X155961000Y-135282250D01*
G75*
G02*
X155717250Y-135526000I-243750J0D01*
G01*
X155229750Y-135526000D01*
G75*
G02*
X154986000Y-135282250I0J243750D01*
G01*
G37*
G36*
G01*
X153411000Y-135282250D02*
X153411000Y-134719750D01*
G75*
G02*
X153654750Y-134476000I243750J0D01*
G01*
X154142250Y-134476000D01*
G75*
G02*
X154386000Y-134719750I0J-243750D01*
G01*
X154386000Y-135282250D01*
G75*
G02*
X154142250Y-135526000I-243750J0D01*
G01*
X153654750Y-135526000D01*
G75*
G02*
X153411000Y-135282250I0J243750D01*
G01*
G37*
%TD*%
M02*
