M48
; DRILL file {KiCad (5.1.6-0-10_14)} date Thursday, August 20, 2020 at 11:34:30 AM
; FORMAT={-:-/ absolute / inch / decimal}
; #@! TF.CreationDate,2020-08-20T11:34:30+02:00
; #@! TF.GenerationSoftware,Kicad,Pcbnew,(5.1.6-0-10_14)
; #@! TF.FileFunction,Plated,1,2,PTH
FMAT,2
INCH
T1C0.0157
T2C0.0236
T3C0.0394
%
G90
G05
T1
X4.99Y-5.185
X4.995Y-5.4
X5.05Y-5.3
X5.0513Y-4.4281
X5.145Y-5.375
X5.215Y-5.38
X5.27Y-4.62
X5.27Y-4.925
X5.275Y-4.7493
X5.2821Y-4.4268
X5.2935Y-4.3594
X5.295Y-5.37
X5.3Y-4.55
X5.31Y-5.2
X5.32Y-5.275
X5.34Y-4.215
X5.355Y-4.78
X5.36Y-4.695
X5.365Y-4.93
X5.37Y-5.005
X5.3948Y-4.5404
X5.42Y-4.505
X5.42Y-4.6907
X5.42Y-4.835
X5.42Y-5.43
X5.445Y-5.3
X5.46Y-4.995
X5.46Y-5.265
X5.465Y-5.35
X5.475Y-5.225
X5.485Y-4.915
X5.515Y-4.945
X5.5265Y-5.46
X5.5419Y-5.4205
X5.56Y-4.72
X5.585Y-5.575
X5.595Y-5.005
X5.615Y-4.525
X5.62Y-5.41
X5.625Y-4.61
X5.665Y-4.68
X5.665Y-4.775
X5.665Y-4.89
X5.68Y-4.465
X5.6827Y-5.4677
X5.6847Y-4.5577
X5.686Y-4.5213
X5.7Y-5.29
X5.7043Y-4.6357
X5.73Y-4.755
X5.73Y-5.15
X5.74Y-4.28
X5.7462Y-4.5911
X5.795Y-4.745
X5.83Y-5.195
X5.834Y-4.524
X5.835Y-4.575
X5.835Y-4.62
X5.835Y-4.875
X5.84Y-4.975
X5.84Y-5.075
X5.84Y-5.29
X5.9Y-5.145
X5.99Y-5.3
X6.035Y-5.175
T3
X5.0Y-4.2
X5.0Y-4.3
X5.0Y-4.4
X5.0Y-4.5
X5.0Y-4.6
X5.0Y-4.7
X5.0Y-4.8
X5.0Y-4.9
X5.0Y-5.0
X5.0Y-5.1
X5.1Y-4.2
X5.1Y-4.3
X5.1Y-4.4
X5.1Y-4.5
X5.1Y-4.6
X5.1Y-4.7
X5.1Y-4.8
X5.1Y-4.9
X5.1Y-5.0
X5.1Y-5.1
X6.0Y-4.2
X6.0Y-4.3
X6.0Y-4.4
X6.0Y-4.5
X6.0Y-4.6
X6.0Y-4.7
X6.0Y-4.8
X6.0Y-4.9
X6.0Y-5.0
X6.0Y-5.1
X6.1Y-4.2
X6.1Y-4.3
X6.1Y-4.4
X6.1Y-4.5
X6.1Y-4.6
X6.1Y-4.7
X6.1Y-4.8
X6.1Y-4.9
X6.1Y-5.0
X6.1Y-5.1
T2
G00X5.3799Y-5.5351
M15
G01X5.3799Y-5.5784
M16
G05
G00X5.3799Y-5.7095
M15
G01X5.3799Y-5.7331
M16
G05
G00X5.7201Y-5.5351
M15
G01X5.7201Y-5.5784
M16
G05
G00X5.7201Y-5.7095
M15
G01X5.7201Y-5.7331
M16
G05
T0
M30
