%TF.GenerationSoftware,KiCad,Pcbnew,(5.1.6-0-10_14)*%
%TF.CreationDate,2020-08-20T18:16:30+02:00*%
%TF.ProjectId,USBCWrover,55534243-5772-46f7-9665-722e6b696361,rev?*%
%TF.SameCoordinates,Original*%
%TF.FileFunction,Copper,L2,Bot*%
%TF.FilePolarity,Positive*%
%FSLAX46Y46*%
G04 Gerber Fmt 4.6, Leading zero omitted, Abs format (unit mm)*
G04 Created by KiCad (PCBNEW (5.1.6-0-10_14)) date 2020-08-20 18:16:30*
%MOMM*%
%LPD*%
G01*
G04 APERTURE LIST*
%TA.AperFunction,ComponentPad*%
%ADD10O,1.000000X2.100000*%
%TD*%
%TA.AperFunction,ComponentPad*%
%ADD11O,1.000000X1.600000*%
%TD*%
%TA.AperFunction,ComponentPad*%
%ADD12O,1.700000X1.700000*%
%TD*%
%TA.AperFunction,ComponentPad*%
%ADD13C,1.700000*%
%TD*%
%TA.AperFunction,ViaPad*%
%ADD14C,0.800000*%
%TD*%
%TA.AperFunction,Conductor*%
%ADD15C,0.250000*%
%TD*%
%TA.AperFunction,Conductor*%
%ADD16C,0.254000*%
%TD*%
G04 APERTURE END LIST*
D10*
%TO.P,J1,S1*%
%TO.N,GND*%
X145417000Y-139364000D03*
X136777000Y-139364000D03*
D11*
X136777000Y-143544000D03*
X145417000Y-143544000D03*
%TD*%
D12*
%TO.P,J2,20*%
%TO.N,SD0_IO7*%
X152400000Y-129540000D03*
%TO.P,J2,19*%
%TO.N,CLK_IO6*%
X154940000Y-129540000D03*
%TO.P,J2,18*%
%TO.N,IO15*%
X152400000Y-127000000D03*
%TO.P,J2,17*%
%TO.N,SD1_IO8*%
X154940000Y-127000000D03*
%TO.P,J2,16*%
%TO.N,+5V*%
X152400000Y-124460000D03*
%TO.P,J2,15*%
%TO.N,IO2*%
X154940000Y-124460000D03*
%TO.P,J2,14*%
%TO.N,GND*%
X152400000Y-121920000D03*
%TO.P,J2,13*%
%TO.N,ESP_FLS*%
X154940000Y-121920000D03*
%TO.P,J2,12*%
%TO.N,IO16*%
X152400000Y-119380000D03*
%TO.P,J2,11*%
%TO.N,IO4*%
X154940000Y-119380000D03*
%TO.P,J2,10*%
%TO.N,IO17*%
X152400000Y-116840000D03*
%TO.P,J2,9*%
%TO.N,IO12*%
X154940000Y-116840000D03*
%TO.P,J2,8*%
%TO.N,IO21*%
X152400000Y-114300000D03*
%TO.P,J2,7*%
%TO.N,IO32*%
X154940000Y-114300000D03*
%TO.P,J2,6*%
%TO.N,IO22*%
X152400000Y-111760000D03*
%TO.P,J2,5*%
%TO.N,IO25*%
X154940000Y-111760000D03*
%TO.P,J2,4*%
%TO.N,ESP_RXD*%
X152400000Y-109220000D03*
%TO.P,J2,3*%
%TO.N,IO27*%
X154940000Y-109220000D03*
%TO.P,J2,2*%
%TO.N,ESP_TXD*%
X152400000Y-106680000D03*
D13*
%TO.P,J2,1*%
%TO.N,GND*%
X154940000Y-106680000D03*
%TD*%
D12*
%TO.P,J3,20*%
%TO.N,CMD_IO11*%
X127000000Y-129540000D03*
%TO.P,J3,19*%
%TO.N,SD3_IO10*%
X129540000Y-129540000D03*
%TO.P,J3,18*%
%TO.N,SD2_IO9*%
X127000000Y-127000000D03*
%TO.P,J3,17*%
%TO.N,IO13*%
X129540000Y-127000000D03*
%TO.P,J3,16*%
%TO.N,Net-(J3-Pad16)*%
X127000000Y-124460000D03*
%TO.P,J3,15*%
%TO.N,+3V3*%
X129540000Y-124460000D03*
%TO.P,J3,14*%
%TO.N,IO14*%
X127000000Y-121920000D03*
%TO.P,J3,13*%
%TO.N,IO5*%
X129540000Y-121920000D03*
%TO.P,J3,12*%
%TO.N,IO34*%
X127000000Y-119380000D03*
%TO.P,J3,11*%
%TO.N,IO23*%
X129540000Y-119380000D03*
%TO.P,J3,10*%
%TO.N,IO33*%
X127000000Y-116840000D03*
%TO.P,J3,9*%
%TO.N,IO19*%
X129540000Y-116840000D03*
%TO.P,J3,8*%
%TO.N,IO35*%
X127000000Y-114300000D03*
%TO.P,J3,7*%
%TO.N,IO18*%
X129540000Y-114300000D03*
%TO.P,J3,6*%
%TO.N,SENSOR_VN*%
X127000000Y-111760000D03*
%TO.P,J3,5*%
%TO.N,IO26*%
X129540000Y-111760000D03*
%TO.P,J3,4*%
%TO.N,Net-(J3-Pad4)*%
X127000000Y-109220000D03*
%TO.P,J3,3*%
%TO.N,Sensor_VP*%
X129540000Y-109220000D03*
%TO.P,J3,2*%
%TO.N,GND*%
X127000000Y-106680000D03*
D13*
%TO.P,J3,1*%
%TO.N,ESP_RST*%
X129540000Y-106680000D03*
%TD*%
D14*
%TO.N,GND*%
X135636000Y-107061000D03*
X145796000Y-108712000D03*
X143891000Y-118872000D03*
X142621000Y-114935000D03*
X143891000Y-121285000D03*
X136017000Y-121412000D03*
X137026787Y-115325320D03*
X133223000Y-133858000D03*
X138557000Y-121285000D03*
X138811000Y-122936000D03*
X138938000Y-124460000D03*
X135890000Y-122936000D03*
X147447000Y-135001000D03*
X145542000Y-136779000D03*
X135382000Y-136652000D03*
%TO.N,+3V3*%
X137668000Y-119143000D03*
X146939000Y-133985000D03*
X139954000Y-128905000D03*
X132461001Y-136779001D03*
X142240000Y-135890000D03*
%TO.N,Net-(J1-PadA5)*%
X139446000Y-139954000D03*
X136398000Y-136652000D03*
%TO.N,USB_D+*%
X142147012Y-140100386D03*
X140843000Y-140080990D03*
%TO.N,ESP_RST*%
X136144000Y-119253000D03*
X137668000Y-122809000D03*
X131318000Y-137795000D03*
X131445000Y-133476984D03*
%TO.N,SER_RTS*%
X127127000Y-131318000D03*
X137361500Y-131318008D03*
%TO.N,ESP_FLS*%
X133303034Y-131779034D03*
X129286000Y-135763000D03*
%TO.N,SER_DTR*%
X136854112Y-134856990D03*
X132268722Y-135795196D03*
%TO.N,ESP_TXD*%
X142113000Y-127127000D03*
X143891000Y-124206000D03*
X145542000Y-120777000D03*
X136779000Y-132461000D03*
%TO.N,ESP_RXD*%
X147193000Y-120523000D03*
X136525000Y-133731000D03*
%TO.N,CLK_IO6*%
X148336000Y-128905000D03*
%TO.N,IO5*%
X133985000Y-120632990D03*
X144888003Y-117747999D03*
X148209000Y-117348000D03*
%TO.N,IO34*%
X128302609Y-112472999D03*
X134164948Y-112440227D03*
%TO.N,IO23*%
X137668000Y-114427002D03*
%TO.N,IO19*%
X148183600Y-114909600D03*
%TO.N,IO18*%
X148209000Y-116205000D03*
X144272000Y-113411002D03*
X145952261Y-116612899D03*
%TO.N,IO26*%
X134454313Y-110728275D03*
%TO.N,IO32*%
X134620000Y-115570000D03*
%TO.N,IO25*%
X133857992Y-117348000D03*
X142875008Y-117094000D03*
X144391230Y-115766849D03*
%TO.N,IO27*%
X144424437Y-114840432D03*
%TO.N,IO12*%
X141223994Y-119888000D03*
%TO.N,IO13*%
X133858000Y-125094998D03*
%TO.N,SD1_IO8*%
X148336000Y-126365000D03*
%TO.N,IO2*%
X148209000Y-123825000D03*
%TD*%
D15*
%TO.N,GND*%
X127000000Y-106680000D02*
X128143000Y-107823000D01*
X125984000Y-107696000D02*
X125984000Y-107950000D01*
X125984000Y-107696000D02*
X127000000Y-106680000D01*
X154940000Y-106680000D02*
X153670000Y-105410000D01*
X153670000Y-105410000D02*
X149225000Y-105410000D01*
X145923000Y-108712000D02*
X145796000Y-108712000D01*
X149225000Y-105410000D02*
X145923000Y-108712000D01*
X156040000Y-106680000D02*
X156083000Y-106723000D01*
X156040000Y-106680000D02*
X154940000Y-106680000D01*
%TO.N,+3V3*%
X129540000Y-124460000D02*
X130389999Y-123610001D01*
X130389999Y-123610001D02*
X139612001Y-123610001D01*
X139612001Y-121087001D02*
X137668000Y-119143000D01*
X139612001Y-123610001D02*
X139739001Y-123610001D01*
X139612001Y-123023999D02*
X139612001Y-121087001D01*
X139612001Y-123610001D02*
X139612001Y-123023999D01*
X139612001Y-128563001D02*
X139954000Y-128905000D01*
X139612001Y-123023999D02*
X139612001Y-128563001D01*
X143764000Y-133985000D02*
X146939000Y-133985000D01*
X142240000Y-135890000D02*
X143764000Y-133985000D01*
X132461001Y-136778999D02*
X132461001Y-136779001D01*
X133350000Y-135890000D02*
X132461001Y-136778999D01*
X142240000Y-135890000D02*
X133350000Y-135890000D01*
%TO.N,Net-(J1-PadA5)*%
X136398000Y-136906000D02*
X136398000Y-136652000D01*
X139446000Y-139954000D02*
X136398000Y-136906000D01*
%TO.N,USB_D+*%
X142147012Y-140100386D02*
X140862396Y-140100386D01*
X140862396Y-140100386D02*
X140843000Y-140080990D01*
%TO.N,ESP_RST*%
X136144000Y-119253000D02*
X137668000Y-120777000D01*
X137668000Y-120777000D02*
X137668000Y-122809000D01*
X131318000Y-133603984D02*
X131445000Y-133476984D01*
X131318000Y-137795000D02*
X131318000Y-133603984D01*
%TO.N,SER_RTS*%
X136961493Y-130918001D02*
X137361500Y-131318008D01*
X127127000Y-131318000D02*
X127526999Y-130918001D01*
X127526999Y-130918001D02*
X136961493Y-130918001D01*
%TO.N,ESP_FLS*%
X129286000Y-134671022D02*
X129286000Y-135763000D01*
X132177988Y-131779034D02*
X129286000Y-134671022D01*
X133303034Y-131779034D02*
X132177988Y-131779034D01*
%TO.N,SER_DTR*%
X136854112Y-134856990D02*
X133206928Y-134856990D01*
X133206928Y-134856990D02*
X132268722Y-135795196D01*
%TO.N,ESP_TXD*%
X152400000Y-106680000D02*
X149225000Y-109855000D01*
X142113000Y-130867685D02*
X142113000Y-127127000D01*
X145542000Y-122555000D02*
X145542000Y-120777000D01*
X143891000Y-124206000D02*
X145542000Y-122555000D01*
X140519685Y-132461000D02*
X142113000Y-130867685D01*
X136779000Y-132461000D02*
X140519685Y-132461000D01*
%TO.N,ESP_RXD*%
X147193000Y-130099038D02*
X147193000Y-120523000D01*
X143961037Y-133331001D02*
X147193000Y-130099038D01*
X136924999Y-133331001D02*
X143961037Y-133331001D01*
X136525000Y-133731000D02*
X136924999Y-133331001D01*
%TO.N,CLK_IO6*%
X153764999Y-128364999D02*
X154940000Y-129540000D01*
X148876001Y-128364999D02*
X153764999Y-128364999D01*
X148336000Y-128905000D02*
X148876001Y-128364999D01*
%TO.N,IO5*%
X132697990Y-121920000D02*
X133985000Y-120632990D01*
X129540000Y-121920000D02*
X132697990Y-121920000D01*
X144888003Y-117747999D02*
X144888003Y-117747997D01*
X145288000Y-117348000D02*
X148209000Y-117348000D01*
X144888003Y-117747997D02*
X145288000Y-117348000D01*
%TO.N,IO34*%
X128702608Y-112872998D02*
X131348922Y-112872998D01*
X134164948Y-111360992D02*
X134164948Y-112440227D01*
X131348922Y-112872998D02*
X133199976Y-111021944D01*
X133825900Y-111021944D02*
X134164948Y-111360992D01*
X133199976Y-111021944D02*
X133825900Y-111021944D01*
X128302609Y-112472999D02*
X128702608Y-112872998D01*
%TO.N,IO23*%
X134492998Y-114427002D02*
X137668000Y-114427002D01*
X129540000Y-119380000D02*
X134492998Y-114427002D01*
%TO.N,IO19*%
X130068961Y-120482001D02*
X132440962Y-118110000D01*
X143519257Y-118110000D02*
X146719657Y-114909600D01*
X129540000Y-116840000D02*
X128437999Y-117942001D01*
X146719657Y-114909600D02*
X148183600Y-114909600D01*
X128437999Y-119908961D02*
X129011039Y-120482001D01*
X128437999Y-117942001D02*
X128437999Y-119908961D01*
X132440962Y-118110000D02*
X143519257Y-118110000D01*
X129011039Y-120482001D02*
X130068961Y-120482001D01*
%TO.N,IO18*%
X146360160Y-116205000D02*
X145952261Y-116612899D01*
X148209000Y-116205000D02*
X146360160Y-116205000D01*
X135375825Y-113011003D02*
X143872001Y-113011003D01*
X143872001Y-113011003D02*
X144272000Y-113411002D01*
X129921000Y-113919000D02*
X134467828Y-113919000D01*
X134467828Y-113919000D02*
X135375825Y-113011003D01*
X129540000Y-114300000D02*
X129921000Y-113919000D01*
%TO.N,IO26*%
X134054314Y-110328276D02*
X134454313Y-110728275D01*
X130971724Y-110328276D02*
X134054314Y-110328276D01*
X129540000Y-111760000D02*
X130971724Y-110328276D01*
%TO.N,IO32*%
X135468850Y-116418850D02*
X135019999Y-115969999D01*
X151871039Y-115402001D02*
X150726636Y-114257598D01*
X154940000Y-114300000D02*
X153837999Y-115402001D01*
X135019999Y-115969999D02*
X134620000Y-115570000D01*
X153837999Y-115402001D02*
X151871039Y-115402001D01*
X146838485Y-114257598D02*
X144677233Y-116418850D01*
X144677233Y-116418850D02*
X135468850Y-116418850D01*
X150726636Y-114257598D02*
X146838485Y-114257598D01*
%TO.N,IO25*%
X142367008Y-117602000D02*
X142875008Y-117094000D01*
X134111992Y-117602000D02*
X142367008Y-117602000D01*
X133857992Y-117348000D02*
X134111992Y-117602000D01*
X144767836Y-115766849D02*
X144391230Y-115766849D01*
X154940000Y-111760000D02*
X153837999Y-112862001D01*
X153837999Y-112862001D02*
X147672684Y-112862001D01*
X147672684Y-112862001D02*
X144767836Y-115766849D01*
%TO.N,IO27*%
X145432001Y-114398553D02*
X144990122Y-114840432D01*
X154940000Y-109220000D02*
X153502001Y-110657999D01*
X145432001Y-113647999D02*
X145432001Y-114398553D01*
X144990122Y-114840432D02*
X144424437Y-114840432D01*
X153502001Y-110657999D02*
X148422001Y-110657999D01*
X148422001Y-110657999D02*
X145432001Y-113647999D01*
%TO.N,IO12*%
X154940000Y-116840000D02*
X153512977Y-118267023D01*
X153512977Y-118267023D02*
X147492939Y-118267023D01*
X145871962Y-119888000D02*
X141223994Y-119888000D01*
X147492939Y-118267023D02*
X145871962Y-119888000D01*
%TO.N,IO13*%
X129540000Y-127000000D02*
X131952998Y-127000000D01*
X131952998Y-127000000D02*
X133858000Y-125094998D01*
%TO.N,SD1_IO8*%
X153764999Y-125824999D02*
X154940000Y-127000000D01*
X148876001Y-125824999D02*
X153764999Y-125824999D01*
X148336000Y-126365000D02*
X148876001Y-125824999D01*
%TO.N,IO2*%
X153575001Y-123095001D02*
X154940000Y-124460000D01*
X148938999Y-123095001D02*
X153575001Y-123095001D01*
X148209000Y-123825000D02*
X148938999Y-123095001D01*
%TD*%
D16*
%TO.N,GND*%
G36*
X154581981Y-105231401D02*
G01*
X154306253Y-105329081D01*
X154168843Y-105402528D01*
X154091208Y-105651603D01*
X154940000Y-106500395D01*
X154954143Y-106486253D01*
X155133748Y-106665858D01*
X155119605Y-106680000D01*
X155968397Y-107528792D01*
X156217472Y-107451157D01*
X156271881Y-107337048D01*
X156271882Y-143341073D01*
X156267557Y-143457480D01*
X156255598Y-143564539D01*
X156235872Y-143669947D01*
X156208544Y-143773315D01*
X156173775Y-143874255D01*
X156131740Y-143972341D01*
X156082607Y-144067158D01*
X156026543Y-144158315D01*
X155963716Y-144245406D01*
X155892558Y-144330089D01*
X155846330Y-144378668D01*
X155764893Y-144454269D01*
X155680735Y-144521513D01*
X155592258Y-144582097D01*
X155499842Y-144635866D01*
X155403877Y-144682658D01*
X155304802Y-144722288D01*
X155203004Y-144754596D01*
X155098910Y-144779408D01*
X154992901Y-144796565D01*
X154882727Y-144806128D01*
X154807644Y-144807989D01*
X146019439Y-144807989D01*
X146129764Y-144736369D01*
X146290161Y-144580169D01*
X146417003Y-144395678D01*
X146505415Y-144189987D01*
X146552000Y-143971000D01*
X146552000Y-143671000D01*
X145544000Y-143671000D01*
X145544000Y-143691000D01*
X145290000Y-143691000D01*
X145290000Y-143671000D01*
X144282000Y-143671000D01*
X144282000Y-143971000D01*
X144328585Y-144189987D01*
X144416997Y-144395678D01*
X144543839Y-144580169D01*
X144704236Y-144736369D01*
X144814561Y-144807989D01*
X137379439Y-144807989D01*
X137489764Y-144736369D01*
X137650161Y-144580169D01*
X137777003Y-144395678D01*
X137865415Y-144189987D01*
X137912000Y-143971000D01*
X137912000Y-143671000D01*
X136904000Y-143671000D01*
X136904000Y-143691000D01*
X136650000Y-143691000D01*
X136650000Y-143671000D01*
X135642000Y-143671000D01*
X135642000Y-143971000D01*
X135688585Y-144189987D01*
X135776997Y-144395678D01*
X135903839Y-144580169D01*
X136064236Y-144736369D01*
X136174561Y-144807989D01*
X127136779Y-144807989D01*
X127020398Y-144803665D01*
X126913339Y-144791706D01*
X126807931Y-144771980D01*
X126704563Y-144744652D01*
X126603623Y-144709883D01*
X126505537Y-144667848D01*
X126410720Y-144618715D01*
X126319563Y-144562651D01*
X126232472Y-144499824D01*
X126147790Y-144428667D01*
X126099212Y-144382438D01*
X126023608Y-144301000D01*
X125956365Y-144216843D01*
X125895781Y-144128366D01*
X125842012Y-144035950D01*
X125795220Y-143939985D01*
X125755588Y-143840905D01*
X125723282Y-143739112D01*
X125698470Y-143635018D01*
X125681313Y-143529009D01*
X125671750Y-143418836D01*
X125669890Y-143343759D01*
X125669890Y-143117000D01*
X135642000Y-143117000D01*
X135642000Y-143417000D01*
X136650000Y-143417000D01*
X136650000Y-142276046D01*
X136904000Y-142276046D01*
X136904000Y-143417000D01*
X137912000Y-143417000D01*
X137912000Y-143117000D01*
X144282000Y-143117000D01*
X144282000Y-143417000D01*
X145290000Y-143417000D01*
X145290000Y-142276046D01*
X145544000Y-142276046D01*
X145544000Y-143417000D01*
X146552000Y-143417000D01*
X146552000Y-143117000D01*
X146505415Y-142898013D01*
X146417003Y-142692322D01*
X146290161Y-142507831D01*
X146129764Y-142351631D01*
X145941976Y-142229724D01*
X145718874Y-142149881D01*
X145544000Y-142276046D01*
X145290000Y-142276046D01*
X145115126Y-142149881D01*
X144892024Y-142229724D01*
X144704236Y-142351631D01*
X144543839Y-142507831D01*
X144416997Y-142692322D01*
X144328585Y-142898013D01*
X144282000Y-143117000D01*
X137912000Y-143117000D01*
X137865415Y-142898013D01*
X137777003Y-142692322D01*
X137650161Y-142507831D01*
X137489764Y-142351631D01*
X137301976Y-142229724D01*
X137078874Y-142149881D01*
X136904000Y-142276046D01*
X136650000Y-142276046D01*
X136475126Y-142149881D01*
X136252024Y-142229724D01*
X136064236Y-142351631D01*
X135903839Y-142507831D01*
X135776997Y-142692322D01*
X135688585Y-142898013D01*
X135642000Y-143117000D01*
X125669890Y-143117000D01*
X125669890Y-139491000D01*
X135642000Y-139491000D01*
X135642000Y-140041000D01*
X135688585Y-140259987D01*
X135776997Y-140465678D01*
X135903839Y-140650169D01*
X136064236Y-140806369D01*
X136252024Y-140928276D01*
X136475126Y-141008119D01*
X136650000Y-140881954D01*
X136650000Y-139491000D01*
X135642000Y-139491000D01*
X125669890Y-139491000D01*
X125669890Y-126878757D01*
X125769000Y-126878757D01*
X125769000Y-127121243D01*
X125816307Y-127359069D01*
X125909102Y-127583097D01*
X126043820Y-127784717D01*
X126215283Y-127956180D01*
X126416903Y-128090898D01*
X126640931Y-128183693D01*
X126878757Y-128231000D01*
X127121243Y-128231000D01*
X127359069Y-128183693D01*
X127583097Y-128090898D01*
X127784717Y-127956180D01*
X127956180Y-127784717D01*
X128090898Y-127583097D01*
X128183693Y-127359069D01*
X128231000Y-127121243D01*
X128231000Y-126878757D01*
X128309000Y-126878757D01*
X128309000Y-127121243D01*
X128356307Y-127359069D01*
X128449102Y-127583097D01*
X128583820Y-127784717D01*
X128755283Y-127956180D01*
X128956903Y-128090898D01*
X129180931Y-128183693D01*
X129418757Y-128231000D01*
X129661243Y-128231000D01*
X129899069Y-128183693D01*
X130123097Y-128090898D01*
X130324717Y-127956180D01*
X130496180Y-127784717D01*
X130630898Y-127583097D01*
X130662832Y-127506000D01*
X131928152Y-127506000D01*
X131952998Y-127508447D01*
X131977844Y-127506000D01*
X131977852Y-127506000D01*
X132052191Y-127498678D01*
X132147573Y-127469745D01*
X132235477Y-127422759D01*
X132312525Y-127359527D01*
X132328374Y-127340215D01*
X133792592Y-125875998D01*
X133934922Y-125875998D01*
X134085809Y-125845985D01*
X134227942Y-125787111D01*
X134355859Y-125701640D01*
X134464642Y-125592857D01*
X134550113Y-125464940D01*
X134608987Y-125322807D01*
X134639000Y-125171920D01*
X134639000Y-125018076D01*
X134608987Y-124867189D01*
X134550113Y-124725056D01*
X134464642Y-124597139D01*
X134355859Y-124488356D01*
X134227942Y-124402885D01*
X134085809Y-124344011D01*
X133934922Y-124313998D01*
X133781078Y-124313998D01*
X133630191Y-124344011D01*
X133488058Y-124402885D01*
X133360141Y-124488356D01*
X133251358Y-124597139D01*
X133165887Y-124725056D01*
X133107013Y-124867189D01*
X133077000Y-125018076D01*
X133077000Y-125160406D01*
X131743407Y-126494000D01*
X130662832Y-126494000D01*
X130630898Y-126416903D01*
X130496180Y-126215283D01*
X130324717Y-126043820D01*
X130123097Y-125909102D01*
X129899069Y-125816307D01*
X129661243Y-125769000D01*
X129418757Y-125769000D01*
X129180931Y-125816307D01*
X128956903Y-125909102D01*
X128755283Y-126043820D01*
X128583820Y-126215283D01*
X128449102Y-126416903D01*
X128356307Y-126640931D01*
X128309000Y-126878757D01*
X128231000Y-126878757D01*
X128183693Y-126640931D01*
X128090898Y-126416903D01*
X127956180Y-126215283D01*
X127784717Y-126043820D01*
X127583097Y-125909102D01*
X127359069Y-125816307D01*
X127121243Y-125769000D01*
X126878757Y-125769000D01*
X126640931Y-125816307D01*
X126416903Y-125909102D01*
X126215283Y-126043820D01*
X126043820Y-126215283D01*
X125909102Y-126416903D01*
X125816307Y-126640931D01*
X125769000Y-126878757D01*
X125669890Y-126878757D01*
X125669890Y-124338757D01*
X125769000Y-124338757D01*
X125769000Y-124581243D01*
X125816307Y-124819069D01*
X125909102Y-125043097D01*
X126043820Y-125244717D01*
X126215283Y-125416180D01*
X126416903Y-125550898D01*
X126640931Y-125643693D01*
X126878757Y-125691000D01*
X127121243Y-125691000D01*
X127359069Y-125643693D01*
X127583097Y-125550898D01*
X127784717Y-125416180D01*
X127956180Y-125244717D01*
X128090898Y-125043097D01*
X128183693Y-124819069D01*
X128231000Y-124581243D01*
X128231000Y-124338757D01*
X128183693Y-124100931D01*
X128090898Y-123876903D01*
X127956180Y-123675283D01*
X127784717Y-123503820D01*
X127583097Y-123369102D01*
X127359069Y-123276307D01*
X127121243Y-123229000D01*
X126878757Y-123229000D01*
X126640931Y-123276307D01*
X126416903Y-123369102D01*
X126215283Y-123503820D01*
X126043820Y-123675283D01*
X125909102Y-123876903D01*
X125816307Y-124100931D01*
X125769000Y-124338757D01*
X125669890Y-124338757D01*
X125669890Y-121798757D01*
X125769000Y-121798757D01*
X125769000Y-122041243D01*
X125816307Y-122279069D01*
X125909102Y-122503097D01*
X126043820Y-122704717D01*
X126215283Y-122876180D01*
X126416903Y-123010898D01*
X126640931Y-123103693D01*
X126878757Y-123151000D01*
X127121243Y-123151000D01*
X127359069Y-123103693D01*
X127583097Y-123010898D01*
X127784717Y-122876180D01*
X127956180Y-122704717D01*
X128090898Y-122503097D01*
X128183693Y-122279069D01*
X128231000Y-122041243D01*
X128231000Y-121798757D01*
X128183693Y-121560931D01*
X128090898Y-121336903D01*
X127956180Y-121135283D01*
X127784717Y-120963820D01*
X127583097Y-120829102D01*
X127359069Y-120736307D01*
X127121243Y-120689000D01*
X126878757Y-120689000D01*
X126640931Y-120736307D01*
X126416903Y-120829102D01*
X126215283Y-120963820D01*
X126043820Y-121135283D01*
X125909102Y-121336903D01*
X125816307Y-121560931D01*
X125769000Y-121798757D01*
X125669890Y-121798757D01*
X125669890Y-116718757D01*
X125769000Y-116718757D01*
X125769000Y-116961243D01*
X125816307Y-117199069D01*
X125909102Y-117423097D01*
X126043820Y-117624717D01*
X126215283Y-117796180D01*
X126416903Y-117930898D01*
X126640931Y-118023693D01*
X126878757Y-118071000D01*
X127121243Y-118071000D01*
X127359069Y-118023693D01*
X127583097Y-117930898D01*
X127784717Y-117796180D01*
X127956180Y-117624717D01*
X128090898Y-117423097D01*
X128183693Y-117199069D01*
X128231000Y-116961243D01*
X128231000Y-116718757D01*
X128183693Y-116480931D01*
X128090898Y-116256903D01*
X127956180Y-116055283D01*
X127784717Y-115883820D01*
X127583097Y-115749102D01*
X127359069Y-115656307D01*
X127121243Y-115609000D01*
X126878757Y-115609000D01*
X126640931Y-115656307D01*
X126416903Y-115749102D01*
X126215283Y-115883820D01*
X126043820Y-116055283D01*
X125909102Y-116256903D01*
X125816307Y-116480931D01*
X125769000Y-116718757D01*
X125669890Y-116718757D01*
X125669890Y-114178757D01*
X125769000Y-114178757D01*
X125769000Y-114421243D01*
X125816307Y-114659069D01*
X125909102Y-114883097D01*
X126043820Y-115084717D01*
X126215283Y-115256180D01*
X126416903Y-115390898D01*
X126640931Y-115483693D01*
X126878757Y-115531000D01*
X127121243Y-115531000D01*
X127359069Y-115483693D01*
X127583097Y-115390898D01*
X127784717Y-115256180D01*
X127956180Y-115084717D01*
X128090898Y-114883097D01*
X128183693Y-114659069D01*
X128231000Y-114421243D01*
X128231000Y-114178757D01*
X128183693Y-113940931D01*
X128090898Y-113716903D01*
X127956180Y-113515283D01*
X127784717Y-113343820D01*
X127583097Y-113209102D01*
X127359069Y-113116307D01*
X127121243Y-113069000D01*
X126878757Y-113069000D01*
X126640931Y-113116307D01*
X126416903Y-113209102D01*
X126215283Y-113343820D01*
X126043820Y-113515283D01*
X125909102Y-113716903D01*
X125816307Y-113940931D01*
X125769000Y-114178757D01*
X125669890Y-114178757D01*
X125669890Y-111638757D01*
X125769000Y-111638757D01*
X125769000Y-111881243D01*
X125816307Y-112119069D01*
X125909102Y-112343097D01*
X126043820Y-112544717D01*
X126215283Y-112716180D01*
X126416903Y-112850898D01*
X126640931Y-112943693D01*
X126878757Y-112991000D01*
X127121243Y-112991000D01*
X127359069Y-112943693D01*
X127583097Y-112850898D01*
X127607138Y-112834834D01*
X127610496Y-112842941D01*
X127695967Y-112970858D01*
X127804750Y-113079641D01*
X127932667Y-113165112D01*
X128074800Y-113223986D01*
X128225687Y-113253999D01*
X128369247Y-113253999D01*
X128420129Y-113295757D01*
X128508033Y-113342743D01*
X128603415Y-113371676D01*
X128677754Y-113378998D01*
X128677761Y-113378998D01*
X128702607Y-113381445D01*
X128719302Y-113379801D01*
X128583820Y-113515283D01*
X128449102Y-113716903D01*
X128356307Y-113940931D01*
X128309000Y-114178757D01*
X128309000Y-114421243D01*
X128356307Y-114659069D01*
X128449102Y-114883097D01*
X128583820Y-115084717D01*
X128755283Y-115256180D01*
X128956903Y-115390898D01*
X129180931Y-115483693D01*
X129418757Y-115531000D01*
X129661243Y-115531000D01*
X129899069Y-115483693D01*
X130123097Y-115390898D01*
X130324717Y-115256180D01*
X130496180Y-115084717D01*
X130630898Y-114883097D01*
X130723693Y-114659069D01*
X130770253Y-114425000D01*
X133779408Y-114425000D01*
X129976167Y-118228242D01*
X129899069Y-118196307D01*
X129661243Y-118149000D01*
X129418757Y-118149000D01*
X129180931Y-118196307D01*
X128956903Y-118289102D01*
X128943999Y-118297724D01*
X128943999Y-118151592D01*
X129103833Y-117991758D01*
X129180931Y-118023693D01*
X129418757Y-118071000D01*
X129661243Y-118071000D01*
X129899069Y-118023693D01*
X130123097Y-117930898D01*
X130324717Y-117796180D01*
X130496180Y-117624717D01*
X130630898Y-117423097D01*
X130723693Y-117199069D01*
X130771000Y-116961243D01*
X130771000Y-116718757D01*
X130723693Y-116480931D01*
X130630898Y-116256903D01*
X130496180Y-116055283D01*
X130324717Y-115883820D01*
X130123097Y-115749102D01*
X129899069Y-115656307D01*
X129661243Y-115609000D01*
X129418757Y-115609000D01*
X129180931Y-115656307D01*
X128956903Y-115749102D01*
X128755283Y-115883820D01*
X128583820Y-116055283D01*
X128449102Y-116256903D01*
X128356307Y-116480931D01*
X128309000Y-116718757D01*
X128309000Y-116961243D01*
X128356307Y-117199069D01*
X128388242Y-117276167D01*
X128097784Y-117566625D01*
X128078472Y-117582474D01*
X128015240Y-117659522D01*
X127968254Y-117747427D01*
X127939321Y-117842809D01*
X127931999Y-117917148D01*
X127931999Y-117917155D01*
X127929552Y-117942001D01*
X127931999Y-117966847D01*
X127931999Y-118571102D01*
X127784717Y-118423820D01*
X127583097Y-118289102D01*
X127359069Y-118196307D01*
X127121243Y-118149000D01*
X126878757Y-118149000D01*
X126640931Y-118196307D01*
X126416903Y-118289102D01*
X126215283Y-118423820D01*
X126043820Y-118595283D01*
X125909102Y-118796903D01*
X125816307Y-119020931D01*
X125769000Y-119258757D01*
X125769000Y-119501243D01*
X125816307Y-119739069D01*
X125909102Y-119963097D01*
X126043820Y-120164717D01*
X126215283Y-120336180D01*
X126416903Y-120470898D01*
X126640931Y-120563693D01*
X126878757Y-120611000D01*
X127121243Y-120611000D01*
X127359069Y-120563693D01*
X127583097Y-120470898D01*
X127784717Y-120336180D01*
X127956180Y-120164717D01*
X127981057Y-120127486D01*
X127984705Y-120134312D01*
X128015241Y-120191440D01*
X128078473Y-120268488D01*
X128097779Y-120284332D01*
X128635667Y-120822221D01*
X128651512Y-120841528D01*
X128728560Y-120904760D01*
X128792513Y-120938944D01*
X128755283Y-120963820D01*
X128583820Y-121135283D01*
X128449102Y-121336903D01*
X128356307Y-121560931D01*
X128309000Y-121798757D01*
X128309000Y-122041243D01*
X128356307Y-122279069D01*
X128449102Y-122503097D01*
X128583820Y-122704717D01*
X128755283Y-122876180D01*
X128956903Y-123010898D01*
X129180931Y-123103693D01*
X129418757Y-123151000D01*
X129661243Y-123151000D01*
X129899069Y-123103693D01*
X130123097Y-123010898D01*
X130324717Y-122876180D01*
X130496180Y-122704717D01*
X130630898Y-122503097D01*
X130662832Y-122426000D01*
X132673144Y-122426000D01*
X132697990Y-122428447D01*
X132722836Y-122426000D01*
X132722844Y-122426000D01*
X132797183Y-122418678D01*
X132892565Y-122389745D01*
X132980469Y-122342759D01*
X133057517Y-122279527D01*
X133073366Y-122260215D01*
X133919592Y-121413990D01*
X134061922Y-121413990D01*
X134212809Y-121383977D01*
X134354942Y-121325103D01*
X134482859Y-121239632D01*
X134591642Y-121130849D01*
X134677113Y-121002932D01*
X134735987Y-120860799D01*
X134766000Y-120709912D01*
X134766000Y-120556068D01*
X134735987Y-120405181D01*
X134677113Y-120263048D01*
X134591642Y-120135131D01*
X134482859Y-120026348D01*
X134354942Y-119940877D01*
X134212809Y-119882003D01*
X134061922Y-119851990D01*
X133908078Y-119851990D01*
X133757191Y-119882003D01*
X133615058Y-119940877D01*
X133487141Y-120026348D01*
X133378358Y-120135131D01*
X133292887Y-120263048D01*
X133234013Y-120405181D01*
X133204000Y-120556068D01*
X133204000Y-120698398D01*
X132488399Y-121414000D01*
X130662832Y-121414000D01*
X130630898Y-121336903D01*
X130496180Y-121135283D01*
X130324717Y-120963820D01*
X130287487Y-120938944D01*
X130351440Y-120904760D01*
X130428488Y-120841528D01*
X130444337Y-120822216D01*
X132650554Y-118616000D01*
X135691575Y-118616000D01*
X135646141Y-118646358D01*
X135537358Y-118755141D01*
X135451887Y-118883058D01*
X135393013Y-119025191D01*
X135363000Y-119176078D01*
X135363000Y-119329922D01*
X135393013Y-119480809D01*
X135451887Y-119622942D01*
X135537358Y-119750859D01*
X135646141Y-119859642D01*
X135774058Y-119945113D01*
X135916191Y-120003987D01*
X136067078Y-120034000D01*
X136209409Y-120034000D01*
X137162000Y-120986592D01*
X137162001Y-122210498D01*
X137061358Y-122311141D01*
X136975887Y-122439058D01*
X136917013Y-122581191D01*
X136887000Y-122732078D01*
X136887000Y-122885922D01*
X136917013Y-123036809D01*
X136944845Y-123104001D01*
X130414844Y-123104001D01*
X130389998Y-123101554D01*
X130365152Y-123104001D01*
X130365145Y-123104001D01*
X130300693Y-123110349D01*
X130290805Y-123111323D01*
X130219717Y-123132887D01*
X130195424Y-123140256D01*
X130107520Y-123187242D01*
X130030472Y-123250474D01*
X130014627Y-123269781D01*
X129976166Y-123308242D01*
X129899069Y-123276307D01*
X129661243Y-123229000D01*
X129418757Y-123229000D01*
X129180931Y-123276307D01*
X128956903Y-123369102D01*
X128755283Y-123503820D01*
X128583820Y-123675283D01*
X128449102Y-123876903D01*
X128356307Y-124100931D01*
X128309000Y-124338757D01*
X128309000Y-124581243D01*
X128356307Y-124819069D01*
X128449102Y-125043097D01*
X128583820Y-125244717D01*
X128755283Y-125416180D01*
X128956903Y-125550898D01*
X129180931Y-125643693D01*
X129418757Y-125691000D01*
X129661243Y-125691000D01*
X129899069Y-125643693D01*
X130123097Y-125550898D01*
X130324717Y-125416180D01*
X130496180Y-125244717D01*
X130630898Y-125043097D01*
X130723693Y-124819069D01*
X130771000Y-124581243D01*
X130771000Y-124338757D01*
X130726691Y-124116001D01*
X139106001Y-124116001D01*
X139106002Y-128538145D01*
X139103554Y-128563001D01*
X139113323Y-128662193D01*
X139142256Y-128757575D01*
X139142257Y-128757576D01*
X139174883Y-128818614D01*
X139173000Y-128828078D01*
X139173000Y-128981922D01*
X139203013Y-129132809D01*
X139261887Y-129274942D01*
X139347358Y-129402859D01*
X139456141Y-129511642D01*
X139584058Y-129597113D01*
X139726191Y-129655987D01*
X139877078Y-129686000D01*
X140030922Y-129686000D01*
X140181809Y-129655987D01*
X140323942Y-129597113D01*
X140451859Y-129511642D01*
X140560642Y-129402859D01*
X140646113Y-129274942D01*
X140704987Y-129132809D01*
X140735000Y-128981922D01*
X140735000Y-128828078D01*
X140704987Y-128677191D01*
X140646113Y-128535058D01*
X140560642Y-128407141D01*
X140451859Y-128298358D01*
X140323942Y-128212887D01*
X140181809Y-128154013D01*
X140118001Y-128141321D01*
X140118001Y-123945800D01*
X140161760Y-123892480D01*
X140208746Y-123804576D01*
X140237679Y-123709194D01*
X140247449Y-123610001D01*
X140237679Y-123510808D01*
X140208746Y-123415426D01*
X140161760Y-123327522D01*
X140118001Y-123274202D01*
X140118001Y-121111855D01*
X140120449Y-121087001D01*
X140110679Y-120987808D01*
X140081746Y-120892426D01*
X140064841Y-120860799D01*
X140034760Y-120804522D01*
X139971528Y-120727474D01*
X139952221Y-120711629D01*
X138449000Y-119208409D01*
X138449000Y-119066078D01*
X138418987Y-118915191D01*
X138360113Y-118773058D01*
X138274642Y-118645141D01*
X138245501Y-118616000D01*
X143494411Y-118616000D01*
X143519257Y-118618447D01*
X143544103Y-118616000D01*
X143544111Y-118616000D01*
X143618450Y-118608678D01*
X143713832Y-118579745D01*
X143801736Y-118532759D01*
X143878784Y-118469527D01*
X143894633Y-118450215D01*
X144208314Y-118136534D01*
X144281361Y-118245858D01*
X144390144Y-118354641D01*
X144518061Y-118440112D01*
X144660194Y-118498986D01*
X144811081Y-118528999D01*
X144964925Y-118528999D01*
X145115812Y-118498986D01*
X145257945Y-118440112D01*
X145385862Y-118354641D01*
X145494645Y-118245858D01*
X145580116Y-118117941D01*
X145638990Y-117975808D01*
X145663219Y-117854000D01*
X147198597Y-117854000D01*
X147133412Y-117907496D01*
X147117568Y-117926802D01*
X145662371Y-119382000D01*
X141822495Y-119382000D01*
X141721853Y-119281358D01*
X141593936Y-119195887D01*
X141451803Y-119137013D01*
X141300916Y-119107000D01*
X141147072Y-119107000D01*
X140996185Y-119137013D01*
X140854052Y-119195887D01*
X140726135Y-119281358D01*
X140617352Y-119390141D01*
X140531881Y-119518058D01*
X140473007Y-119660191D01*
X140442994Y-119811078D01*
X140442994Y-119964922D01*
X140473007Y-120115809D01*
X140531881Y-120257942D01*
X140617352Y-120385859D01*
X140726135Y-120494642D01*
X140854052Y-120580113D01*
X140996185Y-120638987D01*
X141147072Y-120669000D01*
X141300916Y-120669000D01*
X141451803Y-120638987D01*
X141593936Y-120580113D01*
X141721853Y-120494642D01*
X141822495Y-120394000D01*
X144858612Y-120394000D01*
X144849887Y-120407058D01*
X144791013Y-120549191D01*
X144761000Y-120700078D01*
X144761000Y-120853922D01*
X144791013Y-121004809D01*
X144849887Y-121146942D01*
X144935358Y-121274859D01*
X145036001Y-121375502D01*
X145036000Y-122345408D01*
X143956409Y-123425000D01*
X143814078Y-123425000D01*
X143663191Y-123455013D01*
X143521058Y-123513887D01*
X143393141Y-123599358D01*
X143284358Y-123708141D01*
X143198887Y-123836058D01*
X143140013Y-123978191D01*
X143110000Y-124129078D01*
X143110000Y-124282922D01*
X143140013Y-124433809D01*
X143198887Y-124575942D01*
X143284358Y-124703859D01*
X143393141Y-124812642D01*
X143521058Y-124898113D01*
X143663191Y-124956987D01*
X143814078Y-124987000D01*
X143967922Y-124987000D01*
X144118809Y-124956987D01*
X144260942Y-124898113D01*
X144388859Y-124812642D01*
X144497642Y-124703859D01*
X144583113Y-124575942D01*
X144641987Y-124433809D01*
X144672000Y-124282922D01*
X144672000Y-124140591D01*
X145882220Y-122930372D01*
X145901527Y-122914527D01*
X145964759Y-122837479D01*
X146011745Y-122749575D01*
X146040678Y-122654193D01*
X146048000Y-122579854D01*
X146048000Y-122579853D01*
X146050448Y-122555000D01*
X146048000Y-122530146D01*
X146048000Y-121375501D01*
X146148642Y-121274859D01*
X146234113Y-121146942D01*
X146292987Y-121004809D01*
X146323000Y-120853922D01*
X146323000Y-120700078D01*
X146292987Y-120549191D01*
X146234113Y-120407058D01*
X146164340Y-120302635D01*
X146231489Y-120247527D01*
X146247338Y-120228215D01*
X147702531Y-118773023D01*
X151325058Y-118773023D01*
X151309102Y-118796903D01*
X151216307Y-119020931D01*
X151169000Y-119258757D01*
X151169000Y-119501243D01*
X151216307Y-119739069D01*
X151309102Y-119963097D01*
X151443820Y-120164717D01*
X151615283Y-120336180D01*
X151816903Y-120470898D01*
X151931168Y-120518228D01*
X151768748Y-120575843D01*
X151518645Y-120724822D01*
X151302412Y-120919731D01*
X151128359Y-121153080D01*
X151003175Y-121415901D01*
X150958524Y-121563110D01*
X151079845Y-121793000D01*
X152273000Y-121793000D01*
X152273000Y-121773000D01*
X152527000Y-121773000D01*
X152527000Y-121793000D01*
X152547000Y-121793000D01*
X152547000Y-122047000D01*
X152527000Y-122047000D01*
X152527000Y-122067000D01*
X152273000Y-122067000D01*
X152273000Y-122047000D01*
X151079845Y-122047000D01*
X150958524Y-122276890D01*
X151003175Y-122424099D01*
X151081719Y-122589001D01*
X148963844Y-122589001D01*
X148938998Y-122586554D01*
X148914152Y-122589001D01*
X148914145Y-122589001D01*
X148849693Y-122595349D01*
X148839805Y-122596323D01*
X148823596Y-122601240D01*
X148744424Y-122625256D01*
X148656520Y-122672242D01*
X148579472Y-122735474D01*
X148563627Y-122754781D01*
X148274408Y-123044000D01*
X148132078Y-123044000D01*
X147981191Y-123074013D01*
X147839058Y-123132887D01*
X147711141Y-123218358D01*
X147699000Y-123230499D01*
X147699000Y-121121501D01*
X147799642Y-121020859D01*
X147885113Y-120892942D01*
X147943987Y-120750809D01*
X147974000Y-120599922D01*
X147974000Y-120446078D01*
X147943987Y-120295191D01*
X147885113Y-120153058D01*
X147799642Y-120025141D01*
X147690859Y-119916358D01*
X147562942Y-119830887D01*
X147420809Y-119772013D01*
X147269922Y-119742000D01*
X147116078Y-119742000D01*
X146965191Y-119772013D01*
X146823058Y-119830887D01*
X146695141Y-119916358D01*
X146586358Y-120025141D01*
X146500887Y-120153058D01*
X146442013Y-120295191D01*
X146412000Y-120446078D01*
X146412000Y-120599922D01*
X146442013Y-120750809D01*
X146500887Y-120892942D01*
X146586358Y-121020859D01*
X146687001Y-121121502D01*
X146687000Y-129889446D01*
X143751446Y-132825001D01*
X140873760Y-132825001D01*
X140879212Y-132820527D01*
X140895061Y-132801215D01*
X142453220Y-131243057D01*
X142472527Y-131227212D01*
X142535759Y-131150164D01*
X142582745Y-131062260D01*
X142611678Y-130966878D01*
X142619000Y-130892539D01*
X142619000Y-130892538D01*
X142621448Y-130867685D01*
X142619000Y-130842831D01*
X142619000Y-127725501D01*
X142719642Y-127624859D01*
X142805113Y-127496942D01*
X142863987Y-127354809D01*
X142894000Y-127203922D01*
X142894000Y-127050078D01*
X142863987Y-126899191D01*
X142805113Y-126757058D01*
X142719642Y-126629141D01*
X142610859Y-126520358D01*
X142482942Y-126434887D01*
X142340809Y-126376013D01*
X142189922Y-126346000D01*
X142036078Y-126346000D01*
X141885191Y-126376013D01*
X141743058Y-126434887D01*
X141615141Y-126520358D01*
X141506358Y-126629141D01*
X141420887Y-126757058D01*
X141362013Y-126899191D01*
X141332000Y-127050078D01*
X141332000Y-127203922D01*
X141362013Y-127354809D01*
X141420887Y-127496942D01*
X141506358Y-127624859D01*
X141607001Y-127725502D01*
X141607000Y-130658093D01*
X140310094Y-131955000D01*
X137813937Y-131955000D01*
X137859359Y-131924650D01*
X137968142Y-131815867D01*
X138053613Y-131687950D01*
X138112487Y-131545817D01*
X138142500Y-131394930D01*
X138142500Y-131241086D01*
X138112487Y-131090199D01*
X138053613Y-130948066D01*
X137968142Y-130820149D01*
X137859359Y-130711366D01*
X137731442Y-130625895D01*
X137589309Y-130567021D01*
X137438422Y-130537008D01*
X137294864Y-130537008D01*
X137243972Y-130495242D01*
X137156068Y-130448256D01*
X137060686Y-130419323D01*
X136986347Y-130412001D01*
X136986339Y-130412001D01*
X136961493Y-130409554D01*
X136936647Y-130412001D01*
X130408896Y-130412001D01*
X130496180Y-130324717D01*
X130630898Y-130123097D01*
X130723693Y-129899069D01*
X130771000Y-129661243D01*
X130771000Y-129418757D01*
X130723693Y-129180931D01*
X130630898Y-128956903D01*
X130496180Y-128755283D01*
X130324717Y-128583820D01*
X130123097Y-128449102D01*
X129899069Y-128356307D01*
X129661243Y-128309000D01*
X129418757Y-128309000D01*
X129180931Y-128356307D01*
X128956903Y-128449102D01*
X128755283Y-128583820D01*
X128583820Y-128755283D01*
X128449102Y-128956903D01*
X128356307Y-129180931D01*
X128309000Y-129418757D01*
X128309000Y-129661243D01*
X128356307Y-129899069D01*
X128449102Y-130123097D01*
X128583820Y-130324717D01*
X128671104Y-130412001D01*
X127868896Y-130412001D01*
X127956180Y-130324717D01*
X128090898Y-130123097D01*
X128183693Y-129899069D01*
X128231000Y-129661243D01*
X128231000Y-129418757D01*
X128183693Y-129180931D01*
X128090898Y-128956903D01*
X127956180Y-128755283D01*
X127784717Y-128583820D01*
X127583097Y-128449102D01*
X127359069Y-128356307D01*
X127121243Y-128309000D01*
X126878757Y-128309000D01*
X126640931Y-128356307D01*
X126416903Y-128449102D01*
X126215283Y-128583820D01*
X126043820Y-128755283D01*
X125909102Y-128956903D01*
X125816307Y-129180931D01*
X125769000Y-129418757D01*
X125769000Y-129661243D01*
X125816307Y-129899069D01*
X125909102Y-130123097D01*
X126043820Y-130324717D01*
X126215283Y-130496180D01*
X126416903Y-130630898D01*
X126623872Y-130716627D01*
X126520358Y-130820141D01*
X126434887Y-130948058D01*
X126376013Y-131090191D01*
X126346000Y-131241078D01*
X126346000Y-131394922D01*
X126376013Y-131545809D01*
X126434887Y-131687942D01*
X126520358Y-131815859D01*
X126629141Y-131924642D01*
X126757058Y-132010113D01*
X126899191Y-132068987D01*
X127050078Y-132099000D01*
X127203922Y-132099000D01*
X127354809Y-132068987D01*
X127496942Y-132010113D01*
X127624859Y-131924642D01*
X127733642Y-131815859D01*
X127819113Y-131687942D01*
X127877987Y-131545809D01*
X127902216Y-131424001D01*
X131814773Y-131424001D01*
X131802616Y-131438814D01*
X128945785Y-134295646D01*
X128926473Y-134311495D01*
X128863241Y-134388543D01*
X128816255Y-134476448D01*
X128787322Y-134571830D01*
X128780000Y-134646169D01*
X128780000Y-134646176D01*
X128777553Y-134671022D01*
X128780000Y-134695869D01*
X128780000Y-135164499D01*
X128679358Y-135265141D01*
X128593887Y-135393058D01*
X128535013Y-135535191D01*
X128505000Y-135686078D01*
X128505000Y-135839922D01*
X128535013Y-135990809D01*
X128593887Y-136132942D01*
X128679358Y-136260859D01*
X128788141Y-136369642D01*
X128916058Y-136455113D01*
X129058191Y-136513987D01*
X129209078Y-136544000D01*
X129362922Y-136544000D01*
X129513809Y-136513987D01*
X129655942Y-136455113D01*
X129783859Y-136369642D01*
X129892642Y-136260859D01*
X129978113Y-136132942D01*
X130036987Y-135990809D01*
X130067000Y-135839922D01*
X130067000Y-135686078D01*
X130036987Y-135535191D01*
X129978113Y-135393058D01*
X129892642Y-135265141D01*
X129792000Y-135164499D01*
X129792000Y-134880613D01*
X130782047Y-133890567D01*
X130812001Y-133935397D01*
X130812000Y-137196499D01*
X130711358Y-137297141D01*
X130625887Y-137425058D01*
X130567013Y-137567191D01*
X130537000Y-137718078D01*
X130537000Y-137871922D01*
X130567013Y-138022809D01*
X130625887Y-138164942D01*
X130711358Y-138292859D01*
X130820141Y-138401642D01*
X130948058Y-138487113D01*
X131090191Y-138545987D01*
X131241078Y-138576000D01*
X131394922Y-138576000D01*
X131545809Y-138545987D01*
X131687942Y-138487113D01*
X131815859Y-138401642D01*
X131924642Y-138292859D01*
X132010113Y-138164942D01*
X132068987Y-138022809D01*
X132099000Y-137871922D01*
X132099000Y-137718078D01*
X132068987Y-137567191D01*
X132010113Y-137425058D01*
X132000420Y-137410551D01*
X132091059Y-137471114D01*
X132233192Y-137529988D01*
X132384079Y-137560001D01*
X132537923Y-137560001D01*
X132688810Y-137529988D01*
X132830943Y-137471114D01*
X132958860Y-137385643D01*
X133067643Y-137276860D01*
X133153114Y-137148943D01*
X133211988Y-137006810D01*
X133242001Y-136855923D01*
X133242001Y-136713590D01*
X133559592Y-136396000D01*
X135658690Y-136396000D01*
X135647013Y-136424191D01*
X135617000Y-136575078D01*
X135617000Y-136728922D01*
X135647013Y-136879809D01*
X135705887Y-137021942D01*
X135791358Y-137149859D01*
X135900141Y-137258642D01*
X136028058Y-137344113D01*
X136170191Y-137402987D01*
X136181682Y-137405273D01*
X136551108Y-137774699D01*
X136475126Y-137719881D01*
X136252024Y-137799724D01*
X136064236Y-137921631D01*
X135903839Y-138077831D01*
X135776997Y-138262322D01*
X135688585Y-138468013D01*
X135642000Y-138687000D01*
X135642000Y-139237000D01*
X136650000Y-139237000D01*
X136650000Y-139217000D01*
X136904000Y-139217000D01*
X136904000Y-139237000D01*
X136924000Y-139237000D01*
X136924000Y-139491000D01*
X136904000Y-139491000D01*
X136904000Y-140881954D01*
X137078874Y-141008119D01*
X137301976Y-140928276D01*
X137489764Y-140806369D01*
X137650161Y-140650169D01*
X137777003Y-140465678D01*
X137780307Y-140457992D01*
X137872584Y-140519649D01*
X138001067Y-140572869D01*
X138137465Y-140600000D01*
X138276535Y-140600000D01*
X138412933Y-140572869D01*
X138541416Y-140519649D01*
X138657049Y-140442386D01*
X138755386Y-140344049D01*
X138761354Y-140335117D01*
X138839358Y-140451859D01*
X138948141Y-140560642D01*
X139076058Y-140646113D01*
X139218191Y-140704987D01*
X139369078Y-140735000D01*
X139522922Y-140735000D01*
X139673809Y-140704987D01*
X139815942Y-140646113D01*
X139943859Y-140560642D01*
X140052642Y-140451859D01*
X140113527Y-140360738D01*
X140150887Y-140450932D01*
X140236358Y-140578849D01*
X140345141Y-140687632D01*
X140473058Y-140773103D01*
X140615191Y-140831977D01*
X140766078Y-140861990D01*
X140919922Y-140861990D01*
X141070809Y-140831977D01*
X141212942Y-140773103D01*
X141340859Y-140687632D01*
X141422105Y-140606386D01*
X141548511Y-140606386D01*
X141649153Y-140707028D01*
X141777070Y-140792499D01*
X141919203Y-140851373D01*
X142070090Y-140881386D01*
X142223934Y-140881386D01*
X142374821Y-140851373D01*
X142516954Y-140792499D01*
X142644871Y-140707028D01*
X142753654Y-140598245D01*
X142839125Y-140470328D01*
X142897999Y-140328195D01*
X142928012Y-140177308D01*
X142928012Y-140023464D01*
X142897999Y-139872577D01*
X142878071Y-139824465D01*
X143281000Y-139824465D01*
X143281000Y-139963535D01*
X143308131Y-140099933D01*
X143361351Y-140228416D01*
X143438614Y-140344049D01*
X143536951Y-140442386D01*
X143652584Y-140519649D01*
X143781067Y-140572869D01*
X143917465Y-140600000D01*
X144056535Y-140600000D01*
X144192933Y-140572869D01*
X144321416Y-140519649D01*
X144413693Y-140457992D01*
X144416997Y-140465678D01*
X144543839Y-140650169D01*
X144704236Y-140806369D01*
X144892024Y-140928276D01*
X145115126Y-141008119D01*
X145290000Y-140881954D01*
X145290000Y-139491000D01*
X145544000Y-139491000D01*
X145544000Y-140881954D01*
X145718874Y-141008119D01*
X145941976Y-140928276D01*
X146129764Y-140806369D01*
X146290161Y-140650169D01*
X146417003Y-140465678D01*
X146505415Y-140259987D01*
X146552000Y-140041000D01*
X146552000Y-139491000D01*
X145544000Y-139491000D01*
X145290000Y-139491000D01*
X145270000Y-139491000D01*
X145270000Y-139237000D01*
X145290000Y-139237000D01*
X145290000Y-137846046D01*
X145544000Y-137846046D01*
X145544000Y-139237000D01*
X146552000Y-139237000D01*
X146552000Y-138687000D01*
X146505415Y-138468013D01*
X146417003Y-138262322D01*
X146290161Y-138077831D01*
X146129764Y-137921631D01*
X145941976Y-137799724D01*
X145718874Y-137719881D01*
X145544000Y-137846046D01*
X145290000Y-137846046D01*
X145115126Y-137719881D01*
X144892024Y-137799724D01*
X144704236Y-137921631D01*
X144543839Y-138077831D01*
X144416997Y-138262322D01*
X144328585Y-138468013D01*
X144282000Y-138687000D01*
X144282000Y-139252024D01*
X144192933Y-139215131D01*
X144056535Y-139188000D01*
X143917465Y-139188000D01*
X143781067Y-139215131D01*
X143652584Y-139268351D01*
X143536951Y-139345614D01*
X143438614Y-139443951D01*
X143361351Y-139559584D01*
X143308131Y-139688067D01*
X143281000Y-139824465D01*
X142878071Y-139824465D01*
X142839125Y-139730444D01*
X142753654Y-139602527D01*
X142644871Y-139493744D01*
X142516954Y-139408273D01*
X142374821Y-139349399D01*
X142223934Y-139319386D01*
X142070090Y-139319386D01*
X141919203Y-139349399D01*
X141777070Y-139408273D01*
X141649153Y-139493744D01*
X141548511Y-139594386D01*
X141457162Y-139594386D01*
X141449642Y-139583131D01*
X141340859Y-139474348D01*
X141212942Y-139388877D01*
X141070809Y-139330003D01*
X140919922Y-139299990D01*
X140766078Y-139299990D01*
X140615191Y-139330003D01*
X140473058Y-139388877D01*
X140345141Y-139474348D01*
X140236358Y-139583131D01*
X140175473Y-139674252D01*
X140138113Y-139584058D01*
X140052642Y-139456141D01*
X139943859Y-139347358D01*
X139815942Y-139261887D01*
X139673809Y-139203013D01*
X139522922Y-139173000D01*
X139380592Y-139173000D01*
X137130948Y-136923357D01*
X137148987Y-136879809D01*
X137179000Y-136728922D01*
X137179000Y-136575078D01*
X137148987Y-136424191D01*
X137137310Y-136396000D01*
X141641499Y-136396000D01*
X141742141Y-136496642D01*
X141870058Y-136582113D01*
X142012191Y-136640987D01*
X142163078Y-136671000D01*
X142316922Y-136671000D01*
X142467809Y-136640987D01*
X142609942Y-136582113D01*
X142737859Y-136496642D01*
X142846642Y-136387859D01*
X142932113Y-136259942D01*
X142990987Y-136117809D01*
X143021000Y-135966922D01*
X143021000Y-135813078D01*
X143006769Y-135741533D01*
X144007196Y-134491000D01*
X146340499Y-134491000D01*
X146441141Y-134591642D01*
X146569058Y-134677113D01*
X146711191Y-134735987D01*
X146862078Y-134766000D01*
X147015922Y-134766000D01*
X147166809Y-134735987D01*
X147308942Y-134677113D01*
X147436859Y-134591642D01*
X147545642Y-134482859D01*
X147631113Y-134354942D01*
X147689987Y-134212809D01*
X147720000Y-134061922D01*
X147720000Y-133908078D01*
X147689987Y-133757191D01*
X147631113Y-133615058D01*
X147545642Y-133487141D01*
X147436859Y-133378358D01*
X147308942Y-133292887D01*
X147166809Y-133234013D01*
X147015922Y-133204000D01*
X146862078Y-133204000D01*
X146711191Y-133234013D01*
X146569058Y-133292887D01*
X146441141Y-133378358D01*
X146340499Y-133479000D01*
X144528629Y-133479000D01*
X147533220Y-130474410D01*
X147552527Y-130458565D01*
X147615759Y-130381517D01*
X147662745Y-130293613D01*
X147691678Y-130198231D01*
X147699000Y-130123892D01*
X147699000Y-130123891D01*
X147701448Y-130099038D01*
X147699000Y-130074184D01*
X147699000Y-129357425D01*
X147729358Y-129402859D01*
X147838141Y-129511642D01*
X147966058Y-129597113D01*
X148108191Y-129655987D01*
X148259078Y-129686000D01*
X148412922Y-129686000D01*
X148563809Y-129655987D01*
X148705942Y-129597113D01*
X148833859Y-129511642D01*
X148942642Y-129402859D01*
X149028113Y-129274942D01*
X149086987Y-129132809D01*
X149117000Y-128981922D01*
X149117000Y-128870999D01*
X151366501Y-128870999D01*
X151309102Y-128956903D01*
X151216307Y-129180931D01*
X151169000Y-129418757D01*
X151169000Y-129661243D01*
X151216307Y-129899069D01*
X151309102Y-130123097D01*
X151443820Y-130324717D01*
X151615283Y-130496180D01*
X151816903Y-130630898D01*
X152040931Y-130723693D01*
X152278757Y-130771000D01*
X152521243Y-130771000D01*
X152759069Y-130723693D01*
X152983097Y-130630898D01*
X153184717Y-130496180D01*
X153356180Y-130324717D01*
X153490898Y-130123097D01*
X153583693Y-129899069D01*
X153631000Y-129661243D01*
X153631000Y-129418757D01*
X153583693Y-129180931D01*
X153490898Y-128956903D01*
X153433499Y-128870999D01*
X153555408Y-128870999D01*
X153788242Y-129103833D01*
X153756307Y-129180931D01*
X153709000Y-129418757D01*
X153709000Y-129661243D01*
X153756307Y-129899069D01*
X153849102Y-130123097D01*
X153983820Y-130324717D01*
X154155283Y-130496180D01*
X154356903Y-130630898D01*
X154580931Y-130723693D01*
X154818757Y-130771000D01*
X155061243Y-130771000D01*
X155299069Y-130723693D01*
X155523097Y-130630898D01*
X155724717Y-130496180D01*
X155896180Y-130324717D01*
X156030898Y-130123097D01*
X156123693Y-129899069D01*
X156171000Y-129661243D01*
X156171000Y-129418757D01*
X156123693Y-129180931D01*
X156030898Y-128956903D01*
X155896180Y-128755283D01*
X155724717Y-128583820D01*
X155523097Y-128449102D01*
X155299069Y-128356307D01*
X155061243Y-128309000D01*
X154818757Y-128309000D01*
X154580931Y-128356307D01*
X154503833Y-128388242D01*
X154140375Y-128024784D01*
X154124526Y-128005472D01*
X154047478Y-127942240D01*
X153959574Y-127895254D01*
X153864192Y-127866321D01*
X153789853Y-127858999D01*
X153789845Y-127858999D01*
X153764999Y-127856552D01*
X153740153Y-127858999D01*
X153281898Y-127858999D01*
X153356180Y-127784717D01*
X153490898Y-127583097D01*
X153583693Y-127359069D01*
X153631000Y-127121243D01*
X153631000Y-126878757D01*
X153583693Y-126640931D01*
X153490898Y-126416903D01*
X153433499Y-126330999D01*
X153555408Y-126330999D01*
X153788242Y-126563833D01*
X153756307Y-126640931D01*
X153709000Y-126878757D01*
X153709000Y-127121243D01*
X153756307Y-127359069D01*
X153849102Y-127583097D01*
X153983820Y-127784717D01*
X154155283Y-127956180D01*
X154356903Y-128090898D01*
X154580931Y-128183693D01*
X154818757Y-128231000D01*
X155061243Y-128231000D01*
X155299069Y-128183693D01*
X155523097Y-128090898D01*
X155724717Y-127956180D01*
X155896180Y-127784717D01*
X156030898Y-127583097D01*
X156123693Y-127359069D01*
X156171000Y-127121243D01*
X156171000Y-126878757D01*
X156123693Y-126640931D01*
X156030898Y-126416903D01*
X155896180Y-126215283D01*
X155724717Y-126043820D01*
X155523097Y-125909102D01*
X155299069Y-125816307D01*
X155061243Y-125769000D01*
X154818757Y-125769000D01*
X154580931Y-125816307D01*
X154503833Y-125848242D01*
X154140375Y-125484784D01*
X154124526Y-125465472D01*
X154047478Y-125402240D01*
X153959574Y-125355254D01*
X153864192Y-125326321D01*
X153789853Y-125318999D01*
X153789845Y-125318999D01*
X153764999Y-125316552D01*
X153740153Y-125318999D01*
X153281898Y-125318999D01*
X153356180Y-125244717D01*
X153490898Y-125043097D01*
X153583693Y-124819069D01*
X153631000Y-124581243D01*
X153631000Y-124338757D01*
X153583693Y-124100931D01*
X153490898Y-123876903D01*
X153356180Y-123675283D01*
X153281898Y-123601001D01*
X153365410Y-123601001D01*
X153788242Y-124023833D01*
X153756307Y-124100931D01*
X153709000Y-124338757D01*
X153709000Y-124581243D01*
X153756307Y-124819069D01*
X153849102Y-125043097D01*
X153983820Y-125244717D01*
X154155283Y-125416180D01*
X154356903Y-125550898D01*
X154580931Y-125643693D01*
X154818757Y-125691000D01*
X155061243Y-125691000D01*
X155299069Y-125643693D01*
X155523097Y-125550898D01*
X155724717Y-125416180D01*
X155896180Y-125244717D01*
X156030898Y-125043097D01*
X156123693Y-124819069D01*
X156171000Y-124581243D01*
X156171000Y-124338757D01*
X156123693Y-124100931D01*
X156030898Y-123876903D01*
X155896180Y-123675283D01*
X155724717Y-123503820D01*
X155523097Y-123369102D01*
X155299069Y-123276307D01*
X155061243Y-123229000D01*
X154818757Y-123229000D01*
X154580931Y-123276307D01*
X154503833Y-123308242D01*
X153950377Y-122754786D01*
X153934528Y-122735474D01*
X153857480Y-122672242D01*
X153769576Y-122625256D01*
X153709668Y-122607084D01*
X153796825Y-122424099D01*
X153805091Y-122396846D01*
X153849102Y-122503097D01*
X153983820Y-122704717D01*
X154155283Y-122876180D01*
X154356903Y-123010898D01*
X154580931Y-123103693D01*
X154818757Y-123151000D01*
X155061243Y-123151000D01*
X155299069Y-123103693D01*
X155523097Y-123010898D01*
X155724717Y-122876180D01*
X155896180Y-122704717D01*
X156030898Y-122503097D01*
X156123693Y-122279069D01*
X156171000Y-122041243D01*
X156171000Y-121798757D01*
X156123693Y-121560931D01*
X156030898Y-121336903D01*
X155896180Y-121135283D01*
X155724717Y-120963820D01*
X155523097Y-120829102D01*
X155299069Y-120736307D01*
X155061243Y-120689000D01*
X154818757Y-120689000D01*
X154580931Y-120736307D01*
X154356903Y-120829102D01*
X154155283Y-120963820D01*
X153983820Y-121135283D01*
X153849102Y-121336903D01*
X153805091Y-121443154D01*
X153796825Y-121415901D01*
X153671641Y-121153080D01*
X153497588Y-120919731D01*
X153281355Y-120724822D01*
X153031252Y-120575843D01*
X152868832Y-120518228D01*
X152983097Y-120470898D01*
X153184717Y-120336180D01*
X153356180Y-120164717D01*
X153490898Y-119963097D01*
X153583693Y-119739069D01*
X153631000Y-119501243D01*
X153631000Y-119258757D01*
X153709000Y-119258757D01*
X153709000Y-119501243D01*
X153756307Y-119739069D01*
X153849102Y-119963097D01*
X153983820Y-120164717D01*
X154155283Y-120336180D01*
X154356903Y-120470898D01*
X154580931Y-120563693D01*
X154818757Y-120611000D01*
X155061243Y-120611000D01*
X155299069Y-120563693D01*
X155523097Y-120470898D01*
X155724717Y-120336180D01*
X155896180Y-120164717D01*
X156030898Y-119963097D01*
X156123693Y-119739069D01*
X156171000Y-119501243D01*
X156171000Y-119258757D01*
X156123693Y-119020931D01*
X156030898Y-118796903D01*
X155896180Y-118595283D01*
X155724717Y-118423820D01*
X155523097Y-118289102D01*
X155299069Y-118196307D01*
X155061243Y-118149000D01*
X154818757Y-118149000D01*
X154580931Y-118196307D01*
X154356903Y-118289102D01*
X154155283Y-118423820D01*
X153983820Y-118595283D01*
X153849102Y-118796903D01*
X153756307Y-119020931D01*
X153709000Y-119258757D01*
X153631000Y-119258757D01*
X153583693Y-119020931D01*
X153490898Y-118796903D01*
X153474942Y-118773023D01*
X153488131Y-118773023D01*
X153512977Y-118775470D01*
X153537823Y-118773023D01*
X153537831Y-118773023D01*
X153612170Y-118765701D01*
X153707552Y-118736768D01*
X153795456Y-118689782D01*
X153872504Y-118626550D01*
X153888353Y-118607238D01*
X154503833Y-117991758D01*
X154580931Y-118023693D01*
X154818757Y-118071000D01*
X155061243Y-118071000D01*
X155299069Y-118023693D01*
X155523097Y-117930898D01*
X155724717Y-117796180D01*
X155896180Y-117624717D01*
X156030898Y-117423097D01*
X156123693Y-117199069D01*
X156171000Y-116961243D01*
X156171000Y-116718757D01*
X156123693Y-116480931D01*
X156030898Y-116256903D01*
X155896180Y-116055283D01*
X155724717Y-115883820D01*
X155523097Y-115749102D01*
X155299069Y-115656307D01*
X155061243Y-115609000D01*
X154818757Y-115609000D01*
X154580931Y-115656307D01*
X154356903Y-115749102D01*
X154155283Y-115883820D01*
X153983820Y-116055283D01*
X153849102Y-116256903D01*
X153756307Y-116480931D01*
X153709000Y-116718757D01*
X153709000Y-116961243D01*
X153756307Y-117199069D01*
X153788242Y-117276167D01*
X153303386Y-117761023D01*
X153219874Y-117761023D01*
X153356180Y-117624717D01*
X153490898Y-117423097D01*
X153583693Y-117199069D01*
X153631000Y-116961243D01*
X153631000Y-116718757D01*
X153583693Y-116480931D01*
X153490898Y-116256903D01*
X153356180Y-116055283D01*
X153208898Y-115908001D01*
X153813153Y-115908001D01*
X153837999Y-115910448D01*
X153862845Y-115908001D01*
X153862853Y-115908001D01*
X153937192Y-115900679D01*
X154032574Y-115871746D01*
X154120478Y-115824760D01*
X154197526Y-115761528D01*
X154213375Y-115742216D01*
X154503833Y-115451758D01*
X154580931Y-115483693D01*
X154818757Y-115531000D01*
X155061243Y-115531000D01*
X155299069Y-115483693D01*
X155523097Y-115390898D01*
X155724717Y-115256180D01*
X155896180Y-115084717D01*
X156030898Y-114883097D01*
X156123693Y-114659069D01*
X156171000Y-114421243D01*
X156171000Y-114178757D01*
X156123693Y-113940931D01*
X156030898Y-113716903D01*
X155896180Y-113515283D01*
X155724717Y-113343820D01*
X155523097Y-113209102D01*
X155299069Y-113116307D01*
X155061243Y-113069000D01*
X154818757Y-113069000D01*
X154580931Y-113116307D01*
X154356903Y-113209102D01*
X154155283Y-113343820D01*
X153983820Y-113515283D01*
X153849102Y-113716903D01*
X153756307Y-113940931D01*
X153709000Y-114178757D01*
X153709000Y-114421243D01*
X153756307Y-114659069D01*
X153788242Y-114736167D01*
X153628408Y-114896001D01*
X153482276Y-114896001D01*
X153490898Y-114883097D01*
X153583693Y-114659069D01*
X153631000Y-114421243D01*
X153631000Y-114178757D01*
X153583693Y-113940931D01*
X153490898Y-113716903D01*
X153356180Y-113515283D01*
X153208898Y-113368001D01*
X153813153Y-113368001D01*
X153837999Y-113370448D01*
X153862845Y-113368001D01*
X153862853Y-113368001D01*
X153937192Y-113360679D01*
X154032574Y-113331746D01*
X154120478Y-113284760D01*
X154197526Y-113221528D01*
X154213375Y-113202216D01*
X154503833Y-112911758D01*
X154580931Y-112943693D01*
X154818757Y-112991000D01*
X155061243Y-112991000D01*
X155299069Y-112943693D01*
X155523097Y-112850898D01*
X155724717Y-112716180D01*
X155896180Y-112544717D01*
X156030898Y-112343097D01*
X156123693Y-112119069D01*
X156171000Y-111881243D01*
X156171000Y-111638757D01*
X156123693Y-111400931D01*
X156030898Y-111176903D01*
X155896180Y-110975283D01*
X155724717Y-110803820D01*
X155523097Y-110669102D01*
X155299069Y-110576307D01*
X155061243Y-110529000D01*
X154818757Y-110529000D01*
X154580931Y-110576307D01*
X154356903Y-110669102D01*
X154155283Y-110803820D01*
X153983820Y-110975283D01*
X153849102Y-111176903D01*
X153756307Y-111400931D01*
X153709000Y-111638757D01*
X153709000Y-111881243D01*
X153756307Y-112119069D01*
X153788242Y-112196167D01*
X153628408Y-112356001D01*
X153482276Y-112356001D01*
X153490898Y-112343097D01*
X153583693Y-112119069D01*
X153631000Y-111881243D01*
X153631000Y-111638757D01*
X153583693Y-111400931D01*
X153490898Y-111176903D01*
X153482637Y-111164539D01*
X153502001Y-111166446D01*
X153526847Y-111163999D01*
X153526855Y-111163999D01*
X153601194Y-111156677D01*
X153696576Y-111127744D01*
X153784480Y-111080758D01*
X153861528Y-111017526D01*
X153877377Y-110998214D01*
X154503833Y-110371758D01*
X154580931Y-110403693D01*
X154818757Y-110451000D01*
X155061243Y-110451000D01*
X155299069Y-110403693D01*
X155523097Y-110310898D01*
X155724717Y-110176180D01*
X155896180Y-110004717D01*
X156030898Y-109803097D01*
X156123693Y-109579069D01*
X156171000Y-109341243D01*
X156171000Y-109098757D01*
X156123693Y-108860931D01*
X156030898Y-108636903D01*
X155896180Y-108435283D01*
X155724717Y-108263820D01*
X155523097Y-108129102D01*
X155418683Y-108085852D01*
X155573747Y-108030919D01*
X155711157Y-107957472D01*
X155788792Y-107708397D01*
X154940000Y-106859605D01*
X154091208Y-107708397D01*
X154168843Y-107957472D01*
X154432883Y-108083371D01*
X154454228Y-108088789D01*
X154356903Y-108129102D01*
X154155283Y-108263820D01*
X153983820Y-108435283D01*
X153849102Y-108636903D01*
X153756307Y-108860931D01*
X153709000Y-109098757D01*
X153709000Y-109341243D01*
X153756307Y-109579069D01*
X153788242Y-109656167D01*
X153292410Y-110151999D01*
X153208898Y-110151999D01*
X153356180Y-110004717D01*
X153490898Y-109803097D01*
X153583693Y-109579069D01*
X153631000Y-109341243D01*
X153631000Y-109098757D01*
X153583693Y-108860931D01*
X153490898Y-108636903D01*
X153356180Y-108435283D01*
X153184717Y-108263820D01*
X152983097Y-108129102D01*
X152759069Y-108036307D01*
X152521243Y-107989000D01*
X152278757Y-107989000D01*
X152040931Y-108036307D01*
X151816903Y-108129102D01*
X151615283Y-108263820D01*
X151443820Y-108435283D01*
X151309102Y-108636903D01*
X151216307Y-108860931D01*
X151169000Y-109098757D01*
X151169000Y-109341243D01*
X151216307Y-109579069D01*
X151309102Y-109803097D01*
X151443820Y-110004717D01*
X151591102Y-110151999D01*
X149643592Y-110151999D01*
X151963833Y-107831758D01*
X152040931Y-107863693D01*
X152278757Y-107911000D01*
X152521243Y-107911000D01*
X152759069Y-107863693D01*
X152983097Y-107770898D01*
X153184717Y-107636180D01*
X153356180Y-107464717D01*
X153490898Y-107263097D01*
X153534148Y-107158683D01*
X153589081Y-107313747D01*
X153662528Y-107451157D01*
X153911603Y-107528792D01*
X154760395Y-106680000D01*
X153911603Y-105831208D01*
X153662528Y-105908843D01*
X153536629Y-106172883D01*
X153531211Y-106194228D01*
X153490898Y-106096903D01*
X153356180Y-105895283D01*
X153184717Y-105723820D01*
X152983097Y-105589102D01*
X152759069Y-105496307D01*
X152521243Y-105449000D01*
X152278757Y-105449000D01*
X152040931Y-105496307D01*
X151816903Y-105589102D01*
X151615283Y-105723820D01*
X151443820Y-105895283D01*
X151309102Y-106096903D01*
X151216307Y-106320931D01*
X151169000Y-106558757D01*
X151169000Y-106801243D01*
X151216307Y-107039069D01*
X151248242Y-107116167D01*
X148849630Y-109514779D01*
X148802242Y-109572522D01*
X148755255Y-109660426D01*
X148726322Y-109755808D01*
X148716553Y-109855000D01*
X148726322Y-109954192D01*
X148755255Y-110049574D01*
X148802242Y-110137478D01*
X148814159Y-110151999D01*
X148446855Y-110151999D01*
X148422001Y-110149551D01*
X148397147Y-110151999D01*
X148322808Y-110159321D01*
X148227426Y-110188254D01*
X148139522Y-110235240D01*
X148062474Y-110298472D01*
X148046630Y-110317778D01*
X145091786Y-113272623D01*
X145072474Y-113288472D01*
X145049497Y-113316469D01*
X145022987Y-113183193D01*
X144964113Y-113041060D01*
X144878642Y-112913143D01*
X144769859Y-112804360D01*
X144641942Y-112718889D01*
X144499809Y-112660015D01*
X144348922Y-112630002D01*
X144205362Y-112630002D01*
X144154480Y-112588244D01*
X144066576Y-112541258D01*
X143971194Y-112512325D01*
X143896855Y-112505003D01*
X143896847Y-112505003D01*
X143872001Y-112502556D01*
X143847155Y-112505003D01*
X135400679Y-112505003D01*
X135375825Y-112502555D01*
X135350971Y-112505003D01*
X135276632Y-112512325D01*
X135181250Y-112541258D01*
X135093346Y-112588244D01*
X135016298Y-112651476D01*
X135000453Y-112670783D01*
X134848994Y-112822242D01*
X134857061Y-112810169D01*
X134915935Y-112668036D01*
X134945948Y-112517149D01*
X134945948Y-112363305D01*
X134915935Y-112212418D01*
X134857061Y-112070285D01*
X134771590Y-111942368D01*
X134670948Y-111841726D01*
X134670948Y-111481485D01*
X134682122Y-111479262D01*
X134824255Y-111420388D01*
X134952172Y-111334917D01*
X135060955Y-111226134D01*
X135146426Y-111098217D01*
X135205300Y-110956084D01*
X135235313Y-110805197D01*
X135235313Y-110651353D01*
X135205300Y-110500466D01*
X135146426Y-110358333D01*
X135060955Y-110230416D01*
X134952172Y-110121633D01*
X134824255Y-110036162D01*
X134682122Y-109977288D01*
X134531235Y-109947275D01*
X134387675Y-109947275D01*
X134336793Y-109905517D01*
X134248889Y-109858531D01*
X134153507Y-109829598D01*
X134079168Y-109822276D01*
X134079160Y-109822276D01*
X134054314Y-109819829D01*
X134029468Y-109822276D01*
X130996569Y-109822276D01*
X130971723Y-109819829D01*
X130946877Y-109822276D01*
X130946870Y-109822276D01*
X130882418Y-109828624D01*
X130872530Y-109829598D01*
X130850331Y-109836332D01*
X130777149Y-109858531D01*
X130689245Y-109905517D01*
X130612197Y-109968749D01*
X130596352Y-109988056D01*
X129976167Y-110608242D01*
X129899069Y-110576307D01*
X129661243Y-110529000D01*
X129418757Y-110529000D01*
X129180931Y-110576307D01*
X128956903Y-110669102D01*
X128755283Y-110803820D01*
X128583820Y-110975283D01*
X128449102Y-111176903D01*
X128356307Y-111400931D01*
X128309000Y-111638757D01*
X128309000Y-111691999D01*
X128231000Y-111691999D01*
X128231000Y-111638757D01*
X128183693Y-111400931D01*
X128090898Y-111176903D01*
X127956180Y-110975283D01*
X127784717Y-110803820D01*
X127583097Y-110669102D01*
X127359069Y-110576307D01*
X127121243Y-110529000D01*
X126878757Y-110529000D01*
X126640931Y-110576307D01*
X126416903Y-110669102D01*
X126215283Y-110803820D01*
X126043820Y-110975283D01*
X125909102Y-111176903D01*
X125816307Y-111400931D01*
X125769000Y-111638757D01*
X125669890Y-111638757D01*
X125669890Y-107324166D01*
X125728359Y-107446920D01*
X125902412Y-107680269D01*
X126118645Y-107875178D01*
X126368748Y-108024157D01*
X126531168Y-108081772D01*
X126416903Y-108129102D01*
X126215283Y-108263820D01*
X126043820Y-108435283D01*
X125909102Y-108636903D01*
X125816307Y-108860931D01*
X125769000Y-109098757D01*
X125769000Y-109341243D01*
X125816307Y-109579069D01*
X125909102Y-109803097D01*
X126043820Y-110004717D01*
X126215283Y-110176180D01*
X126416903Y-110310898D01*
X126640931Y-110403693D01*
X126878757Y-110451000D01*
X127121243Y-110451000D01*
X127359069Y-110403693D01*
X127583097Y-110310898D01*
X127784717Y-110176180D01*
X127956180Y-110004717D01*
X128090898Y-109803097D01*
X128183693Y-109579069D01*
X128231000Y-109341243D01*
X128231000Y-109098757D01*
X128309000Y-109098757D01*
X128309000Y-109341243D01*
X128356307Y-109579069D01*
X128449102Y-109803097D01*
X128583820Y-110004717D01*
X128755283Y-110176180D01*
X128956903Y-110310898D01*
X129180931Y-110403693D01*
X129418757Y-110451000D01*
X129661243Y-110451000D01*
X129899069Y-110403693D01*
X130123097Y-110310898D01*
X130324717Y-110176180D01*
X130496180Y-110004717D01*
X130630898Y-109803097D01*
X130723693Y-109579069D01*
X130771000Y-109341243D01*
X130771000Y-109098757D01*
X130723693Y-108860931D01*
X130630898Y-108636903D01*
X130496180Y-108435283D01*
X130324717Y-108263820D01*
X130123097Y-108129102D01*
X129899069Y-108036307D01*
X129661243Y-107989000D01*
X129418757Y-107989000D01*
X129180931Y-108036307D01*
X128956903Y-108129102D01*
X128755283Y-108263820D01*
X128583820Y-108435283D01*
X128449102Y-108636903D01*
X128356307Y-108860931D01*
X128309000Y-109098757D01*
X128231000Y-109098757D01*
X128183693Y-108860931D01*
X128090898Y-108636903D01*
X127956180Y-108435283D01*
X127784717Y-108263820D01*
X127583097Y-108129102D01*
X127468832Y-108081772D01*
X127631252Y-108024157D01*
X127881355Y-107875178D01*
X128097588Y-107680269D01*
X128271641Y-107446920D01*
X128396825Y-107184099D01*
X128405091Y-107156846D01*
X128449102Y-107263097D01*
X128583820Y-107464717D01*
X128755283Y-107636180D01*
X128956903Y-107770898D01*
X129180931Y-107863693D01*
X129418757Y-107911000D01*
X129661243Y-107911000D01*
X129899069Y-107863693D01*
X130123097Y-107770898D01*
X130324717Y-107636180D01*
X130496180Y-107464717D01*
X130630898Y-107263097D01*
X130723693Y-107039069D01*
X130771000Y-106801243D01*
X130771000Y-106558757D01*
X130723693Y-106320931D01*
X130630898Y-106096903D01*
X130496180Y-105895283D01*
X130324717Y-105723820D01*
X130123097Y-105589102D01*
X129899069Y-105496307D01*
X129661243Y-105449000D01*
X129418757Y-105449000D01*
X129180931Y-105496307D01*
X128956903Y-105589102D01*
X128755283Y-105723820D01*
X128583820Y-105895283D01*
X128449102Y-106096903D01*
X128405091Y-106203154D01*
X128396825Y-106175901D01*
X128271641Y-105913080D01*
X128097588Y-105679731D01*
X127881355Y-105484822D01*
X127631252Y-105335843D01*
X127356891Y-105238519D01*
X127127002Y-105359185D01*
X127127002Y-105206176D01*
X127134120Y-105206000D01*
X154757009Y-105206000D01*
X154581981Y-105231401D01*
G37*
X154581981Y-105231401D02*
X154306253Y-105329081D01*
X154168843Y-105402528D01*
X154091208Y-105651603D01*
X154940000Y-106500395D01*
X154954143Y-106486253D01*
X155133748Y-106665858D01*
X155119605Y-106680000D01*
X155968397Y-107528792D01*
X156217472Y-107451157D01*
X156271881Y-107337048D01*
X156271882Y-143341073D01*
X156267557Y-143457480D01*
X156255598Y-143564539D01*
X156235872Y-143669947D01*
X156208544Y-143773315D01*
X156173775Y-143874255D01*
X156131740Y-143972341D01*
X156082607Y-144067158D01*
X156026543Y-144158315D01*
X155963716Y-144245406D01*
X155892558Y-144330089D01*
X155846330Y-144378668D01*
X155764893Y-144454269D01*
X155680735Y-144521513D01*
X155592258Y-144582097D01*
X155499842Y-144635866D01*
X155403877Y-144682658D01*
X155304802Y-144722288D01*
X155203004Y-144754596D01*
X155098910Y-144779408D01*
X154992901Y-144796565D01*
X154882727Y-144806128D01*
X154807644Y-144807989D01*
X146019439Y-144807989D01*
X146129764Y-144736369D01*
X146290161Y-144580169D01*
X146417003Y-144395678D01*
X146505415Y-144189987D01*
X146552000Y-143971000D01*
X146552000Y-143671000D01*
X145544000Y-143671000D01*
X145544000Y-143691000D01*
X145290000Y-143691000D01*
X145290000Y-143671000D01*
X144282000Y-143671000D01*
X144282000Y-143971000D01*
X144328585Y-144189987D01*
X144416997Y-144395678D01*
X144543839Y-144580169D01*
X144704236Y-144736369D01*
X144814561Y-144807989D01*
X137379439Y-144807989D01*
X137489764Y-144736369D01*
X137650161Y-144580169D01*
X137777003Y-144395678D01*
X137865415Y-144189987D01*
X137912000Y-143971000D01*
X137912000Y-143671000D01*
X136904000Y-143671000D01*
X136904000Y-143691000D01*
X136650000Y-143691000D01*
X136650000Y-143671000D01*
X135642000Y-143671000D01*
X135642000Y-143971000D01*
X135688585Y-144189987D01*
X135776997Y-144395678D01*
X135903839Y-144580169D01*
X136064236Y-144736369D01*
X136174561Y-144807989D01*
X127136779Y-144807989D01*
X127020398Y-144803665D01*
X126913339Y-144791706D01*
X126807931Y-144771980D01*
X126704563Y-144744652D01*
X126603623Y-144709883D01*
X126505537Y-144667848D01*
X126410720Y-144618715D01*
X126319563Y-144562651D01*
X126232472Y-144499824D01*
X126147790Y-144428667D01*
X126099212Y-144382438D01*
X126023608Y-144301000D01*
X125956365Y-144216843D01*
X125895781Y-144128366D01*
X125842012Y-144035950D01*
X125795220Y-143939985D01*
X125755588Y-143840905D01*
X125723282Y-143739112D01*
X125698470Y-143635018D01*
X125681313Y-143529009D01*
X125671750Y-143418836D01*
X125669890Y-143343759D01*
X125669890Y-143117000D01*
X135642000Y-143117000D01*
X135642000Y-143417000D01*
X136650000Y-143417000D01*
X136650000Y-142276046D01*
X136904000Y-142276046D01*
X136904000Y-143417000D01*
X137912000Y-143417000D01*
X137912000Y-143117000D01*
X144282000Y-143117000D01*
X144282000Y-143417000D01*
X145290000Y-143417000D01*
X145290000Y-142276046D01*
X145544000Y-142276046D01*
X145544000Y-143417000D01*
X146552000Y-143417000D01*
X146552000Y-143117000D01*
X146505415Y-142898013D01*
X146417003Y-142692322D01*
X146290161Y-142507831D01*
X146129764Y-142351631D01*
X145941976Y-142229724D01*
X145718874Y-142149881D01*
X145544000Y-142276046D01*
X145290000Y-142276046D01*
X145115126Y-142149881D01*
X144892024Y-142229724D01*
X144704236Y-142351631D01*
X144543839Y-142507831D01*
X144416997Y-142692322D01*
X144328585Y-142898013D01*
X144282000Y-143117000D01*
X137912000Y-143117000D01*
X137865415Y-142898013D01*
X137777003Y-142692322D01*
X137650161Y-142507831D01*
X137489764Y-142351631D01*
X137301976Y-142229724D01*
X137078874Y-142149881D01*
X136904000Y-142276046D01*
X136650000Y-142276046D01*
X136475126Y-142149881D01*
X136252024Y-142229724D01*
X136064236Y-142351631D01*
X135903839Y-142507831D01*
X135776997Y-142692322D01*
X135688585Y-142898013D01*
X135642000Y-143117000D01*
X125669890Y-143117000D01*
X125669890Y-139491000D01*
X135642000Y-139491000D01*
X135642000Y-140041000D01*
X135688585Y-140259987D01*
X135776997Y-140465678D01*
X135903839Y-140650169D01*
X136064236Y-140806369D01*
X136252024Y-140928276D01*
X136475126Y-141008119D01*
X136650000Y-140881954D01*
X136650000Y-139491000D01*
X135642000Y-139491000D01*
X125669890Y-139491000D01*
X125669890Y-126878757D01*
X125769000Y-126878757D01*
X125769000Y-127121243D01*
X125816307Y-127359069D01*
X125909102Y-127583097D01*
X126043820Y-127784717D01*
X126215283Y-127956180D01*
X126416903Y-128090898D01*
X126640931Y-128183693D01*
X126878757Y-128231000D01*
X127121243Y-128231000D01*
X127359069Y-128183693D01*
X127583097Y-128090898D01*
X127784717Y-127956180D01*
X127956180Y-127784717D01*
X128090898Y-127583097D01*
X128183693Y-127359069D01*
X128231000Y-127121243D01*
X128231000Y-126878757D01*
X128309000Y-126878757D01*
X128309000Y-127121243D01*
X128356307Y-127359069D01*
X128449102Y-127583097D01*
X128583820Y-127784717D01*
X128755283Y-127956180D01*
X128956903Y-128090898D01*
X129180931Y-128183693D01*
X129418757Y-128231000D01*
X129661243Y-128231000D01*
X129899069Y-128183693D01*
X130123097Y-128090898D01*
X130324717Y-127956180D01*
X130496180Y-127784717D01*
X130630898Y-127583097D01*
X130662832Y-127506000D01*
X131928152Y-127506000D01*
X131952998Y-127508447D01*
X131977844Y-127506000D01*
X131977852Y-127506000D01*
X132052191Y-127498678D01*
X132147573Y-127469745D01*
X132235477Y-127422759D01*
X132312525Y-127359527D01*
X132328374Y-127340215D01*
X133792592Y-125875998D01*
X133934922Y-125875998D01*
X134085809Y-125845985D01*
X134227942Y-125787111D01*
X134355859Y-125701640D01*
X134464642Y-125592857D01*
X134550113Y-125464940D01*
X134608987Y-125322807D01*
X134639000Y-125171920D01*
X134639000Y-125018076D01*
X134608987Y-124867189D01*
X134550113Y-124725056D01*
X134464642Y-124597139D01*
X134355859Y-124488356D01*
X134227942Y-124402885D01*
X134085809Y-124344011D01*
X133934922Y-124313998D01*
X133781078Y-124313998D01*
X133630191Y-124344011D01*
X133488058Y-124402885D01*
X133360141Y-124488356D01*
X133251358Y-124597139D01*
X133165887Y-124725056D01*
X133107013Y-124867189D01*
X133077000Y-125018076D01*
X133077000Y-125160406D01*
X131743407Y-126494000D01*
X130662832Y-126494000D01*
X130630898Y-126416903D01*
X130496180Y-126215283D01*
X130324717Y-126043820D01*
X130123097Y-125909102D01*
X129899069Y-125816307D01*
X129661243Y-125769000D01*
X129418757Y-125769000D01*
X129180931Y-125816307D01*
X128956903Y-125909102D01*
X128755283Y-126043820D01*
X128583820Y-126215283D01*
X128449102Y-126416903D01*
X128356307Y-126640931D01*
X128309000Y-126878757D01*
X128231000Y-126878757D01*
X128183693Y-126640931D01*
X128090898Y-126416903D01*
X127956180Y-126215283D01*
X127784717Y-126043820D01*
X127583097Y-125909102D01*
X127359069Y-125816307D01*
X127121243Y-125769000D01*
X126878757Y-125769000D01*
X126640931Y-125816307D01*
X126416903Y-125909102D01*
X126215283Y-126043820D01*
X126043820Y-126215283D01*
X125909102Y-126416903D01*
X125816307Y-126640931D01*
X125769000Y-126878757D01*
X125669890Y-126878757D01*
X125669890Y-124338757D01*
X125769000Y-124338757D01*
X125769000Y-124581243D01*
X125816307Y-124819069D01*
X125909102Y-125043097D01*
X126043820Y-125244717D01*
X126215283Y-125416180D01*
X126416903Y-125550898D01*
X126640931Y-125643693D01*
X126878757Y-125691000D01*
X127121243Y-125691000D01*
X127359069Y-125643693D01*
X127583097Y-125550898D01*
X127784717Y-125416180D01*
X127956180Y-125244717D01*
X128090898Y-125043097D01*
X128183693Y-124819069D01*
X128231000Y-124581243D01*
X128231000Y-124338757D01*
X128183693Y-124100931D01*
X128090898Y-123876903D01*
X127956180Y-123675283D01*
X127784717Y-123503820D01*
X127583097Y-123369102D01*
X127359069Y-123276307D01*
X127121243Y-123229000D01*
X126878757Y-123229000D01*
X126640931Y-123276307D01*
X126416903Y-123369102D01*
X126215283Y-123503820D01*
X126043820Y-123675283D01*
X125909102Y-123876903D01*
X125816307Y-124100931D01*
X125769000Y-124338757D01*
X125669890Y-124338757D01*
X125669890Y-121798757D01*
X125769000Y-121798757D01*
X125769000Y-122041243D01*
X125816307Y-122279069D01*
X125909102Y-122503097D01*
X126043820Y-122704717D01*
X126215283Y-122876180D01*
X126416903Y-123010898D01*
X126640931Y-123103693D01*
X126878757Y-123151000D01*
X127121243Y-123151000D01*
X127359069Y-123103693D01*
X127583097Y-123010898D01*
X127784717Y-122876180D01*
X127956180Y-122704717D01*
X128090898Y-122503097D01*
X128183693Y-122279069D01*
X128231000Y-122041243D01*
X128231000Y-121798757D01*
X128183693Y-121560931D01*
X128090898Y-121336903D01*
X127956180Y-121135283D01*
X127784717Y-120963820D01*
X127583097Y-120829102D01*
X127359069Y-120736307D01*
X127121243Y-120689000D01*
X126878757Y-120689000D01*
X126640931Y-120736307D01*
X126416903Y-120829102D01*
X126215283Y-120963820D01*
X126043820Y-121135283D01*
X125909102Y-121336903D01*
X125816307Y-121560931D01*
X125769000Y-121798757D01*
X125669890Y-121798757D01*
X125669890Y-116718757D01*
X125769000Y-116718757D01*
X125769000Y-116961243D01*
X125816307Y-117199069D01*
X125909102Y-117423097D01*
X126043820Y-117624717D01*
X126215283Y-117796180D01*
X126416903Y-117930898D01*
X126640931Y-118023693D01*
X126878757Y-118071000D01*
X127121243Y-118071000D01*
X127359069Y-118023693D01*
X127583097Y-117930898D01*
X127784717Y-117796180D01*
X127956180Y-117624717D01*
X128090898Y-117423097D01*
X128183693Y-117199069D01*
X128231000Y-116961243D01*
X128231000Y-116718757D01*
X128183693Y-116480931D01*
X128090898Y-116256903D01*
X127956180Y-116055283D01*
X127784717Y-115883820D01*
X127583097Y-115749102D01*
X127359069Y-115656307D01*
X127121243Y-115609000D01*
X126878757Y-115609000D01*
X126640931Y-115656307D01*
X126416903Y-115749102D01*
X126215283Y-115883820D01*
X126043820Y-116055283D01*
X125909102Y-116256903D01*
X125816307Y-116480931D01*
X125769000Y-116718757D01*
X125669890Y-116718757D01*
X125669890Y-114178757D01*
X125769000Y-114178757D01*
X125769000Y-114421243D01*
X125816307Y-114659069D01*
X125909102Y-114883097D01*
X126043820Y-115084717D01*
X126215283Y-115256180D01*
X126416903Y-115390898D01*
X126640931Y-115483693D01*
X126878757Y-115531000D01*
X127121243Y-115531000D01*
X127359069Y-115483693D01*
X127583097Y-115390898D01*
X127784717Y-115256180D01*
X127956180Y-115084717D01*
X128090898Y-114883097D01*
X128183693Y-114659069D01*
X128231000Y-114421243D01*
X128231000Y-114178757D01*
X128183693Y-113940931D01*
X128090898Y-113716903D01*
X127956180Y-113515283D01*
X127784717Y-113343820D01*
X127583097Y-113209102D01*
X127359069Y-113116307D01*
X127121243Y-113069000D01*
X126878757Y-113069000D01*
X126640931Y-113116307D01*
X126416903Y-113209102D01*
X126215283Y-113343820D01*
X126043820Y-113515283D01*
X125909102Y-113716903D01*
X125816307Y-113940931D01*
X125769000Y-114178757D01*
X125669890Y-114178757D01*
X125669890Y-111638757D01*
X125769000Y-111638757D01*
X125769000Y-111881243D01*
X125816307Y-112119069D01*
X125909102Y-112343097D01*
X126043820Y-112544717D01*
X126215283Y-112716180D01*
X126416903Y-112850898D01*
X126640931Y-112943693D01*
X126878757Y-112991000D01*
X127121243Y-112991000D01*
X127359069Y-112943693D01*
X127583097Y-112850898D01*
X127607138Y-112834834D01*
X127610496Y-112842941D01*
X127695967Y-112970858D01*
X127804750Y-113079641D01*
X127932667Y-113165112D01*
X128074800Y-113223986D01*
X128225687Y-113253999D01*
X128369247Y-113253999D01*
X128420129Y-113295757D01*
X128508033Y-113342743D01*
X128603415Y-113371676D01*
X128677754Y-113378998D01*
X128677761Y-113378998D01*
X128702607Y-113381445D01*
X128719302Y-113379801D01*
X128583820Y-113515283D01*
X128449102Y-113716903D01*
X128356307Y-113940931D01*
X128309000Y-114178757D01*
X128309000Y-114421243D01*
X128356307Y-114659069D01*
X128449102Y-114883097D01*
X128583820Y-115084717D01*
X128755283Y-115256180D01*
X128956903Y-115390898D01*
X129180931Y-115483693D01*
X129418757Y-115531000D01*
X129661243Y-115531000D01*
X129899069Y-115483693D01*
X130123097Y-115390898D01*
X130324717Y-115256180D01*
X130496180Y-115084717D01*
X130630898Y-114883097D01*
X130723693Y-114659069D01*
X130770253Y-114425000D01*
X133779408Y-114425000D01*
X129976167Y-118228242D01*
X129899069Y-118196307D01*
X129661243Y-118149000D01*
X129418757Y-118149000D01*
X129180931Y-118196307D01*
X128956903Y-118289102D01*
X128943999Y-118297724D01*
X128943999Y-118151592D01*
X129103833Y-117991758D01*
X129180931Y-118023693D01*
X129418757Y-118071000D01*
X129661243Y-118071000D01*
X129899069Y-118023693D01*
X130123097Y-117930898D01*
X130324717Y-117796180D01*
X130496180Y-117624717D01*
X130630898Y-117423097D01*
X130723693Y-117199069D01*
X130771000Y-116961243D01*
X130771000Y-116718757D01*
X130723693Y-116480931D01*
X130630898Y-116256903D01*
X130496180Y-116055283D01*
X130324717Y-115883820D01*
X130123097Y-115749102D01*
X129899069Y-115656307D01*
X129661243Y-115609000D01*
X129418757Y-115609000D01*
X129180931Y-115656307D01*
X128956903Y-115749102D01*
X128755283Y-115883820D01*
X128583820Y-116055283D01*
X128449102Y-116256903D01*
X128356307Y-116480931D01*
X128309000Y-116718757D01*
X128309000Y-116961243D01*
X128356307Y-117199069D01*
X128388242Y-117276167D01*
X128097784Y-117566625D01*
X128078472Y-117582474D01*
X128015240Y-117659522D01*
X127968254Y-117747427D01*
X127939321Y-117842809D01*
X127931999Y-117917148D01*
X127931999Y-117917155D01*
X127929552Y-117942001D01*
X127931999Y-117966847D01*
X127931999Y-118571102D01*
X127784717Y-118423820D01*
X127583097Y-118289102D01*
X127359069Y-118196307D01*
X127121243Y-118149000D01*
X126878757Y-118149000D01*
X126640931Y-118196307D01*
X126416903Y-118289102D01*
X126215283Y-118423820D01*
X126043820Y-118595283D01*
X125909102Y-118796903D01*
X125816307Y-119020931D01*
X125769000Y-119258757D01*
X125769000Y-119501243D01*
X125816307Y-119739069D01*
X125909102Y-119963097D01*
X126043820Y-120164717D01*
X126215283Y-120336180D01*
X126416903Y-120470898D01*
X126640931Y-120563693D01*
X126878757Y-120611000D01*
X127121243Y-120611000D01*
X127359069Y-120563693D01*
X127583097Y-120470898D01*
X127784717Y-120336180D01*
X127956180Y-120164717D01*
X127981057Y-120127486D01*
X127984705Y-120134312D01*
X128015241Y-120191440D01*
X128078473Y-120268488D01*
X128097779Y-120284332D01*
X128635667Y-120822221D01*
X128651512Y-120841528D01*
X128728560Y-120904760D01*
X128792513Y-120938944D01*
X128755283Y-120963820D01*
X128583820Y-121135283D01*
X128449102Y-121336903D01*
X128356307Y-121560931D01*
X128309000Y-121798757D01*
X128309000Y-122041243D01*
X128356307Y-122279069D01*
X128449102Y-122503097D01*
X128583820Y-122704717D01*
X128755283Y-122876180D01*
X128956903Y-123010898D01*
X129180931Y-123103693D01*
X129418757Y-123151000D01*
X129661243Y-123151000D01*
X129899069Y-123103693D01*
X130123097Y-123010898D01*
X130324717Y-122876180D01*
X130496180Y-122704717D01*
X130630898Y-122503097D01*
X130662832Y-122426000D01*
X132673144Y-122426000D01*
X132697990Y-122428447D01*
X132722836Y-122426000D01*
X132722844Y-122426000D01*
X132797183Y-122418678D01*
X132892565Y-122389745D01*
X132980469Y-122342759D01*
X133057517Y-122279527D01*
X133073366Y-122260215D01*
X133919592Y-121413990D01*
X134061922Y-121413990D01*
X134212809Y-121383977D01*
X134354942Y-121325103D01*
X134482859Y-121239632D01*
X134591642Y-121130849D01*
X134677113Y-121002932D01*
X134735987Y-120860799D01*
X134766000Y-120709912D01*
X134766000Y-120556068D01*
X134735987Y-120405181D01*
X134677113Y-120263048D01*
X134591642Y-120135131D01*
X134482859Y-120026348D01*
X134354942Y-119940877D01*
X134212809Y-119882003D01*
X134061922Y-119851990D01*
X133908078Y-119851990D01*
X133757191Y-119882003D01*
X133615058Y-119940877D01*
X133487141Y-120026348D01*
X133378358Y-120135131D01*
X133292887Y-120263048D01*
X133234013Y-120405181D01*
X133204000Y-120556068D01*
X133204000Y-120698398D01*
X132488399Y-121414000D01*
X130662832Y-121414000D01*
X130630898Y-121336903D01*
X130496180Y-121135283D01*
X130324717Y-120963820D01*
X130287487Y-120938944D01*
X130351440Y-120904760D01*
X130428488Y-120841528D01*
X130444337Y-120822216D01*
X132650554Y-118616000D01*
X135691575Y-118616000D01*
X135646141Y-118646358D01*
X135537358Y-118755141D01*
X135451887Y-118883058D01*
X135393013Y-119025191D01*
X135363000Y-119176078D01*
X135363000Y-119329922D01*
X135393013Y-119480809D01*
X135451887Y-119622942D01*
X135537358Y-119750859D01*
X135646141Y-119859642D01*
X135774058Y-119945113D01*
X135916191Y-120003987D01*
X136067078Y-120034000D01*
X136209409Y-120034000D01*
X137162000Y-120986592D01*
X137162001Y-122210498D01*
X137061358Y-122311141D01*
X136975887Y-122439058D01*
X136917013Y-122581191D01*
X136887000Y-122732078D01*
X136887000Y-122885922D01*
X136917013Y-123036809D01*
X136944845Y-123104001D01*
X130414844Y-123104001D01*
X130389998Y-123101554D01*
X130365152Y-123104001D01*
X130365145Y-123104001D01*
X130300693Y-123110349D01*
X130290805Y-123111323D01*
X130219717Y-123132887D01*
X130195424Y-123140256D01*
X130107520Y-123187242D01*
X130030472Y-123250474D01*
X130014627Y-123269781D01*
X129976166Y-123308242D01*
X129899069Y-123276307D01*
X129661243Y-123229000D01*
X129418757Y-123229000D01*
X129180931Y-123276307D01*
X128956903Y-123369102D01*
X128755283Y-123503820D01*
X128583820Y-123675283D01*
X128449102Y-123876903D01*
X128356307Y-124100931D01*
X128309000Y-124338757D01*
X128309000Y-124581243D01*
X128356307Y-124819069D01*
X128449102Y-125043097D01*
X128583820Y-125244717D01*
X128755283Y-125416180D01*
X128956903Y-125550898D01*
X129180931Y-125643693D01*
X129418757Y-125691000D01*
X129661243Y-125691000D01*
X129899069Y-125643693D01*
X130123097Y-125550898D01*
X130324717Y-125416180D01*
X130496180Y-125244717D01*
X130630898Y-125043097D01*
X130723693Y-124819069D01*
X130771000Y-124581243D01*
X130771000Y-124338757D01*
X130726691Y-124116001D01*
X139106001Y-124116001D01*
X139106002Y-128538145D01*
X139103554Y-128563001D01*
X139113323Y-128662193D01*
X139142256Y-128757575D01*
X139142257Y-128757576D01*
X139174883Y-128818614D01*
X139173000Y-128828078D01*
X139173000Y-128981922D01*
X139203013Y-129132809D01*
X139261887Y-129274942D01*
X139347358Y-129402859D01*
X139456141Y-129511642D01*
X139584058Y-129597113D01*
X139726191Y-129655987D01*
X139877078Y-129686000D01*
X140030922Y-129686000D01*
X140181809Y-129655987D01*
X140323942Y-129597113D01*
X140451859Y-129511642D01*
X140560642Y-129402859D01*
X140646113Y-129274942D01*
X140704987Y-129132809D01*
X140735000Y-128981922D01*
X140735000Y-128828078D01*
X140704987Y-128677191D01*
X140646113Y-128535058D01*
X140560642Y-128407141D01*
X140451859Y-128298358D01*
X140323942Y-128212887D01*
X140181809Y-128154013D01*
X140118001Y-128141321D01*
X140118001Y-123945800D01*
X140161760Y-123892480D01*
X140208746Y-123804576D01*
X140237679Y-123709194D01*
X140247449Y-123610001D01*
X140237679Y-123510808D01*
X140208746Y-123415426D01*
X140161760Y-123327522D01*
X140118001Y-123274202D01*
X140118001Y-121111855D01*
X140120449Y-121087001D01*
X140110679Y-120987808D01*
X140081746Y-120892426D01*
X140064841Y-120860799D01*
X140034760Y-120804522D01*
X139971528Y-120727474D01*
X139952221Y-120711629D01*
X138449000Y-119208409D01*
X138449000Y-119066078D01*
X138418987Y-118915191D01*
X138360113Y-118773058D01*
X138274642Y-118645141D01*
X138245501Y-118616000D01*
X143494411Y-118616000D01*
X143519257Y-118618447D01*
X143544103Y-118616000D01*
X143544111Y-118616000D01*
X143618450Y-118608678D01*
X143713832Y-118579745D01*
X143801736Y-118532759D01*
X143878784Y-118469527D01*
X143894633Y-118450215D01*
X144208314Y-118136534D01*
X144281361Y-118245858D01*
X144390144Y-118354641D01*
X144518061Y-118440112D01*
X144660194Y-118498986D01*
X144811081Y-118528999D01*
X144964925Y-118528999D01*
X145115812Y-118498986D01*
X145257945Y-118440112D01*
X145385862Y-118354641D01*
X145494645Y-118245858D01*
X145580116Y-118117941D01*
X145638990Y-117975808D01*
X145663219Y-117854000D01*
X147198597Y-117854000D01*
X147133412Y-117907496D01*
X147117568Y-117926802D01*
X145662371Y-119382000D01*
X141822495Y-119382000D01*
X141721853Y-119281358D01*
X141593936Y-119195887D01*
X141451803Y-119137013D01*
X141300916Y-119107000D01*
X141147072Y-119107000D01*
X140996185Y-119137013D01*
X140854052Y-119195887D01*
X140726135Y-119281358D01*
X140617352Y-119390141D01*
X140531881Y-119518058D01*
X140473007Y-119660191D01*
X140442994Y-119811078D01*
X140442994Y-119964922D01*
X140473007Y-120115809D01*
X140531881Y-120257942D01*
X140617352Y-120385859D01*
X140726135Y-120494642D01*
X140854052Y-120580113D01*
X140996185Y-120638987D01*
X141147072Y-120669000D01*
X141300916Y-120669000D01*
X141451803Y-120638987D01*
X141593936Y-120580113D01*
X141721853Y-120494642D01*
X141822495Y-120394000D01*
X144858612Y-120394000D01*
X144849887Y-120407058D01*
X144791013Y-120549191D01*
X144761000Y-120700078D01*
X144761000Y-120853922D01*
X144791013Y-121004809D01*
X144849887Y-121146942D01*
X144935358Y-121274859D01*
X145036001Y-121375502D01*
X145036000Y-122345408D01*
X143956409Y-123425000D01*
X143814078Y-123425000D01*
X143663191Y-123455013D01*
X143521058Y-123513887D01*
X143393141Y-123599358D01*
X143284358Y-123708141D01*
X143198887Y-123836058D01*
X143140013Y-123978191D01*
X143110000Y-124129078D01*
X143110000Y-124282922D01*
X143140013Y-124433809D01*
X143198887Y-124575942D01*
X143284358Y-124703859D01*
X143393141Y-124812642D01*
X143521058Y-124898113D01*
X143663191Y-124956987D01*
X143814078Y-124987000D01*
X143967922Y-124987000D01*
X144118809Y-124956987D01*
X144260942Y-124898113D01*
X144388859Y-124812642D01*
X144497642Y-124703859D01*
X144583113Y-124575942D01*
X144641987Y-124433809D01*
X144672000Y-124282922D01*
X144672000Y-124140591D01*
X145882220Y-122930372D01*
X145901527Y-122914527D01*
X145964759Y-122837479D01*
X146011745Y-122749575D01*
X146040678Y-122654193D01*
X146048000Y-122579854D01*
X146048000Y-122579853D01*
X146050448Y-122555000D01*
X146048000Y-122530146D01*
X146048000Y-121375501D01*
X146148642Y-121274859D01*
X146234113Y-121146942D01*
X146292987Y-121004809D01*
X146323000Y-120853922D01*
X146323000Y-120700078D01*
X146292987Y-120549191D01*
X146234113Y-120407058D01*
X146164340Y-120302635D01*
X146231489Y-120247527D01*
X146247338Y-120228215D01*
X147702531Y-118773023D01*
X151325058Y-118773023D01*
X151309102Y-118796903D01*
X151216307Y-119020931D01*
X151169000Y-119258757D01*
X151169000Y-119501243D01*
X151216307Y-119739069D01*
X151309102Y-119963097D01*
X151443820Y-120164717D01*
X151615283Y-120336180D01*
X151816903Y-120470898D01*
X151931168Y-120518228D01*
X151768748Y-120575843D01*
X151518645Y-120724822D01*
X151302412Y-120919731D01*
X151128359Y-121153080D01*
X151003175Y-121415901D01*
X150958524Y-121563110D01*
X151079845Y-121793000D01*
X152273000Y-121793000D01*
X152273000Y-121773000D01*
X152527000Y-121773000D01*
X152527000Y-121793000D01*
X152547000Y-121793000D01*
X152547000Y-122047000D01*
X152527000Y-122047000D01*
X152527000Y-122067000D01*
X152273000Y-122067000D01*
X152273000Y-122047000D01*
X151079845Y-122047000D01*
X150958524Y-122276890D01*
X151003175Y-122424099D01*
X151081719Y-122589001D01*
X148963844Y-122589001D01*
X148938998Y-122586554D01*
X148914152Y-122589001D01*
X148914145Y-122589001D01*
X148849693Y-122595349D01*
X148839805Y-122596323D01*
X148823596Y-122601240D01*
X148744424Y-122625256D01*
X148656520Y-122672242D01*
X148579472Y-122735474D01*
X148563627Y-122754781D01*
X148274408Y-123044000D01*
X148132078Y-123044000D01*
X147981191Y-123074013D01*
X147839058Y-123132887D01*
X147711141Y-123218358D01*
X147699000Y-123230499D01*
X147699000Y-121121501D01*
X147799642Y-121020859D01*
X147885113Y-120892942D01*
X147943987Y-120750809D01*
X147974000Y-120599922D01*
X147974000Y-120446078D01*
X147943987Y-120295191D01*
X147885113Y-120153058D01*
X147799642Y-120025141D01*
X147690859Y-119916358D01*
X147562942Y-119830887D01*
X147420809Y-119772013D01*
X147269922Y-119742000D01*
X147116078Y-119742000D01*
X146965191Y-119772013D01*
X146823058Y-119830887D01*
X146695141Y-119916358D01*
X146586358Y-120025141D01*
X146500887Y-120153058D01*
X146442013Y-120295191D01*
X146412000Y-120446078D01*
X146412000Y-120599922D01*
X146442013Y-120750809D01*
X146500887Y-120892942D01*
X146586358Y-121020859D01*
X146687001Y-121121502D01*
X146687000Y-129889446D01*
X143751446Y-132825001D01*
X140873760Y-132825001D01*
X140879212Y-132820527D01*
X140895061Y-132801215D01*
X142453220Y-131243057D01*
X142472527Y-131227212D01*
X142535759Y-131150164D01*
X142582745Y-131062260D01*
X142611678Y-130966878D01*
X142619000Y-130892539D01*
X142619000Y-130892538D01*
X142621448Y-130867685D01*
X142619000Y-130842831D01*
X142619000Y-127725501D01*
X142719642Y-127624859D01*
X142805113Y-127496942D01*
X142863987Y-127354809D01*
X142894000Y-127203922D01*
X142894000Y-127050078D01*
X142863987Y-126899191D01*
X142805113Y-126757058D01*
X142719642Y-126629141D01*
X142610859Y-126520358D01*
X142482942Y-126434887D01*
X142340809Y-126376013D01*
X142189922Y-126346000D01*
X142036078Y-126346000D01*
X141885191Y-126376013D01*
X141743058Y-126434887D01*
X141615141Y-126520358D01*
X141506358Y-126629141D01*
X141420887Y-126757058D01*
X141362013Y-126899191D01*
X141332000Y-127050078D01*
X141332000Y-127203922D01*
X141362013Y-127354809D01*
X141420887Y-127496942D01*
X141506358Y-127624859D01*
X141607001Y-127725502D01*
X141607000Y-130658093D01*
X140310094Y-131955000D01*
X137813937Y-131955000D01*
X137859359Y-131924650D01*
X137968142Y-131815867D01*
X138053613Y-131687950D01*
X138112487Y-131545817D01*
X138142500Y-131394930D01*
X138142500Y-131241086D01*
X138112487Y-131090199D01*
X138053613Y-130948066D01*
X137968142Y-130820149D01*
X137859359Y-130711366D01*
X137731442Y-130625895D01*
X137589309Y-130567021D01*
X137438422Y-130537008D01*
X137294864Y-130537008D01*
X137243972Y-130495242D01*
X137156068Y-130448256D01*
X137060686Y-130419323D01*
X136986347Y-130412001D01*
X136986339Y-130412001D01*
X136961493Y-130409554D01*
X136936647Y-130412001D01*
X130408896Y-130412001D01*
X130496180Y-130324717D01*
X130630898Y-130123097D01*
X130723693Y-129899069D01*
X130771000Y-129661243D01*
X130771000Y-129418757D01*
X130723693Y-129180931D01*
X130630898Y-128956903D01*
X130496180Y-128755283D01*
X130324717Y-128583820D01*
X130123097Y-128449102D01*
X129899069Y-128356307D01*
X129661243Y-128309000D01*
X129418757Y-128309000D01*
X129180931Y-128356307D01*
X128956903Y-128449102D01*
X128755283Y-128583820D01*
X128583820Y-128755283D01*
X128449102Y-128956903D01*
X128356307Y-129180931D01*
X128309000Y-129418757D01*
X128309000Y-129661243D01*
X128356307Y-129899069D01*
X128449102Y-130123097D01*
X128583820Y-130324717D01*
X128671104Y-130412001D01*
X127868896Y-130412001D01*
X127956180Y-130324717D01*
X128090898Y-130123097D01*
X128183693Y-129899069D01*
X128231000Y-129661243D01*
X128231000Y-129418757D01*
X128183693Y-129180931D01*
X128090898Y-128956903D01*
X127956180Y-128755283D01*
X127784717Y-128583820D01*
X127583097Y-128449102D01*
X127359069Y-128356307D01*
X127121243Y-128309000D01*
X126878757Y-128309000D01*
X126640931Y-128356307D01*
X126416903Y-128449102D01*
X126215283Y-128583820D01*
X126043820Y-128755283D01*
X125909102Y-128956903D01*
X125816307Y-129180931D01*
X125769000Y-129418757D01*
X125769000Y-129661243D01*
X125816307Y-129899069D01*
X125909102Y-130123097D01*
X126043820Y-130324717D01*
X126215283Y-130496180D01*
X126416903Y-130630898D01*
X126623872Y-130716627D01*
X126520358Y-130820141D01*
X126434887Y-130948058D01*
X126376013Y-131090191D01*
X126346000Y-131241078D01*
X126346000Y-131394922D01*
X126376013Y-131545809D01*
X126434887Y-131687942D01*
X126520358Y-131815859D01*
X126629141Y-131924642D01*
X126757058Y-132010113D01*
X126899191Y-132068987D01*
X127050078Y-132099000D01*
X127203922Y-132099000D01*
X127354809Y-132068987D01*
X127496942Y-132010113D01*
X127624859Y-131924642D01*
X127733642Y-131815859D01*
X127819113Y-131687942D01*
X127877987Y-131545809D01*
X127902216Y-131424001D01*
X131814773Y-131424001D01*
X131802616Y-131438814D01*
X128945785Y-134295646D01*
X128926473Y-134311495D01*
X128863241Y-134388543D01*
X128816255Y-134476448D01*
X128787322Y-134571830D01*
X128780000Y-134646169D01*
X128780000Y-134646176D01*
X128777553Y-134671022D01*
X128780000Y-134695869D01*
X128780000Y-135164499D01*
X128679358Y-135265141D01*
X128593887Y-135393058D01*
X128535013Y-135535191D01*
X128505000Y-135686078D01*
X128505000Y-135839922D01*
X128535013Y-135990809D01*
X128593887Y-136132942D01*
X128679358Y-136260859D01*
X128788141Y-136369642D01*
X128916058Y-136455113D01*
X129058191Y-136513987D01*
X129209078Y-136544000D01*
X129362922Y-136544000D01*
X129513809Y-136513987D01*
X129655942Y-136455113D01*
X129783859Y-136369642D01*
X129892642Y-136260859D01*
X129978113Y-136132942D01*
X130036987Y-135990809D01*
X130067000Y-135839922D01*
X130067000Y-135686078D01*
X130036987Y-135535191D01*
X129978113Y-135393058D01*
X129892642Y-135265141D01*
X129792000Y-135164499D01*
X129792000Y-134880613D01*
X130782047Y-133890567D01*
X130812001Y-133935397D01*
X130812000Y-137196499D01*
X130711358Y-137297141D01*
X130625887Y-137425058D01*
X130567013Y-137567191D01*
X130537000Y-137718078D01*
X130537000Y-137871922D01*
X130567013Y-138022809D01*
X130625887Y-138164942D01*
X130711358Y-138292859D01*
X130820141Y-138401642D01*
X130948058Y-138487113D01*
X131090191Y-138545987D01*
X131241078Y-138576000D01*
X131394922Y-138576000D01*
X131545809Y-138545987D01*
X131687942Y-138487113D01*
X131815859Y-138401642D01*
X131924642Y-138292859D01*
X132010113Y-138164942D01*
X132068987Y-138022809D01*
X132099000Y-137871922D01*
X132099000Y-137718078D01*
X132068987Y-137567191D01*
X132010113Y-137425058D01*
X132000420Y-137410551D01*
X132091059Y-137471114D01*
X132233192Y-137529988D01*
X132384079Y-137560001D01*
X132537923Y-137560001D01*
X132688810Y-137529988D01*
X132830943Y-137471114D01*
X132958860Y-137385643D01*
X133067643Y-137276860D01*
X133153114Y-137148943D01*
X133211988Y-137006810D01*
X133242001Y-136855923D01*
X133242001Y-136713590D01*
X133559592Y-136396000D01*
X135658690Y-136396000D01*
X135647013Y-136424191D01*
X135617000Y-136575078D01*
X135617000Y-136728922D01*
X135647013Y-136879809D01*
X135705887Y-137021942D01*
X135791358Y-137149859D01*
X135900141Y-137258642D01*
X136028058Y-137344113D01*
X136170191Y-137402987D01*
X136181682Y-137405273D01*
X136551108Y-137774699D01*
X136475126Y-137719881D01*
X136252024Y-137799724D01*
X136064236Y-137921631D01*
X135903839Y-138077831D01*
X135776997Y-138262322D01*
X135688585Y-138468013D01*
X135642000Y-138687000D01*
X135642000Y-139237000D01*
X136650000Y-139237000D01*
X136650000Y-139217000D01*
X136904000Y-139217000D01*
X136904000Y-139237000D01*
X136924000Y-139237000D01*
X136924000Y-139491000D01*
X136904000Y-139491000D01*
X136904000Y-140881954D01*
X137078874Y-141008119D01*
X137301976Y-140928276D01*
X137489764Y-140806369D01*
X137650161Y-140650169D01*
X137777003Y-140465678D01*
X137780307Y-140457992D01*
X137872584Y-140519649D01*
X138001067Y-140572869D01*
X138137465Y-140600000D01*
X138276535Y-140600000D01*
X138412933Y-140572869D01*
X138541416Y-140519649D01*
X138657049Y-140442386D01*
X138755386Y-140344049D01*
X138761354Y-140335117D01*
X138839358Y-140451859D01*
X138948141Y-140560642D01*
X139076058Y-140646113D01*
X139218191Y-140704987D01*
X139369078Y-140735000D01*
X139522922Y-140735000D01*
X139673809Y-140704987D01*
X139815942Y-140646113D01*
X139943859Y-140560642D01*
X140052642Y-140451859D01*
X140113527Y-140360738D01*
X140150887Y-140450932D01*
X140236358Y-140578849D01*
X140345141Y-140687632D01*
X140473058Y-140773103D01*
X140615191Y-140831977D01*
X140766078Y-140861990D01*
X140919922Y-140861990D01*
X141070809Y-140831977D01*
X141212942Y-140773103D01*
X141340859Y-140687632D01*
X141422105Y-140606386D01*
X141548511Y-140606386D01*
X141649153Y-140707028D01*
X141777070Y-140792499D01*
X141919203Y-140851373D01*
X142070090Y-140881386D01*
X142223934Y-140881386D01*
X142374821Y-140851373D01*
X142516954Y-140792499D01*
X142644871Y-140707028D01*
X142753654Y-140598245D01*
X142839125Y-140470328D01*
X142897999Y-140328195D01*
X142928012Y-140177308D01*
X142928012Y-140023464D01*
X142897999Y-139872577D01*
X142878071Y-139824465D01*
X143281000Y-139824465D01*
X143281000Y-139963535D01*
X143308131Y-140099933D01*
X143361351Y-140228416D01*
X143438614Y-140344049D01*
X143536951Y-140442386D01*
X143652584Y-140519649D01*
X143781067Y-140572869D01*
X143917465Y-140600000D01*
X144056535Y-140600000D01*
X144192933Y-140572869D01*
X144321416Y-140519649D01*
X144413693Y-140457992D01*
X144416997Y-140465678D01*
X144543839Y-140650169D01*
X144704236Y-140806369D01*
X144892024Y-140928276D01*
X145115126Y-141008119D01*
X145290000Y-140881954D01*
X145290000Y-139491000D01*
X145544000Y-139491000D01*
X145544000Y-140881954D01*
X145718874Y-141008119D01*
X145941976Y-140928276D01*
X146129764Y-140806369D01*
X146290161Y-140650169D01*
X146417003Y-140465678D01*
X146505415Y-140259987D01*
X146552000Y-140041000D01*
X146552000Y-139491000D01*
X145544000Y-139491000D01*
X145290000Y-139491000D01*
X145270000Y-139491000D01*
X145270000Y-139237000D01*
X145290000Y-139237000D01*
X145290000Y-137846046D01*
X145544000Y-137846046D01*
X145544000Y-139237000D01*
X146552000Y-139237000D01*
X146552000Y-138687000D01*
X146505415Y-138468013D01*
X146417003Y-138262322D01*
X146290161Y-138077831D01*
X146129764Y-137921631D01*
X145941976Y-137799724D01*
X145718874Y-137719881D01*
X145544000Y-137846046D01*
X145290000Y-137846046D01*
X145115126Y-137719881D01*
X144892024Y-137799724D01*
X144704236Y-137921631D01*
X144543839Y-138077831D01*
X144416997Y-138262322D01*
X144328585Y-138468013D01*
X144282000Y-138687000D01*
X144282000Y-139252024D01*
X144192933Y-139215131D01*
X144056535Y-139188000D01*
X143917465Y-139188000D01*
X143781067Y-139215131D01*
X143652584Y-139268351D01*
X143536951Y-139345614D01*
X143438614Y-139443951D01*
X143361351Y-139559584D01*
X143308131Y-139688067D01*
X143281000Y-139824465D01*
X142878071Y-139824465D01*
X142839125Y-139730444D01*
X142753654Y-139602527D01*
X142644871Y-139493744D01*
X142516954Y-139408273D01*
X142374821Y-139349399D01*
X142223934Y-139319386D01*
X142070090Y-139319386D01*
X141919203Y-139349399D01*
X141777070Y-139408273D01*
X141649153Y-139493744D01*
X141548511Y-139594386D01*
X141457162Y-139594386D01*
X141449642Y-139583131D01*
X141340859Y-139474348D01*
X141212942Y-139388877D01*
X141070809Y-139330003D01*
X140919922Y-139299990D01*
X140766078Y-139299990D01*
X140615191Y-139330003D01*
X140473058Y-139388877D01*
X140345141Y-139474348D01*
X140236358Y-139583131D01*
X140175473Y-139674252D01*
X140138113Y-139584058D01*
X140052642Y-139456141D01*
X139943859Y-139347358D01*
X139815942Y-139261887D01*
X139673809Y-139203013D01*
X139522922Y-139173000D01*
X139380592Y-139173000D01*
X137130948Y-136923357D01*
X137148987Y-136879809D01*
X137179000Y-136728922D01*
X137179000Y-136575078D01*
X137148987Y-136424191D01*
X137137310Y-136396000D01*
X141641499Y-136396000D01*
X141742141Y-136496642D01*
X141870058Y-136582113D01*
X142012191Y-136640987D01*
X142163078Y-136671000D01*
X142316922Y-136671000D01*
X142467809Y-136640987D01*
X142609942Y-136582113D01*
X142737859Y-136496642D01*
X142846642Y-136387859D01*
X142932113Y-136259942D01*
X142990987Y-136117809D01*
X143021000Y-135966922D01*
X143021000Y-135813078D01*
X143006769Y-135741533D01*
X144007196Y-134491000D01*
X146340499Y-134491000D01*
X146441141Y-134591642D01*
X146569058Y-134677113D01*
X146711191Y-134735987D01*
X146862078Y-134766000D01*
X147015922Y-134766000D01*
X147166809Y-134735987D01*
X147308942Y-134677113D01*
X147436859Y-134591642D01*
X147545642Y-134482859D01*
X147631113Y-134354942D01*
X147689987Y-134212809D01*
X147720000Y-134061922D01*
X147720000Y-133908078D01*
X147689987Y-133757191D01*
X147631113Y-133615058D01*
X147545642Y-133487141D01*
X147436859Y-133378358D01*
X147308942Y-133292887D01*
X147166809Y-133234013D01*
X147015922Y-133204000D01*
X146862078Y-133204000D01*
X146711191Y-133234013D01*
X146569058Y-133292887D01*
X146441141Y-133378358D01*
X146340499Y-133479000D01*
X144528629Y-133479000D01*
X147533220Y-130474410D01*
X147552527Y-130458565D01*
X147615759Y-130381517D01*
X147662745Y-130293613D01*
X147691678Y-130198231D01*
X147699000Y-130123892D01*
X147699000Y-130123891D01*
X147701448Y-130099038D01*
X147699000Y-130074184D01*
X147699000Y-129357425D01*
X147729358Y-129402859D01*
X147838141Y-129511642D01*
X147966058Y-129597113D01*
X148108191Y-129655987D01*
X148259078Y-129686000D01*
X148412922Y-129686000D01*
X148563809Y-129655987D01*
X148705942Y-129597113D01*
X148833859Y-129511642D01*
X148942642Y-129402859D01*
X149028113Y-129274942D01*
X149086987Y-129132809D01*
X149117000Y-128981922D01*
X149117000Y-128870999D01*
X151366501Y-128870999D01*
X151309102Y-128956903D01*
X151216307Y-129180931D01*
X151169000Y-129418757D01*
X151169000Y-129661243D01*
X151216307Y-129899069D01*
X151309102Y-130123097D01*
X151443820Y-130324717D01*
X151615283Y-130496180D01*
X151816903Y-130630898D01*
X152040931Y-130723693D01*
X152278757Y-130771000D01*
X152521243Y-130771000D01*
X152759069Y-130723693D01*
X152983097Y-130630898D01*
X153184717Y-130496180D01*
X153356180Y-130324717D01*
X153490898Y-130123097D01*
X153583693Y-129899069D01*
X153631000Y-129661243D01*
X153631000Y-129418757D01*
X153583693Y-129180931D01*
X153490898Y-128956903D01*
X153433499Y-128870999D01*
X153555408Y-128870999D01*
X153788242Y-129103833D01*
X153756307Y-129180931D01*
X153709000Y-129418757D01*
X153709000Y-129661243D01*
X153756307Y-129899069D01*
X153849102Y-130123097D01*
X153983820Y-130324717D01*
X154155283Y-130496180D01*
X154356903Y-130630898D01*
X154580931Y-130723693D01*
X154818757Y-130771000D01*
X155061243Y-130771000D01*
X155299069Y-130723693D01*
X155523097Y-130630898D01*
X155724717Y-130496180D01*
X155896180Y-130324717D01*
X156030898Y-130123097D01*
X156123693Y-129899069D01*
X156171000Y-129661243D01*
X156171000Y-129418757D01*
X156123693Y-129180931D01*
X156030898Y-128956903D01*
X155896180Y-128755283D01*
X155724717Y-128583820D01*
X155523097Y-128449102D01*
X155299069Y-128356307D01*
X155061243Y-128309000D01*
X154818757Y-128309000D01*
X154580931Y-128356307D01*
X154503833Y-128388242D01*
X154140375Y-128024784D01*
X154124526Y-128005472D01*
X154047478Y-127942240D01*
X153959574Y-127895254D01*
X153864192Y-127866321D01*
X153789853Y-127858999D01*
X153789845Y-127858999D01*
X153764999Y-127856552D01*
X153740153Y-127858999D01*
X153281898Y-127858999D01*
X153356180Y-127784717D01*
X153490898Y-127583097D01*
X153583693Y-127359069D01*
X153631000Y-127121243D01*
X153631000Y-126878757D01*
X153583693Y-126640931D01*
X153490898Y-126416903D01*
X153433499Y-126330999D01*
X153555408Y-126330999D01*
X153788242Y-126563833D01*
X153756307Y-126640931D01*
X153709000Y-126878757D01*
X153709000Y-127121243D01*
X153756307Y-127359069D01*
X153849102Y-127583097D01*
X153983820Y-127784717D01*
X154155283Y-127956180D01*
X154356903Y-128090898D01*
X154580931Y-128183693D01*
X154818757Y-128231000D01*
X155061243Y-128231000D01*
X155299069Y-128183693D01*
X155523097Y-128090898D01*
X155724717Y-127956180D01*
X155896180Y-127784717D01*
X156030898Y-127583097D01*
X156123693Y-127359069D01*
X156171000Y-127121243D01*
X156171000Y-126878757D01*
X156123693Y-126640931D01*
X156030898Y-126416903D01*
X155896180Y-126215283D01*
X155724717Y-126043820D01*
X155523097Y-125909102D01*
X155299069Y-125816307D01*
X155061243Y-125769000D01*
X154818757Y-125769000D01*
X154580931Y-125816307D01*
X154503833Y-125848242D01*
X154140375Y-125484784D01*
X154124526Y-125465472D01*
X154047478Y-125402240D01*
X153959574Y-125355254D01*
X153864192Y-125326321D01*
X153789853Y-125318999D01*
X153789845Y-125318999D01*
X153764999Y-125316552D01*
X153740153Y-125318999D01*
X153281898Y-125318999D01*
X153356180Y-125244717D01*
X153490898Y-125043097D01*
X153583693Y-124819069D01*
X153631000Y-124581243D01*
X153631000Y-124338757D01*
X153583693Y-124100931D01*
X153490898Y-123876903D01*
X153356180Y-123675283D01*
X153281898Y-123601001D01*
X153365410Y-123601001D01*
X153788242Y-124023833D01*
X153756307Y-124100931D01*
X153709000Y-124338757D01*
X153709000Y-124581243D01*
X153756307Y-124819069D01*
X153849102Y-125043097D01*
X153983820Y-125244717D01*
X154155283Y-125416180D01*
X154356903Y-125550898D01*
X154580931Y-125643693D01*
X154818757Y-125691000D01*
X155061243Y-125691000D01*
X155299069Y-125643693D01*
X155523097Y-125550898D01*
X155724717Y-125416180D01*
X155896180Y-125244717D01*
X156030898Y-125043097D01*
X156123693Y-124819069D01*
X156171000Y-124581243D01*
X156171000Y-124338757D01*
X156123693Y-124100931D01*
X156030898Y-123876903D01*
X155896180Y-123675283D01*
X155724717Y-123503820D01*
X155523097Y-123369102D01*
X155299069Y-123276307D01*
X155061243Y-123229000D01*
X154818757Y-123229000D01*
X154580931Y-123276307D01*
X154503833Y-123308242D01*
X153950377Y-122754786D01*
X153934528Y-122735474D01*
X153857480Y-122672242D01*
X153769576Y-122625256D01*
X153709668Y-122607084D01*
X153796825Y-122424099D01*
X153805091Y-122396846D01*
X153849102Y-122503097D01*
X153983820Y-122704717D01*
X154155283Y-122876180D01*
X154356903Y-123010898D01*
X154580931Y-123103693D01*
X154818757Y-123151000D01*
X155061243Y-123151000D01*
X155299069Y-123103693D01*
X155523097Y-123010898D01*
X155724717Y-122876180D01*
X155896180Y-122704717D01*
X156030898Y-122503097D01*
X156123693Y-122279069D01*
X156171000Y-122041243D01*
X156171000Y-121798757D01*
X156123693Y-121560931D01*
X156030898Y-121336903D01*
X155896180Y-121135283D01*
X155724717Y-120963820D01*
X155523097Y-120829102D01*
X155299069Y-120736307D01*
X155061243Y-120689000D01*
X154818757Y-120689000D01*
X154580931Y-120736307D01*
X154356903Y-120829102D01*
X154155283Y-120963820D01*
X153983820Y-121135283D01*
X153849102Y-121336903D01*
X153805091Y-121443154D01*
X153796825Y-121415901D01*
X153671641Y-121153080D01*
X153497588Y-120919731D01*
X153281355Y-120724822D01*
X153031252Y-120575843D01*
X152868832Y-120518228D01*
X152983097Y-120470898D01*
X153184717Y-120336180D01*
X153356180Y-120164717D01*
X153490898Y-119963097D01*
X153583693Y-119739069D01*
X153631000Y-119501243D01*
X153631000Y-119258757D01*
X153709000Y-119258757D01*
X153709000Y-119501243D01*
X153756307Y-119739069D01*
X153849102Y-119963097D01*
X153983820Y-120164717D01*
X154155283Y-120336180D01*
X154356903Y-120470898D01*
X154580931Y-120563693D01*
X154818757Y-120611000D01*
X155061243Y-120611000D01*
X155299069Y-120563693D01*
X155523097Y-120470898D01*
X155724717Y-120336180D01*
X155896180Y-120164717D01*
X156030898Y-119963097D01*
X156123693Y-119739069D01*
X156171000Y-119501243D01*
X156171000Y-119258757D01*
X156123693Y-119020931D01*
X156030898Y-118796903D01*
X155896180Y-118595283D01*
X155724717Y-118423820D01*
X155523097Y-118289102D01*
X155299069Y-118196307D01*
X155061243Y-118149000D01*
X154818757Y-118149000D01*
X154580931Y-118196307D01*
X154356903Y-118289102D01*
X154155283Y-118423820D01*
X153983820Y-118595283D01*
X153849102Y-118796903D01*
X153756307Y-119020931D01*
X153709000Y-119258757D01*
X153631000Y-119258757D01*
X153583693Y-119020931D01*
X153490898Y-118796903D01*
X153474942Y-118773023D01*
X153488131Y-118773023D01*
X153512977Y-118775470D01*
X153537823Y-118773023D01*
X153537831Y-118773023D01*
X153612170Y-118765701D01*
X153707552Y-118736768D01*
X153795456Y-118689782D01*
X153872504Y-118626550D01*
X153888353Y-118607238D01*
X154503833Y-117991758D01*
X154580931Y-118023693D01*
X154818757Y-118071000D01*
X155061243Y-118071000D01*
X155299069Y-118023693D01*
X155523097Y-117930898D01*
X155724717Y-117796180D01*
X155896180Y-117624717D01*
X156030898Y-117423097D01*
X156123693Y-117199069D01*
X156171000Y-116961243D01*
X156171000Y-116718757D01*
X156123693Y-116480931D01*
X156030898Y-116256903D01*
X155896180Y-116055283D01*
X155724717Y-115883820D01*
X155523097Y-115749102D01*
X155299069Y-115656307D01*
X155061243Y-115609000D01*
X154818757Y-115609000D01*
X154580931Y-115656307D01*
X154356903Y-115749102D01*
X154155283Y-115883820D01*
X153983820Y-116055283D01*
X153849102Y-116256903D01*
X153756307Y-116480931D01*
X153709000Y-116718757D01*
X153709000Y-116961243D01*
X153756307Y-117199069D01*
X153788242Y-117276167D01*
X153303386Y-117761023D01*
X153219874Y-117761023D01*
X153356180Y-117624717D01*
X153490898Y-117423097D01*
X153583693Y-117199069D01*
X153631000Y-116961243D01*
X153631000Y-116718757D01*
X153583693Y-116480931D01*
X153490898Y-116256903D01*
X153356180Y-116055283D01*
X153208898Y-115908001D01*
X153813153Y-115908001D01*
X153837999Y-115910448D01*
X153862845Y-115908001D01*
X153862853Y-115908001D01*
X153937192Y-115900679D01*
X154032574Y-115871746D01*
X154120478Y-115824760D01*
X154197526Y-115761528D01*
X154213375Y-115742216D01*
X154503833Y-115451758D01*
X154580931Y-115483693D01*
X154818757Y-115531000D01*
X155061243Y-115531000D01*
X155299069Y-115483693D01*
X155523097Y-115390898D01*
X155724717Y-115256180D01*
X155896180Y-115084717D01*
X156030898Y-114883097D01*
X156123693Y-114659069D01*
X156171000Y-114421243D01*
X156171000Y-114178757D01*
X156123693Y-113940931D01*
X156030898Y-113716903D01*
X155896180Y-113515283D01*
X155724717Y-113343820D01*
X155523097Y-113209102D01*
X155299069Y-113116307D01*
X155061243Y-113069000D01*
X154818757Y-113069000D01*
X154580931Y-113116307D01*
X154356903Y-113209102D01*
X154155283Y-113343820D01*
X153983820Y-113515283D01*
X153849102Y-113716903D01*
X153756307Y-113940931D01*
X153709000Y-114178757D01*
X153709000Y-114421243D01*
X153756307Y-114659069D01*
X153788242Y-114736167D01*
X153628408Y-114896001D01*
X153482276Y-114896001D01*
X153490898Y-114883097D01*
X153583693Y-114659069D01*
X153631000Y-114421243D01*
X153631000Y-114178757D01*
X153583693Y-113940931D01*
X153490898Y-113716903D01*
X153356180Y-113515283D01*
X153208898Y-113368001D01*
X153813153Y-113368001D01*
X153837999Y-113370448D01*
X153862845Y-113368001D01*
X153862853Y-113368001D01*
X153937192Y-113360679D01*
X154032574Y-113331746D01*
X154120478Y-113284760D01*
X154197526Y-113221528D01*
X154213375Y-113202216D01*
X154503833Y-112911758D01*
X154580931Y-112943693D01*
X154818757Y-112991000D01*
X155061243Y-112991000D01*
X155299069Y-112943693D01*
X155523097Y-112850898D01*
X155724717Y-112716180D01*
X155896180Y-112544717D01*
X156030898Y-112343097D01*
X156123693Y-112119069D01*
X156171000Y-111881243D01*
X156171000Y-111638757D01*
X156123693Y-111400931D01*
X156030898Y-111176903D01*
X155896180Y-110975283D01*
X155724717Y-110803820D01*
X155523097Y-110669102D01*
X155299069Y-110576307D01*
X155061243Y-110529000D01*
X154818757Y-110529000D01*
X154580931Y-110576307D01*
X154356903Y-110669102D01*
X154155283Y-110803820D01*
X153983820Y-110975283D01*
X153849102Y-111176903D01*
X153756307Y-111400931D01*
X153709000Y-111638757D01*
X153709000Y-111881243D01*
X153756307Y-112119069D01*
X153788242Y-112196167D01*
X153628408Y-112356001D01*
X153482276Y-112356001D01*
X153490898Y-112343097D01*
X153583693Y-112119069D01*
X153631000Y-111881243D01*
X153631000Y-111638757D01*
X153583693Y-111400931D01*
X153490898Y-111176903D01*
X153482637Y-111164539D01*
X153502001Y-111166446D01*
X153526847Y-111163999D01*
X153526855Y-111163999D01*
X153601194Y-111156677D01*
X153696576Y-111127744D01*
X153784480Y-111080758D01*
X153861528Y-111017526D01*
X153877377Y-110998214D01*
X154503833Y-110371758D01*
X154580931Y-110403693D01*
X154818757Y-110451000D01*
X155061243Y-110451000D01*
X155299069Y-110403693D01*
X155523097Y-110310898D01*
X155724717Y-110176180D01*
X155896180Y-110004717D01*
X156030898Y-109803097D01*
X156123693Y-109579069D01*
X156171000Y-109341243D01*
X156171000Y-109098757D01*
X156123693Y-108860931D01*
X156030898Y-108636903D01*
X155896180Y-108435283D01*
X155724717Y-108263820D01*
X155523097Y-108129102D01*
X155418683Y-108085852D01*
X155573747Y-108030919D01*
X155711157Y-107957472D01*
X155788792Y-107708397D01*
X154940000Y-106859605D01*
X154091208Y-107708397D01*
X154168843Y-107957472D01*
X154432883Y-108083371D01*
X154454228Y-108088789D01*
X154356903Y-108129102D01*
X154155283Y-108263820D01*
X153983820Y-108435283D01*
X153849102Y-108636903D01*
X153756307Y-108860931D01*
X153709000Y-109098757D01*
X153709000Y-109341243D01*
X153756307Y-109579069D01*
X153788242Y-109656167D01*
X153292410Y-110151999D01*
X153208898Y-110151999D01*
X153356180Y-110004717D01*
X153490898Y-109803097D01*
X153583693Y-109579069D01*
X153631000Y-109341243D01*
X153631000Y-109098757D01*
X153583693Y-108860931D01*
X153490898Y-108636903D01*
X153356180Y-108435283D01*
X153184717Y-108263820D01*
X152983097Y-108129102D01*
X152759069Y-108036307D01*
X152521243Y-107989000D01*
X152278757Y-107989000D01*
X152040931Y-108036307D01*
X151816903Y-108129102D01*
X151615283Y-108263820D01*
X151443820Y-108435283D01*
X151309102Y-108636903D01*
X151216307Y-108860931D01*
X151169000Y-109098757D01*
X151169000Y-109341243D01*
X151216307Y-109579069D01*
X151309102Y-109803097D01*
X151443820Y-110004717D01*
X151591102Y-110151999D01*
X149643592Y-110151999D01*
X151963833Y-107831758D01*
X152040931Y-107863693D01*
X152278757Y-107911000D01*
X152521243Y-107911000D01*
X152759069Y-107863693D01*
X152983097Y-107770898D01*
X153184717Y-107636180D01*
X153356180Y-107464717D01*
X153490898Y-107263097D01*
X153534148Y-107158683D01*
X153589081Y-107313747D01*
X153662528Y-107451157D01*
X153911603Y-107528792D01*
X154760395Y-106680000D01*
X153911603Y-105831208D01*
X153662528Y-105908843D01*
X153536629Y-106172883D01*
X153531211Y-106194228D01*
X153490898Y-106096903D01*
X153356180Y-105895283D01*
X153184717Y-105723820D01*
X152983097Y-105589102D01*
X152759069Y-105496307D01*
X152521243Y-105449000D01*
X152278757Y-105449000D01*
X152040931Y-105496307D01*
X151816903Y-105589102D01*
X151615283Y-105723820D01*
X151443820Y-105895283D01*
X151309102Y-106096903D01*
X151216307Y-106320931D01*
X151169000Y-106558757D01*
X151169000Y-106801243D01*
X151216307Y-107039069D01*
X151248242Y-107116167D01*
X148849630Y-109514779D01*
X148802242Y-109572522D01*
X148755255Y-109660426D01*
X148726322Y-109755808D01*
X148716553Y-109855000D01*
X148726322Y-109954192D01*
X148755255Y-110049574D01*
X148802242Y-110137478D01*
X148814159Y-110151999D01*
X148446855Y-110151999D01*
X148422001Y-110149551D01*
X148397147Y-110151999D01*
X148322808Y-110159321D01*
X148227426Y-110188254D01*
X148139522Y-110235240D01*
X148062474Y-110298472D01*
X148046630Y-110317778D01*
X145091786Y-113272623D01*
X145072474Y-113288472D01*
X145049497Y-113316469D01*
X145022987Y-113183193D01*
X144964113Y-113041060D01*
X144878642Y-112913143D01*
X144769859Y-112804360D01*
X144641942Y-112718889D01*
X144499809Y-112660015D01*
X144348922Y-112630002D01*
X144205362Y-112630002D01*
X144154480Y-112588244D01*
X144066576Y-112541258D01*
X143971194Y-112512325D01*
X143896855Y-112505003D01*
X143896847Y-112505003D01*
X143872001Y-112502556D01*
X143847155Y-112505003D01*
X135400679Y-112505003D01*
X135375825Y-112502555D01*
X135350971Y-112505003D01*
X135276632Y-112512325D01*
X135181250Y-112541258D01*
X135093346Y-112588244D01*
X135016298Y-112651476D01*
X135000453Y-112670783D01*
X134848994Y-112822242D01*
X134857061Y-112810169D01*
X134915935Y-112668036D01*
X134945948Y-112517149D01*
X134945948Y-112363305D01*
X134915935Y-112212418D01*
X134857061Y-112070285D01*
X134771590Y-111942368D01*
X134670948Y-111841726D01*
X134670948Y-111481485D01*
X134682122Y-111479262D01*
X134824255Y-111420388D01*
X134952172Y-111334917D01*
X135060955Y-111226134D01*
X135146426Y-111098217D01*
X135205300Y-110956084D01*
X135235313Y-110805197D01*
X135235313Y-110651353D01*
X135205300Y-110500466D01*
X135146426Y-110358333D01*
X135060955Y-110230416D01*
X134952172Y-110121633D01*
X134824255Y-110036162D01*
X134682122Y-109977288D01*
X134531235Y-109947275D01*
X134387675Y-109947275D01*
X134336793Y-109905517D01*
X134248889Y-109858531D01*
X134153507Y-109829598D01*
X134079168Y-109822276D01*
X134079160Y-109822276D01*
X134054314Y-109819829D01*
X134029468Y-109822276D01*
X130996569Y-109822276D01*
X130971723Y-109819829D01*
X130946877Y-109822276D01*
X130946870Y-109822276D01*
X130882418Y-109828624D01*
X130872530Y-109829598D01*
X130850331Y-109836332D01*
X130777149Y-109858531D01*
X130689245Y-109905517D01*
X130612197Y-109968749D01*
X130596352Y-109988056D01*
X129976167Y-110608242D01*
X129899069Y-110576307D01*
X129661243Y-110529000D01*
X129418757Y-110529000D01*
X129180931Y-110576307D01*
X128956903Y-110669102D01*
X128755283Y-110803820D01*
X128583820Y-110975283D01*
X128449102Y-111176903D01*
X128356307Y-111400931D01*
X128309000Y-111638757D01*
X128309000Y-111691999D01*
X128231000Y-111691999D01*
X128231000Y-111638757D01*
X128183693Y-111400931D01*
X128090898Y-111176903D01*
X127956180Y-110975283D01*
X127784717Y-110803820D01*
X127583097Y-110669102D01*
X127359069Y-110576307D01*
X127121243Y-110529000D01*
X126878757Y-110529000D01*
X126640931Y-110576307D01*
X126416903Y-110669102D01*
X126215283Y-110803820D01*
X126043820Y-110975283D01*
X125909102Y-111176903D01*
X125816307Y-111400931D01*
X125769000Y-111638757D01*
X125669890Y-111638757D01*
X125669890Y-107324166D01*
X125728359Y-107446920D01*
X125902412Y-107680269D01*
X126118645Y-107875178D01*
X126368748Y-108024157D01*
X126531168Y-108081772D01*
X126416903Y-108129102D01*
X126215283Y-108263820D01*
X126043820Y-108435283D01*
X125909102Y-108636903D01*
X125816307Y-108860931D01*
X125769000Y-109098757D01*
X125769000Y-109341243D01*
X125816307Y-109579069D01*
X125909102Y-109803097D01*
X126043820Y-110004717D01*
X126215283Y-110176180D01*
X126416903Y-110310898D01*
X126640931Y-110403693D01*
X126878757Y-110451000D01*
X127121243Y-110451000D01*
X127359069Y-110403693D01*
X127583097Y-110310898D01*
X127784717Y-110176180D01*
X127956180Y-110004717D01*
X128090898Y-109803097D01*
X128183693Y-109579069D01*
X128231000Y-109341243D01*
X128231000Y-109098757D01*
X128309000Y-109098757D01*
X128309000Y-109341243D01*
X128356307Y-109579069D01*
X128449102Y-109803097D01*
X128583820Y-110004717D01*
X128755283Y-110176180D01*
X128956903Y-110310898D01*
X129180931Y-110403693D01*
X129418757Y-110451000D01*
X129661243Y-110451000D01*
X129899069Y-110403693D01*
X130123097Y-110310898D01*
X130324717Y-110176180D01*
X130496180Y-110004717D01*
X130630898Y-109803097D01*
X130723693Y-109579069D01*
X130771000Y-109341243D01*
X130771000Y-109098757D01*
X130723693Y-108860931D01*
X130630898Y-108636903D01*
X130496180Y-108435283D01*
X130324717Y-108263820D01*
X130123097Y-108129102D01*
X129899069Y-108036307D01*
X129661243Y-107989000D01*
X129418757Y-107989000D01*
X129180931Y-108036307D01*
X128956903Y-108129102D01*
X128755283Y-108263820D01*
X128583820Y-108435283D01*
X128449102Y-108636903D01*
X128356307Y-108860931D01*
X128309000Y-109098757D01*
X128231000Y-109098757D01*
X128183693Y-108860931D01*
X128090898Y-108636903D01*
X127956180Y-108435283D01*
X127784717Y-108263820D01*
X127583097Y-108129102D01*
X127468832Y-108081772D01*
X127631252Y-108024157D01*
X127881355Y-107875178D01*
X128097588Y-107680269D01*
X128271641Y-107446920D01*
X128396825Y-107184099D01*
X128405091Y-107156846D01*
X128449102Y-107263097D01*
X128583820Y-107464717D01*
X128755283Y-107636180D01*
X128956903Y-107770898D01*
X129180931Y-107863693D01*
X129418757Y-107911000D01*
X129661243Y-107911000D01*
X129899069Y-107863693D01*
X130123097Y-107770898D01*
X130324717Y-107636180D01*
X130496180Y-107464717D01*
X130630898Y-107263097D01*
X130723693Y-107039069D01*
X130771000Y-106801243D01*
X130771000Y-106558757D01*
X130723693Y-106320931D01*
X130630898Y-106096903D01*
X130496180Y-105895283D01*
X130324717Y-105723820D01*
X130123097Y-105589102D01*
X129899069Y-105496307D01*
X129661243Y-105449000D01*
X129418757Y-105449000D01*
X129180931Y-105496307D01*
X128956903Y-105589102D01*
X128755283Y-105723820D01*
X128583820Y-105895283D01*
X128449102Y-106096903D01*
X128405091Y-106203154D01*
X128396825Y-106175901D01*
X128271641Y-105913080D01*
X128097588Y-105679731D01*
X127881355Y-105484822D01*
X127631252Y-105335843D01*
X127356891Y-105238519D01*
X127127002Y-105359185D01*
X127127002Y-105206176D01*
X127134120Y-105206000D01*
X154757009Y-105206000D01*
X154581981Y-105231401D01*
G36*
X136610513Y-131545817D02*
G01*
X136668833Y-131686613D01*
X136551191Y-131710013D01*
X136409058Y-131768887D01*
X136281141Y-131854358D01*
X136172358Y-131963141D01*
X136086887Y-132091058D01*
X136028013Y-132233191D01*
X135998000Y-132384078D01*
X135998000Y-132537922D01*
X136028013Y-132688809D01*
X136086887Y-132830942D01*
X136172358Y-132958859D01*
X136223879Y-133010380D01*
X136155058Y-133038887D01*
X136027141Y-133124358D01*
X135918358Y-133233141D01*
X135832887Y-133361058D01*
X135774013Y-133503191D01*
X135744000Y-133654078D01*
X135744000Y-133807922D01*
X135774013Y-133958809D01*
X135832887Y-134100942D01*
X135918358Y-134228859D01*
X136027141Y-134337642D01*
X136047118Y-134350990D01*
X133231782Y-134350990D01*
X133206928Y-134348542D01*
X133182074Y-134350990D01*
X133107735Y-134358312D01*
X133012353Y-134387245D01*
X132924449Y-134434231D01*
X132847401Y-134497463D01*
X132831556Y-134516770D01*
X132334131Y-135014196D01*
X132191800Y-135014196D01*
X132040913Y-135044209D01*
X131898780Y-135103083D01*
X131824000Y-135153049D01*
X131824000Y-134163045D01*
X131942859Y-134083626D01*
X132051642Y-133974843D01*
X132137113Y-133846926D01*
X132195987Y-133704793D01*
X132226000Y-133553906D01*
X132226000Y-133400062D01*
X132195987Y-133249175D01*
X132137113Y-133107042D01*
X132051642Y-132979125D01*
X131942859Y-132870342D01*
X131858583Y-132814031D01*
X132387580Y-132285034D01*
X132704533Y-132285034D01*
X132805175Y-132385676D01*
X132933092Y-132471147D01*
X133075225Y-132530021D01*
X133226112Y-132560034D01*
X133379956Y-132560034D01*
X133530843Y-132530021D01*
X133672976Y-132471147D01*
X133800893Y-132385676D01*
X133909676Y-132276893D01*
X133995147Y-132148976D01*
X134054021Y-132006843D01*
X134084034Y-131855956D01*
X134084034Y-131702112D01*
X134054021Y-131551225D01*
X134001323Y-131424001D01*
X136586283Y-131424001D01*
X136610513Y-131545817D01*
G37*
X136610513Y-131545817D02*
X136668833Y-131686613D01*
X136551191Y-131710013D01*
X136409058Y-131768887D01*
X136281141Y-131854358D01*
X136172358Y-131963141D01*
X136086887Y-132091058D01*
X136028013Y-132233191D01*
X135998000Y-132384078D01*
X135998000Y-132537922D01*
X136028013Y-132688809D01*
X136086887Y-132830942D01*
X136172358Y-132958859D01*
X136223879Y-133010380D01*
X136155058Y-133038887D01*
X136027141Y-133124358D01*
X135918358Y-133233141D01*
X135832887Y-133361058D01*
X135774013Y-133503191D01*
X135744000Y-133654078D01*
X135744000Y-133807922D01*
X135774013Y-133958809D01*
X135832887Y-134100942D01*
X135918358Y-134228859D01*
X136027141Y-134337642D01*
X136047118Y-134350990D01*
X133231782Y-134350990D01*
X133206928Y-134348542D01*
X133182074Y-134350990D01*
X133107735Y-134358312D01*
X133012353Y-134387245D01*
X132924449Y-134434231D01*
X132847401Y-134497463D01*
X132831556Y-134516770D01*
X132334131Y-135014196D01*
X132191800Y-135014196D01*
X132040913Y-135044209D01*
X131898780Y-135103083D01*
X131824000Y-135153049D01*
X131824000Y-134163045D01*
X131942859Y-134083626D01*
X132051642Y-133974843D01*
X132137113Y-133846926D01*
X132195987Y-133704793D01*
X132226000Y-133553906D01*
X132226000Y-133400062D01*
X132195987Y-133249175D01*
X132137113Y-133107042D01*
X132051642Y-132979125D01*
X131942859Y-132870342D01*
X131858583Y-132814031D01*
X132387580Y-132285034D01*
X132704533Y-132285034D01*
X132805175Y-132385676D01*
X132933092Y-132471147D01*
X133075225Y-132530021D01*
X133226112Y-132560034D01*
X133379956Y-132560034D01*
X133530843Y-132530021D01*
X133672976Y-132471147D01*
X133800893Y-132385676D01*
X133909676Y-132276893D01*
X133995147Y-132148976D01*
X134054021Y-132006843D01*
X134084034Y-131855956D01*
X134084034Y-131702112D01*
X134054021Y-131551225D01*
X134001323Y-131424001D01*
X136586283Y-131424001D01*
X136610513Y-131545817D01*
G36*
X137591078Y-119924000D02*
G01*
X137733409Y-119924000D01*
X139106002Y-121296594D01*
X139106001Y-122999145D01*
X139106001Y-123104001D01*
X138391155Y-123104001D01*
X138418987Y-123036809D01*
X138449000Y-122885922D01*
X138449000Y-122732078D01*
X138418987Y-122581191D01*
X138360113Y-122439058D01*
X138274642Y-122311141D01*
X138174000Y-122210499D01*
X138174000Y-120801845D01*
X138176447Y-120776999D01*
X138174000Y-120752153D01*
X138174000Y-120752146D01*
X138166678Y-120677807D01*
X138166305Y-120676575D01*
X138153083Y-120632990D01*
X138137745Y-120582425D01*
X138090759Y-120494521D01*
X138027527Y-120417473D01*
X138008220Y-120401628D01*
X137515573Y-119908981D01*
X137591078Y-119924000D01*
G37*
X137591078Y-119924000D02*
X137733409Y-119924000D01*
X139106002Y-121296594D01*
X139106001Y-122999145D01*
X139106001Y-123104001D01*
X138391155Y-123104001D01*
X138418987Y-123036809D01*
X138449000Y-122885922D01*
X138449000Y-122732078D01*
X138418987Y-122581191D01*
X138360113Y-122439058D01*
X138274642Y-122311141D01*
X138174000Y-122210499D01*
X138174000Y-120801845D01*
X138176447Y-120776999D01*
X138174000Y-120752153D01*
X138174000Y-120752146D01*
X138166678Y-120677807D01*
X138166305Y-120676575D01*
X138153083Y-120632990D01*
X138137745Y-120582425D01*
X138090759Y-120494521D01*
X138027527Y-120417473D01*
X138008220Y-120401628D01*
X137515573Y-119908981D01*
X137591078Y-119924000D01*
G36*
X143521013Y-113638811D02*
G01*
X143579887Y-113780944D01*
X143665358Y-113908861D01*
X143774141Y-114017644D01*
X143902058Y-114103115D01*
X144037922Y-114159392D01*
X143926578Y-114233790D01*
X143817795Y-114342573D01*
X143732324Y-114470490D01*
X143673450Y-114612623D01*
X143643437Y-114763510D01*
X143643437Y-114917354D01*
X143673450Y-115068241D01*
X143732324Y-115210374D01*
X143778039Y-115278791D01*
X143699117Y-115396907D01*
X143640243Y-115539040D01*
X143610230Y-115689927D01*
X143610230Y-115843771D01*
X143623971Y-115912850D01*
X135678442Y-115912850D01*
X135401000Y-115635409D01*
X135401000Y-115493078D01*
X135370987Y-115342191D01*
X135312113Y-115200058D01*
X135226642Y-115072141D01*
X135117859Y-114963358D01*
X135072428Y-114933002D01*
X137069499Y-114933002D01*
X137170141Y-115033644D01*
X137298058Y-115119115D01*
X137440191Y-115177989D01*
X137591078Y-115208002D01*
X137744922Y-115208002D01*
X137895809Y-115177989D01*
X138037942Y-115119115D01*
X138165859Y-115033644D01*
X138274642Y-114924861D01*
X138360113Y-114796944D01*
X138418987Y-114654811D01*
X138449000Y-114503924D01*
X138449000Y-114350080D01*
X138418987Y-114199193D01*
X138360113Y-114057060D01*
X138274642Y-113929143D01*
X138165859Y-113820360D01*
X138037942Y-113734889D01*
X137895809Y-113676015D01*
X137744922Y-113646002D01*
X137591078Y-113646002D01*
X137440191Y-113676015D01*
X137298058Y-113734889D01*
X137170141Y-113820360D01*
X137069499Y-113921002D01*
X135181417Y-113921002D01*
X135585417Y-113517003D01*
X143496784Y-113517003D01*
X143521013Y-113638811D01*
G37*
X143521013Y-113638811D02*
X143579887Y-113780944D01*
X143665358Y-113908861D01*
X143774141Y-114017644D01*
X143902058Y-114103115D01*
X144037922Y-114159392D01*
X143926578Y-114233790D01*
X143817795Y-114342573D01*
X143732324Y-114470490D01*
X143673450Y-114612623D01*
X143643437Y-114763510D01*
X143643437Y-114917354D01*
X143673450Y-115068241D01*
X143732324Y-115210374D01*
X143778039Y-115278791D01*
X143699117Y-115396907D01*
X143640243Y-115539040D01*
X143610230Y-115689927D01*
X143610230Y-115843771D01*
X143623971Y-115912850D01*
X135678442Y-115912850D01*
X135401000Y-115635409D01*
X135401000Y-115493078D01*
X135370987Y-115342191D01*
X135312113Y-115200058D01*
X135226642Y-115072141D01*
X135117859Y-114963358D01*
X135072428Y-114933002D01*
X137069499Y-114933002D01*
X137170141Y-115033644D01*
X137298058Y-115119115D01*
X137440191Y-115177989D01*
X137591078Y-115208002D01*
X137744922Y-115208002D01*
X137895809Y-115177989D01*
X138037942Y-115119115D01*
X138165859Y-115033644D01*
X138274642Y-114924861D01*
X138360113Y-114796944D01*
X138418987Y-114654811D01*
X138449000Y-114503924D01*
X138449000Y-114350080D01*
X138418987Y-114199193D01*
X138360113Y-114057060D01*
X138274642Y-113929143D01*
X138165859Y-113820360D01*
X138037942Y-113734889D01*
X137895809Y-113676015D01*
X137744922Y-113646002D01*
X137591078Y-113646002D01*
X137440191Y-113676015D01*
X137298058Y-113734889D01*
X137170141Y-113820360D01*
X137069499Y-113921002D01*
X135181417Y-113921002D01*
X135585417Y-113517003D01*
X143496784Y-113517003D01*
X143521013Y-113638811D01*
G36*
X127127000Y-106553000D02*
G01*
X127147000Y-106553000D01*
X127147000Y-106807000D01*
X127127000Y-106807000D01*
X127127000Y-106827000D01*
X126873000Y-106827000D01*
X126873000Y-106807000D01*
X126853000Y-106807000D01*
X126853000Y-106553000D01*
X126873000Y-106553000D01*
X126873000Y-106533000D01*
X127127000Y-106533000D01*
X127127000Y-106553000D01*
G37*
X127127000Y-106553000D02*
X127147000Y-106553000D01*
X127147000Y-106807000D01*
X127127000Y-106807000D01*
X127127000Y-106827000D01*
X126873000Y-106827000D01*
X126873000Y-106807000D01*
X126853000Y-106807000D01*
X126853000Y-106553000D01*
X126873000Y-106553000D01*
X126873000Y-106533000D01*
X127127000Y-106533000D01*
X127127000Y-106553000D01*
%TD*%
M02*
