%TF.GenerationSoftware,KiCad,Pcbnew,(5.1.6-0-10_14)*%
%TF.CreationDate,2020-08-20T18:16:30+02:00*%
%TF.ProjectId,USBCWrover,55534243-5772-46f7-9665-722e6b696361,rev?*%
%TF.SameCoordinates,Original*%
%TF.FileFunction,Paste,Top*%
%TF.FilePolarity,Positive*%
%FSLAX46Y46*%
G04 Gerber Fmt 4.6, Leading zero omitted, Abs format (unit mm)*
G04 Created by KiCad (PCBNEW (5.1.6-0-10_14)) date 2020-08-20 18:16:30*
%MOMM*%
%LPD*%
G01*
G04 APERTURE LIST*
%ADD10R,1.550000X1.300000*%
%ADD11R,0.600000X1.450000*%
%ADD12R,0.300000X1.450000*%
%ADD13R,1.060000X0.650000*%
%ADD14R,0.700000X0.510000*%
G04 APERTURE END LIST*
D10*
%TO.C,SW1*%
X134531000Y-143093000D03*
X134531000Y-138593000D03*
X126581000Y-138593000D03*
X126581000Y-143093000D03*
%TD*%
D11*
%TO.C,J1*%
X144347000Y-138449000D03*
X143547000Y-138449000D03*
X138647000Y-138449000D03*
X137847000Y-138449000D03*
X137847000Y-138449000D03*
X138647000Y-138449000D03*
X143547000Y-138449000D03*
X144347000Y-138449000D03*
D12*
X139347000Y-138449000D03*
X139847000Y-138449000D03*
X140347000Y-138449000D03*
X141347000Y-138449000D03*
X141847000Y-138449000D03*
X142347000Y-138449000D03*
X142847000Y-138449000D03*
X140847000Y-138449000D03*
%TD*%
%TO.C,U4*%
G36*
G01*
X130982400Y-106244600D02*
X130982400Y-105794600D01*
G75*
G02*
X131207400Y-105569600I225000J0D01*
G01*
X132757400Y-105569600D01*
G75*
G02*
X132982400Y-105794600I0J-225000D01*
G01*
X132982400Y-106244600D01*
G75*
G02*
X132757400Y-106469600I-225000J0D01*
G01*
X131207400Y-106469600D01*
G75*
G02*
X130982400Y-106244600I0J225000D01*
G01*
G37*
G36*
G01*
X130982400Y-107514600D02*
X130982400Y-107064600D01*
G75*
G02*
X131207400Y-106839600I225000J0D01*
G01*
X132757400Y-106839600D01*
G75*
G02*
X132982400Y-107064600I0J-225000D01*
G01*
X132982400Y-107514600D01*
G75*
G02*
X132757400Y-107739600I-225000J0D01*
G01*
X131207400Y-107739600D01*
G75*
G02*
X130982400Y-107514600I0J225000D01*
G01*
G37*
G36*
G01*
X130982400Y-108784600D02*
X130982400Y-108334600D01*
G75*
G02*
X131207400Y-108109600I225000J0D01*
G01*
X132757400Y-108109600D01*
G75*
G02*
X132982400Y-108334600I0J-225000D01*
G01*
X132982400Y-108784600D01*
G75*
G02*
X132757400Y-109009600I-225000J0D01*
G01*
X131207400Y-109009600D01*
G75*
G02*
X130982400Y-108784600I0J225000D01*
G01*
G37*
G36*
G01*
X130982400Y-110054600D02*
X130982400Y-109604600D01*
G75*
G02*
X131207400Y-109379600I225000J0D01*
G01*
X132757400Y-109379600D01*
G75*
G02*
X132982400Y-109604600I0J-225000D01*
G01*
X132982400Y-110054600D01*
G75*
G02*
X132757400Y-110279600I-225000J0D01*
G01*
X131207400Y-110279600D01*
G75*
G02*
X130982400Y-110054600I0J225000D01*
G01*
G37*
G36*
G01*
X130982400Y-111324600D02*
X130982400Y-110874600D01*
G75*
G02*
X131207400Y-110649600I225000J0D01*
G01*
X132757400Y-110649600D01*
G75*
G02*
X132982400Y-110874600I0J-225000D01*
G01*
X132982400Y-111324600D01*
G75*
G02*
X132757400Y-111549600I-225000J0D01*
G01*
X131207400Y-111549600D01*
G75*
G02*
X130982400Y-111324600I0J225000D01*
G01*
G37*
G36*
G01*
X130982400Y-112594600D02*
X130982400Y-112144600D01*
G75*
G02*
X131207400Y-111919600I225000J0D01*
G01*
X132757400Y-111919600D01*
G75*
G02*
X132982400Y-112144600I0J-225000D01*
G01*
X132982400Y-112594600D01*
G75*
G02*
X132757400Y-112819600I-225000J0D01*
G01*
X131207400Y-112819600D01*
G75*
G02*
X130982400Y-112594600I0J225000D01*
G01*
G37*
G36*
G01*
X130982400Y-113864600D02*
X130982400Y-113414600D01*
G75*
G02*
X131207400Y-113189600I225000J0D01*
G01*
X132757400Y-113189600D01*
G75*
G02*
X132982400Y-113414600I0J-225000D01*
G01*
X132982400Y-113864600D01*
G75*
G02*
X132757400Y-114089600I-225000J0D01*
G01*
X131207400Y-114089600D01*
G75*
G02*
X130982400Y-113864600I0J225000D01*
G01*
G37*
G36*
G01*
X130982400Y-115134600D02*
X130982400Y-114684600D01*
G75*
G02*
X131207400Y-114459600I225000J0D01*
G01*
X132757400Y-114459600D01*
G75*
G02*
X132982400Y-114684600I0J-225000D01*
G01*
X132982400Y-115134600D01*
G75*
G02*
X132757400Y-115359600I-225000J0D01*
G01*
X131207400Y-115359600D01*
G75*
G02*
X130982400Y-115134600I0J225000D01*
G01*
G37*
G36*
G01*
X130982400Y-116404600D02*
X130982400Y-115954600D01*
G75*
G02*
X131207400Y-115729600I225000J0D01*
G01*
X132757400Y-115729600D01*
G75*
G02*
X132982400Y-115954600I0J-225000D01*
G01*
X132982400Y-116404600D01*
G75*
G02*
X132757400Y-116629600I-225000J0D01*
G01*
X131207400Y-116629600D01*
G75*
G02*
X130982400Y-116404600I0J225000D01*
G01*
G37*
G36*
G01*
X130982400Y-117674600D02*
X130982400Y-117224600D01*
G75*
G02*
X131207400Y-116999600I225000J0D01*
G01*
X132757400Y-116999600D01*
G75*
G02*
X132982400Y-117224600I0J-225000D01*
G01*
X132982400Y-117674600D01*
G75*
G02*
X132757400Y-117899600I-225000J0D01*
G01*
X131207400Y-117899600D01*
G75*
G02*
X130982400Y-117674600I0J225000D01*
G01*
G37*
G36*
G01*
X130982400Y-118944600D02*
X130982400Y-118494600D01*
G75*
G02*
X131207400Y-118269600I225000J0D01*
G01*
X132757400Y-118269600D01*
G75*
G02*
X132982400Y-118494600I0J-225000D01*
G01*
X132982400Y-118944600D01*
G75*
G02*
X132757400Y-119169600I-225000J0D01*
G01*
X131207400Y-119169600D01*
G75*
G02*
X130982400Y-118944600I0J225000D01*
G01*
G37*
G36*
G01*
X130982400Y-120214600D02*
X130982400Y-119764600D01*
G75*
G02*
X131207400Y-119539600I225000J0D01*
G01*
X132757400Y-119539600D01*
G75*
G02*
X132982400Y-119764600I0J-225000D01*
G01*
X132982400Y-120214600D01*
G75*
G02*
X132757400Y-120439600I-225000J0D01*
G01*
X131207400Y-120439600D01*
G75*
G02*
X130982400Y-120214600I0J225000D01*
G01*
G37*
G36*
G01*
X130982400Y-121484600D02*
X130982400Y-121034600D01*
G75*
G02*
X131207400Y-120809600I225000J0D01*
G01*
X132757400Y-120809600D01*
G75*
G02*
X132982400Y-121034600I0J-225000D01*
G01*
X132982400Y-121484600D01*
G75*
G02*
X132757400Y-121709600I-225000J0D01*
G01*
X131207400Y-121709600D01*
G75*
G02*
X130982400Y-121484600I0J225000D01*
G01*
G37*
G36*
G01*
X130982400Y-122754600D02*
X130982400Y-122304600D01*
G75*
G02*
X131207400Y-122079600I225000J0D01*
G01*
X132757400Y-122079600D01*
G75*
G02*
X132982400Y-122304600I0J-225000D01*
G01*
X132982400Y-122754600D01*
G75*
G02*
X132757400Y-122979600I-225000J0D01*
G01*
X131207400Y-122979600D01*
G75*
G02*
X130982400Y-122754600I0J225000D01*
G01*
G37*
G36*
G01*
X130982400Y-124054600D02*
X130982400Y-123604600D01*
G75*
G02*
X131207400Y-123379600I225000J0D01*
G01*
X132757400Y-123379600D01*
G75*
G02*
X132982400Y-123604600I0J-225000D01*
G01*
X132982400Y-124054600D01*
G75*
G02*
X132757400Y-124279600I-225000J0D01*
G01*
X131207400Y-124279600D01*
G75*
G02*
X130982400Y-124054600I0J225000D01*
G01*
G37*
G36*
G01*
X130982400Y-125324600D02*
X130982400Y-124874600D01*
G75*
G02*
X131207400Y-124649600I225000J0D01*
G01*
X132757400Y-124649600D01*
G75*
G02*
X132982400Y-124874600I0J-225000D01*
G01*
X132982400Y-125324600D01*
G75*
G02*
X132757400Y-125549600I-225000J0D01*
G01*
X131207400Y-125549600D01*
G75*
G02*
X130982400Y-125324600I0J225000D01*
G01*
G37*
G36*
G01*
X130982400Y-126594600D02*
X130982400Y-126144600D01*
G75*
G02*
X131207400Y-125919600I225000J0D01*
G01*
X132757400Y-125919600D01*
G75*
G02*
X132982400Y-126144600I0J-225000D01*
G01*
X132982400Y-126594600D01*
G75*
G02*
X132757400Y-126819600I-225000J0D01*
G01*
X131207400Y-126819600D01*
G75*
G02*
X130982400Y-126594600I0J225000D01*
G01*
G37*
G36*
G01*
X130982400Y-127864600D02*
X130982400Y-127414600D01*
G75*
G02*
X131207400Y-127189600I225000J0D01*
G01*
X132757400Y-127189600D01*
G75*
G02*
X132982400Y-127414600I0J-225000D01*
G01*
X132982400Y-127864600D01*
G75*
G02*
X132757400Y-128089600I-225000J0D01*
G01*
X131207400Y-128089600D01*
G75*
G02*
X130982400Y-127864600I0J225000D01*
G01*
G37*
G36*
G01*
X130982400Y-129134600D02*
X130982400Y-128684600D01*
G75*
G02*
X131207400Y-128459600I225000J0D01*
G01*
X132757400Y-128459600D01*
G75*
G02*
X132982400Y-128684600I0J-225000D01*
G01*
X132982400Y-129134600D01*
G75*
G02*
X132757400Y-129359600I-225000J0D01*
G01*
X131207400Y-129359600D01*
G75*
G02*
X130982400Y-129134600I0J225000D01*
G01*
G37*
G36*
G01*
X148982400Y-129134600D02*
X148982400Y-128684600D01*
G75*
G02*
X149207400Y-128459600I225000J0D01*
G01*
X150757400Y-128459600D01*
G75*
G02*
X150982400Y-128684600I0J-225000D01*
G01*
X150982400Y-129134600D01*
G75*
G02*
X150757400Y-129359600I-225000J0D01*
G01*
X149207400Y-129359600D01*
G75*
G02*
X148982400Y-129134600I0J225000D01*
G01*
G37*
G36*
G01*
X148982400Y-127864600D02*
X148982400Y-127414600D01*
G75*
G02*
X149207400Y-127189600I225000J0D01*
G01*
X150757400Y-127189600D01*
G75*
G02*
X150982400Y-127414600I0J-225000D01*
G01*
X150982400Y-127864600D01*
G75*
G02*
X150757400Y-128089600I-225000J0D01*
G01*
X149207400Y-128089600D01*
G75*
G02*
X148982400Y-127864600I0J225000D01*
G01*
G37*
G36*
G01*
X148982400Y-126594600D02*
X148982400Y-126144600D01*
G75*
G02*
X149207400Y-125919600I225000J0D01*
G01*
X150757400Y-125919600D01*
G75*
G02*
X150982400Y-126144600I0J-225000D01*
G01*
X150982400Y-126594600D01*
G75*
G02*
X150757400Y-126819600I-225000J0D01*
G01*
X149207400Y-126819600D01*
G75*
G02*
X148982400Y-126594600I0J225000D01*
G01*
G37*
G36*
G01*
X148982400Y-125324600D02*
X148982400Y-124874600D01*
G75*
G02*
X149207400Y-124649600I225000J0D01*
G01*
X150757400Y-124649600D01*
G75*
G02*
X150982400Y-124874600I0J-225000D01*
G01*
X150982400Y-125324600D01*
G75*
G02*
X150757400Y-125549600I-225000J0D01*
G01*
X149207400Y-125549600D01*
G75*
G02*
X148982400Y-125324600I0J225000D01*
G01*
G37*
G36*
G01*
X148982400Y-124054600D02*
X148982400Y-123604600D01*
G75*
G02*
X149207400Y-123379600I225000J0D01*
G01*
X150757400Y-123379600D01*
G75*
G02*
X150982400Y-123604600I0J-225000D01*
G01*
X150982400Y-124054600D01*
G75*
G02*
X150757400Y-124279600I-225000J0D01*
G01*
X149207400Y-124279600D01*
G75*
G02*
X148982400Y-124054600I0J225000D01*
G01*
G37*
G36*
G01*
X149012400Y-122754600D02*
X149012400Y-122304600D01*
G75*
G02*
X149237400Y-122079600I225000J0D01*
G01*
X150787400Y-122079600D01*
G75*
G02*
X151012400Y-122304600I0J-225000D01*
G01*
X151012400Y-122754600D01*
G75*
G02*
X150787400Y-122979600I-225000J0D01*
G01*
X149237400Y-122979600D01*
G75*
G02*
X149012400Y-122754600I0J225000D01*
G01*
G37*
G36*
G01*
X149012400Y-121484600D02*
X149012400Y-121034600D01*
G75*
G02*
X149237400Y-120809600I225000J0D01*
G01*
X150787400Y-120809600D01*
G75*
G02*
X151012400Y-121034600I0J-225000D01*
G01*
X151012400Y-121484600D01*
G75*
G02*
X150787400Y-121709600I-225000J0D01*
G01*
X149237400Y-121709600D01*
G75*
G02*
X149012400Y-121484600I0J225000D01*
G01*
G37*
G36*
G01*
X149012400Y-120214600D02*
X149012400Y-119764600D01*
G75*
G02*
X149237400Y-119539600I225000J0D01*
G01*
X150787400Y-119539600D01*
G75*
G02*
X151012400Y-119764600I0J-225000D01*
G01*
X151012400Y-120214600D01*
G75*
G02*
X150787400Y-120439600I-225000J0D01*
G01*
X149237400Y-120439600D01*
G75*
G02*
X149012400Y-120214600I0J225000D01*
G01*
G37*
G36*
G01*
X149012400Y-118944600D02*
X149012400Y-118494600D01*
G75*
G02*
X149237400Y-118269600I225000J0D01*
G01*
X150787400Y-118269600D01*
G75*
G02*
X151012400Y-118494600I0J-225000D01*
G01*
X151012400Y-118944600D01*
G75*
G02*
X150787400Y-119169600I-225000J0D01*
G01*
X149237400Y-119169600D01*
G75*
G02*
X149012400Y-118944600I0J225000D01*
G01*
G37*
G36*
G01*
X149012400Y-117674600D02*
X149012400Y-117224600D01*
G75*
G02*
X149237400Y-116999600I225000J0D01*
G01*
X150787400Y-116999600D01*
G75*
G02*
X151012400Y-117224600I0J-225000D01*
G01*
X151012400Y-117674600D01*
G75*
G02*
X150787400Y-117899600I-225000J0D01*
G01*
X149237400Y-117899600D01*
G75*
G02*
X149012400Y-117674600I0J225000D01*
G01*
G37*
G36*
G01*
X149012400Y-116404600D02*
X149012400Y-115954600D01*
G75*
G02*
X149237400Y-115729600I225000J0D01*
G01*
X150787400Y-115729600D01*
G75*
G02*
X151012400Y-115954600I0J-225000D01*
G01*
X151012400Y-116404600D01*
G75*
G02*
X150787400Y-116629600I-225000J0D01*
G01*
X149237400Y-116629600D01*
G75*
G02*
X149012400Y-116404600I0J225000D01*
G01*
G37*
G36*
G01*
X149012400Y-115134600D02*
X149012400Y-114684600D01*
G75*
G02*
X149237400Y-114459600I225000J0D01*
G01*
X150787400Y-114459600D01*
G75*
G02*
X151012400Y-114684600I0J-225000D01*
G01*
X151012400Y-115134600D01*
G75*
G02*
X150787400Y-115359600I-225000J0D01*
G01*
X149237400Y-115359600D01*
G75*
G02*
X149012400Y-115134600I0J225000D01*
G01*
G37*
G36*
G01*
X149012400Y-113864600D02*
X149012400Y-113414600D01*
G75*
G02*
X149237400Y-113189600I225000J0D01*
G01*
X150787400Y-113189600D01*
G75*
G02*
X151012400Y-113414600I0J-225000D01*
G01*
X151012400Y-113864600D01*
G75*
G02*
X150787400Y-114089600I-225000J0D01*
G01*
X149237400Y-114089600D01*
G75*
G02*
X149012400Y-113864600I0J225000D01*
G01*
G37*
G36*
G01*
X149012400Y-112594600D02*
X149012400Y-112144600D01*
G75*
G02*
X149237400Y-111919600I225000J0D01*
G01*
X150787400Y-111919600D01*
G75*
G02*
X151012400Y-112144600I0J-225000D01*
G01*
X151012400Y-112594600D01*
G75*
G02*
X150787400Y-112819600I-225000J0D01*
G01*
X149237400Y-112819600D01*
G75*
G02*
X149012400Y-112594600I0J225000D01*
G01*
G37*
G36*
G01*
X149012400Y-111324600D02*
X149012400Y-110874600D01*
G75*
G02*
X149237400Y-110649600I225000J0D01*
G01*
X150787400Y-110649600D01*
G75*
G02*
X151012400Y-110874600I0J-225000D01*
G01*
X151012400Y-111324600D01*
G75*
G02*
X150787400Y-111549600I-225000J0D01*
G01*
X149237400Y-111549600D01*
G75*
G02*
X149012400Y-111324600I0J225000D01*
G01*
G37*
G36*
G01*
X149012400Y-110054600D02*
X149012400Y-109604600D01*
G75*
G02*
X149237400Y-109379600I225000J0D01*
G01*
X150787400Y-109379600D01*
G75*
G02*
X151012400Y-109604600I0J-225000D01*
G01*
X151012400Y-110054600D01*
G75*
G02*
X150787400Y-110279600I-225000J0D01*
G01*
X149237400Y-110279600D01*
G75*
G02*
X149012400Y-110054600I0J225000D01*
G01*
G37*
G36*
G01*
X149012400Y-108784600D02*
X149012400Y-108334600D01*
G75*
G02*
X149237400Y-108109600I225000J0D01*
G01*
X150787400Y-108109600D01*
G75*
G02*
X151012400Y-108334600I0J-225000D01*
G01*
X151012400Y-108784600D01*
G75*
G02*
X150787400Y-109009600I-225000J0D01*
G01*
X149237400Y-109009600D01*
G75*
G02*
X149012400Y-108784600I0J225000D01*
G01*
G37*
G36*
G01*
X149012400Y-107514600D02*
X149012400Y-107064600D01*
G75*
G02*
X149237400Y-106839600I225000J0D01*
G01*
X150787400Y-106839600D01*
G75*
G02*
X151012400Y-107064600I0J-225000D01*
G01*
X151012400Y-107514600D01*
G75*
G02*
X150787400Y-107739600I-225000J0D01*
G01*
X149237400Y-107739600D01*
G75*
G02*
X149012400Y-107514600I0J225000D01*
G01*
G37*
G36*
G01*
X149012400Y-106244600D02*
X149012400Y-105794600D01*
G75*
G02*
X149237400Y-105569600I225000J0D01*
G01*
X150787400Y-105569600D01*
G75*
G02*
X151012400Y-105794600I0J-225000D01*
G01*
X151012400Y-106244600D01*
G75*
G02*
X150787400Y-106469600I-225000J0D01*
G01*
X149237400Y-106469600D01*
G75*
G02*
X149012400Y-106244600I0J225000D01*
G01*
G37*
%TD*%
D13*
%TO.C,U3*%
X149776000Y-134808000D03*
X149776000Y-132908000D03*
X151976000Y-132908000D03*
X151976000Y-133858000D03*
X151976000Y-134808000D03*
%TD*%
%TO.C,R2*%
G36*
G01*
X144430000Y-134871750D02*
X144430000Y-135384250D01*
G75*
G02*
X144211250Y-135603000I-218750J0D01*
G01*
X143773750Y-135603000D01*
G75*
G02*
X143555000Y-135384250I0J218750D01*
G01*
X143555000Y-134871750D01*
G75*
G02*
X143773750Y-134653000I218750J0D01*
G01*
X144211250Y-134653000D01*
G75*
G02*
X144430000Y-134871750I0J-218750D01*
G01*
G37*
G36*
G01*
X146005000Y-134871750D02*
X146005000Y-135384250D01*
G75*
G02*
X145786250Y-135603000I-218750J0D01*
G01*
X145348750Y-135603000D01*
G75*
G02*
X145130000Y-135384250I0J218750D01*
G01*
X145130000Y-134871750D01*
G75*
G02*
X145348750Y-134653000I218750J0D01*
G01*
X145786250Y-134653000D01*
G75*
G02*
X146005000Y-134871750I0J-218750D01*
G01*
G37*
%TD*%
D14*
%TO.C,U1*%
X130463000Y-132715000D03*
X130463000Y-133665000D03*
X130463000Y-134615000D03*
X128143000Y-134615000D03*
X128143000Y-133665000D03*
X128143000Y-132715000D03*
%TD*%
%TO.C,U2*%
G36*
G01*
X141264001Y-133765500D02*
X140713999Y-133765500D01*
G75*
G02*
X140464000Y-133515501I0J249999D01*
G01*
X140464000Y-132965499D01*
G75*
G02*
X140713999Y-132715500I249999J0D01*
G01*
X141264001Y-132715500D01*
G75*
G02*
X141514000Y-132965499I0J-249999D01*
G01*
X141514000Y-133515501D01*
G75*
G02*
X141264001Y-133765500I-249999J0D01*
G01*
G37*
G36*
G01*
X139964001Y-133765500D02*
X139413999Y-133765500D01*
G75*
G02*
X139164000Y-133515501I0J249999D01*
G01*
X139164000Y-132965499D01*
G75*
G02*
X139413999Y-132715500I249999J0D01*
G01*
X139964001Y-132715500D01*
G75*
G02*
X140214000Y-132965499I0J-249999D01*
G01*
X140214000Y-133515501D01*
G75*
G02*
X139964001Y-133765500I-249999J0D01*
G01*
G37*
G36*
G01*
X141264001Y-135065500D02*
X140713999Y-135065500D01*
G75*
G02*
X140464000Y-134815501I0J249999D01*
G01*
X140464000Y-134265499D01*
G75*
G02*
X140713999Y-134015500I249999J0D01*
G01*
X141264001Y-134015500D01*
G75*
G02*
X141514000Y-134265499I0J-249999D01*
G01*
X141514000Y-134815501D01*
G75*
G02*
X141264001Y-135065500I-249999J0D01*
G01*
G37*
G36*
G01*
X139964001Y-135065500D02*
X139413999Y-135065500D01*
G75*
G02*
X139164000Y-134815501I0J249999D01*
G01*
X139164000Y-134265499D01*
G75*
G02*
X139413999Y-134015500I249999J0D01*
G01*
X139964001Y-134015500D01*
G75*
G02*
X140214000Y-134265499I0J-249999D01*
G01*
X140214000Y-134815501D01*
G75*
G02*
X139964001Y-135065500I-249999J0D01*
G01*
G37*
G36*
G01*
X138751500Y-135265500D02*
X138051500Y-135265500D01*
G75*
G02*
X137989000Y-135203000I0J62500D01*
G01*
X137989000Y-135078000D01*
G75*
G02*
X138051500Y-135015500I62500J0D01*
G01*
X138751500Y-135015500D01*
G75*
G02*
X138814000Y-135078000I0J-62500D01*
G01*
X138814000Y-135203000D01*
G75*
G02*
X138751500Y-135265500I-62500J0D01*
G01*
G37*
G36*
G01*
X138751500Y-134765500D02*
X138051500Y-134765500D01*
G75*
G02*
X137989000Y-134703000I0J62500D01*
G01*
X137989000Y-134578000D01*
G75*
G02*
X138051500Y-134515500I62500J0D01*
G01*
X138751500Y-134515500D01*
G75*
G02*
X138814000Y-134578000I0J-62500D01*
G01*
X138814000Y-134703000D01*
G75*
G02*
X138751500Y-134765500I-62500J0D01*
G01*
G37*
G36*
G01*
X138751500Y-134265500D02*
X138051500Y-134265500D01*
G75*
G02*
X137989000Y-134203000I0J62500D01*
G01*
X137989000Y-134078000D01*
G75*
G02*
X138051500Y-134015500I62500J0D01*
G01*
X138751500Y-134015500D01*
G75*
G02*
X138814000Y-134078000I0J-62500D01*
G01*
X138814000Y-134203000D01*
G75*
G02*
X138751500Y-134265500I-62500J0D01*
G01*
G37*
G36*
G01*
X138751500Y-133765500D02*
X138051500Y-133765500D01*
G75*
G02*
X137989000Y-133703000I0J62500D01*
G01*
X137989000Y-133578000D01*
G75*
G02*
X138051500Y-133515500I62500J0D01*
G01*
X138751500Y-133515500D01*
G75*
G02*
X138814000Y-133578000I0J-62500D01*
G01*
X138814000Y-133703000D01*
G75*
G02*
X138751500Y-133765500I-62500J0D01*
G01*
G37*
G36*
G01*
X138751500Y-133265500D02*
X138051500Y-133265500D01*
G75*
G02*
X137989000Y-133203000I0J62500D01*
G01*
X137989000Y-133078000D01*
G75*
G02*
X138051500Y-133015500I62500J0D01*
G01*
X138751500Y-133015500D01*
G75*
G02*
X138814000Y-133078000I0J-62500D01*
G01*
X138814000Y-133203000D01*
G75*
G02*
X138751500Y-133265500I-62500J0D01*
G01*
G37*
G36*
G01*
X138751500Y-132765500D02*
X138051500Y-132765500D01*
G75*
G02*
X137989000Y-132703000I0J62500D01*
G01*
X137989000Y-132578000D01*
G75*
G02*
X138051500Y-132515500I62500J0D01*
G01*
X138751500Y-132515500D01*
G75*
G02*
X138814000Y-132578000I0J-62500D01*
G01*
X138814000Y-132703000D01*
G75*
G02*
X138751500Y-132765500I-62500J0D01*
G01*
G37*
G36*
G01*
X139151500Y-132365500D02*
X139026500Y-132365500D01*
G75*
G02*
X138964000Y-132303000I0J62500D01*
G01*
X138964000Y-131603000D01*
G75*
G02*
X139026500Y-131540500I62500J0D01*
G01*
X139151500Y-131540500D01*
G75*
G02*
X139214000Y-131603000I0J-62500D01*
G01*
X139214000Y-132303000D01*
G75*
G02*
X139151500Y-132365500I-62500J0D01*
G01*
G37*
G36*
G01*
X139651500Y-132365500D02*
X139526500Y-132365500D01*
G75*
G02*
X139464000Y-132303000I0J62500D01*
G01*
X139464000Y-131603000D01*
G75*
G02*
X139526500Y-131540500I62500J0D01*
G01*
X139651500Y-131540500D01*
G75*
G02*
X139714000Y-131603000I0J-62500D01*
G01*
X139714000Y-132303000D01*
G75*
G02*
X139651500Y-132365500I-62500J0D01*
G01*
G37*
G36*
G01*
X140151500Y-132365500D02*
X140026500Y-132365500D01*
G75*
G02*
X139964000Y-132303000I0J62500D01*
G01*
X139964000Y-131603000D01*
G75*
G02*
X140026500Y-131540500I62500J0D01*
G01*
X140151500Y-131540500D01*
G75*
G02*
X140214000Y-131603000I0J-62500D01*
G01*
X140214000Y-132303000D01*
G75*
G02*
X140151500Y-132365500I-62500J0D01*
G01*
G37*
G36*
G01*
X140651500Y-132365500D02*
X140526500Y-132365500D01*
G75*
G02*
X140464000Y-132303000I0J62500D01*
G01*
X140464000Y-131603000D01*
G75*
G02*
X140526500Y-131540500I62500J0D01*
G01*
X140651500Y-131540500D01*
G75*
G02*
X140714000Y-131603000I0J-62500D01*
G01*
X140714000Y-132303000D01*
G75*
G02*
X140651500Y-132365500I-62500J0D01*
G01*
G37*
G36*
G01*
X141151500Y-132365500D02*
X141026500Y-132365500D01*
G75*
G02*
X140964000Y-132303000I0J62500D01*
G01*
X140964000Y-131603000D01*
G75*
G02*
X141026500Y-131540500I62500J0D01*
G01*
X141151500Y-131540500D01*
G75*
G02*
X141214000Y-131603000I0J-62500D01*
G01*
X141214000Y-132303000D01*
G75*
G02*
X141151500Y-132365500I-62500J0D01*
G01*
G37*
G36*
G01*
X141651500Y-132365500D02*
X141526500Y-132365500D01*
G75*
G02*
X141464000Y-132303000I0J62500D01*
G01*
X141464000Y-131603000D01*
G75*
G02*
X141526500Y-131540500I62500J0D01*
G01*
X141651500Y-131540500D01*
G75*
G02*
X141714000Y-131603000I0J-62500D01*
G01*
X141714000Y-132303000D01*
G75*
G02*
X141651500Y-132365500I-62500J0D01*
G01*
G37*
G36*
G01*
X142626500Y-132765500D02*
X141926500Y-132765500D01*
G75*
G02*
X141864000Y-132703000I0J62500D01*
G01*
X141864000Y-132578000D01*
G75*
G02*
X141926500Y-132515500I62500J0D01*
G01*
X142626500Y-132515500D01*
G75*
G02*
X142689000Y-132578000I0J-62500D01*
G01*
X142689000Y-132703000D01*
G75*
G02*
X142626500Y-132765500I-62500J0D01*
G01*
G37*
G36*
G01*
X142626500Y-133265500D02*
X141926500Y-133265500D01*
G75*
G02*
X141864000Y-133203000I0J62500D01*
G01*
X141864000Y-133078000D01*
G75*
G02*
X141926500Y-133015500I62500J0D01*
G01*
X142626500Y-133015500D01*
G75*
G02*
X142689000Y-133078000I0J-62500D01*
G01*
X142689000Y-133203000D01*
G75*
G02*
X142626500Y-133265500I-62500J0D01*
G01*
G37*
G36*
G01*
X142626500Y-133765500D02*
X141926500Y-133765500D01*
G75*
G02*
X141864000Y-133703000I0J62500D01*
G01*
X141864000Y-133578000D01*
G75*
G02*
X141926500Y-133515500I62500J0D01*
G01*
X142626500Y-133515500D01*
G75*
G02*
X142689000Y-133578000I0J-62500D01*
G01*
X142689000Y-133703000D01*
G75*
G02*
X142626500Y-133765500I-62500J0D01*
G01*
G37*
G36*
G01*
X142626500Y-134265500D02*
X141926500Y-134265500D01*
G75*
G02*
X141864000Y-134203000I0J62500D01*
G01*
X141864000Y-134078000D01*
G75*
G02*
X141926500Y-134015500I62500J0D01*
G01*
X142626500Y-134015500D01*
G75*
G02*
X142689000Y-134078000I0J-62500D01*
G01*
X142689000Y-134203000D01*
G75*
G02*
X142626500Y-134265500I-62500J0D01*
G01*
G37*
G36*
G01*
X142626500Y-134765500D02*
X141926500Y-134765500D01*
G75*
G02*
X141864000Y-134703000I0J62500D01*
G01*
X141864000Y-134578000D01*
G75*
G02*
X141926500Y-134515500I62500J0D01*
G01*
X142626500Y-134515500D01*
G75*
G02*
X142689000Y-134578000I0J-62500D01*
G01*
X142689000Y-134703000D01*
G75*
G02*
X142626500Y-134765500I-62500J0D01*
G01*
G37*
G36*
G01*
X142626500Y-135265500D02*
X141926500Y-135265500D01*
G75*
G02*
X141864000Y-135203000I0J62500D01*
G01*
X141864000Y-135078000D01*
G75*
G02*
X141926500Y-135015500I62500J0D01*
G01*
X142626500Y-135015500D01*
G75*
G02*
X142689000Y-135078000I0J-62500D01*
G01*
X142689000Y-135203000D01*
G75*
G02*
X142626500Y-135265500I-62500J0D01*
G01*
G37*
G36*
G01*
X141651500Y-136240500D02*
X141526500Y-136240500D01*
G75*
G02*
X141464000Y-136178000I0J62500D01*
G01*
X141464000Y-135478000D01*
G75*
G02*
X141526500Y-135415500I62500J0D01*
G01*
X141651500Y-135415500D01*
G75*
G02*
X141714000Y-135478000I0J-62500D01*
G01*
X141714000Y-136178000D01*
G75*
G02*
X141651500Y-136240500I-62500J0D01*
G01*
G37*
G36*
G01*
X141151500Y-136240500D02*
X141026500Y-136240500D01*
G75*
G02*
X140964000Y-136178000I0J62500D01*
G01*
X140964000Y-135478000D01*
G75*
G02*
X141026500Y-135415500I62500J0D01*
G01*
X141151500Y-135415500D01*
G75*
G02*
X141214000Y-135478000I0J-62500D01*
G01*
X141214000Y-136178000D01*
G75*
G02*
X141151500Y-136240500I-62500J0D01*
G01*
G37*
G36*
G01*
X140651500Y-136240500D02*
X140526500Y-136240500D01*
G75*
G02*
X140464000Y-136178000I0J62500D01*
G01*
X140464000Y-135478000D01*
G75*
G02*
X140526500Y-135415500I62500J0D01*
G01*
X140651500Y-135415500D01*
G75*
G02*
X140714000Y-135478000I0J-62500D01*
G01*
X140714000Y-136178000D01*
G75*
G02*
X140651500Y-136240500I-62500J0D01*
G01*
G37*
G36*
G01*
X140151500Y-136240500D02*
X140026500Y-136240500D01*
G75*
G02*
X139964000Y-136178000I0J62500D01*
G01*
X139964000Y-135478000D01*
G75*
G02*
X140026500Y-135415500I62500J0D01*
G01*
X140151500Y-135415500D01*
G75*
G02*
X140214000Y-135478000I0J-62500D01*
G01*
X140214000Y-136178000D01*
G75*
G02*
X140151500Y-136240500I-62500J0D01*
G01*
G37*
G36*
G01*
X139651500Y-136240500D02*
X139526500Y-136240500D01*
G75*
G02*
X139464000Y-136178000I0J62500D01*
G01*
X139464000Y-135478000D01*
G75*
G02*
X139526500Y-135415500I62500J0D01*
G01*
X139651500Y-135415500D01*
G75*
G02*
X139714000Y-135478000I0J-62500D01*
G01*
X139714000Y-136178000D01*
G75*
G02*
X139651500Y-136240500I-62500J0D01*
G01*
G37*
G36*
G01*
X139151500Y-136240500D02*
X139026500Y-136240500D01*
G75*
G02*
X138964000Y-136178000I0J62500D01*
G01*
X138964000Y-135478000D01*
G75*
G02*
X139026500Y-135415500I62500J0D01*
G01*
X139151500Y-135415500D01*
G75*
G02*
X139214000Y-135478000I0J-62500D01*
G01*
X139214000Y-136178000D01*
G75*
G02*
X139151500Y-136240500I-62500J0D01*
G01*
G37*
%TD*%
%TO.C,R6*%
G36*
G01*
X126621250Y-133254000D02*
X126108750Y-133254000D01*
G75*
G02*
X125890000Y-133035250I0J218750D01*
G01*
X125890000Y-132597750D01*
G75*
G02*
X126108750Y-132379000I218750J0D01*
G01*
X126621250Y-132379000D01*
G75*
G02*
X126840000Y-132597750I0J-218750D01*
G01*
X126840000Y-133035250D01*
G75*
G02*
X126621250Y-133254000I-218750J0D01*
G01*
G37*
G36*
G01*
X126621250Y-134829000D02*
X126108750Y-134829000D01*
G75*
G02*
X125890000Y-134610250I0J218750D01*
G01*
X125890000Y-134172750D01*
G75*
G02*
X126108750Y-133954000I218750J0D01*
G01*
X126621250Y-133954000D01*
G75*
G02*
X126840000Y-134172750I0J-218750D01*
G01*
X126840000Y-134610250D01*
G75*
G02*
X126621250Y-134829000I-218750J0D01*
G01*
G37*
%TD*%
%TO.C,R5*%
G36*
G01*
X132463250Y-133254000D02*
X131950750Y-133254000D01*
G75*
G02*
X131732000Y-133035250I0J218750D01*
G01*
X131732000Y-132597750D01*
G75*
G02*
X131950750Y-132379000I218750J0D01*
G01*
X132463250Y-132379000D01*
G75*
G02*
X132682000Y-132597750I0J-218750D01*
G01*
X132682000Y-133035250D01*
G75*
G02*
X132463250Y-133254000I-218750J0D01*
G01*
G37*
G36*
G01*
X132463250Y-134829000D02*
X131950750Y-134829000D01*
G75*
G02*
X131732000Y-134610250I0J218750D01*
G01*
X131732000Y-134172750D01*
G75*
G02*
X131950750Y-133954000I218750J0D01*
G01*
X132463250Y-133954000D01*
G75*
G02*
X132682000Y-134172750I0J-218750D01*
G01*
X132682000Y-134610250D01*
G75*
G02*
X132463250Y-134829000I-218750J0D01*
G01*
G37*
%TD*%
%TO.C,R1*%
G36*
G01*
X135224000Y-135349250D02*
X135224000Y-134836750D01*
G75*
G02*
X135442750Y-134618000I218750J0D01*
G01*
X135880250Y-134618000D01*
G75*
G02*
X136099000Y-134836750I0J-218750D01*
G01*
X136099000Y-135349250D01*
G75*
G02*
X135880250Y-135568000I-218750J0D01*
G01*
X135442750Y-135568000D01*
G75*
G02*
X135224000Y-135349250I0J218750D01*
G01*
G37*
G36*
G01*
X133649000Y-135349250D02*
X133649000Y-134836750D01*
G75*
G02*
X133867750Y-134618000I218750J0D01*
G01*
X134305250Y-134618000D01*
G75*
G02*
X134524000Y-134836750I0J-218750D01*
G01*
X134524000Y-135349250D01*
G75*
G02*
X134305250Y-135568000I-218750J0D01*
G01*
X133867750Y-135568000D01*
G75*
G02*
X133649000Y-135349250I0J218750D01*
G01*
G37*
%TD*%
%TO.C,C2*%
G36*
G01*
X134524000Y-132331750D02*
X134524000Y-132844250D01*
G75*
G02*
X134305250Y-133063000I-218750J0D01*
G01*
X133867750Y-133063000D01*
G75*
G02*
X133649000Y-132844250I0J218750D01*
G01*
X133649000Y-132331750D01*
G75*
G02*
X133867750Y-132113000I218750J0D01*
G01*
X134305250Y-132113000D01*
G75*
G02*
X134524000Y-132331750I0J-218750D01*
G01*
G37*
G36*
G01*
X136099000Y-132331750D02*
X136099000Y-132844250D01*
G75*
G02*
X135880250Y-133063000I-218750J0D01*
G01*
X135442750Y-133063000D01*
G75*
G02*
X135224000Y-132844250I0J218750D01*
G01*
X135224000Y-132331750D01*
G75*
G02*
X135442750Y-132113000I218750J0D01*
G01*
X135880250Y-132113000D01*
G75*
G02*
X136099000Y-132331750I0J-218750D01*
G01*
G37*
%TD*%
%TO.C,C1*%
G36*
G01*
X144274250Y-131730000D02*
X143761750Y-131730000D01*
G75*
G02*
X143543000Y-131511250I0J218750D01*
G01*
X143543000Y-131073750D01*
G75*
G02*
X143761750Y-130855000I218750J0D01*
G01*
X144274250Y-130855000D01*
G75*
G02*
X144493000Y-131073750I0J-218750D01*
G01*
X144493000Y-131511250D01*
G75*
G02*
X144274250Y-131730000I-218750J0D01*
G01*
G37*
G36*
G01*
X144274250Y-133305000D02*
X143761750Y-133305000D01*
G75*
G02*
X143543000Y-133086250I0J218750D01*
G01*
X143543000Y-132648750D01*
G75*
G02*
X143761750Y-132430000I218750J0D01*
G01*
X144274250Y-132430000D01*
G75*
G02*
X144493000Y-132648750I0J-218750D01*
G01*
X144493000Y-133086250D01*
G75*
G02*
X144274250Y-133305000I-218750J0D01*
G01*
G37*
%TD*%
%TO.C,C7*%
G36*
G01*
X148084250Y-131730000D02*
X147571750Y-131730000D01*
G75*
G02*
X147353000Y-131511250I0J218750D01*
G01*
X147353000Y-131073750D01*
G75*
G02*
X147571750Y-130855000I218750J0D01*
G01*
X148084250Y-130855000D01*
G75*
G02*
X148303000Y-131073750I0J-218750D01*
G01*
X148303000Y-131511250D01*
G75*
G02*
X148084250Y-131730000I-218750J0D01*
G01*
G37*
G36*
G01*
X148084250Y-133305000D02*
X147571750Y-133305000D01*
G75*
G02*
X147353000Y-133086250I0J218750D01*
G01*
X147353000Y-132648750D01*
G75*
G02*
X147571750Y-132430000I218750J0D01*
G01*
X148084250Y-132430000D01*
G75*
G02*
X148303000Y-132648750I0J-218750D01*
G01*
X148303000Y-133086250D01*
G75*
G02*
X148084250Y-133305000I-218750J0D01*
G01*
G37*
%TD*%
%TO.C,C6*%
G36*
G01*
X146179250Y-131730000D02*
X145666750Y-131730000D01*
G75*
G02*
X145448000Y-131511250I0J218750D01*
G01*
X145448000Y-131073750D01*
G75*
G02*
X145666750Y-130855000I218750J0D01*
G01*
X146179250Y-130855000D01*
G75*
G02*
X146398000Y-131073750I0J-218750D01*
G01*
X146398000Y-131511250D01*
G75*
G02*
X146179250Y-131730000I-218750J0D01*
G01*
G37*
G36*
G01*
X146179250Y-133305000D02*
X145666750Y-133305000D01*
G75*
G02*
X145448000Y-133086250I0J218750D01*
G01*
X145448000Y-132648750D01*
G75*
G02*
X145666750Y-132430000I218750J0D01*
G01*
X146179250Y-132430000D01*
G75*
G02*
X146398000Y-132648750I0J-218750D01*
G01*
X146398000Y-133086250D01*
G75*
G02*
X146179250Y-133305000I-218750J0D01*
G01*
G37*
%TD*%
%TO.C,C5*%
G36*
G01*
X155010500Y-133098250D02*
X155010500Y-132585750D01*
G75*
G02*
X155229250Y-132367000I218750J0D01*
G01*
X155666750Y-132367000D01*
G75*
G02*
X155885500Y-132585750I0J-218750D01*
G01*
X155885500Y-133098250D01*
G75*
G02*
X155666750Y-133317000I-218750J0D01*
G01*
X155229250Y-133317000D01*
G75*
G02*
X155010500Y-133098250I0J218750D01*
G01*
G37*
G36*
G01*
X153435500Y-133098250D02*
X153435500Y-132585750D01*
G75*
G02*
X153654250Y-132367000I218750J0D01*
G01*
X154091750Y-132367000D01*
G75*
G02*
X154310500Y-132585750I0J-218750D01*
G01*
X154310500Y-133098250D01*
G75*
G02*
X154091750Y-133317000I-218750J0D01*
G01*
X153654250Y-133317000D01*
G75*
G02*
X153435500Y-133098250I0J218750D01*
G01*
G37*
%TD*%
%TO.C,C4*%
G36*
G01*
X155036000Y-135257250D02*
X155036000Y-134744750D01*
G75*
G02*
X155254750Y-134526000I218750J0D01*
G01*
X155692250Y-134526000D01*
G75*
G02*
X155911000Y-134744750I0J-218750D01*
G01*
X155911000Y-135257250D01*
G75*
G02*
X155692250Y-135476000I-218750J0D01*
G01*
X155254750Y-135476000D01*
G75*
G02*
X155036000Y-135257250I0J218750D01*
G01*
G37*
G36*
G01*
X153461000Y-135257250D02*
X153461000Y-134744750D01*
G75*
G02*
X153679750Y-134526000I218750J0D01*
G01*
X154117250Y-134526000D01*
G75*
G02*
X154336000Y-134744750I0J-218750D01*
G01*
X154336000Y-135257250D01*
G75*
G02*
X154117250Y-135476000I-218750J0D01*
G01*
X153679750Y-135476000D01*
G75*
G02*
X153461000Y-135257250I0J218750D01*
G01*
G37*
%TD*%
M02*
