%TF.GenerationSoftware,KiCad,Pcbnew,(5.1.6-0-10_14)*%
%TF.CreationDate,2020-08-20T11:34:32+02:00*%
%TF.ProjectId,USBCWrover,55534243-5772-46f7-9665-722e6b696361,rev?*%
%TF.SameCoordinates,Original*%
%TF.FileFunction,Copper,L2,Bot*%
%TF.FilePolarity,Positive*%
%FSLAX46Y46*%
G04 Gerber Fmt 4.6, Leading zero omitted, Abs format (unit mm)*
G04 Created by KiCad (PCBNEW (5.1.6-0-10_14)) date 2020-08-20 11:34:32*
%MOMM*%
%LPD*%
G01*
G04 APERTURE LIST*
%TA.AperFunction,ComponentPad*%
%ADD10O,1.700000X1.700000*%
%TD*%
%TA.AperFunction,ComponentPad*%
%ADD11R,1.700000X1.700000*%
%TD*%
%TA.AperFunction,ComponentPad*%
%ADD12O,1.000000X2.100000*%
%TD*%
%TA.AperFunction,ComponentPad*%
%ADD13O,1.000000X1.600000*%
%TD*%
%TA.AperFunction,ViaPad*%
%ADD14C,0.800000*%
%TD*%
%TA.AperFunction,Conductor*%
%ADD15C,0.250000*%
%TD*%
%TA.AperFunction,Conductor*%
%ADD16C,0.254000*%
%TD*%
G04 APERTURE END LIST*
D10*
%TO.P,J3,20*%
%TO.N,CMD_IO11*%
X127000000Y-129540000D03*
%TO.P,J3,19*%
%TO.N,SD3_IO10*%
X129540000Y-129540000D03*
%TO.P,J3,18*%
%TO.N,SD2_IO9*%
X127000000Y-127000000D03*
%TO.P,J3,17*%
%TO.N,IO13*%
X129540000Y-127000000D03*
%TO.P,J3,16*%
%TO.N,Net-(J3-Pad16)*%
X127000000Y-124460000D03*
%TO.P,J3,15*%
%TO.N,+3V3*%
X129540000Y-124460000D03*
%TO.P,J3,14*%
%TO.N,IO14*%
X127000000Y-121920000D03*
%TO.P,J3,13*%
%TO.N,IO5*%
X129540000Y-121920000D03*
%TO.P,J3,12*%
%TO.N,IO34*%
X127000000Y-119380000D03*
%TO.P,J3,11*%
%TO.N,IO23*%
X129540000Y-119380000D03*
%TO.P,J3,10*%
%TO.N,IO33*%
X127000000Y-116840000D03*
%TO.P,J3,9*%
%TO.N,IO19*%
X129540000Y-116840000D03*
%TO.P,J3,8*%
%TO.N,IO35*%
X127000000Y-114300000D03*
%TO.P,J3,7*%
%TO.N,IO18*%
X129540000Y-114300000D03*
%TO.P,J3,6*%
%TO.N,SENSOR_VN*%
X127000000Y-111760000D03*
%TO.P,J3,5*%
%TO.N,IO26*%
X129540000Y-111760000D03*
%TO.P,J3,4*%
%TO.N,Net-(J3-Pad4)*%
X127000000Y-109220000D03*
%TO.P,J3,3*%
%TO.N,Sensor_VP*%
X129540000Y-109220000D03*
%TO.P,J3,2*%
%TO.N,GND*%
X127000000Y-106680000D03*
D11*
%TO.P,J3,1*%
%TO.N,ESP_RST*%
X129540000Y-106680000D03*
%TD*%
D10*
%TO.P,J2,20*%
%TO.N,SD0_IO7*%
X152400000Y-129540000D03*
%TO.P,J2,19*%
%TO.N,CLK_IO6*%
X154940000Y-129540000D03*
%TO.P,J2,18*%
%TO.N,IO15*%
X152400000Y-127000000D03*
%TO.P,J2,17*%
%TO.N,SD1_IO8*%
X154940000Y-127000000D03*
%TO.P,J2,16*%
%TO.N,+5V*%
X152400000Y-124460000D03*
%TO.P,J2,15*%
%TO.N,IO2*%
X154940000Y-124460000D03*
%TO.P,J2,14*%
%TO.N,GND*%
X152400000Y-121920000D03*
%TO.P,J2,13*%
%TO.N,ESP_FLS*%
X154940000Y-121920000D03*
%TO.P,J2,12*%
%TO.N,IO16*%
X152400000Y-119380000D03*
%TO.P,J2,11*%
%TO.N,IO4*%
X154940000Y-119380000D03*
%TO.P,J2,10*%
%TO.N,IO17*%
X152400000Y-116840000D03*
%TO.P,J2,9*%
%TO.N,IO12*%
X154940000Y-116840000D03*
%TO.P,J2,8*%
%TO.N,IO21*%
X152400000Y-114300000D03*
%TO.P,J2,7*%
%TO.N,IO32*%
X154940000Y-114300000D03*
%TO.P,J2,6*%
%TO.N,IO22*%
X152400000Y-111760000D03*
%TO.P,J2,5*%
%TO.N,IO25*%
X154940000Y-111760000D03*
%TO.P,J2,4*%
%TO.N,ESP_RXD*%
X152400000Y-109220000D03*
%TO.P,J2,3*%
%TO.N,IO27*%
X154940000Y-109220000D03*
%TO.P,J2,2*%
%TO.N,ESP_TXD*%
X152400000Y-106680000D03*
D11*
%TO.P,J2,1*%
%TO.N,GND*%
X154940000Y-106680000D03*
%TD*%
D12*
%TO.P,J1,S1*%
%TO.N,GND*%
X145290000Y-141142000D03*
X136650000Y-141142000D03*
D13*
X136650000Y-145322000D03*
X145290000Y-145322000D03*
%TD*%
D14*
%TO.N,GND*%
X152146000Y-134620000D03*
X132461000Y-136652000D03*
X126746000Y-131699000D03*
X135636000Y-107061000D03*
X145796000Y-108712000D03*
X143891000Y-118872000D03*
X142621000Y-114935000D03*
X143891000Y-121285000D03*
X145542000Y-130810000D03*
X149860000Y-130683000D03*
X138684000Y-126873000D03*
X139319000Y-124841000D03*
X140081000Y-125603000D03*
X136271000Y-125222000D03*
X136398000Y-127127000D03*
X136017000Y-121412000D03*
X137026787Y-115325320D03*
X140764272Y-137680653D03*
%TO.N,+3V3*%
X142748000Y-137414000D03*
X137668000Y-137922000D03*
X148082000Y-131953000D03*
X137668000Y-119143000D03*
%TO.N,+5V*%
X144340153Y-138879153D03*
X144780000Y-134366000D03*
X148336000Y-134366000D03*
X153289000Y-131445000D03*
%TO.N,USB_D+*%
X141859000Y-141605000D03*
X140372028Y-138684000D03*
%TO.N,ESP_RST*%
X128270000Y-134620000D03*
X136144000Y-119253000D03*
X137668000Y-122809000D03*
X126873000Y-137160000D03*
%TO.N,SER_RTS*%
X135128000Y-133985000D03*
X139065000Y-132715000D03*
%TO.N,ESP_FLS*%
X134874000Y-132080000D03*
X130683000Y-136525000D03*
%TO.N,SER_DTR*%
X138811000Y-135890000D03*
X134493010Y-136398000D03*
%TO.N,ESP_TXD*%
X138684000Y-133731000D03*
X142113000Y-127127000D03*
X143891000Y-124206000D03*
X145542000Y-120777000D03*
%TO.N,ESP_RXD*%
X138303000Y-134620000D03*
X147193000Y-120523000D03*
%TO.N,CLK_IO6*%
X148336000Y-128905000D03*
%TO.N,IO5*%
X133985000Y-120632990D03*
X144888003Y-117747999D03*
X148209000Y-117348000D03*
%TO.N,IO34*%
X128302609Y-112472999D03*
X134164948Y-112440227D03*
%TO.N,IO23*%
X137668000Y-114427002D03*
%TO.N,IO19*%
X148183600Y-114909600D03*
%TO.N,IO18*%
X148209000Y-116205000D03*
X144272000Y-113411002D03*
X145952261Y-116612899D03*
%TO.N,IO26*%
X134454313Y-110728275D03*
%TO.N,IO32*%
X134620000Y-115570000D03*
%TO.N,IO25*%
X133857992Y-117348000D03*
X142875008Y-117094000D03*
X144391230Y-115766849D03*
%TO.N,IO27*%
X144424437Y-114840432D03*
%TO.N,IO12*%
X141223994Y-119888000D03*
%TO.N,IO13*%
X133858000Y-125094998D03*
%TO.N,SD1_IO8*%
X148336000Y-126365000D03*
%TO.N,IO2*%
X148209000Y-123825000D03*
%TD*%
D15*
%TO.N,GND*%
X127000000Y-106680000D02*
X128143000Y-107823000D01*
X125984000Y-107696000D02*
X125984000Y-107950000D01*
X125984000Y-107696000D02*
X127000000Y-106680000D01*
%TO.N,+3V3*%
X138575999Y-137014001D02*
X137668000Y-137922000D01*
X142348001Y-137014001D02*
X138575999Y-137014001D01*
X142748000Y-137414000D02*
X142348001Y-137014001D01*
X139739001Y-123610001D02*
X148082000Y-131953000D01*
X129540000Y-124460000D02*
X130389999Y-123610001D01*
X139612001Y-123610001D02*
X139612001Y-121087001D01*
X130389999Y-123610001D02*
X139612001Y-123610001D01*
X139612001Y-121087001D02*
X137668000Y-119143000D01*
X139612001Y-123610001D02*
X139739001Y-123610001D01*
%TO.N,+5V*%
X144340153Y-135186847D02*
X144340153Y-138879153D01*
X144780000Y-134366000D02*
X144340153Y-135186847D01*
X148336000Y-134366000D02*
X144780000Y-134366000D01*
X150368000Y-134366000D02*
X148336000Y-134366000D01*
X153289000Y-131445000D02*
X150368000Y-134366000D01*
%TO.N,USB_D+*%
X141859000Y-141605000D02*
X140372028Y-140118028D01*
X140372028Y-140118028D02*
X140372028Y-138684000D01*
%TO.N,ESP_RST*%
X136144000Y-119253000D02*
X137668000Y-120777000D01*
X137668000Y-120777000D02*
X137668000Y-122809000D01*
X128270000Y-134620000D02*
X126873000Y-136017000D01*
X126873000Y-136017000D02*
X126873000Y-137160000D01*
%TO.N,SER_RTS*%
X136398000Y-132715000D02*
X139065000Y-132715000D01*
X135128000Y-133985000D02*
X136398000Y-132715000D01*
%TO.N,ESP_FLS*%
X130683000Y-136271000D02*
X130683000Y-136525000D01*
X134874000Y-132080000D02*
X130683000Y-136271000D01*
%TO.N,SER_DTR*%
X138811000Y-135890000D02*
X135001010Y-135890000D01*
X135001010Y-135890000D02*
X134493010Y-136398000D01*
%TO.N,ESP_TXD*%
X152400000Y-106680000D02*
X149225000Y-109855000D01*
X139249685Y-133731000D02*
X142113000Y-130867685D01*
X142113000Y-130867685D02*
X142113000Y-127127000D01*
X138684000Y-133731000D02*
X139249685Y-133731000D01*
X145542000Y-122555000D02*
X145542000Y-120777000D01*
X143891000Y-124206000D02*
X145542000Y-122555000D01*
%TO.N,ESP_RXD*%
X148734001Y-131640039D02*
X147193000Y-130099038D01*
X148734001Y-132265961D02*
X148734001Y-131640039D01*
X147193000Y-130099038D02*
X147193000Y-120523000D01*
X148394961Y-132605001D02*
X148734001Y-132265961D01*
X140908856Y-132605001D02*
X148394961Y-132605001D01*
X138893857Y-134620000D02*
X140908856Y-132605001D01*
X138303000Y-134620000D02*
X138893857Y-134620000D01*
%TO.N,CLK_IO6*%
X153764999Y-128364999D02*
X154940000Y-129540000D01*
X148876001Y-128364999D02*
X153764999Y-128364999D01*
X148336000Y-128905000D02*
X148876001Y-128364999D01*
%TO.N,IO5*%
X132697990Y-121920000D02*
X133985000Y-120632990D01*
X129540000Y-121920000D02*
X132697990Y-121920000D01*
X144888003Y-117747999D02*
X144888003Y-117747997D01*
X145288000Y-117348000D02*
X148209000Y-117348000D01*
X144888003Y-117747997D02*
X145288000Y-117348000D01*
%TO.N,IO34*%
X128702608Y-112872998D02*
X131348922Y-112872998D01*
X134164948Y-111360992D02*
X134164948Y-112440227D01*
X131348922Y-112872998D02*
X133199976Y-111021944D01*
X133825900Y-111021944D02*
X134164948Y-111360992D01*
X133199976Y-111021944D02*
X133825900Y-111021944D01*
X128302609Y-112472999D02*
X128702608Y-112872998D01*
%TO.N,IO23*%
X134492998Y-114427002D02*
X137668000Y-114427002D01*
X129540000Y-119380000D02*
X134492998Y-114427002D01*
%TO.N,IO19*%
X130068961Y-120482001D02*
X132440962Y-118110000D01*
X143519257Y-118110000D02*
X146719657Y-114909600D01*
X129540000Y-116840000D02*
X128437999Y-117942001D01*
X146719657Y-114909600D02*
X148183600Y-114909600D01*
X128437999Y-119908961D02*
X129011039Y-120482001D01*
X128437999Y-117942001D02*
X128437999Y-119908961D01*
X132440962Y-118110000D02*
X143519257Y-118110000D01*
X129011039Y-120482001D02*
X130068961Y-120482001D01*
%TO.N,IO18*%
X146360160Y-116205000D02*
X145952261Y-116612899D01*
X148209000Y-116205000D02*
X146360160Y-116205000D01*
X135375825Y-113011003D02*
X143872001Y-113011003D01*
X143872001Y-113011003D02*
X144272000Y-113411002D01*
X129921000Y-113919000D02*
X134467828Y-113919000D01*
X134467828Y-113919000D02*
X135375825Y-113011003D01*
X129540000Y-114300000D02*
X129921000Y-113919000D01*
%TO.N,IO26*%
X134054314Y-110328276D02*
X134454313Y-110728275D01*
X130971724Y-110328276D02*
X134054314Y-110328276D01*
X129540000Y-111760000D02*
X130971724Y-110328276D01*
%TO.N,IO32*%
X135468850Y-116418850D02*
X135019999Y-115969999D01*
X151871039Y-115402001D02*
X150726636Y-114257598D01*
X154940000Y-114300000D02*
X153837999Y-115402001D01*
X135019999Y-115969999D02*
X134620000Y-115570000D01*
X153837999Y-115402001D02*
X151871039Y-115402001D01*
X146838485Y-114257598D02*
X144677233Y-116418850D01*
X144677233Y-116418850D02*
X135468850Y-116418850D01*
X150726636Y-114257598D02*
X146838485Y-114257598D01*
%TO.N,IO25*%
X142367008Y-117602000D02*
X142875008Y-117094000D01*
X134111992Y-117602000D02*
X142367008Y-117602000D01*
X133857992Y-117348000D02*
X134111992Y-117602000D01*
X144767836Y-115766849D02*
X144391230Y-115766849D01*
X154940000Y-111760000D02*
X153837999Y-112862001D01*
X153837999Y-112862001D02*
X147672684Y-112862001D01*
X147672684Y-112862001D02*
X144767836Y-115766849D01*
%TO.N,IO27*%
X145432001Y-114398553D02*
X144990122Y-114840432D01*
X154940000Y-109220000D02*
X153502001Y-110657999D01*
X145432001Y-113647999D02*
X145432001Y-114398553D01*
X144990122Y-114840432D02*
X144424437Y-114840432D01*
X153502001Y-110657999D02*
X148422001Y-110657999D01*
X148422001Y-110657999D02*
X145432001Y-113647999D01*
%TO.N,IO12*%
X154940000Y-116840000D02*
X153512977Y-118267023D01*
X153512977Y-118267023D02*
X147492939Y-118267023D01*
X145871962Y-119888000D02*
X141223994Y-119888000D01*
X147492939Y-118267023D02*
X145871962Y-119888000D01*
%TO.N,IO13*%
X129540000Y-127000000D02*
X131952998Y-127000000D01*
X131952998Y-127000000D02*
X133858000Y-125094998D01*
%TO.N,SD1_IO8*%
X153764999Y-125824999D02*
X154940000Y-127000000D01*
X148876001Y-125824999D02*
X153764999Y-125824999D01*
X148336000Y-126365000D02*
X148876001Y-125824999D01*
%TO.N,IO2*%
X153575001Y-123095001D02*
X154940000Y-124460000D01*
X148938999Y-123095001D02*
X153575001Y-123095001D01*
X148209000Y-123825000D02*
X148938999Y-123095001D01*
%TD*%
D16*
%TO.N,GND*%
G36*
X156312000Y-105465104D02*
G01*
X156241185Y-105378815D01*
X156144494Y-105299463D01*
X156034180Y-105240498D01*
X155914482Y-105204188D01*
X155790000Y-105191928D01*
X155225750Y-105195000D01*
X155067000Y-105353750D01*
X155067000Y-106553000D01*
X155087000Y-106553000D01*
X155087000Y-106807000D01*
X155067000Y-106807000D01*
X155067000Y-106827000D01*
X154813000Y-106827000D01*
X154813000Y-106807000D01*
X154793000Y-106807000D01*
X154793000Y-106553000D01*
X154813000Y-106553000D01*
X154813000Y-105353750D01*
X154654250Y-105195000D01*
X154090000Y-105191928D01*
X153965518Y-105204188D01*
X153845820Y-105240498D01*
X153735506Y-105299463D01*
X153638815Y-105378815D01*
X153559463Y-105475506D01*
X153500498Y-105585820D01*
X153464188Y-105705518D01*
X153451928Y-105830000D01*
X153453073Y-106040294D01*
X153356180Y-105895283D01*
X153184717Y-105723820D01*
X152983097Y-105589102D01*
X152759069Y-105496307D01*
X152521243Y-105449000D01*
X152278757Y-105449000D01*
X152040931Y-105496307D01*
X151816903Y-105589102D01*
X151615283Y-105723820D01*
X151443820Y-105895283D01*
X151309102Y-106096903D01*
X151216307Y-106320931D01*
X151169000Y-106558757D01*
X151169000Y-106801243D01*
X151216307Y-107039069D01*
X151248242Y-107116167D01*
X148849630Y-109514779D01*
X148802242Y-109572522D01*
X148755255Y-109660426D01*
X148726322Y-109755808D01*
X148716553Y-109855000D01*
X148726322Y-109954192D01*
X148755255Y-110049574D01*
X148802242Y-110137478D01*
X148814159Y-110151999D01*
X148446855Y-110151999D01*
X148422001Y-110149551D01*
X148397147Y-110151999D01*
X148322808Y-110159321D01*
X148227426Y-110188254D01*
X148139522Y-110235240D01*
X148062474Y-110298472D01*
X148046630Y-110317778D01*
X145091786Y-113272623D01*
X145072474Y-113288472D01*
X145049497Y-113316469D01*
X145022987Y-113183193D01*
X144964113Y-113041060D01*
X144878642Y-112913143D01*
X144769859Y-112804360D01*
X144641942Y-112718889D01*
X144499809Y-112660015D01*
X144348922Y-112630002D01*
X144205362Y-112630002D01*
X144154480Y-112588244D01*
X144066576Y-112541258D01*
X143971194Y-112512325D01*
X143896855Y-112505003D01*
X143896847Y-112505003D01*
X143872001Y-112502556D01*
X143847155Y-112505003D01*
X135400679Y-112505003D01*
X135375825Y-112502555D01*
X135350971Y-112505003D01*
X135276632Y-112512325D01*
X135181250Y-112541258D01*
X135093346Y-112588244D01*
X135016298Y-112651476D01*
X135000453Y-112670783D01*
X134848994Y-112822242D01*
X134857061Y-112810169D01*
X134915935Y-112668036D01*
X134945948Y-112517149D01*
X134945948Y-112363305D01*
X134915935Y-112212418D01*
X134857061Y-112070285D01*
X134771590Y-111942368D01*
X134670948Y-111841726D01*
X134670948Y-111481485D01*
X134682122Y-111479262D01*
X134824255Y-111420388D01*
X134952172Y-111334917D01*
X135060955Y-111226134D01*
X135146426Y-111098217D01*
X135205300Y-110956084D01*
X135235313Y-110805197D01*
X135235313Y-110651353D01*
X135205300Y-110500466D01*
X135146426Y-110358333D01*
X135060955Y-110230416D01*
X134952172Y-110121633D01*
X134824255Y-110036162D01*
X134682122Y-109977288D01*
X134531235Y-109947275D01*
X134387675Y-109947275D01*
X134336793Y-109905517D01*
X134248889Y-109858531D01*
X134153507Y-109829598D01*
X134079168Y-109822276D01*
X134079160Y-109822276D01*
X134054314Y-109819829D01*
X134029468Y-109822276D01*
X130996569Y-109822276D01*
X130971723Y-109819829D01*
X130946877Y-109822276D01*
X130946870Y-109822276D01*
X130882418Y-109828624D01*
X130872530Y-109829598D01*
X130850331Y-109836332D01*
X130777149Y-109858531D01*
X130689245Y-109905517D01*
X130612197Y-109968749D01*
X130596352Y-109988056D01*
X129976167Y-110608242D01*
X129899069Y-110576307D01*
X129661243Y-110529000D01*
X129418757Y-110529000D01*
X129180931Y-110576307D01*
X128956903Y-110669102D01*
X128755283Y-110803820D01*
X128583820Y-110975283D01*
X128449102Y-111176903D01*
X128356307Y-111400931D01*
X128309000Y-111638757D01*
X128309000Y-111691999D01*
X128231000Y-111691999D01*
X128231000Y-111638757D01*
X128183693Y-111400931D01*
X128090898Y-111176903D01*
X127956180Y-110975283D01*
X127784717Y-110803820D01*
X127583097Y-110669102D01*
X127359069Y-110576307D01*
X127121243Y-110529000D01*
X126878757Y-110529000D01*
X126640931Y-110576307D01*
X126416903Y-110669102D01*
X126215283Y-110803820D01*
X126043820Y-110975283D01*
X125909102Y-111176903D01*
X125816307Y-111400931D01*
X125769000Y-111638757D01*
X125769000Y-111881243D01*
X125816307Y-112119069D01*
X125909102Y-112343097D01*
X126043820Y-112544717D01*
X126215283Y-112716180D01*
X126416903Y-112850898D01*
X126640931Y-112943693D01*
X126878757Y-112991000D01*
X127121243Y-112991000D01*
X127359069Y-112943693D01*
X127583097Y-112850898D01*
X127607138Y-112834834D01*
X127610496Y-112842941D01*
X127695967Y-112970858D01*
X127804750Y-113079641D01*
X127932667Y-113165112D01*
X128074800Y-113223986D01*
X128225687Y-113253999D01*
X128369247Y-113253999D01*
X128420129Y-113295757D01*
X128508033Y-113342743D01*
X128603415Y-113371676D01*
X128677754Y-113378998D01*
X128677761Y-113378998D01*
X128702607Y-113381445D01*
X128719302Y-113379801D01*
X128583820Y-113515283D01*
X128449102Y-113716903D01*
X128356307Y-113940931D01*
X128309000Y-114178757D01*
X128309000Y-114421243D01*
X128356307Y-114659069D01*
X128449102Y-114883097D01*
X128583820Y-115084717D01*
X128755283Y-115256180D01*
X128956903Y-115390898D01*
X129180931Y-115483693D01*
X129418757Y-115531000D01*
X129661243Y-115531000D01*
X129899069Y-115483693D01*
X130123097Y-115390898D01*
X130324717Y-115256180D01*
X130496180Y-115084717D01*
X130630898Y-114883097D01*
X130723693Y-114659069D01*
X130770253Y-114425000D01*
X133779408Y-114425000D01*
X129976167Y-118228242D01*
X129899069Y-118196307D01*
X129661243Y-118149000D01*
X129418757Y-118149000D01*
X129180931Y-118196307D01*
X128956903Y-118289102D01*
X128943999Y-118297724D01*
X128943999Y-118151592D01*
X129103833Y-117991758D01*
X129180931Y-118023693D01*
X129418757Y-118071000D01*
X129661243Y-118071000D01*
X129899069Y-118023693D01*
X130123097Y-117930898D01*
X130324717Y-117796180D01*
X130496180Y-117624717D01*
X130630898Y-117423097D01*
X130723693Y-117199069D01*
X130771000Y-116961243D01*
X130771000Y-116718757D01*
X130723693Y-116480931D01*
X130630898Y-116256903D01*
X130496180Y-116055283D01*
X130324717Y-115883820D01*
X130123097Y-115749102D01*
X129899069Y-115656307D01*
X129661243Y-115609000D01*
X129418757Y-115609000D01*
X129180931Y-115656307D01*
X128956903Y-115749102D01*
X128755283Y-115883820D01*
X128583820Y-116055283D01*
X128449102Y-116256903D01*
X128356307Y-116480931D01*
X128309000Y-116718757D01*
X128309000Y-116961243D01*
X128356307Y-117199069D01*
X128388242Y-117276167D01*
X128097784Y-117566625D01*
X128078472Y-117582474D01*
X128015240Y-117659522D01*
X127968254Y-117747427D01*
X127939321Y-117842809D01*
X127931999Y-117917148D01*
X127931999Y-117917155D01*
X127929552Y-117942001D01*
X127931999Y-117966847D01*
X127931999Y-118571102D01*
X127784717Y-118423820D01*
X127583097Y-118289102D01*
X127359069Y-118196307D01*
X127121243Y-118149000D01*
X126878757Y-118149000D01*
X126640931Y-118196307D01*
X126416903Y-118289102D01*
X126215283Y-118423820D01*
X126043820Y-118595283D01*
X125909102Y-118796903D01*
X125816307Y-119020931D01*
X125769000Y-119258757D01*
X125769000Y-119501243D01*
X125816307Y-119739069D01*
X125909102Y-119963097D01*
X126043820Y-120164717D01*
X126215283Y-120336180D01*
X126416903Y-120470898D01*
X126640931Y-120563693D01*
X126878757Y-120611000D01*
X127121243Y-120611000D01*
X127359069Y-120563693D01*
X127583097Y-120470898D01*
X127784717Y-120336180D01*
X127956180Y-120164717D01*
X127981057Y-120127486D01*
X127984705Y-120134312D01*
X128015241Y-120191440D01*
X128078473Y-120268488D01*
X128097779Y-120284332D01*
X128635667Y-120822221D01*
X128651512Y-120841528D01*
X128728560Y-120904760D01*
X128792513Y-120938944D01*
X128755283Y-120963820D01*
X128583820Y-121135283D01*
X128449102Y-121336903D01*
X128356307Y-121560931D01*
X128309000Y-121798757D01*
X128309000Y-122041243D01*
X128356307Y-122279069D01*
X128449102Y-122503097D01*
X128583820Y-122704717D01*
X128755283Y-122876180D01*
X128956903Y-123010898D01*
X129180931Y-123103693D01*
X129418757Y-123151000D01*
X129661243Y-123151000D01*
X129899069Y-123103693D01*
X130123097Y-123010898D01*
X130324717Y-122876180D01*
X130496180Y-122704717D01*
X130630898Y-122503097D01*
X130662832Y-122426000D01*
X132673144Y-122426000D01*
X132697990Y-122428447D01*
X132722836Y-122426000D01*
X132722844Y-122426000D01*
X132797183Y-122418678D01*
X132892565Y-122389745D01*
X132980469Y-122342759D01*
X133057517Y-122279527D01*
X133073366Y-122260215D01*
X133919592Y-121413990D01*
X134061922Y-121413990D01*
X134212809Y-121383977D01*
X134354942Y-121325103D01*
X134482859Y-121239632D01*
X134591642Y-121130849D01*
X134677113Y-121002932D01*
X134735987Y-120860799D01*
X134766000Y-120709912D01*
X134766000Y-120556068D01*
X134735987Y-120405181D01*
X134677113Y-120263048D01*
X134591642Y-120135131D01*
X134482859Y-120026348D01*
X134354942Y-119940877D01*
X134212809Y-119882003D01*
X134061922Y-119851990D01*
X133908078Y-119851990D01*
X133757191Y-119882003D01*
X133615058Y-119940877D01*
X133487141Y-120026348D01*
X133378358Y-120135131D01*
X133292887Y-120263048D01*
X133234013Y-120405181D01*
X133204000Y-120556068D01*
X133204000Y-120698398D01*
X132488399Y-121414000D01*
X130662832Y-121414000D01*
X130630898Y-121336903D01*
X130496180Y-121135283D01*
X130324717Y-120963820D01*
X130287487Y-120938944D01*
X130351440Y-120904760D01*
X130428488Y-120841528D01*
X130444337Y-120822216D01*
X132650554Y-118616000D01*
X135691575Y-118616000D01*
X135646141Y-118646358D01*
X135537358Y-118755141D01*
X135451887Y-118883058D01*
X135393013Y-119025191D01*
X135363000Y-119176078D01*
X135363000Y-119329922D01*
X135393013Y-119480809D01*
X135451887Y-119622942D01*
X135537358Y-119750859D01*
X135646141Y-119859642D01*
X135774058Y-119945113D01*
X135916191Y-120003987D01*
X136067078Y-120034000D01*
X136209409Y-120034000D01*
X137162000Y-120986592D01*
X137162001Y-122210498D01*
X137061358Y-122311141D01*
X136975887Y-122439058D01*
X136917013Y-122581191D01*
X136887000Y-122732078D01*
X136887000Y-122885922D01*
X136917013Y-123036809D01*
X136944845Y-123104001D01*
X130414844Y-123104001D01*
X130389998Y-123101554D01*
X130365152Y-123104001D01*
X130365145Y-123104001D01*
X130300693Y-123110349D01*
X130290805Y-123111323D01*
X130278097Y-123115178D01*
X130195424Y-123140256D01*
X130107520Y-123187242D01*
X130030472Y-123250474D01*
X130014627Y-123269781D01*
X129976166Y-123308242D01*
X129899069Y-123276307D01*
X129661243Y-123229000D01*
X129418757Y-123229000D01*
X129180931Y-123276307D01*
X128956903Y-123369102D01*
X128755283Y-123503820D01*
X128583820Y-123675283D01*
X128449102Y-123876903D01*
X128356307Y-124100931D01*
X128309000Y-124338757D01*
X128309000Y-124581243D01*
X128356307Y-124819069D01*
X128449102Y-125043097D01*
X128583820Y-125244717D01*
X128755283Y-125416180D01*
X128956903Y-125550898D01*
X129180931Y-125643693D01*
X129418757Y-125691000D01*
X129661243Y-125691000D01*
X129899069Y-125643693D01*
X130123097Y-125550898D01*
X130324717Y-125416180D01*
X130496180Y-125244717D01*
X130630898Y-125043097D01*
X130723693Y-124819069D01*
X130771000Y-124581243D01*
X130771000Y-124338757D01*
X130726691Y-124116001D01*
X139529410Y-124116001D01*
X141817472Y-126404063D01*
X141743058Y-126434887D01*
X141615141Y-126520358D01*
X141506358Y-126629141D01*
X141420887Y-126757058D01*
X141362013Y-126899191D01*
X141332000Y-127050078D01*
X141332000Y-127203922D01*
X141362013Y-127354809D01*
X141420887Y-127496942D01*
X141506358Y-127624859D01*
X141607001Y-127725502D01*
X141607000Y-130658093D01*
X139804832Y-132460261D01*
X139757113Y-132345058D01*
X139671642Y-132217141D01*
X139562859Y-132108358D01*
X139434942Y-132022887D01*
X139292809Y-131964013D01*
X139141922Y-131934000D01*
X138988078Y-131934000D01*
X138837191Y-131964013D01*
X138695058Y-132022887D01*
X138567141Y-132108358D01*
X138466499Y-132209000D01*
X136422845Y-132209000D01*
X136397999Y-132206553D01*
X136373153Y-132209000D01*
X136373146Y-132209000D01*
X136308694Y-132215348D01*
X136298806Y-132216322D01*
X136235656Y-132235478D01*
X136203425Y-132245255D01*
X136115521Y-132292241D01*
X136038473Y-132355473D01*
X136022628Y-132374780D01*
X135193409Y-133204000D01*
X135051078Y-133204000D01*
X134900191Y-133234013D01*
X134758058Y-133292887D01*
X134630141Y-133378358D01*
X134521358Y-133487141D01*
X134435887Y-133615058D01*
X134377013Y-133757191D01*
X134347000Y-133908078D01*
X134347000Y-134061922D01*
X134377013Y-134212809D01*
X134435887Y-134354942D01*
X134521358Y-134482859D01*
X134630141Y-134591642D01*
X134758058Y-134677113D01*
X134900191Y-134735987D01*
X135051078Y-134766000D01*
X135204922Y-134766000D01*
X135355809Y-134735987D01*
X135497942Y-134677113D01*
X135625859Y-134591642D01*
X135734642Y-134482859D01*
X135820113Y-134354942D01*
X135878987Y-134212809D01*
X135909000Y-134061922D01*
X135909000Y-133919591D01*
X136607592Y-133221000D01*
X138089499Y-133221000D01*
X138077358Y-133233141D01*
X137991887Y-133361058D01*
X137933013Y-133503191D01*
X137903000Y-133654078D01*
X137903000Y-133807922D01*
X137927589Y-133931541D01*
X137805141Y-134013358D01*
X137696358Y-134122141D01*
X137610887Y-134250058D01*
X137552013Y-134392191D01*
X137522000Y-134543078D01*
X137522000Y-134696922D01*
X137552013Y-134847809D01*
X137610887Y-134989942D01*
X137696358Y-135117859D01*
X137805141Y-135226642D01*
X137933058Y-135312113D01*
X138075191Y-135370987D01*
X138140612Y-135384000D01*
X135025855Y-135384000D01*
X135001009Y-135381553D01*
X134976163Y-135384000D01*
X134976156Y-135384000D01*
X134911704Y-135390348D01*
X134901816Y-135391322D01*
X134879617Y-135398056D01*
X134806435Y-135420255D01*
X134718531Y-135467241D01*
X134641483Y-135530473D01*
X134625638Y-135549780D01*
X134558418Y-135617000D01*
X134416088Y-135617000D01*
X134265201Y-135647013D01*
X134123068Y-135705887D01*
X133995151Y-135791358D01*
X133886368Y-135900141D01*
X133800897Y-136028058D01*
X133742023Y-136170191D01*
X133712010Y-136321078D01*
X133712010Y-136474922D01*
X133742023Y-136625809D01*
X133800897Y-136767942D01*
X133886368Y-136895859D01*
X133995151Y-137004642D01*
X134123068Y-137090113D01*
X134265201Y-137148987D01*
X134416088Y-137179000D01*
X134569932Y-137179000D01*
X134720819Y-137148987D01*
X134862952Y-137090113D01*
X134990869Y-137004642D01*
X135099652Y-136895859D01*
X135185123Y-136767942D01*
X135243997Y-136625809D01*
X135274010Y-136474922D01*
X135274010Y-136396000D01*
X138212499Y-136396000D01*
X138313141Y-136496642D01*
X138383471Y-136543635D01*
X138381424Y-136544256D01*
X138293520Y-136591242D01*
X138216472Y-136654474D01*
X138200627Y-136673781D01*
X137733409Y-137141000D01*
X137591078Y-137141000D01*
X137440191Y-137171013D01*
X137298058Y-137229887D01*
X137170141Y-137315358D01*
X137061358Y-137424141D01*
X136975887Y-137552058D01*
X136917013Y-137694191D01*
X136887000Y-137845078D01*
X136887000Y-137998922D01*
X136917013Y-138149809D01*
X136975887Y-138291942D01*
X137061358Y-138419859D01*
X137170141Y-138528642D01*
X137298058Y-138614113D01*
X137440191Y-138672987D01*
X137591078Y-138703000D01*
X137744922Y-138703000D01*
X137895809Y-138672987D01*
X138037942Y-138614113D01*
X138048470Y-138607078D01*
X139591028Y-138607078D01*
X139591028Y-138760922D01*
X139621041Y-138911809D01*
X139679915Y-139053942D01*
X139765386Y-139181859D01*
X139866029Y-139282502D01*
X139866028Y-140093181D01*
X139863581Y-140118028D01*
X139866028Y-140142874D01*
X139866028Y-140142881D01*
X139873350Y-140217220D01*
X139902283Y-140312602D01*
X139949269Y-140400507D01*
X140012501Y-140477555D01*
X140031813Y-140493404D01*
X141078000Y-141539592D01*
X141078000Y-141681922D01*
X141108013Y-141832809D01*
X141166887Y-141974942D01*
X141252358Y-142102859D01*
X141361141Y-142211642D01*
X141489058Y-142297113D01*
X141631191Y-142355987D01*
X141782078Y-142386000D01*
X141935922Y-142386000D01*
X142086809Y-142355987D01*
X142228942Y-142297113D01*
X142356859Y-142211642D01*
X142465642Y-142102859D01*
X142551113Y-141974942D01*
X142609987Y-141832809D01*
X142640000Y-141681922D01*
X142640000Y-141602465D01*
X143154000Y-141602465D01*
X143154000Y-141741535D01*
X143181131Y-141877933D01*
X143234351Y-142006416D01*
X143311614Y-142122049D01*
X143409951Y-142220386D01*
X143525584Y-142297649D01*
X143654067Y-142350869D01*
X143790465Y-142378000D01*
X143929535Y-142378000D01*
X144065933Y-142350869D01*
X144194416Y-142297649D01*
X144286693Y-142235992D01*
X144289997Y-142243678D01*
X144416839Y-142428169D01*
X144577236Y-142584369D01*
X144765024Y-142706276D01*
X144988126Y-142786119D01*
X145163000Y-142659954D01*
X145163000Y-141269000D01*
X145417000Y-141269000D01*
X145417000Y-142659954D01*
X145591874Y-142786119D01*
X145814976Y-142706276D01*
X146002764Y-142584369D01*
X146163161Y-142428169D01*
X146290003Y-142243678D01*
X146378415Y-142037987D01*
X146425000Y-141819000D01*
X146425000Y-141269000D01*
X145417000Y-141269000D01*
X145163000Y-141269000D01*
X145143000Y-141269000D01*
X145143000Y-141015000D01*
X145163000Y-141015000D01*
X145163000Y-139624046D01*
X145417000Y-139624046D01*
X145417000Y-141015000D01*
X146425000Y-141015000D01*
X146425000Y-140465000D01*
X146378415Y-140246013D01*
X146290003Y-140040322D01*
X146163161Y-139855831D01*
X146002764Y-139699631D01*
X145814976Y-139577724D01*
X145591874Y-139497881D01*
X145417000Y-139624046D01*
X145163000Y-139624046D01*
X144988126Y-139497881D01*
X144765024Y-139577724D01*
X144577236Y-139699631D01*
X144416839Y-139855831D01*
X144289997Y-140040322D01*
X144201585Y-140246013D01*
X144155000Y-140465000D01*
X144155000Y-141030024D01*
X144065933Y-140993131D01*
X143929535Y-140966000D01*
X143790465Y-140966000D01*
X143654067Y-140993131D01*
X143525584Y-141046351D01*
X143409951Y-141123614D01*
X143311614Y-141221951D01*
X143234351Y-141337584D01*
X143181131Y-141466067D01*
X143154000Y-141602465D01*
X142640000Y-141602465D01*
X142640000Y-141528078D01*
X142609987Y-141377191D01*
X142551113Y-141235058D01*
X142465642Y-141107141D01*
X142356859Y-140998358D01*
X142228942Y-140912887D01*
X142086809Y-140854013D01*
X141935922Y-140824000D01*
X141793592Y-140824000D01*
X140878028Y-139908437D01*
X140878028Y-139282501D01*
X140978670Y-139181859D01*
X141064141Y-139053942D01*
X141123015Y-138911809D01*
X141144811Y-138802231D01*
X143559153Y-138802231D01*
X143559153Y-138956075D01*
X143589166Y-139106962D01*
X143648040Y-139249095D01*
X143733511Y-139377012D01*
X143842294Y-139485795D01*
X143970211Y-139571266D01*
X144112344Y-139630140D01*
X144263231Y-139660153D01*
X144417075Y-139660153D01*
X144567962Y-139630140D01*
X144710095Y-139571266D01*
X144838012Y-139485795D01*
X144946795Y-139377012D01*
X145032266Y-139249095D01*
X145091140Y-139106962D01*
X145121153Y-138956075D01*
X145121153Y-138802231D01*
X145091140Y-138651344D01*
X145032266Y-138509211D01*
X144946795Y-138381294D01*
X144846153Y-138280652D01*
X144846153Y-135313871D01*
X144944953Y-135129490D01*
X145007809Y-135116987D01*
X145149942Y-135058113D01*
X145277859Y-134972642D01*
X145378501Y-134872000D01*
X147737499Y-134872000D01*
X147838141Y-134972642D01*
X147966058Y-135058113D01*
X148108191Y-135116987D01*
X148259078Y-135147000D01*
X148412922Y-135147000D01*
X148563809Y-135116987D01*
X148705942Y-135058113D01*
X148833859Y-134972642D01*
X148934501Y-134872000D01*
X150343154Y-134872000D01*
X150368000Y-134874447D01*
X150392846Y-134872000D01*
X150392854Y-134872000D01*
X150467193Y-134864678D01*
X150562575Y-134835745D01*
X150650479Y-134788759D01*
X150727527Y-134725527D01*
X150743376Y-134706215D01*
X153223592Y-132226000D01*
X153365922Y-132226000D01*
X153516809Y-132195987D01*
X153658942Y-132137113D01*
X153786859Y-132051642D01*
X153895642Y-131942859D01*
X153981113Y-131814942D01*
X154039987Y-131672809D01*
X154070000Y-131521922D01*
X154070000Y-131368078D01*
X154039987Y-131217191D01*
X153981113Y-131075058D01*
X153895642Y-130947141D01*
X153786859Y-130838358D01*
X153658942Y-130752887D01*
X153516809Y-130694013D01*
X153365922Y-130664000D01*
X153212078Y-130664000D01*
X153061191Y-130694013D01*
X152919058Y-130752887D01*
X152791141Y-130838358D01*
X152682358Y-130947141D01*
X152596887Y-131075058D01*
X152538013Y-131217191D01*
X152508000Y-131368078D01*
X152508000Y-131510408D01*
X150158409Y-133860000D01*
X148934501Y-133860000D01*
X148833859Y-133759358D01*
X148705942Y-133673887D01*
X148563809Y-133615013D01*
X148412922Y-133585000D01*
X148259078Y-133585000D01*
X148108191Y-133615013D01*
X147966058Y-133673887D01*
X147838141Y-133759358D01*
X147737499Y-133860000D01*
X145378501Y-133860000D01*
X145277859Y-133759358D01*
X145149942Y-133673887D01*
X145007809Y-133615013D01*
X144856922Y-133585000D01*
X144703078Y-133585000D01*
X144552191Y-133615013D01*
X144410058Y-133673887D01*
X144282141Y-133759358D01*
X144173358Y-133868141D01*
X144087887Y-133996058D01*
X144029013Y-134138191D01*
X143999000Y-134289078D01*
X143999000Y-134442922D01*
X144029013Y-134593809D01*
X144052927Y-134651543D01*
X143917563Y-134904162D01*
X143917394Y-134904368D01*
X143893932Y-134948262D01*
X143882410Y-134969765D01*
X143882310Y-134970006D01*
X143870408Y-134992273D01*
X143863232Y-135015931D01*
X143853753Y-135038748D01*
X143848803Y-135063496D01*
X143841475Y-135087655D01*
X143839053Y-135112248D01*
X143834205Y-135136486D01*
X143834179Y-135161731D01*
X143834153Y-135161994D01*
X143834153Y-135186800D01*
X143834102Y-135236159D01*
X143834153Y-135236417D01*
X143834154Y-138280651D01*
X143733511Y-138381294D01*
X143648040Y-138509211D01*
X143589166Y-138651344D01*
X143559153Y-138802231D01*
X141144811Y-138802231D01*
X141153028Y-138760922D01*
X141153028Y-138607078D01*
X141123015Y-138456191D01*
X141064141Y-138314058D01*
X140978670Y-138186141D01*
X140869887Y-138077358D01*
X140741970Y-137991887D01*
X140599837Y-137933013D01*
X140448950Y-137903000D01*
X140295106Y-137903000D01*
X140144219Y-137933013D01*
X140002086Y-137991887D01*
X139874169Y-138077358D01*
X139765386Y-138186141D01*
X139679915Y-138314058D01*
X139621041Y-138456191D01*
X139591028Y-138607078D01*
X138048470Y-138607078D01*
X138165859Y-138528642D01*
X138274642Y-138419859D01*
X138360113Y-138291942D01*
X138418987Y-138149809D01*
X138449000Y-137998922D01*
X138449000Y-137856591D01*
X138785591Y-137520001D01*
X141972784Y-137520001D01*
X141997013Y-137641809D01*
X142055887Y-137783942D01*
X142141358Y-137911859D01*
X142250141Y-138020642D01*
X142378058Y-138106113D01*
X142520191Y-138164987D01*
X142671078Y-138195000D01*
X142824922Y-138195000D01*
X142975809Y-138164987D01*
X143117942Y-138106113D01*
X143245859Y-138020642D01*
X143354642Y-137911859D01*
X143440113Y-137783942D01*
X143498987Y-137641809D01*
X143529000Y-137490922D01*
X143529000Y-137337078D01*
X143498987Y-137186191D01*
X143440113Y-137044058D01*
X143354642Y-136916141D01*
X143245859Y-136807358D01*
X143117942Y-136721887D01*
X142975809Y-136663013D01*
X142824922Y-136633000D01*
X142681362Y-136633000D01*
X142630480Y-136591242D01*
X142542576Y-136544256D01*
X142447194Y-136515323D01*
X142372855Y-136508001D01*
X142372847Y-136508001D01*
X142348001Y-136505554D01*
X142323155Y-136508001D01*
X139291859Y-136508001D01*
X139308859Y-136496642D01*
X139417642Y-136387859D01*
X139503113Y-136259942D01*
X139561987Y-136117809D01*
X139592000Y-135966922D01*
X139592000Y-135813078D01*
X139561987Y-135662191D01*
X139503113Y-135520058D01*
X139417642Y-135392141D01*
X139308859Y-135283358D01*
X139180942Y-135197887D01*
X139038809Y-135139013D01*
X138955280Y-135122398D01*
X138993050Y-135118678D01*
X139088432Y-135089745D01*
X139176336Y-135042759D01*
X139253384Y-134979527D01*
X139269233Y-134960215D01*
X141118448Y-133111001D01*
X148370115Y-133111001D01*
X148394961Y-133113448D01*
X148419807Y-133111001D01*
X148419815Y-133111001D01*
X148494154Y-133103679D01*
X148589536Y-133074746D01*
X148677440Y-133027760D01*
X148754488Y-132964528D01*
X148770337Y-132945216D01*
X149074216Y-132641337D01*
X149093528Y-132625488D01*
X149156760Y-132548440D01*
X149203746Y-132460536D01*
X149232679Y-132365154D01*
X149240001Y-132290815D01*
X149240001Y-132290807D01*
X149242448Y-132265961D01*
X149240001Y-132241115D01*
X149240001Y-131664893D01*
X149242449Y-131640039D01*
X149232679Y-131540846D01*
X149203746Y-131445464D01*
X149172970Y-131387887D01*
X149156760Y-131357560D01*
X149093528Y-131280512D01*
X149074221Y-131264667D01*
X147699000Y-129889447D01*
X147699000Y-129357425D01*
X147729358Y-129402859D01*
X147838141Y-129511642D01*
X147966058Y-129597113D01*
X148108191Y-129655987D01*
X148259078Y-129686000D01*
X148412922Y-129686000D01*
X148563809Y-129655987D01*
X148705942Y-129597113D01*
X148833859Y-129511642D01*
X148942642Y-129402859D01*
X149028113Y-129274942D01*
X149086987Y-129132809D01*
X149117000Y-128981922D01*
X149117000Y-128870999D01*
X151366501Y-128870999D01*
X151309102Y-128956903D01*
X151216307Y-129180931D01*
X151169000Y-129418757D01*
X151169000Y-129661243D01*
X151216307Y-129899069D01*
X151309102Y-130123097D01*
X151443820Y-130324717D01*
X151615283Y-130496180D01*
X151816903Y-130630898D01*
X152040931Y-130723693D01*
X152278757Y-130771000D01*
X152521243Y-130771000D01*
X152759069Y-130723693D01*
X152983097Y-130630898D01*
X153184717Y-130496180D01*
X153356180Y-130324717D01*
X153490898Y-130123097D01*
X153583693Y-129899069D01*
X153631000Y-129661243D01*
X153631000Y-129418757D01*
X153583693Y-129180931D01*
X153490898Y-128956903D01*
X153433499Y-128870999D01*
X153555408Y-128870999D01*
X153788242Y-129103833D01*
X153756307Y-129180931D01*
X153709000Y-129418757D01*
X153709000Y-129661243D01*
X153756307Y-129899069D01*
X153849102Y-130123097D01*
X153983820Y-130324717D01*
X154155283Y-130496180D01*
X154356903Y-130630898D01*
X154580931Y-130723693D01*
X154818757Y-130771000D01*
X155061243Y-130771000D01*
X155299069Y-130723693D01*
X155523097Y-130630898D01*
X155724717Y-130496180D01*
X155896180Y-130324717D01*
X156030898Y-130123097D01*
X156123693Y-129899069D01*
X156171000Y-129661243D01*
X156171000Y-129418757D01*
X156123693Y-129180931D01*
X156030898Y-128956903D01*
X155896180Y-128755283D01*
X155724717Y-128583820D01*
X155523097Y-128449102D01*
X155299069Y-128356307D01*
X155061243Y-128309000D01*
X154818757Y-128309000D01*
X154580931Y-128356307D01*
X154503833Y-128388242D01*
X154140375Y-128024784D01*
X154124526Y-128005472D01*
X154047478Y-127942240D01*
X153959574Y-127895254D01*
X153864192Y-127866321D01*
X153789853Y-127858999D01*
X153789845Y-127858999D01*
X153764999Y-127856552D01*
X153740153Y-127858999D01*
X153281898Y-127858999D01*
X153356180Y-127784717D01*
X153490898Y-127583097D01*
X153583693Y-127359069D01*
X153631000Y-127121243D01*
X153631000Y-126878757D01*
X153583693Y-126640931D01*
X153490898Y-126416903D01*
X153433499Y-126330999D01*
X153555408Y-126330999D01*
X153788242Y-126563833D01*
X153756307Y-126640931D01*
X153709000Y-126878757D01*
X153709000Y-127121243D01*
X153756307Y-127359069D01*
X153849102Y-127583097D01*
X153983820Y-127784717D01*
X154155283Y-127956180D01*
X154356903Y-128090898D01*
X154580931Y-128183693D01*
X154818757Y-128231000D01*
X155061243Y-128231000D01*
X155299069Y-128183693D01*
X155523097Y-128090898D01*
X155724717Y-127956180D01*
X155896180Y-127784717D01*
X156030898Y-127583097D01*
X156123693Y-127359069D01*
X156171000Y-127121243D01*
X156171000Y-126878757D01*
X156123693Y-126640931D01*
X156030898Y-126416903D01*
X155896180Y-126215283D01*
X155724717Y-126043820D01*
X155523097Y-125909102D01*
X155299069Y-125816307D01*
X155061243Y-125769000D01*
X154818757Y-125769000D01*
X154580931Y-125816307D01*
X154503833Y-125848242D01*
X154140375Y-125484784D01*
X154124526Y-125465472D01*
X154047478Y-125402240D01*
X153959574Y-125355254D01*
X153864192Y-125326321D01*
X153789853Y-125318999D01*
X153789845Y-125318999D01*
X153764999Y-125316552D01*
X153740153Y-125318999D01*
X153281898Y-125318999D01*
X153356180Y-125244717D01*
X153490898Y-125043097D01*
X153583693Y-124819069D01*
X153631000Y-124581243D01*
X153631000Y-124338757D01*
X153583693Y-124100931D01*
X153490898Y-123876903D01*
X153356180Y-123675283D01*
X153281898Y-123601001D01*
X153365410Y-123601001D01*
X153788242Y-124023833D01*
X153756307Y-124100931D01*
X153709000Y-124338757D01*
X153709000Y-124581243D01*
X153756307Y-124819069D01*
X153849102Y-125043097D01*
X153983820Y-125244717D01*
X154155283Y-125416180D01*
X154356903Y-125550898D01*
X154580931Y-125643693D01*
X154818757Y-125691000D01*
X155061243Y-125691000D01*
X155299069Y-125643693D01*
X155523097Y-125550898D01*
X155724717Y-125416180D01*
X155896180Y-125244717D01*
X156030898Y-125043097D01*
X156123693Y-124819069D01*
X156171000Y-124581243D01*
X156171000Y-124338757D01*
X156123693Y-124100931D01*
X156030898Y-123876903D01*
X155896180Y-123675283D01*
X155724717Y-123503820D01*
X155523097Y-123369102D01*
X155299069Y-123276307D01*
X155061243Y-123229000D01*
X154818757Y-123229000D01*
X154580931Y-123276307D01*
X154503833Y-123308242D01*
X153950377Y-122754786D01*
X153934528Y-122735474D01*
X153857480Y-122672242D01*
X153769576Y-122625256D01*
X153709668Y-122607084D01*
X153796825Y-122424099D01*
X153805091Y-122396846D01*
X153849102Y-122503097D01*
X153983820Y-122704717D01*
X154155283Y-122876180D01*
X154356903Y-123010898D01*
X154580931Y-123103693D01*
X154818757Y-123151000D01*
X155061243Y-123151000D01*
X155299069Y-123103693D01*
X155523097Y-123010898D01*
X155724717Y-122876180D01*
X155896180Y-122704717D01*
X156030898Y-122503097D01*
X156123693Y-122279069D01*
X156171000Y-122041243D01*
X156171000Y-121798757D01*
X156123693Y-121560931D01*
X156030898Y-121336903D01*
X155896180Y-121135283D01*
X155724717Y-120963820D01*
X155523097Y-120829102D01*
X155299069Y-120736307D01*
X155061243Y-120689000D01*
X154818757Y-120689000D01*
X154580931Y-120736307D01*
X154356903Y-120829102D01*
X154155283Y-120963820D01*
X153983820Y-121135283D01*
X153849102Y-121336903D01*
X153805091Y-121443154D01*
X153796825Y-121415901D01*
X153671641Y-121153080D01*
X153497588Y-120919731D01*
X153281355Y-120724822D01*
X153031252Y-120575843D01*
X152868832Y-120518228D01*
X152983097Y-120470898D01*
X153184717Y-120336180D01*
X153356180Y-120164717D01*
X153490898Y-119963097D01*
X153583693Y-119739069D01*
X153631000Y-119501243D01*
X153631000Y-119258757D01*
X153709000Y-119258757D01*
X153709000Y-119501243D01*
X153756307Y-119739069D01*
X153849102Y-119963097D01*
X153983820Y-120164717D01*
X154155283Y-120336180D01*
X154356903Y-120470898D01*
X154580931Y-120563693D01*
X154818757Y-120611000D01*
X155061243Y-120611000D01*
X155299069Y-120563693D01*
X155523097Y-120470898D01*
X155724717Y-120336180D01*
X155896180Y-120164717D01*
X156030898Y-119963097D01*
X156123693Y-119739069D01*
X156171000Y-119501243D01*
X156171000Y-119258757D01*
X156123693Y-119020931D01*
X156030898Y-118796903D01*
X155896180Y-118595283D01*
X155724717Y-118423820D01*
X155523097Y-118289102D01*
X155299069Y-118196307D01*
X155061243Y-118149000D01*
X154818757Y-118149000D01*
X154580931Y-118196307D01*
X154356903Y-118289102D01*
X154155283Y-118423820D01*
X153983820Y-118595283D01*
X153849102Y-118796903D01*
X153756307Y-119020931D01*
X153709000Y-119258757D01*
X153631000Y-119258757D01*
X153583693Y-119020931D01*
X153490898Y-118796903D01*
X153474942Y-118773023D01*
X153488131Y-118773023D01*
X153512977Y-118775470D01*
X153537823Y-118773023D01*
X153537831Y-118773023D01*
X153612170Y-118765701D01*
X153707552Y-118736768D01*
X153795456Y-118689782D01*
X153872504Y-118626550D01*
X153888353Y-118607238D01*
X154503833Y-117991758D01*
X154580931Y-118023693D01*
X154818757Y-118071000D01*
X155061243Y-118071000D01*
X155299069Y-118023693D01*
X155523097Y-117930898D01*
X155724717Y-117796180D01*
X155896180Y-117624717D01*
X156030898Y-117423097D01*
X156123693Y-117199069D01*
X156171000Y-116961243D01*
X156171000Y-116718757D01*
X156123693Y-116480931D01*
X156030898Y-116256903D01*
X155896180Y-116055283D01*
X155724717Y-115883820D01*
X155523097Y-115749102D01*
X155299069Y-115656307D01*
X155061243Y-115609000D01*
X154818757Y-115609000D01*
X154580931Y-115656307D01*
X154356903Y-115749102D01*
X154155283Y-115883820D01*
X153983820Y-116055283D01*
X153849102Y-116256903D01*
X153756307Y-116480931D01*
X153709000Y-116718757D01*
X153709000Y-116961243D01*
X153756307Y-117199069D01*
X153788242Y-117276167D01*
X153303386Y-117761023D01*
X153219874Y-117761023D01*
X153356180Y-117624717D01*
X153490898Y-117423097D01*
X153583693Y-117199069D01*
X153631000Y-116961243D01*
X153631000Y-116718757D01*
X153583693Y-116480931D01*
X153490898Y-116256903D01*
X153356180Y-116055283D01*
X153208898Y-115908001D01*
X153813153Y-115908001D01*
X153837999Y-115910448D01*
X153862845Y-115908001D01*
X153862853Y-115908001D01*
X153937192Y-115900679D01*
X154032574Y-115871746D01*
X154120478Y-115824760D01*
X154197526Y-115761528D01*
X154213375Y-115742216D01*
X154503833Y-115451758D01*
X154580931Y-115483693D01*
X154818757Y-115531000D01*
X155061243Y-115531000D01*
X155299069Y-115483693D01*
X155523097Y-115390898D01*
X155724717Y-115256180D01*
X155896180Y-115084717D01*
X156030898Y-114883097D01*
X156123693Y-114659069D01*
X156171000Y-114421243D01*
X156171000Y-114178757D01*
X156123693Y-113940931D01*
X156030898Y-113716903D01*
X155896180Y-113515283D01*
X155724717Y-113343820D01*
X155523097Y-113209102D01*
X155299069Y-113116307D01*
X155061243Y-113069000D01*
X154818757Y-113069000D01*
X154580931Y-113116307D01*
X154356903Y-113209102D01*
X154155283Y-113343820D01*
X153983820Y-113515283D01*
X153849102Y-113716903D01*
X153756307Y-113940931D01*
X153709000Y-114178757D01*
X153709000Y-114421243D01*
X153756307Y-114659069D01*
X153788242Y-114736167D01*
X153628408Y-114896001D01*
X153482276Y-114896001D01*
X153490898Y-114883097D01*
X153583693Y-114659069D01*
X153631000Y-114421243D01*
X153631000Y-114178757D01*
X153583693Y-113940931D01*
X153490898Y-113716903D01*
X153356180Y-113515283D01*
X153208898Y-113368001D01*
X153813153Y-113368001D01*
X153837999Y-113370448D01*
X153862845Y-113368001D01*
X153862853Y-113368001D01*
X153937192Y-113360679D01*
X154032574Y-113331746D01*
X154120478Y-113284760D01*
X154197526Y-113221528D01*
X154213375Y-113202216D01*
X154503833Y-112911758D01*
X154580931Y-112943693D01*
X154818757Y-112991000D01*
X155061243Y-112991000D01*
X155299069Y-112943693D01*
X155523097Y-112850898D01*
X155724717Y-112716180D01*
X155896180Y-112544717D01*
X156030898Y-112343097D01*
X156123693Y-112119069D01*
X156171000Y-111881243D01*
X156171000Y-111638757D01*
X156123693Y-111400931D01*
X156030898Y-111176903D01*
X155896180Y-110975283D01*
X155724717Y-110803820D01*
X155523097Y-110669102D01*
X155299069Y-110576307D01*
X155061243Y-110529000D01*
X154818757Y-110529000D01*
X154580931Y-110576307D01*
X154356903Y-110669102D01*
X154155283Y-110803820D01*
X153983820Y-110975283D01*
X153849102Y-111176903D01*
X153756307Y-111400931D01*
X153709000Y-111638757D01*
X153709000Y-111881243D01*
X153756307Y-112119069D01*
X153788242Y-112196167D01*
X153628408Y-112356001D01*
X153482276Y-112356001D01*
X153490898Y-112343097D01*
X153583693Y-112119069D01*
X153631000Y-111881243D01*
X153631000Y-111638757D01*
X153583693Y-111400931D01*
X153490898Y-111176903D01*
X153482637Y-111164539D01*
X153502001Y-111166446D01*
X153526847Y-111163999D01*
X153526855Y-111163999D01*
X153601194Y-111156677D01*
X153696576Y-111127744D01*
X153784480Y-111080758D01*
X153861528Y-111017526D01*
X153877377Y-110998214D01*
X154503833Y-110371758D01*
X154580931Y-110403693D01*
X154818757Y-110451000D01*
X155061243Y-110451000D01*
X155299069Y-110403693D01*
X155523097Y-110310898D01*
X155724717Y-110176180D01*
X155896180Y-110004717D01*
X156030898Y-109803097D01*
X156123693Y-109579069D01*
X156171000Y-109341243D01*
X156171000Y-109098757D01*
X156123693Y-108860931D01*
X156030898Y-108636903D01*
X155896180Y-108435283D01*
X155724717Y-108263820D01*
X155579706Y-108166927D01*
X155790000Y-108168072D01*
X155914482Y-108155812D01*
X156034180Y-108119502D01*
X156144494Y-108060537D01*
X156241185Y-107981185D01*
X156312000Y-107894896D01*
X156312001Y-146279000D01*
X146217592Y-146279000D01*
X146290003Y-146173678D01*
X146378415Y-145967987D01*
X146425000Y-145749000D01*
X146425000Y-145449000D01*
X145417000Y-145449000D01*
X145417000Y-145469000D01*
X145163000Y-145469000D01*
X145163000Y-145449000D01*
X144155000Y-145449000D01*
X144155000Y-145749000D01*
X144201585Y-145967987D01*
X144289997Y-146173678D01*
X144362408Y-146279000D01*
X137577592Y-146279000D01*
X137650003Y-146173678D01*
X137738415Y-145967987D01*
X137785000Y-145749000D01*
X137785000Y-145449000D01*
X136777000Y-145449000D01*
X136777000Y-145469000D01*
X136523000Y-145469000D01*
X136523000Y-145449000D01*
X135515000Y-145449000D01*
X135515000Y-145749000D01*
X135561585Y-145967987D01*
X135649997Y-146173678D01*
X135722408Y-146279000D01*
X125628000Y-146279000D01*
X125628000Y-144895000D01*
X135515000Y-144895000D01*
X135515000Y-145195000D01*
X136523000Y-145195000D01*
X136523000Y-144054046D01*
X136777000Y-144054046D01*
X136777000Y-145195000D01*
X137785000Y-145195000D01*
X137785000Y-144895000D01*
X144155000Y-144895000D01*
X144155000Y-145195000D01*
X145163000Y-145195000D01*
X145163000Y-144054046D01*
X145417000Y-144054046D01*
X145417000Y-145195000D01*
X146425000Y-145195000D01*
X146425000Y-144895000D01*
X146378415Y-144676013D01*
X146290003Y-144470322D01*
X146163161Y-144285831D01*
X146002764Y-144129631D01*
X145814976Y-144007724D01*
X145591874Y-143927881D01*
X145417000Y-144054046D01*
X145163000Y-144054046D01*
X144988126Y-143927881D01*
X144765024Y-144007724D01*
X144577236Y-144129631D01*
X144416839Y-144285831D01*
X144289997Y-144470322D01*
X144201585Y-144676013D01*
X144155000Y-144895000D01*
X137785000Y-144895000D01*
X137738415Y-144676013D01*
X137650003Y-144470322D01*
X137523161Y-144285831D01*
X137362764Y-144129631D01*
X137174976Y-144007724D01*
X136951874Y-143927881D01*
X136777000Y-144054046D01*
X136523000Y-144054046D01*
X136348126Y-143927881D01*
X136125024Y-144007724D01*
X135937236Y-144129631D01*
X135776839Y-144285831D01*
X135649997Y-144470322D01*
X135561585Y-144676013D01*
X135515000Y-144895000D01*
X125628000Y-144895000D01*
X125628000Y-141269000D01*
X135515000Y-141269000D01*
X135515000Y-141819000D01*
X135561585Y-142037987D01*
X135649997Y-142243678D01*
X135776839Y-142428169D01*
X135937236Y-142584369D01*
X136125024Y-142706276D01*
X136348126Y-142786119D01*
X136523000Y-142659954D01*
X136523000Y-141269000D01*
X135515000Y-141269000D01*
X125628000Y-141269000D01*
X125628000Y-140465000D01*
X135515000Y-140465000D01*
X135515000Y-141015000D01*
X136523000Y-141015000D01*
X136523000Y-139624046D01*
X136777000Y-139624046D01*
X136777000Y-141015000D01*
X136797000Y-141015000D01*
X136797000Y-141269000D01*
X136777000Y-141269000D01*
X136777000Y-142659954D01*
X136951874Y-142786119D01*
X137174976Y-142706276D01*
X137362764Y-142584369D01*
X137523161Y-142428169D01*
X137650003Y-142243678D01*
X137653307Y-142235992D01*
X137745584Y-142297649D01*
X137874067Y-142350869D01*
X138010465Y-142378000D01*
X138149535Y-142378000D01*
X138285933Y-142350869D01*
X138414416Y-142297649D01*
X138530049Y-142220386D01*
X138628386Y-142122049D01*
X138705649Y-142006416D01*
X138758869Y-141877933D01*
X138786000Y-141741535D01*
X138786000Y-141602465D01*
X138758869Y-141466067D01*
X138705649Y-141337584D01*
X138628386Y-141221951D01*
X138530049Y-141123614D01*
X138414416Y-141046351D01*
X138285933Y-140993131D01*
X138149535Y-140966000D01*
X138010465Y-140966000D01*
X137874067Y-140993131D01*
X137785000Y-141030024D01*
X137785000Y-140465000D01*
X137738415Y-140246013D01*
X137650003Y-140040322D01*
X137523161Y-139855831D01*
X137362764Y-139699631D01*
X137174976Y-139577724D01*
X136951874Y-139497881D01*
X136777000Y-139624046D01*
X136523000Y-139624046D01*
X136348126Y-139497881D01*
X136125024Y-139577724D01*
X135937236Y-139699631D01*
X135776839Y-139855831D01*
X135649997Y-140040322D01*
X135561585Y-140246013D01*
X135515000Y-140465000D01*
X125628000Y-140465000D01*
X125628000Y-137083078D01*
X126092000Y-137083078D01*
X126092000Y-137236922D01*
X126122013Y-137387809D01*
X126180887Y-137529942D01*
X126266358Y-137657859D01*
X126375141Y-137766642D01*
X126503058Y-137852113D01*
X126645191Y-137910987D01*
X126796078Y-137941000D01*
X126949922Y-137941000D01*
X127100809Y-137910987D01*
X127242942Y-137852113D01*
X127370859Y-137766642D01*
X127479642Y-137657859D01*
X127565113Y-137529942D01*
X127623987Y-137387809D01*
X127654000Y-137236922D01*
X127654000Y-137083078D01*
X127623987Y-136932191D01*
X127565113Y-136790058D01*
X127479642Y-136662141D01*
X127379000Y-136561499D01*
X127379000Y-136448078D01*
X129902000Y-136448078D01*
X129902000Y-136601922D01*
X129932013Y-136752809D01*
X129990887Y-136894942D01*
X130076358Y-137022859D01*
X130185141Y-137131642D01*
X130313058Y-137217113D01*
X130455191Y-137275987D01*
X130606078Y-137306000D01*
X130759922Y-137306000D01*
X130910809Y-137275987D01*
X131052942Y-137217113D01*
X131180859Y-137131642D01*
X131289642Y-137022859D01*
X131375113Y-136894942D01*
X131433987Y-136752809D01*
X131464000Y-136601922D01*
X131464000Y-136448078D01*
X131433987Y-136297191D01*
X131415948Y-136253643D01*
X134808592Y-132861000D01*
X134950922Y-132861000D01*
X135101809Y-132830987D01*
X135243942Y-132772113D01*
X135371859Y-132686642D01*
X135480642Y-132577859D01*
X135566113Y-132449942D01*
X135624987Y-132307809D01*
X135655000Y-132156922D01*
X135655000Y-132003078D01*
X135624987Y-131852191D01*
X135566113Y-131710058D01*
X135480642Y-131582141D01*
X135371859Y-131473358D01*
X135243942Y-131387887D01*
X135101809Y-131329013D01*
X134950922Y-131299000D01*
X134797078Y-131299000D01*
X134646191Y-131329013D01*
X134504058Y-131387887D01*
X134376141Y-131473358D01*
X134267358Y-131582141D01*
X134181887Y-131710058D01*
X134123013Y-131852191D01*
X134093000Y-132003078D01*
X134093000Y-132145408D01*
X130466682Y-135771727D01*
X130455191Y-135774013D01*
X130313058Y-135832887D01*
X130185141Y-135918358D01*
X130076358Y-136027141D01*
X129990887Y-136155058D01*
X129932013Y-136297191D01*
X129902000Y-136448078D01*
X127379000Y-136448078D01*
X127379000Y-136226591D01*
X128204592Y-135401000D01*
X128346922Y-135401000D01*
X128497809Y-135370987D01*
X128639942Y-135312113D01*
X128767859Y-135226642D01*
X128876642Y-135117859D01*
X128962113Y-134989942D01*
X129020987Y-134847809D01*
X129051000Y-134696922D01*
X129051000Y-134543078D01*
X129020987Y-134392191D01*
X128962113Y-134250058D01*
X128876642Y-134122141D01*
X128767859Y-134013358D01*
X128639942Y-133927887D01*
X128497809Y-133869013D01*
X128346922Y-133839000D01*
X128193078Y-133839000D01*
X128042191Y-133869013D01*
X127900058Y-133927887D01*
X127772141Y-134013358D01*
X127663358Y-134122141D01*
X127577887Y-134250058D01*
X127519013Y-134392191D01*
X127489000Y-134543078D01*
X127489000Y-134685408D01*
X126532785Y-135641624D01*
X126513473Y-135657473D01*
X126450241Y-135734521D01*
X126403255Y-135822426D01*
X126374322Y-135917808D01*
X126367000Y-135992147D01*
X126367000Y-135992154D01*
X126364553Y-136017000D01*
X126367000Y-136041847D01*
X126367000Y-136561499D01*
X126266358Y-136662141D01*
X126180887Y-136790058D01*
X126122013Y-136932191D01*
X126092000Y-137083078D01*
X125628000Y-137083078D01*
X125628000Y-129418757D01*
X125769000Y-129418757D01*
X125769000Y-129661243D01*
X125816307Y-129899069D01*
X125909102Y-130123097D01*
X126043820Y-130324717D01*
X126215283Y-130496180D01*
X126416903Y-130630898D01*
X126640931Y-130723693D01*
X126878757Y-130771000D01*
X127121243Y-130771000D01*
X127359069Y-130723693D01*
X127583097Y-130630898D01*
X127784717Y-130496180D01*
X127956180Y-130324717D01*
X128090898Y-130123097D01*
X128183693Y-129899069D01*
X128231000Y-129661243D01*
X128231000Y-129418757D01*
X128309000Y-129418757D01*
X128309000Y-129661243D01*
X128356307Y-129899069D01*
X128449102Y-130123097D01*
X128583820Y-130324717D01*
X128755283Y-130496180D01*
X128956903Y-130630898D01*
X129180931Y-130723693D01*
X129418757Y-130771000D01*
X129661243Y-130771000D01*
X129899069Y-130723693D01*
X130123097Y-130630898D01*
X130324717Y-130496180D01*
X130496180Y-130324717D01*
X130630898Y-130123097D01*
X130723693Y-129899069D01*
X130771000Y-129661243D01*
X130771000Y-129418757D01*
X130723693Y-129180931D01*
X130630898Y-128956903D01*
X130496180Y-128755283D01*
X130324717Y-128583820D01*
X130123097Y-128449102D01*
X129899069Y-128356307D01*
X129661243Y-128309000D01*
X129418757Y-128309000D01*
X129180931Y-128356307D01*
X128956903Y-128449102D01*
X128755283Y-128583820D01*
X128583820Y-128755283D01*
X128449102Y-128956903D01*
X128356307Y-129180931D01*
X128309000Y-129418757D01*
X128231000Y-129418757D01*
X128183693Y-129180931D01*
X128090898Y-128956903D01*
X127956180Y-128755283D01*
X127784717Y-128583820D01*
X127583097Y-128449102D01*
X127359069Y-128356307D01*
X127121243Y-128309000D01*
X126878757Y-128309000D01*
X126640931Y-128356307D01*
X126416903Y-128449102D01*
X126215283Y-128583820D01*
X126043820Y-128755283D01*
X125909102Y-128956903D01*
X125816307Y-129180931D01*
X125769000Y-129418757D01*
X125628000Y-129418757D01*
X125628000Y-126878757D01*
X125769000Y-126878757D01*
X125769000Y-127121243D01*
X125816307Y-127359069D01*
X125909102Y-127583097D01*
X126043820Y-127784717D01*
X126215283Y-127956180D01*
X126416903Y-128090898D01*
X126640931Y-128183693D01*
X126878757Y-128231000D01*
X127121243Y-128231000D01*
X127359069Y-128183693D01*
X127583097Y-128090898D01*
X127784717Y-127956180D01*
X127956180Y-127784717D01*
X128090898Y-127583097D01*
X128183693Y-127359069D01*
X128231000Y-127121243D01*
X128231000Y-126878757D01*
X128309000Y-126878757D01*
X128309000Y-127121243D01*
X128356307Y-127359069D01*
X128449102Y-127583097D01*
X128583820Y-127784717D01*
X128755283Y-127956180D01*
X128956903Y-128090898D01*
X129180931Y-128183693D01*
X129418757Y-128231000D01*
X129661243Y-128231000D01*
X129899069Y-128183693D01*
X130123097Y-128090898D01*
X130324717Y-127956180D01*
X130496180Y-127784717D01*
X130630898Y-127583097D01*
X130662832Y-127506000D01*
X131928152Y-127506000D01*
X131952998Y-127508447D01*
X131977844Y-127506000D01*
X131977852Y-127506000D01*
X132052191Y-127498678D01*
X132147573Y-127469745D01*
X132235477Y-127422759D01*
X132312525Y-127359527D01*
X132328374Y-127340215D01*
X133792592Y-125875998D01*
X133934922Y-125875998D01*
X134085809Y-125845985D01*
X134227942Y-125787111D01*
X134355859Y-125701640D01*
X134464642Y-125592857D01*
X134550113Y-125464940D01*
X134608987Y-125322807D01*
X134639000Y-125171920D01*
X134639000Y-125018076D01*
X134608987Y-124867189D01*
X134550113Y-124725056D01*
X134464642Y-124597139D01*
X134355859Y-124488356D01*
X134227942Y-124402885D01*
X134085809Y-124344011D01*
X133934922Y-124313998D01*
X133781078Y-124313998D01*
X133630191Y-124344011D01*
X133488058Y-124402885D01*
X133360141Y-124488356D01*
X133251358Y-124597139D01*
X133165887Y-124725056D01*
X133107013Y-124867189D01*
X133077000Y-125018076D01*
X133077000Y-125160406D01*
X131743407Y-126494000D01*
X130662832Y-126494000D01*
X130630898Y-126416903D01*
X130496180Y-126215283D01*
X130324717Y-126043820D01*
X130123097Y-125909102D01*
X129899069Y-125816307D01*
X129661243Y-125769000D01*
X129418757Y-125769000D01*
X129180931Y-125816307D01*
X128956903Y-125909102D01*
X128755283Y-126043820D01*
X128583820Y-126215283D01*
X128449102Y-126416903D01*
X128356307Y-126640931D01*
X128309000Y-126878757D01*
X128231000Y-126878757D01*
X128183693Y-126640931D01*
X128090898Y-126416903D01*
X127956180Y-126215283D01*
X127784717Y-126043820D01*
X127583097Y-125909102D01*
X127359069Y-125816307D01*
X127121243Y-125769000D01*
X126878757Y-125769000D01*
X126640931Y-125816307D01*
X126416903Y-125909102D01*
X126215283Y-126043820D01*
X126043820Y-126215283D01*
X125909102Y-126416903D01*
X125816307Y-126640931D01*
X125769000Y-126878757D01*
X125628000Y-126878757D01*
X125628000Y-124338757D01*
X125769000Y-124338757D01*
X125769000Y-124581243D01*
X125816307Y-124819069D01*
X125909102Y-125043097D01*
X126043820Y-125244717D01*
X126215283Y-125416180D01*
X126416903Y-125550898D01*
X126640931Y-125643693D01*
X126878757Y-125691000D01*
X127121243Y-125691000D01*
X127359069Y-125643693D01*
X127583097Y-125550898D01*
X127784717Y-125416180D01*
X127956180Y-125244717D01*
X128090898Y-125043097D01*
X128183693Y-124819069D01*
X128231000Y-124581243D01*
X128231000Y-124338757D01*
X128183693Y-124100931D01*
X128090898Y-123876903D01*
X127956180Y-123675283D01*
X127784717Y-123503820D01*
X127583097Y-123369102D01*
X127359069Y-123276307D01*
X127121243Y-123229000D01*
X126878757Y-123229000D01*
X126640931Y-123276307D01*
X126416903Y-123369102D01*
X126215283Y-123503820D01*
X126043820Y-123675283D01*
X125909102Y-123876903D01*
X125816307Y-124100931D01*
X125769000Y-124338757D01*
X125628000Y-124338757D01*
X125628000Y-121798757D01*
X125769000Y-121798757D01*
X125769000Y-122041243D01*
X125816307Y-122279069D01*
X125909102Y-122503097D01*
X126043820Y-122704717D01*
X126215283Y-122876180D01*
X126416903Y-123010898D01*
X126640931Y-123103693D01*
X126878757Y-123151000D01*
X127121243Y-123151000D01*
X127359069Y-123103693D01*
X127583097Y-123010898D01*
X127784717Y-122876180D01*
X127956180Y-122704717D01*
X128090898Y-122503097D01*
X128183693Y-122279069D01*
X128231000Y-122041243D01*
X128231000Y-121798757D01*
X128183693Y-121560931D01*
X128090898Y-121336903D01*
X127956180Y-121135283D01*
X127784717Y-120963820D01*
X127583097Y-120829102D01*
X127359069Y-120736307D01*
X127121243Y-120689000D01*
X126878757Y-120689000D01*
X126640931Y-120736307D01*
X126416903Y-120829102D01*
X126215283Y-120963820D01*
X126043820Y-121135283D01*
X125909102Y-121336903D01*
X125816307Y-121560931D01*
X125769000Y-121798757D01*
X125628000Y-121798757D01*
X125628000Y-116718757D01*
X125769000Y-116718757D01*
X125769000Y-116961243D01*
X125816307Y-117199069D01*
X125909102Y-117423097D01*
X126043820Y-117624717D01*
X126215283Y-117796180D01*
X126416903Y-117930898D01*
X126640931Y-118023693D01*
X126878757Y-118071000D01*
X127121243Y-118071000D01*
X127359069Y-118023693D01*
X127583097Y-117930898D01*
X127784717Y-117796180D01*
X127956180Y-117624717D01*
X128090898Y-117423097D01*
X128183693Y-117199069D01*
X128231000Y-116961243D01*
X128231000Y-116718757D01*
X128183693Y-116480931D01*
X128090898Y-116256903D01*
X127956180Y-116055283D01*
X127784717Y-115883820D01*
X127583097Y-115749102D01*
X127359069Y-115656307D01*
X127121243Y-115609000D01*
X126878757Y-115609000D01*
X126640931Y-115656307D01*
X126416903Y-115749102D01*
X126215283Y-115883820D01*
X126043820Y-116055283D01*
X125909102Y-116256903D01*
X125816307Y-116480931D01*
X125769000Y-116718757D01*
X125628000Y-116718757D01*
X125628000Y-114178757D01*
X125769000Y-114178757D01*
X125769000Y-114421243D01*
X125816307Y-114659069D01*
X125909102Y-114883097D01*
X126043820Y-115084717D01*
X126215283Y-115256180D01*
X126416903Y-115390898D01*
X126640931Y-115483693D01*
X126878757Y-115531000D01*
X127121243Y-115531000D01*
X127359069Y-115483693D01*
X127583097Y-115390898D01*
X127784717Y-115256180D01*
X127956180Y-115084717D01*
X128090898Y-114883097D01*
X128183693Y-114659069D01*
X128231000Y-114421243D01*
X128231000Y-114178757D01*
X128183693Y-113940931D01*
X128090898Y-113716903D01*
X127956180Y-113515283D01*
X127784717Y-113343820D01*
X127583097Y-113209102D01*
X127359069Y-113116307D01*
X127121243Y-113069000D01*
X126878757Y-113069000D01*
X126640931Y-113116307D01*
X126416903Y-113209102D01*
X126215283Y-113343820D01*
X126043820Y-113515283D01*
X125909102Y-113716903D01*
X125816307Y-113940931D01*
X125769000Y-114178757D01*
X125628000Y-114178757D01*
X125628000Y-107236219D01*
X125728359Y-107446920D01*
X125902412Y-107680269D01*
X126118645Y-107875178D01*
X126368748Y-108024157D01*
X126531168Y-108081772D01*
X126416903Y-108129102D01*
X126215283Y-108263820D01*
X126043820Y-108435283D01*
X125909102Y-108636903D01*
X125816307Y-108860931D01*
X125769000Y-109098757D01*
X125769000Y-109341243D01*
X125816307Y-109579069D01*
X125909102Y-109803097D01*
X126043820Y-110004717D01*
X126215283Y-110176180D01*
X126416903Y-110310898D01*
X126640931Y-110403693D01*
X126878757Y-110451000D01*
X127121243Y-110451000D01*
X127359069Y-110403693D01*
X127583097Y-110310898D01*
X127784717Y-110176180D01*
X127956180Y-110004717D01*
X128090898Y-109803097D01*
X128183693Y-109579069D01*
X128231000Y-109341243D01*
X128231000Y-109098757D01*
X128309000Y-109098757D01*
X128309000Y-109341243D01*
X128356307Y-109579069D01*
X128449102Y-109803097D01*
X128583820Y-110004717D01*
X128755283Y-110176180D01*
X128956903Y-110310898D01*
X129180931Y-110403693D01*
X129418757Y-110451000D01*
X129661243Y-110451000D01*
X129899069Y-110403693D01*
X130123097Y-110310898D01*
X130324717Y-110176180D01*
X130496180Y-110004717D01*
X130630898Y-109803097D01*
X130723693Y-109579069D01*
X130771000Y-109341243D01*
X130771000Y-109098757D01*
X130723693Y-108860931D01*
X130630898Y-108636903D01*
X130496180Y-108435283D01*
X130324717Y-108263820D01*
X130123097Y-108129102D01*
X129899069Y-108036307D01*
X129661243Y-107989000D01*
X129418757Y-107989000D01*
X129180931Y-108036307D01*
X128956903Y-108129102D01*
X128755283Y-108263820D01*
X128583820Y-108435283D01*
X128449102Y-108636903D01*
X128356307Y-108860931D01*
X128309000Y-109098757D01*
X128231000Y-109098757D01*
X128183693Y-108860931D01*
X128090898Y-108636903D01*
X127956180Y-108435283D01*
X127784717Y-108263820D01*
X127583097Y-108129102D01*
X127468832Y-108081772D01*
X127631252Y-108024157D01*
X127881355Y-107875178D01*
X128097588Y-107680269D01*
X128271641Y-107446920D01*
X128307157Y-107372355D01*
X128307157Y-107530000D01*
X128314513Y-107604689D01*
X128336299Y-107676508D01*
X128371678Y-107742696D01*
X128419289Y-107800711D01*
X128477304Y-107848322D01*
X128543492Y-107883701D01*
X128615311Y-107905487D01*
X128690000Y-107912843D01*
X130390000Y-107912843D01*
X130464689Y-107905487D01*
X130536508Y-107883701D01*
X130602696Y-107848322D01*
X130660711Y-107800711D01*
X130708322Y-107742696D01*
X130743701Y-107676508D01*
X130765487Y-107604689D01*
X130772843Y-107530000D01*
X130772843Y-105830000D01*
X130765487Y-105755311D01*
X130743701Y-105683492D01*
X130708322Y-105617304D01*
X130660711Y-105559289D01*
X130602696Y-105511678D01*
X130536508Y-105476299D01*
X130464689Y-105454513D01*
X130390000Y-105447157D01*
X128690000Y-105447157D01*
X128615311Y-105454513D01*
X128543492Y-105476299D01*
X128477304Y-105511678D01*
X128419289Y-105559289D01*
X128371678Y-105617304D01*
X128336299Y-105683492D01*
X128314513Y-105755311D01*
X128307157Y-105830000D01*
X128307157Y-105987645D01*
X128271641Y-105913080D01*
X128097588Y-105679731D01*
X127881355Y-105484822D01*
X127631252Y-105335843D01*
X127356891Y-105238519D01*
X127127000Y-105359186D01*
X127127000Y-106553000D01*
X127147000Y-106553000D01*
X127147000Y-106807000D01*
X127127000Y-106807000D01*
X127127000Y-106827000D01*
X126873000Y-106827000D01*
X126873000Y-106807000D01*
X126853000Y-106807000D01*
X126853000Y-106553000D01*
X126873000Y-106553000D01*
X126873000Y-105359186D01*
X126643109Y-105238519D01*
X126368748Y-105335843D01*
X126118645Y-105484822D01*
X125902412Y-105679731D01*
X125728359Y-105913080D01*
X125628000Y-106123781D01*
X125628000Y-105054000D01*
X156312000Y-105054000D01*
X156312000Y-105465104D01*
G37*
X156312000Y-105465104D02*
X156241185Y-105378815D01*
X156144494Y-105299463D01*
X156034180Y-105240498D01*
X155914482Y-105204188D01*
X155790000Y-105191928D01*
X155225750Y-105195000D01*
X155067000Y-105353750D01*
X155067000Y-106553000D01*
X155087000Y-106553000D01*
X155087000Y-106807000D01*
X155067000Y-106807000D01*
X155067000Y-106827000D01*
X154813000Y-106827000D01*
X154813000Y-106807000D01*
X154793000Y-106807000D01*
X154793000Y-106553000D01*
X154813000Y-106553000D01*
X154813000Y-105353750D01*
X154654250Y-105195000D01*
X154090000Y-105191928D01*
X153965518Y-105204188D01*
X153845820Y-105240498D01*
X153735506Y-105299463D01*
X153638815Y-105378815D01*
X153559463Y-105475506D01*
X153500498Y-105585820D01*
X153464188Y-105705518D01*
X153451928Y-105830000D01*
X153453073Y-106040294D01*
X153356180Y-105895283D01*
X153184717Y-105723820D01*
X152983097Y-105589102D01*
X152759069Y-105496307D01*
X152521243Y-105449000D01*
X152278757Y-105449000D01*
X152040931Y-105496307D01*
X151816903Y-105589102D01*
X151615283Y-105723820D01*
X151443820Y-105895283D01*
X151309102Y-106096903D01*
X151216307Y-106320931D01*
X151169000Y-106558757D01*
X151169000Y-106801243D01*
X151216307Y-107039069D01*
X151248242Y-107116167D01*
X148849630Y-109514779D01*
X148802242Y-109572522D01*
X148755255Y-109660426D01*
X148726322Y-109755808D01*
X148716553Y-109855000D01*
X148726322Y-109954192D01*
X148755255Y-110049574D01*
X148802242Y-110137478D01*
X148814159Y-110151999D01*
X148446855Y-110151999D01*
X148422001Y-110149551D01*
X148397147Y-110151999D01*
X148322808Y-110159321D01*
X148227426Y-110188254D01*
X148139522Y-110235240D01*
X148062474Y-110298472D01*
X148046630Y-110317778D01*
X145091786Y-113272623D01*
X145072474Y-113288472D01*
X145049497Y-113316469D01*
X145022987Y-113183193D01*
X144964113Y-113041060D01*
X144878642Y-112913143D01*
X144769859Y-112804360D01*
X144641942Y-112718889D01*
X144499809Y-112660015D01*
X144348922Y-112630002D01*
X144205362Y-112630002D01*
X144154480Y-112588244D01*
X144066576Y-112541258D01*
X143971194Y-112512325D01*
X143896855Y-112505003D01*
X143896847Y-112505003D01*
X143872001Y-112502556D01*
X143847155Y-112505003D01*
X135400679Y-112505003D01*
X135375825Y-112502555D01*
X135350971Y-112505003D01*
X135276632Y-112512325D01*
X135181250Y-112541258D01*
X135093346Y-112588244D01*
X135016298Y-112651476D01*
X135000453Y-112670783D01*
X134848994Y-112822242D01*
X134857061Y-112810169D01*
X134915935Y-112668036D01*
X134945948Y-112517149D01*
X134945948Y-112363305D01*
X134915935Y-112212418D01*
X134857061Y-112070285D01*
X134771590Y-111942368D01*
X134670948Y-111841726D01*
X134670948Y-111481485D01*
X134682122Y-111479262D01*
X134824255Y-111420388D01*
X134952172Y-111334917D01*
X135060955Y-111226134D01*
X135146426Y-111098217D01*
X135205300Y-110956084D01*
X135235313Y-110805197D01*
X135235313Y-110651353D01*
X135205300Y-110500466D01*
X135146426Y-110358333D01*
X135060955Y-110230416D01*
X134952172Y-110121633D01*
X134824255Y-110036162D01*
X134682122Y-109977288D01*
X134531235Y-109947275D01*
X134387675Y-109947275D01*
X134336793Y-109905517D01*
X134248889Y-109858531D01*
X134153507Y-109829598D01*
X134079168Y-109822276D01*
X134079160Y-109822276D01*
X134054314Y-109819829D01*
X134029468Y-109822276D01*
X130996569Y-109822276D01*
X130971723Y-109819829D01*
X130946877Y-109822276D01*
X130946870Y-109822276D01*
X130882418Y-109828624D01*
X130872530Y-109829598D01*
X130850331Y-109836332D01*
X130777149Y-109858531D01*
X130689245Y-109905517D01*
X130612197Y-109968749D01*
X130596352Y-109988056D01*
X129976167Y-110608242D01*
X129899069Y-110576307D01*
X129661243Y-110529000D01*
X129418757Y-110529000D01*
X129180931Y-110576307D01*
X128956903Y-110669102D01*
X128755283Y-110803820D01*
X128583820Y-110975283D01*
X128449102Y-111176903D01*
X128356307Y-111400931D01*
X128309000Y-111638757D01*
X128309000Y-111691999D01*
X128231000Y-111691999D01*
X128231000Y-111638757D01*
X128183693Y-111400931D01*
X128090898Y-111176903D01*
X127956180Y-110975283D01*
X127784717Y-110803820D01*
X127583097Y-110669102D01*
X127359069Y-110576307D01*
X127121243Y-110529000D01*
X126878757Y-110529000D01*
X126640931Y-110576307D01*
X126416903Y-110669102D01*
X126215283Y-110803820D01*
X126043820Y-110975283D01*
X125909102Y-111176903D01*
X125816307Y-111400931D01*
X125769000Y-111638757D01*
X125769000Y-111881243D01*
X125816307Y-112119069D01*
X125909102Y-112343097D01*
X126043820Y-112544717D01*
X126215283Y-112716180D01*
X126416903Y-112850898D01*
X126640931Y-112943693D01*
X126878757Y-112991000D01*
X127121243Y-112991000D01*
X127359069Y-112943693D01*
X127583097Y-112850898D01*
X127607138Y-112834834D01*
X127610496Y-112842941D01*
X127695967Y-112970858D01*
X127804750Y-113079641D01*
X127932667Y-113165112D01*
X128074800Y-113223986D01*
X128225687Y-113253999D01*
X128369247Y-113253999D01*
X128420129Y-113295757D01*
X128508033Y-113342743D01*
X128603415Y-113371676D01*
X128677754Y-113378998D01*
X128677761Y-113378998D01*
X128702607Y-113381445D01*
X128719302Y-113379801D01*
X128583820Y-113515283D01*
X128449102Y-113716903D01*
X128356307Y-113940931D01*
X128309000Y-114178757D01*
X128309000Y-114421243D01*
X128356307Y-114659069D01*
X128449102Y-114883097D01*
X128583820Y-115084717D01*
X128755283Y-115256180D01*
X128956903Y-115390898D01*
X129180931Y-115483693D01*
X129418757Y-115531000D01*
X129661243Y-115531000D01*
X129899069Y-115483693D01*
X130123097Y-115390898D01*
X130324717Y-115256180D01*
X130496180Y-115084717D01*
X130630898Y-114883097D01*
X130723693Y-114659069D01*
X130770253Y-114425000D01*
X133779408Y-114425000D01*
X129976167Y-118228242D01*
X129899069Y-118196307D01*
X129661243Y-118149000D01*
X129418757Y-118149000D01*
X129180931Y-118196307D01*
X128956903Y-118289102D01*
X128943999Y-118297724D01*
X128943999Y-118151592D01*
X129103833Y-117991758D01*
X129180931Y-118023693D01*
X129418757Y-118071000D01*
X129661243Y-118071000D01*
X129899069Y-118023693D01*
X130123097Y-117930898D01*
X130324717Y-117796180D01*
X130496180Y-117624717D01*
X130630898Y-117423097D01*
X130723693Y-117199069D01*
X130771000Y-116961243D01*
X130771000Y-116718757D01*
X130723693Y-116480931D01*
X130630898Y-116256903D01*
X130496180Y-116055283D01*
X130324717Y-115883820D01*
X130123097Y-115749102D01*
X129899069Y-115656307D01*
X129661243Y-115609000D01*
X129418757Y-115609000D01*
X129180931Y-115656307D01*
X128956903Y-115749102D01*
X128755283Y-115883820D01*
X128583820Y-116055283D01*
X128449102Y-116256903D01*
X128356307Y-116480931D01*
X128309000Y-116718757D01*
X128309000Y-116961243D01*
X128356307Y-117199069D01*
X128388242Y-117276167D01*
X128097784Y-117566625D01*
X128078472Y-117582474D01*
X128015240Y-117659522D01*
X127968254Y-117747427D01*
X127939321Y-117842809D01*
X127931999Y-117917148D01*
X127931999Y-117917155D01*
X127929552Y-117942001D01*
X127931999Y-117966847D01*
X127931999Y-118571102D01*
X127784717Y-118423820D01*
X127583097Y-118289102D01*
X127359069Y-118196307D01*
X127121243Y-118149000D01*
X126878757Y-118149000D01*
X126640931Y-118196307D01*
X126416903Y-118289102D01*
X126215283Y-118423820D01*
X126043820Y-118595283D01*
X125909102Y-118796903D01*
X125816307Y-119020931D01*
X125769000Y-119258757D01*
X125769000Y-119501243D01*
X125816307Y-119739069D01*
X125909102Y-119963097D01*
X126043820Y-120164717D01*
X126215283Y-120336180D01*
X126416903Y-120470898D01*
X126640931Y-120563693D01*
X126878757Y-120611000D01*
X127121243Y-120611000D01*
X127359069Y-120563693D01*
X127583097Y-120470898D01*
X127784717Y-120336180D01*
X127956180Y-120164717D01*
X127981057Y-120127486D01*
X127984705Y-120134312D01*
X128015241Y-120191440D01*
X128078473Y-120268488D01*
X128097779Y-120284332D01*
X128635667Y-120822221D01*
X128651512Y-120841528D01*
X128728560Y-120904760D01*
X128792513Y-120938944D01*
X128755283Y-120963820D01*
X128583820Y-121135283D01*
X128449102Y-121336903D01*
X128356307Y-121560931D01*
X128309000Y-121798757D01*
X128309000Y-122041243D01*
X128356307Y-122279069D01*
X128449102Y-122503097D01*
X128583820Y-122704717D01*
X128755283Y-122876180D01*
X128956903Y-123010898D01*
X129180931Y-123103693D01*
X129418757Y-123151000D01*
X129661243Y-123151000D01*
X129899069Y-123103693D01*
X130123097Y-123010898D01*
X130324717Y-122876180D01*
X130496180Y-122704717D01*
X130630898Y-122503097D01*
X130662832Y-122426000D01*
X132673144Y-122426000D01*
X132697990Y-122428447D01*
X132722836Y-122426000D01*
X132722844Y-122426000D01*
X132797183Y-122418678D01*
X132892565Y-122389745D01*
X132980469Y-122342759D01*
X133057517Y-122279527D01*
X133073366Y-122260215D01*
X133919592Y-121413990D01*
X134061922Y-121413990D01*
X134212809Y-121383977D01*
X134354942Y-121325103D01*
X134482859Y-121239632D01*
X134591642Y-121130849D01*
X134677113Y-121002932D01*
X134735987Y-120860799D01*
X134766000Y-120709912D01*
X134766000Y-120556068D01*
X134735987Y-120405181D01*
X134677113Y-120263048D01*
X134591642Y-120135131D01*
X134482859Y-120026348D01*
X134354942Y-119940877D01*
X134212809Y-119882003D01*
X134061922Y-119851990D01*
X133908078Y-119851990D01*
X133757191Y-119882003D01*
X133615058Y-119940877D01*
X133487141Y-120026348D01*
X133378358Y-120135131D01*
X133292887Y-120263048D01*
X133234013Y-120405181D01*
X133204000Y-120556068D01*
X133204000Y-120698398D01*
X132488399Y-121414000D01*
X130662832Y-121414000D01*
X130630898Y-121336903D01*
X130496180Y-121135283D01*
X130324717Y-120963820D01*
X130287487Y-120938944D01*
X130351440Y-120904760D01*
X130428488Y-120841528D01*
X130444337Y-120822216D01*
X132650554Y-118616000D01*
X135691575Y-118616000D01*
X135646141Y-118646358D01*
X135537358Y-118755141D01*
X135451887Y-118883058D01*
X135393013Y-119025191D01*
X135363000Y-119176078D01*
X135363000Y-119329922D01*
X135393013Y-119480809D01*
X135451887Y-119622942D01*
X135537358Y-119750859D01*
X135646141Y-119859642D01*
X135774058Y-119945113D01*
X135916191Y-120003987D01*
X136067078Y-120034000D01*
X136209409Y-120034000D01*
X137162000Y-120986592D01*
X137162001Y-122210498D01*
X137061358Y-122311141D01*
X136975887Y-122439058D01*
X136917013Y-122581191D01*
X136887000Y-122732078D01*
X136887000Y-122885922D01*
X136917013Y-123036809D01*
X136944845Y-123104001D01*
X130414844Y-123104001D01*
X130389998Y-123101554D01*
X130365152Y-123104001D01*
X130365145Y-123104001D01*
X130300693Y-123110349D01*
X130290805Y-123111323D01*
X130278097Y-123115178D01*
X130195424Y-123140256D01*
X130107520Y-123187242D01*
X130030472Y-123250474D01*
X130014627Y-123269781D01*
X129976166Y-123308242D01*
X129899069Y-123276307D01*
X129661243Y-123229000D01*
X129418757Y-123229000D01*
X129180931Y-123276307D01*
X128956903Y-123369102D01*
X128755283Y-123503820D01*
X128583820Y-123675283D01*
X128449102Y-123876903D01*
X128356307Y-124100931D01*
X128309000Y-124338757D01*
X128309000Y-124581243D01*
X128356307Y-124819069D01*
X128449102Y-125043097D01*
X128583820Y-125244717D01*
X128755283Y-125416180D01*
X128956903Y-125550898D01*
X129180931Y-125643693D01*
X129418757Y-125691000D01*
X129661243Y-125691000D01*
X129899069Y-125643693D01*
X130123097Y-125550898D01*
X130324717Y-125416180D01*
X130496180Y-125244717D01*
X130630898Y-125043097D01*
X130723693Y-124819069D01*
X130771000Y-124581243D01*
X130771000Y-124338757D01*
X130726691Y-124116001D01*
X139529410Y-124116001D01*
X141817472Y-126404063D01*
X141743058Y-126434887D01*
X141615141Y-126520358D01*
X141506358Y-126629141D01*
X141420887Y-126757058D01*
X141362013Y-126899191D01*
X141332000Y-127050078D01*
X141332000Y-127203922D01*
X141362013Y-127354809D01*
X141420887Y-127496942D01*
X141506358Y-127624859D01*
X141607001Y-127725502D01*
X141607000Y-130658093D01*
X139804832Y-132460261D01*
X139757113Y-132345058D01*
X139671642Y-132217141D01*
X139562859Y-132108358D01*
X139434942Y-132022887D01*
X139292809Y-131964013D01*
X139141922Y-131934000D01*
X138988078Y-131934000D01*
X138837191Y-131964013D01*
X138695058Y-132022887D01*
X138567141Y-132108358D01*
X138466499Y-132209000D01*
X136422845Y-132209000D01*
X136397999Y-132206553D01*
X136373153Y-132209000D01*
X136373146Y-132209000D01*
X136308694Y-132215348D01*
X136298806Y-132216322D01*
X136235656Y-132235478D01*
X136203425Y-132245255D01*
X136115521Y-132292241D01*
X136038473Y-132355473D01*
X136022628Y-132374780D01*
X135193409Y-133204000D01*
X135051078Y-133204000D01*
X134900191Y-133234013D01*
X134758058Y-133292887D01*
X134630141Y-133378358D01*
X134521358Y-133487141D01*
X134435887Y-133615058D01*
X134377013Y-133757191D01*
X134347000Y-133908078D01*
X134347000Y-134061922D01*
X134377013Y-134212809D01*
X134435887Y-134354942D01*
X134521358Y-134482859D01*
X134630141Y-134591642D01*
X134758058Y-134677113D01*
X134900191Y-134735987D01*
X135051078Y-134766000D01*
X135204922Y-134766000D01*
X135355809Y-134735987D01*
X135497942Y-134677113D01*
X135625859Y-134591642D01*
X135734642Y-134482859D01*
X135820113Y-134354942D01*
X135878987Y-134212809D01*
X135909000Y-134061922D01*
X135909000Y-133919591D01*
X136607592Y-133221000D01*
X138089499Y-133221000D01*
X138077358Y-133233141D01*
X137991887Y-133361058D01*
X137933013Y-133503191D01*
X137903000Y-133654078D01*
X137903000Y-133807922D01*
X137927589Y-133931541D01*
X137805141Y-134013358D01*
X137696358Y-134122141D01*
X137610887Y-134250058D01*
X137552013Y-134392191D01*
X137522000Y-134543078D01*
X137522000Y-134696922D01*
X137552013Y-134847809D01*
X137610887Y-134989942D01*
X137696358Y-135117859D01*
X137805141Y-135226642D01*
X137933058Y-135312113D01*
X138075191Y-135370987D01*
X138140612Y-135384000D01*
X135025855Y-135384000D01*
X135001009Y-135381553D01*
X134976163Y-135384000D01*
X134976156Y-135384000D01*
X134911704Y-135390348D01*
X134901816Y-135391322D01*
X134879617Y-135398056D01*
X134806435Y-135420255D01*
X134718531Y-135467241D01*
X134641483Y-135530473D01*
X134625638Y-135549780D01*
X134558418Y-135617000D01*
X134416088Y-135617000D01*
X134265201Y-135647013D01*
X134123068Y-135705887D01*
X133995151Y-135791358D01*
X133886368Y-135900141D01*
X133800897Y-136028058D01*
X133742023Y-136170191D01*
X133712010Y-136321078D01*
X133712010Y-136474922D01*
X133742023Y-136625809D01*
X133800897Y-136767942D01*
X133886368Y-136895859D01*
X133995151Y-137004642D01*
X134123068Y-137090113D01*
X134265201Y-137148987D01*
X134416088Y-137179000D01*
X134569932Y-137179000D01*
X134720819Y-137148987D01*
X134862952Y-137090113D01*
X134990869Y-137004642D01*
X135099652Y-136895859D01*
X135185123Y-136767942D01*
X135243997Y-136625809D01*
X135274010Y-136474922D01*
X135274010Y-136396000D01*
X138212499Y-136396000D01*
X138313141Y-136496642D01*
X138383471Y-136543635D01*
X138381424Y-136544256D01*
X138293520Y-136591242D01*
X138216472Y-136654474D01*
X138200627Y-136673781D01*
X137733409Y-137141000D01*
X137591078Y-137141000D01*
X137440191Y-137171013D01*
X137298058Y-137229887D01*
X137170141Y-137315358D01*
X137061358Y-137424141D01*
X136975887Y-137552058D01*
X136917013Y-137694191D01*
X136887000Y-137845078D01*
X136887000Y-137998922D01*
X136917013Y-138149809D01*
X136975887Y-138291942D01*
X137061358Y-138419859D01*
X137170141Y-138528642D01*
X137298058Y-138614113D01*
X137440191Y-138672987D01*
X137591078Y-138703000D01*
X137744922Y-138703000D01*
X137895809Y-138672987D01*
X138037942Y-138614113D01*
X138048470Y-138607078D01*
X139591028Y-138607078D01*
X139591028Y-138760922D01*
X139621041Y-138911809D01*
X139679915Y-139053942D01*
X139765386Y-139181859D01*
X139866029Y-139282502D01*
X139866028Y-140093181D01*
X139863581Y-140118028D01*
X139866028Y-140142874D01*
X139866028Y-140142881D01*
X139873350Y-140217220D01*
X139902283Y-140312602D01*
X139949269Y-140400507D01*
X140012501Y-140477555D01*
X140031813Y-140493404D01*
X141078000Y-141539592D01*
X141078000Y-141681922D01*
X141108013Y-141832809D01*
X141166887Y-141974942D01*
X141252358Y-142102859D01*
X141361141Y-142211642D01*
X141489058Y-142297113D01*
X141631191Y-142355987D01*
X141782078Y-142386000D01*
X141935922Y-142386000D01*
X142086809Y-142355987D01*
X142228942Y-142297113D01*
X142356859Y-142211642D01*
X142465642Y-142102859D01*
X142551113Y-141974942D01*
X142609987Y-141832809D01*
X142640000Y-141681922D01*
X142640000Y-141602465D01*
X143154000Y-141602465D01*
X143154000Y-141741535D01*
X143181131Y-141877933D01*
X143234351Y-142006416D01*
X143311614Y-142122049D01*
X143409951Y-142220386D01*
X143525584Y-142297649D01*
X143654067Y-142350869D01*
X143790465Y-142378000D01*
X143929535Y-142378000D01*
X144065933Y-142350869D01*
X144194416Y-142297649D01*
X144286693Y-142235992D01*
X144289997Y-142243678D01*
X144416839Y-142428169D01*
X144577236Y-142584369D01*
X144765024Y-142706276D01*
X144988126Y-142786119D01*
X145163000Y-142659954D01*
X145163000Y-141269000D01*
X145417000Y-141269000D01*
X145417000Y-142659954D01*
X145591874Y-142786119D01*
X145814976Y-142706276D01*
X146002764Y-142584369D01*
X146163161Y-142428169D01*
X146290003Y-142243678D01*
X146378415Y-142037987D01*
X146425000Y-141819000D01*
X146425000Y-141269000D01*
X145417000Y-141269000D01*
X145163000Y-141269000D01*
X145143000Y-141269000D01*
X145143000Y-141015000D01*
X145163000Y-141015000D01*
X145163000Y-139624046D01*
X145417000Y-139624046D01*
X145417000Y-141015000D01*
X146425000Y-141015000D01*
X146425000Y-140465000D01*
X146378415Y-140246013D01*
X146290003Y-140040322D01*
X146163161Y-139855831D01*
X146002764Y-139699631D01*
X145814976Y-139577724D01*
X145591874Y-139497881D01*
X145417000Y-139624046D01*
X145163000Y-139624046D01*
X144988126Y-139497881D01*
X144765024Y-139577724D01*
X144577236Y-139699631D01*
X144416839Y-139855831D01*
X144289997Y-140040322D01*
X144201585Y-140246013D01*
X144155000Y-140465000D01*
X144155000Y-141030024D01*
X144065933Y-140993131D01*
X143929535Y-140966000D01*
X143790465Y-140966000D01*
X143654067Y-140993131D01*
X143525584Y-141046351D01*
X143409951Y-141123614D01*
X143311614Y-141221951D01*
X143234351Y-141337584D01*
X143181131Y-141466067D01*
X143154000Y-141602465D01*
X142640000Y-141602465D01*
X142640000Y-141528078D01*
X142609987Y-141377191D01*
X142551113Y-141235058D01*
X142465642Y-141107141D01*
X142356859Y-140998358D01*
X142228942Y-140912887D01*
X142086809Y-140854013D01*
X141935922Y-140824000D01*
X141793592Y-140824000D01*
X140878028Y-139908437D01*
X140878028Y-139282501D01*
X140978670Y-139181859D01*
X141064141Y-139053942D01*
X141123015Y-138911809D01*
X141144811Y-138802231D01*
X143559153Y-138802231D01*
X143559153Y-138956075D01*
X143589166Y-139106962D01*
X143648040Y-139249095D01*
X143733511Y-139377012D01*
X143842294Y-139485795D01*
X143970211Y-139571266D01*
X144112344Y-139630140D01*
X144263231Y-139660153D01*
X144417075Y-139660153D01*
X144567962Y-139630140D01*
X144710095Y-139571266D01*
X144838012Y-139485795D01*
X144946795Y-139377012D01*
X145032266Y-139249095D01*
X145091140Y-139106962D01*
X145121153Y-138956075D01*
X145121153Y-138802231D01*
X145091140Y-138651344D01*
X145032266Y-138509211D01*
X144946795Y-138381294D01*
X144846153Y-138280652D01*
X144846153Y-135313871D01*
X144944953Y-135129490D01*
X145007809Y-135116987D01*
X145149942Y-135058113D01*
X145277859Y-134972642D01*
X145378501Y-134872000D01*
X147737499Y-134872000D01*
X147838141Y-134972642D01*
X147966058Y-135058113D01*
X148108191Y-135116987D01*
X148259078Y-135147000D01*
X148412922Y-135147000D01*
X148563809Y-135116987D01*
X148705942Y-135058113D01*
X148833859Y-134972642D01*
X148934501Y-134872000D01*
X150343154Y-134872000D01*
X150368000Y-134874447D01*
X150392846Y-134872000D01*
X150392854Y-134872000D01*
X150467193Y-134864678D01*
X150562575Y-134835745D01*
X150650479Y-134788759D01*
X150727527Y-134725527D01*
X150743376Y-134706215D01*
X153223592Y-132226000D01*
X153365922Y-132226000D01*
X153516809Y-132195987D01*
X153658942Y-132137113D01*
X153786859Y-132051642D01*
X153895642Y-131942859D01*
X153981113Y-131814942D01*
X154039987Y-131672809D01*
X154070000Y-131521922D01*
X154070000Y-131368078D01*
X154039987Y-131217191D01*
X153981113Y-131075058D01*
X153895642Y-130947141D01*
X153786859Y-130838358D01*
X153658942Y-130752887D01*
X153516809Y-130694013D01*
X153365922Y-130664000D01*
X153212078Y-130664000D01*
X153061191Y-130694013D01*
X152919058Y-130752887D01*
X152791141Y-130838358D01*
X152682358Y-130947141D01*
X152596887Y-131075058D01*
X152538013Y-131217191D01*
X152508000Y-131368078D01*
X152508000Y-131510408D01*
X150158409Y-133860000D01*
X148934501Y-133860000D01*
X148833859Y-133759358D01*
X148705942Y-133673887D01*
X148563809Y-133615013D01*
X148412922Y-133585000D01*
X148259078Y-133585000D01*
X148108191Y-133615013D01*
X147966058Y-133673887D01*
X147838141Y-133759358D01*
X147737499Y-133860000D01*
X145378501Y-133860000D01*
X145277859Y-133759358D01*
X145149942Y-133673887D01*
X145007809Y-133615013D01*
X144856922Y-133585000D01*
X144703078Y-133585000D01*
X144552191Y-133615013D01*
X144410058Y-133673887D01*
X144282141Y-133759358D01*
X144173358Y-133868141D01*
X144087887Y-133996058D01*
X144029013Y-134138191D01*
X143999000Y-134289078D01*
X143999000Y-134442922D01*
X144029013Y-134593809D01*
X144052927Y-134651543D01*
X143917563Y-134904162D01*
X143917394Y-134904368D01*
X143893932Y-134948262D01*
X143882410Y-134969765D01*
X143882310Y-134970006D01*
X143870408Y-134992273D01*
X143863232Y-135015931D01*
X143853753Y-135038748D01*
X143848803Y-135063496D01*
X143841475Y-135087655D01*
X143839053Y-135112248D01*
X143834205Y-135136486D01*
X143834179Y-135161731D01*
X143834153Y-135161994D01*
X143834153Y-135186800D01*
X143834102Y-135236159D01*
X143834153Y-135236417D01*
X143834154Y-138280651D01*
X143733511Y-138381294D01*
X143648040Y-138509211D01*
X143589166Y-138651344D01*
X143559153Y-138802231D01*
X141144811Y-138802231D01*
X141153028Y-138760922D01*
X141153028Y-138607078D01*
X141123015Y-138456191D01*
X141064141Y-138314058D01*
X140978670Y-138186141D01*
X140869887Y-138077358D01*
X140741970Y-137991887D01*
X140599837Y-137933013D01*
X140448950Y-137903000D01*
X140295106Y-137903000D01*
X140144219Y-137933013D01*
X140002086Y-137991887D01*
X139874169Y-138077358D01*
X139765386Y-138186141D01*
X139679915Y-138314058D01*
X139621041Y-138456191D01*
X139591028Y-138607078D01*
X138048470Y-138607078D01*
X138165859Y-138528642D01*
X138274642Y-138419859D01*
X138360113Y-138291942D01*
X138418987Y-138149809D01*
X138449000Y-137998922D01*
X138449000Y-137856591D01*
X138785591Y-137520001D01*
X141972784Y-137520001D01*
X141997013Y-137641809D01*
X142055887Y-137783942D01*
X142141358Y-137911859D01*
X142250141Y-138020642D01*
X142378058Y-138106113D01*
X142520191Y-138164987D01*
X142671078Y-138195000D01*
X142824922Y-138195000D01*
X142975809Y-138164987D01*
X143117942Y-138106113D01*
X143245859Y-138020642D01*
X143354642Y-137911859D01*
X143440113Y-137783942D01*
X143498987Y-137641809D01*
X143529000Y-137490922D01*
X143529000Y-137337078D01*
X143498987Y-137186191D01*
X143440113Y-137044058D01*
X143354642Y-136916141D01*
X143245859Y-136807358D01*
X143117942Y-136721887D01*
X142975809Y-136663013D01*
X142824922Y-136633000D01*
X142681362Y-136633000D01*
X142630480Y-136591242D01*
X142542576Y-136544256D01*
X142447194Y-136515323D01*
X142372855Y-136508001D01*
X142372847Y-136508001D01*
X142348001Y-136505554D01*
X142323155Y-136508001D01*
X139291859Y-136508001D01*
X139308859Y-136496642D01*
X139417642Y-136387859D01*
X139503113Y-136259942D01*
X139561987Y-136117809D01*
X139592000Y-135966922D01*
X139592000Y-135813078D01*
X139561987Y-135662191D01*
X139503113Y-135520058D01*
X139417642Y-135392141D01*
X139308859Y-135283358D01*
X139180942Y-135197887D01*
X139038809Y-135139013D01*
X138955280Y-135122398D01*
X138993050Y-135118678D01*
X139088432Y-135089745D01*
X139176336Y-135042759D01*
X139253384Y-134979527D01*
X139269233Y-134960215D01*
X141118448Y-133111001D01*
X148370115Y-133111001D01*
X148394961Y-133113448D01*
X148419807Y-133111001D01*
X148419815Y-133111001D01*
X148494154Y-133103679D01*
X148589536Y-133074746D01*
X148677440Y-133027760D01*
X148754488Y-132964528D01*
X148770337Y-132945216D01*
X149074216Y-132641337D01*
X149093528Y-132625488D01*
X149156760Y-132548440D01*
X149203746Y-132460536D01*
X149232679Y-132365154D01*
X149240001Y-132290815D01*
X149240001Y-132290807D01*
X149242448Y-132265961D01*
X149240001Y-132241115D01*
X149240001Y-131664893D01*
X149242449Y-131640039D01*
X149232679Y-131540846D01*
X149203746Y-131445464D01*
X149172970Y-131387887D01*
X149156760Y-131357560D01*
X149093528Y-131280512D01*
X149074221Y-131264667D01*
X147699000Y-129889447D01*
X147699000Y-129357425D01*
X147729358Y-129402859D01*
X147838141Y-129511642D01*
X147966058Y-129597113D01*
X148108191Y-129655987D01*
X148259078Y-129686000D01*
X148412922Y-129686000D01*
X148563809Y-129655987D01*
X148705942Y-129597113D01*
X148833859Y-129511642D01*
X148942642Y-129402859D01*
X149028113Y-129274942D01*
X149086987Y-129132809D01*
X149117000Y-128981922D01*
X149117000Y-128870999D01*
X151366501Y-128870999D01*
X151309102Y-128956903D01*
X151216307Y-129180931D01*
X151169000Y-129418757D01*
X151169000Y-129661243D01*
X151216307Y-129899069D01*
X151309102Y-130123097D01*
X151443820Y-130324717D01*
X151615283Y-130496180D01*
X151816903Y-130630898D01*
X152040931Y-130723693D01*
X152278757Y-130771000D01*
X152521243Y-130771000D01*
X152759069Y-130723693D01*
X152983097Y-130630898D01*
X153184717Y-130496180D01*
X153356180Y-130324717D01*
X153490898Y-130123097D01*
X153583693Y-129899069D01*
X153631000Y-129661243D01*
X153631000Y-129418757D01*
X153583693Y-129180931D01*
X153490898Y-128956903D01*
X153433499Y-128870999D01*
X153555408Y-128870999D01*
X153788242Y-129103833D01*
X153756307Y-129180931D01*
X153709000Y-129418757D01*
X153709000Y-129661243D01*
X153756307Y-129899069D01*
X153849102Y-130123097D01*
X153983820Y-130324717D01*
X154155283Y-130496180D01*
X154356903Y-130630898D01*
X154580931Y-130723693D01*
X154818757Y-130771000D01*
X155061243Y-130771000D01*
X155299069Y-130723693D01*
X155523097Y-130630898D01*
X155724717Y-130496180D01*
X155896180Y-130324717D01*
X156030898Y-130123097D01*
X156123693Y-129899069D01*
X156171000Y-129661243D01*
X156171000Y-129418757D01*
X156123693Y-129180931D01*
X156030898Y-128956903D01*
X155896180Y-128755283D01*
X155724717Y-128583820D01*
X155523097Y-128449102D01*
X155299069Y-128356307D01*
X155061243Y-128309000D01*
X154818757Y-128309000D01*
X154580931Y-128356307D01*
X154503833Y-128388242D01*
X154140375Y-128024784D01*
X154124526Y-128005472D01*
X154047478Y-127942240D01*
X153959574Y-127895254D01*
X153864192Y-127866321D01*
X153789853Y-127858999D01*
X153789845Y-127858999D01*
X153764999Y-127856552D01*
X153740153Y-127858999D01*
X153281898Y-127858999D01*
X153356180Y-127784717D01*
X153490898Y-127583097D01*
X153583693Y-127359069D01*
X153631000Y-127121243D01*
X153631000Y-126878757D01*
X153583693Y-126640931D01*
X153490898Y-126416903D01*
X153433499Y-126330999D01*
X153555408Y-126330999D01*
X153788242Y-126563833D01*
X153756307Y-126640931D01*
X153709000Y-126878757D01*
X153709000Y-127121243D01*
X153756307Y-127359069D01*
X153849102Y-127583097D01*
X153983820Y-127784717D01*
X154155283Y-127956180D01*
X154356903Y-128090898D01*
X154580931Y-128183693D01*
X154818757Y-128231000D01*
X155061243Y-128231000D01*
X155299069Y-128183693D01*
X155523097Y-128090898D01*
X155724717Y-127956180D01*
X155896180Y-127784717D01*
X156030898Y-127583097D01*
X156123693Y-127359069D01*
X156171000Y-127121243D01*
X156171000Y-126878757D01*
X156123693Y-126640931D01*
X156030898Y-126416903D01*
X155896180Y-126215283D01*
X155724717Y-126043820D01*
X155523097Y-125909102D01*
X155299069Y-125816307D01*
X155061243Y-125769000D01*
X154818757Y-125769000D01*
X154580931Y-125816307D01*
X154503833Y-125848242D01*
X154140375Y-125484784D01*
X154124526Y-125465472D01*
X154047478Y-125402240D01*
X153959574Y-125355254D01*
X153864192Y-125326321D01*
X153789853Y-125318999D01*
X153789845Y-125318999D01*
X153764999Y-125316552D01*
X153740153Y-125318999D01*
X153281898Y-125318999D01*
X153356180Y-125244717D01*
X153490898Y-125043097D01*
X153583693Y-124819069D01*
X153631000Y-124581243D01*
X153631000Y-124338757D01*
X153583693Y-124100931D01*
X153490898Y-123876903D01*
X153356180Y-123675283D01*
X153281898Y-123601001D01*
X153365410Y-123601001D01*
X153788242Y-124023833D01*
X153756307Y-124100931D01*
X153709000Y-124338757D01*
X153709000Y-124581243D01*
X153756307Y-124819069D01*
X153849102Y-125043097D01*
X153983820Y-125244717D01*
X154155283Y-125416180D01*
X154356903Y-125550898D01*
X154580931Y-125643693D01*
X154818757Y-125691000D01*
X155061243Y-125691000D01*
X155299069Y-125643693D01*
X155523097Y-125550898D01*
X155724717Y-125416180D01*
X155896180Y-125244717D01*
X156030898Y-125043097D01*
X156123693Y-124819069D01*
X156171000Y-124581243D01*
X156171000Y-124338757D01*
X156123693Y-124100931D01*
X156030898Y-123876903D01*
X155896180Y-123675283D01*
X155724717Y-123503820D01*
X155523097Y-123369102D01*
X155299069Y-123276307D01*
X155061243Y-123229000D01*
X154818757Y-123229000D01*
X154580931Y-123276307D01*
X154503833Y-123308242D01*
X153950377Y-122754786D01*
X153934528Y-122735474D01*
X153857480Y-122672242D01*
X153769576Y-122625256D01*
X153709668Y-122607084D01*
X153796825Y-122424099D01*
X153805091Y-122396846D01*
X153849102Y-122503097D01*
X153983820Y-122704717D01*
X154155283Y-122876180D01*
X154356903Y-123010898D01*
X154580931Y-123103693D01*
X154818757Y-123151000D01*
X155061243Y-123151000D01*
X155299069Y-123103693D01*
X155523097Y-123010898D01*
X155724717Y-122876180D01*
X155896180Y-122704717D01*
X156030898Y-122503097D01*
X156123693Y-122279069D01*
X156171000Y-122041243D01*
X156171000Y-121798757D01*
X156123693Y-121560931D01*
X156030898Y-121336903D01*
X155896180Y-121135283D01*
X155724717Y-120963820D01*
X155523097Y-120829102D01*
X155299069Y-120736307D01*
X155061243Y-120689000D01*
X154818757Y-120689000D01*
X154580931Y-120736307D01*
X154356903Y-120829102D01*
X154155283Y-120963820D01*
X153983820Y-121135283D01*
X153849102Y-121336903D01*
X153805091Y-121443154D01*
X153796825Y-121415901D01*
X153671641Y-121153080D01*
X153497588Y-120919731D01*
X153281355Y-120724822D01*
X153031252Y-120575843D01*
X152868832Y-120518228D01*
X152983097Y-120470898D01*
X153184717Y-120336180D01*
X153356180Y-120164717D01*
X153490898Y-119963097D01*
X153583693Y-119739069D01*
X153631000Y-119501243D01*
X153631000Y-119258757D01*
X153709000Y-119258757D01*
X153709000Y-119501243D01*
X153756307Y-119739069D01*
X153849102Y-119963097D01*
X153983820Y-120164717D01*
X154155283Y-120336180D01*
X154356903Y-120470898D01*
X154580931Y-120563693D01*
X154818757Y-120611000D01*
X155061243Y-120611000D01*
X155299069Y-120563693D01*
X155523097Y-120470898D01*
X155724717Y-120336180D01*
X155896180Y-120164717D01*
X156030898Y-119963097D01*
X156123693Y-119739069D01*
X156171000Y-119501243D01*
X156171000Y-119258757D01*
X156123693Y-119020931D01*
X156030898Y-118796903D01*
X155896180Y-118595283D01*
X155724717Y-118423820D01*
X155523097Y-118289102D01*
X155299069Y-118196307D01*
X155061243Y-118149000D01*
X154818757Y-118149000D01*
X154580931Y-118196307D01*
X154356903Y-118289102D01*
X154155283Y-118423820D01*
X153983820Y-118595283D01*
X153849102Y-118796903D01*
X153756307Y-119020931D01*
X153709000Y-119258757D01*
X153631000Y-119258757D01*
X153583693Y-119020931D01*
X153490898Y-118796903D01*
X153474942Y-118773023D01*
X153488131Y-118773023D01*
X153512977Y-118775470D01*
X153537823Y-118773023D01*
X153537831Y-118773023D01*
X153612170Y-118765701D01*
X153707552Y-118736768D01*
X153795456Y-118689782D01*
X153872504Y-118626550D01*
X153888353Y-118607238D01*
X154503833Y-117991758D01*
X154580931Y-118023693D01*
X154818757Y-118071000D01*
X155061243Y-118071000D01*
X155299069Y-118023693D01*
X155523097Y-117930898D01*
X155724717Y-117796180D01*
X155896180Y-117624717D01*
X156030898Y-117423097D01*
X156123693Y-117199069D01*
X156171000Y-116961243D01*
X156171000Y-116718757D01*
X156123693Y-116480931D01*
X156030898Y-116256903D01*
X155896180Y-116055283D01*
X155724717Y-115883820D01*
X155523097Y-115749102D01*
X155299069Y-115656307D01*
X155061243Y-115609000D01*
X154818757Y-115609000D01*
X154580931Y-115656307D01*
X154356903Y-115749102D01*
X154155283Y-115883820D01*
X153983820Y-116055283D01*
X153849102Y-116256903D01*
X153756307Y-116480931D01*
X153709000Y-116718757D01*
X153709000Y-116961243D01*
X153756307Y-117199069D01*
X153788242Y-117276167D01*
X153303386Y-117761023D01*
X153219874Y-117761023D01*
X153356180Y-117624717D01*
X153490898Y-117423097D01*
X153583693Y-117199069D01*
X153631000Y-116961243D01*
X153631000Y-116718757D01*
X153583693Y-116480931D01*
X153490898Y-116256903D01*
X153356180Y-116055283D01*
X153208898Y-115908001D01*
X153813153Y-115908001D01*
X153837999Y-115910448D01*
X153862845Y-115908001D01*
X153862853Y-115908001D01*
X153937192Y-115900679D01*
X154032574Y-115871746D01*
X154120478Y-115824760D01*
X154197526Y-115761528D01*
X154213375Y-115742216D01*
X154503833Y-115451758D01*
X154580931Y-115483693D01*
X154818757Y-115531000D01*
X155061243Y-115531000D01*
X155299069Y-115483693D01*
X155523097Y-115390898D01*
X155724717Y-115256180D01*
X155896180Y-115084717D01*
X156030898Y-114883097D01*
X156123693Y-114659069D01*
X156171000Y-114421243D01*
X156171000Y-114178757D01*
X156123693Y-113940931D01*
X156030898Y-113716903D01*
X155896180Y-113515283D01*
X155724717Y-113343820D01*
X155523097Y-113209102D01*
X155299069Y-113116307D01*
X155061243Y-113069000D01*
X154818757Y-113069000D01*
X154580931Y-113116307D01*
X154356903Y-113209102D01*
X154155283Y-113343820D01*
X153983820Y-113515283D01*
X153849102Y-113716903D01*
X153756307Y-113940931D01*
X153709000Y-114178757D01*
X153709000Y-114421243D01*
X153756307Y-114659069D01*
X153788242Y-114736167D01*
X153628408Y-114896001D01*
X153482276Y-114896001D01*
X153490898Y-114883097D01*
X153583693Y-114659069D01*
X153631000Y-114421243D01*
X153631000Y-114178757D01*
X153583693Y-113940931D01*
X153490898Y-113716903D01*
X153356180Y-113515283D01*
X153208898Y-113368001D01*
X153813153Y-113368001D01*
X153837999Y-113370448D01*
X153862845Y-113368001D01*
X153862853Y-113368001D01*
X153937192Y-113360679D01*
X154032574Y-113331746D01*
X154120478Y-113284760D01*
X154197526Y-113221528D01*
X154213375Y-113202216D01*
X154503833Y-112911758D01*
X154580931Y-112943693D01*
X154818757Y-112991000D01*
X155061243Y-112991000D01*
X155299069Y-112943693D01*
X155523097Y-112850898D01*
X155724717Y-112716180D01*
X155896180Y-112544717D01*
X156030898Y-112343097D01*
X156123693Y-112119069D01*
X156171000Y-111881243D01*
X156171000Y-111638757D01*
X156123693Y-111400931D01*
X156030898Y-111176903D01*
X155896180Y-110975283D01*
X155724717Y-110803820D01*
X155523097Y-110669102D01*
X155299069Y-110576307D01*
X155061243Y-110529000D01*
X154818757Y-110529000D01*
X154580931Y-110576307D01*
X154356903Y-110669102D01*
X154155283Y-110803820D01*
X153983820Y-110975283D01*
X153849102Y-111176903D01*
X153756307Y-111400931D01*
X153709000Y-111638757D01*
X153709000Y-111881243D01*
X153756307Y-112119069D01*
X153788242Y-112196167D01*
X153628408Y-112356001D01*
X153482276Y-112356001D01*
X153490898Y-112343097D01*
X153583693Y-112119069D01*
X153631000Y-111881243D01*
X153631000Y-111638757D01*
X153583693Y-111400931D01*
X153490898Y-111176903D01*
X153482637Y-111164539D01*
X153502001Y-111166446D01*
X153526847Y-111163999D01*
X153526855Y-111163999D01*
X153601194Y-111156677D01*
X153696576Y-111127744D01*
X153784480Y-111080758D01*
X153861528Y-111017526D01*
X153877377Y-110998214D01*
X154503833Y-110371758D01*
X154580931Y-110403693D01*
X154818757Y-110451000D01*
X155061243Y-110451000D01*
X155299069Y-110403693D01*
X155523097Y-110310898D01*
X155724717Y-110176180D01*
X155896180Y-110004717D01*
X156030898Y-109803097D01*
X156123693Y-109579069D01*
X156171000Y-109341243D01*
X156171000Y-109098757D01*
X156123693Y-108860931D01*
X156030898Y-108636903D01*
X155896180Y-108435283D01*
X155724717Y-108263820D01*
X155579706Y-108166927D01*
X155790000Y-108168072D01*
X155914482Y-108155812D01*
X156034180Y-108119502D01*
X156144494Y-108060537D01*
X156241185Y-107981185D01*
X156312000Y-107894896D01*
X156312001Y-146279000D01*
X146217592Y-146279000D01*
X146290003Y-146173678D01*
X146378415Y-145967987D01*
X146425000Y-145749000D01*
X146425000Y-145449000D01*
X145417000Y-145449000D01*
X145417000Y-145469000D01*
X145163000Y-145469000D01*
X145163000Y-145449000D01*
X144155000Y-145449000D01*
X144155000Y-145749000D01*
X144201585Y-145967987D01*
X144289997Y-146173678D01*
X144362408Y-146279000D01*
X137577592Y-146279000D01*
X137650003Y-146173678D01*
X137738415Y-145967987D01*
X137785000Y-145749000D01*
X137785000Y-145449000D01*
X136777000Y-145449000D01*
X136777000Y-145469000D01*
X136523000Y-145469000D01*
X136523000Y-145449000D01*
X135515000Y-145449000D01*
X135515000Y-145749000D01*
X135561585Y-145967987D01*
X135649997Y-146173678D01*
X135722408Y-146279000D01*
X125628000Y-146279000D01*
X125628000Y-144895000D01*
X135515000Y-144895000D01*
X135515000Y-145195000D01*
X136523000Y-145195000D01*
X136523000Y-144054046D01*
X136777000Y-144054046D01*
X136777000Y-145195000D01*
X137785000Y-145195000D01*
X137785000Y-144895000D01*
X144155000Y-144895000D01*
X144155000Y-145195000D01*
X145163000Y-145195000D01*
X145163000Y-144054046D01*
X145417000Y-144054046D01*
X145417000Y-145195000D01*
X146425000Y-145195000D01*
X146425000Y-144895000D01*
X146378415Y-144676013D01*
X146290003Y-144470322D01*
X146163161Y-144285831D01*
X146002764Y-144129631D01*
X145814976Y-144007724D01*
X145591874Y-143927881D01*
X145417000Y-144054046D01*
X145163000Y-144054046D01*
X144988126Y-143927881D01*
X144765024Y-144007724D01*
X144577236Y-144129631D01*
X144416839Y-144285831D01*
X144289997Y-144470322D01*
X144201585Y-144676013D01*
X144155000Y-144895000D01*
X137785000Y-144895000D01*
X137738415Y-144676013D01*
X137650003Y-144470322D01*
X137523161Y-144285831D01*
X137362764Y-144129631D01*
X137174976Y-144007724D01*
X136951874Y-143927881D01*
X136777000Y-144054046D01*
X136523000Y-144054046D01*
X136348126Y-143927881D01*
X136125024Y-144007724D01*
X135937236Y-144129631D01*
X135776839Y-144285831D01*
X135649997Y-144470322D01*
X135561585Y-144676013D01*
X135515000Y-144895000D01*
X125628000Y-144895000D01*
X125628000Y-141269000D01*
X135515000Y-141269000D01*
X135515000Y-141819000D01*
X135561585Y-142037987D01*
X135649997Y-142243678D01*
X135776839Y-142428169D01*
X135937236Y-142584369D01*
X136125024Y-142706276D01*
X136348126Y-142786119D01*
X136523000Y-142659954D01*
X136523000Y-141269000D01*
X135515000Y-141269000D01*
X125628000Y-141269000D01*
X125628000Y-140465000D01*
X135515000Y-140465000D01*
X135515000Y-141015000D01*
X136523000Y-141015000D01*
X136523000Y-139624046D01*
X136777000Y-139624046D01*
X136777000Y-141015000D01*
X136797000Y-141015000D01*
X136797000Y-141269000D01*
X136777000Y-141269000D01*
X136777000Y-142659954D01*
X136951874Y-142786119D01*
X137174976Y-142706276D01*
X137362764Y-142584369D01*
X137523161Y-142428169D01*
X137650003Y-142243678D01*
X137653307Y-142235992D01*
X137745584Y-142297649D01*
X137874067Y-142350869D01*
X138010465Y-142378000D01*
X138149535Y-142378000D01*
X138285933Y-142350869D01*
X138414416Y-142297649D01*
X138530049Y-142220386D01*
X138628386Y-142122049D01*
X138705649Y-142006416D01*
X138758869Y-141877933D01*
X138786000Y-141741535D01*
X138786000Y-141602465D01*
X138758869Y-141466067D01*
X138705649Y-141337584D01*
X138628386Y-141221951D01*
X138530049Y-141123614D01*
X138414416Y-141046351D01*
X138285933Y-140993131D01*
X138149535Y-140966000D01*
X138010465Y-140966000D01*
X137874067Y-140993131D01*
X137785000Y-141030024D01*
X137785000Y-140465000D01*
X137738415Y-140246013D01*
X137650003Y-140040322D01*
X137523161Y-139855831D01*
X137362764Y-139699631D01*
X137174976Y-139577724D01*
X136951874Y-139497881D01*
X136777000Y-139624046D01*
X136523000Y-139624046D01*
X136348126Y-139497881D01*
X136125024Y-139577724D01*
X135937236Y-139699631D01*
X135776839Y-139855831D01*
X135649997Y-140040322D01*
X135561585Y-140246013D01*
X135515000Y-140465000D01*
X125628000Y-140465000D01*
X125628000Y-137083078D01*
X126092000Y-137083078D01*
X126092000Y-137236922D01*
X126122013Y-137387809D01*
X126180887Y-137529942D01*
X126266358Y-137657859D01*
X126375141Y-137766642D01*
X126503058Y-137852113D01*
X126645191Y-137910987D01*
X126796078Y-137941000D01*
X126949922Y-137941000D01*
X127100809Y-137910987D01*
X127242942Y-137852113D01*
X127370859Y-137766642D01*
X127479642Y-137657859D01*
X127565113Y-137529942D01*
X127623987Y-137387809D01*
X127654000Y-137236922D01*
X127654000Y-137083078D01*
X127623987Y-136932191D01*
X127565113Y-136790058D01*
X127479642Y-136662141D01*
X127379000Y-136561499D01*
X127379000Y-136448078D01*
X129902000Y-136448078D01*
X129902000Y-136601922D01*
X129932013Y-136752809D01*
X129990887Y-136894942D01*
X130076358Y-137022859D01*
X130185141Y-137131642D01*
X130313058Y-137217113D01*
X130455191Y-137275987D01*
X130606078Y-137306000D01*
X130759922Y-137306000D01*
X130910809Y-137275987D01*
X131052942Y-137217113D01*
X131180859Y-137131642D01*
X131289642Y-137022859D01*
X131375113Y-136894942D01*
X131433987Y-136752809D01*
X131464000Y-136601922D01*
X131464000Y-136448078D01*
X131433987Y-136297191D01*
X131415948Y-136253643D01*
X134808592Y-132861000D01*
X134950922Y-132861000D01*
X135101809Y-132830987D01*
X135243942Y-132772113D01*
X135371859Y-132686642D01*
X135480642Y-132577859D01*
X135566113Y-132449942D01*
X135624987Y-132307809D01*
X135655000Y-132156922D01*
X135655000Y-132003078D01*
X135624987Y-131852191D01*
X135566113Y-131710058D01*
X135480642Y-131582141D01*
X135371859Y-131473358D01*
X135243942Y-131387887D01*
X135101809Y-131329013D01*
X134950922Y-131299000D01*
X134797078Y-131299000D01*
X134646191Y-131329013D01*
X134504058Y-131387887D01*
X134376141Y-131473358D01*
X134267358Y-131582141D01*
X134181887Y-131710058D01*
X134123013Y-131852191D01*
X134093000Y-132003078D01*
X134093000Y-132145408D01*
X130466682Y-135771727D01*
X130455191Y-135774013D01*
X130313058Y-135832887D01*
X130185141Y-135918358D01*
X130076358Y-136027141D01*
X129990887Y-136155058D01*
X129932013Y-136297191D01*
X129902000Y-136448078D01*
X127379000Y-136448078D01*
X127379000Y-136226591D01*
X128204592Y-135401000D01*
X128346922Y-135401000D01*
X128497809Y-135370987D01*
X128639942Y-135312113D01*
X128767859Y-135226642D01*
X128876642Y-135117859D01*
X128962113Y-134989942D01*
X129020987Y-134847809D01*
X129051000Y-134696922D01*
X129051000Y-134543078D01*
X129020987Y-134392191D01*
X128962113Y-134250058D01*
X128876642Y-134122141D01*
X128767859Y-134013358D01*
X128639942Y-133927887D01*
X128497809Y-133869013D01*
X128346922Y-133839000D01*
X128193078Y-133839000D01*
X128042191Y-133869013D01*
X127900058Y-133927887D01*
X127772141Y-134013358D01*
X127663358Y-134122141D01*
X127577887Y-134250058D01*
X127519013Y-134392191D01*
X127489000Y-134543078D01*
X127489000Y-134685408D01*
X126532785Y-135641624D01*
X126513473Y-135657473D01*
X126450241Y-135734521D01*
X126403255Y-135822426D01*
X126374322Y-135917808D01*
X126367000Y-135992147D01*
X126367000Y-135992154D01*
X126364553Y-136017000D01*
X126367000Y-136041847D01*
X126367000Y-136561499D01*
X126266358Y-136662141D01*
X126180887Y-136790058D01*
X126122013Y-136932191D01*
X126092000Y-137083078D01*
X125628000Y-137083078D01*
X125628000Y-129418757D01*
X125769000Y-129418757D01*
X125769000Y-129661243D01*
X125816307Y-129899069D01*
X125909102Y-130123097D01*
X126043820Y-130324717D01*
X126215283Y-130496180D01*
X126416903Y-130630898D01*
X126640931Y-130723693D01*
X126878757Y-130771000D01*
X127121243Y-130771000D01*
X127359069Y-130723693D01*
X127583097Y-130630898D01*
X127784717Y-130496180D01*
X127956180Y-130324717D01*
X128090898Y-130123097D01*
X128183693Y-129899069D01*
X128231000Y-129661243D01*
X128231000Y-129418757D01*
X128309000Y-129418757D01*
X128309000Y-129661243D01*
X128356307Y-129899069D01*
X128449102Y-130123097D01*
X128583820Y-130324717D01*
X128755283Y-130496180D01*
X128956903Y-130630898D01*
X129180931Y-130723693D01*
X129418757Y-130771000D01*
X129661243Y-130771000D01*
X129899069Y-130723693D01*
X130123097Y-130630898D01*
X130324717Y-130496180D01*
X130496180Y-130324717D01*
X130630898Y-130123097D01*
X130723693Y-129899069D01*
X130771000Y-129661243D01*
X130771000Y-129418757D01*
X130723693Y-129180931D01*
X130630898Y-128956903D01*
X130496180Y-128755283D01*
X130324717Y-128583820D01*
X130123097Y-128449102D01*
X129899069Y-128356307D01*
X129661243Y-128309000D01*
X129418757Y-128309000D01*
X129180931Y-128356307D01*
X128956903Y-128449102D01*
X128755283Y-128583820D01*
X128583820Y-128755283D01*
X128449102Y-128956903D01*
X128356307Y-129180931D01*
X128309000Y-129418757D01*
X128231000Y-129418757D01*
X128183693Y-129180931D01*
X128090898Y-128956903D01*
X127956180Y-128755283D01*
X127784717Y-128583820D01*
X127583097Y-128449102D01*
X127359069Y-128356307D01*
X127121243Y-128309000D01*
X126878757Y-128309000D01*
X126640931Y-128356307D01*
X126416903Y-128449102D01*
X126215283Y-128583820D01*
X126043820Y-128755283D01*
X125909102Y-128956903D01*
X125816307Y-129180931D01*
X125769000Y-129418757D01*
X125628000Y-129418757D01*
X125628000Y-126878757D01*
X125769000Y-126878757D01*
X125769000Y-127121243D01*
X125816307Y-127359069D01*
X125909102Y-127583097D01*
X126043820Y-127784717D01*
X126215283Y-127956180D01*
X126416903Y-128090898D01*
X126640931Y-128183693D01*
X126878757Y-128231000D01*
X127121243Y-128231000D01*
X127359069Y-128183693D01*
X127583097Y-128090898D01*
X127784717Y-127956180D01*
X127956180Y-127784717D01*
X128090898Y-127583097D01*
X128183693Y-127359069D01*
X128231000Y-127121243D01*
X128231000Y-126878757D01*
X128309000Y-126878757D01*
X128309000Y-127121243D01*
X128356307Y-127359069D01*
X128449102Y-127583097D01*
X128583820Y-127784717D01*
X128755283Y-127956180D01*
X128956903Y-128090898D01*
X129180931Y-128183693D01*
X129418757Y-128231000D01*
X129661243Y-128231000D01*
X129899069Y-128183693D01*
X130123097Y-128090898D01*
X130324717Y-127956180D01*
X130496180Y-127784717D01*
X130630898Y-127583097D01*
X130662832Y-127506000D01*
X131928152Y-127506000D01*
X131952998Y-127508447D01*
X131977844Y-127506000D01*
X131977852Y-127506000D01*
X132052191Y-127498678D01*
X132147573Y-127469745D01*
X132235477Y-127422759D01*
X132312525Y-127359527D01*
X132328374Y-127340215D01*
X133792592Y-125875998D01*
X133934922Y-125875998D01*
X134085809Y-125845985D01*
X134227942Y-125787111D01*
X134355859Y-125701640D01*
X134464642Y-125592857D01*
X134550113Y-125464940D01*
X134608987Y-125322807D01*
X134639000Y-125171920D01*
X134639000Y-125018076D01*
X134608987Y-124867189D01*
X134550113Y-124725056D01*
X134464642Y-124597139D01*
X134355859Y-124488356D01*
X134227942Y-124402885D01*
X134085809Y-124344011D01*
X133934922Y-124313998D01*
X133781078Y-124313998D01*
X133630191Y-124344011D01*
X133488058Y-124402885D01*
X133360141Y-124488356D01*
X133251358Y-124597139D01*
X133165887Y-124725056D01*
X133107013Y-124867189D01*
X133077000Y-125018076D01*
X133077000Y-125160406D01*
X131743407Y-126494000D01*
X130662832Y-126494000D01*
X130630898Y-126416903D01*
X130496180Y-126215283D01*
X130324717Y-126043820D01*
X130123097Y-125909102D01*
X129899069Y-125816307D01*
X129661243Y-125769000D01*
X129418757Y-125769000D01*
X129180931Y-125816307D01*
X128956903Y-125909102D01*
X128755283Y-126043820D01*
X128583820Y-126215283D01*
X128449102Y-126416903D01*
X128356307Y-126640931D01*
X128309000Y-126878757D01*
X128231000Y-126878757D01*
X128183693Y-126640931D01*
X128090898Y-126416903D01*
X127956180Y-126215283D01*
X127784717Y-126043820D01*
X127583097Y-125909102D01*
X127359069Y-125816307D01*
X127121243Y-125769000D01*
X126878757Y-125769000D01*
X126640931Y-125816307D01*
X126416903Y-125909102D01*
X126215283Y-126043820D01*
X126043820Y-126215283D01*
X125909102Y-126416903D01*
X125816307Y-126640931D01*
X125769000Y-126878757D01*
X125628000Y-126878757D01*
X125628000Y-124338757D01*
X125769000Y-124338757D01*
X125769000Y-124581243D01*
X125816307Y-124819069D01*
X125909102Y-125043097D01*
X126043820Y-125244717D01*
X126215283Y-125416180D01*
X126416903Y-125550898D01*
X126640931Y-125643693D01*
X126878757Y-125691000D01*
X127121243Y-125691000D01*
X127359069Y-125643693D01*
X127583097Y-125550898D01*
X127784717Y-125416180D01*
X127956180Y-125244717D01*
X128090898Y-125043097D01*
X128183693Y-124819069D01*
X128231000Y-124581243D01*
X128231000Y-124338757D01*
X128183693Y-124100931D01*
X128090898Y-123876903D01*
X127956180Y-123675283D01*
X127784717Y-123503820D01*
X127583097Y-123369102D01*
X127359069Y-123276307D01*
X127121243Y-123229000D01*
X126878757Y-123229000D01*
X126640931Y-123276307D01*
X126416903Y-123369102D01*
X126215283Y-123503820D01*
X126043820Y-123675283D01*
X125909102Y-123876903D01*
X125816307Y-124100931D01*
X125769000Y-124338757D01*
X125628000Y-124338757D01*
X125628000Y-121798757D01*
X125769000Y-121798757D01*
X125769000Y-122041243D01*
X125816307Y-122279069D01*
X125909102Y-122503097D01*
X126043820Y-122704717D01*
X126215283Y-122876180D01*
X126416903Y-123010898D01*
X126640931Y-123103693D01*
X126878757Y-123151000D01*
X127121243Y-123151000D01*
X127359069Y-123103693D01*
X127583097Y-123010898D01*
X127784717Y-122876180D01*
X127956180Y-122704717D01*
X128090898Y-122503097D01*
X128183693Y-122279069D01*
X128231000Y-122041243D01*
X128231000Y-121798757D01*
X128183693Y-121560931D01*
X128090898Y-121336903D01*
X127956180Y-121135283D01*
X127784717Y-120963820D01*
X127583097Y-120829102D01*
X127359069Y-120736307D01*
X127121243Y-120689000D01*
X126878757Y-120689000D01*
X126640931Y-120736307D01*
X126416903Y-120829102D01*
X126215283Y-120963820D01*
X126043820Y-121135283D01*
X125909102Y-121336903D01*
X125816307Y-121560931D01*
X125769000Y-121798757D01*
X125628000Y-121798757D01*
X125628000Y-116718757D01*
X125769000Y-116718757D01*
X125769000Y-116961243D01*
X125816307Y-117199069D01*
X125909102Y-117423097D01*
X126043820Y-117624717D01*
X126215283Y-117796180D01*
X126416903Y-117930898D01*
X126640931Y-118023693D01*
X126878757Y-118071000D01*
X127121243Y-118071000D01*
X127359069Y-118023693D01*
X127583097Y-117930898D01*
X127784717Y-117796180D01*
X127956180Y-117624717D01*
X128090898Y-117423097D01*
X128183693Y-117199069D01*
X128231000Y-116961243D01*
X128231000Y-116718757D01*
X128183693Y-116480931D01*
X128090898Y-116256903D01*
X127956180Y-116055283D01*
X127784717Y-115883820D01*
X127583097Y-115749102D01*
X127359069Y-115656307D01*
X127121243Y-115609000D01*
X126878757Y-115609000D01*
X126640931Y-115656307D01*
X126416903Y-115749102D01*
X126215283Y-115883820D01*
X126043820Y-116055283D01*
X125909102Y-116256903D01*
X125816307Y-116480931D01*
X125769000Y-116718757D01*
X125628000Y-116718757D01*
X125628000Y-114178757D01*
X125769000Y-114178757D01*
X125769000Y-114421243D01*
X125816307Y-114659069D01*
X125909102Y-114883097D01*
X126043820Y-115084717D01*
X126215283Y-115256180D01*
X126416903Y-115390898D01*
X126640931Y-115483693D01*
X126878757Y-115531000D01*
X127121243Y-115531000D01*
X127359069Y-115483693D01*
X127583097Y-115390898D01*
X127784717Y-115256180D01*
X127956180Y-115084717D01*
X128090898Y-114883097D01*
X128183693Y-114659069D01*
X128231000Y-114421243D01*
X128231000Y-114178757D01*
X128183693Y-113940931D01*
X128090898Y-113716903D01*
X127956180Y-113515283D01*
X127784717Y-113343820D01*
X127583097Y-113209102D01*
X127359069Y-113116307D01*
X127121243Y-113069000D01*
X126878757Y-113069000D01*
X126640931Y-113116307D01*
X126416903Y-113209102D01*
X126215283Y-113343820D01*
X126043820Y-113515283D01*
X125909102Y-113716903D01*
X125816307Y-113940931D01*
X125769000Y-114178757D01*
X125628000Y-114178757D01*
X125628000Y-107236219D01*
X125728359Y-107446920D01*
X125902412Y-107680269D01*
X126118645Y-107875178D01*
X126368748Y-108024157D01*
X126531168Y-108081772D01*
X126416903Y-108129102D01*
X126215283Y-108263820D01*
X126043820Y-108435283D01*
X125909102Y-108636903D01*
X125816307Y-108860931D01*
X125769000Y-109098757D01*
X125769000Y-109341243D01*
X125816307Y-109579069D01*
X125909102Y-109803097D01*
X126043820Y-110004717D01*
X126215283Y-110176180D01*
X126416903Y-110310898D01*
X126640931Y-110403693D01*
X126878757Y-110451000D01*
X127121243Y-110451000D01*
X127359069Y-110403693D01*
X127583097Y-110310898D01*
X127784717Y-110176180D01*
X127956180Y-110004717D01*
X128090898Y-109803097D01*
X128183693Y-109579069D01*
X128231000Y-109341243D01*
X128231000Y-109098757D01*
X128309000Y-109098757D01*
X128309000Y-109341243D01*
X128356307Y-109579069D01*
X128449102Y-109803097D01*
X128583820Y-110004717D01*
X128755283Y-110176180D01*
X128956903Y-110310898D01*
X129180931Y-110403693D01*
X129418757Y-110451000D01*
X129661243Y-110451000D01*
X129899069Y-110403693D01*
X130123097Y-110310898D01*
X130324717Y-110176180D01*
X130496180Y-110004717D01*
X130630898Y-109803097D01*
X130723693Y-109579069D01*
X130771000Y-109341243D01*
X130771000Y-109098757D01*
X130723693Y-108860931D01*
X130630898Y-108636903D01*
X130496180Y-108435283D01*
X130324717Y-108263820D01*
X130123097Y-108129102D01*
X129899069Y-108036307D01*
X129661243Y-107989000D01*
X129418757Y-107989000D01*
X129180931Y-108036307D01*
X128956903Y-108129102D01*
X128755283Y-108263820D01*
X128583820Y-108435283D01*
X128449102Y-108636903D01*
X128356307Y-108860931D01*
X128309000Y-109098757D01*
X128231000Y-109098757D01*
X128183693Y-108860931D01*
X128090898Y-108636903D01*
X127956180Y-108435283D01*
X127784717Y-108263820D01*
X127583097Y-108129102D01*
X127468832Y-108081772D01*
X127631252Y-108024157D01*
X127881355Y-107875178D01*
X128097588Y-107680269D01*
X128271641Y-107446920D01*
X128307157Y-107372355D01*
X128307157Y-107530000D01*
X128314513Y-107604689D01*
X128336299Y-107676508D01*
X128371678Y-107742696D01*
X128419289Y-107800711D01*
X128477304Y-107848322D01*
X128543492Y-107883701D01*
X128615311Y-107905487D01*
X128690000Y-107912843D01*
X130390000Y-107912843D01*
X130464689Y-107905487D01*
X130536508Y-107883701D01*
X130602696Y-107848322D01*
X130660711Y-107800711D01*
X130708322Y-107742696D01*
X130743701Y-107676508D01*
X130765487Y-107604689D01*
X130772843Y-107530000D01*
X130772843Y-105830000D01*
X130765487Y-105755311D01*
X130743701Y-105683492D01*
X130708322Y-105617304D01*
X130660711Y-105559289D01*
X130602696Y-105511678D01*
X130536508Y-105476299D01*
X130464689Y-105454513D01*
X130390000Y-105447157D01*
X128690000Y-105447157D01*
X128615311Y-105454513D01*
X128543492Y-105476299D01*
X128477304Y-105511678D01*
X128419289Y-105559289D01*
X128371678Y-105617304D01*
X128336299Y-105683492D01*
X128314513Y-105755311D01*
X128307157Y-105830000D01*
X128307157Y-105987645D01*
X128271641Y-105913080D01*
X128097588Y-105679731D01*
X127881355Y-105484822D01*
X127631252Y-105335843D01*
X127356891Y-105238519D01*
X127127000Y-105359186D01*
X127127000Y-106553000D01*
X127147000Y-106553000D01*
X127147000Y-106807000D01*
X127127000Y-106807000D01*
X127127000Y-106827000D01*
X126873000Y-106827000D01*
X126873000Y-106807000D01*
X126853000Y-106807000D01*
X126853000Y-106553000D01*
X126873000Y-106553000D01*
X126873000Y-105359186D01*
X126643109Y-105238519D01*
X126368748Y-105335843D01*
X126118645Y-105484822D01*
X125902412Y-105679731D01*
X125728359Y-105913080D01*
X125628000Y-106123781D01*
X125628000Y-105054000D01*
X156312000Y-105054000D01*
X156312000Y-105465104D01*
G36*
X147301000Y-131887592D02*
G01*
X147301000Y-132029922D01*
X147314741Y-132099001D01*
X141597276Y-132099001D01*
X142453220Y-131243057D01*
X142472527Y-131227212D01*
X142535759Y-131150164D01*
X142582745Y-131062260D01*
X142611678Y-130966878D01*
X142619000Y-130892539D01*
X142619000Y-130892538D01*
X142621448Y-130867685D01*
X142619000Y-130842831D01*
X142619000Y-127725501D01*
X142719642Y-127624859D01*
X142805113Y-127496942D01*
X142835937Y-127422528D01*
X147301000Y-131887592D01*
G37*
X147301000Y-131887592D02*
X147301000Y-132029922D01*
X147314741Y-132099001D01*
X141597276Y-132099001D01*
X142453220Y-131243057D01*
X142472527Y-131227212D01*
X142535759Y-131150164D01*
X142582745Y-131062260D01*
X142611678Y-130966878D01*
X142619000Y-130892539D01*
X142619000Y-130892538D01*
X142621448Y-130867685D01*
X142619000Y-130842831D01*
X142619000Y-127725501D01*
X142719642Y-127624859D01*
X142805113Y-127496942D01*
X142835937Y-127422528D01*
X147301000Y-131887592D01*
G36*
X147133412Y-117907496D02*
G01*
X147117568Y-117926802D01*
X145662371Y-119382000D01*
X141822495Y-119382000D01*
X141721853Y-119281358D01*
X141593936Y-119195887D01*
X141451803Y-119137013D01*
X141300916Y-119107000D01*
X141147072Y-119107000D01*
X140996185Y-119137013D01*
X140854052Y-119195887D01*
X140726135Y-119281358D01*
X140617352Y-119390141D01*
X140531881Y-119518058D01*
X140473007Y-119660191D01*
X140442994Y-119811078D01*
X140442994Y-119964922D01*
X140473007Y-120115809D01*
X140531881Y-120257942D01*
X140617352Y-120385859D01*
X140726135Y-120494642D01*
X140854052Y-120580113D01*
X140996185Y-120638987D01*
X141147072Y-120669000D01*
X141300916Y-120669000D01*
X141451803Y-120638987D01*
X141593936Y-120580113D01*
X141721853Y-120494642D01*
X141822495Y-120394000D01*
X144858612Y-120394000D01*
X144849887Y-120407058D01*
X144791013Y-120549191D01*
X144761000Y-120700078D01*
X144761000Y-120853922D01*
X144791013Y-121004809D01*
X144849887Y-121146942D01*
X144935358Y-121274859D01*
X145036001Y-121375502D01*
X145036000Y-122345408D01*
X143956409Y-123425000D01*
X143814078Y-123425000D01*
X143663191Y-123455013D01*
X143521058Y-123513887D01*
X143393141Y-123599358D01*
X143284358Y-123708141D01*
X143198887Y-123836058D01*
X143140013Y-123978191D01*
X143110000Y-124129078D01*
X143110000Y-124282922D01*
X143140013Y-124433809D01*
X143198887Y-124575942D01*
X143284358Y-124703859D01*
X143393141Y-124812642D01*
X143521058Y-124898113D01*
X143663191Y-124956987D01*
X143814078Y-124987000D01*
X143967922Y-124987000D01*
X144118809Y-124956987D01*
X144260942Y-124898113D01*
X144388859Y-124812642D01*
X144497642Y-124703859D01*
X144583113Y-124575942D01*
X144641987Y-124433809D01*
X144672000Y-124282922D01*
X144672000Y-124140591D01*
X145882220Y-122930372D01*
X145901527Y-122914527D01*
X145964759Y-122837479D01*
X146011745Y-122749575D01*
X146040678Y-122654193D01*
X146048000Y-122579854D01*
X146048000Y-122579853D01*
X146050448Y-122555000D01*
X146048000Y-122530146D01*
X146048000Y-121375501D01*
X146148642Y-121274859D01*
X146234113Y-121146942D01*
X146292987Y-121004809D01*
X146323000Y-120853922D01*
X146323000Y-120700078D01*
X146292987Y-120549191D01*
X146234113Y-120407058D01*
X146164340Y-120302635D01*
X146231489Y-120247527D01*
X146247338Y-120228215D01*
X147702531Y-118773023D01*
X151325058Y-118773023D01*
X151309102Y-118796903D01*
X151216307Y-119020931D01*
X151169000Y-119258757D01*
X151169000Y-119501243D01*
X151216307Y-119739069D01*
X151309102Y-119963097D01*
X151443820Y-120164717D01*
X151615283Y-120336180D01*
X151816903Y-120470898D01*
X151931168Y-120518228D01*
X151768748Y-120575843D01*
X151518645Y-120724822D01*
X151302412Y-120919731D01*
X151128359Y-121153080D01*
X151003175Y-121415901D01*
X150958524Y-121563110D01*
X151079845Y-121793000D01*
X152273000Y-121793000D01*
X152273000Y-121773000D01*
X152527000Y-121773000D01*
X152527000Y-121793000D01*
X152547000Y-121793000D01*
X152547000Y-122047000D01*
X152527000Y-122047000D01*
X152527000Y-122067000D01*
X152273000Y-122067000D01*
X152273000Y-122047000D01*
X151079845Y-122047000D01*
X150958524Y-122276890D01*
X151003175Y-122424099D01*
X151081719Y-122589001D01*
X148963844Y-122589001D01*
X148938998Y-122586554D01*
X148914152Y-122589001D01*
X148914145Y-122589001D01*
X148849693Y-122595349D01*
X148839805Y-122596323D01*
X148817606Y-122603057D01*
X148744424Y-122625256D01*
X148656520Y-122672242D01*
X148579472Y-122735474D01*
X148563627Y-122754781D01*
X148274408Y-123044000D01*
X148132078Y-123044000D01*
X147981191Y-123074013D01*
X147839058Y-123132887D01*
X147711141Y-123218358D01*
X147699000Y-123230499D01*
X147699000Y-121121501D01*
X147799642Y-121020859D01*
X147885113Y-120892942D01*
X147943987Y-120750809D01*
X147974000Y-120599922D01*
X147974000Y-120446078D01*
X147943987Y-120295191D01*
X147885113Y-120153058D01*
X147799642Y-120025141D01*
X147690859Y-119916358D01*
X147562942Y-119830887D01*
X147420809Y-119772013D01*
X147269922Y-119742000D01*
X147116078Y-119742000D01*
X146965191Y-119772013D01*
X146823058Y-119830887D01*
X146695141Y-119916358D01*
X146586358Y-120025141D01*
X146500887Y-120153058D01*
X146442013Y-120295191D01*
X146412000Y-120446078D01*
X146412000Y-120599922D01*
X146442013Y-120750809D01*
X146500887Y-120892942D01*
X146586358Y-121020859D01*
X146687001Y-121121502D01*
X146687000Y-129842408D01*
X140118001Y-123273410D01*
X140118001Y-121111855D01*
X140120449Y-121087001D01*
X140110679Y-120987808D01*
X140081746Y-120892426D01*
X140064841Y-120860799D01*
X140034760Y-120804522D01*
X139971528Y-120727474D01*
X139952221Y-120711629D01*
X138449000Y-119208409D01*
X138449000Y-119066078D01*
X138418987Y-118915191D01*
X138360113Y-118773058D01*
X138274642Y-118645141D01*
X138245501Y-118616000D01*
X143494411Y-118616000D01*
X143519257Y-118618447D01*
X143544103Y-118616000D01*
X143544111Y-118616000D01*
X143618450Y-118608678D01*
X143713832Y-118579745D01*
X143801736Y-118532759D01*
X143878784Y-118469527D01*
X143894633Y-118450215D01*
X144208314Y-118136534D01*
X144281361Y-118245858D01*
X144390144Y-118354641D01*
X144518061Y-118440112D01*
X144660194Y-118498986D01*
X144811081Y-118528999D01*
X144964925Y-118528999D01*
X145115812Y-118498986D01*
X145257945Y-118440112D01*
X145385862Y-118354641D01*
X145494645Y-118245858D01*
X145580116Y-118117941D01*
X145638990Y-117975808D01*
X145663219Y-117854000D01*
X147198597Y-117854000D01*
X147133412Y-117907496D01*
G37*
X147133412Y-117907496D02*
X147117568Y-117926802D01*
X145662371Y-119382000D01*
X141822495Y-119382000D01*
X141721853Y-119281358D01*
X141593936Y-119195887D01*
X141451803Y-119137013D01*
X141300916Y-119107000D01*
X141147072Y-119107000D01*
X140996185Y-119137013D01*
X140854052Y-119195887D01*
X140726135Y-119281358D01*
X140617352Y-119390141D01*
X140531881Y-119518058D01*
X140473007Y-119660191D01*
X140442994Y-119811078D01*
X140442994Y-119964922D01*
X140473007Y-120115809D01*
X140531881Y-120257942D01*
X140617352Y-120385859D01*
X140726135Y-120494642D01*
X140854052Y-120580113D01*
X140996185Y-120638987D01*
X141147072Y-120669000D01*
X141300916Y-120669000D01*
X141451803Y-120638987D01*
X141593936Y-120580113D01*
X141721853Y-120494642D01*
X141822495Y-120394000D01*
X144858612Y-120394000D01*
X144849887Y-120407058D01*
X144791013Y-120549191D01*
X144761000Y-120700078D01*
X144761000Y-120853922D01*
X144791013Y-121004809D01*
X144849887Y-121146942D01*
X144935358Y-121274859D01*
X145036001Y-121375502D01*
X145036000Y-122345408D01*
X143956409Y-123425000D01*
X143814078Y-123425000D01*
X143663191Y-123455013D01*
X143521058Y-123513887D01*
X143393141Y-123599358D01*
X143284358Y-123708141D01*
X143198887Y-123836058D01*
X143140013Y-123978191D01*
X143110000Y-124129078D01*
X143110000Y-124282922D01*
X143140013Y-124433809D01*
X143198887Y-124575942D01*
X143284358Y-124703859D01*
X143393141Y-124812642D01*
X143521058Y-124898113D01*
X143663191Y-124956987D01*
X143814078Y-124987000D01*
X143967922Y-124987000D01*
X144118809Y-124956987D01*
X144260942Y-124898113D01*
X144388859Y-124812642D01*
X144497642Y-124703859D01*
X144583113Y-124575942D01*
X144641987Y-124433809D01*
X144672000Y-124282922D01*
X144672000Y-124140591D01*
X145882220Y-122930372D01*
X145901527Y-122914527D01*
X145964759Y-122837479D01*
X146011745Y-122749575D01*
X146040678Y-122654193D01*
X146048000Y-122579854D01*
X146048000Y-122579853D01*
X146050448Y-122555000D01*
X146048000Y-122530146D01*
X146048000Y-121375501D01*
X146148642Y-121274859D01*
X146234113Y-121146942D01*
X146292987Y-121004809D01*
X146323000Y-120853922D01*
X146323000Y-120700078D01*
X146292987Y-120549191D01*
X146234113Y-120407058D01*
X146164340Y-120302635D01*
X146231489Y-120247527D01*
X146247338Y-120228215D01*
X147702531Y-118773023D01*
X151325058Y-118773023D01*
X151309102Y-118796903D01*
X151216307Y-119020931D01*
X151169000Y-119258757D01*
X151169000Y-119501243D01*
X151216307Y-119739069D01*
X151309102Y-119963097D01*
X151443820Y-120164717D01*
X151615283Y-120336180D01*
X151816903Y-120470898D01*
X151931168Y-120518228D01*
X151768748Y-120575843D01*
X151518645Y-120724822D01*
X151302412Y-120919731D01*
X151128359Y-121153080D01*
X151003175Y-121415901D01*
X150958524Y-121563110D01*
X151079845Y-121793000D01*
X152273000Y-121793000D01*
X152273000Y-121773000D01*
X152527000Y-121773000D01*
X152527000Y-121793000D01*
X152547000Y-121793000D01*
X152547000Y-122047000D01*
X152527000Y-122047000D01*
X152527000Y-122067000D01*
X152273000Y-122067000D01*
X152273000Y-122047000D01*
X151079845Y-122047000D01*
X150958524Y-122276890D01*
X151003175Y-122424099D01*
X151081719Y-122589001D01*
X148963844Y-122589001D01*
X148938998Y-122586554D01*
X148914152Y-122589001D01*
X148914145Y-122589001D01*
X148849693Y-122595349D01*
X148839805Y-122596323D01*
X148817606Y-122603057D01*
X148744424Y-122625256D01*
X148656520Y-122672242D01*
X148579472Y-122735474D01*
X148563627Y-122754781D01*
X148274408Y-123044000D01*
X148132078Y-123044000D01*
X147981191Y-123074013D01*
X147839058Y-123132887D01*
X147711141Y-123218358D01*
X147699000Y-123230499D01*
X147699000Y-121121501D01*
X147799642Y-121020859D01*
X147885113Y-120892942D01*
X147943987Y-120750809D01*
X147974000Y-120599922D01*
X147974000Y-120446078D01*
X147943987Y-120295191D01*
X147885113Y-120153058D01*
X147799642Y-120025141D01*
X147690859Y-119916358D01*
X147562942Y-119830887D01*
X147420809Y-119772013D01*
X147269922Y-119742000D01*
X147116078Y-119742000D01*
X146965191Y-119772013D01*
X146823058Y-119830887D01*
X146695141Y-119916358D01*
X146586358Y-120025141D01*
X146500887Y-120153058D01*
X146442013Y-120295191D01*
X146412000Y-120446078D01*
X146412000Y-120599922D01*
X146442013Y-120750809D01*
X146500887Y-120892942D01*
X146586358Y-121020859D01*
X146687001Y-121121502D01*
X146687000Y-129842408D01*
X140118001Y-123273410D01*
X140118001Y-121111855D01*
X140120449Y-121087001D01*
X140110679Y-120987808D01*
X140081746Y-120892426D01*
X140064841Y-120860799D01*
X140034760Y-120804522D01*
X139971528Y-120727474D01*
X139952221Y-120711629D01*
X138449000Y-119208409D01*
X138449000Y-119066078D01*
X138418987Y-118915191D01*
X138360113Y-118773058D01*
X138274642Y-118645141D01*
X138245501Y-118616000D01*
X143494411Y-118616000D01*
X143519257Y-118618447D01*
X143544103Y-118616000D01*
X143544111Y-118616000D01*
X143618450Y-118608678D01*
X143713832Y-118579745D01*
X143801736Y-118532759D01*
X143878784Y-118469527D01*
X143894633Y-118450215D01*
X144208314Y-118136534D01*
X144281361Y-118245858D01*
X144390144Y-118354641D01*
X144518061Y-118440112D01*
X144660194Y-118498986D01*
X144811081Y-118528999D01*
X144964925Y-118528999D01*
X145115812Y-118498986D01*
X145257945Y-118440112D01*
X145385862Y-118354641D01*
X145494645Y-118245858D01*
X145580116Y-118117941D01*
X145638990Y-117975808D01*
X145663219Y-117854000D01*
X147198597Y-117854000D01*
X147133412Y-117907496D01*
G36*
X143521013Y-113638811D02*
G01*
X143579887Y-113780944D01*
X143665358Y-113908861D01*
X143774141Y-114017644D01*
X143902058Y-114103115D01*
X144037922Y-114159392D01*
X143926578Y-114233790D01*
X143817795Y-114342573D01*
X143732324Y-114470490D01*
X143673450Y-114612623D01*
X143643437Y-114763510D01*
X143643437Y-114917354D01*
X143673450Y-115068241D01*
X143732324Y-115210374D01*
X143778039Y-115278791D01*
X143699117Y-115396907D01*
X143640243Y-115539040D01*
X143610230Y-115689927D01*
X143610230Y-115843771D01*
X143623971Y-115912850D01*
X135678442Y-115912850D01*
X135401000Y-115635409D01*
X135401000Y-115493078D01*
X135370987Y-115342191D01*
X135312113Y-115200058D01*
X135226642Y-115072141D01*
X135117859Y-114963358D01*
X135072428Y-114933002D01*
X137069499Y-114933002D01*
X137170141Y-115033644D01*
X137298058Y-115119115D01*
X137440191Y-115177989D01*
X137591078Y-115208002D01*
X137744922Y-115208002D01*
X137895809Y-115177989D01*
X138037942Y-115119115D01*
X138165859Y-115033644D01*
X138274642Y-114924861D01*
X138360113Y-114796944D01*
X138418987Y-114654811D01*
X138449000Y-114503924D01*
X138449000Y-114350080D01*
X138418987Y-114199193D01*
X138360113Y-114057060D01*
X138274642Y-113929143D01*
X138165859Y-113820360D01*
X138037942Y-113734889D01*
X137895809Y-113676015D01*
X137744922Y-113646002D01*
X137591078Y-113646002D01*
X137440191Y-113676015D01*
X137298058Y-113734889D01*
X137170141Y-113820360D01*
X137069499Y-113921002D01*
X135181417Y-113921002D01*
X135585417Y-113517003D01*
X143496784Y-113517003D01*
X143521013Y-113638811D01*
G37*
X143521013Y-113638811D02*
X143579887Y-113780944D01*
X143665358Y-113908861D01*
X143774141Y-114017644D01*
X143902058Y-114103115D01*
X144037922Y-114159392D01*
X143926578Y-114233790D01*
X143817795Y-114342573D01*
X143732324Y-114470490D01*
X143673450Y-114612623D01*
X143643437Y-114763510D01*
X143643437Y-114917354D01*
X143673450Y-115068241D01*
X143732324Y-115210374D01*
X143778039Y-115278791D01*
X143699117Y-115396907D01*
X143640243Y-115539040D01*
X143610230Y-115689927D01*
X143610230Y-115843771D01*
X143623971Y-115912850D01*
X135678442Y-115912850D01*
X135401000Y-115635409D01*
X135401000Y-115493078D01*
X135370987Y-115342191D01*
X135312113Y-115200058D01*
X135226642Y-115072141D01*
X135117859Y-114963358D01*
X135072428Y-114933002D01*
X137069499Y-114933002D01*
X137170141Y-115033644D01*
X137298058Y-115119115D01*
X137440191Y-115177989D01*
X137591078Y-115208002D01*
X137744922Y-115208002D01*
X137895809Y-115177989D01*
X138037942Y-115119115D01*
X138165859Y-115033644D01*
X138274642Y-114924861D01*
X138360113Y-114796944D01*
X138418987Y-114654811D01*
X138449000Y-114503924D01*
X138449000Y-114350080D01*
X138418987Y-114199193D01*
X138360113Y-114057060D01*
X138274642Y-113929143D01*
X138165859Y-113820360D01*
X138037942Y-113734889D01*
X137895809Y-113676015D01*
X137744922Y-113646002D01*
X137591078Y-113646002D01*
X137440191Y-113676015D01*
X137298058Y-113734889D01*
X137170141Y-113820360D01*
X137069499Y-113921002D01*
X135181417Y-113921002D01*
X135585417Y-113517003D01*
X143496784Y-113517003D01*
X143521013Y-113638811D01*
%TD*%
M02*
