M48
; DRILL file {KiCad (5.1.6-0-10_14)} date Sunday, September 06, 2020 at 11:56:47 PM
; FORMAT={-:-/ absolute / inch / decimal}
; #@! TF.CreationDate,2020-09-06T23:56:47+02:00
; #@! TF.GenerationSoftware,Kicad,Pcbnew,(5.1.6-0-10_14)
; #@! TF.FileFunction,Plated,1,2,PTH
FMAT,2
INCH
T1C0.0157
T2C0.0236
T3C0.0394
%
G90
G05
T1
X5.004Y-5.072
X5.038Y-5.462
X5.044Y-5.222
X5.0542Y-5.1067
X5.1064Y-5.5396
X5.134Y-5.34
X5.138Y-5.168
X5.148Y-5.274
X5.156Y-5.492
X5.222Y-5.2143
X5.246Y-5.282
X5.27Y-4.472
X5.28Y-4.342
X5.298Y-4.746
X5.2992Y-4.6512
X5.328Y-4.828
X5.338Y-5.216
X5.3456Y-4.5724
X5.374Y-5.074
X5.39Y-4.532
X5.406Y-4.994
X5.434Y-4.828
X5.448Y-4.518
X5.4811Y-5.522
X5.486Y-5.274
X5.496Y-4.472
X5.502Y-4.312
X5.512Y-4.66
X5.534Y-4.37
X5.534Y-5.28
X5.566Y-4.13
X5.588Y-4.988
X5.598Y-5.37
X5.6205Y-5.2525
X5.6223Y-5.5363
X5.656Y-4.468
X5.656Y-4.548
X5.68Y-4.336
X5.706Y-4.676
X5.722Y-4.614
X5.724Y-5.276
X5.74Y-4.396
X5.75Y-4.24
X5.752Y-4.34
X5.776Y-4.506
X5.79Y-4.31
X5.8157Y-4.27
X5.82Y-4.83
X5.828Y-4.572
X5.8297Y-5.3137
X5.832Y-4.454
X5.836Y-4.222
X5.952Y-5.082
X5.964Y-5.264
X6.1Y-5.294
X6.14Y-5.07
T3
X5.0Y-4.148
X5.0Y-4.248
X5.0Y-4.348
X5.0Y-4.448
X5.0Y-4.548
X5.0Y-4.648
X5.0Y-4.748
X5.0Y-4.848
X5.0Y-4.948
X5.1Y-4.148
X5.1Y-4.248
X5.1Y-4.348
X5.1Y-4.448
X5.1Y-4.548
X5.1Y-4.648
X5.1Y-4.748
X5.1Y-4.848
X5.1Y-4.948
X6.0Y-4.148
X6.0Y-4.248
X6.0Y-4.348
X6.0Y-4.448
X6.0Y-4.548
X6.0Y-4.648
X6.0Y-4.748
X6.0Y-4.848
X6.0Y-4.948
X6.1Y-4.148
X6.1Y-4.248
X6.1Y-4.348
X6.1Y-4.448
X6.1Y-4.548
X6.1Y-4.648
X6.1Y-4.748
X6.1Y-4.848
X6.1Y-4.948
T2
G00X5.3859Y-5.4791
M15
G01X5.3859Y-5.5224
M16
G05
G00X5.3859Y-5.6535
M15
G01X5.3859Y-5.6771
M16
G05
G00X5.7261Y-5.4791
M15
G01X5.7261Y-5.5224
M16
G05
G00X5.7261Y-5.6535
M15
G01X5.7261Y-5.6771
M16
G05
T0
M30
