%TF.GenerationSoftware,KiCad,Pcbnew,(5.1.6-0-10_14)*%
%TF.CreationDate,2020-09-06T23:56:44+02:00*%
%TF.ProjectId,USBCWrover,55534243-5772-46f7-9665-722e6b696361,rev?*%
%TF.SameCoordinates,Original*%
%TF.FileFunction,Paste,Bot*%
%TF.FilePolarity,Positive*%
%FSLAX46Y46*%
G04 Gerber Fmt 4.6, Leading zero omitted, Abs format (unit mm)*
G04 Created by KiCad (PCBNEW (5.1.6-0-10_14)) date 2020-09-06 23:56:44*
%MOMM*%
%LPD*%
G01*
G04 APERTURE LIST*
%ADD10R,1.500000X1.000000*%
G04 APERTURE END LIST*
%TO.C,D3*%
G36*
G01*
X152485000Y-141478000D02*
X152485000Y-140208000D01*
G75*
G02*
X152675000Y-140018000I190000J0D01*
G01*
X153245000Y-140018000D01*
G75*
G02*
X153435000Y-140208000I0J-190000D01*
G01*
X153435000Y-141478000D01*
G75*
G02*
X153245000Y-141668000I-190000J0D01*
G01*
X152675000Y-141668000D01*
G75*
G02*
X152485000Y-141478000I0J190000D01*
G01*
G37*
G36*
G01*
X149385000Y-141478000D02*
X149385000Y-140208000D01*
G75*
G02*
X149575000Y-140018000I190000J0D01*
G01*
X150145000Y-140018000D01*
G75*
G02*
X150335000Y-140208000I0J-190000D01*
G01*
X150335000Y-141478000D01*
G75*
G02*
X150145000Y-141668000I-190000J0D01*
G01*
X149575000Y-141668000D01*
G75*
G02*
X149385000Y-141478000I0J190000D01*
G01*
G37*
%TD*%
%TO.C,R1*%
G36*
G01*
X147770001Y-143060000D02*
X146869999Y-143060000D01*
G75*
G02*
X146620000Y-142810001I0J249999D01*
G01*
X146620000Y-142159999D01*
G75*
G02*
X146869999Y-141910000I249999J0D01*
G01*
X147770001Y-141910000D01*
G75*
G02*
X148020000Y-142159999I0J-249999D01*
G01*
X148020000Y-142810001D01*
G75*
G02*
X147770001Y-143060000I-249999J0D01*
G01*
G37*
G36*
G01*
X147770001Y-145110000D02*
X146869999Y-145110000D01*
G75*
G02*
X146620000Y-144860001I0J249999D01*
G01*
X146620000Y-144209999D01*
G75*
G02*
X146869999Y-143960000I249999J0D01*
G01*
X147770001Y-143960000D01*
G75*
G02*
X148020000Y-144209999I0J-249999D01*
G01*
X148020000Y-144860001D01*
G75*
G02*
X147770001Y-145110000I-249999J0D01*
G01*
G37*
%TD*%
D10*
%TO.C,D2*%
X149289600Y-139268400D03*
X149289600Y-142468400D03*
X154189600Y-139268400D03*
X154189600Y-142468400D03*
%TD*%
M02*
