%TF.GenerationSoftware,KiCad,Pcbnew,(5.1.6-0-10_14)*%
%TF.CreationDate,2020-08-20T11:34:32+02:00*%
%TF.ProjectId,USBCWrover,55534243-5772-46f7-9665-722e6b696361,rev?*%
%TF.SameCoordinates,Original*%
%TF.FileFunction,Soldermask,Top*%
%TF.FilePolarity,Negative*%
%FSLAX46Y46*%
G04 Gerber Fmt 4.6, Leading zero omitted, Abs format (unit mm)*
G04 Created by KiCad (PCBNEW (5.1.6-0-10_14)) date 2020-08-20 11:34:32*
%MOMM*%
%LPD*%
G01*
G04 APERTURE LIST*
%ADD10R,0.800000X0.610000*%
%ADD11O,1.800000X1.800000*%
%ADD12R,1.800000X1.800000*%
%ADD13R,2.700000X2.700000*%
%ADD14R,1.600000X2.100000*%
%ADD15R,3.900000X2.100000*%
%ADD16R,1.650000X1.400000*%
%ADD17R,0.700000X1.550000*%
%ADD18R,0.400000X1.550000*%
%ADD19O,1.100000X2.200000*%
%ADD20C,0.750000*%
%ADD21O,1.100000X1.700000*%
G04 APERTURE END LIST*
%TO.C,U4*%
G36*
G01*
X130932400Y-106269600D02*
X130932400Y-105769600D01*
G75*
G02*
X131182400Y-105519600I250000J0D01*
G01*
X132782400Y-105519600D01*
G75*
G02*
X133032400Y-105769600I0J-250000D01*
G01*
X133032400Y-106269600D01*
G75*
G02*
X132782400Y-106519600I-250000J0D01*
G01*
X131182400Y-106519600D01*
G75*
G02*
X130932400Y-106269600I0J250000D01*
G01*
G37*
G36*
G01*
X130932400Y-107539600D02*
X130932400Y-107039600D01*
G75*
G02*
X131182400Y-106789600I250000J0D01*
G01*
X132782400Y-106789600D01*
G75*
G02*
X133032400Y-107039600I0J-250000D01*
G01*
X133032400Y-107539600D01*
G75*
G02*
X132782400Y-107789600I-250000J0D01*
G01*
X131182400Y-107789600D01*
G75*
G02*
X130932400Y-107539600I0J250000D01*
G01*
G37*
G36*
G01*
X130932400Y-108809600D02*
X130932400Y-108309600D01*
G75*
G02*
X131182400Y-108059600I250000J0D01*
G01*
X132782400Y-108059600D01*
G75*
G02*
X133032400Y-108309600I0J-250000D01*
G01*
X133032400Y-108809600D01*
G75*
G02*
X132782400Y-109059600I-250000J0D01*
G01*
X131182400Y-109059600D01*
G75*
G02*
X130932400Y-108809600I0J250000D01*
G01*
G37*
G36*
G01*
X130932400Y-110079600D02*
X130932400Y-109579600D01*
G75*
G02*
X131182400Y-109329600I250000J0D01*
G01*
X132782400Y-109329600D01*
G75*
G02*
X133032400Y-109579600I0J-250000D01*
G01*
X133032400Y-110079600D01*
G75*
G02*
X132782400Y-110329600I-250000J0D01*
G01*
X131182400Y-110329600D01*
G75*
G02*
X130932400Y-110079600I0J250000D01*
G01*
G37*
G36*
G01*
X130932400Y-111349600D02*
X130932400Y-110849600D01*
G75*
G02*
X131182400Y-110599600I250000J0D01*
G01*
X132782400Y-110599600D01*
G75*
G02*
X133032400Y-110849600I0J-250000D01*
G01*
X133032400Y-111349600D01*
G75*
G02*
X132782400Y-111599600I-250000J0D01*
G01*
X131182400Y-111599600D01*
G75*
G02*
X130932400Y-111349600I0J250000D01*
G01*
G37*
G36*
G01*
X130932400Y-112619600D02*
X130932400Y-112119600D01*
G75*
G02*
X131182400Y-111869600I250000J0D01*
G01*
X132782400Y-111869600D01*
G75*
G02*
X133032400Y-112119600I0J-250000D01*
G01*
X133032400Y-112619600D01*
G75*
G02*
X132782400Y-112869600I-250000J0D01*
G01*
X131182400Y-112869600D01*
G75*
G02*
X130932400Y-112619600I0J250000D01*
G01*
G37*
G36*
G01*
X130932400Y-113889600D02*
X130932400Y-113389600D01*
G75*
G02*
X131182400Y-113139600I250000J0D01*
G01*
X132782400Y-113139600D01*
G75*
G02*
X133032400Y-113389600I0J-250000D01*
G01*
X133032400Y-113889600D01*
G75*
G02*
X132782400Y-114139600I-250000J0D01*
G01*
X131182400Y-114139600D01*
G75*
G02*
X130932400Y-113889600I0J250000D01*
G01*
G37*
G36*
G01*
X130932400Y-115159600D02*
X130932400Y-114659600D01*
G75*
G02*
X131182400Y-114409600I250000J0D01*
G01*
X132782400Y-114409600D01*
G75*
G02*
X133032400Y-114659600I0J-250000D01*
G01*
X133032400Y-115159600D01*
G75*
G02*
X132782400Y-115409600I-250000J0D01*
G01*
X131182400Y-115409600D01*
G75*
G02*
X130932400Y-115159600I0J250000D01*
G01*
G37*
G36*
G01*
X130932400Y-116429600D02*
X130932400Y-115929600D01*
G75*
G02*
X131182400Y-115679600I250000J0D01*
G01*
X132782400Y-115679600D01*
G75*
G02*
X133032400Y-115929600I0J-250000D01*
G01*
X133032400Y-116429600D01*
G75*
G02*
X132782400Y-116679600I-250000J0D01*
G01*
X131182400Y-116679600D01*
G75*
G02*
X130932400Y-116429600I0J250000D01*
G01*
G37*
G36*
G01*
X130932400Y-117699600D02*
X130932400Y-117199600D01*
G75*
G02*
X131182400Y-116949600I250000J0D01*
G01*
X132782400Y-116949600D01*
G75*
G02*
X133032400Y-117199600I0J-250000D01*
G01*
X133032400Y-117699600D01*
G75*
G02*
X132782400Y-117949600I-250000J0D01*
G01*
X131182400Y-117949600D01*
G75*
G02*
X130932400Y-117699600I0J250000D01*
G01*
G37*
G36*
G01*
X130932400Y-118969600D02*
X130932400Y-118469600D01*
G75*
G02*
X131182400Y-118219600I250000J0D01*
G01*
X132782400Y-118219600D01*
G75*
G02*
X133032400Y-118469600I0J-250000D01*
G01*
X133032400Y-118969600D01*
G75*
G02*
X132782400Y-119219600I-250000J0D01*
G01*
X131182400Y-119219600D01*
G75*
G02*
X130932400Y-118969600I0J250000D01*
G01*
G37*
G36*
G01*
X130932400Y-120239600D02*
X130932400Y-119739600D01*
G75*
G02*
X131182400Y-119489600I250000J0D01*
G01*
X132782400Y-119489600D01*
G75*
G02*
X133032400Y-119739600I0J-250000D01*
G01*
X133032400Y-120239600D01*
G75*
G02*
X132782400Y-120489600I-250000J0D01*
G01*
X131182400Y-120489600D01*
G75*
G02*
X130932400Y-120239600I0J250000D01*
G01*
G37*
G36*
G01*
X130932400Y-121509600D02*
X130932400Y-121009600D01*
G75*
G02*
X131182400Y-120759600I250000J0D01*
G01*
X132782400Y-120759600D01*
G75*
G02*
X133032400Y-121009600I0J-250000D01*
G01*
X133032400Y-121509600D01*
G75*
G02*
X132782400Y-121759600I-250000J0D01*
G01*
X131182400Y-121759600D01*
G75*
G02*
X130932400Y-121509600I0J250000D01*
G01*
G37*
G36*
G01*
X130932400Y-122779600D02*
X130932400Y-122279600D01*
G75*
G02*
X131182400Y-122029600I250000J0D01*
G01*
X132782400Y-122029600D01*
G75*
G02*
X133032400Y-122279600I0J-250000D01*
G01*
X133032400Y-122779600D01*
G75*
G02*
X132782400Y-123029600I-250000J0D01*
G01*
X131182400Y-123029600D01*
G75*
G02*
X130932400Y-122779600I0J250000D01*
G01*
G37*
G36*
G01*
X130932400Y-124079600D02*
X130932400Y-123579600D01*
G75*
G02*
X131182400Y-123329600I250000J0D01*
G01*
X132782400Y-123329600D01*
G75*
G02*
X133032400Y-123579600I0J-250000D01*
G01*
X133032400Y-124079600D01*
G75*
G02*
X132782400Y-124329600I-250000J0D01*
G01*
X131182400Y-124329600D01*
G75*
G02*
X130932400Y-124079600I0J250000D01*
G01*
G37*
G36*
G01*
X130932400Y-125349600D02*
X130932400Y-124849600D01*
G75*
G02*
X131182400Y-124599600I250000J0D01*
G01*
X132782400Y-124599600D01*
G75*
G02*
X133032400Y-124849600I0J-250000D01*
G01*
X133032400Y-125349600D01*
G75*
G02*
X132782400Y-125599600I-250000J0D01*
G01*
X131182400Y-125599600D01*
G75*
G02*
X130932400Y-125349600I0J250000D01*
G01*
G37*
G36*
G01*
X130932400Y-126619600D02*
X130932400Y-126119600D01*
G75*
G02*
X131182400Y-125869600I250000J0D01*
G01*
X132782400Y-125869600D01*
G75*
G02*
X133032400Y-126119600I0J-250000D01*
G01*
X133032400Y-126619600D01*
G75*
G02*
X132782400Y-126869600I-250000J0D01*
G01*
X131182400Y-126869600D01*
G75*
G02*
X130932400Y-126619600I0J250000D01*
G01*
G37*
G36*
G01*
X130932400Y-127889600D02*
X130932400Y-127389600D01*
G75*
G02*
X131182400Y-127139600I250000J0D01*
G01*
X132782400Y-127139600D01*
G75*
G02*
X133032400Y-127389600I0J-250000D01*
G01*
X133032400Y-127889600D01*
G75*
G02*
X132782400Y-128139600I-250000J0D01*
G01*
X131182400Y-128139600D01*
G75*
G02*
X130932400Y-127889600I0J250000D01*
G01*
G37*
G36*
G01*
X130932400Y-129159600D02*
X130932400Y-128659600D01*
G75*
G02*
X131182400Y-128409600I250000J0D01*
G01*
X132782400Y-128409600D01*
G75*
G02*
X133032400Y-128659600I0J-250000D01*
G01*
X133032400Y-129159600D01*
G75*
G02*
X132782400Y-129409600I-250000J0D01*
G01*
X131182400Y-129409600D01*
G75*
G02*
X130932400Y-129159600I0J250000D01*
G01*
G37*
G36*
G01*
X148932400Y-129159600D02*
X148932400Y-128659600D01*
G75*
G02*
X149182400Y-128409600I250000J0D01*
G01*
X150782400Y-128409600D01*
G75*
G02*
X151032400Y-128659600I0J-250000D01*
G01*
X151032400Y-129159600D01*
G75*
G02*
X150782400Y-129409600I-250000J0D01*
G01*
X149182400Y-129409600D01*
G75*
G02*
X148932400Y-129159600I0J250000D01*
G01*
G37*
G36*
G01*
X148932400Y-127889600D02*
X148932400Y-127389600D01*
G75*
G02*
X149182400Y-127139600I250000J0D01*
G01*
X150782400Y-127139600D01*
G75*
G02*
X151032400Y-127389600I0J-250000D01*
G01*
X151032400Y-127889600D01*
G75*
G02*
X150782400Y-128139600I-250000J0D01*
G01*
X149182400Y-128139600D01*
G75*
G02*
X148932400Y-127889600I0J250000D01*
G01*
G37*
G36*
G01*
X148932400Y-126619600D02*
X148932400Y-126119600D01*
G75*
G02*
X149182400Y-125869600I250000J0D01*
G01*
X150782400Y-125869600D01*
G75*
G02*
X151032400Y-126119600I0J-250000D01*
G01*
X151032400Y-126619600D01*
G75*
G02*
X150782400Y-126869600I-250000J0D01*
G01*
X149182400Y-126869600D01*
G75*
G02*
X148932400Y-126619600I0J250000D01*
G01*
G37*
G36*
G01*
X148932400Y-125349600D02*
X148932400Y-124849600D01*
G75*
G02*
X149182400Y-124599600I250000J0D01*
G01*
X150782400Y-124599600D01*
G75*
G02*
X151032400Y-124849600I0J-250000D01*
G01*
X151032400Y-125349600D01*
G75*
G02*
X150782400Y-125599600I-250000J0D01*
G01*
X149182400Y-125599600D01*
G75*
G02*
X148932400Y-125349600I0J250000D01*
G01*
G37*
G36*
G01*
X148932400Y-124079600D02*
X148932400Y-123579600D01*
G75*
G02*
X149182400Y-123329600I250000J0D01*
G01*
X150782400Y-123329600D01*
G75*
G02*
X151032400Y-123579600I0J-250000D01*
G01*
X151032400Y-124079600D01*
G75*
G02*
X150782400Y-124329600I-250000J0D01*
G01*
X149182400Y-124329600D01*
G75*
G02*
X148932400Y-124079600I0J250000D01*
G01*
G37*
G36*
G01*
X148962400Y-122779600D02*
X148962400Y-122279600D01*
G75*
G02*
X149212400Y-122029600I250000J0D01*
G01*
X150812400Y-122029600D01*
G75*
G02*
X151062400Y-122279600I0J-250000D01*
G01*
X151062400Y-122779600D01*
G75*
G02*
X150812400Y-123029600I-250000J0D01*
G01*
X149212400Y-123029600D01*
G75*
G02*
X148962400Y-122779600I0J250000D01*
G01*
G37*
G36*
G01*
X148962400Y-121509600D02*
X148962400Y-121009600D01*
G75*
G02*
X149212400Y-120759600I250000J0D01*
G01*
X150812400Y-120759600D01*
G75*
G02*
X151062400Y-121009600I0J-250000D01*
G01*
X151062400Y-121509600D01*
G75*
G02*
X150812400Y-121759600I-250000J0D01*
G01*
X149212400Y-121759600D01*
G75*
G02*
X148962400Y-121509600I0J250000D01*
G01*
G37*
G36*
G01*
X148962400Y-120239600D02*
X148962400Y-119739600D01*
G75*
G02*
X149212400Y-119489600I250000J0D01*
G01*
X150812400Y-119489600D01*
G75*
G02*
X151062400Y-119739600I0J-250000D01*
G01*
X151062400Y-120239600D01*
G75*
G02*
X150812400Y-120489600I-250000J0D01*
G01*
X149212400Y-120489600D01*
G75*
G02*
X148962400Y-120239600I0J250000D01*
G01*
G37*
G36*
G01*
X148962400Y-118969600D02*
X148962400Y-118469600D01*
G75*
G02*
X149212400Y-118219600I250000J0D01*
G01*
X150812400Y-118219600D01*
G75*
G02*
X151062400Y-118469600I0J-250000D01*
G01*
X151062400Y-118969600D01*
G75*
G02*
X150812400Y-119219600I-250000J0D01*
G01*
X149212400Y-119219600D01*
G75*
G02*
X148962400Y-118969600I0J250000D01*
G01*
G37*
G36*
G01*
X148962400Y-117699600D02*
X148962400Y-117199600D01*
G75*
G02*
X149212400Y-116949600I250000J0D01*
G01*
X150812400Y-116949600D01*
G75*
G02*
X151062400Y-117199600I0J-250000D01*
G01*
X151062400Y-117699600D01*
G75*
G02*
X150812400Y-117949600I-250000J0D01*
G01*
X149212400Y-117949600D01*
G75*
G02*
X148962400Y-117699600I0J250000D01*
G01*
G37*
G36*
G01*
X148962400Y-116429600D02*
X148962400Y-115929600D01*
G75*
G02*
X149212400Y-115679600I250000J0D01*
G01*
X150812400Y-115679600D01*
G75*
G02*
X151062400Y-115929600I0J-250000D01*
G01*
X151062400Y-116429600D01*
G75*
G02*
X150812400Y-116679600I-250000J0D01*
G01*
X149212400Y-116679600D01*
G75*
G02*
X148962400Y-116429600I0J250000D01*
G01*
G37*
G36*
G01*
X148962400Y-115159600D02*
X148962400Y-114659600D01*
G75*
G02*
X149212400Y-114409600I250000J0D01*
G01*
X150812400Y-114409600D01*
G75*
G02*
X151062400Y-114659600I0J-250000D01*
G01*
X151062400Y-115159600D01*
G75*
G02*
X150812400Y-115409600I-250000J0D01*
G01*
X149212400Y-115409600D01*
G75*
G02*
X148962400Y-115159600I0J250000D01*
G01*
G37*
G36*
G01*
X148962400Y-113889600D02*
X148962400Y-113389600D01*
G75*
G02*
X149212400Y-113139600I250000J0D01*
G01*
X150812400Y-113139600D01*
G75*
G02*
X151062400Y-113389600I0J-250000D01*
G01*
X151062400Y-113889600D01*
G75*
G02*
X150812400Y-114139600I-250000J0D01*
G01*
X149212400Y-114139600D01*
G75*
G02*
X148962400Y-113889600I0J250000D01*
G01*
G37*
G36*
G01*
X148962400Y-112619600D02*
X148962400Y-112119600D01*
G75*
G02*
X149212400Y-111869600I250000J0D01*
G01*
X150812400Y-111869600D01*
G75*
G02*
X151062400Y-112119600I0J-250000D01*
G01*
X151062400Y-112619600D01*
G75*
G02*
X150812400Y-112869600I-250000J0D01*
G01*
X149212400Y-112869600D01*
G75*
G02*
X148962400Y-112619600I0J250000D01*
G01*
G37*
G36*
G01*
X148962400Y-111349600D02*
X148962400Y-110849600D01*
G75*
G02*
X149212400Y-110599600I250000J0D01*
G01*
X150812400Y-110599600D01*
G75*
G02*
X151062400Y-110849600I0J-250000D01*
G01*
X151062400Y-111349600D01*
G75*
G02*
X150812400Y-111599600I-250000J0D01*
G01*
X149212400Y-111599600D01*
G75*
G02*
X148962400Y-111349600I0J250000D01*
G01*
G37*
G36*
G01*
X148962400Y-110079600D02*
X148962400Y-109579600D01*
G75*
G02*
X149212400Y-109329600I250000J0D01*
G01*
X150812400Y-109329600D01*
G75*
G02*
X151062400Y-109579600I0J-250000D01*
G01*
X151062400Y-110079600D01*
G75*
G02*
X150812400Y-110329600I-250000J0D01*
G01*
X149212400Y-110329600D01*
G75*
G02*
X148962400Y-110079600I0J250000D01*
G01*
G37*
G36*
G01*
X148962400Y-108809600D02*
X148962400Y-108309600D01*
G75*
G02*
X149212400Y-108059600I250000J0D01*
G01*
X150812400Y-108059600D01*
G75*
G02*
X151062400Y-108309600I0J-250000D01*
G01*
X151062400Y-108809600D01*
G75*
G02*
X150812400Y-109059600I-250000J0D01*
G01*
X149212400Y-109059600D01*
G75*
G02*
X148962400Y-108809600I0J250000D01*
G01*
G37*
G36*
G01*
X148962400Y-107539600D02*
X148962400Y-107039600D01*
G75*
G02*
X149212400Y-106789600I250000J0D01*
G01*
X150812400Y-106789600D01*
G75*
G02*
X151062400Y-107039600I0J-250000D01*
G01*
X151062400Y-107539600D01*
G75*
G02*
X150812400Y-107789600I-250000J0D01*
G01*
X149212400Y-107789600D01*
G75*
G02*
X148962400Y-107539600I0J250000D01*
G01*
G37*
G36*
G01*
X148962400Y-106269600D02*
X148962400Y-105769600D01*
G75*
G02*
X149212400Y-105519600I250000J0D01*
G01*
X150812400Y-105519600D01*
G75*
G02*
X151062400Y-105769600I0J-250000D01*
G01*
X151062400Y-106269600D01*
G75*
G02*
X150812400Y-106519600I-250000J0D01*
G01*
X149212400Y-106519600D01*
G75*
G02*
X148962400Y-106269600I0J250000D01*
G01*
G37*
%TD*%
%TO.C,R2*%
G36*
G01*
X146156500Y-135608750D02*
X146156500Y-136171250D01*
G75*
G02*
X145912750Y-136415000I-243750J0D01*
G01*
X145425250Y-136415000D01*
G75*
G02*
X145181500Y-136171250I0J243750D01*
G01*
X145181500Y-135608750D01*
G75*
G02*
X145425250Y-135365000I243750J0D01*
G01*
X145912750Y-135365000D01*
G75*
G02*
X146156500Y-135608750I0J-243750D01*
G01*
G37*
G36*
G01*
X147731500Y-135608750D02*
X147731500Y-136171250D01*
G75*
G02*
X147487750Y-136415000I-243750J0D01*
G01*
X147000250Y-136415000D01*
G75*
G02*
X146756500Y-136171250I0J243750D01*
G01*
X146756500Y-135608750D01*
G75*
G02*
X147000250Y-135365000I243750J0D01*
G01*
X147487750Y-135365000D01*
G75*
G02*
X147731500Y-135608750I0J-243750D01*
G01*
G37*
%TD*%
D10*
%TO.C,U1*%
X133765000Y-133604000D03*
X133765000Y-134554000D03*
X133765000Y-135504000D03*
X131445000Y-135504000D03*
X131445000Y-134554000D03*
X131445000Y-133604000D03*
%TD*%
D11*
%TO.C,J3*%
X127000000Y-129540000D03*
X129540000Y-129540000D03*
X127000000Y-127000000D03*
X129540000Y-127000000D03*
X127000000Y-124460000D03*
X129540000Y-124460000D03*
X127000000Y-121920000D03*
X129540000Y-121920000D03*
X127000000Y-119380000D03*
X129540000Y-119380000D03*
X127000000Y-116840000D03*
X129540000Y-116840000D03*
X127000000Y-114300000D03*
X129540000Y-114300000D03*
X127000000Y-111760000D03*
X129540000Y-111760000D03*
X127000000Y-109220000D03*
X129540000Y-109220000D03*
X127000000Y-106680000D03*
D12*
X129540000Y-106680000D03*
%TD*%
D11*
%TO.C,J2*%
X152400000Y-129540000D03*
X154940000Y-129540000D03*
X152400000Y-127000000D03*
X154940000Y-127000000D03*
X152400000Y-124460000D03*
X154940000Y-124460000D03*
X152400000Y-121920000D03*
X154940000Y-121920000D03*
X152400000Y-119380000D03*
X154940000Y-119380000D03*
X152400000Y-116840000D03*
X154940000Y-116840000D03*
X152400000Y-114300000D03*
X154940000Y-114300000D03*
X152400000Y-111760000D03*
X154940000Y-111760000D03*
X152400000Y-109220000D03*
X154940000Y-109220000D03*
X152400000Y-106680000D03*
D12*
X154940000Y-106680000D03*
%TD*%
D13*
%TO.C,U2*%
X141717000Y-134493000D03*
G36*
G01*
X140154500Y-135918000D02*
X139404500Y-135918000D01*
G75*
G02*
X139317000Y-135830500I0J87500D01*
G01*
X139317000Y-135655500D01*
G75*
G02*
X139404500Y-135568000I87500J0D01*
G01*
X140154500Y-135568000D01*
G75*
G02*
X140242000Y-135655500I0J-87500D01*
G01*
X140242000Y-135830500D01*
G75*
G02*
X140154500Y-135918000I-87500J0D01*
G01*
G37*
G36*
G01*
X140154500Y-135418000D02*
X139404500Y-135418000D01*
G75*
G02*
X139317000Y-135330500I0J87500D01*
G01*
X139317000Y-135155500D01*
G75*
G02*
X139404500Y-135068000I87500J0D01*
G01*
X140154500Y-135068000D01*
G75*
G02*
X140242000Y-135155500I0J-87500D01*
G01*
X140242000Y-135330500D01*
G75*
G02*
X140154500Y-135418000I-87500J0D01*
G01*
G37*
G36*
G01*
X140154500Y-134918000D02*
X139404500Y-134918000D01*
G75*
G02*
X139317000Y-134830500I0J87500D01*
G01*
X139317000Y-134655500D01*
G75*
G02*
X139404500Y-134568000I87500J0D01*
G01*
X140154500Y-134568000D01*
G75*
G02*
X140242000Y-134655500I0J-87500D01*
G01*
X140242000Y-134830500D01*
G75*
G02*
X140154500Y-134918000I-87500J0D01*
G01*
G37*
G36*
G01*
X140154500Y-134418000D02*
X139404500Y-134418000D01*
G75*
G02*
X139317000Y-134330500I0J87500D01*
G01*
X139317000Y-134155500D01*
G75*
G02*
X139404500Y-134068000I87500J0D01*
G01*
X140154500Y-134068000D01*
G75*
G02*
X140242000Y-134155500I0J-87500D01*
G01*
X140242000Y-134330500D01*
G75*
G02*
X140154500Y-134418000I-87500J0D01*
G01*
G37*
G36*
G01*
X140154500Y-133918000D02*
X139404500Y-133918000D01*
G75*
G02*
X139317000Y-133830500I0J87500D01*
G01*
X139317000Y-133655500D01*
G75*
G02*
X139404500Y-133568000I87500J0D01*
G01*
X140154500Y-133568000D01*
G75*
G02*
X140242000Y-133655500I0J-87500D01*
G01*
X140242000Y-133830500D01*
G75*
G02*
X140154500Y-133918000I-87500J0D01*
G01*
G37*
G36*
G01*
X140154500Y-133418000D02*
X139404500Y-133418000D01*
G75*
G02*
X139317000Y-133330500I0J87500D01*
G01*
X139317000Y-133155500D01*
G75*
G02*
X139404500Y-133068000I87500J0D01*
G01*
X140154500Y-133068000D01*
G75*
G02*
X140242000Y-133155500I0J-87500D01*
G01*
X140242000Y-133330500D01*
G75*
G02*
X140154500Y-133418000I-87500J0D01*
G01*
G37*
G36*
G01*
X140554500Y-133018000D02*
X140379500Y-133018000D01*
G75*
G02*
X140292000Y-132930500I0J87500D01*
G01*
X140292000Y-132180500D01*
G75*
G02*
X140379500Y-132093000I87500J0D01*
G01*
X140554500Y-132093000D01*
G75*
G02*
X140642000Y-132180500I0J-87500D01*
G01*
X140642000Y-132930500D01*
G75*
G02*
X140554500Y-133018000I-87500J0D01*
G01*
G37*
G36*
G01*
X141054500Y-133018000D02*
X140879500Y-133018000D01*
G75*
G02*
X140792000Y-132930500I0J87500D01*
G01*
X140792000Y-132180500D01*
G75*
G02*
X140879500Y-132093000I87500J0D01*
G01*
X141054500Y-132093000D01*
G75*
G02*
X141142000Y-132180500I0J-87500D01*
G01*
X141142000Y-132930500D01*
G75*
G02*
X141054500Y-133018000I-87500J0D01*
G01*
G37*
G36*
G01*
X141554500Y-133018000D02*
X141379500Y-133018000D01*
G75*
G02*
X141292000Y-132930500I0J87500D01*
G01*
X141292000Y-132180500D01*
G75*
G02*
X141379500Y-132093000I87500J0D01*
G01*
X141554500Y-132093000D01*
G75*
G02*
X141642000Y-132180500I0J-87500D01*
G01*
X141642000Y-132930500D01*
G75*
G02*
X141554500Y-133018000I-87500J0D01*
G01*
G37*
G36*
G01*
X142054500Y-133018000D02*
X141879500Y-133018000D01*
G75*
G02*
X141792000Y-132930500I0J87500D01*
G01*
X141792000Y-132180500D01*
G75*
G02*
X141879500Y-132093000I87500J0D01*
G01*
X142054500Y-132093000D01*
G75*
G02*
X142142000Y-132180500I0J-87500D01*
G01*
X142142000Y-132930500D01*
G75*
G02*
X142054500Y-133018000I-87500J0D01*
G01*
G37*
G36*
G01*
X142554500Y-133018000D02*
X142379500Y-133018000D01*
G75*
G02*
X142292000Y-132930500I0J87500D01*
G01*
X142292000Y-132180500D01*
G75*
G02*
X142379500Y-132093000I87500J0D01*
G01*
X142554500Y-132093000D01*
G75*
G02*
X142642000Y-132180500I0J-87500D01*
G01*
X142642000Y-132930500D01*
G75*
G02*
X142554500Y-133018000I-87500J0D01*
G01*
G37*
G36*
G01*
X143054500Y-133018000D02*
X142879500Y-133018000D01*
G75*
G02*
X142792000Y-132930500I0J87500D01*
G01*
X142792000Y-132180500D01*
G75*
G02*
X142879500Y-132093000I87500J0D01*
G01*
X143054500Y-132093000D01*
G75*
G02*
X143142000Y-132180500I0J-87500D01*
G01*
X143142000Y-132930500D01*
G75*
G02*
X143054500Y-133018000I-87500J0D01*
G01*
G37*
G36*
G01*
X144029500Y-133418000D02*
X143279500Y-133418000D01*
G75*
G02*
X143192000Y-133330500I0J87500D01*
G01*
X143192000Y-133155500D01*
G75*
G02*
X143279500Y-133068000I87500J0D01*
G01*
X144029500Y-133068000D01*
G75*
G02*
X144117000Y-133155500I0J-87500D01*
G01*
X144117000Y-133330500D01*
G75*
G02*
X144029500Y-133418000I-87500J0D01*
G01*
G37*
G36*
G01*
X144029500Y-133918000D02*
X143279500Y-133918000D01*
G75*
G02*
X143192000Y-133830500I0J87500D01*
G01*
X143192000Y-133655500D01*
G75*
G02*
X143279500Y-133568000I87500J0D01*
G01*
X144029500Y-133568000D01*
G75*
G02*
X144117000Y-133655500I0J-87500D01*
G01*
X144117000Y-133830500D01*
G75*
G02*
X144029500Y-133918000I-87500J0D01*
G01*
G37*
G36*
G01*
X144029500Y-134418000D02*
X143279500Y-134418000D01*
G75*
G02*
X143192000Y-134330500I0J87500D01*
G01*
X143192000Y-134155500D01*
G75*
G02*
X143279500Y-134068000I87500J0D01*
G01*
X144029500Y-134068000D01*
G75*
G02*
X144117000Y-134155500I0J-87500D01*
G01*
X144117000Y-134330500D01*
G75*
G02*
X144029500Y-134418000I-87500J0D01*
G01*
G37*
G36*
G01*
X144029500Y-134918000D02*
X143279500Y-134918000D01*
G75*
G02*
X143192000Y-134830500I0J87500D01*
G01*
X143192000Y-134655500D01*
G75*
G02*
X143279500Y-134568000I87500J0D01*
G01*
X144029500Y-134568000D01*
G75*
G02*
X144117000Y-134655500I0J-87500D01*
G01*
X144117000Y-134830500D01*
G75*
G02*
X144029500Y-134918000I-87500J0D01*
G01*
G37*
G36*
G01*
X144029500Y-135418000D02*
X143279500Y-135418000D01*
G75*
G02*
X143192000Y-135330500I0J87500D01*
G01*
X143192000Y-135155500D01*
G75*
G02*
X143279500Y-135068000I87500J0D01*
G01*
X144029500Y-135068000D01*
G75*
G02*
X144117000Y-135155500I0J-87500D01*
G01*
X144117000Y-135330500D01*
G75*
G02*
X144029500Y-135418000I-87500J0D01*
G01*
G37*
G36*
G01*
X144029500Y-135918000D02*
X143279500Y-135918000D01*
G75*
G02*
X143192000Y-135830500I0J87500D01*
G01*
X143192000Y-135655500D01*
G75*
G02*
X143279500Y-135568000I87500J0D01*
G01*
X144029500Y-135568000D01*
G75*
G02*
X144117000Y-135655500I0J-87500D01*
G01*
X144117000Y-135830500D01*
G75*
G02*
X144029500Y-135918000I-87500J0D01*
G01*
G37*
G36*
G01*
X143054500Y-136893000D02*
X142879500Y-136893000D01*
G75*
G02*
X142792000Y-136805500I0J87500D01*
G01*
X142792000Y-136055500D01*
G75*
G02*
X142879500Y-135968000I87500J0D01*
G01*
X143054500Y-135968000D01*
G75*
G02*
X143142000Y-136055500I0J-87500D01*
G01*
X143142000Y-136805500D01*
G75*
G02*
X143054500Y-136893000I-87500J0D01*
G01*
G37*
G36*
G01*
X142554500Y-136893000D02*
X142379500Y-136893000D01*
G75*
G02*
X142292000Y-136805500I0J87500D01*
G01*
X142292000Y-136055500D01*
G75*
G02*
X142379500Y-135968000I87500J0D01*
G01*
X142554500Y-135968000D01*
G75*
G02*
X142642000Y-136055500I0J-87500D01*
G01*
X142642000Y-136805500D01*
G75*
G02*
X142554500Y-136893000I-87500J0D01*
G01*
G37*
G36*
G01*
X142054500Y-136893000D02*
X141879500Y-136893000D01*
G75*
G02*
X141792000Y-136805500I0J87500D01*
G01*
X141792000Y-136055500D01*
G75*
G02*
X141879500Y-135968000I87500J0D01*
G01*
X142054500Y-135968000D01*
G75*
G02*
X142142000Y-136055500I0J-87500D01*
G01*
X142142000Y-136805500D01*
G75*
G02*
X142054500Y-136893000I-87500J0D01*
G01*
G37*
G36*
G01*
X141554500Y-136893000D02*
X141379500Y-136893000D01*
G75*
G02*
X141292000Y-136805500I0J87500D01*
G01*
X141292000Y-136055500D01*
G75*
G02*
X141379500Y-135968000I87500J0D01*
G01*
X141554500Y-135968000D01*
G75*
G02*
X141642000Y-136055500I0J-87500D01*
G01*
X141642000Y-136805500D01*
G75*
G02*
X141554500Y-136893000I-87500J0D01*
G01*
G37*
G36*
G01*
X141054500Y-136893000D02*
X140879500Y-136893000D01*
G75*
G02*
X140792000Y-136805500I0J87500D01*
G01*
X140792000Y-136055500D01*
G75*
G02*
X140879500Y-135968000I87500J0D01*
G01*
X141054500Y-135968000D01*
G75*
G02*
X141142000Y-136055500I0J-87500D01*
G01*
X141142000Y-136805500D01*
G75*
G02*
X141054500Y-136893000I-87500J0D01*
G01*
G37*
G36*
G01*
X140554500Y-136893000D02*
X140379500Y-136893000D01*
G75*
G02*
X140292000Y-136805500I0J87500D01*
G01*
X140292000Y-136055500D01*
G75*
G02*
X140379500Y-135968000I87500J0D01*
G01*
X140554500Y-135968000D01*
G75*
G02*
X140642000Y-136055500I0J-87500D01*
G01*
X140642000Y-136805500D01*
G75*
G02*
X140554500Y-136893000I-87500J0D01*
G01*
G37*
%TD*%
%TO.C,R6*%
G36*
G01*
X128417500Y-136044250D02*
X128417500Y-135481750D01*
G75*
G02*
X128661250Y-135238000I243750J0D01*
G01*
X129148750Y-135238000D01*
G75*
G02*
X129392500Y-135481750I0J-243750D01*
G01*
X129392500Y-136044250D01*
G75*
G02*
X129148750Y-136288000I-243750J0D01*
G01*
X128661250Y-136288000D01*
G75*
G02*
X128417500Y-136044250I0J243750D01*
G01*
G37*
G36*
G01*
X126842500Y-136044250D02*
X126842500Y-135481750D01*
G75*
G02*
X127086250Y-135238000I243750J0D01*
G01*
X127573750Y-135238000D01*
G75*
G02*
X127817500Y-135481750I0J-243750D01*
G01*
X127817500Y-136044250D01*
G75*
G02*
X127573750Y-136288000I-243750J0D01*
G01*
X127086250Y-136288000D01*
G75*
G02*
X126842500Y-136044250I0J243750D01*
G01*
G37*
%TD*%
%TO.C,R5*%
G36*
G01*
X128417500Y-133631250D02*
X128417500Y-133068750D01*
G75*
G02*
X128661250Y-132825000I243750J0D01*
G01*
X129148750Y-132825000D01*
G75*
G02*
X129392500Y-133068750I0J-243750D01*
G01*
X129392500Y-133631250D01*
G75*
G02*
X129148750Y-133875000I-243750J0D01*
G01*
X128661250Y-133875000D01*
G75*
G02*
X128417500Y-133631250I0J243750D01*
G01*
G37*
G36*
G01*
X126842500Y-133631250D02*
X126842500Y-133068750D01*
G75*
G02*
X127086250Y-132825000I243750J0D01*
G01*
X127573750Y-132825000D01*
G75*
G02*
X127817500Y-133068750I0J-243750D01*
G01*
X127817500Y-133631250D01*
G75*
G02*
X127573750Y-133875000I-243750J0D01*
G01*
X127086250Y-133875000D01*
G75*
G02*
X126842500Y-133631250I0J243750D01*
G01*
G37*
%TD*%
%TO.C,R1*%
G36*
G01*
X137180500Y-136044250D02*
X137180500Y-135481750D01*
G75*
G02*
X137424250Y-135238000I243750J0D01*
G01*
X137911750Y-135238000D01*
G75*
G02*
X138155500Y-135481750I0J-243750D01*
G01*
X138155500Y-136044250D01*
G75*
G02*
X137911750Y-136288000I-243750J0D01*
G01*
X137424250Y-136288000D01*
G75*
G02*
X137180500Y-136044250I0J243750D01*
G01*
G37*
G36*
G01*
X135605500Y-136044250D02*
X135605500Y-135481750D01*
G75*
G02*
X135849250Y-135238000I243750J0D01*
G01*
X136336750Y-135238000D01*
G75*
G02*
X136580500Y-135481750I0J-243750D01*
G01*
X136580500Y-136044250D01*
G75*
G02*
X136336750Y-136288000I-243750J0D01*
G01*
X135849250Y-136288000D01*
G75*
G02*
X135605500Y-136044250I0J243750D01*
G01*
G37*
%TD*%
%TO.C,C2*%
G36*
G01*
X136580500Y-133068750D02*
X136580500Y-133631250D01*
G75*
G02*
X136336750Y-133875000I-243750J0D01*
G01*
X135849250Y-133875000D01*
G75*
G02*
X135605500Y-133631250I0J243750D01*
G01*
X135605500Y-133068750D01*
G75*
G02*
X135849250Y-132825000I243750J0D01*
G01*
X136336750Y-132825000D01*
G75*
G02*
X136580500Y-133068750I0J-243750D01*
G01*
G37*
G36*
G01*
X138155500Y-133068750D02*
X138155500Y-133631250D01*
G75*
G02*
X137911750Y-133875000I-243750J0D01*
G01*
X137424250Y-133875000D01*
G75*
G02*
X137180500Y-133631250I0J243750D01*
G01*
X137180500Y-133068750D01*
G75*
G02*
X137424250Y-132825000I243750J0D01*
G01*
X137911750Y-132825000D01*
G75*
G02*
X138155500Y-133068750I0J-243750D01*
G01*
G37*
%TD*%
%TO.C,C1*%
G36*
G01*
X146756500Y-133631250D02*
X146756500Y-133068750D01*
G75*
G02*
X147000250Y-132825000I243750J0D01*
G01*
X147487750Y-132825000D01*
G75*
G02*
X147731500Y-133068750I0J-243750D01*
G01*
X147731500Y-133631250D01*
G75*
G02*
X147487750Y-133875000I-243750J0D01*
G01*
X147000250Y-133875000D01*
G75*
G02*
X146756500Y-133631250I0J243750D01*
G01*
G37*
G36*
G01*
X145181500Y-133631250D02*
X145181500Y-133068750D01*
G75*
G02*
X145425250Y-132825000I243750J0D01*
G01*
X145912750Y-132825000D01*
G75*
G02*
X146156500Y-133068750I0J-243750D01*
G01*
X146156500Y-133631250D01*
G75*
G02*
X145912750Y-133875000I-243750J0D01*
G01*
X145425250Y-133875000D01*
G75*
G02*
X145181500Y-133631250I0J243750D01*
G01*
G37*
%TD*%
D14*
%TO.C,U3*%
X154242800Y-139064600D03*
X149642800Y-139064600D03*
X151942800Y-139064600D03*
D15*
X151942800Y-145364600D03*
%TD*%
D16*
%TO.C,SW1*%
X134569000Y-145089000D03*
X134569000Y-140589000D03*
X126619000Y-140589000D03*
X126619000Y-145089000D03*
%TD*%
D17*
%TO.C,J1*%
X144220000Y-140227000D03*
X143420000Y-140227000D03*
X138520000Y-140227000D03*
X137720000Y-140227000D03*
X137720000Y-140227000D03*
X138520000Y-140227000D03*
X143420000Y-140227000D03*
X144220000Y-140227000D03*
D18*
X139220000Y-140227000D03*
X139720000Y-140227000D03*
X140220000Y-140227000D03*
X141220000Y-140227000D03*
X141720000Y-140227000D03*
X142220000Y-140227000D03*
X142720000Y-140227000D03*
X140720000Y-140227000D03*
D19*
X145290000Y-141142000D03*
X136650000Y-141142000D03*
D20*
X138080000Y-141672000D03*
D21*
X136650000Y-145322000D03*
D20*
X143860000Y-141672000D03*
D21*
X145290000Y-145322000D03*
%TD*%
%TO.C,C7*%
G36*
G01*
X154528900Y-136196650D02*
X154528900Y-135634150D01*
G75*
G02*
X154772650Y-135390400I243750J0D01*
G01*
X155260150Y-135390400D01*
G75*
G02*
X155503900Y-135634150I0J-243750D01*
G01*
X155503900Y-136196650D01*
G75*
G02*
X155260150Y-136440400I-243750J0D01*
G01*
X154772650Y-136440400D01*
G75*
G02*
X154528900Y-136196650I0J243750D01*
G01*
G37*
G36*
G01*
X152953900Y-136196650D02*
X152953900Y-135634150D01*
G75*
G02*
X153197650Y-135390400I243750J0D01*
G01*
X153685150Y-135390400D01*
G75*
G02*
X153928900Y-135634150I0J-243750D01*
G01*
X153928900Y-136196650D01*
G75*
G02*
X153685150Y-136440400I-243750J0D01*
G01*
X153197650Y-136440400D01*
G75*
G02*
X152953900Y-136196650I0J243750D01*
G01*
G37*
%TD*%
%TO.C,C6*%
G36*
G01*
X154477900Y-133656650D02*
X154477900Y-133094150D01*
G75*
G02*
X154721650Y-132850400I243750J0D01*
G01*
X155209150Y-132850400D01*
G75*
G02*
X155452900Y-133094150I0J-243750D01*
G01*
X155452900Y-133656650D01*
G75*
G02*
X155209150Y-133900400I-243750J0D01*
G01*
X154721650Y-133900400D01*
G75*
G02*
X154477900Y-133656650I0J243750D01*
G01*
G37*
G36*
G01*
X152902900Y-133656650D02*
X152902900Y-133094150D01*
G75*
G02*
X153146650Y-132850400I243750J0D01*
G01*
X153634150Y-132850400D01*
G75*
G02*
X153877900Y-133094150I0J-243750D01*
G01*
X153877900Y-133656650D01*
G75*
G02*
X153634150Y-133900400I-243750J0D01*
G01*
X153146650Y-133900400D01*
G75*
G02*
X152902900Y-133656650I0J243750D01*
G01*
G37*
%TD*%
%TO.C,C5*%
G36*
G01*
X150439400Y-133656650D02*
X150439400Y-133094150D01*
G75*
G02*
X150683150Y-132850400I243750J0D01*
G01*
X151170650Y-132850400D01*
G75*
G02*
X151414400Y-133094150I0J-243750D01*
G01*
X151414400Y-133656650D01*
G75*
G02*
X151170650Y-133900400I-243750J0D01*
G01*
X150683150Y-133900400D01*
G75*
G02*
X150439400Y-133656650I0J243750D01*
G01*
G37*
G36*
G01*
X148864400Y-133656650D02*
X148864400Y-133094150D01*
G75*
G02*
X149108150Y-132850400I243750J0D01*
G01*
X149595650Y-132850400D01*
G75*
G02*
X149839400Y-133094150I0J-243750D01*
G01*
X149839400Y-133656650D01*
G75*
G02*
X149595650Y-133900400I-243750J0D01*
G01*
X149108150Y-133900400D01*
G75*
G02*
X148864400Y-133656650I0J243750D01*
G01*
G37*
%TD*%
%TO.C,C4*%
G36*
G01*
X150413900Y-136196650D02*
X150413900Y-135634150D01*
G75*
G02*
X150657650Y-135390400I243750J0D01*
G01*
X151145150Y-135390400D01*
G75*
G02*
X151388900Y-135634150I0J-243750D01*
G01*
X151388900Y-136196650D01*
G75*
G02*
X151145150Y-136440400I-243750J0D01*
G01*
X150657650Y-136440400D01*
G75*
G02*
X150413900Y-136196650I0J243750D01*
G01*
G37*
G36*
G01*
X148838900Y-136196650D02*
X148838900Y-135634150D01*
G75*
G02*
X149082650Y-135390400I243750J0D01*
G01*
X149570150Y-135390400D01*
G75*
G02*
X149813900Y-135634150I0J-243750D01*
G01*
X149813900Y-136196650D01*
G75*
G02*
X149570150Y-136440400I-243750J0D01*
G01*
X149082650Y-136440400D01*
G75*
G02*
X148838900Y-136196650I0J243750D01*
G01*
G37*
%TD*%
M02*
