%TF.GenerationSoftware,KiCad,Pcbnew,(5.1.6-0-10_14)*%
%TF.CreationDate,2020-08-21T01:25:04+02:00*%
%TF.ProjectId,USBCWrover,55534243-5772-46f7-9665-722e6b696361,rev?*%
%TF.SameCoordinates,Original*%
%TF.FileFunction,Legend,Top*%
%TF.FilePolarity,Positive*%
%FSLAX46Y46*%
G04 Gerber Fmt 4.6, Leading zero omitted, Abs format (unit mm)*
G04 Created by KiCad (PCBNEW (5.1.6-0-10_14)) date 2020-08-21 01:25:04*
%MOMM*%
%LPD*%
G01*
G04 APERTURE LIST*
%ADD10C,0.150000*%
%ADD11C,0.120000*%
%ADD12C,0.050000*%
G04 APERTURE END LIST*
D10*
X128428904Y-137231380D02*
X128095571Y-136755190D01*
X127857476Y-137231380D02*
X127857476Y-136231380D01*
X128238428Y-136231380D01*
X128333666Y-136279000D01*
X128381285Y-136326619D01*
X128428904Y-136421857D01*
X128428904Y-136564714D01*
X128381285Y-136659952D01*
X128333666Y-136707571D01*
X128238428Y-136755190D01*
X127857476Y-136755190D01*
X129238428Y-137183761D02*
X129143190Y-137231380D01*
X128952714Y-137231380D01*
X128857476Y-137183761D01*
X128809857Y-137088523D01*
X128809857Y-136707571D01*
X128857476Y-136612333D01*
X128952714Y-136564714D01*
X129143190Y-136564714D01*
X129238428Y-136612333D01*
X129286047Y-136707571D01*
X129286047Y-136802809D01*
X128809857Y-136898047D01*
X129667000Y-137183761D02*
X129762238Y-137231380D01*
X129952714Y-137231380D01*
X130047952Y-137183761D01*
X130095571Y-137088523D01*
X130095571Y-137040904D01*
X130047952Y-136945666D01*
X129952714Y-136898047D01*
X129809857Y-136898047D01*
X129714619Y-136850428D01*
X129667000Y-136755190D01*
X129667000Y-136707571D01*
X129714619Y-136612333D01*
X129809857Y-136564714D01*
X129952714Y-136564714D01*
X130047952Y-136612333D01*
X130905095Y-137183761D02*
X130809857Y-137231380D01*
X130619380Y-137231380D01*
X130524142Y-137183761D01*
X130476523Y-137088523D01*
X130476523Y-136707571D01*
X130524142Y-136612333D01*
X130619380Y-136564714D01*
X130809857Y-136564714D01*
X130905095Y-136612333D01*
X130952714Y-136707571D01*
X130952714Y-136802809D01*
X130476523Y-136898047D01*
X131238428Y-136564714D02*
X131619380Y-136564714D01*
X131381285Y-136231380D02*
X131381285Y-137088523D01*
X131428904Y-137183761D01*
X131524142Y-137231380D01*
X131619380Y-137231380D01*
X136477952Y-109165761D02*
X136954142Y-111165761D01*
X137335095Y-109737190D01*
X137716047Y-111165761D01*
X138192238Y-109165761D01*
X138954142Y-111165761D02*
X138954142Y-109832428D01*
X138954142Y-110213380D02*
X139049380Y-110022904D01*
X139144619Y-109927666D01*
X139335095Y-109832428D01*
X139525571Y-109832428D01*
X140477952Y-111165761D02*
X140287476Y-111070523D01*
X140192238Y-110975285D01*
X140097000Y-110784809D01*
X140097000Y-110213380D01*
X140192238Y-110022904D01*
X140287476Y-109927666D01*
X140477952Y-109832428D01*
X140763666Y-109832428D01*
X140954142Y-109927666D01*
X141049380Y-110022904D01*
X141144619Y-110213380D01*
X141144619Y-110784809D01*
X141049380Y-110975285D01*
X140954142Y-111070523D01*
X140763666Y-111165761D01*
X140477952Y-111165761D01*
X142287476Y-111165761D02*
X142097000Y-111070523D01*
X142001761Y-110975285D01*
X141906523Y-110784809D01*
X141906523Y-110213380D01*
X142001761Y-110022904D01*
X142097000Y-109927666D01*
X142287476Y-109832428D01*
X142573190Y-109832428D01*
X142763666Y-109927666D01*
X142858904Y-110022904D01*
X142954142Y-110213380D01*
X142954142Y-110784809D01*
X142858904Y-110975285D01*
X142763666Y-111070523D01*
X142573190Y-111165761D01*
X142287476Y-111165761D01*
X143811285Y-111165761D02*
X143811285Y-109832428D01*
X143811285Y-110022904D02*
X143906523Y-109927666D01*
X144097000Y-109832428D01*
X144382714Y-109832428D01*
X144573190Y-109927666D01*
X144668428Y-110118142D01*
X144668428Y-111165761D01*
X144668428Y-110118142D02*
X144763666Y-109927666D01*
X144954142Y-109832428D01*
X145239857Y-109832428D01*
X145430333Y-109927666D01*
X145525571Y-110118142D01*
X145525571Y-111165761D01*
X141954142Y-112220523D02*
X140239857Y-114791952D01*
X136477952Y-115465761D02*
X136954142Y-117465761D01*
X137335095Y-116037190D01*
X137716047Y-117465761D01*
X138192238Y-115465761D01*
X138954142Y-117465761D02*
X138954142Y-116132428D01*
X138954142Y-116513380D02*
X139049380Y-116322904D01*
X139144619Y-116227666D01*
X139335095Y-116132428D01*
X139525571Y-116132428D01*
X140477952Y-117465761D02*
X140287476Y-117370523D01*
X140192238Y-117275285D01*
X140097000Y-117084809D01*
X140097000Y-116513380D01*
X140192238Y-116322904D01*
X140287476Y-116227666D01*
X140477952Y-116132428D01*
X140763666Y-116132428D01*
X140954142Y-116227666D01*
X141049380Y-116322904D01*
X141144619Y-116513380D01*
X141144619Y-117084809D01*
X141049380Y-117275285D01*
X140954142Y-117370523D01*
X140763666Y-117465761D01*
X140477952Y-117465761D01*
X141811285Y-116132428D02*
X142287476Y-117465761D01*
X142763666Y-116132428D01*
X144287476Y-117370523D02*
X144097000Y-117465761D01*
X143716047Y-117465761D01*
X143525571Y-117370523D01*
X143430333Y-117180047D01*
X143430333Y-116418142D01*
X143525571Y-116227666D01*
X143716047Y-116132428D01*
X144097000Y-116132428D01*
X144287476Y-116227666D01*
X144382714Y-116418142D01*
X144382714Y-116608619D01*
X143430333Y-116799095D01*
X145239857Y-117465761D02*
X145239857Y-116132428D01*
X145239857Y-116513380D02*
X145335095Y-116322904D01*
X145430333Y-116227666D01*
X145620809Y-116132428D01*
X145811285Y-116132428D01*
X136604952Y-120991380D02*
X136604952Y-121705666D01*
X136557333Y-121848523D01*
X136462095Y-121943761D01*
X136319238Y-121991380D01*
X136224000Y-121991380D01*
X137557333Y-121991380D02*
X137081142Y-121991380D01*
X137081142Y-120991380D01*
X138462095Y-121896142D02*
X138414476Y-121943761D01*
X138271619Y-121991380D01*
X138176380Y-121991380D01*
X138033523Y-121943761D01*
X137938285Y-121848523D01*
X137890666Y-121753285D01*
X137843047Y-121562809D01*
X137843047Y-121419952D01*
X137890666Y-121229476D01*
X137938285Y-121134238D01*
X138033523Y-121039000D01*
X138176380Y-120991380D01*
X138271619Y-120991380D01*
X138414476Y-121039000D01*
X138462095Y-121086619D01*
X139176380Y-120991380D02*
X139176380Y-121705666D01*
X139128761Y-121848523D01*
X139033523Y-121943761D01*
X138890666Y-121991380D01*
X138795428Y-121991380D01*
X140128761Y-121991380D02*
X139652571Y-121991380D01*
X139652571Y-120991380D01*
X141033523Y-121896142D02*
X140985904Y-121943761D01*
X140843047Y-121991380D01*
X140747809Y-121991380D01*
X140604952Y-121943761D01*
X140509714Y-121848523D01*
X140462095Y-121753285D01*
X140414476Y-121562809D01*
X140414476Y-121419952D01*
X140462095Y-121229476D01*
X140509714Y-121134238D01*
X140604952Y-121039000D01*
X140747809Y-120991380D01*
X140843047Y-120991380D01*
X140985904Y-121039000D01*
X141033523Y-121086619D01*
X141747809Y-120991380D02*
X141747809Y-121705666D01*
X141700190Y-121848523D01*
X141604952Y-121943761D01*
X141462095Y-121991380D01*
X141366857Y-121991380D01*
X142700190Y-121991380D02*
X142224000Y-121991380D01*
X142224000Y-120991380D01*
X143604952Y-121896142D02*
X143557333Y-121943761D01*
X143414476Y-121991380D01*
X143319238Y-121991380D01*
X143176380Y-121943761D01*
X143081142Y-121848523D01*
X143033523Y-121753285D01*
X142985904Y-121562809D01*
X142985904Y-121419952D01*
X143033523Y-121229476D01*
X143081142Y-121134238D01*
X143176380Y-121039000D01*
X143319238Y-120991380D01*
X143414476Y-120991380D01*
X143557333Y-121039000D01*
X143604952Y-121086619D01*
X144319238Y-120991380D02*
X144319238Y-121705666D01*
X144271619Y-121848523D01*
X144176380Y-121943761D01*
X144033523Y-121991380D01*
X143938285Y-121991380D01*
X145271619Y-121991380D02*
X144795428Y-121991380D01*
X144795428Y-120991380D01*
X146176380Y-121896142D02*
X146128761Y-121943761D01*
X145985904Y-121991380D01*
X145890666Y-121991380D01*
X145747809Y-121943761D01*
X145652571Y-121848523D01*
X145604952Y-121753285D01*
X145557333Y-121562809D01*
X145557333Y-121419952D01*
X145604952Y-121229476D01*
X145652571Y-121134238D01*
X145747809Y-121039000D01*
X145890666Y-120991380D01*
X145985904Y-120991380D01*
X146128761Y-121039000D01*
X146176380Y-121086619D01*
X133096000Y-123126500D02*
X148907500Y-123126500D01*
D11*
%TO.C,SW1*%
X127326000Y-137643000D02*
X127326000Y-137613000D01*
X127326000Y-144073000D02*
X127326000Y-144043000D01*
X133786000Y-144073000D02*
X133786000Y-144043000D01*
X133786000Y-137613000D02*
X133786000Y-137643000D01*
D12*
%TO.C,U4*%
X131982400Y-130059600D02*
X131982400Y-104529600D01*
X131982400Y-104529600D02*
X149982400Y-104529600D01*
X149982400Y-104529600D02*
X149982400Y-130059600D01*
X149982400Y-130059600D02*
X131982400Y-130059600D01*
D11*
%TO.C,U3*%
X149976000Y-135468000D02*
X152426000Y-135468000D01*
X151776000Y-132248000D02*
X149976000Y-132248000D01*
%TO.C,R2*%
X144942779Y-134618000D02*
X144617221Y-134618000D01*
X144942779Y-135638000D02*
X144617221Y-135638000D01*
%TO.C,U1*%
X130103000Y-132065000D02*
X127803000Y-132065000D01*
X128503000Y-135265000D02*
X130103000Y-135265000D01*
%TO.C,U2*%
X138229000Y-135525500D02*
X138229000Y-136000500D01*
X142449000Y-131780500D02*
X141974000Y-131780500D01*
X142449000Y-132255500D02*
X142449000Y-131780500D01*
X142449000Y-136000500D02*
X141974000Y-136000500D01*
X142449000Y-135525500D02*
X142449000Y-136000500D01*
X138229000Y-131780500D02*
X138704000Y-131780500D01*
X138229000Y-132255500D02*
X138229000Y-131780500D01*
%TO.C,R6*%
X126875000Y-133766779D02*
X126875000Y-133441221D01*
X125855000Y-133766779D02*
X125855000Y-133441221D01*
%TO.C,R5*%
X132717000Y-133766779D02*
X132717000Y-133441221D01*
X131697000Y-133766779D02*
X131697000Y-133441221D01*
%TO.C,R1*%
X134711221Y-135603000D02*
X135036779Y-135603000D01*
X134711221Y-134583000D02*
X135036779Y-134583000D01*
%TO.C,C2*%
X135036779Y-132078000D02*
X134711221Y-132078000D01*
X135036779Y-133098000D02*
X134711221Y-133098000D01*
%TO.C,C1*%
X143508000Y-132242779D02*
X143508000Y-131917221D01*
X144528000Y-132242779D02*
X144528000Y-131917221D01*
%TO.C,C7*%
X148338000Y-132242779D02*
X148338000Y-131917221D01*
X147318000Y-132242779D02*
X147318000Y-131917221D01*
%TO.C,C6*%
X146433000Y-132242779D02*
X146433000Y-131917221D01*
X145413000Y-132242779D02*
X145413000Y-131917221D01*
%TO.C,C5*%
X154497721Y-133352000D02*
X154823279Y-133352000D01*
X154497721Y-132332000D02*
X154823279Y-132332000D01*
%TO.C,C4*%
X154523221Y-135511000D02*
X154848779Y-135511000D01*
X154523221Y-134491000D02*
X154848779Y-134491000D01*
%TO.C,SW1*%
D10*
X129222666Y-141273161D02*
X129365523Y-141320780D01*
X129603619Y-141320780D01*
X129698857Y-141273161D01*
X129746476Y-141225542D01*
X129794095Y-141130304D01*
X129794095Y-141035066D01*
X129746476Y-140939828D01*
X129698857Y-140892209D01*
X129603619Y-140844590D01*
X129413142Y-140796971D01*
X129317904Y-140749352D01*
X129270285Y-140701733D01*
X129222666Y-140606495D01*
X129222666Y-140511257D01*
X129270285Y-140416019D01*
X129317904Y-140368400D01*
X129413142Y-140320780D01*
X129651238Y-140320780D01*
X129794095Y-140368400D01*
X130127428Y-140320780D02*
X130365523Y-141320780D01*
X130556000Y-140606495D01*
X130746476Y-141320780D01*
X130984571Y-140320780D01*
X131889333Y-141320780D02*
X131317904Y-141320780D01*
X131603619Y-141320780D02*
X131603619Y-140320780D01*
X131508380Y-140463638D01*
X131413142Y-140558876D01*
X131317904Y-140606495D01*
%TO.C,J1*%
X140763666Y-141946380D02*
X140763666Y-142660666D01*
X140716047Y-142803523D01*
X140620809Y-142898761D01*
X140477952Y-142946380D01*
X140382714Y-142946380D01*
X141763666Y-142946380D02*
X141192238Y-142946380D01*
X141477952Y-142946380D02*
X141477952Y-141946380D01*
X141382714Y-142089238D01*
X141287476Y-142184476D01*
X141192238Y-142232095D01*
%TO.C,U4*%
X140120495Y-105181980D02*
X140120495Y-105991504D01*
X140168114Y-106086742D01*
X140215733Y-106134361D01*
X140310971Y-106181980D01*
X140501447Y-106181980D01*
X140596685Y-106134361D01*
X140644304Y-106086742D01*
X140691923Y-105991504D01*
X140691923Y-105181980D01*
X141596685Y-105515314D02*
X141596685Y-106181980D01*
X141358590Y-105134361D02*
X141120495Y-105848647D01*
X141739542Y-105848647D01*
%TO.C,U3*%
X150114095Y-130897380D02*
X150114095Y-131706904D01*
X150161714Y-131802142D01*
X150209333Y-131849761D01*
X150304571Y-131897380D01*
X150495047Y-131897380D01*
X150590285Y-131849761D01*
X150637904Y-131802142D01*
X150685523Y-131706904D01*
X150685523Y-130897380D01*
X151066476Y-130897380D02*
X151685523Y-130897380D01*
X151352190Y-131278333D01*
X151495047Y-131278333D01*
X151590285Y-131325952D01*
X151637904Y-131373571D01*
X151685523Y-131468809D01*
X151685523Y-131706904D01*
X151637904Y-131802142D01*
X151590285Y-131849761D01*
X151495047Y-131897380D01*
X151209333Y-131897380D01*
X151114095Y-131849761D01*
X151066476Y-131802142D01*
%TO.C,R2*%
X144613333Y-137010380D02*
X144280000Y-136534190D01*
X144041904Y-137010380D02*
X144041904Y-136010380D01*
X144422857Y-136010380D01*
X144518095Y-136058000D01*
X144565714Y-136105619D01*
X144613333Y-136200857D01*
X144613333Y-136343714D01*
X144565714Y-136438952D01*
X144518095Y-136486571D01*
X144422857Y-136534190D01*
X144041904Y-136534190D01*
X144994285Y-136105619D02*
X145041904Y-136058000D01*
X145137142Y-136010380D01*
X145375238Y-136010380D01*
X145470476Y-136058000D01*
X145518095Y-136105619D01*
X145565714Y-136200857D01*
X145565714Y-136296095D01*
X145518095Y-136438952D01*
X144946666Y-137010380D01*
X145565714Y-137010380D01*
%TO.C,U1*%
X128755380Y-134238904D02*
X129564904Y-134238904D01*
X129660142Y-134191285D01*
X129707761Y-134143666D01*
X129755380Y-134048428D01*
X129755380Y-133857952D01*
X129707761Y-133762714D01*
X129660142Y-133715095D01*
X129564904Y-133667476D01*
X128755380Y-133667476D01*
X129755380Y-132667476D02*
X129755380Y-133238904D01*
X129755380Y-132953190D02*
X128755380Y-132953190D01*
X128898238Y-133048428D01*
X128993476Y-133143666D01*
X129041095Y-133238904D01*
%TO.C,U2*%
X137033095Y-136231380D02*
X137033095Y-137040904D01*
X137080714Y-137136142D01*
X137128333Y-137183761D01*
X137223571Y-137231380D01*
X137414047Y-137231380D01*
X137509285Y-137183761D01*
X137556904Y-137136142D01*
X137604523Y-137040904D01*
X137604523Y-136231380D01*
X138033095Y-136326619D02*
X138080714Y-136279000D01*
X138175952Y-136231380D01*
X138414047Y-136231380D01*
X138509285Y-136279000D01*
X138556904Y-136326619D01*
X138604523Y-136421857D01*
X138604523Y-136517095D01*
X138556904Y-136659952D01*
X137985476Y-137231380D01*
X138604523Y-137231380D01*
%TO.C,R6*%
X126944380Y-136437666D02*
X126468190Y-136771000D01*
X126944380Y-137009095D02*
X125944380Y-137009095D01*
X125944380Y-136628142D01*
X125992000Y-136532904D01*
X126039619Y-136485285D01*
X126134857Y-136437666D01*
X126277714Y-136437666D01*
X126372952Y-136485285D01*
X126420571Y-136532904D01*
X126468190Y-136628142D01*
X126468190Y-137009095D01*
X125944380Y-135580523D02*
X125944380Y-135771000D01*
X125992000Y-135866238D01*
X126039619Y-135913857D01*
X126182476Y-136009095D01*
X126372952Y-136056714D01*
X126753904Y-136056714D01*
X126849142Y-136009095D01*
X126896761Y-135961476D01*
X126944380Y-135866238D01*
X126944380Y-135675761D01*
X126896761Y-135580523D01*
X126849142Y-135532904D01*
X126753904Y-135485285D01*
X126515809Y-135485285D01*
X126420571Y-135532904D01*
X126372952Y-135580523D01*
X126325333Y-135675761D01*
X126325333Y-135866238D01*
X126372952Y-135961476D01*
X126420571Y-136009095D01*
X126515809Y-136056714D01*
%TO.C,R5*%
X132040333Y-131516380D02*
X131707000Y-131040190D01*
X131468904Y-131516380D02*
X131468904Y-130516380D01*
X131849857Y-130516380D01*
X131945095Y-130564000D01*
X131992714Y-130611619D01*
X132040333Y-130706857D01*
X132040333Y-130849714D01*
X131992714Y-130944952D01*
X131945095Y-130992571D01*
X131849857Y-131040190D01*
X131468904Y-131040190D01*
X132945095Y-130516380D02*
X132468904Y-130516380D01*
X132421285Y-130992571D01*
X132468904Y-130944952D01*
X132564142Y-130897333D01*
X132802238Y-130897333D01*
X132897476Y-130944952D01*
X132945095Y-130992571D01*
X132992714Y-131087809D01*
X132992714Y-131325904D01*
X132945095Y-131421142D01*
X132897476Y-131468761D01*
X132802238Y-131516380D01*
X132564142Y-131516380D01*
X132468904Y-131468761D01*
X132421285Y-131421142D01*
%TO.C,R1*%
X134859833Y-137069380D02*
X134526500Y-136593190D01*
X134288404Y-137069380D02*
X134288404Y-136069380D01*
X134669357Y-136069380D01*
X134764595Y-136117000D01*
X134812214Y-136164619D01*
X134859833Y-136259857D01*
X134859833Y-136402714D01*
X134812214Y-136497952D01*
X134764595Y-136545571D01*
X134669357Y-136593190D01*
X134288404Y-136593190D01*
X135812214Y-137069380D02*
X135240785Y-137069380D01*
X135526500Y-137069380D02*
X135526500Y-136069380D01*
X135431261Y-136212238D01*
X135336023Y-136307476D01*
X135240785Y-136355095D01*
%TO.C,C2*%
X134707333Y-131421142D02*
X134659714Y-131468761D01*
X134516857Y-131516380D01*
X134421619Y-131516380D01*
X134278761Y-131468761D01*
X134183523Y-131373523D01*
X134135904Y-131278285D01*
X134088285Y-131087809D01*
X134088285Y-130944952D01*
X134135904Y-130754476D01*
X134183523Y-130659238D01*
X134278761Y-130564000D01*
X134421619Y-130516380D01*
X134516857Y-130516380D01*
X134659714Y-130564000D01*
X134707333Y-130611619D01*
X135088285Y-130611619D02*
X135135904Y-130564000D01*
X135231142Y-130516380D01*
X135469238Y-130516380D01*
X135564476Y-130564000D01*
X135612095Y-130611619D01*
X135659714Y-130706857D01*
X135659714Y-130802095D01*
X135612095Y-130944952D01*
X135040666Y-131516380D01*
X135659714Y-131516380D01*
%TO.C,C1*%
X144502142Y-129198666D02*
X144549761Y-129246285D01*
X144597380Y-129389142D01*
X144597380Y-129484380D01*
X144549761Y-129627238D01*
X144454523Y-129722476D01*
X144359285Y-129770095D01*
X144168809Y-129817714D01*
X144025952Y-129817714D01*
X143835476Y-129770095D01*
X143740238Y-129722476D01*
X143645000Y-129627238D01*
X143597380Y-129484380D01*
X143597380Y-129389142D01*
X143645000Y-129246285D01*
X143692619Y-129198666D01*
X144597380Y-128246285D02*
X144597380Y-128817714D01*
X144597380Y-128532000D02*
X143597380Y-128532000D01*
X143740238Y-128627238D01*
X143835476Y-128722476D01*
X143883095Y-128817714D01*
%TO.C,C7*%
X148185142Y-129198666D02*
X148232761Y-129246285D01*
X148280380Y-129389142D01*
X148280380Y-129484380D01*
X148232761Y-129627238D01*
X148137523Y-129722476D01*
X148042285Y-129770095D01*
X147851809Y-129817714D01*
X147708952Y-129817714D01*
X147518476Y-129770095D01*
X147423238Y-129722476D01*
X147328000Y-129627238D01*
X147280380Y-129484380D01*
X147280380Y-129389142D01*
X147328000Y-129246285D01*
X147375619Y-129198666D01*
X147280380Y-128865333D02*
X147280380Y-128198666D01*
X148280380Y-128627238D01*
%TO.C,C6*%
X146280142Y-129198666D02*
X146327761Y-129246285D01*
X146375380Y-129389142D01*
X146375380Y-129484380D01*
X146327761Y-129627238D01*
X146232523Y-129722476D01*
X146137285Y-129770095D01*
X145946809Y-129817714D01*
X145803952Y-129817714D01*
X145613476Y-129770095D01*
X145518238Y-129722476D01*
X145423000Y-129627238D01*
X145375380Y-129484380D01*
X145375380Y-129389142D01*
X145423000Y-129246285D01*
X145470619Y-129198666D01*
X145375380Y-128341523D02*
X145375380Y-128532000D01*
X145423000Y-128627238D01*
X145470619Y-128674857D01*
X145613476Y-128770095D01*
X145803952Y-128817714D01*
X146184904Y-128817714D01*
X146280142Y-128770095D01*
X146327761Y-128722476D01*
X146375380Y-128627238D01*
X146375380Y-128436761D01*
X146327761Y-128341523D01*
X146280142Y-128293904D01*
X146184904Y-128246285D01*
X145946809Y-128246285D01*
X145851571Y-128293904D01*
X145803952Y-128341523D01*
X145756333Y-128436761D01*
X145756333Y-128627238D01*
X145803952Y-128722476D01*
X145851571Y-128770095D01*
X145946809Y-128817714D01*
%TO.C,C5*%
X153122333Y-131769142D02*
X153074714Y-131816761D01*
X152931857Y-131864380D01*
X152836619Y-131864380D01*
X152693761Y-131816761D01*
X152598523Y-131721523D01*
X152550904Y-131626285D01*
X152503285Y-131435809D01*
X152503285Y-131292952D01*
X152550904Y-131102476D01*
X152598523Y-131007238D01*
X152693761Y-130912000D01*
X152836619Y-130864380D01*
X152931857Y-130864380D01*
X153074714Y-130912000D01*
X153122333Y-130959619D01*
X154027095Y-130864380D02*
X153550904Y-130864380D01*
X153503285Y-131340571D01*
X153550904Y-131292952D01*
X153646142Y-131245333D01*
X153884238Y-131245333D01*
X153979476Y-131292952D01*
X154027095Y-131340571D01*
X154074714Y-131435809D01*
X154074714Y-131673904D01*
X154027095Y-131769142D01*
X153979476Y-131816761D01*
X153884238Y-131864380D01*
X153646142Y-131864380D01*
X153550904Y-131816761D01*
X153503285Y-131769142D01*
%TO.C,C4*%
X155281333Y-131802142D02*
X155233714Y-131849761D01*
X155090857Y-131897380D01*
X154995619Y-131897380D01*
X154852761Y-131849761D01*
X154757523Y-131754523D01*
X154709904Y-131659285D01*
X154662285Y-131468809D01*
X154662285Y-131325952D01*
X154709904Y-131135476D01*
X154757523Y-131040238D01*
X154852761Y-130945000D01*
X154995619Y-130897380D01*
X155090857Y-130897380D01*
X155233714Y-130945000D01*
X155281333Y-130992619D01*
X156138476Y-131230714D02*
X156138476Y-131897380D01*
X155900380Y-130849761D02*
X155662285Y-131564047D01*
X156281333Y-131564047D01*
%TD*%
M02*
